<?xml version="1.0" encoding="utf-8"?>
<!-- Generator: Adobe Illustrator 27.5.0, SVG Export Plug-In . SVG Version: 6.00 Build 0)  -->
<svg version="1.1" id="Layer_1" xmlns="http://www.w3.org/2000/svg" xmlns:xlink="http://www.w3.org/1999/xlink" x="0px" y="0px"
	 viewBox="0 0 1024 1024" style="enable-background:new 0 0 1024 1024;" xml:space="preserve">
<path style="fill:#FFFFFF;" d="M0,0h1024v1024H0V0z"/>
<path style="fill:#E1B4E1;" d="M151.882,654.242c0.268-0.097,0.526-0.223,0.802-0.29c7.889-1.92,27.958,3.67,33.935,8.973
	c0.929,0.824,1.144,1.284,1.19,2.495c-0.442,0.402-0.593,0.59-1.208,0.862c-4.715,2.088-17.457,4.215-22.221,3.046
	c-4.72-0.008-35.083-7.357-38.082-9.588l0.307-0.428C132.332,656.305,145.381,654.185,151.882,654.242z"/>
<path style="fill:#E1B4E1;" d="M153.128,702.757c7.969-2.077,21.269,0.157,29.116,2.491c3.679,1.094,10.761,2.94,12.712,6.494
	l-0.393,1.025c-5.544,4.956-16.638,6.553-23.802,6.976c-10.04,0.254-20.353-4.736-29.849-7.469c-3.235-0.931-9.697-1.5-12.176-3.77
	c2.495-1.898,9.064-3.251,12.194-3.671C145.048,704.28,148.944,702.875,153.128,702.757z"/>
<path style="fill:#CCCEF4;" d="M604.528,97.57c3.867-2.479,7.491-5.377,11.317-7.934c13.239-8.848,28.694-16.142,43.455-22.121
	c2.587-1.059,5.188-2.08,7.805-3.063c2.617-0.983,5.247-1.927,7.892-2.832s5.302-1.772,7.972-2.599
	c2.67-0.827,5.352-1.615,8.045-2.363c2.693-0.748,5.397-1.457,8.111-2.125c2.715-0.669,5.438-1.297,8.17-1.886
	c2.733-0.588,5.474-1.136,8.223-1.644c2.749-0.508,5.504-0.975,8.267-1.402c2.762-0.427,5.53-0.812,8.304-1.157
	c2.774-0.345,5.552-0.649,8.335-0.913c2.783-0.263,5.569-0.486,8.358-0.667s5.581-0.321,8.375-0.421
	c2.793-0.099,5.588-0.157,8.383-0.174c2.795-0.017,5.59,0.008,8.384,0.073c2.795,0.065,5.588,0.172,8.379,0.32
	c2.791,0.148,5.58,0.336,8.366,0.566c12.798,1.132,25.486,3.415,38.076,5.927c-0.147,0.043-0.293,0.088-0.441,0.128
	c-4.708,1.27-10.089,0.987-14.949,1.601c-13.007,1.644-26.19,4.025-38.572,8.432c-47.506,16.908-88.796,65.596-117.368,105.256
	c-7.298,10.131-14.896,20.332-21.131,31.159c-0.232,0.403-0.451,0.815-0.663,1.229c-9.463-4.179-19.286-6.762-29.291-9.231
	c3.293-6.288,6.291-12.82,8.274-19.649C622.205,145.893,617.347,121.104,604.528,97.57z"/>
<path style="fill:#020101;" d="M432.389,169.516c-3.959-14.797-4.826-30.152-1.265-45.123c0.178-0.765,0.365-1.527,0.562-2.288
	c0.197-0.76,0.404-1.518,0.619-2.273c0.216-0.755,0.441-1.508,0.675-2.257c0.234-0.75,0.478-1.497,0.731-2.24
	c0.253-0.744,0.514-1.484,0.785-2.221c0.271-0.737,0.552-1.471,0.841-2.201c0.289-0.731,0.587-1.457,0.894-2.18
	c0.307-0.723,0.624-1.441,0.949-2.156c0.325-0.715,0.658-1.426,1.001-2.133c0.343-0.707,0.694-1.409,1.054-2.107
	c0.36-0.698,0.728-1.392,1.105-2.081c0.377-0.689,0.763-1.373,1.157-2.052c0.394-0.679,0.796-1.354,1.207-2.023
	c0.411-0.669,0.83-1.334,1.257-1.993c0.427-0.659,0.863-1.313,1.306-1.961c0.443-0.648,0.895-1.291,1.354-1.928
	c0.459-0.637,0.926-1.269,1.401-1.894c0.475-0.626,0.957-1.245,1.447-1.859c0.491-0.614,0.989-1.221,1.494-1.822
	c0.505-0.601,1.017-1.196,1.537-1.785c0.52-0.589,1.047-1.171,1.582-1.746c0.534-0.576,1.075-1.145,1.624-1.707
	c0.549-0.562,1.104-1.117,1.666-1.666c0.562-0.549,1.131-1.09,1.707-1.624c0.575-0.534,1.157-1.062,1.746-1.581
	c0.589-0.52,1.184-1.033,1.785-1.538c0.601-0.505,1.209-1.003,1.822-1.493c0.614-0.49,1.234-0.973,1.859-1.448
	c0.625-0.475,1.257-0.942,1.894-1.401c0.637-0.459,1.28-0.91,1.928-1.354c0.649-0.443,1.302-0.879,1.961-1.306
	c0.659-0.427,1.324-0.846,1.993-1.257c0.66-0.4,1.325-0.792,1.994-1.177c0.669-0.384,1.343-0.76,2.022-1.127
	c0.679-0.368,1.362-0.727,2.049-1.077c0.687-0.351,1.379-0.693,2.075-1.027c0.695-0.334,1.395-0.659,2.099-0.976
	c0.704-0.317,1.412-0.625,2.123-0.924c0.711-0.299,1.426-0.59,2.144-0.872c0.719-0.282,1.441-0.555,2.166-0.819
	c0.725-0.264,1.453-0.519,2.184-0.766c0.731-0.246,1.466-0.484,2.203-0.712c0.737-0.228,1.477-0.448,2.22-0.658
	c0.743-0.21,1.488-0.411,2.235-0.603c0.747-0.192,1.497-0.375,2.249-0.548c0.752-0.174,1.506-0.338,2.262-0.493
	c0.756-0.155,1.514-0.301,2.273-0.438c0.76-0.137,1.521-0.264,2.284-0.382s1.527-0.227,2.292-0.326
	c0.765-0.099,1.532-0.189,2.299-0.269c0.767-0.08,1.536-0.151,2.305-0.213c0.769-0.062,1.539-0.114,2.31-0.156
	c0.771-0.043,1.542-0.076,2.313-0.1c0.771-0.024,1.543-0.038,2.314-0.043c0.772-0.005,1.544,0,2.315,0.014
	c0.772,0.014,1.543,0.037,2.314,0.07c0.771,0.033,1.542,0.075,2.312,0.127c0.77,0.052,1.539,0.113,2.308,0.183
	c0.768,0.071,1.535,0.151,2.302,0.24c0.767,0.089,1.532,0.188,2.296,0.296c0.764,0.108,1.527,0.226,2.288,0.353
	c0.761,0.127,1.521,0.263,2.279,0.408c0.758,0.146,1.514,0.3,2.268,0.464c0.754,0.164,1.506,0.337,2.256,0.519
	c0.763,0.19,1.524,0.389,2.282,0.597c0.759,0.208,1.514,0.426,2.267,0.653c0.753,0.227,1.504,0.463,2.251,0.708
	c0.747,0.245,1.491,0.5,2.232,0.764c0.741,0.264,1.478,0.537,2.212,0.818c0.735,0.282,1.465,0.573,2.192,0.873
	c0.727,0.3,1.451,0.609,2.17,0.926c0.719,0.318,1.435,0.644,2.146,0.979c0.711,0.335,1.419,0.679,2.122,1.032
	c0.703,0.353,1.401,0.714,2.095,1.084c0.694,0.37,1.383,0.748,2.068,1.135c0.685,0.387,1.365,0.782,2.04,1.186
	c0.675,0.404,1.344,0.816,2.009,1.236c0.665,0.42,1.324,0.848,1.979,1.285c0.654,0.437,1.303,0.881,1.946,1.333
	c0.643,0.452,1.281,0.913,1.913,1.381c0.632,0.468,1.258,0.944,1.878,1.427c0.621,0.483,1.235,0.975,1.843,1.473
	c0.608,0.499,1.21,1.005,1.806,1.518c0.595,0.513,1.185,1.034,1.768,1.562c0.583,0.528,1.159,1.063,1.728,1.605
	c0.57,0.542,1.133,1.091,1.689,1.647c0.556,0.556,1.105,1.119,1.648,1.688c0.542,0.57,1.077,1.146,1.605,1.729
	c0.529,0.583,1.05,1.172,1.563,1.768c0.513,0.596,1.02,1.197,1.519,1.806c0.499,0.608,0.99,1.222,1.473,1.842
	c0.484,0.62,0.96,1.246,1.428,1.878s0.928,1.269,1.381,1.913c0.453,0.643,0.897,1.292,1.334,1.946
	c0.436,0.654,0.864,1.314,1.285,1.978c0.42,0.665,0.832,1.335,1.236,2.009c12.819,23.534,17.677,48.323,10.076,74.51
	c-1.983,6.829-4.981,13.361-8.274,19.649c10.005,2.469,19.828,5.052,29.291,9.231c21.412,8.734,38.713,21.23,56.045,36.31
	c23.814-29.207,55.094-48.574,93.214-52.36c1.068-0.107,2.137-0.201,3.208-0.282c1.071-0.081,2.142-0.148,3.215-0.202
	c1.072-0.054,2.145-0.095,3.218-0.123c1.073-0.027,2.147-0.042,3.221-0.043c1.073-0.001,2.147,0.012,3.22,0.037
	c1.073,0.026,2.146,0.065,3.219,0.117c1.072,0.053,2.143,0.118,3.214,0.197c1.071,0.079,2.14,0.171,3.209,0.276
	c1.069,0.105,2.136,0.224,3.201,0.356c1.065,0.131,2.129,0.276,3.191,0.434c1.062,0.158,2.122,0.329,3.18,0.514
	c1.057,0.185,2.113,0.382,3.166,0.592c1.053,0.211,2.103,0.434,3.15,0.671c1.047,0.237,2.091,0.486,3.132,0.748
	c1.041,0.263,2.079,0.538,3.113,0.826c1.035,0.289,2.065,0.59,3.092,0.903c1.027,0.314,2.049,0.64,3.068,0.979
	c1.019,0.339,2.033,0.691,3.043,1.055s2.015,0.741,3.016,1.13c1.001,0.389,1.996,0.791,2.987,1.204
	c0.991,0.414,1.976,0.84,2.957,1.278c0.98,0.439,1.954,0.889,2.923,1.351c0.969,0.463,1.933,0.937,2.89,1.423
	c0.957,0.486,1.908,0.984,2.853,1.494c0.945,0.51,1.883,1.031,2.815,1.564c0.932,0.533,1.857,1.078,2.776,1.634
	c0.918,0.556,1.829,1.123,2.734,1.702c0.905,0.578,1.802,1.168,2.691,1.769c0.89,0.601,1.772,1.212,2.647,1.835
	c0.875,0.623,1.741,1.256,2.6,1.9c0.859,0.644,1.71,1.299,2.553,1.964c0.843,0.665,1.677,1.341,2.503,2.027
	c26.047,21.508,44.463,53.924,47.596,87.771c3.133,33.838-5.418,69.02-27.469,95.464c-22.494,26.974-56.315,43.702-91.133,46.752
	c-1.095,0.089-2.19,0.165-3.286,0.228c-1.097,0.063-2.194,0.112-3.291,0.147c-1.098,0.036-2.196,0.058-3.294,0.067
	c-1.098,0.008-2.196,0.003-3.294-0.015c-1.098-0.019-2.196-0.051-3.293-0.096c-1.097-0.045-2.194-0.104-3.29-0.176
	c-1.095-0.073-2.19-0.159-3.284-0.258c-1.094-0.099-2.186-0.211-3.277-0.338c-1.091-0.126-2.18-0.265-3.268-0.418
	c-1.087-0.153-2.173-0.319-3.256-0.498c-1.083-0.18-2.164-0.373-3.243-0.579c-1.079-0.206-2.155-0.425-3.228-0.658
	c-1.073-0.232-2.144-0.478-3.211-0.737c-1.067-0.259-2.131-0.53-3.192-0.815c-1.061-0.285-2.118-0.583-3.171-0.894
	c-1.053-0.311-2.102-0.635-3.147-0.972c-1.045-0.337-2.086-0.686-3.123-1.048c-1.037-0.363-2.069-0.738-3.097-1.125
	c-1.027-0.388-2.05-0.788-3.067-1.201c-1.018-0.413-2.031-0.838-3.038-1.276c-1.007-0.438-2.008-0.888-3.005-1.35
	c-0.996-0.463-1.986-0.937-2.971-1.424c-0.984-0.487-1.962-0.985-2.935-1.496c-0.972-0.511-1.938-1.033-2.897-1.567
	c-0.959-0.535-1.912-1.081-2.858-1.639c-0.946-0.558-1.885-1.127-2.817-1.708s-1.857-1.173-2.774-1.777
	c-0.917-0.603-1.827-1.218-2.729-1.844c-0.903-0.626-1.797-1.263-2.684-1.911c-0.887-0.648-1.765-1.307-2.635-1.977
	c-0.871-0.669-1.733-1.349-2.587-2.04c-0.853-0.691-1.698-1.393-2.535-2.104c-0.819-0.683-1.63-1.377-2.431-2.08
	c-0.802-0.703-1.595-1.417-2.379-2.14c-0.784-0.723-1.559-1.456-2.324-2.199c-0.766-0.743-1.522-1.495-2.269-2.256
	c-0.747-0.761-1.485-1.532-2.212-2.312c-0.728-0.78-1.446-1.569-2.154-2.367c-0.708-0.797-1.406-1.604-2.094-2.419
	c-0.688-0.815-1.366-1.639-2.033-2.471c-0.667-0.832-1.324-1.672-1.97-2.521c-0.647-0.849-1.282-1.705-1.907-2.569
	c-0.625-0.865-1.24-1.737-1.843-2.616c-0.603-0.88-1.195-1.767-1.776-2.661c-0.581-0.895-1.151-1.796-1.71-2.705
	c-0.559-0.909-1.106-1.824-1.642-2.747c-0.535-0.922-1.059-1.851-1.572-2.786c-0.513-0.935-1.014-1.877-1.503-2.825
	c-0.489-0.948-0.967-1.902-1.432-2.862c-0.465-0.959-0.918-1.925-1.359-2.896c-0.441-0.971-0.871-1.948-1.288-2.93
	c-0.417-0.981-0.821-1.968-1.213-2.96c-0.393-0.992-0.773-1.989-1.14-2.99c-0.367-1.001-0.722-2.007-1.064-3.018
	c-0.343-1.01-0.672-2.024-0.989-3.043c-0.317-1.018-0.622-2.04-0.913-3.066c-0.291-1.026-0.57-2.056-0.836-3.089
	c-0.266-1.033-0.519-2.069-0.759-3.108c-0.24-1.039-0.467-2.082-0.681-3.127c-0.213-1.045-0.414-2.092-0.602-3.142
	c-0.188-1.05-0.363-2.102-0.524-3.157c-0.162-1.054-0.31-2.11-0.445-3.168c-0.135-1.059-0.257-2.118-0.366-3.179
	c-0.109-1.061-0.205-2.124-0.287-3.187c-2.551-31.864,6.944-59.441,24.48-85.6c-6.323-4.999-12.325-10.387-18.788-15.21
	c-11.585-8.645-24.369-15.431-37.662-21.05c-9.282-3.89-19.491-5.634-28.583-9.736c-0.381,0.662-0.77,1.319-1.167,1.972
	c-0.397,0.653-0.802,1.302-1.214,1.945c-0.412,0.643-0.832,1.282-1.259,1.915c-0.427,0.633-0.862,1.262-1.304,1.885
	c-0.442,0.623-0.891,1.24-1.348,1.853c-0.456,0.613-0.92,1.22-1.391,1.822c-0.471,0.601-0.948,1.197-1.433,1.788
	c-0.485,0.591-0.977,1.175-1.476,1.754c-0.499,0.579-1.004,1.152-1.516,1.719c-0.512,0.567-1.031,1.127-1.556,1.682
	c-0.525,0.555-1.057,1.103-1.596,1.646c-0.538,0.542-1.083,1.078-1.634,1.607c-0.551,0.529-1.108,1.052-1.671,1.568
	c-0.563,0.517-1.132,1.026-1.707,1.529c-0.575,0.503-1.157,0.999-1.744,1.488c-0.587,0.489-1.179,0.972-1.777,1.447
	c-0.599,0.475-1.203,0.943-1.812,1.404c-0.609,0.461-1.224,0.914-1.844,1.361c-0.62,0.447-1.245,0.886-1.875,1.317
	c-0.631,0.432-1.266,0.856-1.906,1.273c-0.641,0.417-1.286,0.827-1.935,1.228c-0.65,0.401-1.305,0.795-1.964,1.182
	c-0.659,0.386-1.323,0.764-1.991,1.135c-0.669,0.371-1.341,0.733-2.018,1.088c-0.677,0.355-1.357,0.701-2.042,1.04
	c-0.685,0.339-1.373,0.669-2.066,0.992c-0.693,0.322-1.389,0.636-2.089,0.942c-0.7,0.307-1.404,0.605-2.111,0.894
	c-0.707,0.289-1.417,0.57-2.131,0.843c-0.713,0.273-1.43,0.537-2.15,0.793c-0.72,0.256-1.443,0.503-2.169,0.742
	c-0.725,0.239-1.454,0.469-2.185,0.691c-0.684,0.215-1.371,0.421-2.06,0.618c-0.689,0.198-1.38,0.387-2.074,0.568
	c-0.693,0.181-1.389,0.353-2.087,0.517c-0.698,0.164-1.398,0.319-2.1,0.466c-0.701,0.147-1.405,0.285-2.11,0.414
	c-0.705,0.129-1.411,0.25-2.119,0.363c-0.708,0.112-1.417,0.216-2.128,0.311c-0.711,0.095-1.422,0.181-2.135,0.258
	c-0.713,0.078-1.426,0.147-2.141,0.207c-0.714,0.06-1.429,0.111-2.145,0.154c-0.715,0.043-1.431,0.077-2.148,0.102
	c-0.716,0.025-1.433,0.042-2.15,0.049c-0.717,0.008-1.433,0.007-2.15-0.003c-0.717-0.01-1.433-0.029-2.15-0.056
	c-0.716-0.027-1.432-0.063-2.147-0.108c-0.716-0.045-1.431-0.098-2.145-0.161c-0.714-0.062-1.427-0.133-2.14-0.213
	c-0.712-0.079-1.423-0.168-2.134-0.265c-0.71-0.097-1.419-0.202-2.127-0.317c-0.707-0.115-1.413-0.238-2.118-0.369
	c-0.705-0.132-1.408-0.272-2.109-0.421c-0.701-0.149-1.401-0.306-2.098-0.472c-0.697-0.166-1.393-0.34-2.086-0.523
	c-0.693-0.183-1.384-0.374-2.072-0.574c-0.689-0.2-1.375-0.408-2.058-0.625c-0.683-0.216-1.364-0.441-2.042-0.674
	c-0.678-0.233-1.353-0.475-2.025-0.724c-0.672-0.25-1.341-0.508-2.006-0.774c-0.666-0.266-1.329-0.54-1.988-0.822
	c-0.659-0.282-1.314-0.572-1.966-0.87c-0.652-0.299-1.3-0.605-1.944-0.919c-0.645-0.314-1.285-0.636-1.922-0.965
	C458.09,218.116,440.634,196.2,432.389,169.516z"/>
<path style="fill:#CCCEF4;" d="M602.377,97.517c12.479,18.318,16.719,43.536,12.607,65.155
	c-4.539,23.862-18.797,46.277-38.999,59.901c-20.964,14.139-46.038,20.066-70.979,15.041c-3.387-0.678-6.727-1.541-10.019-2.588
	c2.949-3.402,4.783-7.822,6.792-11.825c4.637-9.239,10.474-22.669,16.72-30.691c1.186-1.524,2.149-2.707,4.166-2.991
	c1.147-8.498,0.346-17.862,0.186-26.428c5.341-6.204,4.983-6.505,12.329-10.569l1.493-0.139c7.082-5.229,13.585-11.534,20.17-17.384
	c-0.003-2.8,0.018-5.494,0.41-8.274l0.226-0.705c1.938-1.745,9.499-0.973,12.384-0.965c0.702-0.669,0.398-0.427,1.095-0.929
	c7.004-5.045,13.01-11.302,19.52-16.938C594.34,103.844,598.652,100.993,602.377,97.517z"/>
<path style="fill:#8AAD6E;" d="M536.673,152.383c3.121,0.085,6.242,0.107,9.364,0.065c-0.011,12.523,0.048,25.045,0.177,37.567
	c-4.268,0.013-20.931,0.885-23.549-0.496c1.147-8.498,0.346-17.862,0.186-26.428c5.341-6.204,4.983-6.505,12.329-10.569
	L536.673,152.383z"/>
<path style="fill:#393198;" d="M569.863,125.055c3.709,0.066,7.474,0.005,11.173,0.264l-0.105,41.578
	c-0.022,7.772,0.2,15.665-0.217,23.422c-7.736-0.02-15.481-0.12-23.215-0.028l-0.001-41.202c-0.004-7.354,0.405-15.05-0.245-22.364
	l0.226-0.705C559.417,124.275,566.978,125.047,569.863,125.055z"/>
<path style="fill:#FFFFFF;" d="M434.701,171.057c-4.06-14.74-5.466-29.599-2.209-44.645c0.162-0.753,0.333-1.503,0.513-2.252
	c0.181-0.749,0.37-1.495,0.569-2.239c0.199-0.743,0.406-1.485,0.623-2.224c0.217-0.739,0.442-1.475,0.677-2.208
	c0.235-0.733,0.479-1.464,0.732-2.191c0.253-0.727,0.514-1.451,0.785-2.172c0.271-0.721,0.55-1.438,0.838-2.152
	c0.288-0.714,0.585-1.424,0.891-2.131c0.305-0.707,0.619-1.409,0.942-2.108c0.323-0.699,0.655-1.394,0.995-2.085
	c0.339-0.691,0.688-1.377,1.045-2.06c0.357-0.682,0.722-1.36,1.095-2.033c0.373-0.674,0.755-1.342,1.145-2.006
	c0.39-0.664,0.788-1.323,1.194-1.977c0.406-0.654,0.82-1.303,1.242-1.947c0.422-0.644,0.852-1.283,1.289-1.916
	c0.437-0.633,0.883-1.262,1.336-1.884c0.453-0.622,0.914-1.239,1.382-1.851c0.468-0.611,0.944-1.217,1.427-1.816
	c0.483-0.6,0.973-1.193,1.471-1.781c0.497-0.587,1.002-1.169,1.514-1.744c0.512-0.575,1.031-1.144,1.557-1.706
	s1.059-1.118,1.598-1.668c0.539-0.549,1.085-1.092,1.638-1.628c0.553-0.536,1.112-1.065,1.678-1.587
	c0.566-0.522,1.138-1.037,1.717-1.545c0.578-0.508,1.162-1.009,1.753-1.503c0.591-0.494,1.188-0.98,1.791-1.459
	c0.603-0.479,1.211-0.951,1.825-1.415c0.614-0.464,1.234-0.921,1.86-1.37c0.625-0.449,1.256-0.89,1.892-1.324
	c0.637-0.434,1.278-0.859,1.925-1.277c0.631-0.4,1.266-0.792,1.906-1.176c0.64-0.384,1.284-0.761,1.933-1.13
	c0.649-0.369,1.303-0.729,1.961-1.082c0.658-0.353,1.32-0.698,1.986-1.034c0.666-0.337,1.336-0.665,2.011-0.986
	c0.674-0.32,1.352-0.633,2.034-0.937c0.681-0.304,1.367-0.6,2.056-0.887c0.689-0.287,1.381-0.566,2.077-0.837
	c0.696-0.271,1.395-0.533,2.097-0.786c0.702-0.254,1.407-0.499,2.115-0.735c0.708-0.236,1.419-0.464,2.133-0.683
	c0.713-0.219,1.429-0.43,2.148-0.631c0.719-0.202,1.44-0.395,2.164-0.579c0.723-0.184,1.449-0.36,2.176-0.526
	c0.728-0.167,1.458-0.324,2.189-0.473c0.731-0.149,1.465-0.289,2.2-0.42c0.735-0.131,1.471-0.253,2.209-0.366
	c0.738-0.113,1.477-0.217,2.217-0.313c0.741-0.095,1.482-0.181,2.225-0.259c0.742-0.077,1.485-0.146,2.23-0.205
	c0.744-0.059,1.489-0.109,2.234-0.15c0.745-0.041,1.491-0.073,2.237-0.096c0.747-0.023,1.493-0.037,2.239-0.042
	c0.747-0.005,1.493-0.001,2.24,0.013c0.746,0.013,1.492,0.036,2.238,0.067c0.746,0.031,1.491,0.072,2.236,0.121
	c0.745,0.049,1.489,0.108,2.233,0.176c0.743,0.068,1.486,0.144,2.227,0.23c0.742,0.086,1.483,0.18,2.222,0.284
	c0.739,0.104,1.476,0.216,2.213,0.338c0.737,0.121,1.472,0.252,2.205,0.391c0.733,0.139,1.465,0.288,2.195,0.445
	c25.208,5.619,46.382,20.904,60.16,42.635c-3.725,3.476-8.037,6.327-11.899,9.671c-6.51,5.636-12.516,11.893-19.52,16.938
	c-0.697,0.502-0.393,0.26-1.095,0.929c-2.885-0.008-10.446-0.78-12.384,0.965l-0.226,0.705c-0.392,2.78-0.413,5.474-0.41,8.274
	c-6.585,5.85-13.088,12.155-20.17,17.384l-1.493,0.139c-7.346,4.064-6.988,4.365-12.329,10.569c0.16,8.566,0.961,17.93-0.186,26.428
	c-2.017,0.284-2.98,1.467-4.166,2.991c-6.246,8.022-12.083,21.452-16.72,30.691c-2.009,4.003-3.843,8.423-6.792,11.825
	c-3.921-1.54-7.73-3.321-11.426-5.344C460.574,217.172,442.149,196.32,434.701,171.057z"/>
<path style="fill:#F6D074;" d="M522.47,152.163c4.25-0.02,8.467,0.15,12.71,0.359c-7.346,4.064-6.988,4.365-12.329,10.569
	l-0.265,0.032C522.381,159.495,522.493,155.8,522.47,152.163z"/>
<path style="fill:#E55159;" d="M459.762,142.432l23.145,0.059c-0.061,10.957-0.319,21.96-0.094,32.912l0.198,15.211
	c-7.778-0.211-15.59-0.1-23.373-0.132c-0.036-5.847-0.009-11.693,0.08-17.54C459.746,162.807,459.337,152.548,459.762,142.432z"/>
<path style="fill:#FCB42A;" d="M490.745,101.474l25.143,0.018l0.113,67.17c-0.093,7.307-0.098,14.615-0.013,21.922
	c-8.093-0.088-16.185-0.082-24.277,0.019l-0.159-15.173C491.577,150.775,491.308,126.123,490.745,101.474z"/>
<path style="fill:#FFFFFF;" d="M788.834,186.209c0.127-0.02,0.252-0.048,0.38-0.06c33.066-3.258,69.338,10.669,93.918,32.32
	c0.806,0.713,1.603,1.437,2.391,2.17c0.789,0.733,1.568,1.475,2.338,2.228c0.77,0.752,1.531,1.513,2.282,2.284
	c0.751,0.771,1.493,1.551,2.225,2.34c0.732,0.789,1.454,1.586,2.167,2.393c0.713,0.807,1.415,1.622,2.108,2.446
	c0.693,0.824,1.375,1.656,2.047,2.497c0.673,0.841,1.335,1.69,1.986,2.547c0.651,0.857,1.292,1.721,1.922,2.594
	c0.63,0.873,1.249,1.753,1.858,2.641c0.609,0.888,1.206,1.783,1.793,2.685c0.587,0.903,1.162,1.812,1.727,2.729
	c0.564,0.917,1.117,1.84,1.659,2.77c0.541,0.931,1.071,1.867,1.59,2.81c0.519,0.943,1.026,1.893,1.521,2.848
	c0.496,0.956,0.98,1.918,1.451,2.885c0.472,0.967,0.932,1.94,1.38,2.919c0.448,0.979,0.884,1.964,1.308,2.953
	c0.423,0.989,0.835,1.984,1.235,2.983c0.399,1,0.786,2.004,1.161,3.013c0.375,1.009,0.737,2.023,1.087,3.041
	c0.35,1.018,0.687,2.04,1.012,3.066s0.637,2.056,0.937,3.09c0.299,1.034,0.586,2.071,0.861,3.112
	c0.274,1.041,0.535,2.086,0.784,3.133c0.248,1.047,0.484,2.097,0.707,3.15c0.223,1.053,0.432,2.109,0.629,3.167
	c0.197,1.058,0.381,2.119,0.552,3.182c0.171,1.063,0.328,2.127,0.473,3.194c0.145,1.067,0.277,2.135,0.395,3.204
	c0.119,1.07,0.224,2.141,0.317,3.214c0.092,1.072,0.171,2.145,0.237,3.22c1.828,32.308-8.238,65.89-30.173,90.103
	c-0.718,0.802-1.446,1.595-2.184,2.378c-0.737,0.784-1.484,1.559-2.241,2.324c-0.757,0.765-1.524,1.521-2.299,2.268
	c-0.775,0.747-1.56,1.484-2.353,2.211c-0.793,0.727-1.596,1.445-2.407,2.152c-0.811,0.708-1.63,1.406-2.459,2.093
	c-0.828,0.687-1.664,1.364-2.509,2.031c-0.845,0.667-1.698,1.324-2.559,1.969c-0.861,0.646-1.73,1.281-2.607,1.906
	c-0.877,0.625-1.761,1.238-2.652,1.841c-0.892,0.603-1.791,1.194-2.697,1.775c-0.907,0.581-1.82,1.15-2.74,1.709
	c-0.921,0.558-1.848,1.105-2.781,1.64c-0.934,0.536-1.874,1.06-2.821,1.572c-0.947,0.513-1.899,1.013-2.858,1.502
	c-0.959,0.489-1.923,0.966-2.894,1.431c-0.971,0.465-1.947,0.919-2.929,1.36c-0.982,0.441-1.969,0.87-2.961,1.287
	c-0.993,0.417-1.99,0.821-2.992,1.214c-1.003,0.392-2.01,0.772-3.021,1.14c-1.011,0.367-2.027,0.722-3.048,1.065
	c-1.02,0.343-2.044,0.673-3.073,0.991c-1.029,0.317-2.061,0.622-3.097,0.914c-1.036,0.292-2.075,0.571-3.118,0.838
	c-1.043,0.267-2.089,0.52-3.138,0.761c-1.049,0.241-2.101,0.469-3.156,0.684c-1.055,0.215-2.112,0.417-3.171,0.606
	c-1.059,0.189-2.121,0.365-3.185,0.528c-1.064,0.163-2.13,0.312-3.198,0.449c-1.067,0.137-2.136,0.26-3.207,0.371
	c-1.071,0.11-2.143,0.207-3.216,0.291c-1.073,0.085-2.147,0.156-3.222,0.213l-0.453,0.044c-32.407,2.88-66.809-9.764-91.542-30.37
	c-0.819-0.671-1.629-1.353-2.43-2.044c-0.801-0.691-1.594-1.392-2.378-2.103c-0.784-0.711-1.559-1.432-2.325-2.163
	c-0.766-0.73-1.523-1.47-2.27-2.219c-0.748-0.749-1.486-1.508-2.215-2.276c-0.729-0.767-1.447-1.544-2.156-2.33
	c-0.709-0.785-1.409-1.58-2.099-2.383c-0.689-0.803-1.369-1.614-2.038-2.434c-0.669-0.82-1.328-1.648-1.977-2.485
	c-0.648-0.836-1.286-1.68-1.914-2.533c-0.627-0.852-1.244-1.712-1.85-2.58c-0.606-0.867-1.201-1.742-1.786-2.625
	c-0.584-0.883-1.157-1.772-1.72-2.669c-0.562-0.897-1.113-1.8-1.652-2.711c-0.54-0.911-1.068-1.828-1.585-2.752
	c-0.517-0.923-1.022-1.853-1.515-2.79c-0.493-0.936-0.975-1.878-1.445-2.827c-0.471-0.948-0.929-1.902-1.375-2.862
	c-0.446-0.959-0.88-1.924-1.303-2.895c-0.422-0.971-0.832-1.946-1.23-2.927c-0.398-0.981-0.784-1.966-1.157-2.957
	c-0.373-0.991-0.734-1.986-1.082-2.985c-0.349-0.999-0.685-2.003-1.008-3.01c-0.324-1.008-0.635-2.02-0.933-3.035
	c-0.299-1.016-0.584-2.035-0.857-3.058c-0.273-1.023-0.533-2.048-0.78-3.077c-0.247-1.029-0.482-2.062-0.703-3.097
	c-0.222-1.035-0.431-2.072-0.626-3.112c-0.196-1.041-0.379-2.083-0.548-3.128c-0.17-1.045-0.327-2.091-0.47-3.14
	c-0.144-1.049-0.275-2.099-0.392-3.15c-0.117-1.052-0.222-2.105-0.313-3.16c-0.078-1.047-0.143-2.094-0.195-3.143
	c-0.053-1.049-0.092-2.098-0.119-3.147c-0.027-1.05-0.04-2.1-0.041-3.149c-0.001-1.05,0.01-2.1,0.035-3.15
	c0.025-1.049,0.062-2.098,0.113-3.147c0.05-1.049,0.113-2.097,0.189-3.144c0.076-1.047,0.165-2.093,0.266-3.138
	c0.101-1.045,0.215-2.088,0.342-3.131c0.127-1.042,0.267-2.082,0.419-3.121c0.153-1.039,0.318-2.075,0.495-3.11
	c0.178-1.035,0.368-2.067,0.571-3.097c0.203-1.03,0.418-2.058,0.646-3.083c0.228-1.025,0.469-2.046,0.722-3.065
	c0.253-1.019,0.518-2.035,0.796-3.047c0.277-1.013,0.567-2.022,0.87-3.027c0.302-1.005,0.617-2.007,0.944-3.005
	c0.327-0.997,0.666-1.991,1.017-2.98c0.351-0.989,0.714-1.974,1.089-2.955c0.375-0.981,0.763-1.957,1.162-2.928
	c0.399-0.971,0.809-1.937,1.232-2.898c0.423-0.961,0.857-1.916,1.303-2.867c0.446-0.951,0.904-1.895,1.373-2.834
	c0.469-0.939,0.949-1.873,1.441-2.801c0.492-0.927,0.995-1.849,1.51-2.764c0.514-0.915,1.039-1.824,1.576-2.726
	c0.537-0.903,1.084-1.798,1.643-2.687c0.558-0.889,1.127-1.771,1.707-2.646c0.58-0.875,1.171-1.743,1.772-2.604
	c0.601-0.861,1.213-1.714,1.835-2.56c0.622-0.845,1.254-1.683,1.897-2.514c0.643-0.83,1.295-1.652,1.958-2.467
	c0.663-0.814,1.335-1.62,2.017-2.418c0.708-0.811,1.426-1.614,2.153-2.407c0.727-0.794,1.464-1.579,2.21-2.355
	c0.747-0.776,1.502-1.543,2.267-2.3c0.765-0.757,1.539-1.506,2.322-2.245c0.783-0.739,1.575-1.468,2.376-2.187
	c0.801-0.719,1.61-1.429,2.429-2.129c0.818-0.7,1.644-1.39,2.479-2.07c0.835-0.68,1.678-1.35,2.529-2.009
	c0.851-0.659,1.709-1.308,2.576-1.946c0.867-0.639,1.742-1.267,2.624-1.884c0.882-0.617,1.771-1.224,2.668-1.82
	c0.897-0.595,1.8-1.18,2.711-1.754c0.911-0.574,1.829-1.137,2.754-1.688c0.925-0.551,1.856-1.092,2.793-1.621
	c0.938-0.529,1.882-1.046,2.832-1.552c0.951-0.506,1.907-1,2.869-1.483c0.962-0.483,1.93-0.954,2.904-1.413
	c0.974-0.459,1.953-0.907,2.938-1.342c0.984-0.436,1.974-0.86,2.969-1.271c0.995-0.411,1.994-0.811,2.999-1.198
	c1.004-0.387,2.013-0.762,3.027-1.125c1.013-0.363,2.031-0.713,3.054-1.051c1.022-0.338,2.048-0.664,3.078-0.977
	c1.03-0.313,2.064-0.614,3.101-0.902c1.037-0.288,2.078-0.563,3.122-0.826c1.044-0.263,2.091-0.513,3.141-0.75
	c1.05-0.237,2.103-0.462,3.159-0.674c1.055-0.212,2.113-0.411,3.174-0.597c1.06-0.186,2.122-0.359,3.187-0.52
	c1.065-0.16,2.131-0.307,3.199-0.442c1.068-0.135,2.138-0.256,3.209-0.364C786.688,186.387,787.761,186.292,788.834,186.209z"/>
<path style="fill:#70C1B5;" d="M791.872,235.719c19.272-0.444,38.265,5.034,53.399,17.241c14.903,12.021,25.42,31.033,27.446,50.114
	c1.877,17.67-3.637,36.735-14.948,50.479c-14.01,17.023-32.307,26.355-54.145,28.4l-0.543,0.029
	c-23.008,1.211-40.609-3.846-58-19.674c-0.903-0.824-1.786-1.67-2.648-2.537c-0.861-0.868-1.701-1.756-2.519-2.665
	c-0.818-0.909-1.613-1.838-2.385-2.786c-0.773-0.949-1.521-1.915-2.245-2.9c-0.725-0.985-1.424-1.988-2.099-3.008
	c-0.675-1.019-1.325-2.055-1.949-3.107c-0.623-1.051-1.221-2.118-1.792-3.199c-0.571-1.081-1.116-2.176-1.633-3.284
	c-0.517-1.108-1.007-2.228-1.469-3.36c-0.462-1.133-0.896-2.276-1.302-3.429c-0.405-1.153-0.782-2.316-1.13-3.489
	c-0.349-1.172-0.668-2.352-0.958-3.54c-0.29-1.188-0.551-2.382-0.782-3.583c-0.231-1.201-0.432-2.406-0.604-3.617
	c-0.171-1.211-0.313-2.425-0.425-3.643c-0.112-1.217-0.194-2.437-0.245-3.659c-0.858-18.951,5.338-36.958,18.215-50.974
	C752.919,244.498,771.668,236.584,791.872,235.719z"/>
<linearGradient id="SVGID_1_" gradientUnits="userSpaceOnUse" x1="804.232" y1="717.993" x2="822.4608" y2="708.2351" gradientTransform="matrix(1 0 0 -1 0 1026)">
	<stop  offset="0" style="stop-color:#328471"/>
	<stop  offset="1" style="stop-color:#409A8B"/>
</linearGradient>
<path style="fill:url(#SVGID_1_);" d="M835.041,278.148c1.529,0.51,2.11,1.334,2.974,2.688c1.438,1.029,2.847,2.044,4.178,3.209
	c-8.638,13.396-20.512,25.29-30.985,37.285c-7.204,8.252-14.103,17.282-21.934,24.922c-2.248-0.964-4.049-1.797-5.865-3.498
	c4.116-0.664,6.711-4.368,9.182-7.394c0.893-3.085,3.594-5.685,3.756-8.895c1.514-3.475,6.273-7.686,8.817-10.631l4.406-5.154
	c4.956-5.941,9.898-12.673,15.582-17.914c2.187-3.504,5.267-6.776,7.815-10.054C833.791,281.292,834.386,279.658,835.041,278.148z"
	/>
<path style="fill:#133036;" d="M835.041,278.148c1.529,0.51,2.11,1.334,2.974,2.688c-0.92,1.56-1.8,3.17-2.877,4.627
	c-0.79-0.817-1.469-1.85-2.171-2.751C833.791,281.292,834.386,279.658,835.041,278.148z"/>
<path style="fill:#133036;" d="M805.164,315.834c0.716,1.315,0.988,1.43,0.458,2.887c-0.341,0.937-0.744,1.692-0.976,2.683
	c-3.953,4.714-7.892,9.424-12.055,13.956c0.893-3.085,3.594-5.685,3.756-8.895C797.861,322.99,802.62,318.779,805.164,315.834z"/>
<path style="fill:#16474B;" d="M825.152,292.766c2.187-3.504,5.267-6.776,7.815-10.054c0.702,0.901,1.381,1.934,2.171,2.751
	l-3.244,4.104c-4.812,6.08-15.476,20.004-21.013,24.468c-1.985,2.569-4.016,4.998-6.235,7.369c0.232-0.991,0.635-1.746,0.976-2.683
	c0.53-1.457,0.258-1.572-0.458-2.887l4.406-5.154C814.526,304.739,819.468,298.007,825.152,292.766z"/>
<path style="fill:#FFFFFF;" d="M780.804,317.685c6.272-4.851,11.479-11.222,16.817-17.059c8.862-9.691,17.665-19.643,27.231-28.646
	c2.183,1.883,4.863,4.342,7.644,5.198c1.342,0.414,0.583,0.102,1.883,0.669c0.222,0.097,0.441,0.201,0.662,0.301
	c-0.655,1.51-1.25,3.144-2.074,4.564c-2.548,3.278-5.628,6.55-7.815,10.054c-5.684,5.241-10.626,11.973-15.582,17.914l-4.406,5.154
	c-2.544,2.945-7.303,7.156-8.817,10.631c-0.162,3.21-2.863,5.81-3.756,8.895c-2.471,3.026-5.066,6.73-9.182,7.394
	c-5.397-8.064-15.23-13.264-20.26-21.72c-2.221-3.698-6.737-7.049-9.662-10.429c1.986-1.347,3.11-2.815,4.425-4.767
	c0.587-0.873,0.826-1.075,1.87-1.378C764.704,303.033,776.027,314.818,780.804,317.685z"/>
<path style="fill:#101E27;" d="M763.149,321.034c6.703,6.206,12.792,13.043,19.429,19.315c5.669-3.526,8.936-9.467,13.769-13.884
	c-0.162,3.21-2.863,5.81-3.756,8.895c-2.471,3.026-5.066,6.73-9.182,7.394C778.012,334.69,768.179,329.49,763.149,321.034z"/>
<path style="fill:#CCCEF4;" d="M135.15,618.571c4.183-9.125,6.24-19.054,5.427-29.081c-1.464-18.064-9.435-35.036-16.369-51.522
	c-3.485-8.286-6.515-16.802-10.25-24.977c-8.625-18.877-18.401-37.286-26.902-56.229c-4.994-10.948-9.505-22.091-13.534-33.43
	c-4.029-11.339-7.56-22.83-10.594-34.474c-3.658-13.962-6.645-28.389-7.891-42.784c-3.717-42.942,5.151-90.402,27.032-127.769
	c9.006-15.38,19.623-30.104,32.526-42.486c42.315-40.603,102.658-53.557,159.334-43.361c44.239,7.959,86.398,24.873,130.6,33.359
	c4.699,0.902,23.551,5.086,27.253,3.914c0.204-0.065,0.404-0.144,0.606-0.215c8.245,26.684,25.701,48.6,50.538,61.737
	c0.637,0.329,1.277,0.651,1.922,0.965c0.644,0.314,1.292,0.62,1.944,0.919c0.652,0.298,1.307,0.588,1.966,0.87
	c0.659,0.282,1.322,0.556,1.988,0.822c0.665,0.266,1.334,0.524,2.006,0.774c0.672,0.249,1.347,0.491,2.025,0.724
	c0.678,0.233,1.359,0.458,2.042,0.674c0.683,0.217,1.369,0.425,2.058,0.625c0.688,0.2,1.379,0.391,2.072,0.574
	c0.693,0.183,1.389,0.357,2.086,0.523c0.697,0.166,1.397,0.323,2.098,0.472c0.701,0.149,1.404,0.289,2.109,0.421
	c0.705,0.131,1.411,0.254,2.118,0.369c0.708,0.115,1.417,0.22,2.127,0.317c0.711,0.097,1.422,0.186,2.134,0.265
	c0.713,0.08,1.426,0.151,2.14,0.213c0.714,0.063,1.429,0.116,2.145,0.161c0.715,0.045,1.431,0.081,2.147,0.108
	c0.717,0.027,1.433,0.046,2.15,0.056c0.717,0.01,1.433,0.011,2.15,0.003c0.717-0.007,1.434-0.024,2.15-0.049
	c0.717-0.025,1.433-0.059,2.148-0.102c0.716-0.043,1.431-0.094,2.145-0.154c0.715-0.06,1.428-0.129,2.141-0.207
	c0.713-0.077,1.424-0.163,2.135-0.258c0.711-0.095,1.42-0.199,2.128-0.311c0.708-0.113,1.414-0.234,2.119-0.363
	c0.705-0.129,1.409-0.267,2.11-0.414c0.702-0.147,1.402-0.302,2.1-0.466c0.698-0.164,1.394-0.336,2.087-0.517
	c0.694-0.181,1.385-0.37,2.074-0.568c0.689-0.197,1.376-0.403,2.06-0.618c0.731-0.222,1.46-0.452,2.185-0.691
	c0.726-0.239,1.449-0.486,2.169-0.742c0.72-0.256,1.437-0.52,2.15-0.793c0.714-0.273,1.424-0.554,2.131-0.843
	c0.707-0.289,1.411-0.587,2.111-0.894c0.7-0.306,1.396-0.62,2.089-0.942c0.693-0.323,1.381-0.653,2.066-0.992
	c0.685-0.339,1.365-0.685,2.042-1.04c0.677-0.355,1.35-0.717,2.018-1.088c0.668-0.371,1.332-0.749,1.991-1.135
	c0.659-0.387,1.314-0.781,1.964-1.182c0.649-0.401,1.294-0.811,1.935-1.228c0.64-0.417,1.275-0.841,1.906-1.273
	c0.63-0.431,1.255-0.87,1.875-1.317c0.62-0.447,1.235-0.9,1.844-1.361c0.609-0.461,1.213-0.929,1.812-1.404
	c0.598-0.475,1.19-0.958,1.777-1.447c0.587-0.489,1.169-0.985,1.744-1.488c0.575-0.503,1.144-1.012,1.707-1.529
	c0.563-0.516,1.12-1.039,1.671-1.568c0.551-0.529,1.096-1.065,1.634-1.607c0.539-0.543,1.071-1.091,1.596-1.646
	c0.525-0.555,1.044-1.115,1.556-1.682c0.512-0.567,1.017-1.14,1.516-1.719c0.499-0.579,0.991-1.163,1.476-1.754
	c0.485-0.591,0.962-1.187,1.433-1.788c0.471-0.602,0.934-1.209,1.391-1.822c0.457-0.613,0.906-1.23,1.348-1.853
	c0.442-0.623,0.877-1.252,1.304-1.885c0.427-0.633,0.847-1.272,1.259-1.915c0.412-0.643,0.817-1.292,1.214-1.945
	c0.397-0.653,0.786-1.31,1.167-1.972c9.092,4.102,19.301,5.846,28.583,9.736c-5.769,6.631-10.315,15.344-15.138,22.744
	c-9.058,13.902-18.028,28.04-26.45,42.334c-7.632,12.952-14.86,26.156-22.598,39.045c-2.789,4.646-8.883,10.266-10.788,14.774
	c2.263,1.453,4.573,2.826,6.579,4.628c14.261,9.366,21.612,21.694,25.083,38.245c1.475,7.033,2.559,16.01,1.461,23.122
	c0.088,4.978-0.498,9.934-0.968,14.883c3.973,6.478,4.593,12.419,2.891,19.798c-0.825,3.576-2.729,7.423-5.926,9.454
	c-1.425,0.905-3.097,1.544-4.647,2.206c-0.68,1.672-1.301,3.413-2.215,4.972c-1.579,1.829-3.176,2.289-5.579,2.397
	c-1.709,0.078-4.127-0.063-5.696-0.71c-1.109-0.348-2.108-0.741-2.848-1.701c-3.287-4.262,0.182-16.608,1.01-21.582
	c-2.127,4.205-2.647,9.797-4.071,14.349c-4.537,14.505-10.234,27.592-19.038,40.063c0.976,4.466,1.065,9.246,1.379,13.806
	l-1.028,1.898l-0.513-3.547c-2.98,1.573-6.421,11.521-16.461,15.743c-9.755,4.102-21.695,3.979-31.372-0.227
	c-9.746-4.236-17.924-10.4-21.831-20.481l-2.825-0.552l-0.219-4.891l-0.895,0.343c0.038-0.918,0.203-1.98-0.223-2.822
	c-0.7-1.383-9.656-2.725-11.698-3.551c-10.183-4.122-13.025-15.374-16.991-24.499c-1.287-0.861-3.441-0.756-4.982-0.871
	c-1.274-0.924-2.147-2.25-3.097-3.486l-0.508,0.389c-4.639,3.603-8.86,7.765-13.301,11.611c-4.604,3.987-9.444,7.699-14.27,11.411
	c-12.192,9.376-24.429,18.838-36.979,27.726c-8.613,6.099-17.605,11.683-26.302,17.668c-23.751,16.65-48.041,32.474-72.868,47.473
	c-15.852,9.4-32.536,19.625-49.001,27.828c-3.768,1.877-28.989,13.178-30.04,14.825l-0.041,0.782
	c0.759,6.715,0.383,14.334-3.992,19.854c-1.762,2.224-3.545,3.338-6.199,4.242l-0.658,0.004c-2.131-0.089-4.269-0.319-6.33-0.895
	c-6.671-1.867-10.987-6.994-14.307-12.736C154.515,612.373,141.987,617.632,135.15,618.571z"/>
<path style="fill:#A484F3;" d="M159.925,608.338c-3.604-6.833-4.367-15.931-3.269-23.471c0.907-6.225,3.044-13.379,8.252-17.276
	c2.255-0.316,4.972,1.407,6.904,2.502c10.688,6.062,16.393,16.281,19.599,27.776c0.759,6.715,0.383,14.334-3.992,19.854
	c-1.762,2.224-3.545,3.338-6.199,4.242l-0.658,0.004c-2.131-0.089-4.269-0.319-6.33-0.895
	C167.561,619.207,163.245,614.08,159.925,608.338z"/>
<path style="fill:#F6BFA2;" d="M431.135,426.914c-0.719-0.071-1.436-0.165-2.149-0.28c-1.805-0.307-3.029-1.188-3.993-2.711
	c-1.741-2.75-2.186-6.098-1.433-9.243c0.49-2.048,0.98-3.542,2.868-4.657c0.101-0.059,1.004-0.562,1.121-0.665
	c1.195-1.053,0.82-2.938,0.828-4.408c0.017-3.136,3.266-4.924,3.051-7.718c-1.347-17.524-1.905-37.982,5.999-54.249
	c3.763-7.746,10.012-11.6,16.165-17.23c3.393-3.105,6.374-6.668,9.654-9.894c7.351-7.231,17.24-13.53,27.023-16.838
	c16.959-5.733,36.793-2.808,50.942,8.278c7.096,5.559,9.558,9.62,18.23,13.87c2.263,1.453,4.573,2.826,6.579,4.628
	c14.261,9.366,21.612,21.694,25.083,38.245c1.475,7.033,2.559,16.01,1.461,23.122c0.088,4.978-0.498,9.934-0.968,14.883
	c3.973,6.478,4.593,12.419,2.891,19.798c-0.825,3.576-2.729,7.423-5.926,9.454c-1.425,0.905-3.097,1.544-4.647,2.206
	c-0.68,1.672-1.301,3.413-2.215,4.972c-1.579,1.829-3.176,2.289-5.579,2.397c-1.709,0.078-4.127-0.063-5.696-0.71
	c-1.109-0.348-2.108-0.741-2.848-1.701c-3.287-4.262,0.182-16.608,1.01-21.582c-2.127,4.205-2.647,9.797-4.071,14.349
	c-4.537,14.505-10.234,27.592-19.038,40.063c0.976,4.466,1.065,9.246,1.379,13.806l-1.028,1.898l-0.513-3.547
	c-2.98,1.573-6.421,11.521-16.461,15.743c-9.755,4.102-21.695,3.979-31.372-0.227c-9.746-4.236-17.924-10.4-21.831-20.481
	l-2.825-0.552l-0.219-4.891l-0.895,0.343c0.038-0.918,0.203-1.98-0.223-2.822c-0.7-1.383-9.656-2.725-11.698-3.551
	c-10.183-4.122-13.025-15.374-16.991-24.499c-1.287-0.861-3.441-0.756-4.982-0.871c-1.274-0.924-2.147-2.25-3.097-3.486
	C433.371,434.458,432.176,430.711,431.135,426.914z"/>
<path style="fill:#020101;" d="M483.927,401.437c1.695,0.359,3.647,0.875,4.766,2.315c0.704,0.906,0.942,2.014,0.616,3.119
	c-0.455,1.546-1.995,2.438-3.25,3.268c-0.437-0.011-0.875-0.013-1.31-0.057c-1.423-0.145-2.888-0.872-3.662-2.124
	c-0.642-1.039-0.77-2.429-0.31-3.567C481.384,402.889,482.614,402.219,483.927,401.437z"/>
<path style="fill:#020101;" d="M533.463,401.5c1.592-0.221,3.539-0.339,4.994,0.496c1.116,0.64,2.024,1.499,2.315,2.803
	c0.452,2.035-0.583,3.599-1.649,5.198c-1.532,0.485-3.042,0.79-4.568,0.063c-1.308-0.623-1.987-1.629-2.385-2.985
	C531.57,405.031,532.46,403.22,533.463,401.5z"/>
<path style="fill:#020101;" d="M484.375,385.209c2.248,0.031,4.863,0.215,7.017,0.899c1.523,0.483,3.751,1.22,4.499,2.72
	c-0.229,0.238-0.402,0.549-0.688,0.715c-0.405,0.235-7.602-1.226-8.746-1.33c-3.547-0.32-6.544,0.181-9.837,1.423l-0.652,0.252
	c-2.526,1.356-5.752,5.274-8.541,5.278l-0.321-0.55c0.075-0.54,0.06-0.742,0.377-1.274
	C470.791,387.79,478.46,385.743,484.375,385.209z"/>
<path style="fill:#020101;" d="M532.937,385.673c5.096-0.183,10.688,0.792,14.71,4.127c1.706,1.413,3.736,3.744,3.968,5.992
	c-2.899,0.123-6.907-4.376-9.424-5.897c-5.531-1.66-11.406-2.168-16.642,0.634c-1.453,0.778-2.743,1.783-4.436,1.849
	c-0.442-1.027-0.433-1.059-0.163-2.146C523.593,387.106,529.052,386.202,532.937,385.673z"/>
<path style="fill:#020101;" d="M568.52,400.663l0.768-2.964c0.06,4.443-0.523,9.754,0.119,14.083c0.42,1.61-0.029,3.057-0.364,4.642
	l-0.457,0.457c-2.127,4.205-2.647,9.797-4.071,14.349c-4.537,14.505-10.234,27.592-19.038,40.063
	c0.976,4.466,1.065,9.246,1.379,13.806l-1.028,1.898l-0.513-3.547c-2.98,1.573-6.421,11.521-16.461,15.743
	c-9.755,4.102-21.695,3.979-31.372-0.227c-9.746-4.236-17.924-10.4-21.831-20.481l-2.825-0.552l-0.219-4.891l-0.895,0.343
	c0.038-0.918,0.203-1.98-0.223-2.822c-0.7-1.383-9.656-2.725-11.698-3.551c-10.183-4.122-13.025-15.374-16.991-24.499
	c-1.287-0.861-3.441-0.756-4.982-0.871l2.09-0.516c0.629-0.14,1.078-0.345,1.656-0.618c1.072-3.573-2.035-14.177-2.763-18.295
	l1.477-1.503c1.247,7.11,2.158,14.513,4.601,21.333c1.662,5.388,3.847,10.949,7.146,15.561c4.935,6.897,11.188,8.53,19.088,9.878
	c-11.137-22.023-15.535-44.568-18.537-68.87l1.093,0.324c3.467,25.594,7.654,45.38,19.572,68.624c4.6,0.301,9.158,0.517,13.77,0.548
	c0.892-3.751,2.546-7.798,6.053-9.867c1.943-1.146,4.045-1.26,6.169-0.581c2.932,0.938,5.546,3.158,6.936,5.905
	c1.161,2.296,1.532,5.218,0.615,7.663c-0.717,1.914-2.153,3.27-4.002,4.088c-2.535,1.121-6.192,1.52-8.808,0.455
	c-2.361-0.962-4.598-3.152-5.853-5.357c-4.526,0.017-9.036,0.102-13.541-0.408c6.421,9.858,15.342,16.353,26.944,18.85
	c10.112,2.176,20.007,0.537,28.724-5.089c18.636-12.025,32.236-44.271,36.618-65.861
	C568.007,412.279,568.295,406.389,568.52,400.663z"/>
<path style="fill:#FBB184;" d="M472.607,473.042l0.325-1.878l0.535-0.22c0.666,0.975,1.318,1.93,1.88,2.971l0.304,4.57l-2.825-0.552
	L472.607,473.042z"/>
<path style="fill:#D78247;" d="M544.489,472.687c0.255,3.522,0.837,7.25,0.826,10.763c-2.98,1.573-6.421,11.521-16.461,15.743
	c-9.755,4.102-21.695,3.979-31.372-0.227c-9.746-4.236-17.924-10.4-21.831-20.481l-0.304-4.57
	c8.303,9.72,18.461,16.368,31.454,17.469c10.878,0.922,20.757-2.615,29.01-9.671C539.002,478.985,541.803,475.905,544.489,472.687z"
	/>
<path style="fill:#020101;" d="M431.135,426.914c-0.719-0.071-1.436-0.165-2.149-0.28c-1.805-0.307-3.029-1.188-3.993-2.711
	c-1.741-2.75-2.186-6.098-1.433-9.243c0.49-2.048,0.98-3.542,2.868-4.657c0.101-0.059,1.004-0.562,1.121-0.665
	c1.195-1.053,0.82-2.938,0.828-4.408c0.017-3.136,3.266-4.924,3.051-7.718c-1.347-17.524-1.905-37.982,5.999-54.249
	c3.763-7.746,10.012-11.6,16.165-17.23c3.393-3.105,6.374-6.668,9.654-9.894c7.351-7.231,17.24-13.53,27.023-16.838
	c16.959-5.733,36.793-2.808,50.942,8.278c7.096,5.559,9.558,9.62,18.23,13.87c2.263,1.453,4.573,2.826,6.579,4.628
	c14.261,9.366,21.612,21.694,25.083,38.245c1.475,7.033,2.559,16.01,1.461,23.122c0.088,4.978-0.498,9.934-0.968,14.883
	c3.973,6.478,4.593,12.419,2.891,19.798c-0.825,3.576-2.729,7.423-5.926,9.454c-1.425,0.905-3.097,1.544-4.647,2.206
	c-0.68,1.672-1.301,3.413-2.215,4.972c-1.579,1.829-3.176,2.289-5.579,2.397c-1.709,0.078-4.127-0.063-5.696-0.71
	c-1.109-0.348-2.108-0.741-2.848-1.701c-3.287-4.262,0.182-16.608,1.01-21.582l0.457-0.457c0.335-1.585,0.784-3.032,0.364-4.642
	c-0.642-4.329-0.059-9.64-0.119-14.083l-0.768,2.964c-2.29-2.288-2.311-6.125-3.698-9.04c-0.191,1.622,0.298,2.959,0.706,4.503
	c0.422,1.602,1.136,3.401,0.267,4.893c-3.78-6.489-3.18-12.868-5.457-19.657c-4.293-12.799-10.558-24.473-13.543-37.76l-2.035,1.292
	c-24.338,15.334-54.118,25.136-83.004,18.565c-3.626,7.678-9.068,27.179-8.087,35.477l-1.093-0.324
	c3.002,24.302,7.4,46.847,18.537,68.87c-7.9-1.348-14.153-2.981-19.088-9.878c-3.299-4.612-5.484-10.173-7.146-15.561
	c-2.443-6.82-3.354-14.223-4.601-21.333l-1.477,1.503c0.728,4.118,3.835,14.722,2.763,18.295c-0.578,0.273-1.027,0.478-1.656,0.618
	l-2.09,0.516c-1.274-0.924-2.147-2.25-3.097-3.486C433.371,434.458,432.176,430.711,431.135,426.914z"/>
<path style="fill:#83211A;" d="M450.457,380.415c0.387-1.083,0.747-2.176,1.079-3.277c1.339,0.139,1.623,0.825,2.528,1.755
	c-0.151,3.418-0.267,6.815-0.76,10.206c-0.846-2.291-1.687-4.574-2.6-6.838C450.407,381.525,450.366,381.187,450.457,380.415z"/>
<path style="fill:#A484F3;" d="M430.356,410.491c-0.267-1.7-0.434-3.344,0.095-5.016c0.587-1.854,1.494-4.306,3.241-5.276
	l0.198,2.159c-0.007,2.377,0.557,5.433-0.585,7.562C432.29,410.624,431.543,410.503,430.356,410.491z"/>
<path style="fill:#FFFFFF;" d="M569.288,397.699c0.174-1.693,0.179-3.289,1.148-4.749l0.622,0.287
	c0.99,5.805,0.111,12.953-1.651,18.545C568.765,407.453,569.348,402.142,569.288,397.699z"/>
<path style="fill:#6B35B6;" d="M588.489,395l1.201-0.539c-0.296,2.342-0.409,4.573-0.412,6.931c1.678,2.448,3.477,4.875,4.706,7.588
	c-2.107-0.336-4.182,0.405-6.196-0.36C588.021,404.125,588.843,399.487,588.489,395z"/>
<path style="fill:#FBB184;" d="M445.908,345.467c0,1.939-0.435,5.405,0.759,7.035l1.113,0.613c-0.415,1.167-0.155,2.115,0.062,3.29
	c0.435,6.87,2.68,17.459,2.474,23.393C447.115,369.7,444.273,355.94,445.908,345.467z"/>
<path style="fill:#A484F3;" d="M435.99,397.846c0.051-0.35,0.103-0.842,0.251-1.158c0.457-0.975,1.151-1.368,2.111-1.749
	c2.928-1.166,5.99-0.622,8.743,0.677l0.464,1.423l-0.439,1.111C443.893,399.324,439.244,398.951,435.99,397.846z"/>
<path style="fill:#6B35B6;" d="M427.529,410.266c0.976,0.441,0.535,0.111,1.265,1.062c0.612,3.833,1.945,9.542,0.93,13.288
	l-1.267,0.492c-2.346-2.36-3.628-5.462-3.587-8.827C424.902,413.648,425.629,412.05,427.529,410.266z"/>
<path style="fill:#FFFFFF;" d="M552.029,321.853l0.05-1.655c0.964-0.328,1.088-0.278,1.988,0.158
	c1.492,0.723,2.899,2.021,4.201,3.044c3.736,4.599,7.131,9.307,10.539,14.152l1.372,3.832
	C564.675,338.257,558.665,325.717,552.029,321.853z"/>
<path style="fill:#393198;" d="M593.984,408.98l-0.083,1.263c-0.34,5.644-1.013,14.435-4.825,18.882
	c-0.992,1.158-2.356,2.128-3.914,2.202c1.27-7.568,1.39-15.208,2.626-22.707C589.802,409.385,591.877,408.644,593.984,408.98z"/>
<linearGradient id="SVGID_00000158017119895150303150000008126488952973161902_" gradientUnits="userSpaceOnUse" x1="454.8253" y1="650.0897" x2="453.4884" y2="669.8376" gradientTransform="matrix(1 0 0 -1 0 1026)">
	<stop  offset="0" style="stop-color:#792D02"/>
	<stop  offset="1" style="stop-color:#AB4414"/>
</linearGradient>
<path style="fill:url(#SVGID_00000158017119895150303150000008126488952973161902_);" d="M448.094,354.425
	c3.195,3.363,7.526,5.735,11.487,8.078c-2.667,5.498-4.029,10.52-5.517,16.39c-0.905-0.93-1.189-1.616-2.528-1.755
	c-0.332,1.101-0.692,2.194-1.079,3.277l-0.141-0.617c0.206-5.934-2.039-16.523-2.474-23.393L448.094,354.425z"/>
<path style="fill:#393198;" d="M433.89,402.358c2.88,2.712,4.03,15.484,4.911,19.855c0.728,4.118,3.835,14.722,2.763,18.295
	c-0.578,0.273-1.027,0.478-1.656,0.618c-0.793-0.355-1.428-0.646-2.094-1.227c-4.996-4.362-7.074-23.037-7.458-29.408
	c1.187,0.012,1.934,0.133,2.949-0.571C434.447,407.791,433.883,404.735,433.89,402.358z"/>
<path style="fill:#6B35B6;" d="M571.137,409.503l0.173-0.604c1.156-4.158,0.875-14.842,3.172-17.067
	c2.487-0.714,4.692-0.273,6.962,0.964c2.029,1.105,3.693,2.858,4.28,5.131c0.894,3.464-0.433,9.189-0.593,12.907
	C580.256,410.666,575.927,410.783,571.137,409.503z"/>
<path style="fill:#A03C10;" d="M550.221,346.879c0.258,0.144,0.524,0.278,0.776,0.434c4.98,3.08,13.087,22.37,20.635,24.203
	c1.073-0.847,1.309-2.346,1.432-3.683c0.326-3.516-0.494-7.058-0.056-10.544c0.064,0.276,0.133,0.55,0.193,0.826
	c2.074,9.553-0.772,19.664-3.377,28.767c-0.683,2.385-1.105,4.974-2.464,7.077l-0.546-0.43
	C564.524,378.13,553.487,362.737,550.221,346.879z"/>
<path style="fill:#FFFFFF;" d="M445.908,345.467c0.831-4.537,3.24-8.901,5.784-12.703c10.606-15.847,27.572-30.016,46.682-33.7
	c0.852-0.158,1.708-0.295,2.567-0.411c0.859-0.117,1.72-0.212,2.584-0.286c0.863-0.074,1.728-0.127,2.595-0.159
	c0.866-0.031,1.732-0.042,2.599-0.032c0.867,0.011,1.733,0.042,2.598,0.095c0.865,0.053,1.729,0.127,2.59,0.222
	c0.861,0.095,1.72,0.211,2.576,0.348c0.856,0.137,1.708,0.294,2.557,0.473c0.848,0.179,1.691,0.378,2.53,0.597
	c0.838,0.22,1.67,0.46,2.497,0.721c0.827,0.26,1.647,0.54,2.46,0.841c0.813,0.301,1.619,0.621,2.416,0.961s1.586,0.699,2.366,1.077
	c0.78,0.379,1.55,0.776,2.31,1.192c0.761,0.416,1.511,0.85,2.25,1.303c0.739,0.453,1.467,0.923,2.183,1.411
	c4.774,3.281,11.721,8.911,12.792,14.862c-0.215-0.068-0.431-0.129-0.643-0.204c-2.537-0.895-7.512-6.952-9.824-9.023
	c-14.291-12.796-35.471-14.771-52.857-7.435c-15.243,6.431-30.348,19.822-36.578,35.386c-1.518,3.793-2.748,8.043-3.162,12.112
	l-1.113-0.613C445.473,350.872,445.908,347.406,445.908,345.467z"/>
<path style="fill:#393198;" d="M571.137,409.503c4.79,1.28,9.119,1.163,13.994,1.331c-0.411,8.747-1.5,17.41-3.267,25.987
	c-0.198,0.932-0.133,0.55-0.165,1.656c-1.579,1.829-3.176,2.289-5.579,2.397c-1.709,0.078-4.127-0.063-5.696-0.71l0.206-0.399
	c-0.777-0.692-1.544-1.429-2.09-2.326C565.867,433.044,569.999,414.751,571.137,409.503z"/>
<linearGradient id="SVGID_00000103985596531171081800000012822671034721968259_" gradientUnits="userSpaceOnUse" x1="455.6786" y1="589.8849" x2="435.2335" y2="625.7064" gradientTransform="matrix(1 0 0 -1 0 1026)">
	<stop  offset="0" style="stop-color:#36139A"/>
	<stop  offset="1" style="stop-color:#5F32B6"/>
</linearGradient>
<path style="fill:url(#SVGID_00000103985596531171081800000012822671034721968259_);" d="M447.559,397.039
	c2.034,6.086,8.301,36.865,5.73,41.443c-0.637,1.136-2.656,2.318-3.746,3.104c-1.549,0.155-3.111,0.355-4.664,0.457
	c-2.443-6.82-3.354-14.223-4.601-21.333c-1.262-7.621-2.675-15.31-4.288-22.864c3.254,1.105,7.903,1.478,11.13,0.304
	L447.559,397.039z"/>
<path style="fill:#FFFFFF;" d="M570.904,338.564c1.572,1.689,3.164,3.359,4.777,5.01c8.366,13.497,13.009,30.46,11.579,46.4
	c-0.073,1.458-0.171,2.843-0.448,4.278c-0.913,0.53-0.428,0.5-1.436-0.097c-5.614-3.321-8.856-3.752-15.28-3
	C577.253,370.845,576.965,359.484,570.904,338.564z"/>
<path style="fill:#FFFFFF;" d="M443.434,346.286c-0.173,9.247,0.557,19.185,3.11,28.115c1.606,5.619,4.486,10.348,4.855,16.335
	c0.479,2.625,0.937,5.215,1.177,7.876c3.002,24.302,7.4,46.847,18.537,68.87c-7.9-1.348-14.153-2.981-19.088-9.878
	c-3.299-4.612-5.484-10.173-7.146-15.561c1.553-0.102,3.115-0.302,4.664-0.457c1.759-0.295,3.644-1.021,4.643-2.574
	c3.142-4.884-3.976-36.44-5.407-43.365l-0.554-1.306c-2.668-1.881-8.698-0.906-11.926-0.741
	C434.835,375.07,436.986,363.523,443.434,346.286z"/>
<path style="fill:#BE5519;" d="M447.78,353.115c0.414-4.069,1.644-8.319,3.162-12.112c6.23-15.564,21.335-28.955,36.578-35.386
	c17.386-7.336,38.566-5.361,52.857,7.435c2.312,2.071,7.287,8.128,9.824,9.023c0.212,0.075,0.428,0.136,0.643,0.204l1.185-0.426
	c6.636,3.864,12.646,16.404,18.15,19.531c2.005,4.247,2.736,11.219,2.829,15.905c-0.438,3.486,0.382,7.028,0.056,10.544
	c-0.123,1.337-0.359,2.836-1.432,3.683c-7.548-1.833-15.655-21.123-20.635-24.203c-0.252-0.156-0.518-0.29-0.776-0.434
	c-0.48-1.983-0.849-4.008-1.271-6.006c-0.162,0.049-0.325,0.093-0.485,0.145c-7.27,2.351-14.332,8.276-21.31,11.613
	c-18.848,9.012-51.066,15.415-70.666,5.656c-2.581-1.285-5.157-2.709-7.488-4.408l-0.788,0.014l-0.119,0.532l-0.252,1.98
	C447.625,355.23,447.365,354.282,447.78,353.115z"/>
<path style="fill:#020101;" d="M535.396,320.981c0.465,0.784,0.289,0.881,0.167,1.747c-1.251,1.988-3.133,3.403-5.022,4.757
	c-6.957,4.987-15.632,9.318-24.009,11.23c-14.485,3.306-35.8,1.464-50.418-1.036c-0.734-0.607-0.532-0.227-0.666-1.105
	c1.767-0.36,18.374,1.789,22.548,1.921C500.173,339.192,518.598,336.737,535.396,320.981z"/>
<path style="fill:#A03C10;" d="M449.001,353.879c0.904-0.713,1.563-1.017,2.716-1.055c2.673-0.088,5.583,1.059,8.252,1.473
	c3.754,0.581,7.594,0.832,11.386,1.012c9.835,0.468,20.043-0.752,29.683-2.69c12.509-2.514,22.98-7.479,33.845-14.025
	c3.164-1.906,10.257-9.644,13.492-9.668c1.236,3.406,0.982,8.376,0.575,11.947c-0.162,0.049-0.325,0.093-0.485,0.145
	c-7.27,2.351-14.332,8.276-21.31,11.613c-18.848,9.012-51.066,15.415-70.666,5.656C453.908,357.002,451.332,355.578,449.001,353.879
	z"/>
<path style="fill:#020101;" d="M224.596,221.803c0.788-2.459,1.651-5,2.787-7.323c3.127-6.396,8.484-11.796,15.339-14.052
	c0.375-0.119,0.753-0.23,1.134-0.331c0.381-0.101,0.765-0.192,1.15-0.275c0.385-0.082,0.772-0.154,1.161-0.217
	c0.389-0.063,0.779-0.117,1.171-0.161c0.391-0.044,0.784-0.078,1.177-0.103c0.393-0.025,0.787-0.039,1.181-0.044
	c0.394-0.005,0.788-0.001,1.181,0.013c0.394,0.014,0.787,0.038,1.18,0.071c0.392,0.034,0.783,0.077,1.174,0.13
	c0.391,0.053,0.78,0.115,1.167,0.187c0.387,0.071,0.773,0.153,1.156,0.244c0.383,0.091,0.764,0.191,1.143,0.3
	c0.378,0.11,0.753,0.229,1.126,0.357c0.373,0.128,0.742,0.265,1.108,0.411c0.366,0.147,0.728,0.302,1.086,0.466
	s0.712,0.337,1.062,0.518c7.927,4.046,10.7,10.498,13.256,18.487c2.712,1.777,15.087,0.363,19.372,0.953
	c3.96-0.101,7.959,0.46,11.616,2.043c5.42,2.347,8.86,6.419,11.061,11.8c8.432-0.195,26.046-1.292,33.628,0.333
	c3.007,0.645,5.843,1.913,8.146,3.979c3.118,2.796,4.37,6.439,4.604,10.527c0.805,14.062,0.161,28.594,0.171,42.697l0.001,84.515
	l-0.003,69.918c0.024,12.032,0.755,24.522-0.07,36.496c-0.198,2.874-1.169,5.641-3.199,7.746c-3.147,3.266-8.53,4.101-12.861,4.147
	c-43.139,0.466-86.361-0.025-129.507-0.008l-40.731,0.005c-7.117-0.002-14.926,0.586-21.952-0.464
	c-4.843-0.724-8.881-3.02-12.308-6.47c-3.403-3.425-5.282-7.507-5.929-12.264c-1.116-8.204-0.532-17.051-0.562-25.352l0.02-49.834
	l-0.282-145.179c-0.011-6.696-0.455-13.147,4.815-18.18c2.132-2.036,5.012-3.122,7.866-3.67c8.332-1.6,28.798-0.414,38.21-0.247
	c1.241-2.414,2.756-4.881,4.662-6.837C198.862,219.174,214.296,221.89,224.596,221.803z"/>
<path style="fill:#FFFFFF;" d="M247.491,211.573c4.231-0.563,7.113-0.047,10.932,1.821c2.05,2.787,3.301,5.648,4.656,8.812
	c-3.39,0.203-6.817,0.185-10.214,0.253c-5.369,0.064-10.767-0.254-16.134-0.44C239.661,217.11,242.189,214.06,247.491,211.573z"/>
<path style="fill:#7464CC;" d="M226.319,221.993c1.984-5.402,4.144-10.351,8.433-14.359c3.03-2.832,7.476-5.586,11.758-5.408
	l-1.659,0.814c5.557,0.659,8.267-2.173,14.474,0.903c7.03,3.484,11.162,10.287,13.626,17.398c-2.065,1.448-5.972,0.481-8.494,1.021
	c-0.042-0.175-0.078-0.351-0.127-0.525c-1.214-4.367-3.408-8.717-7.508-11.002c-0.378-0.207-0.766-0.394-1.163-0.561
	c-0.397-0.167-0.801-0.314-1.213-0.44c-0.413-0.125-0.83-0.229-1.253-0.312c-0.423-0.083-0.849-0.144-1.278-0.183
	c-0.429-0.039-0.859-0.056-1.29-0.051c-0.431,0.005-0.86,0.033-1.288,0.082c-0.428,0.049-0.852,0.12-1.273,0.213
	c-0.421,0.093-0.836,0.208-1.245,0.343c-5.849,1.875-9.535,6.795-12.078,12.089L226.319,221.993z"/>
<path style="fill:#393198;" d="M274.335,220.481c2.712,1.777,15.087,0.363,19.372,0.953l-4.207,0.347l-0.371,0.654
	c8.058,0.635,16.643,0.926,22.411,7.507c6.65,7.588,5.028,21.475,5.077,31.014c-2.079,0.234-3.83,0.372-5.62,1.54
	c-8.525,1.136-19.865,0.279-28.776,0.287c-17.61,0.014-35.565,0.586-53.137-0.353c-2.497-1.563-37.464-0.95-42.582-0.982
	c-0.112-6.603-0.978-13.551-0.403-20.112c0.479-5.465,2.097-9.182,6.3-12.754c1.65-1.653,3.457-2.76,5.425-3.982l7.967-0.191
	c6.765-0.778,14.04-0.312,20.865-0.334c11.866-0.095,23.732-0.09,35.597,0.014l4.83-0.18c0.253-0.532,0.134-0.178,0.136-1.112
	l-2.762-0.435c2.522-0.54,6.429,0.427,8.494-1.021L274.335,220.481z"/>
<path style="fill:#101E27;" d="M274.335,220.481c2.712,1.777,15.087,0.363,19.372,0.953l-4.207,0.347l-0.371,0.654
	c-7.309,0.373-14.742,1.934-22.046,1.474c0.253-0.532,0.134-0.178,0.136-1.112l-2.762-0.435c2.522-0.54,6.429,0.427,8.494-1.021
	L274.335,220.481z"/>
<path style="fill:#7464CC;" d="M205.791,224.409c6.765-0.778,14.04-0.312,20.865-0.334c11.866-0.095,23.732-0.09,35.597,0.014
	c7.135,0.769,14.79,0.897,21.977,1.026c5.381,0.028,11.456-0.442,15.545,3.761c1.647,1.694,2.822,3.609,2.631,6.048
	c-0.256,3.258-2.477,6.229-5.008,8.149c-1.702,1.29-3.562,2.168-5.692,2.435c-5.242,0.658-10.764,0.396-16.048,0.416l-27.714,0.062
	l-31.006,0.09c-6.432,0.043-12.983,0.35-19.398-0.101c-2.713-1.664-5.91-3.627-6.694-6.962c-0.616-2.62-0.085-5.278,0.842-7.738
	c0.354-0.939,0.618-1.673,0.711-2.693c1.65-1.653,3.457-2.76,5.425-3.982L205.791,224.409z"/>
<path style="fill:#6B35B6;" d="M205.791,224.409c6.765-0.778,14.04-0.312,20.865-0.334c11.866-0.095,23.732-0.09,35.597,0.014
	c7.135,0.769,14.79,0.897,21.977,1.026c-8.938,0.843-18.125,1.313-27.1,0.868c-5.419-0.269-10.771-1.265-16.209-1.361
	C229.248,224.416,217.439,225.09,205.791,224.409z"/>
<path style="fill:#70C1B5;" d="M147.586,235.578c12.506-0.782,25.406-0.212,37.958-0.261c-0.555,3.367-0.552,6.759-0.625,10.163
	c-6.849-0.019-31.194-1.731-35.941,1.588c-2.081,6.249-0.918,42.592-0.906,51.168l0.326,114.418
	c0.071,19.476-0.622,39.058-0.216,58.509c0.046,2.21,0.073,5.394,1.18,7.32c0.538,0.937,1.628,1.556,2.612,1.914
	c6.286,2.287,37.809,1.083,46.246,1.079l79.759-0.172c20.751-0.019,41.675,0.741,62.403,0.123c2.624-0.078,6.479-0.402,8.856-1.613
	c0.72-0.366,0.635-0.191,0.848-0.929c1.498-5.172,0.398-48.134,0.406-57.45l0.064-108.77c-0.001-18.278,0.342-36.625-0.06-54.895
	c-0.054-2.428-0.051-5.346-1.242-7.517c-5.068-9.24-22.848-2.471-31.349-5.116c-0.989-1.315-0.838-3.633-0.939-5.26l-0.167-2.586
	l0.58-0.612c8.822-0.86,21.975-0.563,30.816,0.254c3.974,0.368,7.61,2.255,10.123,5.385c1.863,2.32,2.611,4.689,2.815,7.611
	c1.148,16.416,0.307,33.417,0.33,49.9l0.031,97.26l0.018,57.427c0.013,9.771,0.893,20.565-0.342,30.233
	c-0.335,2.621-2.078,5.334-4.245,6.832c-2.008,1.389-4.559,1.952-6.964,2.087c-13.365,0.751-27.147,0.019-40.563,0.048
	l-84.772,0.115l-45.512,0.05c-8.141,0.008-17.8,1.012-25.726-0.757c-5.607-1.252-10.165-4.81-13.018-9.762
	c-2.094-3.633-2.548-7.151-2.734-11.244c-0.828-18.295-0.127-36.89-0.119-55.213l-0.051-101l-0.001-48.8
	c0.002-5.419-0.893-17.512,0.43-22.012C139.31,240.276,143.419,237.78,147.586,235.578z"/>
<path style="fill:#FFFFFF;" d="M317.582,246.994c6.599-0.079,24.353-1.638,29.142,2.502c2.02,1.746,2.002,4.917,2.151,7.428
	c0.457,7.677,0.093,15.551,0.074,23.244l-0.01,41.616c-0.205,50.069-0.149,100.138,0.168,150.205
	c0.029,2.598,0.069,4.62-1.858,6.586c-4.744,2.221-23.509,0.79-29.848,0.752l-118.784,0.084l-31.606,0.009
	c-4.078,0.004-8.827,0.59-12.808-0.083c-1.39-0.235-2.447-0.755-3.29-1.916c-2.11-10.195-0.867-24.009-0.826-34.623l-0.004-57.308
	l-0.143-91.19c-0.039-12.004-1.517-35.537,0.761-46.026c4.25-2.609,28.142-1.286,34.25-1.265l0.255,13.863
	c-2.769-0.111-7.323-0.808-9.69,0.803c2.98,1.798,46.337,0.768,53.568,0.755c17.572,0.939,35.527,0.367,53.137,0.353
	c8.911-0.008,20.251,0.849,28.776-0.287c4.449,0.109,9.278,0.426,13.656-0.504l-0.365-0.561c-2.32-1.016-4.315-0.884-6.774-0.787
	L317.582,246.994z"/>
<path style="fill:#020101;" d="M227.91,316.238c0.295-0.03,0.589-0.068,0.884-0.09c5.726-0.416,54.672-0.826,56.458,0.006
	c0.352,0.164,0.592,0.503,0.888,0.754c-1.083,0.377-2,0.523-3.137,0.553c-5.241,0.142-52.512,0.661-54.003-0.196
	C228.567,317.017,228.273,316.58,227.91,316.238z"/>
<path style="fill:#020101;" d="M209.918,280.957l0.387,0.635c-0.926,3.25-0.28,29.502-0.319,34.93
	c-2.062,3.104-4.585,5.224-7.592,7.332l-3.29-0.051c4.983-1.089,6.843-3.391,9.949-7.22c0.332-10.639,0.184-21.381,0.013-32.023
	c-3.766,3.784-6.941,7.973-10.162,12.211c-5.131,6.471-10.474,13.101-16.114,19.129c-3.996-5.37-7.765-11.383-10.247-17.602
	c2.798,2.085,5.703,6.251,8.898,7.421c1.482,0.543,22.98-21.542,28.005-24.494C209.602,281.133,209.761,281.046,209.918,280.957z"/>
<path style="fill:#E55159;" d="M201.152,289.912c0.469,0.294,0.24,0.069,0.491,0.83c-4.84,8.293-12.392,15.836-18.907,22.846
	c-1.22-1.235-2.267-2.6-3.346-3.958c-1.119-2.011-2.042-4.169-3.035-6.247c1.636,1.379,3.026,2.685,5.094,3.375
	C185.114,306.298,197.527,293.043,201.152,289.912z"/>
<path style="fill:#F7A44C;" d="M191.856,407.068c0.218-0.026,0.435-0.062,0.654-0.079c4.683-0.382,9.559,1.66,13.075,4.65
	c3.563,3.031,6.59,7.65,6.837,12.428c0.283,5.482-4.173,10.385-7.685,14.149l2.871,5.035c-3.209,1.757-6.267,3.515-9.813,4.494
	c-5.932,0.075-11.113-0.685-16.056-4.33c-0.263-0.195-0.522-0.397-0.775-0.605c-0.254-0.208-0.502-0.422-0.744-0.643
	c-0.243-0.221-0.48-0.447-0.711-0.68c-0.231-0.233-0.457-0.471-0.676-0.715s-0.432-0.493-0.639-0.748
	c-0.207-0.254-0.407-0.513-0.601-0.778c-0.193-0.265-0.38-0.534-0.561-0.808c-0.18-0.274-0.353-0.553-0.519-0.836
	c-0.167-0.283-0.326-0.569-0.477-0.86c-0.152-0.291-0.296-0.585-0.433-0.883c-0.137-0.298-0.267-0.599-0.389-0.903
	c-0.122-0.305-0.236-0.612-0.342-0.922c-0.107-0.311-0.205-0.624-0.296-0.939c-0.091-0.315-0.173-0.632-0.248-0.951
	c-0.075-0.319-0.141-0.64-0.2-0.963c-0.059-0.323-0.109-0.647-0.152-0.972c-0.773-5.658,0.625-11.755,4.255-16.227
	C181.74,409.66,186.467,407.752,191.856,407.068z"/>
<path style="fill:#9ADFA6;" d="M189.767,344.882c4.671-0.334,8.59-0.139,12.763,2.222c4.997,2.828,8.81,7.647,10.164,13.25
	c1.35,5.589,0.328,11.829-2.847,16.637c-2.969,4.496-7.291,7.011-12.488,8.081c-4.257,0.928-8.616,0.678-12.64-1.092
	c-0.298-0.133-0.593-0.274-0.884-0.422c-0.291-0.149-0.578-0.305-0.861-0.468c-0.283-0.163-0.562-0.333-0.837-0.51
	c-0.274-0.177-0.543-0.362-0.808-0.553c-0.265-0.191-0.525-0.389-0.78-0.594c-0.255-0.205-0.504-0.416-0.748-0.633
	c-0.243-0.217-0.481-0.441-0.714-0.671c-0.233-0.229-0.459-0.465-0.679-0.706c-0.221-0.241-0.435-0.488-0.642-0.74
	c-0.208-0.253-0.409-0.51-0.603-0.773c-0.195-0.262-0.382-0.529-0.563-0.802c-0.181-0.272-0.354-0.549-0.521-0.83
	c-0.166-0.281-0.325-0.566-0.477-0.855c-0.152-0.289-0.296-0.582-0.433-0.879c-0.137-0.297-0.266-0.597-0.387-0.9
	c-0.122-0.303-0.236-0.61-0.341-0.919c-0.119-0.343-0.229-0.688-0.33-1.037c-0.101-0.348-0.193-0.699-0.276-1.052
	c-0.083-0.353-0.158-0.707-0.224-1.064c-0.065-0.357-0.121-0.716-0.168-1.075c-0.047-0.359-0.086-0.72-0.115-1.082
	c-0.029-0.361-0.048-0.723-0.059-1.086s-0.012-0.725-0.005-1.088c0.008-0.363,0.025-0.725,0.051-1.086
	c0.026-0.362,0.061-0.723,0.105-1.083c0.045-0.36,0.098-0.719,0.16-1.076c0.063-0.357,0.134-0.713,0.215-1.066
	c0.08-0.354,0.169-0.706,0.268-1.055c0.098-0.349,0.205-0.695,0.321-1.039c0.115-0.344,0.24-0.685,0.373-1.022
	c0.133-0.337,0.275-0.671,0.424-1.001c0.15-0.331,0.308-0.657,0.475-0.979C178.673,349.966,183.602,346.769,189.767,344.882z"/>
<path style="fill:#020101;" d="M952.128,379.241l0.938,1.204c-0.746,3.951-2.795,7.686-3.989,11.544
	c-10.793,34.853-27.818,62.243-48.949,91.786c-0.016,0.141-0.029,0.282-0.048,0.422c-0.584,4.406-2.651,9.075-4.082,13.293
	c-2.433,7.172-4.801,14.343-6.336,21.773c-6.211,30.075-3.268,61.196,6.098,90.293c1.203,3.738,2.562,10.506,4.998,13.539
	c0.102,0.127,0.227,0.233,0.341,0.35c9.076-12.241,26.496-19.079,41.22-21.343c8.742-1.343,17.503-0.155,24.734,5.252
	c7.109,5.315,11.371,14.246,12.506,22.907c0.924,7.045-0.155,13.565-4.671,19.275c-9.325,11.79-30.822,19.99-29.031,37.814
	c0.514,5.108,2.385,10.037,3.235,15.094c3.447,1.407,4.685,4.898,6.041,8.158c13.206,31.753,23.698,70.771,9.971,103.823
	c-0.484,1.167-0.955,2.298-1.595,3.392c-0.575,0.658-1.143,1.497-1.903,1.93c-0.879,0.902-1.723,1.909-2.755,2.632
	c0.523,0.928,0.9,1.408,1.012,2.47c-4.695,8.199-10.692,18.163-17.33,24.833c-17.96,18.281-38.653,36.175-61.376,48.391
	c-32.342,20.676-68.751,35.013-104.999,47.207c-6.073,1.895-12.167,3.723-18.281,5.485c-6.113,1.762-12.245,3.457-18.396,5.085
	c-6.15,1.628-12.317,3.189-18.502,4.682c-6.185,1.493-12.385,2.919-18.601,4.277c-6.215,1.358-12.445,2.648-18.689,3.87
	c-6.244,1.222-12.501,2.376-18.77,3.461c-6.269,1.086-12.549,2.103-18.84,3.051c-6.291,0.949-12.592,1.828-18.903,2.639
	c-6.31,0.811-12.628,1.552-18.955,2.225c-6.327,0.673-12.66,1.276-19,1.811c-6.34,0.535-12.685,1-19.035,1.396
	c-6.35,0.396-12.704,0.722-19.061,0.979c-6.357,0.257-12.716,0.445-19.077,0.564c-6.361,0.119-12.723,0.168-19.086,0.147
	c-6.362-0.021-12.723-0.111-19.083-0.27c-6.361-0.159-12.719-0.388-19.074-0.686c-13.015,0.2-26.301-1.268-39.266-2.405
	c-47.931-4.205-94.67-12.926-141.249-24.871c-9.203-2.339-18.353-4.873-27.449-7.601c-9.096-2.728-18.13-5.648-27.102-8.759
	c-8.972-3.112-17.874-6.413-26.706-9.902c-8.832-3.49-17.586-7.166-26.261-11.028c-47.811-21.608-92.783-48.613-120.18-94.904
	l-0.914-0.666l-2.043-4.769l-0.725-0.901c7.406-1.038,15.888-0.269,23.409-0.307c20.419-0.033,40.837,0.087,61.255,0.36
	l0.098-33.477c-0.009-4.403-0.678-9.085-0.209-13.444c0.178-1.657,0.649-3.051,1.782-4.301c7.112-7.847,30.222-8.445,40.349-8.742
	c12.072-31.138,11.011-67.687,2.851-99.669c-3.163-12.398-7.696-24.555-11.883-36.641l0.658-0.004
	c2.654-0.904,4.437-2.018,6.199-4.242c4.375-5.52,4.751-13.139,3.992-19.854l0.041-0.782c1.051-1.647,26.272-12.948,30.04-14.825
	c16.465-8.203,33.149-18.428,49.001-27.828c24.827-14.999,49.117-30.823,72.868-47.473c8.697-5.985,17.689-11.569,26.302-17.668
	c12.55-8.888,24.787-18.35,36.979-27.726c4.826-3.712,9.666-7.424,14.27-11.411c4.441-3.846,8.662-8.008,13.301-11.611l0.508-0.389
	c0.95,1.236,1.823,2.562,3.097,3.486c1.541,0.115,3.695,0.01,4.982,0.871c3.966,9.125,6.808,20.377,16.991,24.499
	c2.042,0.826,10.998,2.168,11.698,3.551c0.426,0.842,0.261,1.904,0.223,2.822l0.895-0.343l0.219,4.891l2.825,0.552
	c3.907,10.081,12.085,16.245,21.831,20.481c9.677,4.206,21.617,4.329,31.372,0.227c10.04-4.222,13.481-14.17,16.461-15.743
	l0.513,3.547l1.028-1.898c0.417,2.404,0.569,6.075,2.272,7.87c9.789,2.281,12.227,11.589,20.285,15.774
	c5.696,2.959,14.907,5.454,21.22,7.772c14.676,5.387,29.186,10.881,43.481,17.231c14.795,6.572,30.552,15.216,41.679,27.089
	c6.275,6.695,11.536,14.521,15.956,22.542c6.622,12.015,11.593,25.201,16.797,37.881c10.853,26.449,20.734,53.265,30.96,79.958
	c2.056-11.482,4.77-23.269,9.086-34.121c4.371-10.992,10.269-21.063,16.619-31.004c24.396-38.193,56.558-68.05,87.559-100.595
	c21.498-22.568,41.944-46.114,59.348-72.025c10.977-16.344,20.908-33.255,28.253-51.563
	C942.671,406.174,949.635,382.003,952.128,379.241z"/>
<path style="fill:#D89CA1;" d="M470.534,492.141c-0.451,2.653-0.896,5.25-1.667,7.836c-0.832-2.293-1.663-4.579-2.408-6.902
	C467.81,492.64,469.141,492.387,470.534,492.141z"/>
<path style="fill:#FFFFFF;" d="M869.417,706.648c1.332,1.415,1.457,3.247,1.639,5.103l0.052,0.578
	c0.341-1.763,0.138-3.699,0.084-5.494l0.723-0.212c1.038,10.569,2.303,21.495,1.731,32.121l-0.205,3.083l-0.497,0.614l0.075,0.314
	l0.271-0.348l-0.432-0.231l-1.071-9.102C871.356,724.272,871.248,715.294,869.417,706.648z"/>
<path style="fill:#8B559A;" d="M526.696,557.551c3.6,3.339,7.157,6.722,10.672,10.151c-1.104,0.806-2.627,1.631-4.006,1.748
	c-2.836,0.24-5.89-3.101-7.936-4.838L526.696,557.551z"/>
<path style="fill:#A03C10;" d="M477.045,681.228c2.93-0.293,5.871-0.293,8.814-0.336c0.405,2.982,1.432,7.206,0.776,10.114
	l-1.086,0.332c-3.144,0.291-6.291,0.548-9.44,0.773c-0.14-3.129-0.863-7.311-0.09-10.297L477.045,681.228z"/>
<path style="fill:#F6BFA2;" d="M401.75,827.793c6.885-0.439,13.832-0.303,20.73-0.316l2.048,8.404
	c0.408,1.609,0.893,3.348,0.012,4.813l-1.817-0.212c-6.105-1.974-19.294-8.299-24.18-12.298
	C399.42,827.779,400.776,827.864,401.75,827.793z"/>
<path style="fill:#A484F3;" d="M227.187,818.612c12.848-0.514,25.945,0.047,38.836-0.176l5.122,4.72
	c-2.959,1.006-38.465,0.688-43.403,0.217C226.819,822.031,227.151,820.177,227.187,818.612z"/>
<path style="fill:#A484F3;" d="M958.851,822.379c-0.866,0.646-1.641,0.997-2.728,1.126c-7.643,0.909-17.428,0.033-25.288,0.008
	c-6.113-0.02-13.049,0.77-19.047-0.104c-1.945-0.284-2.517-0.322-3.645-1.909c0.542-0.495,0.577-0.565,1.277-1.001
	c1.612-1.007,4.177-1.269,6.021-1.365c7.18-0.373,14.669,0.104,21.881,0.126c7.65,0.023,16.828-0.96,24.284,0.487
	C960.727,820.649,959.883,821.656,958.851,822.379z"/>
<path style="fill:#83211A;" d="M159.807,763.319c15.443-5.06,45.443-5.74,60.118,2.016c2.375,1.255,4.182,2.801,5.719,4.991
	c-1.183,1.351-2.41,2.578-3.724,3.802c-1.577-1.492-2.74-3.362-4.34-4.805c-5.32-4.795-14.626-4.968-21.446-5.727
	c-2.924,0.03-5.837-0.375-8.806-0.27c-5.897,0.209-20.975,1.83-25.779,0.882C160.8,764.06,160.416,763.753,159.807,763.319z"/>
<path style="fill:#8B559A;" d="M563.308,506.071c3.825,4.068,5.713,8.29,5.502,13.989c-0.463,12.533-10.851,33.582-19.084,42.9
	c-0.059-3.969,5.014-12.975,6.539-17.173c1.668-4.592,3.245-9.441,4.304-14.213C562.242,524.035,560.458,512.37,563.308,506.071z"/>
<path style="fill:#FFFFFF;" d="M648.924,698.918c5.171,10.222,9.299,21.39,13.523,32.034c-4.391,1.461-11.307,0.577-16.009,0.51
	C646.603,720.71,647.863,709.628,648.924,698.918z"/>
<path style="fill:#F6D074;" d="M874.651,843.705c-5.175-1.197-9.48-3.561-13.151-7.439c-3.229-3.412-5.552-7.481-7.248-11.842
	c-2.896-7.45-10.782-45.516-10.525-52.987c1.582-0.592,3.451-0.19,5.106-0.017c1.26,15.239,5.534,55.375,17.303,65.465
	C868.189,838.645,873.596,841.475,874.651,843.705z"/>
<path style="fill:#A484F3;" d="M63.636,819.091c20.372-0.155,40.744-0.151,61.116,0.012c6.196,0.024,16.508-0.911,22.292,0.153
	c0.709,1.135,0.5,2.192,0.408,3.461c-2.851,2.318-78.504-1.233-81.774,1.143L63.636,819.091z"/>
<path style="fill:#F5CFCC;" d="M516.172,691.228l0.471,0.002l0.199,0.632c-1.348,2.074-3.049,3.737-4.767,5.498
	c-8.706,1.478-17.738,1.948-26.53,2.765c-13.526,1.279-27.045,2.628-40.558,4.047l-0.587-0.567
	c-0.075-1.581,0.612-2.766,1.682-3.879c1.343-1.399,4.098-1.801,5.931-2.136c10.306-1.885,21.058-2.296,31.487-3.242
	C494.396,693.36,505.248,691.876,516.172,691.228z"/>
<path style="fill:#83211A;" d="M225.644,770.326c0.067,0.91,0.131,1.772,0.3,2.67c0.125,2.348,0.479,3.924-1.23,5.758
	c-8.188,8.789-25.483,9.955-36.847,10.15c-12.526,0.214-26.91-1.124-37.886-7.581c-0.413-2.563-0.736-5.183-1.353-7.704
	c1.391,1.017,2.792,2.184,4.332,2.953l0.897-0.801c1.129,0.399,2.326,0.96,3.517,1.082c3.931,1.701,7.975,2.695,12.197,3.372
	l1.218,0.411l3.266,0.474c1.946,0.169,3.91,0.413,5.863,0.407l0.627,0.286c6.401,0.248,12.733,0.307,19.105-0.433
	c7.374,0.194,16.338-2.993,22.27-7.242C223.234,772.904,224.461,771.677,225.644,770.326z"/>
<path style="fill:#30130E;" d="M170.789,780.636l3.266,0.474c1.946,0.169,3.91,0.413,5.863,0.407l0.627,0.286
	c-0.697,0.649-0.886,0.652-1.131,1.614c-2.044,0.073-4.256-0.307-6.257-0.72l-4.017-0.386
	C169.917,781.864,170.246,781.334,170.789,780.636z"/>
<path style="fill:#020101;" d="M153.857,775.771c1.129,0.399,2.326,0.96,3.517,1.082c3.931,1.701,7.975,2.695,12.197,3.372
	l1.218,0.411c-0.543,0.698-0.872,1.228-1.649,1.675c-5.692-0.962-11.252-2.682-16.18-5.739L153.857,775.771z"/>
<path style="fill:#020101;" d="M225.644,770.326c0.067,0.91,0.131,1.772,0.3,2.67c-0.169,0.067-0.343,0.121-0.505,0.201
	c-2.521,1.243-4.239,3.797-6.878,5.045c-11.101,5.248-27.061,6.48-39.147,5.175c0.245-0.962,0.434-0.965,1.131-1.614
	c6.401,0.248,12.733,0.307,19.105-0.433c7.374,0.194,16.338-2.993,22.27-7.242C223.234,772.904,224.461,771.677,225.644,770.326z"/>
<linearGradient id="SVGID_00000142166454006978189080000007615222131139413649_" gradientUnits="userSpaceOnUse" x1="851.5015" y1="246.1708" x2="909.1924" y2="283.6119" gradientTransform="matrix(1 0 0 -1 0 1026)">
	<stop  offset="0" style="stop-color:#F9D67F"/>
	<stop  offset="1" style="stop-color:#F3B597"/>
</linearGradient>
<path style="fill:url(#SVGID_00000142166454006978189080000007615222131139413649_);" d="M916.789,754.245
	c1.302,0.923,2.82,1.889,3.479,3.415c0.589,1.362,0.328,2.892-0.417,4.133c-1.975,3.291-6.946,5.07-10.504,6.08
	c-17.082,4.845-37.118,2.986-54.682,2.154c-3.043-0.144-9.163,0.293-11.752-1.146c-0.444-3.411-0.555-6.974-0.588-10.413
	l0.673-0.134c0.553,0.663,1.272,1.709,2.029,2.126c1.769,0.972,5.487,1.159,7.514,1.479c14.776,2.334,45.231,4.261,58.583-1.949
	C914.2,758.559,915.583,757.419,916.789,754.245z"/>
<path style="fill:#FCB42A;" d="M511.117,544.836c5.026,0.341,10.482,7.82,13.771,11.385c-1.762,6.782-2.261,13.994-4.876,20.515
	c-2.349,0.695-4.724,0.89-7.15,1.151c-2.715-0.189-6.072-0.217-8.345-1.903c-4.969-3.687-4.728-13.067-5.405-18.693
	C503.072,553.099,507,548.875,511.117,544.836z"/>
<path style="fill:#F5CFCC;" d="M908.147,825.017c16.509-0.019,35.547,1.302,51.716-0.168c-4.695,8.199-10.692,18.163-17.33,24.833
	c-3.097-2.068-5.631-4.101-8.226-6.758c-7.555-7.119-18.692-10.231-28.67-11.972L908.147,825.017z"/>
<path style="fill:#D78247;" d="M901.386,771.211c3.935-0.739,7.897-1.402,11.736-2.556c-0.274,15.667-1.527,42.65-6.683,57.036
	c-1.471,4.103-3.681,7.914-6.774,11.011c-2.762,2.764-6.078,4.842-9.812,5.994C902.265,821.002,901.765,795.435,901.386,771.211z"/>
<path style="fill:#D89CA1;" d="M905.637,830.952c9.978,1.741,21.115,4.853,28.67,11.972c-4.625,6.606-7.515,7.676-15.348,9.091
	c-9.732,1.758-30.708,0.952-39.033-4.578c-0.691-0.459-1.142-1.068-1.627-1.727c2.599-0.051,5.23-0.252,7.782-0.768
	C894.958,843.151,900.815,838.323,905.637,830.952z"/>
<path style="fill:#D78247;" d="M875.016,745.439l0.59,1.475c1.131,0.419,1.983,0.227,3.15,0.083l0.655,0.165
	c0.259,0.079,0.518,0.163,0.778,0.238c7.917,2.28,26.712,0.251,34.082,5.103c0.683,1.175,0.673,1.399,0.645,2.77
	c-1.384,2.568-4.01,3.457-6.686,4.253c-4.575,1.36-9.405,1.987-14.154,2.318c-9.397,0.655-42.705,0.678-49.53-3.406
	c-0.528-0.315-0.932-0.714-1.37-1.14c-0.211-1.324-0.221-1.581,0.701-2.702c2.636-3.206,6.968-1.764,9.979-3.412l-0.691-0.173
	l5.559-1.573c4.348-0.647,8.566-1.253,12.959-1.597c0.677,1.347,1.344,2.478,2.246,3.686c0.168-1.118-0.048-2.016-0.235-3.116
	c0.571-0.122,0.796-0.359,1.245-0.714L875.016,745.439z"/>
<path style="fill:#83211A;" d="M159.807,763.319c0.609,0.434,0.993,0.741,1.742,0.889c4.804,0.948,19.882-0.673,25.779-0.882
	c2.969-0.105,5.882,0.3,8.806,0.27c6.82,0.759,16.126,0.932,21.446,5.727c1.6,1.443,2.763,3.313,4.34,4.805
	c-5.932,4.249-14.896,7.436-22.27,7.242c-6.372,0.74-12.704,0.681-19.105,0.433l-0.627-0.286c-1.953,0.006-3.917-0.238-5.863-0.407
	l-3.266-0.474l-1.218-0.411c-4.222-0.677-8.266-1.671-12.197-3.372c-1.191-0.122-2.388-0.683-3.517-1.082
	c-1.36-0.776-3.549-1.893-4.082-3.445c-0.251-0.731-0.332-1.582-0.037-2.304C151.169,766.516,156.574,764.673,159.807,763.319z"/>
<path style="fill:#A03C10;" d="M159.807,763.319c0.609,0.434,0.993,0.741,1.742,0.889c4.804,0.948,19.882-0.673,25.779-0.882
	c2.969-0.105,5.882,0.3,8.806,0.27l0.314,0.877c-7.341-0.853-33.312,0.085-38.786,4.572c-0.96,0.787-1.077,1.289-1.455,2.423
	c0.433,1.841,1.096,2.152,2.46,3.41l0.474,0.877c1.297,0.552,2.587,1.118,3.912,1.601l-0.388,0.278l1.147,0.127
	c-1.393-0.163-2.715-0.333-4.071-0.697c-0.928-0.249-1.431-0.305-2.367-0.211c-1.191-0.122-2.388-0.683-3.517-1.082
	c-1.36-0.776-3.549-1.893-4.082-3.445c-0.251-0.731-0.332-1.582-0.037-2.304C151.169,766.516,156.574,764.673,159.807,763.319z"/>
<path style="fill:#E55159;" d="M196.134,763.596c6.82,0.759,16.126,0.932,21.446,5.727c1.6,1.443,2.763,3.313,4.34,4.805
	c-5.932,4.249-14.896,7.436-22.27,7.242c-6.372,0.74-12.704,0.681-19.105,0.433l-0.627-0.286c-1.953,0.006-3.917-0.238-5.863-0.407
	l-3.266-0.474l-1.218-0.411c-4.222-0.677-8.266-1.671-12.197-3.372c0.936-0.094,1.439-0.038,2.367,0.211
	c1.356,0.364,2.678,0.534,4.071,0.697l-1.147-0.127l0.388-0.278c-1.325-0.483-2.615-1.049-3.912-1.601l-0.474-0.877
	c4.269,1.65,8.57,3.181,13.119,3.841c3.486,0.539,7.015,0.636,10.476,1.168c4.358,0.098,8.679,0.211,13.033-0.106
	c6.356-1.027,12.76-1.398,18.714-4.088c2.066-0.933,3.893-1.77,4.738-3.968c-0.266-0.992-0.06-0.708-0.689-1.406
	c-3.759-4.167-16.292-5.804-21.61-5.846L196.134,763.596z"/>
<path style="fill:#AF79B9;" d="M639.04,807.089c1.352-0.183,3.162-0.459,4.489-0.047c5.678,1.764,12.405,12.266,15.332,17.101
	c3.442,5.685,12.281,23.429,9.809,30.036c-1.292,3.454-11.202,5.524-14.539,6.561c-2.386,0.824-4.848,1.358-7.301,1.942
	c-1.095-4.18-1.438-8.523-2.567-12.73c-3.484-12.992-10.644-23.728-18.212-34.628C630.325,812.506,634.558,809.567,639.04,807.089z"
	/>
<path style="fill:#020101;" d="M658.91,847.934c1.375,0.283,3.091,0.504,3.951,1.759c0.706,1.031,0.84,2.062,0.453,3.245
	c-0.546,1.668-2,2.508-3.392,3.399c-1.209-0.387-2.645-0.793-3.468-1.842c-0.736-0.937-0.902-2.079-0.56-3.209
	C656.364,849.733,657.657,848.822,658.91,847.934z"/>
<path style="fill:#E1B4E1;" d="M658.169,850.238c0.973-0.016,1.788,0.192,2.727,0.429c0.758,1.234,0.619,1.488,0.512,2.958
	c-1.022,0.005-1.897-0.107-2.898-0.312C657.788,852.052,658.008,851.649,658.169,850.238z"/>
<path style="fill:#AF79B9;" d="M370.393,810.375c2.53,2.365,5.265,4.687,8.17,6.582c3.88,2.533,8.617,4.547,11.779,7.97
	c-9.779,6.746-16.421,18.656-19.877,29.825c-0.909,2.938-2.489,13.202-4.221,14.719l-1.511-0.131l-21.487-8.712
	C346.737,840.514,356.201,824.744,370.393,810.375z"/>
<path style="fill:#020101;" d="M357.494,845.522c2.339-0.125,4.431-0.093,6.231,1.615c1.2,1.137,1.701,2.687,1.613,4.307
	c-0.162,2.991-1.856,4.961-3.982,6.87c-1.092,0.171-2.207,0.305-3.315,0.228c-1.393-0.097-2.6-0.84-3.476-1.899
	c-1.081-1.307-1.388-2.973-1.202-4.628C353.718,848.866,355.111,847.448,357.494,845.522z"/>
<path style="fill:#FFFFFF;" d="M357.957,847.409c1.99-0.033,3.034,0.146,4.558,1.398c0.433,0.764,0.758,1.323,0.734,2.239
	c-0.056,2.116-1.282,3.547-2.582,5.061c-0.207,0.046-0.411,0.104-0.619,0.139c-1.28,0.215-2.249,0.097-3.311-0.681
	c-0.817-0.6-1.281-1.579-1.341-2.59C355.247,850.466,356.291,849.096,357.957,847.409z"/>
<path style="fill:#FFFFFF;" d="M519.273,692.39c2.219,2.274,3.945,19.989,4.397,23.992c-8.717,2.158-18.369,2.525-27.33,3.503
	c-15.545,1.697-31.708,4.163-47.31,4.198c-0.93-0.342-1.94-0.726-2.609-1.499c-2.594-2.998-1.872-11.954-2.008-15.969
	c9.056-0.353,18.219-1.797,27.235-2.758c11.547-1.23,23.139-2.102,34.677-3.392C513.469,699.666,514.887,697.901,519.273,692.39z"/>
<path style="fill:#FFFFFF;" d="M574.883,513.253c27.285,8.61,74.44,25.949,95.388,45.06c8.253,7.528,15,17.58,20.143,27.432
	c4.358,8.35,7.953,17.125,11.685,25.767c10.625,24.603,19.855,49.714,29.453,74.726c7.406,19.299,14.883,38.478,21.812,57.96
	c4.689,13.186,9.58,26.613,12.178,40.405c1.171,6.218,1.331,12.342-0.579,18.431c-4.096,13.062-14.972,22.058-26.812,28.124
	c-7.848,4.02-61.354,24.405-67.114,23.758c-0.68-0.872-0.49-0.931-0.466-1.981c1.819-1.973,7.346-3.19,9.903-4.073l34.054-11.394
	c7.605-2.58,15.424-4.986,22.587-8.654c6.621-3.39,13.693-8.149,18.255-14.121c6.196-8.109,6.425-18.458,5.236-28.165
	c-2.149-17.535-9.598-37.987-15.522-54.687c-3.501-9.87-6.745-19.859-10.512-29.631c-2.798-7.259-6.161-14.263-9.105-21.457
	l-16.232-39.918c-8.715-20.987-16.249-42.843-27.813-62.49c-5.8-9.853-12.108-17.655-21.264-24.578
	c-13.213-9.991-39.243-22.519-54.914-28.531c-6.161-2.363-26.931-8.292-30.824-11.314L574.883,513.253z"/>
<path style="fill:#CCCEF4;" d="M662.447,730.952c6.478,16.521,13.542,33.164,17.421,50.533
	c-12.387,7.692-24.553,15.501-36.563,23.769c-0.31-13.44,0.459-26.984,1.081-40.409c0.513-11.062,0.818-22.379,2.052-33.383
	C651.14,731.529,658.056,732.413,662.447,730.952z"/>
<path style="fill:#FFFFFF;" d="M378.134,541.98c11.136-4.873,65.176-27.363,72.183-27.246l0.101,1.746
	c-17.1,4.793-34.179,11.176-50.513,18.155c-5.55,2.372-17.446,9.014-22.364,10.185c-7.102,4.549-14.229,8.493-20.401,14.356
	c-0.952,0.906-1.497,1.939-2.905,1.884c-0.086-0.003-0.165-0.052-0.247-0.078l-0.274-1.68c-0.245,1.215-0.5,2.425-0.668,3.653
	c-8.783,10.608-17.594,27.362-23.905,39.793c-14.939,29.424-72.713,158.73-70.414,184.125c1.248,13.788,9.273,23.035,19.586,31.537
	c11.415,9.408,24.898,17.574,37.71,24.936c6.593,3.788,13.813,7.259,19.987,11.679c1.51,1.081,3.122,2.252,3.47,4.186
	c-24.364-9.005-71.33-32.963-82.465-56.712c-7.736-16.5,5.421-48.214,11.197-64.425c9.403-26.389,19.261-52.607,29.576-78.653
	c12.461-31.551,27.079-73.062,50.63-98.011C356.511,552.836,367.57,546.996,378.134,541.98z"/>
<path style="fill:#CCCEF4;" d="M597.347,896.323c1.341-0.229,2.503-0.444,3.87-0.249c3.582,2.809,4.19,9.752,5.229,14.045
	c-14.553,2.046-29.283,3.305-43.893,4.961l-107.04,11.776l-6.66,0.709c-1.049-4.469-1.875-8.948-2.665-13.468
	c6.721-0.974,13.585-1.403,20.343-2.168l63.122-6.726C552.286,902.729,574.745,899.038,597.347,896.323z"/>
<path style="fill:#F6BFA2;" d="M472.826,477.933l2.825,0.552c3.907,10.081,12.085,16.245,21.831,20.481
	c9.677,4.206,21.617,4.329,31.372,0.227c10.04-4.222,13.481-14.17,16.461-15.743l0.513,3.547l2.712,15.897
	c-4.154,11.867-16.203,24.39-26.907,30.674c-4.47,2.625-8.666,3.631-13.74,2.188c-15.227-4.332-29.512-21.108-37.154-34.24
	C472.861,493.704,472.747,485.958,472.826,477.933z"/>
<path style="fill:#E0ACAA;" d="M858.896,835.34c5.542,5.694,11.231,9.592,19.403,10.37c0.485,0.659,0.936,1.268,1.627,1.727
	c8.325,5.53,29.301,6.336,39.033,4.578c7.833-1.415,10.723-2.485,15.348-9.091c2.595,2.657,5.129,4.69,8.226,6.758
	c-17.96,18.281-38.653,36.175-61.376,48.391c-3.821-4.479-6.51-10.408-9.568-15.437c-6.272-10.315-13.3-20.593-18.467-31.494
	c-1.052-2.221-2.867-5.808-2.491-8.261C851.183,839.281,856.125,836.99,858.896,835.34z"/>
<path style="fill:#8B559A;" d="M361.054,603.818c4.548,20.224,8.646,40.794,11.505,61.327c0.753,5.415,2.001,11.432,1.604,16.901
	c-0.498,6.837-4.423,14.847-6.79,21.288c-3.404,9.261-6.686,18.602-10.407,27.739c-6.583,16.162-13.746,31.961-20.062,48.258
	c-5.558-4.811-11.1-8.778-17.535-12.387c0.442-8.051,17.103-39.196,21.332-49.152c5.24-12.336,9.895-24.848,13.351-37.811
	c4.499-16.878,7.606-35.311,7.892-52.786c0.121-7.422-2.383-15.588-0.999-22.856C360.978,604.165,361.018,603.992,361.054,603.818z"
	/>
<path style="fill:#FCB42A;" d="M503.677,578.083c5.272,2.1,10.214,1.858,15.72,1.301c1.232,26.792,3.533,53.603,5.449,80.358
	c0.688,9.301,1.268,18.609,1.74,27.924c0.123,2.574,0.619,5.195,0.549,7.765c-0.036,1.315-0.235,2.265-0.945,3.397
	c-1.303,0.614-1.459,0.45-2.89,0.133c-1.132-1.503-1.312-3.693-1.678-5.506c-0.189-1.375-0.46-2.337-1.019-3.607
	c-3.507-2.495-21.663,0.384-26.837,0.891c0.894-14.104,2.571-28.166,3.865-42.237L503.677,578.083z"/>
<path style="fill:#F6BFA2;" d="M390.106,827.593c5.64,1.687,10.394,4.695,15.533,7.485c6.722,3.649,13.625,7.054,20.953,9.291
	c2.53,8.492,4.399,17.342,6.535,25.948c2.161,8.704,4.687,17.486,6.24,26.316c-4.888-1.464-9.681-3.194-14.488-4.901
	c-18.84-6.654-36.989-15.062-55.134-23.374C371.631,853.986,378.736,837.009,390.106,827.593z"/>
<path style="fill:#8B559A;" d="M659.392,610.435c0.047,0.201,0.098,0.4,0.141,0.602c1.37,6.28,1.011,13.29,1.558,19.706
	c0.91,10.681,2.505,21.913,4.665,32.412c4.617,22.434,12.769,47.275,20.86,68.728c4.761,12.622,10.059,25.027,14.695,37.7
	c3.393-0.537,10.28-2.098,13.172-0.036l-0.435,1.467c-12.617,1.466-21.084,4.216-32.397,9.73
	c-4.195-20.921-13.416-41.594-21.519-61.256c-3.376-8.192-6.396-16.767-10.505-24.617
	C652.481,666.628,654.424,638.426,659.392,610.435z"/>
<path style="fill:#FFFFFF;" d="M374.968,688.721c4.126,7.342,9.578,114.386,9.533,129.744c-7.314-4.555-14.071-10.776-20.895-16.071
	c-9.024-6.895-17.833-13.414-25.009-22.343c5.18-14.296,12.23-27.73,17.999-41.774C363.356,721.82,368.703,705.282,374.968,688.721z
	"/>
<path style="fill:#8B559A;" d="M373.547,655.338c2.408,3.505,3.404,8.859,4.701,12.951c2.801,8.838,10.367,33.472,15.338,40.239
	c1.133,12.803,7.182,30.891,10.454,43.91c6.02,23.958,11.25,48.068,17.529,71.977c-7.422,0.213-22.124,2.258-28.522,0.474
	c-1.694-2.236-3.045-3.824-5.516-5.217c-0.196-0.111-0.396-0.214-0.594-0.321c0.177-14.333-0.97-28.883-1.8-43.192
	c-1.416-24.422-2.884-48.957-5.494-73.285C377.939,686.986,375.366,671.211,373.547,655.338z"/>
<path style="fill:#F7A44C;" d="M848.833,771.42c17.437,0.842,35.201,2.234,52.553-0.209c0.379,24.224,0.879,49.791-11.533,71.485
	c-4.367,1.433-10.484,2.707-14.946,1.142c-0.09-0.032-0.17-0.088-0.256-0.133c-1.055-2.23-6.462-5.06-8.515-6.82
	C854.367,826.795,850.093,786.659,848.833,771.42z"/>
<path style="fill:#AF79B9;" d="M465.734,496.925c2.546,5.044,5.513,10.203,8.87,14.741c7.903,10.68,22.533,24.487,36.308,26.235
	c6.634,0.842,11.545-1.923,16.609-5.811c11.002-8.447,23.571-21.438,25.452-35.838c3.653,3.038,6.964,6.475,10.335,9.819
	c-2.85,6.299-1.066,17.964-2.739,25.503c-1.059,4.772-2.636,9.621-4.304,14.213c-1.525,4.198-6.598,13.204-6.539,17.173
	c-1.418,2.73-3.736,5.048-5.957,7.13c-6.22-4.939-26.871-27.386-30.315-28.536c-5.923,0.06-23.279,20.941-28.739,25.429
	c-0.168,0.138-0.338,0.272-0.508,0.409c-14.265-10.398-28.757-36.23-33.218-53.172C455.356,508.113,460.118,501.927,465.734,496.925
	z"/>
<path style="fill:#CCCEF4;" d="M949.092,702.444c3.447,1.407,4.685,4.898,6.041,8.158c13.206,31.753,23.698,70.771,9.971,103.823
	c-0.484,1.167-0.955,2.298-1.595,3.392c-5.366-0.716-11.54-0.05-16.987-0.008l-36.707,0.255c3.131-16.176,3.795-33.351,4.814-49.781
	c2.959-2.048,6.581-4.336,7.157-8.209c0.28-1.88-0.541-3.586-1.746-4.969c-5.247-6.022-14.766-7.008-22.185-7.698
	c9.761-16.635,25.665-19.58,40.337-29.549C944.046,713.881,947.763,709.499,949.092,702.444z"/>
<path style="fill:#8B559A;" d="M571.855,734.936c4.788-1.561,9.543-3.216,14.266-4.964c30.971-11.665,49.06-32.149,58.812-63.388
	c2.482-7.953,3.537-17.343,7.016-24.805c0.066-0.142,0.137-0.281,0.206-0.422c0.021,7.753-1.034,15.649-1.815,23.355l-4.035,38.132
	c-1.481,15.657-2.622,31.339-3.425,47.046c-1.064,18.268-2.037,36.573-1.792,54.878c-7.392,1.582-11.883,6.531-18.654,9.255
	c-14.951-9.88-26.267-24.992-42.646-32.847C576.569,766.013,574.015,750.288,571.855,734.936z"/>
<path style="fill:#F6BFA2;" d="M580.182,783.745c16.042,8.179,27.919,23.618,42.788,33.574c0.972,0.1,0.702,0.184,1.479-0.064
	c0.155-0.049,0.305-0.113,0.457-0.169c9.832,11.735,18.234,27.465,19.802,42.807c-7.589,0.367-15.079,5.861-21.827,9.131
	c-19.025,9.219-46.641,13.274-67.136,7.954c-6.285-1.632-10.962-4.202-14.324-9.876c6.877,0.809,34.373,3.157,39.8,0.877l0.36-0.888
	c-3.362-3.732-47.179,2.141-54.376-6.663c-1.072-1.312-1.398-2.682-1.12-4.328c0.29-1.719,1.346-2.369,2.687-3.236
	c4.885-1.641,10.449-0.819,15.526-0.673c7.135,0.205,28.034,1.015,34.382-0.194c1.118-0.213,1.205-0.376,1.82-1.253l-0.204-1.05
	c-0.347-0.206-0.648-0.525-1.041-0.618c-3.087-0.728-8.131,0.222-11.463,0.287c-12.025,0.237-30.272,1.132-41.797-0.967
	l-0.669-0.126c-0.513-0.355-1.017-0.703-1.491-1.109c-1.392-1.194-2.841-2.804-2.813-4.744c0.164-10.972,53.96-2.629,59.043-6.884
	c-3.938-5.547-41.467,0.843-48.826-1.606c-1.86-0.618-2.575-1.656-3.343-3.342c0.085-1.335,0.082-1.742,1.049-2.782
	c6.142-6.609,47.025-6.992,57.208-7.274c-0.812-4.131-1.528-8.247-2.105-12.418c3.636,1.608,8.729,4.12,12.763,4.047l-0.176-0.584
	c-3.067-2.675-8.542-4.214-12.329-5.813C582.528,798.552,581.256,791.092,580.182,783.745z"/>
<path style="fill:#F7A44C;" d="M225.401,781.402l0.503,0.512c0.497,9.673-0.38,21.879-0.379,31.94l0.024,26.375
	c0.003,4.908,0.371,10.104-0.343,14.955c-0.333,2.262-1.323,4.339-2.755,6.113c-5.848,7.247-18.729,10.289-27.53,11.257
	c-14.058,1.545-30.864-1.041-42.172-10.021c-1.692-1.778-2.576-3.356-2.985-5.811c-1.289-7.742-0.44-16.319-0.439-24.188
	c0.115-16.649,0.071-33.298-0.132-49.947c4.761,3.01,9.97,4.862,15.477,5.966C182.925,792.215,209.344,792.021,225.401,781.402z"/>
<path style="fill:#FFFFFF;" d="M154.553,792.835l0.657,0.65c1.064,3.239,0.644,51.054,0.519,58.532
	c-0.036,2.18,0.12,2.715-1.497,4.268c-0.725-0.391-1.273-0.715-1.512-1.56c-0.975-3.43-0.318-44.779,0.052-50.753
	C152.973,800.721,152.817,795.613,154.553,792.835z"/>
<path style="fill:#FFFFFF;" d="M158.392,796.246l0.987,0.632c0.198,0.58,0.285,0.763,0.377,1.447
	c0.578,4.32,0.169,54.129-0.492,55.361c-0.266,0.496-0.716,0.869-1.074,1.304c-1.108-0.639-0.618-0.229-1.455-1.248
	c-1.175-6.943-0.812-46.501,0.22-54.087C157.147,798.246,157.582,797.395,158.392,796.246z"/>
<path style="fill:#E55159;" d="M875.016,745.439c-0.028-7.483-0.003-14.964-0.596-22.428c-0.696-8.768-4.78-42.445-3.568-48.799
	c0.846-4.435,4.028-8.127,7.117-11.241c3.946-3.979,8.282-7.539,11.315-12.313c2.861-4.503,4.89-9.525,6.945-14.428
	c6.559-15.648,12.376-21.704,28.442-27.855c7.794-2.983,16.185-5.438,24.593-5.452c7.271-0.012,14.199,2.342,19.38,7.575
	c6.232,6.294,10.122,15.735,10.005,24.619c-0.094,7.186-3.368,12.671-8.415,17.523c-8.877,8.535-25.129,17.469-25.743,31.345
	c-0.475,10.764,7.494,19.396-2.109,28.553c-14.768,14.083-34.273,13.618-45.854,35.07c-5.444-0.243-10.946-0.88-16.39-0.655
	l-0.727,0.209l-0.655-0.165c-1.167,0.144-2.019,0.336-3.15-0.083L875.016,745.439z"/>
<path style="fill:#FFFFFF;" d="M948.535,627.429c-2.599,4.857-6.721,9.158-10.135,13.473c-5.822,7.355-11.653,14.8-16.96,22.537
	c7.786-2.675,13.692-3.727,21.899-3.118c-10.791,1.213-20.257,1.954-27.504,11.158c-11.799,14.987-21.835,35.443-28.305,53.37
	c-2.618,7.253-4.373,15.045-7.392,22.104l-0.727,0.209l-0.655-0.165c0.374-16.577,15.62-48.262,24.166-62.607
	c3.173-5.327,8.33-10.759,10.293-16.592c2.335-6.938,2.422-28.29,1.948-36.386c3.719,9.353,2.418,21.375,2.237,31.312
	C926.962,650.338,936.958,638.013,948.535,627.429z"/>
<path style="fill:#AF79B9;" d="M339.48,859.211c-0.348-1.934-1.96-3.105-3.47-4.186c-6.174-4.42-13.394-7.891-19.987-11.679
	c-12.812-7.362-26.295-15.528-37.71-24.936c-10.313-8.502-18.338-17.749-19.586-31.537c-2.299-25.395,55.475-154.701,70.414-184.125
	c6.311-12.431,15.122-29.185,23.905-39.793c0.752,11.877,5.398,28.806,8.008,40.863c-0.036,0.174-0.076,0.347-0.109,0.521
	c-1.384,7.268,1.12,15.434,0.999,22.856c-0.286,17.475-3.393,35.908-7.892,52.786c-3.456,12.963-8.111,25.475-13.351,37.811
	c-4.229,9.956-20.89,41.101-21.332,49.152c-2.785-1.393-6.673-3.794-9.855-3.399l-0.433,0.73c1.266,1.668,4.111,2.387,6.051,3.323
	c3.816,1.843,7.322,4.208,10.725,6.72c-0.169-0.067-0.338-0.131-0.506-0.2c-6.358-2.599-24.006-14.369-30.823-11.305
	c-0.661,0.297-0.74,0.776-1.059,1.377l0.376,0.672c4.392,1.234,8.499,0.895,12.941,2.707c5.952,2.427,11.644,5.562,17.107,8.928
	c2.712,1.671,5.842,4.16,8.741,5.367c1.154,0.481,2.305,0.438,3.531,0.428c10.791,9.372,21.219,18.894,32.914,27.199
	c-1.271,1.17-2.509,2.375-3.712,3.615c-1.203,1.24-2.371,2.513-3.503,3.818c-1.132,1.306-2.227,2.642-3.284,4.009
	c-1.057,1.367-2.074,2.763-3.053,4.187c-0.978,1.425-1.915,2.875-2.812,4.352c-0.897,1.477-1.752,2.978-2.564,4.503
	c-0.813,1.525-1.582,3.072-2.307,4.64c-0.726,1.568-1.407,3.155-2.043,4.762c-1.293,3.267-3.822,14.711-5.398,16.392L339.48,859.211
	z"/>
<path style="fill:#F5CFCC;" d="M755.505,822.479c9.42-0.683,19.093-0.207,28.558-0.285c22.598-0.125,45.195-0.063,67.792,0.188
	c1.86,4.811,3.972,8.807,7.041,12.958c-2.771,1.65-7.713,3.941-8.265,7.541c-0.376,2.453,1.439,6.04,2.491,8.261
	c5.167,10.901,12.195,21.179,18.467,31.494c3.058,5.029,5.747,10.958,9.568,15.437c-32.342,20.676-68.751,35.013-104.999,47.207
	c-1.052-5.38-19.722-36.079-23.696-42.848l-75.91-21.376c-14.765-4.246-28.969-9.055-44.001-12.421
	c0.487-0.373,0.968-0.757,1.459-1.127c1.764-1.329,3.011-2.207,4.095-4.168c1.654-0.932,3.43-1.656,5.16-2.435l3.54,4.096
	c8.621-2.335,16.999-5.293,25.546-7.859c20.171-6.056,45.558-13.392,64.238-22.718C743.313,831.067,749.393,826.822,755.505,822.479
	z"/>
<path style="fill:#AF79B9;" d="M377.541,544.82c4.918-1.171,16.814-7.813,22.364-10.185c16.334-6.979,33.413-13.362,50.513-18.155
	c0.144,15.837,16.637,37.873,27.447,48.515c2,1.968,4.057,3.787,6.334,5.432c4.715-3.13,8.72-7.442,12.752-11.386
	c1.279,5.467,1.71,13.075,4.863,17.723c0.121,0.178,0.23,0.363,0.345,0.544c-2.64,25.904-5.428,51.863-7.737,77.794l-1.914,22.851
	c-0.314,3.735-0.174,8.081-1.28,11.637l-0.627,0.344c-1.621-3.82-1.811-7.999-3.212-11.875c-3.371-0.042-9.854-0.859-12.564,1.475
	c-1.863,1.605-1.737,4.68-1.639,6.89c0.095,2.135,0.284,4.27,0.31,6.408c-6.431,0.644-25.128,0.905-29.249,5.832
	c-1.409,1.685-1.725,3.605-2.066,5.707l-31.334,2.513c-5.626,0.455-11.745,0.494-17.261,1.644
	c-4.971-6.767-12.537-31.401-15.338-40.239c-1.297-4.092-2.293-9.446-4.701-12.951c-0.728-5.396-2.062-10.862-3.095-16.216
	c-2.863-14.983-6.041-29.898-9.533-44.747c-2.506-11.094-5.261-22.135-6.931-33.393c0.082,0.026,0.161,0.075,0.247,0.078
	c1.408,0.055,1.953-0.978,2.905-1.884C363.312,553.313,370.439,549.369,377.541,544.82z"/>
<path style="fill:#E0ACAA;" d="M638.105,863.34c-1.084,1.961-2.331,2.839-4.095,4.168c-0.491,0.37-0.972,0.754-1.459,1.127
	c15.032,3.366,29.236,8.175,44.001,12.421l75.91,21.376c3.974,6.769,22.644,37.468,23.696,42.848
	c-6.073,1.895-12.167,3.723-18.281,5.485c-6.113,1.762-12.245,3.457-18.396,5.085c-6.15,1.628-12.317,3.189-18.502,4.682
	c-6.185,1.493-12.385,2.919-18.601,4.277c-6.215,1.358-12.445,2.648-18.689,3.87c-6.244,1.222-12.501,2.376-18.77,3.461
	c-6.269,1.086-12.549,2.103-18.84,3.051c-6.291,0.949-12.592,1.828-18.903,2.639c-6.31,0.811-12.628,1.552-18.955,2.225
	c-6.327,0.673-12.66,1.276-19,1.811c-6.34,0.535-12.685,1-19.035,1.396c-6.35,0.396-12.704,0.722-19.061,0.979
	c-6.357,0.257-12.716,0.445-19.077,0.564c-6.361,0.119-12.723,0.168-19.086,0.147c-6.362-0.021-12.723-0.111-19.083-0.27
	c-6.361-0.159-12.719-0.388-19.074-0.686c-1.404-5.829-6.277-11.923-9.556-16.95c-4.817-7.385-9.489-15.006-14.675-22.134
	c-12.156-16.708-26.858-32.752-32.536-53.054c7.443,2.772,14.93,5.419,22.461,7.94c2.71,9.839,3.916,20.204,6.435,30.14
	c23.298-1.482,46.736-4.942,69.95-7.447c30.685-3.312,61.621-6.004,92.187-10.275c-2.495-11.312-6.698-22.232-8.976-33.585
	C615.048,874.487,624.399,870.042,638.105,863.34z"/>
<path style="fill:#FFFFFF;" d="M545.158,699.784c4.822-0.346,12.175-1.482,16.643,0.401c3.567,3.86,19.349,103.223,22.037,118.383
	c-13.145,0.019-40.836,0.578-52.293,6.058c-1.754,0.839-3.538,2.124-4.009,4.136c-0.578,2.469,1.259,4.832,2.467,6.833
	c-1.838,0.235-3.641,0.527-5.398,1.14c-1.883,0.656-3.674,1.817-4.459,3.73c-0.635,1.548-0.49,3.193,0.189,4.698
	c1.782,3.947,5.217,5.024,8.968,6.437c-0.027,0.016-0.053,0.032-0.079,0.046c-0.411,0.229-0.824,0.454-1.227,0.696
	c-1.784,1.068-3.446,2.615-3.726,4.799c-0.145,1.137,0.272,2.222,0.94,3.124c3.216,4.346,9.59,5.489,14.552,6.449
	c1.094,2.972,2.464,5.205,5.051,7.117c12.641,9.346,38.05,7.611,53.062,5.462l3.729,13.968c-16.504,1.908-32.926,4.539-49.405,6.661
	c-17.683,2.139-35.383,4.121-53.101,5.945l-53.764,5.61c-3.583-17.558-8.261-34.857-12.565-52.246l-24.421-98.592
	c-4.149-16.646-8.826-33.179-12.506-49.936c15.438-1.136,30.824-2.807,46.279-3.795c0.514,5.294-1.081,13.525,2.531,17.827
	c1.43,1.703,3.741,1.59,5.806,1.689c7.786,0.373,72.218-5.158,75.604-8.25c0.776-5.088-1.709-12.15-2.824-17.178
	C530.446,700.107,537.905,700.083,545.158,699.784z"/>
<path style="fill:#CCCEF4;" d="M900.128,483.775c-0.016,0.141-0.029,0.282-0.048,0.422c-0.584,4.406-2.651,9.075-4.082,13.293
	c-2.433,7.172-4.801,14.343-6.336,21.773c-6.211,30.075-3.268,61.196,6.098,90.293c1.203,3.738,2.562,10.506,4.998,13.539
	c0.102,0.127,0.227,0.233,0.341,0.35c-4.649,8.705-7.533,18.994-13.16,27.054c-3.842,5.504-9.334,9.428-13.672,14.46
	c-8.876,10.296-3.051,29.127-2.352,41.664l-0.723,0.212c0.054,1.795,0.257,3.731-0.084,5.494l-0.052-0.578
	c-0.182-1.856-0.307-3.688-1.639-5.103c1.831,8.646,1.939,17.624,2.37,26.426l1.071,9.102l0.432,0.231l-0.271,0.348l-0.075-0.314
	l0.497-0.614l0.205-3.083c0.202,2.642,0.58,5.326,0.122,7.952c-0.306,0.19-0.59,0.439-0.936,0.54l0.862,1.175
	c0.187,1.1,0.403,1.998,0.235,3.116c-0.902-1.208-1.569-2.339-2.246-3.686c-4.393,0.344-8.611,0.95-12.959,1.597l-5.559,1.573
	c-3.583,0.263-8.321,0.939-11.277,3.076c-3.675,7.438,7.078,56.013,9.102,65.422c-30.981-0.618-62.026-0.126-93.012-0.057
	c0.965-1.063,1.931-2.135,2.807-3.272c4.641-6.026,7.63-13.746,8.025-21.353c0.971-18.738-14.342-54.656-21.205-73.151
	c-1.884-5.078-5.388-10.831-5.924-16.213c-0.638-6.417,1.998-14.494,3.611-20.764c8.937-34.726,35.737-70.4,59.739-96.68
	c16.315-17.863,33.889-34.446,50.409-52.081C871.08,519.187,885.976,501.8,900.128,483.775z"/>
<path style="fill:#04A6A3;" d="M858.724,749.438c0.151-0.5,0.324-1.066,0.224-1.596c-0.333-1.768-2.729-3.504-4.152-4.374
	c-8.168-4.997-17.707-6.807-25.889-13.818c-7.657-6.562-4.523-12.984-5.341-21.404c-0.976-10.055-10.609-12.103-16.955-17.834
	c-4.355-3.932-6.932-8.908-7.006-14.827c-0.052-4.183,1.06-8.719,4.092-11.758c3.118-3.127,7.756-4.162,12.039-4.128
	c11.862,0.095,24.682,7.351,32.811,15.609c8.069,7.332,15.754,18.326,19.472,28.581l1.398,2.759
	c1.831,8.646,1.939,17.624,2.37,26.426l1.071,9.102l0.432,0.231l-0.271,0.348l-0.075-0.314l0.497-0.614l0.205-3.083
	c0.202,2.642,0.58,5.326,0.122,7.952c-0.306,0.19-0.59,0.439-0.936,0.54l0.862,1.175c0.187,1.1,0.403,1.998,0.235,3.116
	c-0.902-1.208-1.569-2.339-2.246-3.686C867.29,748.185,863.072,748.791,858.724,749.438z"/>
<path style="fill:#008091;" d="M871.787,733.074l-0.63,0.122l-0.666-0.498c-0.921-6.549-4.896-18.749-3.283-24.787
	c0.358-1.339,0.581-2.657,0.811-4.022l1.398,2.759C871.248,715.294,871.356,724.272,871.787,733.074z"/>
<path style="fill:#FFFFFF;" d="M871.683,747.841c-8.159-18.434-19.894-35.622-31.527-52.03c-3.632-5.124-7.099-10.517-11.176-15.3
	c-4.076-4.783-8.819-8.806-13.221-13.263c10.074,6.536,17.46,15.307,24.541,24.861c1.377-5.802,2.303-11.612,3.248-17.494
	c1.009,6.223-1.468,12.548-1.874,18.742c3.221,6.45,7.764,12.405,11.669,18.475c4.21,6.546,8.035,13.404,11.934,20.141
	c2.83,4.89,5.95,9.81,7.555,15.263l0.862,1.175c0.187,1.1,0.403,1.998,0.235,3.116C873.027,750.319,872.36,749.188,871.683,747.841z
	"/>
<path style="fill:#FFFFFF;" d="M191.411,597.869l0.041-0.782c1.051-1.647,26.272-12.948,30.04-14.825
	c16.465-8.203,33.149-18.428,49.001-27.828c24.827-14.999,49.117-30.823,72.868-47.473c8.697-5.985,17.689-11.569,26.302-17.668
	c12.55-8.888,24.787-18.35,36.979-27.726c4.826-3.712,9.666-7.424,14.27-11.411c4.441-3.846,8.662-8.008,13.301-11.611l0.508-0.389
	c0.95,1.236,1.823,2.562,3.097,3.486c1.541,0.115,3.695,0.01,4.982,0.871c3.966,9.125,6.808,20.377,16.991,24.499
	c2.042,0.826,10.998,2.168,11.698,3.551c0.426,0.842,0.261,1.904,0.223,2.822c-0.417,6.275-0.505,12.49-1.178,18.756
	c-1.393,0.246-2.724,0.499-4.075,0.934c-6.369,5.507-11.459,12.131-16.353,18.945c-24.139,9.136-80.103,26.897-98.337,43.118
	c-15.854,14.103-27.102,35.305-35.734,54.438c-15.838,35.104-29.342,71.388-42.55,107.55c-6.963,19.065-16.761,43.38-20.239,62.913
	c-1.329,7.462-1.759,14.684,1.031,21.865c2.295,5.91,6.402,10.972,10.735,15.519c-12.617,0.233-25.095,0.691-37.716,0.177
	l0.229-29.55c0.068-5.99,0.711-12.185-0.177-18.123c-4.803-6.921-12.155-8.784-20.05-10.204c-5.563-1.001-11.121-1.279-16.762-1.375
	c2.375-6.029,4.145-12.197,5.745-18.47l0.441-2.407c0.523-3.151,0.967-6.313,1.333-9.486c0.366-3.173,0.653-6.354,0.861-9.541
	c0.208-3.187,0.337-6.378,0.387-9.572c0.05-3.194,0.021-6.387-0.087-9.579c-0.109-3.192-0.296-6.38-0.563-9.563
	c-0.266-3.183-0.611-6.358-1.035-9.523c-0.424-3.166-0.926-6.32-1.507-9.461c-0.58-3.141-1.238-6.265-1.973-9.374
	c-3.261-13.339-8.154-26.546-12.918-39.407c2.654-0.904,4.437-2.018,6.199-4.242C191.794,612.203,192.17,604.584,191.411,597.869z"
	/>
<path style="fill:#E1B4E1;" d="M196.722,737.471c16.253-8.787,27.854-14.119,46.721-13.44c3.384,0.122,7.647,0.023,10.897,1.069
	c0.688,0.222,0.798,0.325,1.335,0.657c-4.724,6.18-25.395,16.065-33.356,17.194c-9.394,1.332-17.042-1.372-26.038-3.073
	L196.722,737.471z"/>
<path style="fill:#E1B4E1;" d="M257.383,675.751l0.653-0.263c0.921,0.113,1.508,0.2,2.373,0.568
	c-1.336,1.981-17.447,15.229-20.068,17.046c-8.826,6.116-21.171,10.255-31.966,8.257c-1.342-0.038-2.485-0.137-3.806-0.434
	c-0.989-0.963-0.951-0.904-1.029-2.284c0.529-1.141,1.101-1.986,1.984-2.891C218.797,682.154,238.734,675.635,257.383,675.751z"/>
<path style="fill:#E1B4E1;" d="M246.284,623.424l0.274,0.618c-0.35,4.025-13.599,22.517-17.006,25.908
	c-8.885,8.845-21.581,13.848-34.067,13.827c-0.184-3.209,1.232-7.138,2.667-9.966C206.978,636.419,228.977,628.893,246.284,623.424z
	"/>
<path style="fill:#F5CFCC;" d="M66.592,824.526l81.036-0.001c-0.042,9.954,0.07,19.943-0.131,29.893
	c0.588,4.969,2.106,7.771,6.138,10.855c11.331,8.664,30.781,10.653,44.448,8.567c9.11-1.39,21.29-4.898,26.963-12.715
	c0.421-0.577,0.777-1.191,1.067-1.844c0.29-0.653,0.508-1.328,0.654-2.027c0.62-10.724,0.353-21.596,0.412-32.34
	c15.138-0.002,30.844,0.843,45.909-0.143c26.737,20.39,48.509,29.945,79.555,42.403c4.089,1.641,11.462,5.949,15.708,5.641
	c0.2-0.015,0.394-0.072,0.591-0.108c0.082-0.137,0.161-0.276,0.247-0.411c0.374-0.588,0.202-0.376,0.767-0.815
	c15.957,7.091,31.755,14.143,48.082,20.377c5.678,20.302,20.38,36.346,32.536,53.054c5.186,7.128,9.858,14.749,14.675,22.134
	c3.279,5.027,8.152,11.121,9.556,16.95c-13.015,0.2-26.301-1.268-39.266-2.405c-47.931-4.205-94.67-12.926-141.249-24.871
	c-9.203-2.339-18.353-4.873-27.449-7.601c-9.096-2.728-18.13-5.648-27.102-8.759c-8.972-3.112-17.874-6.413-26.706-9.902
	c-8.832-3.49-17.586-7.166-26.261-11.028C138.961,897.822,93.989,870.817,66.592,824.526z"/>
<path style="fill:#E0ACAA;" d="M147.497,854.418c0.588,4.969,2.106,7.771,6.138,10.855c11.331,8.664,30.781,10.653,44.448,8.567
	c9.11-1.39,21.29-4.898,26.963-12.715c0.421-0.577,0.777-1.191,1.067-1.844c0.29-0.653,0.508-1.328,0.654-2.027
	c3.997-0.1,8.138,0.379,12.06,1.123c5.835,1.107,14.539,3.49,17.866,8.797c0.147,0.229,0.281,0.466,0.403,0.709
	c0.123,0.243,0.232,0.492,0.328,0.747c0.097,0.255,0.18,0.515,0.249,0.778c0.069,0.263,0.125,0.529,0.167,0.798
	c0.042,0.269,0.07,0.54,0.084,0.812c0.013,0.272,0.013,0.544-0.001,0.816c-0.015,0.272-0.043,0.543-0.085,0.812
	c-0.043,0.269-0.099,0.535-0.169,0.798c-1.374,5.341-7.386,9.873-11.868,12.68c-18.425,11.542-40.998,11.936-61.581,6.978
	c-14.294-3.443-32.947-10.456-40.861-23.904c-1.482-2.518-2.533-5.698-1.711-8.619C142.529,857.443,144.75,855.865,147.497,854.418z
	"/>
<path style="fill:#AF79B9;" d="M568.976,511.012c2.03,0.654,3.974,1.335,5.907,2.241l-0.463,0.669
	c3.893,3.022,24.663,8.951,30.824,11.314c15.671,6.012,41.701,18.54,54.914,28.531c9.156,6.923,15.464,14.725,21.264,24.578
	c11.564,19.647,19.098,41.503,27.813,62.49l16.232,39.918c2.944,7.194,6.307,14.198,9.105,21.457
	c3.767,9.772,7.011,19.761,10.512,29.631c5.924,16.7,13.373,37.152,15.522,54.687c1.189,9.707,0.96,20.056-5.236,28.165
	c-4.562,5.972-11.634,10.731-18.255,14.121c-7.163,3.668-14.982,6.074-22.587,8.654l-34.054,11.394
	c-2.557,0.883-8.084,2.1-9.903,4.073c-1.01-16.737-12.731-35.102-24.467-46.447c14.022-11.323,40.978-28.751,58.262-32.816
	c5.439-1.279,11.153-1.325,16.704-1.812c-2.355-0.414-4.638-0.68-7.022-0.846l0.435-1.467c-2.892-2.062-9.779-0.501-13.172,0.036
	c-4.636-12.673-9.934-25.078-14.695-37.7c-8.091-21.453-16.243-46.294-20.86-68.728c-2.16-10.499-3.755-21.731-4.665-32.412
	c-0.547-6.416-0.188-13.426-1.558-19.706c-0.043-0.202-0.094-0.401-0.141-0.602c1.501-9.229,5.107-22.012,5.339-30.934
	c-6.228,14.61-8.009,31.632-10.301,47.222c-0.658,4.478-0.824,10.4-2.275,14.634c-0.069,0.141-0.14,0.28-0.206,0.422
	c-3.479,7.462-4.534,16.852-7.016,24.805c-9.752,31.239-27.841,51.723-58.812,63.388c-4.723,1.748-9.478,3.403-14.266,4.964
	c-1.428-7.012-2.925-14.022-4.218-21.06c-0.663-3.607-0.986-7.409-1.98-10.932c-0.387-1.374-0.996-2.752-2.015-3.779
	c-1.107-1.114-2.633-1.666-4.157-1.909c-6.565-1.051-21.969,0.581-29.333,0.91c-1.705-27.284-3.699-54.547-5.982-81.789
	c-0.873-11.733-3.026-25.538-2.406-37.144c0.174-3.271,2.871-10.642,3.662-14.621c2.046,1.737,5.1,5.078,7.936,4.838
	c1.379-0.117,2.902-0.942,4.006-1.748c2.275,2.181,4.88,3.548,7.689,4.883c6.798-6.309,11.938-14.586,16.082-22.82
	C567.217,537.693,573.439,524.49,568.976,511.012z"/>
</svg>
