<svg width="153" height="42" viewBox="0 0 153 42" fill="none" xmlns="http://www.w3.org/2000/svg">
<path opacity="0.5" d="M152.5 37.7899C152.5 39.8187 150.776 41.5 148.594 41.5H4.41158C2.23022 41.5 0.5 39.8178 0.5 37.7899V4.21561C0.5 2.18787 2.23118 0.5 4.41158 0.5H148.593C150.775 0.5 152.499 2.18687 152.499 4.21561L152.5 37.7899Z" stroke="#4D4B62"/>
<path d="M33.038 20.7771C33.0054 17.2576 36.0058 15.5453 36.143 15.4656C34.4438 13.0599 31.81 12.7312 30.8845 12.705C28.6724 12.479 26.5267 13.9903 25.3999 13.9903C24.2506 13.9903 22.5154 12.7269 20.6452 12.764C18.2386 12.8 15.9872 14.153 14.7524 16.254C12.2041 20.5379 14.1046 26.8333 16.5461 30.296C17.7674 31.9919 19.1945 33.8854 21.0624 33.8188C22.8898 33.7457 23.5725 32.6875 25.7778 32.6875C27.9628 32.6875 28.6038 33.8188 30.5089 33.7762C32.4701 33.7457 33.7049 32.0727 34.8835 30.3616C36.2948 28.4178 36.8616 26.5035 36.8841 26.4052C36.838 26.39 33.0752 24.9955 33.038 20.7771Z" fill="white"/>
<path d="M29.4394 10.4271C30.4223 9.23355 31.0948 7.60974 30.9081 5.96191C29.4855 6.02307 27.7064 6.91741 26.6819 8.08476C25.7755 9.11343 24.9658 10.7995 25.175 12.3851C26.773 12.5008 28.4138 11.6021 29.4394 10.4271Z" fill="white"/>
<path d="M59.4845 33.5763H56.9306L55.5316 29.3077H50.6689L49.3363 33.5763H46.8499L51.6675 19.0439H54.6432L59.4845 33.5763ZM55.1099 27.5168L53.8447 23.7221C53.7109 23.3344 53.4601 22.4215 53.0901 20.9844H53.0452C52.8978 21.6025 52.6605 22.5154 52.3344 23.7221L51.0918 27.5168H55.1099Z" fill="white"/>
<path d="M71.874 28.2095C71.874 29.9916 71.3781 31.4003 70.3862 32.4344C69.4978 33.355 68.3946 33.8147 67.0777 33.8147C65.6562 33.8147 64.6351 33.3189 64.0132 32.3274H63.9683V37.8475H61.5707V26.5485C61.5707 25.4281 61.5403 24.2783 61.4818 23.0989H63.5904L63.7242 24.7598H63.7692C64.5688 23.5084 65.7822 22.8838 67.4106 22.8838C68.6836 22.8838 69.7463 23.3719 70.5965 24.3493C71.449 25.3277 71.874 26.6141 71.874 28.2095ZM69.4315 28.2946C69.4315 27.2747 69.1953 26.4339 68.7207 25.7721C68.2023 25.082 67.5062 24.7369 66.6335 24.7369C66.042 24.7369 65.5044 24.9291 65.0242 25.308C64.5429 25.6902 64.228 26.1893 64.0807 26.8073C64.0065 27.0956 63.9694 27.3315 63.9694 27.5171V29.2643C63.9694 30.0266 64.21 30.6697 64.6914 31.195C65.1727 31.7203 65.7979 31.9823 66.5672 31.9823C67.4702 31.9823 68.1731 31.6438 68.6757 30.969C69.1796 30.293 69.4315 29.4019 69.4315 28.2946Z" fill="white"/>
<path d="M84.2861 28.2095C84.2861 29.9916 83.7902 31.4003 82.7972 32.4344C81.9099 33.355 80.8067 33.8147 79.4898 33.8147C78.0683 33.8147 77.0472 33.3189 76.4264 32.3274H76.3815V37.8475H73.9839V26.5485C73.9839 25.4281 73.9535 24.2783 73.895 23.0989H76.0036L76.1374 24.7598H76.1824C76.9809 23.5084 78.1943 22.8838 79.8238 22.8838C81.0957 22.8838 82.1584 23.3719 83.0109 24.3493C83.8599 25.3277 84.2861 26.6141 84.2861 28.2095ZM81.8435 28.2946C81.8435 27.2747 81.6063 26.4339 81.1317 25.7721C80.6133 25.082 79.9194 24.7369 79.0456 24.7369C78.4529 24.7369 77.9165 24.9291 77.4352 25.308C76.9539 25.6902 76.6401 26.1893 76.4928 26.8073C76.4197 27.0956 76.3815 27.3315 76.3815 27.5171V29.2643C76.3815 30.0266 76.6221 30.6697 77.1012 31.195C77.5825 31.7192 78.2078 31.9823 78.9792 31.9823C79.8823 31.9823 80.5851 31.6438 81.0878 30.969C81.5916 30.293 81.8435 29.4019 81.8435 28.2946Z" fill="white"/>
<path d="M98.1633 29.502C98.1633 30.7381 97.7213 31.7438 96.8341 32.5203C95.859 33.3687 94.5017 33.7924 92.7575 33.7924C91.1471 33.7924 89.856 33.491 88.8788 32.8872L89.4343 30.9467C90.4869 31.5648 91.6419 31.8749 92.9003 31.8749C93.8033 31.8749 94.5062 31.6761 95.0111 31.2808C95.5138 30.8855 95.7646 30.3548 95.7646 29.6931C95.7646 29.1034 95.5577 28.6065 95.1427 28.2036C94.73 27.8006 94.0406 27.4261 93.078 27.0799C90.4577 26.131 89.1487 24.7408 89.1487 22.9128C89.1487 21.7182 89.6075 20.7387 90.5263 19.9764C91.4417 19.2131 92.663 18.832 94.1902 18.832C95.552 18.832 96.6834 19.0624 97.5864 19.5222L96.987 21.4201C96.1436 20.9745 95.1899 20.7518 94.1227 20.7518C93.2793 20.7518 92.6203 20.9538 92.1479 21.3556C91.7487 21.7149 91.5485 22.1528 91.5485 22.6715C91.5485 23.2459 91.7768 23.7209 92.2357 24.0944C92.6349 24.4395 93.3602 24.8129 94.4128 25.2159C95.7005 25.7193 96.6463 26.3079 97.2547 26.9827C97.8608 27.6554 98.1633 28.4973 98.1633 29.502Z" fill="white"/>
<path d="M106.09 24.8465H103.448V29.9341C103.448 31.2281 103.913 31.8746 104.847 31.8746C105.275 31.8746 105.63 31.8385 105.912 31.7665L105.978 33.5344C105.506 33.7058 104.884 33.7921 104.113 33.7921C103.166 33.7921 102.426 33.5115 101.892 32.9513C101.36 32.39 101.093 31.4487 101.093 30.1263V24.8443H99.5183V23.0971H101.093V21.1784L103.448 20.4883V23.0971H106.09V24.8465Z" fill="white"/>
<path d="M118.014 28.2519C118.014 29.8626 117.54 31.1851 116.593 32.2192C115.6 33.2839 114.282 33.8146 112.639 33.8146C111.055 33.8146 109.795 33.3046 108.854 32.2847C107.914 31.2648 107.444 29.9773 107.444 28.4256C107.444 26.8018 107.928 25.4717 108.898 24.4376C109.867 23.4024 111.173 22.8848 112.816 22.8848C114.4 22.8848 115.674 23.3947 116.635 24.4157C117.555 25.4062 118.014 26.6849 118.014 28.2519ZM115.527 28.3273C115.527 27.3609 115.314 26.532 114.883 25.8408C114.381 25.0043 113.662 24.5872 112.731 24.5872C111.767 24.5872 111.035 25.0054 110.532 25.8408C110.102 26.5331 109.889 27.3751 109.889 28.371C109.889 29.3374 110.102 30.1662 110.532 30.8564C111.051 31.6928 111.775 32.11 112.709 32.11C113.625 32.11 114.344 31.6841 114.862 30.8345C115.304 30.1302 115.527 29.2926 115.527 28.3273Z" fill="white"/>
<path d="M125.808 25.1464C125.57 25.1038 125.317 25.082 125.052 25.082C124.209 25.082 123.556 25.391 123.097 26.0102C122.698 26.5562 122.498 27.2463 122.498 28.0795V33.5777H120.102L120.124 26.3989C120.124 25.1912 120.094 24.0915 120.034 23.1H122.122L122.21 25.1049H122.276C122.53 24.4159 122.929 23.8611 123.475 23.4451C124.009 23.0705 124.586 22.8838 125.208 22.8838C125.43 22.8838 125.63 22.8991 125.808 22.9264V25.1464Z" fill="white"/>
<path d="M136.53 27.8427C136.53 28.2598 136.502 28.6115 136.443 28.8986H129.25C129.278 29.9339 129.625 30.7256 130.293 31.2716C130.9 31.7597 131.683 32.0043 132.646 32.0043C133.711 32.0043 134.683 31.8394 135.556 31.5085L135.932 33.1247C134.911 33.5571 133.705 33.7722 132.314 33.7722C130.641 33.7722 129.327 33.2939 128.372 32.3384C127.418 31.3829 126.94 30.0998 126.94 28.4902C126.94 26.9101 127.384 25.5943 128.274 24.5448C129.205 23.4245 130.463 22.8643 132.047 22.8643C133.602 22.8643 134.779 23.4245 135.579 24.5448C136.212 25.4348 136.53 26.5356 136.53 27.8427ZM134.244 27.2388C134.26 26.5487 134.103 25.9524 133.778 25.449C133.364 24.8015 132.726 24.4782 131.868 24.4782C131.084 24.4782 130.446 24.7938 129.959 25.4272C129.56 25.9306 129.323 26.5345 129.25 27.2377H134.244V27.2388Z" fill="white"/>
<path d="M54.3174 10.1054C54.3174 11.3906 53.9204 12.3582 53.1276 13.0079C52.3933 13.6074 51.3497 13.9077 49.9979 13.9077C49.3277 13.9077 48.7541 13.8793 48.2739 13.8225V6.79988C48.9003 6.7016 49.5751 6.65137 50.3038 6.65137C51.5914 6.65137 52.5619 6.92327 53.2165 7.46709C53.9497 8.08189 54.3174 8.96095 54.3174 10.1054ZM53.0748 10.137C53.0748 9.30384 52.8476 8.66501 52.3933 8.21948C51.9389 7.77503 51.2754 7.55227 50.4016 7.55227C50.0305 7.55227 49.7145 7.57629 49.4525 7.62652V12.9653C49.5976 12.9872 49.863 12.997 50.2487 12.997C51.1506 12.997 51.8467 12.7535 52.337 12.2664C52.8274 11.7794 53.0748 11.0696 53.0748 10.137Z" fill="white"/>
<path d="M60.9061 11.2289C60.9061 12.0206 60.6733 12.6692 60.2077 13.1781C59.7196 13.7011 59.073 13.9621 58.2655 13.9621C57.4873 13.9621 56.8677 13.7121 56.4055 13.2097C55.9444 12.7085 55.7139 12.0763 55.7139 11.314C55.7139 10.5169 55.9512 9.86277 56.428 9.35499C56.9048 8.84721 57.5458 8.59277 58.3533 8.59277C59.1315 8.59277 59.7567 8.84284 60.2302 9.34407C60.68 9.8311 60.9061 10.4601 60.9061 11.2289ZM59.6836 11.266C59.6836 10.791 59.5779 10.3837 59.3676 10.044C59.1202 9.63345 58.7682 9.42815 58.3105 9.42815C57.8371 9.42815 57.4772 9.63345 57.2298 10.044C57.0184 10.3837 56.9138 10.7975 56.9138 11.2867C56.9138 11.7618 57.0195 12.1691 57.2298 12.5087C57.4851 12.9193 57.8404 13.1246 58.2993 13.1246C58.7491 13.1246 59.1022 12.916 59.3564 12.4978C59.5745 12.1516 59.6836 11.741 59.6836 11.266Z" fill="white"/>
<path d="M69.7409 8.69629L68.0822 13.844H67.0026L66.3155 11.6087C66.1412 11.0506 65.9995 10.4959 65.8892 9.94554H65.8679C65.7655 10.5112 65.6238 11.0648 65.4417 11.6087L64.7118 13.844H63.6198L62.0601 8.69629H63.2712L63.8706 11.1435C64.0157 11.7222 64.1349 12.2737 64.2305 12.7957H64.2519C64.3396 12.3654 64.4846 11.8172 64.6893 11.1544L65.4417 8.69738H66.4021L67.1229 11.102C67.2972 11.6884 67.4389 12.2529 67.548 12.7967H67.5806C67.6605 12.2671 67.7808 11.7026 67.9405 11.102L68.5837 8.69738H69.7409V8.69629Z" fill="white"/>
<path d="M75.8507 13.8456H74.6722V10.8972C74.6722 9.9887 74.3168 9.53442 73.6038 9.53442C73.2541 9.53442 72.9718 9.65891 72.7525 9.90898C72.5355 10.159 72.4253 10.4539 72.4253 10.7913V13.8445H71.2467V10.1689C71.2467 9.71679 71.2321 9.22648 71.204 8.69577H72.2397L72.2948 9.50057H72.3274C72.4646 9.2505 72.6693 9.04412 72.9381 8.87922C73.2575 8.68703 73.6151 8.58984 74.0064 8.58984C74.5012 8.58984 74.9128 8.74491 75.2401 9.05613C75.6472 9.43724 75.8507 10.0062 75.8507 10.7618V13.8456Z" fill="white"/>
<path d="M79.1009 13.8456H77.9235V6.33594H79.1009V13.8456Z" fill="white"/>
<path d="M86.0396 11.2289C86.0396 12.0206 85.8068 12.6692 85.3412 13.1781C84.8532 13.7011 84.2054 13.9621 83.3991 13.9621C82.6198 13.9621 82.0001 13.7121 81.539 13.2097C81.0779 12.7085 80.8474 12.0763 80.8474 11.314C80.8474 10.5169 81.0847 9.86277 81.5615 9.35499C82.0383 8.84721 82.6794 8.59277 83.4857 8.59277C84.265 8.59277 84.8891 8.84284 85.3637 9.34407C85.8135 9.8311 86.0396 10.4601 86.0396 11.2289ZM84.816 11.266C84.816 10.791 84.7103 10.3837 84.5 10.044C84.2538 9.63345 83.9006 9.42815 83.4441 9.42815C82.9695 9.42815 82.6096 9.63345 82.3633 10.044C82.1519 10.3837 82.0473 10.7975 82.0473 11.2867C82.0473 11.7618 82.153 12.1691 82.3633 12.5087C82.6186 12.9193 82.974 13.1246 83.4328 13.1246C83.8827 13.1246 84.2346 12.916 84.4888 12.4978C84.7081 12.1516 84.816 11.741 84.816 11.266Z" fill="white"/>
<path d="M91.7434 13.8453H90.6851L90.5974 13.2523H90.5648C90.2027 13.7252 89.6865 13.9621 89.0162 13.9621C88.5158 13.9621 88.111 13.806 87.8062 13.4959C87.5296 13.2141 87.3912 12.8636 87.3912 12.4475C87.3912 11.8185 87.6611 11.3392 88.2043 11.0072C88.7464 10.6752 89.5088 10.5125 90.4906 10.5202V10.4241C90.4906 9.74593 90.124 9.40741 89.3896 9.40741C88.8667 9.40741 88.4056 9.53517 88.0075 9.78851L87.768 9.03722C88.2605 8.74128 88.8689 8.59277 89.5864 8.59277C90.9719 8.59277 91.6669 9.30257 91.6669 10.7222V12.6179C91.6669 13.1322 91.6927 13.5417 91.7434 13.8453ZM90.5198 12.0763V11.2824C89.2198 11.2605 88.5698 11.6067 88.5698 12.3198C88.5698 12.5884 88.644 12.7893 88.7958 12.9236C88.9477 13.058 89.1411 13.1246 89.3716 13.1246C89.6303 13.1246 89.8721 13.0449 90.0925 12.8865C90.314 12.7271 90.4501 12.5251 90.5007 12.2772C90.5131 12.2215 90.5198 12.1538 90.5198 12.0763Z" fill="white"/>
<path d="M98.4401 13.8456H97.3943L97.3391 13.019H97.3065C96.9725 13.648 96.4035 13.9625 95.6039 13.9625C94.9652 13.9625 94.4332 13.7189 94.0115 13.2319C93.5898 12.7449 93.3795 12.1126 93.3795 11.3362C93.3795 10.503 93.6078 9.82815 94.0666 9.31273C94.5108 8.83225 95.0551 8.59201 95.7029 8.59201C96.4147 8.59201 96.9129 8.8246 97.1963 9.29089H97.2188V6.33594H98.3985V12.4588C98.3985 12.96 98.412 13.4219 98.4401 13.8456ZM97.2188 11.6747V10.8164C97.2188 10.6679 97.2076 10.5478 97.1862 10.4561C97.1199 10.1809 96.977 9.94937 96.76 9.76263C96.5407 9.5759 96.2764 9.48199 95.9717 9.48199C95.5319 9.48199 95.1878 9.65125 94.9348 9.99086C94.684 10.3305 94.5569 10.764 94.5569 11.2936C94.5569 11.8025 94.6773 12.2153 94.9191 12.533C95.1743 12.8716 95.5185 13.0408 95.9492 13.0408C96.336 13.0408 96.6453 12.8999 96.8803 12.6171C97.1075 12.3561 97.2188 12.0416 97.2188 11.6747Z" fill="white"/>
<path d="M108.52 11.2289C108.52 12.0206 108.287 12.6692 107.822 13.1781C107.334 13.7011 106.688 13.9621 105.879 13.9621C105.102 13.9621 104.483 13.7121 104.019 13.2097C103.558 12.7085 103.328 12.0763 103.328 11.314C103.328 10.5169 103.565 9.86277 104.042 9.35499C104.519 8.84721 105.16 8.59277 105.968 8.59277C106.745 8.59277 107.372 8.84284 107.844 9.34407C108.294 9.8311 108.52 10.4601 108.52 11.2289ZM107.299 11.266C107.299 10.791 107.193 10.3837 106.983 10.044C106.734 9.63345 106.383 9.42815 105.924 9.42815C105.452 9.42815 105.092 9.63345 104.844 10.044C104.632 10.3837 104.528 10.7975 104.528 11.2867C104.528 11.7618 104.633 12.1691 104.844 12.5087C105.099 12.9193 105.454 13.1246 105.913 13.1246C106.363 13.1246 106.717 12.916 106.971 12.4978C107.188 12.1516 107.299 11.741 107.299 11.266Z" fill="white"/>
<path d="M114.857 13.8456H113.679V10.8972C113.679 9.9887 113.324 9.53442 112.61 9.53442C112.26 9.53442 111.978 9.65891 111.76 9.90898C111.542 10.159 111.433 10.4539 111.433 10.7913V13.8445H110.253V10.1689C110.253 9.71679 110.239 9.22648 110.211 8.69577H111.246L111.301 9.50057H111.334C111.472 9.2505 111.677 9.04412 111.944 8.87922C112.265 8.68703 112.621 8.58984 113.014 8.58984C113.507 8.58984 113.919 8.74491 114.246 9.05613C114.655 9.43724 114.857 10.0062 114.857 10.7618V13.8456Z" fill="white"/>
<path d="M122.788 9.55622H121.491V12.0569C121.491 12.6924 121.721 13.0102 122.178 13.0102C122.389 13.0102 122.565 12.9927 122.703 12.9567L122.733 13.8248C122.501 13.91 122.195 13.9526 121.818 13.9526C121.352 13.9526 120.99 13.815 120.728 13.5398C120.465 13.2647 120.335 12.8016 120.335 12.1519V9.55622H119.56V8.699H120.335V7.75551L121.49 7.41699V8.69791H122.787V9.55622H122.788Z" fill="white"/>
<path d="M129.028 13.8456H127.848V10.9191C127.848 9.99632 127.493 9.5344 126.781 9.5344C126.234 9.5344 125.861 9.80195 125.656 10.337C125.621 10.4495 125.601 10.5871 125.601 10.7487V13.8445H124.424V6.33594H125.601V9.43831H125.624C125.995 8.87375 126.527 8.59201 127.216 8.59201C127.704 8.59201 128.108 8.74707 128.428 9.05829C128.827 9.44595 129.028 10.0225 129.028 10.7847V13.8456Z" fill="white"/>
<path d="M135.464 11.029C135.464 11.2343 135.448 11.4068 135.42 11.5477H131.885C131.901 12.0565 132.07 12.4442 132.397 12.7128C132.696 12.9531 133.082 13.0732 133.554 13.0732C134.077 13.0732 134.554 12.9924 134.984 12.8297L135.168 13.6247C134.665 13.8365 134.074 13.9424 133.389 13.9424C132.568 13.9424 131.921 13.7076 131.453 13.2381C130.983 12.7685 130.751 12.1384 130.751 11.3478C130.751 10.5714 130.968 9.92496 131.405 9.40954C131.862 8.85917 132.479 8.58398 133.258 8.58398C134.021 8.58398 134.6 8.85917 134.991 9.40954C135.307 9.84634 135.464 10.3869 135.464 11.029ZM134.339 10.733C134.348 10.3934 134.271 10.1008 134.111 9.85398C133.906 9.53621 133.595 9.37678 133.173 9.37678C132.788 9.37678 132.475 9.53184 132.235 9.84306C132.039 10.0909 131.924 10.3869 131.885 10.733H134.339Z" fill="white"/>
</svg>
