<svg width="815" height="387" viewBox="0 0 815 387" fill="none" xmlns="http://www.w3.org/2000/svg">
<path d="M290.824 80.8723C292.31 80.7889 292.524 79.2903 293.366 78.3511C294.224 77.7083 295.397 77.3452 295.941 76.4227C298.152 73.3253 301.389 72.549 303.948 70.3242C304.245 70.3075 304.542 70.2908 304.542 70.2908C306.209 68.116 307.876 65.9412 309.245 63.7831C311.921 63.6329 311.921 63.633 313.771 64.7184C314.332 64.0923 314.613 63.7792 315.174 63.1531C315.818 64.0089 316.446 64.5683 317.09 65.4241C316.513 65.7539 315.654 66.3967 314.796 67.0395C313.36 68.0121 313.757 69.7737 312.932 71.0094C312.404 72.2283 310.951 72.9045 311.018 74.09C311.101 75.572 309.945 76.2315 310.012 77.417C310.326 77.6968 310.937 77.9598 311.234 77.9431C312.968 76.9539 314.948 75.0588 316.715 74.6623C318.779 74.2491 320.166 72.3874 321.916 71.6945C322.791 71.3481 323.633 70.4089 324.491 69.7661C325.349 69.1232 325.547 67.3282 327.033 67.2448C327.958 67.7876 328.883 68.3303 329.808 68.873C330.369 68.2469 331.228 67.6041 331.789 66.978C333.045 68.0968 332.236 69.6288 332.583 70.5013C332.353 71.7035 331.18 72.0666 331.544 73.2355C330.669 73.582 329.778 73.632 330.736 74.7675C331.017 74.4544 331.28 73.845 331.544 73.2355C333.031 73.1521 334.517 73.0687 335.706 73.002C337.125 71.733 338.562 70.7605 340.279 69.4748L342.657 69.3414C343.284 69.9008 343.615 70.4769 344.226 70.74L348.388 70.5064C348.949 69.8803 349.213 69.2708 349.791 68.9411L352.466 68.791C353.408 69.6301 354.052 70.4859 355.01 71.6214C356.53 72.1308 357.702 71.7677 359.122 70.4987C360.839 69.2131 362.506 67.0383 364.967 68.3868C365.909 69.2259 365.381 70.4449 365.728 71.3174C364.853 71.6638 363.961 71.7138 364.92 72.8494C365.2 72.5363 365.464 71.9268 365.728 71.3174C366.323 71.284 366.917 71.2506 367.512 71.2173C368.073 70.5911 368.337 69.9817 368.914 69.6519C369.542 70.2113 369.542 70.2114 369.742 73.768C368.9 74.7073 367.761 75.6631 366.92 76.6024C367.548 77.1618 367.564 77.4582 367.861 77.4415C369.348 77.3581 370.223 77.0117 373.343 74.1607C373.656 74.4404 373.97 74.7201 374.301 75.2962C374.615 75.5759 374.615 75.5759 374.929 75.8556C375.473 74.9331 376.034 74.3069 376.596 73.6808C376.546 72.7916 376.81 72.1822 376.776 71.5894C377.932 70.9299 378.526 70.8965 379.171 71.7523C379.815 72.6081 380.707 72.5581 381.599 72.5081C382.788 72.4414 383.135 73.3138 384.06 73.8566C384.688 74.416 385.827 73.4601 386.208 74.9254C385.944 75.5349 385.382 76.161 385.102 76.4741C385.416 76.7538 385.432 77.0502 385.73 77.0335C386.621 76.9835 387.513 76.9334 388.405 76.8834C389.247 75.9442 389.791 75.0216 390.914 73.7693C391.541 74.3288 392.169 74.8882 392.78 75.1512C393.689 75.3976 394.564 75.0511 395.472 75.2975C396.397 75.8402 396.745 76.7127 398.214 76.333C398.759 75.4104 399.584 74.1748 400.112 72.9559C401.681 74.3544 401.17 75.8698 400.973 77.6648C400.378 77.6981 399.8 78.0279 399.223 78.3576C397.82 79.923 396.731 81.7681 395.344 83.6298C394.833 85.1451 394.305 86.364 393.794 87.8794C394.389 87.846 395.016 88.4054 395.594 88.0757C396.469 87.7292 396.7 86.527 397.592 86.477C399.672 86.3602 399.506 83.3963 401.57 82.9831C403.039 82.6034 404.442 81.038 406.159 79.7524L410.618 79.5022C409.843 81.6269 409.943 83.4053 408.54 84.9706C407.12 86.2396 405.354 86.6361 404.281 88.7775C404.892 89.0406 405.487 89.0072 406.098 89.2702C406.709 89.5333 407.337 90.0927 407.965 90.6521C408.245 90.339 408.807 89.7129 409.368 89.0868C409.698 89.6629 410.309 89.9259 411.251 90.765C412.11 90.1222 412.968 89.4794 413.826 88.8366C414.14 89.1163 414.454 89.396 415.099 90.2518L420.746 89.9349C421.705 91.0704 421.755 91.9596 421.21 92.8821C420.402 94.4141 419.891 95.9294 419.099 97.7578C420.305 97.9875 421.808 98.2005 422.997 98.1337C423.013 98.4301 423.327 98.7098 423.327 98.7098C422.221 100.259 420.819 101.824 419.713 103.373C420.027 103.652 420.357 104.228 420.655 104.212C423.033 104.078 425.113 103.961 427.491 103.828C428.466 105.26 427.013 105.936 426.733 106.249C425.016 107.535 423.316 109.117 420.921 108.954C420.624 108.971 420.657 109.563 420.377 109.876C420.691 110.156 420.707 110.453 421.004 110.436C422.788 110.336 424.571 110.236 426.652 110.119C426.933 109.806 427.197 109.196 427.477 108.883C428.914 107.911 430.433 108.42 432.2 108.024C433.042 107.085 433.586 106.162 434.411 104.926C435.039 105.486 435.65 105.749 436.575 106.292C437.137 105.665 437.714 105.336 438.573 104.693C439.795 105.219 438.987 106.751 439.351 107.92C439.434 109.402 437.089 110.128 439.32 112.679C438.692 112.119 439.006 112.399 439.006 112.399C442.87 112.182 446.734 111.965 450.599 111.749C450.699 113.527 452.185 113.443 452.566 114.909L458.213 114.592C458.494 114.279 459.055 113.653 459.616 113.026L462.291 112.876C462.919 113.436 463.233 113.716 463.861 114.275C464.422 113.649 464.686 113.039 465.264 112.71C465.858 112.676 466.156 112.66 466.767 112.923C467.097 113.499 467.147 114.388 467.495 115.26C466.62 115.607 465.744 115.953 465.167 116.283C464.342 117.519 465.019 118.967 464.789 120.169C465.103 120.449 465.714 120.712 465.697 120.416C466.208 118.9 467.728 119.41 468.57 118.471C469.411 117.531 469.939 116.312 470.764 115.077C471.145 116.542 471.492 117.415 471.839 118.287C473.095 119.406 473.92 118.17 474.745 116.935L479.204 116.685C480.162 117.82 479.651 119.335 480.015 120.504C478.909 122.053 477.506 123.618 476.12 125.48C476.731 125.743 477.045 126.023 477.656 126.286C479.193 127.092 480.762 128.49 482.496 127.501C483.057 126.875 483.635 126.545 484.179 125.622C484.807 126.182 485.715 126.428 486.954 127.251C487.846 127.201 489.63 127.101 490.835 127.33C491.183 128.203 491.183 128.203 488.691 131.613C488.41 131.926 488.41 131.926 488.129 132.239C487.832 132.256 487.238 132.289 486.94 132.306C486.66 132.619 486.66 132.619 486.379 132.932C486.413 133.525 486.463 134.414 486.496 135.007C488.065 136.405 488.891 135.17 489.418 133.951C490.624 134.181 490.988 135.349 491.93 136.189C491.666 136.798 491.716 137.687 491.452 138.297C490.627 139.532 489.802 140.768 488.96 141.707L486.582 141.841C484.865 143.126 482.834 144.132 481.448 145.994C480.623 147.229 478.906 148.515 477.717 148.582C475.934 148.682 475.125 150.214 473.656 150.594C471.889 150.99 471.708 153.082 469.975 154.071L467.299 154.221C467.052 155.127 467.085 155.72 467.119 156.312C468.077 157.448 469.036 158.583 470.291 159.702C469.416 160.049 468.244 160.412 467.98 161.021C466.907 163.163 464.877 164.169 463.44 165.141C461.707 166.13 460.585 167.383 459.479 168.931L456.506 169.098C455.401 170.647 454.328 172.788 453.223 174.337C450.481 173.302 449.111 175.46 447.378 176.449C445.644 177.438 443.911 178.427 442.491 179.696C440.774 180.982 439.702 183.124 438.299 184.689L434.435 184.906C433.593 185.845 432.768 187.081 431.926 188.02C429.812 187.544 428.426 189.405 426.676 190.098C425.52 190.758 424.711 192.29 423.886 193.525L421.211 193.676C418.652 195.9 417.216 196.873 414.855 197.303C413.105 197.996 412.974 200.976 410.579 200.813C409.474 202.362 408.004 202.742 406.501 202.529C405.709 204.357 403.315 204.194 402.226 206.039C400.426 205.843 399.981 208.544 398.164 208.051C397.075 209.896 395.342 210.885 393.855 210.969C392.089 211.365 390.95 212.321 389.794 212.981C386.03 214.976 382.629 218.14 378.865 220.135C377.709 220.795 376.901 222.327 375.779 223.579L373.103 223.729C372.278 224.965 371.139 225.921 370.314 227.156C369.125 227.223 367.919 226.993 367.656 227.603C366.269 229.464 363.28 229.335 362.852 232.332C360.738 231.856 359.335 233.421 357.585 234.114C356.132 234.79 355.34 236.619 354.201 237.575C353.012 237.641 351.823 237.708 350.634 237.775C347.448 239.44 344.956 242.851 341.092 243.068C340.795 243.084 340.531 243.694 340.25 244.007C339.111 244.963 337.608 244.75 337.097 246.265C334.372 245.526 332.788 249.183 330.36 248.427C329.518 249.366 328.974 250.289 328.149 251.524L325.176 251.691C324.648 252.91 323.84 254.442 323.576 255.051L319.415 255.285C317.103 256.604 315.7 258.169 313.933 258.566C311.869 258.979 310.466 260.544 308.733 261.534C306.999 262.523 305.266 263.512 303.549 264.798C303.896 265.67 304.557 266.822 304.888 267.398C304.691 269.194 303.468 268.667 302.891 268.997C302.313 269.327 302.049 269.936 301.488 270.563C300.529 269.427 299.587 268.588 298.646 267.749L290.323 268.216C289.662 267.064 288.703 265.928 288.059 265.072L282.114 265.406C281.553 266.032 281.289 266.641 280.727 267.268L273.891 267.651C273.61 267.964 273.346 268.574 272.785 269.2L264.759 269.65C263.19 268.252 261.934 267.133 260.678 266.014C261.24 265.388 261.52 265.075 261.784 264.465C261.718 263.28 261.948 262.078 261.898 261.188C262.112 259.69 264.276 261.055 264.143 258.684L259.684 258.934C256.909 257.306 255.075 256.517 252.614 255.168C252.234 253.703 251.539 251.958 250.003 251.152L245.841 251.386C245.577 251.995 245 252.325 244.438 252.951L230.765 253.718C230.484 254.031 230.22 254.641 229.94 254.954C229.659 255.267 229.676 255.563 229.379 255.58C225.217 255.814 221.056 256.047 217.786 256.231C214.055 258.818 211.182 260.764 207.452 263.352L203.885 263.552C202.298 261.857 199.904 261.694 198.267 259.11L194.106 259.343C192.967 260.299 191.531 261.272 189.517 262.574L182.383 262.974C181.821 263.6 181.558 264.21 180.996 264.836L171.187 265.386C170.559 264.827 170.212 263.955 169.254 262.819L169.07 259.559C168.129 258.72 166.89 257.897 165.948 257.058C166.492 256.135 167.054 255.509 167.318 254.9C164.873 253.848 162.709 252.483 160.264 251.43C159.653 251.167 158.778 251.514 158.183 251.547C156.911 250.132 155.656 249.013 154.68 247.581L154.497 244.321C153.869 243.761 153.539 243.185 152.911 242.626C153.753 241.687 154.297 240.764 155.42 239.512C154.692 237.174 156.359 234.999 156.506 232.315C154.739 232.712 154.245 234.523 153.386 235.166C152.528 235.809 151.339 235.876 150.811 237.095C149.291 236.585 148.83 238.99 147.344 239.073C145.858 239.156 145.644 240.655 144.785 241.298C143.927 241.941 143.068 242.584 142.21 243.226C138.479 245.814 134.715 247.81 131.298 250.677C130.159 251.633 128.606 250.531 127.483 251.783C126.939 252.706 125.453 252.789 124.908 253.712C123.803 255.26 122.25 254.158 121.111 255.114C120.83 255.427 120.549 255.74 119.988 256.366L108.098 257.034C106.993 258.582 105.54 259.258 103.74 259.062C103.178 259.688 102.898 260.001 102.337 260.627L92.8246 261.161C91.8662 260.026 90.5939 258.61 89.3216 257.195C89.3049 256.899 89.2716 256.306 89.2383 255.713C86.4464 253.789 82.8461 253.396 80.796 248.754C80.796 248.754 80.746 247.865 80.6461 246.086C81.5045 245.444 82.6435 244.488 83.4852 243.548C82.5435 242.709 82.2129 242.133 81.5851 241.574L81.4018 238.313C81.963 237.687 82.2269 237.078 82.7881 236.452C82.7548 235.859 82.7215 235.266 82.6881 234.673C82.077 234.41 81.4825 234.444 79.9629 233.934C79.3184 233.078 77.7155 231.087 76.4266 229.375C74.6931 230.365 73.2402 231.041 72.1011 231.997C70.9621 232.953 70.4509 234.468 68.7008 235.161C68.0896 234.898 67.4618 234.338 66.8173 233.483C66.5367 233.796 65.9755 234.422 65.4144 235.048L62.7391 235.198C62.1779 235.824 61.6168 236.45 61.3362 236.763L54.4994 237.147C52.0548 236.095 52.466 232.801 50.6159 231.716C50.4493 228.752 48.0379 228.293 46.7323 226.285L42.5708 226.518C41.6124 225.383 40.6707 224.543 40.2735 222.782C39.9096 221.613 38.6539 220.494 38.554 218.716L34.0952 218.966C33.8146 219.279 33.2534 219.905 32.6923 220.531C30.9088 220.631 28.8447 221.044 26.7473 220.865C26.3667 219.4 26.5807 217.901 25.9195 216.749C25.2251 215.004 23.9361 213.292 22.9444 211.564L18.7829 211.797C17.5106 210.382 16.5355 208.95 14.9493 207.255C15.5104 206.629 15.7744 206.02 16.0383 205.41L15.805 201.261C16.8774 199.119 17.9498 196.978 18.0971 194.294C18.0637 193.701 18.0138 192.812 17.6665 191.939C16.1969 192.319 15.6857 193.834 14.844 194.773C13.9356 194.527 13.9356 194.527 13.7523 191.267C14.0162 190.657 14.5607 189.735 15.1052 188.812C15.0386 187.627 14.9886 186.737 13.5023 186.821C13.7829 186.508 14.0302 185.602 14.0302 185.602C15.5164 185.519 16.3416 184.283 17.1666 183.047C17.05 180.973 17.8251 178.848 18.6002 176.723C18.2697 176.147 17.6418 175.588 17.3113 175.011C17.5085 173.216 19.5726 172.803 19.456 170.729C19.356 168.95 21.1062 168.257 21.6341 167.038C22.1286 165.227 22.6398 163.711 23.7621 162.459C24.6539 162.409 25.5456 162.359 26.4374 162.309C26.7346 162.292 26.7513 162.589 27.0652 162.868C26.8013 163.478 26.5373 164.087 25.9762 164.713C26.3067 165.29 26.9346 165.849 27.2651 166.425C26.4067 167.068 25.5316 167.414 24.6732 168.057C24.7232 168.946 24.7732 169.836 25.1037 170.412C24.2286 170.758 23.3202 170.512 24.2953 171.944C24.5759 171.631 24.8398 171.021 25.1037 170.412C26.8372 169.422 28.5541 168.137 30.2709 166.851C31.196 167.394 31.8072 167.657 32.435 168.216C33.7213 164.576 33.7213 164.576 37.155 162.005C36.2466 161.759 35.3382 161.512 34.727 161.249C35.5021 159.124 35.766 158.515 34.7577 156.49C33.0408 157.776 31.3073 158.765 29.5905 160.051C28.6321 158.915 29.4405 157.383 28.7794 156.231C29.6211 155.292 30.4462 154.056 31.3213 153.71C31.8991 153.38 32.7576 152.737 33.0048 151.831C34.8023 146.676 38.186 143.216 41.8836 140.035C42.4615 139.705 42.7087 138.799 43.2699 138.173L45.9452 138.023C47.3314 136.161 48.9983 133.986 50.3846 132.125C50.054 131.549 49.4262 130.989 49.1123 130.709C49.6568 129.787 50.2179 129.161 51.0597 128.221C51.4069 129.094 51.7542 129.966 52.1014 130.839C52.432 131.415 52.7292 131.398 52.9932 130.789C54.6767 128.911 57.3353 128.464 58.7049 126.306C60.3717 124.131 63.0137 123.388 64.0694 120.95C65.8529 120.85 66.9586 119.302 68.6921 118.312C70.4256 117.323 71.184 114.902 73.2148 113.896C74.6677 113.22 75.7401 111.078 76.8457 109.53C77.1263 109.217 77.1097 108.92 77.4069 108.904C80.1155 109.346 80.1628 104.884 82.8547 105.03C83.3826 103.811 84.8522 103.431 84.4716 101.966L87.7413 101.782C88.3025 101.156 88.5664 100.547 89.1276 99.9207L91.8029 99.7706C92.3474 98.848 92.9085 98.2219 93.7503 97.2827C93.717 96.6899 93.6836 96.0971 93.6503 95.5043C94.2282 95.1746 95.1032 94.8282 95.1032 94.8282C97.9591 92.5866 98.9315 88.6668 102.168 87.8906C103.785 84.8266 107.038 84.3467 108.357 81.2994C111.016 80.8529 112.022 77.5259 114.019 75.9272L116.397 75.7937C118.659 73.5855 119.681 70.5549 122.29 69.2192C124.601 67.9002 125.64 65.166 127.621 63.2709C127.901 62.9578 127.885 62.6615 128.182 62.6448C129.932 61.9519 131.649 60.6663 133.069 59.3973C134.785 58.1117 135.213 55.1144 137.608 55.2773C138.4 53.449 140.447 52.7394 140.611 50.3516C142.708 50.5312 144.145 49.5587 144.589 46.8578C145.481 46.8078 146.042 46.1816 145.992 45.2924C146.587 45.2591 147.478 45.209 148.073 45.1757C150.22 46.2445 150.42 49.8012 152.584 51.1664C152.568 50.87 153.129 50.2438 153.409 49.9308C153.69 49.6177 154.284 49.5844 155.176 49.5343C156.135 50.6698 157.11 52.1017 158.399 53.8134C158.399 53.8134 158.135 54.4228 157.574 55.049C157.574 55.049 157.607 55.6418 157.904 55.6251C160.002 55.8047 161.785 55.7046 163.585 55.9009C164.146 55.2748 164.427 54.9617 164.691 54.3523L167.961 54.1688C168.011 55.058 168.341 55.6341 168.375 56.2268C167.352 59.2575 164.049 58.8482 163.043 62.1752C163.374 62.7513 163.704 63.3274 164.035 63.9035C166.66 62.8642 168.955 61.2488 170.605 58.7776C171.694 56.9326 176.317 54.2946 178.942 53.2553C179.289 54.1278 179.637 55.0002 180.001 56.1691C181.47 55.7893 181.684 54.2907 182.823 53.3348C184.095 54.7501 184.095 54.75 182.742 57.2046L183.109 63.7252C183.456 64.5977 183.754 64.581 184.315 63.9548C185.982 61.78 187.351 59.6219 189.663 58.3029C190.538 57.9565 190.768 56.7542 191.61 55.815C192.799 55.7483 193.674 55.4019 194.896 55.9279C194.155 58.6455 193.413 61.3631 191.399 62.6654L191.499 64.4437C192.143 65.2995 192.143 65.2995 198.071 64.6695C198.352 64.3565 198.616 63.747 198.897 63.4339L203.355 63.1837C205.272 65.4548 201.474 66.8572 203.077 68.8485C203.391 69.1282 204.002 69.3913 204.3 69.3746C204.894 69.3412 205.786 69.2912 206.38 69.2578C207.008 69.8173 207.339 70.3934 207.95 70.6564C208.231 70.3433 208.495 69.7339 209.056 69.1077L216.19 68.7074C216.504 68.9871 216.834 69.5632 217.445 69.8262C217.726 69.5132 218.287 68.887 218.848 68.2609L224.793 67.9273C225.768 69.3592 227.355 71.0542 228.33 72.4861L231.599 72.3026C232.16 71.6765 232.441 71.3634 233.002 70.7373C233.63 71.2967 234.258 71.8561 234.902 72.7119C235.547 73.5677 235.036 75.083 235.4 76.2519C235.466 77.4375 235.516 78.3267 235.566 79.2158C235.005 79.842 234.741 80.4514 234.18 81.0776C234.213 81.6704 234.247 82.2631 234.28 82.8559C234.891 83.119 235.486 83.0856 236.097 83.3486C236.658 82.7225 237.219 82.0963 237.483 81.4869L244.32 81.1032C244.964 81.9591 246.203 82.7815 246.881 84.2301C246.617 84.8396 246.073 85.7621 245.528 86.6846C245.842 86.9643 246.156 87.2441 246.47 87.5238C248.781 86.2048 251.092 84.8858 252.743 82.4146C254.246 82.6276 255.979 81.6383 257.846 83.0202C256.707 83.9761 255.568 84.932 254.148 86.2009C255.371 86.727 255.982 86.99 257.204 87.5161C257.715 86.0008 258.243 84.7819 259.315 82.6404C260.341 84.9615 260.688 85.834 261.679 87.5623C261.86 85.4709 262.074 83.9722 262.288 82.4736C262.882 82.4402 263.46 82.1105 264.055 82.0771C264.385 82.6532 264.699 82.9329 265.31 83.196C265.608 83.1793 265.888 82.8662 266.186 82.8495C268.216 81.8436 269.586 79.6855 272.294 80.1281C272.822 78.9092 273.647 77.6736 273.895 76.7678L278.056 76.5343L278.206 79.2018C277.364 80.141 276.523 81.0802 275.978 82.0027C275.153 83.2383 274.261 83.2884 273.089 83.6515C273.783 85.3965 274.461 86.8451 275.453 88.5734C276.278 87.3378 277.086 85.8058 277.631 84.8832L280.603 84.7164C281.445 83.7772 281.99 82.8547 282.815 81.6191C285.787 81.4523 288.032 78.9477 290.641 77.612C291.268 78.1715 290.46 79.7035 290.824 80.8723C290.229 80.9057 289.618 80.6427 289.04 80.9724C288.76 81.2855 288.496 81.895 288.529 82.4877C287.654 82.8342 286.746 82.5878 287.721 84.0197C288.001 83.7067 288.265 83.0972 288.529 82.4877C288.826 82.4711 289.735 82.7174 290.313 82.3877C290.313 82.3877 290.56 81.4818 290.824 80.8723ZM37.4802 151.878C38.6526 151.514 39.5443 151.464 38.5692 150.033C38.2887 150.346 38.0247 150.955 38.3387 151.235C37.1663 151.598 36.2746 151.648 37.2496 153.08C37.5302 152.767 37.7941 152.157 37.4802 151.878ZM46.5423 143.341C47.7147 142.978 48.6064 142.928 47.6314 141.496C47.3674 142.106 47.0868 142.419 47.4174 142.995C46.2451 143.358 45.3533 143.408 46.3284 144.84C46.5923 144.23 46.8562 143.621 46.5423 143.341ZM213.106 77.5029C214.278 77.1398 215.17 77.0897 214.195 75.6578C213.914 75.9709 213.65 76.5804 213.964 76.8601C212.792 77.2232 211.9 77.2732 212.875 78.7052C213.139 78.0957 213.42 77.7826 213.106 77.5029ZM54.7793 136.041C55.6544 135.694 56.9101 136.813 57.4046 135.001C55.5878 134.509 55.5878 134.509 55.0766 136.024C53.9042 136.387 53.0125 136.437 53.9876 137.869C54.5487 137.243 54.8127 136.633 54.7793 136.041ZM447.926 117.25C447.051 117.597 445.795 116.478 445.301 118.29C447.134 119.079 447.134 119.079 447.926 117.25C448.801 116.904 450.057 118.023 450.551 116.211C448.735 115.718 448.735 115.718 447.926 117.25ZM304.597 81.8834C305.192 81.8501 305.803 82.1131 306.381 81.7834C306.661 81.4703 306.925 80.8608 306.892 80.268C308.064 79.9049 308.956 79.8549 307.981 78.423C307.7 78.736 307.437 79.3455 307.173 79.955C306.578 79.9883 305.967 79.7253 305.389 80.055C305.109 80.3681 304.845 80.9776 304.878 81.5704C303.706 81.9335 302.814 81.9835 303.789 83.4154C304.053 82.806 304.333 82.4929 304.597 81.8834ZM227.724 82.9265C228.896 82.5634 229.721 81.3278 230.249 80.1089C229.307 79.2697 228.416 79.3198 227.59 80.5554C227.64 81.4445 227.674 82.0373 228.004 82.6134C226.832 82.9765 225.94 83.0266 226.915 84.4585C227.179 83.849 227.46 83.5359 227.724 82.9265ZM258.562 95.765C260.66 95.9446 262.096 94.9721 262.26 92.5843C263.432 92.2211 264.324 92.1711 263.349 90.7392C263.068 91.0523 262.804 91.6617 262.541 92.2712C260.443 92.0915 259.007 93.0641 258.562 95.765C257.687 96.1114 256.432 94.9926 255.937 96.8043C257.754 97.297 257.754 97.297 258.562 95.765ZM348.01 74.3929C347.415 74.4262 346.523 74.4763 345.929 74.5096C345.384 75.4322 344.229 76.0917 344.312 77.5736C344.907 77.5403 345.501 77.5069 346.112 77.7699C346.64 76.551 348.11 76.1712 347.432 74.7226C348.604 74.3595 349.496 74.3095 348.521 72.8776C348.554 73.4703 348.274 73.7834 348.01 74.3929ZM37.7548 172.675C35.988 173.071 34.1712 172.579 32.421 173.272C32.521 175.05 31.7125 176.582 33.2654 177.684C34.3378 175.543 37.6409 175.952 37.177 173.005C38.3493 172.642 39.2411 172.592 38.266 171.16C38.0021 171.769 37.7215 172.082 37.7548 172.675ZM50.1673 160.085C51.373 160.315 51.9841 160.578 52.5786 160.545C53.9816 158.979 54.7567 156.855 56.8374 156.738C57.4319 156.705 57.3986 156.112 56.7708 155.552L54.9873 155.652C53.0065 157.548 51.8675 158.503 50.1673 160.085ZM223.062 74.2683L222.962 72.4899C222.682 72.803 222.699 73.0994 222.401 73.1161C221.74 71.9639 221.393 71.0914 221.029 69.9225C220.204 71.1581 219.643 71.7842 219.362 72.0973C220.023 73.2495 220.668 74.1053 221.329 75.2575C221.907 74.9278 222.485 74.598 223.062 74.2683ZM61.4301 127.045C61.844 129.103 60.755 130.948 62.3412 132.643C62.9357 132.61 63.5135 132.28 64.108 132.247L63.9747 129.875C63.3302 129.02 62.7024 128.46 61.4301 127.045ZM285.079 84.7626C283.907 85.1257 283.379 86.3447 282.834 87.2672C283.793 88.4027 284.684 88.3527 285.509 87.1171C285.459 86.2279 285.409 85.3387 285.079 84.7626ZM24.2173 181.165C24.6145 182.927 24.6479 183.52 25.0284 184.985C25.8535 183.749 26.6953 182.81 27.5204 181.574C26.3314 181.641 25.7369 181.674 24.2173 181.165ZM93.9502 100.839C94.9086 101.975 95.8004 101.925 96.6255 100.689C95.6671 99.5537 94.7753 99.6038 93.9502 100.839ZM254.915 99.8349C253.659 98.7161 252.751 98.4697 252.256 100.281C252.901 101.137 253.792 101.087 254.915 99.8349ZM45.2807 163.333C46.2391 164.468 47.1308 164.418 47.9559 163.183C46.9975 162.047 46.1058 162.097 45.2807 163.333ZM123.828 75.3767C124.109 75.0637 124.109 75.0637 124.39 74.7506C124.076 74.4709 123.778 74.4876 123.465 74.2079C123.465 74.2079 123.184 74.5209 122.903 74.834C123.217 75.1137 123.531 75.3934 123.828 75.3767ZM265.627 88.8274C265.346 89.1405 265.049 89.1572 265.363 89.4369C265.38 89.7333 265.694 90.013 265.727 90.6058C266.008 90.2927 266.305 90.276 265.991 89.9963C266.255 89.3868 265.941 89.1071 265.627 88.8274ZM84.3436 110.298C84.063 110.611 83.7658 110.628 84.0797 110.908C84.0964 111.204 84.4103 111.484 84.4436 112.077C84.7242 111.763 85.0214 111.747 84.7075 111.467C84.6742 110.874 84.3603 110.595 84.3436 110.298ZM435.225 114.098C434.911 113.818 434.895 113.522 434.597 113.538C434.3 113.555 434.019 113.868 433.739 114.181C434.053 114.461 434.069 114.757 434.367 114.741C434.647 114.428 434.928 114.114 435.225 114.098ZM43.1086 145.913C43.4225 146.192 43.4225 146.192 43.7365 146.472C43.7198 146.176 44.0004 145.863 43.9671 145.27C43.9671 145.27 43.6531 144.99 43.6365 144.694C43.3725 145.303 43.3892 145.599 43.1086 145.913ZM49.0703 145.875C49.3509 145.562 49.6481 145.546 49.9287 145.233C49.6148 144.953 49.5981 144.656 49.3009 144.673C49.0036 144.69 48.723 145.003 48.4424 145.316C48.7564 145.596 48.773 145.892 49.0703 145.875Z" fill="#FEE3B3"/>
<path d="M144.606 47.1542C143.697 46.9078 142.856 47.847 142.195 46.6948C142.111 45.2129 143.598 45.1295 143.828 43.9272L145.909 43.8105L145.992 45.2924C144.803 45.3592 144.539 45.9686 144.606 47.1542Z" fill="#FEE3B3"/>
<path d="M13.8163 187.101C13.0245 188.929 13.0245 188.929 11.191 188.14C11.6855 186.328 12.9412 187.447 13.8163 187.101Z" fill="#FEE3B3"/>
<path d="M145.331 44.1402C145.876 43.2177 146.139 42.6082 146.42 42.2952C147.395 43.7271 146.487 43.4807 145.331 44.1402Z" fill="#FEE3B3"/>
<path d="M140.942 50.9277C140.314 50.3683 140 50.0886 139.372 49.5292C140.511 48.5733 140.578 49.7588 140.942 50.9277Z" fill="#FEE3B3"/>
<path d="M161.255 51.5718C160.974 51.8849 160.991 52.1813 160.727 52.7908C160.413 52.5111 160.116 52.5277 160.396 52.2147C160.379 51.9183 160.66 51.6052 160.627 51.0124C160.643 51.3088 160.941 51.2921 161.255 51.5718Z" fill="#FEE3B3"/>
<path d="M124.945 63.421C124.665 63.7341 124.368 63.7508 124.087 64.0638C124.087 64.0638 123.773 63.7841 123.459 63.5044C123.74 63.1914 124.037 63.1747 124.318 62.8616C124.632 63.1413 124.648 63.4377 124.945 63.421Z" fill="#FEE3B3"/>
<path d="M101.143 85.5695C101.16 85.8659 100.896 86.4753 100.912 86.7717C100.598 86.492 100.301 86.5087 100.582 86.1956C100.565 85.8992 100.846 85.5862 100.812 84.9934C100.829 85.2898 101.143 85.5695 101.143 85.5695Z" fill="#FEE3B3"/>
<path d="M276.289 76.9307C276.834 76.0082 277.114 75.6951 277.378 75.0857C278.37 76.814 277.462 76.5676 276.289 76.9307Z" fill="#FEE3B3"/>
<path d="M97.148 88.7669C97.6925 87.8444 97.9731 87.5313 98.237 86.9218C99.2121 88.3538 98.0231 88.4205 97.148 88.7669Z" fill="#FEE3B3"/>
<path d="M97.7258 88.4372C97.1813 89.3597 96.9007 89.6728 96.6368 90.2822C95.6451 88.5539 96.8507 88.7836 97.7258 88.4372Z" fill="#FEE3B3"/>
<path d="M84.8022 102.542C84.1743 101.983 83.8604 101.703 83.2326 101.143C84.3716 100.188 84.4383 101.373 84.8022 102.542Z" fill="#FEE3B3"/>
<path d="M80.674 103.368C80.9546 103.055 80.9379 102.759 81.2185 102.446C81.5324 102.725 81.8297 102.709 81.5491 103.022C81.5657 103.318 81.2852 103.631 81.3185 104.224C81.0046 103.944 80.9879 103.648 80.674 103.368Z" fill="#FEE3B3"/>
<path d="M67.5504 113.916C67.831 113.603 67.8143 113.307 68.0949 112.994C68.4088 113.274 68.706 113.257 68.4255 113.57C68.4421 113.866 68.1615 114.18 68.1949 114.772C67.8643 114.196 67.8643 114.196 67.5504 113.916Z" fill="#FEE3B3"/>
<path d="M65.9502 117.277C65.6696 117.59 65.6696 117.59 65.389 117.903C65.0751 117.623 65.0584 117.327 65.0251 116.734C65.0251 116.734 65.3057 116.421 65.289 116.125C65.6029 116.404 65.6362 116.997 65.9502 117.277Z" fill="#FEE3B3"/>
<path d="M450.054 112.671C450.599 111.749 450.879 111.435 451.143 110.826C452.118 112.258 450.913 112.028 450.054 112.671Z" fill="#FEE3B3"/>
<path d="M469.806 113.941C470.087 113.628 470.07 113.332 470.35 113.019C470.664 113.298 470.962 113.282 470.681 113.595C470.698 113.891 470.417 114.204 470.45 114.797C470.12 114.221 470.12 114.221 469.806 113.941Z" fill="#FEE3B3"/>
<path d="M470.472 157.611C470.191 157.924 470.191 157.924 469.911 158.237C469.597 157.957 469.58 157.661 469.547 157.068C469.547 157.068 469.827 156.755 469.811 156.459C470.125 156.738 470.455 157.314 470.472 157.611Z" fill="#FEE3B3"/>
<path d="M313.829 170.071C315.267 169.686 315.17 168.175 315.803 167.084C316.512 166.279 317.585 165.684 317.93 164.67C319.462 161.186 322.471 159.765 324.522 157.065C324.809 156.988 325.097 156.911 325.097 156.911C326.284 154.441 327.472 151.972 328.372 149.58C330.96 148.886 330.96 148.886 332.993 149.571C333.414 148.843 333.625 148.48 334.047 147.752C334.852 148.458 335.581 148.878 336.387 149.584C335.888 150.025 335.179 150.829 334.47 151.634C333.263 152.879 334.012 154.523 333.456 155.901C333.189 157.202 331.904 158.16 332.212 159.307C332.596 160.741 331.599 161.623 331.907 162.77C332.271 162.979 332.923 163.112 333.211 163.035C334.706 161.713 336.258 159.453 337.906 158.704C339.842 157.878 340.819 155.772 342.391 154.736C343.177 154.219 343.809 153.127 344.518 152.323C345.227 151.518 345.054 149.721 346.492 149.335C347.508 149.678 348.524 150.02 349.541 150.362C349.962 149.635 350.671 148.83 351.093 148.103C352.551 148.942 352.072 150.606 352.59 151.39C352.61 152.614 351.536 153.208 352.131 154.278C351.346 154.796 350.483 155.027 351.653 155.943C351.864 155.579 351.998 154.929 352.131 154.278C353.569 153.893 355.007 153.508 356.158 153.2C357.288 151.668 358.495 150.422 359.913 148.813L362.214 148.197C362.943 148.616 363.384 149.113 364.036 149.245L368.062 148.167C368.484 147.439 368.618 146.789 369.116 146.348L371.704 145.654C372.797 146.283 373.603 146.99 374.773 147.905C376.365 148.094 377.438 147.499 378.569 145.967C379.987 144.357 381.174 141.888 383.859 142.705C384.952 143.335 384.685 144.636 385.203 145.419C384.417 145.937 383.554 146.168 384.724 147.084C384.935 146.72 385.069 146.069 385.203 145.419C385.778 145.265 386.353 145.111 386.928 144.956C387.35 144.229 387.484 143.578 387.982 143.138C388.711 143.557 388.711 143.557 389.633 146.998C389.001 148.089 388.081 149.258 387.449 150.349C388.178 150.768 388.254 151.055 388.542 150.978C389.98 150.593 390.766 150.075 393.237 146.647C393.602 146.857 393.966 147.066 394.408 147.563C394.772 147.772 394.772 147.772 395.136 147.982C395.481 146.968 395.902 146.24 396.324 145.513C396.093 144.652 396.227 144.002 396.074 143.428C397.07 142.547 397.645 142.393 398.451 143.099C399.257 143.805 400.119 143.574 400.982 143.343C402.133 143.035 402.651 143.818 403.667 144.16C404.396 144.58 405.316 143.411 405.987 144.768C405.854 145.418 405.432 146.146 405.221 146.51C405.586 146.719 405.663 147.006 405.95 146.929C406.813 146.698 407.676 146.467 408.538 146.236C409.171 145.144 409.515 144.13 410.358 142.675C411.087 143.094 411.816 143.514 412.468 143.646C413.407 143.702 414.193 143.184 415.133 143.24C416.149 143.582 416.667 144.365 418.028 143.693C418.373 142.679 418.928 141.301 419.196 140C421.018 141.048 420.827 142.636 421.001 144.434C420.426 144.588 419.927 145.029 419.429 145.469C418.375 147.288 417.686 149.317 416.71 151.423C416.519 153.01 416.251 154.311 416.06 155.899C416.635 155.745 417.364 156.165 417.862 155.724C418.648 155.206 418.628 153.982 419.491 153.751C421.504 153.211 420.736 150.344 422.672 149.518C424.033 148.846 425.086 147.027 426.504 145.418L430.818 144.262C430.493 146.501 430.954 148.221 429.901 150.04C428.77 151.572 427.122 152.321 426.509 154.637C427.161 154.769 427.736 154.615 428.388 154.748C429.04 154.88 429.769 155.3 430.498 155.719C430.709 155.355 431.13 154.628 431.552 153.9C431.993 154.397 432.645 154.529 433.738 155.159C434.447 154.354 435.156 153.549 435.865 152.745C436.23 152.954 436.594 153.164 437.4 153.87L442.864 152.406C444.034 153.322 444.265 154.183 443.92 155.197C443.441 156.862 443.251 158.449 442.849 160.401C444.076 160.38 445.591 160.281 446.741 159.973C446.818 160.26 447.182 160.469 447.182 160.469C446.416 162.211 445.363 164.03 444.597 165.772C444.961 165.982 445.402 166.478 445.69 166.401C447.99 165.785 450.004 165.246 452.304 164.629C453.551 165.832 452.267 166.79 452.056 167.154C450.638 168.763 449.297 170.659 446.919 170.989C446.632 171.066 446.786 171.639 446.575 172.003C446.939 172.213 447.016 172.5 447.304 172.423C449.029 171.96 450.755 171.498 452.768 170.959C452.978 170.595 453.112 169.945 453.323 169.581C454.53 168.335 456.122 168.524 457.77 167.775C458.403 166.683 458.747 165.669 459.303 164.291C460.031 164.71 460.683 164.843 461.7 165.185C462.121 164.458 462.62 164.017 463.329 163.212C464.633 163.478 464.154 165.143 464.749 166.212C465.133 167.646 462.987 168.836 465.691 170.877C464.962 170.458 465.327 170.668 465.327 170.668C469.065 169.666 472.804 168.665 476.542 167.663C477.003 169.384 478.441 168.998 479.113 170.355L484.577 168.891C484.788 168.527 485.209 167.8 485.631 167.072L488.219 166.379C488.948 166.798 489.312 167.008 490.041 167.427C490.462 166.7 490.596 166.049 491.095 165.609C491.67 165.454 491.957 165.377 492.609 165.51C493.051 166.007 493.281 166.867 493.799 167.65C493.013 168.168 492.227 168.686 491.729 169.126C491.174 170.505 492.133 171.784 492.153 173.008C492.517 173.218 493.169 173.351 493.093 173.064C493.283 171.476 494.875 171.664 495.507 170.573C496.139 169.482 496.407 168.181 496.963 166.803C497.634 168.159 498.152 168.942 498.671 169.726C500.128 170.564 500.684 169.186 501.239 167.808L505.553 166.653C506.723 167.568 506.532 169.156 507.127 170.226C506.361 171.968 505.307 173.787 504.33 175.892C504.982 176.025 505.347 176.235 505.999 176.368C507.667 176.843 509.489 177.891 510.984 176.569C511.406 175.841 511.904 175.4 512.249 174.386C512.977 174.805 513.917 174.861 515.298 175.413C516.161 175.182 517.886 174.72 519.113 174.698C519.631 175.481 519.631 175.481 517.888 179.329C517.678 179.693 517.678 179.693 517.467 180.056C517.179 180.133 516.604 180.288 516.317 180.365C516.106 180.728 516.106 180.728 515.895 181.092C516.049 181.666 516.279 182.526 516.433 183.099C518.255 184.148 518.811 182.77 519.078 181.469C520.305 181.447 520.9 182.517 521.994 183.146C521.86 183.797 522.09 184.657 521.956 185.308C521.401 186.686 520.846 188.064 520.214 189.155L517.913 189.771C516.495 191.381 514.712 192.78 513.736 194.886C513.18 196.264 511.762 197.873 510.612 198.181C508.886 198.643 508.408 200.308 507.047 200.98C505.398 201.729 505.649 203.813 504.154 205.136L501.566 205.829C501.509 206.766 501.662 207.34 501.816 207.913C502.986 208.829 504.156 209.745 505.614 210.584C504.828 211.102 503.755 211.697 503.621 212.347C503.008 214.662 501.226 216.062 500.018 217.307C498.524 218.63 497.681 220.085 496.915 221.827L494.039 222.597C493.273 224.339 492.66 226.654 491.894 228.396C488.999 227.943 488.099 230.335 486.604 231.658C485.109 232.98 483.614 234.302 482.484 235.835C481.065 237.444 480.453 239.759 479.399 241.578L475.661 242.58C475.029 243.671 474.473 245.049 473.841 246.14C471.675 246.106 470.698 248.212 469.126 249.247C468.129 250.129 467.651 251.794 467.095 253.172L464.507 253.865C462.457 256.566 461.25 257.811 459.026 258.714C457.454 259.75 457.935 262.695 455.558 263.024C454.792 264.766 453.431 265.438 451.916 265.536C451.514 267.488 449.137 267.818 448.447 269.846C446.645 270.022 446.762 272.756 444.882 272.645C444.193 274.674 442.698 275.996 441.26 276.381C439.612 277.13 438.692 278.299 437.695 279.18C434.418 281.902 431.736 285.694 428.458 288.416C427.462 289.298 426.983 290.963 426.14 292.418L423.552 293.111C422.997 294.489 422.077 295.658 421.522 297.036C420.371 297.344 419.144 297.365 419.01 298.016C418.033 300.121 415.081 300.605 415.274 303.627C413.107 303.592 412.054 305.411 410.482 306.447C409.198 307.406 408.796 309.357 407.876 310.526C406.726 310.834 405.576 311.142 404.426 311.45C401.646 313.731 399.904 317.579 396.165 318.58C395.877 318.657 395.744 319.308 395.533 319.672C394.613 320.84 393.098 320.938 392.907 322.526C390.089 322.359 389.285 326.262 386.754 326.019C386.122 327.11 385.777 328.124 385.222 329.502L382.346 330.273C382.079 331.574 381.6 333.239 381.466 333.889L377.44 334.968C375.447 336.731 374.393 338.55 372.745 339.299C370.809 340.125 369.755 341.944 368.26 343.266C366.765 344.589 365.27 345.911 363.852 347.52C364.37 348.303 365.253 349.296 365.694 349.793C365.867 351.59 364.564 351.325 364.065 351.766C363.567 352.207 363.433 352.857 363.012 353.585C361.841 352.669 360.748 352.04 359.655 351.411L351.603 353.568C350.72 352.575 349.55 351.659 348.744 350.953L342.993 352.494C342.571 353.221 342.438 353.872 342.016 354.599L335.402 356.371C335.191 356.735 335.057 357.385 334.636 358.113L326.871 360.193C325.049 359.145 323.591 358.306 322.134 357.467C322.555 356.739 322.766 356.376 322.9 355.725C322.592 354.578 322.573 353.354 322.342 352.494C322.245 350.983 324.643 351.878 324.028 349.584L319.714 350.739C316.665 349.712 314.709 349.314 312.024 348.497C311.352 347.14 310.316 345.574 308.648 345.099L304.622 346.177C304.488 346.828 303.989 347.269 303.568 347.996L290.339 351.54C290.129 351.904 289.995 352.554 289.784 352.918C289.573 353.282 289.65 353.569 289.363 353.646C285.337 354.724 281.31 355.803 278.147 356.65C275.023 359.946 272.609 362.437 269.485 365.732L266.034 366.657C264.135 365.321 261.758 365.651 259.628 363.455L255.602 364.534C254.682 365.702 253.475 366.948 251.769 368.634L244.867 370.483C244.446 371.211 244.312 371.861 243.891 372.589L234.401 375.131C233.672 374.712 233.154 373.928 231.984 373.013L231.138 369.858C230.045 369.229 228.664 368.677 227.571 368.048C227.915 367.034 228.337 366.306 228.471 365.656C225.863 365.125 223.466 364.231 220.858 363.7C220.206 363.567 219.42 364.085 218.844 364.239C217.31 363.114 215.852 362.275 214.605 361.072L213.76 357.918C213.031 357.499 212.59 357.002 211.861 356.583C212.493 355.492 212.838 354.477 213.681 353.022C212.491 350.882 213.678 348.413 213.274 345.755C211.626 346.504 211.512 348.379 210.803 349.183C210.094 349.988 208.943 350.296 208.675 351.597C207.084 351.409 207.123 353.857 205.686 354.242C204.248 354.627 204.344 356.138 203.635 356.943C202.926 357.747 202.217 358.552 201.508 359.357C198.385 362.652 195.107 365.374 192.348 368.879C191.428 370.047 189.683 369.286 188.84 370.741C188.495 371.755 187.057 372.14 186.713 373.155C185.947 374.896 184.201 374.135 183.282 375.303C183.071 375.667 182.86 376.031 182.439 376.758L170.936 379.84C170.17 381.582 168.885 382.54 167.083 382.716C166.662 383.443 166.451 383.807 166.03 384.535L156.827 387C155.657 386.084 154.122 384.959 152.588 383.833C152.511 383.546 152.357 382.973 152.204 382.399C149.077 381.086 145.473 381.437 142.518 377.311C142.518 377.311 142.287 376.451 141.826 374.73C142.535 373.926 143.455 372.757 144.087 371.666C142.994 371.037 142.553 370.54 141.824 370.121L140.979 366.967C141.4 366.239 141.534 365.589 141.955 364.861C141.802 364.288 141.648 363.714 141.494 363.141C140.842 363.008 140.267 363.162 138.675 362.974C137.87 362.268 135.894 360.646 134.283 359.234C132.788 360.556 131.503 361.515 130.584 362.683C129.664 363.852 129.473 365.439 127.901 366.475C127.249 366.342 126.52 365.923 125.715 365.217C125.504 365.581 125.083 366.308 124.661 367.036L122.073 367.729C121.651 368.457 121.23 369.184 121.019 369.548L114.405 371.32C111.797 370.789 111.527 367.481 109.494 366.796C108.726 363.929 106.271 363.972 104.583 362.273L100.557 363.351C99.3868 362.435 98.2935 361.806 97.5448 360.163C96.9499 359.093 95.4922 358.254 95.0311 356.534L90.7175 357.689C90.5067 358.053 90.0853 358.781 89.6638 359.508C87.9383 359.971 86.0022 360.797 83.9123 361.049C83.2405 359.692 83.1438 358.182 82.2613 357.189C81.225 355.622 79.6136 354.21 78.2898 352.721L74.2638 353.799C72.7292 352.674 71.4822 351.471 69.5833 350.136C70.0047 349.409 70.1386 348.758 70.2725 348.107L69.1966 344.093C69.809 341.778 70.4214 339.462 70.0173 336.805C69.8636 336.231 69.6331 335.371 69.115 334.588C67.7539 335.26 67.563 336.848 66.9308 337.939C65.9913 337.883 65.9913 337.883 65.1459 334.729C65.2798 334.079 65.6244 333.064 65.969 332.05C65.6617 330.903 65.4311 330.043 63.9932 330.428C64.2039 330.064 64.261 329.127 64.261 329.127C65.6989 328.742 66.2542 327.364 66.8096 325.986C66.2716 323.979 66.5964 321.74 66.9212 319.502C66.4799 319.005 65.7511 318.586 65.3098 318.09C65.1363 316.292 67.0725 315.466 66.5346 313.459C66.0735 311.738 67.6452 310.703 67.913 309.402C68.0271 307.527 68.218 305.939 69.0609 304.484C69.9236 304.253 70.7864 304.022 71.6491 303.791C71.9367 303.714 72.0135 304.001 72.3779 304.21C72.2441 304.861 72.1102 305.511 71.6887 306.239C72.13 306.735 72.8588 307.155 73.3001 307.651C72.5911 308.456 71.8052 308.974 71.0962 309.778C71.3267 310.639 71.5572 311.499 71.9985 311.995C71.2126 312.513 70.2731 312.457 71.52 313.66C71.7308 313.296 71.8646 312.646 71.9985 311.995C73.4934 310.673 74.9115 309.064 76.3296 307.454C77.346 307.797 77.998 307.929 78.7268 308.349C79.2426 304.523 79.2426 304.523 82.0787 301.304C81.1391 301.249 80.1995 301.193 79.5475 301.06C79.8723 298.822 80.0062 298.172 78.6056 296.395C77.1875 298.005 75.6926 299.327 74.2745 300.936C73.1044 300.021 73.5829 298.356 72.7003 297.363C73.3325 296.271 73.8879 294.893 74.6737 294.376C75.172 293.935 75.8811 293.13 75.9381 292.193C76.6447 286.779 79.2503 282.7 82.2204 278.831C82.7187 278.391 82.7757 277.453 83.1972 276.726L85.7853 276.032C86.7621 273.927 87.9497 271.457 88.9265 269.352C88.4852 268.855 87.7563 268.436 87.3919 268.226C87.7365 267.212 88.158 266.484 88.7902 265.393C89.3083 266.176 89.8264 266.959 90.3445 267.743C90.7858 268.239 91.0734 268.162 91.2073 267.511C92.4716 265.329 94.983 264.349 95.8829 261.956C97.0704 259.487 99.5049 258.22 100.04 255.618C101.766 255.156 102.532 253.414 104.027 252.091C105.522 250.769 105.77 248.244 107.552 246.844C108.836 245.886 109.449 243.57 110.215 241.829C110.426 241.465 110.349 241.178 110.636 241.101C113.378 240.981 112.513 236.603 115.178 236.196C115.446 234.895 116.807 234.223 116.135 232.867L119.298 232.019C119.72 231.292 119.854 230.641 120.275 229.914L122.863 229.22C123.208 228.206 123.63 227.478 124.262 226.387C124.108 225.814 123.954 225.24 123.801 224.667C124.299 224.226 125.085 223.708 125.085 223.708C127.423 220.93 127.574 216.895 130.584 215.474C131.541 212.144 134.627 211.01 135.296 207.757C137.808 206.777 138.113 203.315 139.742 201.342L142.042 200.726C143.805 198.102 144.187 194.926 146.467 193.086C148.461 191.323 148.919 188.434 150.471 186.174C150.682 185.811 150.605 185.524 150.893 185.447C152.465 184.411 153.883 182.802 155.013 181.27C156.431 179.661 156.238 176.639 158.615 176.309C159.017 174.358 160.876 173.245 160.549 170.874C162.639 170.622 163.846 169.376 163.73 166.641C164.593 166.41 165.014 165.683 164.784 164.823C165.359 164.669 166.221 164.437 166.797 164.283C169.117 164.891 170.039 168.332 172.436 169.226C172.36 168.94 172.781 168.212 172.992 167.848C173.202 167.484 173.778 167.33 174.64 167.099C175.81 168.015 177.057 169.218 178.669 170.63C178.669 170.63 178.535 171.28 178.113 172.008C178.113 172.008 178.267 172.581 178.555 172.504C180.645 172.252 182.37 171.79 184.172 171.614C184.594 170.887 184.805 170.523 184.938 169.872L188.102 169.025C188.332 169.885 188.774 170.382 188.927 170.955C188.545 174.131 185.228 174.405 184.923 177.867C185.365 178.363 185.806 178.86 186.247 179.356C188.605 177.803 190.521 175.753 191.632 172.996C192.321 170.968 196.308 167.441 198.665 165.888C199.183 166.671 199.702 167.454 200.296 168.524C201.658 167.852 201.561 166.341 202.481 165.173C204.015 166.298 204.015 166.298 203.192 168.978L204.883 175.286C205.401 176.069 205.688 175.992 206.11 175.264C207.297 172.795 208.197 170.403 210.191 168.639C210.976 168.121 210.957 166.897 211.589 165.806C212.739 165.498 213.525 164.98 214.829 165.245C214.658 168.057 214.487 170.869 212.781 172.555L213.242 174.276C214.048 174.982 214.048 174.982 219.723 173.154C219.933 172.79 220.067 172.14 220.278 171.776L224.592 170.621C226.932 172.452 223.501 174.601 225.477 176.223C225.841 176.432 226.493 176.565 226.781 176.488C227.356 176.334 228.218 176.103 228.794 175.949C229.522 176.368 229.964 176.865 230.616 176.997C230.826 176.633 230.96 175.983 231.382 175.255L238.284 173.406C238.648 173.616 239.089 174.113 239.741 174.245C239.952 173.881 240.373 173.154 240.795 172.426L246.546 170.886C247.793 172.088 249.692 173.423 250.939 174.626L254.103 173.778C254.524 173.051 254.735 172.687 255.156 171.96C255.885 172.379 256.614 172.798 257.42 173.505C258.225 174.211 258.035 175.798 258.629 176.868C258.937 178.015 259.167 178.876 259.398 179.736C258.977 180.463 258.843 181.114 258.421 181.841C258.575 182.415 258.729 182.988 258.882 183.562C259.534 183.694 260.109 183.54 260.761 183.673C261.183 182.945 261.604 182.218 261.738 181.567L268.352 179.795C269.158 180.502 270.539 181.054 271.498 182.333C271.365 182.984 271.02 183.998 270.675 185.012C271.04 185.222 271.404 185.432 271.769 185.642C273.762 183.878 275.755 182.115 276.866 179.359C278.38 179.26 279.875 177.938 281.985 178.909C281.065 180.078 280.145 181.246 279.015 182.778C280.319 183.044 280.971 183.176 282.275 183.442C282.466 181.854 282.734 180.553 283.346 178.237C284.824 180.3 285.342 181.083 286.666 182.573C286.415 180.488 286.318 178.978 286.222 177.467C286.797 177.313 287.295 176.872 287.87 176.718C288.312 177.214 288.676 177.424 289.328 177.557C289.616 177.48 289.826 177.116 290.114 177.039C291.897 175.639 292.796 173.247 295.538 173.127C295.806 171.826 296.361 170.448 296.418 169.511L300.445 168.432L301.136 171.013C300.504 172.104 299.872 173.196 299.527 174.21C298.972 175.588 298.109 175.819 297.036 176.414C298.072 177.98 299.031 179.26 300.355 180.749C300.91 179.371 301.389 177.706 301.734 176.692L304.609 175.922C305.242 174.83 305.586 173.816 306.141 172.438C309.017 171.668 310.703 168.757 312.984 166.917C313.713 167.336 313.234 169.001 313.829 170.071C313.254 170.225 312.602 170.093 312.104 170.533C311.893 170.897 311.759 171.548 311.913 172.121C311.127 172.639 310.187 172.583 311.434 173.786C311.645 173.422 311.779 172.772 311.913 172.121C312.2 172.044 313.14 172.1 313.638 171.659C313.638 171.659 313.695 170.722 313.829 170.071ZM80.3286 291.324C81.4021 290.729 82.2648 290.498 81.0178 289.295C80.8071 289.659 80.6732 290.31 81.0376 290.519C79.9642 291.114 79.1014 291.345 80.3484 292.548C80.5591 292.184 80.693 291.534 80.3286 291.324ZM87.4562 281.117C88.5296 280.522 89.3924 280.291 88.1454 279.088C88.0115 279.739 87.8008 280.102 88.2421 280.599C87.1686 281.194 86.3059 281.425 87.5528 282.627C87.6867 281.977 87.8206 281.326 87.4562 281.117ZM237.061 182.646C238.135 182.051 238.997 181.82 237.75 180.618C237.54 180.982 237.406 181.632 237.77 181.842C236.697 182.437 235.834 182.668 237.081 183.87C237.215 183.22 237.426 182.856 237.061 182.646ZM94.0284 272.288C94.8143 271.77 96.272 272.609 96.386 270.734C94.5069 270.623 94.5069 270.623 94.316 272.211C93.2425 272.805 92.3798 273.037 93.6267 274.239C94.0482 273.512 94.1821 272.861 94.0284 272.288ZM475.05 173.595C474.264 174.113 472.806 173.274 472.692 175.148C474.648 175.546 474.648 175.546 475.05 173.595C475.836 173.077 477.293 173.916 477.407 172.041C475.528 171.93 475.528 171.93 475.05 173.595ZM327.519 168.248C328.094 168.094 328.746 168.226 329.244 167.786C329.455 167.422 329.589 166.771 329.435 166.198C330.509 165.603 331.371 165.372 330.124 164.169C329.914 164.533 329.78 165.183 329.646 165.834C329.071 165.988 328.419 165.855 327.92 166.296C327.71 166.66 327.576 167.311 327.729 167.884C326.656 168.479 325.793 168.71 327.04 169.913C327.174 169.262 327.385 168.898 327.519 168.248ZM252.479 184.97C253.552 184.375 254.108 182.997 254.375 181.696C253.282 181.067 252.419 181.298 251.864 182.676C252.094 183.536 252.248 184.11 252.689 184.606C251.616 185.201 250.753 185.432 252 186.635C252.134 185.984 252.345 185.62 252.479 184.97ZM285.289 191.239C287.379 190.987 288.587 189.741 288.259 187.37C289.333 186.775 290.196 186.544 288.949 185.342C288.738 185.705 288.604 186.356 288.47 187.006C286.38 187.259 285.173 188.504 285.289 191.239C284.504 191.757 283.046 190.918 282.932 192.793C284.811 192.904 284.811 192.904 285.289 191.239ZM368.486 152.048C367.911 152.202 367.048 152.434 366.473 152.588C366.128 153.602 365.132 154.484 365.516 155.917C366.091 155.763 366.666 155.609 367.318 155.742C367.586 154.441 368.947 153.769 367.988 152.489C369.061 151.894 369.924 151.663 368.677 150.461C368.831 151.034 368.62 151.398 368.486 152.048ZM84.8452 311.627C83.1966 312.376 81.3174 312.265 79.7457 313.3C80.2068 315.021 79.7283 316.686 81.4735 317.447C82.0859 315.132 85.4029 314.858 84.3469 312.068C85.4204 311.473 86.2831 311.242 85.0361 310.039C84.9022 310.69 84.6915 311.053 84.8452 311.627ZM94.4247 296.768C95.6518 296.746 96.3038 296.879 96.879 296.725C97.9326 294.906 98.2574 292.668 100.27 292.128C100.846 291.974 100.692 291.401 99.9631 290.981L98.2376 291.444C96.6856 293.703 95.7659 294.872 94.4247 296.768ZM246.147 177.446L245.686 175.726C245.475 176.09 245.552 176.376 245.265 176.453C244.382 175.461 243.864 174.677 243.269 173.607C242.714 174.986 242.292 175.713 242.082 176.077C242.964 177.07 243.77 177.776 244.652 178.769C245.151 178.328 245.649 177.887 246.147 177.446ZM98.7016 262.123C99.5272 264.053 98.8379 266.082 100.737 267.417C101.312 267.263 101.81 266.822 102.386 266.668L101.771 264.374C100.965 263.668 100.236 263.249 98.7016 262.123ZM309 175.053C307.926 175.648 307.659 176.949 307.314 177.963C308.484 178.879 309.347 178.648 309.902 177.27C309.672 176.41 309.441 175.549 309 175.053ZM73.3272 322.703C74.0758 324.346 74.2295 324.92 74.9013 326.277C75.4566 324.898 76.0888 323.807 76.6442 322.429C75.4939 322.737 74.9187 322.891 73.3272 322.703ZM125.184 229.828C126.354 230.744 127.217 230.513 127.772 229.135C126.602 228.219 125.739 228.45 125.184 229.828ZM282.55 195.968C281.092 195.129 280.153 195.074 280.039 196.948C280.844 197.655 281.707 197.423 282.55 195.968ZM90.3043 300.945C91.4745 301.86 92.3372 301.629 92.8925 300.251C91.7224 299.335 90.8597 299.567 90.3043 300.945ZM149.232 198.8C149.442 198.436 149.442 198.436 149.653 198.072C149.289 197.862 149.001 197.939 148.637 197.73C148.637 197.73 148.426 198.093 148.215 198.457C148.58 198.667 148.944 198.877 149.232 198.8ZM290.788 183.005C290.577 183.369 290.29 183.446 290.654 183.655C290.731 183.942 291.096 184.152 291.249 184.725C291.46 184.362 291.748 184.284 291.383 184.075C291.517 183.424 291.153 183.215 290.788 183.005ZM117.712 241.049C117.501 241.413 117.213 241.49 117.578 241.7C117.655 241.987 118.019 242.196 118.173 242.77C118.384 242.406 118.671 242.329 118.307 242.119C118.153 241.546 117.789 241.336 117.712 241.049ZM461.973 173.103C461.608 172.893 461.531 172.606 461.244 172.683C460.956 172.761 460.745 173.124 460.535 173.488C460.899 173.698 460.976 173.985 461.263 173.907C461.474 173.544 461.685 173.18 461.973 173.103ZM84.62 284.335C84.9845 284.545 84.9845 284.545 85.3489 284.755C85.272 284.468 85.4828 284.104 85.3291 283.531C85.3291 283.531 84.9646 283.321 84.8878 283.034C84.7539 283.685 84.8308 283.971 84.62 284.335ZM90.4484 283.081C90.6591 282.717 90.9467 282.64 91.1574 282.276C90.793 282.067 90.7162 281.78 90.4286 281.857C90.141 281.934 89.9303 282.298 89.7196 282.662C90.084 282.871 90.1608 283.158 90.4484 283.081Z" fill="#FEE3B3"/>
<path d="M163.807 166.928C162.867 166.873 162.235 167.964 161.352 166.971C160.968 165.537 162.406 165.152 162.386 163.928L164.399 163.389L164.784 164.823C163.633 165.131 163.499 165.781 163.807 166.928Z" fill="#FEE3B3"/>
<path d="M64.3577 330.638C63.956 332.589 63.956 332.589 62 332.191C62.1141 330.317 63.5718 331.156 64.3577 330.638Z" fill="#FEE3B3"/>
<path d="M163.901 163.83C164.246 162.815 164.379 162.165 164.59 161.801C165.837 163.004 164.898 162.948 163.901 163.83Z" fill="#FEE3B3"/>
<path d="M160.99 171.371C160.262 170.951 159.897 170.742 159.168 170.322C160.088 169.154 160.395 170.301 160.99 171.371Z" fill="#FEE3B3"/>
<path d="M181.007 167.852C180.796 168.216 180.873 168.503 180.739 169.153C180.374 168.944 180.087 169.021 180.298 168.657C180.221 168.37 180.431 168.006 180.278 167.433C180.355 167.72 180.642 167.643 181.007 167.852Z" fill="#FEE3B3"/>
<path d="M147.883 186.868C147.672 187.231 147.385 187.309 147.174 187.672C147.174 187.672 146.81 187.463 146.445 187.253C146.656 186.889 146.944 186.812 147.154 186.448C147.519 186.658 147.596 186.945 147.883 186.868Z" fill="#FEE3B3"/>
<path d="M129.106 213.411C129.183 213.698 129.049 214.348 129.126 214.635C128.761 214.425 128.474 214.502 128.685 214.138C128.608 213.852 128.818 213.488 128.665 212.914C128.742 213.201 129.106 213.411 129.106 213.411Z" fill="#FEE3B3"/>
<path d="M298.796 169.181C299.141 168.167 299.351 167.803 299.485 167.153C300.809 168.642 299.869 168.586 298.796 169.181Z" fill="#FEE3B3"/>
<path d="M125.848 217.357C126.193 216.343 126.404 215.979 126.538 215.328C127.785 216.531 126.634 216.839 125.848 217.357Z" fill="#FEE3B3"/>
<path d="M126.347 216.916C126.002 217.93 125.791 218.294 125.658 218.945C124.334 217.455 125.561 217.434 126.347 216.916Z" fill="#FEE3B3"/>
<path d="M116.576 233.363C115.848 232.944 115.483 232.734 114.754 232.315C115.674 231.146 115.981 232.293 116.576 233.363Z" fill="#FEE3B3"/>
<path d="M112.704 235.015C112.915 234.651 112.838 234.365 113.049 234.001C113.413 234.211 113.701 234.134 113.49 234.497C113.567 234.784 113.356 235.148 113.51 235.721C113.145 235.512 113.068 235.225 112.704 235.015Z" fill="#FEE3B3"/>
<path d="M102.011 248.021C102.222 247.658 102.145 247.371 102.356 247.007C102.721 247.217 103.008 247.14 102.797 247.504C102.874 247.79 102.663 248.154 102.817 248.728C102.376 248.231 102.376 248.231 102.011 248.021Z" fill="#FEE3B3"/>
<path d="M101.131 251.638C100.921 252.002 100.921 252.002 100.71 252.365C100.345 252.156 100.269 251.869 100.115 251.295C100.115 251.295 100.326 250.932 100.249 250.645C100.613 250.855 100.767 251.428 101.131 251.638Z" fill="#FEE3B3"/>
<path d="M476.198 168.677C476.542 167.663 476.753 167.299 476.887 166.649C478.134 167.851 476.907 167.873 476.198 168.677Z" fill="#FEE3B3"/>
<path d="M495.792 165.887C496.003 165.523 495.926 165.236 496.137 164.872C496.501 165.082 496.789 165.005 496.578 165.369C496.655 165.656 496.444 166.019 496.598 166.593C496.157 166.096 496.157 166.096 495.792 165.887Z" fill="#FEE3B3"/>
<path d="M505.364 208.5C505.153 208.863 505.153 208.863 504.942 209.227C504.578 209.018 504.501 208.731 504.347 208.157C504.347 208.157 504.558 207.794 504.481 207.507C504.845 207.716 505.287 208.213 505.364 208.5Z" fill="#FEE3B3"/>
<path d="M606.829 135.071C608.267 134.686 608.17 133.175 608.803 132.084C609.512 131.279 610.585 130.684 610.93 129.67C612.462 126.186 615.471 124.765 617.522 122.065C617.809 121.988 618.097 121.911 618.097 121.911C619.284 119.441 620.472 116.972 621.372 114.58C623.96 113.886 623.96 113.886 625.993 114.571C626.414 113.843 626.625 113.48 627.047 112.752C627.852 113.458 628.581 113.878 629.387 114.584C628.888 115.025 628.179 115.829 627.47 116.634C626.263 117.879 627.012 119.523 626.456 120.901C626.189 122.202 624.904 123.16 625.212 124.307C625.596 125.741 624.599 126.623 624.907 127.77C625.271 127.979 625.923 128.112 626.211 128.035C627.706 126.713 629.258 124.453 630.906 123.704C632.842 122.878 633.819 120.772 635.391 119.736C636.177 119.219 636.809 118.127 637.518 117.323C638.227 116.518 638.054 114.721 639.492 114.335C640.508 114.678 641.524 115.02 642.541 115.362C642.962 114.635 643.671 113.83 644.093 113.103C645.551 113.942 645.072 115.606 645.59 116.39C645.61 117.614 644.536 118.208 645.131 119.278C644.346 119.796 643.483 120.027 644.653 120.943C644.864 120.579 644.998 119.929 645.131 119.278C646.569 118.893 648.007 118.508 649.158 118.2C650.288 116.668 651.495 115.422 652.913 113.813L655.214 113.197C655.943 113.616 656.384 114.113 657.036 114.245L661.062 113.167C661.484 112.439 661.618 111.789 662.116 111.348L664.704 110.654C665.797 111.283 666.603 111.99 667.773 112.905C669.365 113.094 670.438 112.499 671.569 110.967C672.987 109.357 674.174 106.888 676.859 107.705C677.952 108.335 677.685 109.636 678.203 110.419C677.417 110.937 676.554 111.168 677.724 112.084C677.935 111.72 678.069 111.069 678.203 110.419C678.778 110.265 679.353 110.111 679.928 109.956C680.35 109.229 680.484 108.578 680.982 108.138C681.711 108.557 681.711 108.557 682.633 111.998C682.001 113.089 681.081 114.258 680.449 115.349C681.178 115.768 681.254 116.055 681.542 115.978C682.98 115.593 683.766 115.075 686.237 111.647C686.602 111.857 686.966 112.066 687.408 112.563C687.772 112.772 687.772 112.772 688.136 112.982C688.481 111.968 688.902 111.24 689.324 110.513C689.093 109.652 689.227 109.002 689.074 108.428C690.07 107.547 690.645 107.393 691.451 108.099C692.257 108.805 693.119 108.574 693.982 108.343C695.133 108.035 695.651 108.818 696.667 109.16C697.396 109.58 698.316 108.411 698.987 109.768C698.854 110.418 698.432 111.146 698.221 111.51C698.586 111.719 698.663 112.006 698.95 111.929C699.813 111.698 700.676 111.467 701.538 111.236C702.171 110.144 702.515 109.13 703.358 107.675C704.087 108.094 704.816 108.514 705.468 108.646C706.407 108.702 707.193 108.184 708.133 108.24C709.149 108.582 709.667 109.365 711.028 108.693C711.373 107.679 711.928 106.301 712.196 105C714.018 106.048 713.827 107.636 714.001 109.434C713.426 109.588 712.927 110.029 712.429 110.469C711.375 112.288 710.686 114.317 709.71 116.423C709.519 118.01 709.251 119.311 709.06 120.899C709.635 120.745 710.364 121.165 710.862 120.724C711.648 120.206 711.628 118.982 712.491 118.751C714.504 118.211 713.736 115.344 715.672 114.518C717.033 113.846 718.086 112.027 719.504 110.418L723.818 109.262C723.493 111.501 723.954 113.221 722.901 115.04C721.77 116.572 720.122 117.321 719.509 119.637C720.161 119.769 720.736 119.615 721.388 119.748C722.04 119.88 722.769 120.3 723.498 120.719C723.709 120.355 724.13 119.628 724.552 118.9C724.993 119.397 725.645 119.529 726.738 120.159C727.447 119.354 728.156 118.549 728.865 117.745C729.23 117.954 729.594 118.164 730.4 118.87L735.864 117.406C737.034 118.322 737.265 119.183 736.92 120.197C736.441 121.862 736.251 123.449 735.849 125.401C737.076 125.38 738.591 125.281 739.741 124.973C739.818 125.26 740.182 125.469 740.182 125.469C739.416 127.211 738.363 129.03 737.597 130.772C737.961 130.982 738.402 131.478 738.69 131.401C740.99 130.785 743.004 130.246 745.304 129.629C746.551 130.832 745.267 131.79 745.056 132.154C743.638 133.763 742.297 135.659 739.919 135.989C739.632 136.066 739.786 136.639 739.575 137.003C739.939 137.213 740.016 137.5 740.304 137.423C742.029 136.96 743.755 136.498 745.768 135.959C745.978 135.595 746.112 134.945 746.323 134.581C747.53 133.335 749.122 133.524 750.77 132.775C751.403 131.683 751.747 130.669 752.303 129.291C753.031 129.71 753.683 129.843 754.7 130.185C755.121 129.458 755.62 129.017 756.329 128.212C757.633 128.478 757.154 130.143 757.749 131.212C758.133 132.646 755.987 133.836 758.691 135.877C757.962 135.458 758.327 135.668 758.327 135.668C762.065 134.666 765.804 133.665 769.542 132.663C770.003 134.384 771.441 133.998 772.113 135.355L777.577 133.891C777.788 133.527 778.209 132.8 778.631 132.072L781.219 131.379C781.948 131.798 782.312 132.008 783.041 132.427C783.462 131.7 783.596 131.049 784.095 130.609C784.67 130.454 784.957 130.377 785.609 130.51C786.051 131.007 786.281 131.867 786.799 132.65C786.013 133.168 785.227 133.686 784.729 134.126C784.174 135.505 785.133 136.784 785.153 138.008C785.517 138.218 786.169 138.351 786.093 138.064C786.283 136.476 787.875 136.664 788.507 135.573C789.139 134.482 789.407 133.181 789.963 131.803C790.634 133.159 791.152 133.942 791.671 134.726C793.128 135.564 793.684 134.186 794.239 132.808L798.553 131.653C799.723 132.568 799.532 134.156 800.127 135.226C799.361 136.968 798.307 138.787 797.33 140.892C797.982 141.025 798.347 141.235 798.999 141.368C800.667 141.843 802.489 142.891 803.984 141.569C804.406 140.841 804.904 140.4 805.249 139.386C805.977 139.805 806.917 139.861 808.298 140.413C809.161 140.182 810.886 139.72 812.113 139.698C812.631 140.481 812.631 140.481 810.888 144.329C810.678 144.693 810.678 144.693 810.467 145.056C810.179 145.133 809.604 145.288 809.317 145.365C809.106 145.728 809.106 145.728 808.895 146.092C809.049 146.666 809.279 147.526 809.433 148.099C811.255 149.148 811.811 147.77 812.078 146.469C813.305 146.447 813.9 147.517 814.994 148.146C814.86 148.797 815.09 149.657 814.956 150.308C814.401 151.686 813.846 153.064 813.214 154.155L810.913 154.771C809.495 156.381 807.712 157.78 806.736 159.886C806.18 161.264 804.762 162.873 803.612 163.181C801.886 163.643 801.408 165.308 800.047 165.98C798.398 166.729 798.649 168.813 797.154 170.136L794.566 170.829C794.509 171.766 794.662 172.34 794.816 172.913C795.986 173.829 797.156 174.745 798.614 175.584C797.828 176.102 796.755 176.697 796.621 177.347C796.008 179.662 794.226 181.062 793.018 182.307C791.524 183.63 790.681 185.085 789.915 186.827L787.039 187.597C786.273 189.339 785.66 191.654 784.894 193.396C781.999 192.943 781.099 195.335 779.604 196.658C778.109 197.98 776.614 199.302 775.484 200.835C774.065 202.444 773.453 204.759 772.399 206.578L768.661 207.58C768.029 208.671 767.473 210.049 766.841 211.14C764.675 211.106 763.698 213.212 762.126 214.247C761.129 215.129 760.651 216.794 760.095 218.172L757.507 218.865C755.457 221.566 754.25 222.811 752.026 223.714C750.454 224.75 750.935 227.695 748.558 228.024C747.792 229.766 746.431 230.438 744.916 230.536C744.514 232.488 742.137 232.818 741.447 234.846C739.645 235.022 739.762 237.756 737.882 237.645C737.193 239.674 735.698 240.996 734.26 241.381C732.612 242.13 731.692 243.299 730.695 244.18C727.418 246.902 724.736 250.694 721.458 253.416C720.462 254.298 719.983 255.963 719.14 257.418L716.552 258.111C715.997 259.489 715.077 260.658 714.522 262.036C713.371 262.344 712.144 262.365 712.01 263.016C711.033 265.121 708.081 265.605 708.274 268.627C706.107 268.592 705.054 270.411 703.482 271.447C702.198 272.406 701.796 274.357 700.876 275.526C699.726 275.834 698.576 276.142 697.426 276.45C694.646 278.731 692.904 282.579 689.165 283.58C688.877 283.657 688.744 284.308 688.533 284.672C687.613 285.84 686.098 285.938 685.907 287.526C683.089 287.359 682.285 291.262 679.754 291.019C679.122 292.11 678.777 293.124 678.222 294.502L675.346 295.273C675.079 296.574 674.6 298.239 674.466 298.889L670.44 299.968C668.447 301.731 667.393 303.55 665.745 304.299C663.809 305.125 662.755 306.944 661.26 308.266C659.765 309.589 658.27 310.911 656.852 312.52C657.37 313.303 658.253 314.296 658.694 314.793C658.867 316.59 657.564 316.325 657.065 316.766C656.567 317.207 656.433 317.857 656.012 318.585C654.841 317.669 653.748 317.04 652.655 316.411L644.603 318.568C643.72 317.575 642.55 316.659 641.744 315.953L635.993 317.494C635.571 318.221 635.438 318.872 635.016 319.599L628.402 321.371C628.191 321.735 628.057 322.385 627.636 323.113L619.871 325.193C618.049 324.145 616.591 323.306 615.134 322.467C615.555 321.739 615.766 321.376 615.9 320.725C615.592 319.578 615.573 318.354 615.342 317.494C615.245 315.983 617.643 316.878 617.028 314.584L612.714 315.739C609.665 314.712 607.709 314.314 605.024 313.497C604.352 312.14 603.316 310.574 601.648 310.099L597.622 311.177C597.488 311.828 596.989 312.269 596.568 312.996L583.339 316.54C583.129 316.904 582.995 317.554 582.784 317.918C582.573 318.282 582.65 318.569 582.363 318.646C578.337 319.724 574.31 320.803 571.147 321.65C568.023 324.946 565.609 327.437 562.485 330.732L559.034 331.657C557.135 330.321 554.758 330.651 552.628 328.455L548.602 329.534C547.682 330.702 546.475 331.948 544.769 333.634L537.867 335.483C537.446 336.211 537.312 336.861 536.891 337.589L527.401 340.131C526.672 339.712 526.154 338.928 524.984 338.013L524.138 334.858C523.045 334.229 521.664 333.677 520.571 333.048C520.915 332.034 521.337 331.306 521.471 330.656C518.863 330.125 516.466 329.231 513.858 328.7C513.206 328.567 512.42 329.085 511.844 329.239C510.31 328.114 508.852 327.275 507.605 326.072L506.76 322.918C506.031 322.499 505.59 322.002 504.861 321.583C505.493 320.492 505.838 319.477 506.681 318.022C505.491 315.882 506.678 313.413 506.274 310.755C504.626 311.504 504.512 313.379 503.803 314.183C503.094 314.988 501.943 315.296 501.675 316.597C500.084 316.409 500.123 318.857 498.686 319.242C497.248 319.627 497.344 321.138 496.635 321.943C495.926 322.747 495.217 323.552 494.508 324.357C491.385 327.652 488.107 330.374 485.348 333.879C484.428 335.047 482.683 334.286 481.84 335.741C481.495 336.755 480.057 337.14 479.713 338.155C478.947 339.896 477.201 339.135 476.282 340.303C476.071 340.667 475.86 341.031 475.439 341.758L463.936 344.84C463.17 346.582 461.885 347.54 460.083 347.716C459.662 348.443 459.451 348.807 459.03 349.535L449.827 352C448.657 351.084 447.122 349.959 445.588 348.833C445.511 348.546 445.357 347.973 445.204 347.399C442.077 346.086 438.473 346.437 435.518 342.311C435.518 342.311 435.287 341.451 434.826 339.73C435.535 338.926 436.455 337.757 437.087 336.666C435.994 336.037 435.553 335.54 434.824 335.121L433.979 331.967C434.4 331.239 434.534 330.589 434.955 329.861C434.802 329.288 434.648 328.714 434.494 328.141C433.842 328.008 433.267 328.162 431.675 327.974C430.87 327.268 428.894 325.646 427.283 324.234C425.788 325.556 424.503 326.515 423.584 327.683C422.664 328.852 422.473 330.439 420.901 331.475C420.249 331.342 419.52 330.923 418.715 330.217C418.504 330.581 418.083 331.308 417.661 332.036L415.073 332.729C414.651 333.457 414.23 334.184 414.019 334.548L407.405 336.32C404.797 335.789 404.527 332.481 402.494 331.796C401.726 328.929 399.271 328.972 397.583 327.273L393.557 328.351C392.387 327.435 391.294 326.806 390.545 325.163C389.95 324.093 388.492 323.254 388.031 321.534L383.717 322.689C383.507 323.053 383.085 323.781 382.664 324.508C380.938 324.971 379.002 325.797 376.912 326.049C376.24 324.692 376.144 323.182 375.261 322.189C374.225 320.622 372.614 319.21 371.29 317.721L367.264 318.799C365.729 317.674 364.482 316.471 362.583 315.136C363.005 314.409 363.139 313.758 363.272 313.107L362.197 309.093C362.809 306.778 363.421 304.462 363.017 301.805C362.864 301.231 362.633 300.371 362.115 299.588C360.754 300.26 360.563 301.848 359.931 302.939C358.991 302.883 358.991 302.883 358.146 299.729C358.28 299.079 358.624 298.064 358.969 297.05C358.662 295.903 358.431 295.043 356.993 295.428C357.204 295.064 357.261 294.127 357.261 294.127C358.699 293.742 359.254 292.364 359.81 290.986C359.272 288.979 359.596 286.74 359.921 284.502C359.48 284.005 358.751 283.586 358.31 283.09C358.136 281.292 360.073 280.466 359.535 278.459C359.073 276.738 360.645 275.703 360.913 274.402C361.027 272.527 361.218 270.939 362.061 269.484C362.924 269.253 363.786 269.022 364.649 268.791C364.937 268.714 365.014 269.001 365.378 269.21C365.244 269.861 365.11 270.511 364.689 271.239C365.13 271.735 365.859 272.155 366.3 272.651C365.591 273.456 364.805 273.974 364.096 274.778C364.327 275.639 364.557 276.499 364.999 276.995C364.213 277.513 363.273 277.457 364.52 278.66C364.731 278.296 364.865 277.646 364.999 276.995C366.493 275.673 367.912 274.064 369.33 272.454C370.346 272.797 370.998 272.929 371.727 273.349C372.243 269.523 372.243 269.523 375.079 266.304C374.139 266.249 373.2 266.193 372.548 266.06C372.872 263.822 373.006 263.172 371.606 261.395C370.187 263.005 368.693 264.327 367.274 265.936C366.104 265.021 366.583 263.356 365.7 262.363C366.333 261.271 366.888 259.893 367.674 259.376C368.172 258.935 368.881 258.13 368.938 257.193C369.645 251.779 372.25 247.7 375.22 243.831C375.719 243.391 375.776 242.453 376.197 241.726L378.785 241.032C379.762 238.927 380.95 236.457 381.926 234.352C381.485 233.855 380.756 233.436 380.392 233.226C380.737 232.212 381.158 231.484 381.79 230.393C382.308 231.176 382.826 231.959 383.345 232.743C383.786 233.239 384.073 233.162 384.207 232.511C385.472 230.329 387.983 229.349 388.883 226.956C390.07 224.487 392.505 223.22 393.04 220.618C394.766 220.156 395.532 218.414 397.027 217.091C398.522 215.769 398.77 213.244 400.552 211.844C401.836 210.886 402.449 208.57 403.215 206.829C403.426 206.465 403.349 206.178 403.636 206.101C406.378 205.981 405.513 201.603 408.178 201.196C408.446 199.895 409.807 199.223 409.135 197.867L412.298 197.019C412.72 196.292 412.854 195.641 413.275 194.914L415.863 194.22C416.208 193.206 416.63 192.478 417.262 191.387C417.108 190.814 416.954 190.24 416.801 189.667C417.299 189.226 418.085 188.708 418.085 188.708C420.423 185.93 420.574 181.895 423.584 180.474C424.541 177.144 427.627 176.01 428.296 172.757C430.808 171.777 431.113 168.315 432.742 166.342L435.042 165.726C436.805 163.102 437.187 159.926 439.467 158.086C441.461 156.323 441.919 153.434 443.471 151.174C443.682 150.811 443.605 150.524 443.893 150.447C445.465 149.411 446.883 147.802 448.013 146.27C449.431 144.661 449.238 141.639 451.615 141.309C452.017 139.358 453.876 138.245 453.549 135.874C455.639 135.622 456.846 134.376 456.73 131.641C457.593 131.41 458.014 130.683 457.784 129.823C458.359 129.669 459.221 129.437 459.797 129.283C462.117 129.891 463.039 133.332 465.436 134.226C465.36 133.94 465.781 133.212 465.992 132.848C466.202 132.484 466.778 132.33 467.64 132.099C468.81 133.015 470.057 134.218 471.669 135.63C471.669 135.63 471.535 136.28 471.113 137.008C471.113 137.008 471.267 137.581 471.555 137.504C473.645 137.252 475.37 136.79 477.172 136.614C477.594 135.887 477.805 135.523 477.938 134.872L481.102 134.025C481.332 134.885 481.774 135.382 481.927 135.955C481.545 139.131 478.228 139.405 477.923 142.867C478.365 143.363 478.806 143.86 479.247 144.356C481.605 142.803 483.521 140.753 484.632 137.996C485.321 135.968 489.308 132.441 491.665 130.888C492.183 131.671 492.702 132.454 493.296 133.524C494.658 132.852 494.561 131.341 495.481 130.173C497.015 131.298 497.015 131.298 496.192 133.978L497.883 140.286C498.401 141.069 498.688 140.992 499.11 140.264C500.297 137.795 501.197 135.403 503.191 133.639C503.976 133.121 503.957 131.897 504.589 130.806C505.739 130.498 506.525 129.98 507.829 130.245C507.658 133.057 507.487 135.869 505.781 137.555L506.242 139.276C507.048 139.982 507.048 139.982 512.723 138.154C512.933 137.79 513.067 137.14 513.278 136.776L517.592 135.621C519.932 137.452 516.501 139.601 518.477 141.223C518.841 141.432 519.493 141.565 519.781 141.488C520.356 141.334 521.218 141.103 521.794 140.949C522.522 141.368 522.964 141.865 523.616 141.997C523.826 141.633 523.96 140.983 524.382 140.255L531.284 138.406C531.648 138.616 532.089 139.113 532.741 139.245C532.952 138.881 533.373 138.154 533.795 137.426L539.546 135.886C540.793 137.088 542.692 138.423 543.939 139.626L547.103 138.778C547.524 138.051 547.735 137.687 548.156 136.96C548.885 137.379 549.614 137.798 550.42 138.505C551.225 139.211 551.035 140.798 551.629 141.868C551.937 143.015 552.167 143.876 552.398 144.736C551.977 145.463 551.843 146.114 551.421 146.841C551.575 147.415 551.729 147.988 551.882 148.562C552.534 148.694 553.109 148.54 553.761 148.673C554.183 147.945 554.604 147.218 554.738 146.567L561.352 144.795C562.158 145.502 563.539 146.054 564.498 147.333C564.365 147.984 564.02 148.998 563.675 150.012C564.04 150.222 564.404 150.432 564.769 150.642C566.762 148.878 568.755 147.115 569.866 144.359C571.38 144.26 572.875 142.938 574.985 143.909C574.065 145.078 573.145 146.246 572.015 147.778C573.319 148.044 573.971 148.176 575.275 148.442C575.466 146.854 575.734 145.553 576.346 143.237C577.824 145.3 578.342 146.083 579.666 147.573C579.415 145.488 579.318 143.978 579.222 142.467C579.797 142.313 580.295 141.872 580.87 141.718C581.312 142.214 581.676 142.424 582.328 142.557C582.616 142.48 582.826 142.116 583.114 142.039C584.897 140.639 585.796 138.247 588.538 138.127C588.806 136.826 589.361 135.448 589.418 134.511L593.445 133.432L594.136 136.013C593.504 137.104 592.872 138.196 592.527 139.21C591.972 140.588 591.109 140.819 590.036 141.414C591.072 142.98 592.031 144.26 593.355 145.749C593.91 144.371 594.389 142.706 594.734 141.692L597.609 140.922C598.242 139.83 598.586 138.816 599.141 137.438C602.017 136.668 603.703 133.757 605.984 131.917C606.713 132.336 606.234 134.001 606.829 135.071C606.254 135.225 605.602 135.093 605.104 135.533C604.893 135.897 604.759 136.548 604.913 137.121C604.127 137.639 603.187 137.583 604.434 138.786C604.645 138.422 604.779 137.772 604.913 137.121C605.2 137.044 606.14 137.1 606.638 136.659C606.638 136.659 606.695 135.722 606.829 135.071ZM373.329 256.324C374.402 255.729 375.265 255.498 374.018 254.295C373.807 254.659 373.673 255.31 374.038 255.519C372.964 256.114 372.101 256.345 373.348 257.548C373.559 257.184 373.693 256.534 373.329 256.324ZM380.456 246.117C381.53 245.522 382.392 245.291 381.145 244.088C381.012 244.739 380.801 245.102 381.242 245.599C380.169 246.194 379.306 246.425 380.553 247.627C380.687 246.977 380.821 246.326 380.456 246.117ZM530.061 147.646C531.135 147.051 531.997 146.82 530.75 145.618C530.54 145.982 530.406 146.632 530.77 146.842C529.697 147.437 528.834 147.668 530.081 148.87C530.215 148.22 530.426 147.856 530.061 147.646ZM387.028 237.288C387.814 236.77 389.272 237.609 389.386 235.734C387.507 235.623 387.507 235.623 387.316 237.211C386.243 237.805 385.38 238.037 386.627 239.239C387.048 238.512 387.182 237.861 387.028 237.288ZM768.05 138.595C767.264 139.113 765.806 138.274 765.692 140.148C767.648 140.546 767.648 140.546 768.05 138.595C768.836 138.077 770.293 138.916 770.407 137.041C768.528 136.93 768.528 136.93 768.05 138.595ZM620.519 133.248C621.094 133.094 621.746 133.226 622.244 132.786C622.455 132.422 622.589 131.771 622.435 131.198C623.509 130.603 624.371 130.372 623.124 129.169C622.914 129.533 622.78 130.183 622.646 130.834C622.071 130.988 621.419 130.855 620.92 131.296C620.71 131.66 620.576 132.311 620.729 132.884C619.656 133.479 618.793 133.71 620.04 134.913C620.174 134.262 620.385 133.898 620.519 133.248ZM545.479 149.97C546.552 149.375 547.108 147.997 547.375 146.696C546.282 146.067 545.419 146.298 544.864 147.676C545.094 148.536 545.248 149.11 545.689 149.606C544.616 150.201 543.753 150.432 545 151.635C545.134 150.984 545.345 150.62 545.479 149.97ZM578.289 156.239C580.379 155.987 581.587 154.741 581.259 152.37C582.333 151.775 583.196 151.544 581.949 150.342C581.738 150.705 581.604 151.356 581.47 152.006C579.38 152.259 578.173 153.504 578.289 156.239C577.504 156.757 576.046 155.918 575.932 157.793C577.811 157.904 577.811 157.904 578.289 156.239ZM661.486 117.048C660.911 117.202 660.048 117.434 659.473 117.588C659.128 118.602 658.132 119.484 658.516 120.917C659.091 120.763 659.666 120.609 660.318 120.742C660.586 119.441 661.947 118.769 660.988 117.489C662.061 116.894 662.924 116.663 661.677 115.461C661.831 116.034 661.62 116.398 661.486 117.048ZM377.845 276.627C376.197 277.376 374.317 277.265 372.746 278.3C373.207 280.021 372.728 281.686 374.474 282.447C375.086 280.132 378.403 279.858 377.347 277.068C378.42 276.473 379.283 276.242 378.036 275.039C377.902 275.69 377.691 276.053 377.845 276.627ZM387.425 261.768C388.652 261.746 389.304 261.879 389.879 261.725C390.933 259.906 391.257 257.668 393.27 257.128C393.846 256.974 393.692 256.401 392.963 255.981L391.238 256.444C389.686 258.703 388.766 259.872 387.425 261.768ZM539.147 142.446L538.686 140.726C538.475 141.09 538.552 141.376 538.265 141.453C537.382 140.461 536.864 139.677 536.269 138.607C535.714 139.986 535.292 140.713 535.082 141.077C535.964 142.07 536.77 142.776 537.652 143.769C538.151 143.328 538.649 142.887 539.147 142.446ZM391.702 227.123C392.527 229.053 391.838 231.082 393.737 232.417C394.312 232.263 394.81 231.822 395.386 231.668L394.771 229.374C393.965 228.668 393.236 228.249 391.702 227.123ZM602 140.053C600.926 140.648 600.659 141.949 600.314 142.963C601.484 143.879 602.347 143.648 602.902 142.27C602.672 141.41 602.441 140.549 602 140.053ZM366.327 287.703C367.076 289.346 367.229 289.92 367.901 291.277C368.457 289.898 369.089 288.807 369.644 287.429C368.494 287.737 367.919 287.891 366.327 287.703ZM418.184 194.828C419.354 195.744 420.217 195.513 420.772 194.135C419.602 193.219 418.739 193.45 418.184 194.828ZM575.55 160.968C574.092 160.129 573.153 160.074 573.039 161.948C573.844 162.655 574.707 162.423 575.55 160.968ZM383.304 265.945C384.474 266.86 385.337 266.629 385.893 265.251C384.722 264.335 383.86 264.567 383.304 265.945ZM442.232 163.8C442.442 163.436 442.442 163.436 442.653 163.072C442.289 162.862 442.001 162.939 441.637 162.73C441.637 162.73 441.426 163.093 441.215 163.457C441.58 163.667 441.944 163.877 442.232 163.8ZM583.788 148.005C583.577 148.369 583.29 148.446 583.654 148.655C583.731 148.942 584.096 149.152 584.249 149.725C584.46 149.362 584.748 149.284 584.383 149.075C584.517 148.424 584.153 148.215 583.788 148.005ZM410.712 206.049C410.501 206.413 410.213 206.49 410.578 206.7C410.655 206.987 411.019 207.196 411.173 207.77C411.384 207.406 411.671 207.329 411.307 207.119C411.153 206.546 410.789 206.336 410.712 206.049ZM754.973 138.103C754.608 137.893 754.531 137.606 754.244 137.683C753.956 137.761 753.745 138.124 753.535 138.488C753.899 138.698 753.976 138.985 754.263 138.907C754.474 138.544 754.685 138.18 754.973 138.103ZM377.62 249.335C377.984 249.545 377.984 249.545 378.349 249.755C378.272 249.468 378.483 249.104 378.329 248.531C378.329 248.531 377.965 248.321 377.888 248.034C377.754 248.685 377.831 248.971 377.62 249.335ZM383.448 248.081C383.659 247.717 383.947 247.64 384.157 247.276C383.793 247.067 383.716 246.78 383.429 246.857C383.141 246.934 382.93 247.298 382.72 247.662C383.084 247.871 383.161 248.158 383.448 248.081Z" fill="#FEE3B3"/>
<path d="M456.807 131.928C455.867 131.873 455.235 132.964 454.352 131.971C453.968 130.537 455.406 130.152 455.386 128.928L457.399 128.389L457.784 129.823C456.633 130.131 456.499 130.781 456.807 131.928Z" fill="#FEE3B3"/>
<path d="M357.358 295.638C356.956 297.589 356.956 297.589 355 297.191C355.114 295.317 356.572 296.156 357.358 295.638Z" fill="#FEE3B3"/>
<path d="M456.901 128.83C457.246 127.815 457.379 127.165 457.59 126.801C458.837 128.004 457.898 127.948 456.901 128.83Z" fill="#FEE3B3"/>
<path d="M453.99 136.371C453.262 135.951 452.897 135.742 452.168 135.322C453.088 134.154 453.395 135.301 453.99 136.371Z" fill="#FEE3B3"/>
<path d="M474.007 132.852C473.796 133.216 473.873 133.503 473.739 134.153C473.374 133.944 473.087 134.021 473.298 133.657C473.221 133.37 473.431 133.006 473.278 132.433C473.355 132.72 473.642 132.643 474.007 132.852Z" fill="#FEE3B3"/>
<path d="M440.883 151.868C440.672 152.231 440.385 152.309 440.174 152.672C440.174 152.672 439.81 152.463 439.445 152.253C439.656 151.889 439.944 151.812 440.154 151.448C440.519 151.658 440.596 151.945 440.883 151.868Z" fill="#FEE3B3"/>
<path d="M422.106 178.411C422.183 178.698 422.049 179.348 422.126 179.635C421.761 179.425 421.474 179.502 421.685 179.138C421.608 178.852 421.818 178.488 421.665 177.914C421.742 178.201 422.106 178.411 422.106 178.411Z" fill="#FEE3B3"/>
<path d="M591.796 134.181C592.141 133.167 592.351 132.803 592.485 132.153C593.809 133.642 592.869 133.586 591.796 134.181Z" fill="#FEE3B3"/>
<path d="M418.848 182.357C419.193 181.343 419.404 180.979 419.538 180.328C420.785 181.531 419.634 181.839 418.848 182.357Z" fill="#FEE3B3"/>
<path d="M419.347 181.916C419.002 182.93 418.791 183.294 418.658 183.945C417.334 182.455 418.561 182.434 419.347 181.916Z" fill="#FEE3B3"/>
<path d="M409.576 198.363C408.848 197.944 408.483 197.734 407.754 197.315C408.674 196.146 408.981 197.293 409.576 198.363Z" fill="#FEE3B3"/>
<path d="M405.704 200.015C405.915 199.651 405.838 199.365 406.049 199.001C406.413 199.211 406.701 199.134 406.49 199.497C406.567 199.784 406.356 200.148 406.51 200.721C406.145 200.512 406.068 200.225 405.704 200.015Z" fill="#FEE3B3"/>
<path d="M395.011 213.021C395.222 212.658 395.145 212.371 395.356 212.007C395.721 212.217 396.008 212.14 395.797 212.504C395.874 212.79 395.663 213.154 395.817 213.728C395.376 213.231 395.376 213.231 395.011 213.021Z" fill="#FEE3B3"/>
<path d="M394.131 216.638C393.921 217.002 393.921 217.002 393.71 217.365C393.345 217.156 393.269 216.869 393.115 216.295C393.115 216.295 393.326 215.932 393.249 215.645C393.613 215.855 393.767 216.428 394.131 216.638Z" fill="#FEE3B3"/>
<path d="M769.198 133.677C769.542 132.663 769.753 132.299 769.887 131.649C771.134 132.851 769.907 132.873 769.198 133.677Z" fill="#FEE3B3"/>
<path d="M788.792 130.887C789.003 130.523 788.926 130.236 789.137 129.872C789.501 130.082 789.789 130.005 789.578 130.369C789.655 130.656 789.444 131.019 789.598 131.593C789.157 131.096 789.157 131.096 788.792 130.887Z" fill="#FEE3B3"/>
<path d="M798.364 173.5C798.153 173.863 798.153 173.863 797.942 174.227C797.578 174.018 797.501 173.731 797.347 173.157C797.347 173.157 797.558 172.794 797.481 172.507C797.845 172.716 798.287 173.213 798.364 173.5Z" fill="#FEE3B3"/>
</svg>
