<svg width="185" height="185" viewBox="0 0 185 185" fill="none" xmlns="http://www.w3.org/2000/svg">
<rect width="185" height="185" rx="92.5" fill="white"/>
<g clip-path="url(#clip0_671_18)">
<path d="M95.1298 69.5527C94.2327 67.4132 92.4129 65.1032 90.9879 64.3729C92.0041 66.3233 92.7094 68.418 93.0788 70.5823L93.0825 70.6167C90.7482 64.8508 86.7911 62.5222 83.5575 57.4586C83.3905 57.2004 83.2284 56.9392 83.0711 56.675C82.9901 56.5371 82.9142 56.3962 82.8437 56.2526C82.7096 55.9952 82.6062 55.7232 82.5358 55.4421C82.5359 55.4291 82.5311 55.4166 82.5225 55.4069C82.5138 55.3971 82.5019 55.3909 82.4889 55.3893C82.4762 55.3859 82.4627 55.3859 82.45 55.3893C82.4473 55.3893 82.4431 55.3941 82.4399 55.3951C82.4367 55.3962 82.4297 55.4009 82.425 55.403L82.4329 55.3893C77.2469 58.399 75.4863 63.9695 75.3265 66.7574C73.2547 66.8982 71.2738 67.6547 69.6423 68.9281C69.4722 68.7852 69.2944 68.6516 69.1096 68.5278C68.6392 66.8957 68.6192 65.1684 69.0516 63.526C67.147 64.4404 65.4547 65.7367 64.0818 67.333H64.0722C63.254 66.3049 63.3115 62.9151 63.3584 62.207C63.1163 62.3034 62.8852 62.425 62.669 62.5698C61.9467 63.0807 61.2714 63.6541 60.6511 64.2832C59.9442 64.9935 59.2986 65.7613 58.7211 66.5784V66.5816V66.5779C57.3938 68.4426 56.4523 70.5495 55.9509 72.7768L55.9232 72.9119C55.8471 73.3365 55.7794 73.7625 55.7202 74.1897C55.7202 74.205 55.717 74.2193 55.7155 74.2346C55.5347 75.1657 55.4227 76.1086 55.3804 77.0558V77.1614C55.3895 82.2823 57.3352 87.2138 60.8335 90.9823C64.3317 94.7509 69.1283 97.0826 74.2762 97.5172C79.4242 97.9517 84.5495 96.4576 88.6404 93.3298C92.7313 90.2019 95.4904 85.6676 96.3732 80.622C96.4078 80.358 96.436 80.0966 96.4669 79.8299C96.8922 76.3461 96.4318 72.8121 95.1277 69.5495L95.1298 69.5527ZM71.3332 85.5726C71.4296 85.6185 71.5202 85.6682 71.6193 85.712L71.6337 85.721C71.5335 85.6735 71.4333 85.624 71.3332 85.5726ZM93.0831 70.6225V70.6029L93.0868 70.6246L93.0831 70.6225Z" fill="#C6C6C6"/>
<path d="M95.1294 69.5548C94.2323 67.4153 92.4126 65.1052 90.9875 64.375C92.0037 66.3254 92.709 68.42 93.0785 70.5844V70.604L93.0822 70.6256C94.6739 75.1396 94.4437 80.0887 92.4397 84.4384C90.0734 89.4709 84.3477 94.629 75.382 94.3756C65.6972 94.1037 57.163 86.9781 55.5702 77.6482C55.2799 76.1766 55.5702 75.4305 55.7162 74.2346C55.5171 75.1635 55.4059 76.1089 55.3843 77.0584V77.164C55.3934 82.2849 57.3391 87.2164 60.8374 90.9849C64.3356 94.7535 69.1322 97.0852 74.2802 97.5198C79.4281 97.9544 84.5534 96.4603 88.6443 93.3324C92.7352 90.2045 95.4943 85.6702 96.3771 80.6246C96.4117 80.3606 96.4399 80.0992 96.4708 79.8326C96.8961 76.3487 96.4357 72.8147 95.1316 69.5522L95.1294 69.5548Z" fill="#A2A2A2"/>
<path d="M90.9877 64.375C92.4127 65.1052 94.2325 67.4153 95.1296 69.5548L95.1317 69.5522C96.4359 72.8147 96.8963 76.3487 96.471 79.8326C96.4401 80.0992 96.4118 80.3606 96.3772 80.6246C95.4945 85.6702 92.7353 90.2045 88.6445 93.3324L86.9697 90.9849C89.5119 89.147 91.3393 86.7791 92.4399 84.4384C94.4438 80.0887 94.674 75.1396 93.0824 70.6256L93.0786 70.604V70.5844C92.7092 68.42 92.0039 66.3254 90.9877 64.375Z" fill="#BDBDBD"/>
<path d="M76.0581 73.2297C76.024 73.7387 74.2096 75.4943 73.5751 75.4943C67.7045 75.4943 66.751 79.0146 66.751 79.0146C67.0109 81.9788 69.0949 84.4214 71.6142 85.7098C71.7292 85.7689 71.8459 85.8222 71.9626 85.8745C72.1647 85.9632 72.3667 86.0452 72.5688 86.1206C73.4334 86.4238 74.339 86.597 75.2553 86.6343C85.5475 87.1127 87.5398 74.4372 80.1132 70.757C81.8651 70.5311 83.6392 70.958 85.0915 71.955C84.1844 70.3684 82.8696 69.0481 81.2808 68.1284C79.692 67.2086 77.8858 66.7223 76.0459 66.7188C75.8008 66.7188 75.5611 66.7388 75.3203 66.7552C73.2485 66.896 71.2677 67.6524 69.6362 68.9258C69.951 69.1898 70.3063 69.5426 71.0548 70.2739C72.4559 71.6419 76.0491 73.0591 76.0571 73.2254L76.0581 73.2297Z" fill="url(#paint0_radial_671_18)"/>
<path d="M76.0581 73.2297C76.024 73.7387 74.2096 75.4943 73.5751 75.4943C67.7045 75.4943 66.751 79.0146 66.751 79.0146C67.0109 81.9788 69.0949 84.4214 71.6142 85.7098C71.7292 85.7689 71.8459 85.8222 71.9626 85.8745C72.1647 85.9632 72.3667 86.0452 72.5688 86.1206C73.4334 86.4238 74.339 86.597 75.2553 86.6343C85.5475 87.1127 87.5398 74.4372 80.1132 70.757C81.8651 70.5311 83.6392 70.958 85.0915 71.955C84.1844 70.3684 82.8696 69.0481 81.2808 68.1284C79.692 67.2086 77.8858 66.7223 76.0459 66.7188C75.8008 66.7188 75.5611 66.7388 75.3203 66.7552C73.2485 66.896 71.2677 67.6524 69.6362 68.9258C69.951 69.1898 70.3063 69.5426 71.0548 70.2739C72.4559 71.6419 76.0491 73.0591 76.0571 73.2254L76.0581 73.2297Z" fill="#6F6F6F"/>
<path d="M68.6749 68.2488C68.8421 68.3544 68.9801 68.4463 69.1011 68.5292C68.6307 66.8971 68.6106 65.1698 69.043 63.5273C67.1384 64.4418 65.4462 65.7381 64.0732 67.3343C64.1739 67.3317 67.1689 67.2783 68.6749 68.2488Z" fill="#C4C4C4"/>
<path d="M55.5668 77.6471C57.1601 86.977 65.6938 94.1052 75.3786 94.3745C84.3443 94.6258 90.071 89.4671 92.4363 84.4373C94.4403 80.0876 94.6704 75.1385 93.0788 70.6245V70.605C93.0788 70.5896 93.0756 70.5807 93.0788 70.5854L93.0825 70.6197C93.815 75.3597 91.3826 79.9497 87.5795 83.0597L87.5678 83.0861C80.1577 89.0685 73.0672 86.6945 71.6341 85.7262C71.534 85.6786 71.4338 85.6292 71.3337 85.5778C67.0139 83.5312 65.2287 79.6324 65.6123 76.2848C64.5868 76.2998 63.579 76.0197 62.7109 75.4785C61.8429 74.9373 61.1518 74.1582 60.7214 73.2355C61.8554 72.547 63.1485 72.1577 64.4773 72.1048C65.8062 72.052 67.1265 72.3372 68.3126 72.9335C70.7574 74.0334 73.5393 74.1418 76.0637 73.2355C76.0557 73.0692 72.4625 71.6515 71.0615 70.2839C70.313 69.5526 69.9577 69.2004 69.6428 68.9359C69.4727 68.7931 69.2949 68.6595 69.1101 68.5357C68.9876 68.4528 68.8496 68.363 68.6839 68.2553C67.1779 67.2848 64.183 67.3381 64.0839 67.3408H64.0743C63.2561 66.3127 63.3136 62.9229 63.3605 62.2148C63.1184 62.3113 62.8873 62.4329 62.6711 62.5776C61.9488 63.0886 61.2735 63.6619 60.6532 64.291C59.9438 64.9993 59.2955 65.7653 58.7152 66.581C57.3879 68.4457 56.4464 70.552 55.945 72.7793C55.9349 72.821 55.2013 75.9997 55.5631 77.6481L55.5668 77.6471Z" fill="#B4B4B4"/>
<path d="M85.5299 72.3051C85.4307 72.2166 85.3275 72.1327 85.2204 72.0537C85.1783 72.0226 85.1368 71.9914 85.092 71.9603C83.6397 70.9632 81.8656 70.5363 80.1138 70.7622C87.5399 74.4424 85.5475 87.1147 75.2559 86.6395C74.3395 86.6022 73.434 86.429 72.5694 86.1258C72.3673 86.0508 72.1652 85.9688 71.9631 85.8797C71.8465 85.8269 71.7298 85.7741 71.6147 85.715L71.6291 85.724C73.0643 86.695 80.1526 89.0673 87.5628 83.0839L87.5745 83.0575C87.7593 82.6298 90.212 76.5841 85.5289 72.3072L85.5299 72.3051Z" fill="#D4D4D4"/>
<path d="M66.752 79.0116C66.752 79.0116 67.705 75.4914 73.5761 75.4914C74.2106 75.4914 76.0266 73.7357 76.0591 73.2267C73.5348 74.133 70.7529 74.0246 68.3081 72.9247C67.122 72.3285 65.8016 72.0432 64.4727 72.0961C63.1439 72.1489 61.8509 72.5382 60.7168 73.2267C61.1472 74.1494 61.8383 74.9285 62.7064 75.4697C63.5745 76.0109 64.5823 76.291 65.6077 76.276C65.2252 79.622 67.0098 83.5203 71.3291 85.569C71.4255 85.615 71.5161 85.6646 71.6152 85.7084C69.0938 84.4174 67.0119 81.9759 66.752 79.0132V79.0116Z" fill="#C5C5C5"/>
<g clip-path="url(#clip1_671_18)">
<path d="M108.481 96.9614C119.772 96.9614 128.925 87.8024 128.925 76.5041C128.925 65.2059 119.772 56.0469 108.481 56.0469C97.1906 56.0469 88.0376 65.2059 88.0376 76.5041C88.0376 87.8024 97.1906 96.9614 108.481 96.9614Z" fill="#F5F5F5"/>
<path fill-rule="evenodd" clip-rule="evenodd" d="M108.481 57.0884C97.7666 57.0884 89.0796 65.7802 89.0796 76.5034C89.0796 87.2267 97.7666 95.9184 108.481 95.9184C119.196 95.9184 127.883 87.2267 127.883 76.5034C127.883 65.7802 119.196 57.0884 108.481 57.0884ZM86.9951 76.5034C86.9951 64.6302 96.6141 55.0039 108.481 55.0039C120.348 55.0039 129.967 64.6302 129.967 76.5034C129.967 88.3766 120.348 98.0029 108.481 98.0029C96.6141 98.0029 86.9951 88.3766 86.9951 76.5034Z" fill="#878787"/>
<path d="M98.5116 63.5195L94.7114 67.3197L105.82 78.4289V91.6353H111.195V78.4146L122.29 67.3197L118.49 63.5195L108.5 73.509L98.5116 63.5195Z" fill="#6F6F6F"/>
</g>
<g clip-path="url(#clip2_671_18)">
<path d="M92.5 119.246C98.4371 119.246 103.25 114.433 103.25 108.496C103.25 102.559 98.4371 97.7461 92.5 97.7461C86.5629 97.7461 81.75 102.559 81.75 108.496C81.75 114.433 86.5629 119.246 92.5 119.246Z" fill="white"/>
<path d="M92.4999 97.75H111.116C109.23 94.4814 106.516 91.7672 103.248 89.8801C99.9796 87.9931 96.2721 86.9997 92.4983 87C88.7244 87.0003 85.0171 87.9941 81.7492 89.8817C78.4812 91.7692 75.7678 94.4839 73.8818 97.7527L83.1895 113.875L83.1985 113.873C82.2515 112.24 81.7516 110.387 81.7494 108.499C81.7473 106.611 82.2428 104.756 83.186 103.121C84.1293 101.486 85.487 100.129 87.1222 99.1858C88.7574 98.2428 90.6123 97.7475 92.4999 97.75Z" fill="#6F6F6F"/>
<path d="M92.5002 117.009C97.2003 117.009 101.011 113.199 101.011 108.499C101.011 103.799 97.2003 99.9883 92.5002 99.9883C87.8 99.9883 83.9897 103.799 83.9897 108.499C83.9897 113.199 87.8 117.009 92.5002 117.009Z" fill="#6A6A6A"/>
<path d="M101.809 113.879L92.5011 130.001C96.2749 130.002 99.9824 129.009 103.251 127.122C106.519 125.235 109.233 122.521 111.12 119.252C113.006 115.984 113.999 112.276 113.998 108.503C113.998 104.729 113.003 101.022 111.116 97.7539H92.4993L92.4966 97.7629C94.3841 97.7593 96.2392 98.2533 97.8749 99.1952C99.5106 100.137 100.869 101.494 101.813 103.128C102.758 104.762 103.254 106.616 103.254 108.504C103.253 110.391 102.754 112.245 101.809 113.879Z" fill="#C6C6C6"/>
<path d="M83.1914 113.876L73.8828 97.7539C71.9953 101.022 71.0016 104.729 71.0015 108.503C71.0013 112.277 71.9948 115.985 73.8821 119.253C75.7693 122.521 78.4837 125.235 81.7524 127.121C85.021 129.007 88.7287 130 92.5026 129.999L101.81 113.876L101.804 113.87C100.863 115.506 99.508 116.866 97.8745 117.811C96.2409 118.757 94.387 119.255 92.4995 119.256C90.6121 119.256 88.7578 118.759 87.1236 117.815C85.4895 116.87 84.1331 115.512 83.1914 113.876Z" fill="#878787"/>
</g>
<mask id="mask0_671_18" style="mask-type:alpha" maskUnits="userSpaceOnUse" x="71" y="87" width="43" height="43">
<g clip-path="url(#clip3_671_18)">
<path d="M92.5 119.246C98.4371 119.246 103.25 114.433 103.25 108.496C103.25 102.559 98.4371 97.7461 92.5 97.7461C86.5629 97.7461 81.75 102.559 81.75 108.496C81.75 114.433 86.5629 119.246 92.5 119.246Z" fill="white"/>
<path d="M92.4999 97.75H111.116C109.23 94.4814 106.516 91.7672 103.248 89.8801C99.9796 87.9931 96.2721 86.9997 92.4983 87C88.7244 87.0003 85.0171 87.9941 81.7492 89.8817C78.4812 91.7692 75.7678 94.4839 73.8818 97.7527L83.1895 113.875L83.1985 113.873C82.2515 112.24 81.7516 110.387 81.7494 108.499C81.7473 106.611 82.2428 104.756 83.186 103.121C84.1293 101.486 85.487 100.129 87.1222 99.1858C88.7574 98.2428 90.6123 97.7475 92.4999 97.75Z" fill="#6F6F6F"/>
<path d="M92.5002 117.009C97.2003 117.009 101.011 113.199 101.011 108.499C101.011 103.799 97.2003 99.9883 92.5002 99.9883C87.8 99.9883 83.9897 103.799 83.9897 108.499C83.9897 113.199 87.8 117.009 92.5002 117.009Z" fill="#6A6A6A"/>
<path d="M101.809 113.879L92.5011 130.001C96.2749 130.002 99.9824 129.009 103.251 127.122C106.519 125.235 109.233 122.521 111.12 119.252C113.006 115.984 113.999 112.276 113.998 108.503C113.998 104.729 113.003 101.022 111.116 97.7539H92.4993L92.4966 97.7629C94.3841 97.7593 96.2392 98.2533 97.8749 99.1952C99.5106 100.137 100.869 101.494 101.813 103.128C102.758 104.762 103.254 106.616 103.254 108.504C103.253 110.391 102.754 112.245 101.809 113.879Z" fill="#C6C6C6"/>
<path d="M83.1914 113.876L73.8828 97.7539C71.9953 101.022 71.0016 104.729 71.0015 108.503C71.0013 112.277 71.9948 115.985 73.8821 119.253C75.7693 122.521 78.4837 125.235 81.7524 127.121C85.021 129.007 88.7287 130 92.5026 129.999L101.81 113.876L101.804 113.87C100.863 115.506 99.508 116.866 97.8745 117.811C96.2409 118.757 94.387 119.255 92.4995 119.256C90.6121 119.256 88.7578 118.759 87.1236 117.815C85.4895 116.87 84.1331 115.512 83.1914 113.876Z" fill="#878787"/>
</g>
</mask>
<g mask="url(#mask0_671_18)">
<path d="M95.1298 69.5527C94.2327 67.4132 92.4129 65.1032 90.9879 64.3729C92.0041 66.3233 92.7094 68.418 93.0788 70.5823L93.0825 70.6167C90.7482 64.8508 86.7911 62.5222 83.5575 57.4586C83.3905 57.2004 83.2284 56.9392 83.0711 56.675C82.9901 56.5371 82.9142 56.3962 82.8437 56.2526C82.7096 55.9952 82.6062 55.7232 82.5358 55.4421C82.5359 55.4291 82.5311 55.4166 82.5225 55.4069C82.5138 55.3971 82.5019 55.3909 82.4889 55.3893C82.4762 55.3859 82.4627 55.3859 82.45 55.3893C82.4473 55.3893 82.4431 55.3941 82.4399 55.3951C82.4367 55.3962 82.4297 55.4009 82.425 55.403L82.4329 55.3893C77.2469 58.399 75.4863 63.9695 75.3265 66.7574C73.2547 66.8982 71.2738 67.6547 69.6423 68.9281C69.4722 68.7852 69.2944 68.6516 69.1096 68.5278C68.6392 66.8957 68.6192 65.1684 69.0516 63.526C67.147 64.4404 65.4547 65.7367 64.0818 67.333H64.0722C63.254 66.3049 63.3115 62.9151 63.3584 62.207C63.1163 62.3034 62.8852 62.425 62.669 62.5698C61.9467 63.0807 61.2714 63.6541 60.6511 64.2832C59.9442 64.9935 59.2986 65.7613 58.7211 66.5784V66.5816V66.5779C57.3938 68.4426 56.4523 70.5495 55.9509 72.7768L55.9232 72.9119C55.8471 73.3365 55.7794 73.7625 55.7202 74.1897C55.7202 74.205 55.717 74.2193 55.7155 74.2346C55.5347 75.1657 55.4227 76.1086 55.3804 77.0558V77.1614C55.3895 82.2823 57.3352 87.2138 60.8335 90.9823C64.3317 94.7509 69.1283 97.0826 74.2762 97.5172C79.4242 97.9517 84.5495 96.4576 88.6404 93.3298C92.7313 90.2019 95.4904 85.6676 96.3732 80.622C96.4078 80.358 96.436 80.0966 96.4669 79.8299C96.8922 76.3461 96.4318 72.8121 95.1277 69.5495L95.1298 69.5527ZM71.3332 85.5726C71.4296 85.6185 71.5202 85.6682 71.6193 85.712L71.6337 85.721C71.5335 85.6735 71.4333 85.624 71.3332 85.5726ZM93.0831 70.6225V70.6029L93.0868 70.6246L93.0831 70.6225Z" fill="#C6C6C6"/>
<path d="M95.1294 69.5548C94.2323 67.4153 92.4126 65.1052 90.9875 64.375C92.0037 66.3254 92.709 68.42 93.0785 70.5844V70.604L93.0822 70.6256C94.6739 75.1396 94.4437 80.0887 92.4397 84.4384C90.0734 89.4709 84.3477 94.629 75.382 94.3756C65.6972 94.1037 57.163 86.9781 55.5702 77.6482C55.2799 76.1766 55.5702 75.4305 55.7162 74.2346C55.5171 75.1635 55.4059 76.1089 55.3843 77.0584V77.164C55.3934 82.2849 57.3391 87.2164 60.8374 90.9849C64.3356 94.7535 69.1322 97.0852 74.2802 97.5198C79.4281 97.9544 84.5534 96.4602 88.6443 93.3324C92.7352 90.2045 95.4943 85.6702 96.3771 80.6246C96.4117 80.3606 96.4399 80.0992 96.4708 79.8326C96.8961 76.3487 96.4357 72.8147 95.1316 69.5522L95.1294 69.5548Z" fill="#A2A2A2"/>
<path d="M76.0581 73.2297C76.024 73.7387 74.2096 75.4943 73.5751 75.4943C67.7045 75.4943 66.751 79.0146 66.751 79.0146C67.0109 81.9788 69.0949 84.4214 71.6142 85.7098C71.7292 85.7689 71.8459 85.8222 71.9626 85.8745C72.1647 85.9632 72.3667 86.0452 72.5688 86.1206C73.4334 86.4238 74.339 86.597 75.2553 86.6343C85.5475 87.1127 87.5398 74.4372 80.1132 70.757C81.8651 70.5311 83.6392 70.958 85.0915 71.955C84.1844 70.3684 82.8696 69.0481 81.2808 68.1284C79.692 67.2086 77.8858 66.7223 76.0459 66.7188C75.8008 66.7188 75.5611 66.7388 75.3203 66.7552C73.2485 66.896 71.2677 67.6524 69.6362 68.9258C69.951 69.1898 70.3063 69.5426 71.0548 70.2739C72.4559 71.6419 76.0491 73.0591 76.0571 73.2254L76.0581 73.2297Z" fill="url(#paint1_radial_671_18)"/>
<path d="M76.0581 73.2297C76.024 73.7387 74.2096 75.4943 73.5751 75.4943C67.7045 75.4943 66.751 79.0146 66.751 79.0146C67.0109 81.9788 69.0949 84.4214 71.6142 85.7098C71.7292 85.7689 71.8459 85.8222 71.9626 85.8745C72.1647 85.9632 72.3667 86.0452 72.5688 86.1206C73.4334 86.4238 74.339 86.597 75.2553 86.6343C85.5475 87.1127 87.5398 74.4372 80.1132 70.757C81.8651 70.5311 83.6392 70.958 85.0915 71.955C84.1844 70.3684 82.8696 69.0481 81.2808 68.1284C79.692 67.2086 77.8858 66.7223 76.0459 66.7188C75.8008 66.7188 75.5611 66.7388 75.3203 66.7552C73.2485 66.896 71.2677 67.6524 69.6362 68.9258C69.951 69.1898 70.3063 69.5426 71.0548 70.2739C72.4559 71.6419 76.0491 73.0591 76.0571 73.2254L76.0581 73.2297Z" fill="#878787"/>
<path d="M55.5668 77.6471C57.1601 86.977 65.6938 94.1052 75.3786 94.3745C84.3443 94.6258 90.071 89.4671 92.4363 84.4373C94.4403 80.0876 94.6704 75.1385 93.0788 70.6245V70.605C93.0788 70.5896 93.0756 70.5807 93.0788 70.5854L93.0825 70.6197C93.815 75.3597 91.3826 79.9497 87.5795 83.0597L87.5678 83.0861C80.1577 89.0685 73.0672 86.6945 71.6341 85.7262C71.534 85.6787 71.4338 85.6292 71.3337 85.5778C67.0139 83.5312 65.2287 79.6324 65.6123 76.2848C64.5868 76.2998 63.579 76.0197 62.7109 75.4785C61.8429 74.9373 61.1518 74.1582 60.7214 73.2355C61.8554 72.547 63.1485 72.1577 64.4773 72.1048C65.8062 72.052 67.1265 72.3372 68.3126 72.9335C70.7574 74.0334 73.5393 74.1418 76.0637 73.2355C76.0557 73.0692 72.4625 71.6515 71.0615 70.2839C70.313 69.5526 69.9577 69.2004 69.6428 68.9359C69.4727 68.7931 69.2949 68.6595 69.1101 68.5357C68.9876 68.4528 68.8496 68.363 68.6839 68.2553C67.1779 67.2848 64.183 67.3381 64.0839 67.3408H64.0743C63.2561 66.3127 63.3136 62.9229 63.3605 62.2148C63.1184 62.3113 62.8873 62.4329 62.6711 62.5776C61.9488 63.0886 61.2735 63.6619 60.6532 64.291C59.9438 64.9993 59.2955 65.7653 58.7152 66.581C57.3879 68.4457 56.4464 70.552 55.945 72.7793C55.9349 72.821 55.2013 75.9997 55.5631 77.6481L55.5668 77.6471Z" fill="#B4B4B4"/>
<path d="M85.5299 72.3051C85.4307 72.2166 85.3275 72.1327 85.2204 72.0537C85.1783 72.0226 85.1368 71.9914 85.092 71.9603C83.6397 70.9632 81.8656 70.5363 80.1138 70.7622C87.5399 74.4424 85.5475 87.1147 75.2559 86.6395C74.3395 86.6022 73.434 86.429 72.5694 86.1258C72.3673 86.0508 72.1652 85.9688 71.9631 85.8797C71.8465 85.8269 71.7298 85.7741 71.6147 85.715L71.6291 85.724C73.0643 86.695 80.1526 89.0673 87.5628 83.0839L87.5745 83.0575C87.7594 82.6298 90.212 76.5841 85.5289 72.3072L85.5299 72.3051Z" fill="#D4D4D4"/>
</g>
</g>
<defs>
<radialGradient id="paint0_radial_671_18" cx="0" cy="0" r="1" gradientUnits="userSpaceOnUse" gradientTransform="translate(70.2941 88.6529) scale(20.4937 20.3126)">
<stop offset="0.353" stop-color="#3A8EE6"/>
<stop offset="0.472" stop-color="#5C79F0"/>
<stop offset="0.669" stop-color="#9059FF"/>
<stop offset="1" stop-color="#C139E6"/>
</radialGradient>
<radialGradient id="paint1_radial_671_18" cx="0" cy="0" r="1" gradientUnits="userSpaceOnUse" gradientTransform="translate(70.2941 88.6529) scale(20.4937 20.3126)">
<stop offset="0.353" stop-color="#3A8EE6"/>
<stop offset="0.472" stop-color="#5C79F0"/>
<stop offset="0.669" stop-color="#9059FF"/>
<stop offset="1" stop-color="#C139E6"/>
</radialGradient>
<clipPath id="clip0_671_18">
<rect width="75" height="75" fill="white" transform="translate(55 55)"/>
</clipPath>
<clipPath id="clip1_671_18">
<rect x="87" y="55" width="43" height="43" rx="21.5" fill="white"/>
</clipPath>
<clipPath id="clip2_671_18">
<rect x="71" y="87" width="43" height="43" rx="21.5" fill="white"/>
</clipPath>
<clipPath id="clip3_671_18">
<rect x="71" y="87" width="43" height="43" rx="21.5" fill="white"/>
</clipPath>
</defs>
</svg>
