<svg width="480" height="460" viewBox="0 0 480 460" fill="none" xmlns="http://www.w3.org/2000/svg">
<path d="M95.878 410.199C94.146 409.139 92.9913 411.613 91.2593 411.966C90.1047 412.319 89.2387 414.793 88.084 414.793C86.9293 415.146 86.352 416.206 85.1973 416.559C84.0427 416.913 82.888 417.619 81.7333 418.326C80.29 419.386 78.8467 420.446 77.1147 421.506H67.5887C67.0113 422.213 66.7227 422.566 66.1453 423.273C63.2587 423.273 60.6607 423.273 57.774 423.273C57.1967 421.153 56.3307 419.386 54.5987 417.973H52.2893C51.712 416.913 50.2687 416.206 50.2687 414.086C50.5573 413.733 51.1347 412.673 51.712 411.966V403.839C51.1347 403.132 50.846 402.779 50.2687 402.072C52.0007 396.772 52.0007 396.772 54.31 394.652V397.126C53.7327 397.832 53.444 398.186 52.8667 398.892C53.1553 399.599 53.1553 400.306 53.444 401.012C55.7533 399.246 56.908 396.772 58.0627 394.299C58.64 394.299 58.9287 394.299 59.506 394.299C59.7947 393.592 59.7947 392.885 60.372 391.119C61.238 390.059 62.97 388.645 64.1247 387.232C64.1247 385.819 64.1247 385.465 64.1247 384.759C64.9907 384.405 65.568 384.052 66.434 383.698C66.7227 382.638 67.0113 381.578 67.3 380.872C68.166 380.518 68.7433 380.518 68.7433 380.518C71.63 376.985 73.9393 374.158 76.5373 371.331C76.5373 370.625 76.5373 370.271 76.5373 369.211C77.4033 368.858 77.9807 368.505 78.8467 368.151C79.1353 367.091 79.424 366.031 79.7127 365.325C80.5787 364.971 81.156 364.971 81.7333 364.971C82.022 363.911 82.022 363.205 82.3107 362.851C84.0427 360.025 86.6407 358.258 87.7953 355.078C88.6613 355.078 89.5273 355.078 90.682 354.724C90.682 353.664 90.682 352.604 90.3933 351.544C88.95 352.604 88.084 353.311 87.7953 355.078C87.218 355.078 86.352 355.078 85.7747 355.078C83.4653 357.904 81.156 360.731 78.8467 363.558C78.2693 363.558 77.9807 363.558 77.1147 363.558C76.2487 364.971 75.6713 366.385 74.8053 367.798C74.8053 367.798 75.094 367.798 75.094 368.151C72.2073 371.685 69.3207 375.218 66.434 378.752H64.4133C64.702 376.632 66.434 375.925 67.3 374.512C68.166 373.098 69.898 372.392 69.898 370.271C70.764 369.918 71.9187 370.271 71.0527 368.505C70.764 368.858 70.4753 369.565 69.898 370.271C69.3207 370.271 68.7433 370.271 67.8773 370.271C66.1453 373.805 62.6813 373.805 60.372 376.278C58.0627 379.105 54.8873 379.812 52.2893 382.285H44.2067C43.6293 382.992 43.3407 383.345 42.7633 384.052C41.0313 384.052 39.0107 384.052 37.2787 384.052C36.7013 384.759 36.4127 385.112 35.8353 385.819C34.392 385.819 32.9487 385.819 31.794 385.819C31.2167 383.699 30.6393 381.932 28.6187 380.518H26.0207C25.4433 379.812 24.5773 378.752 24 378.045V369.565C24.5773 368.858 24.866 368.505 25.4433 367.798V363.558C26.8867 363.558 27.7527 361.791 28.6187 360.378C29.7733 358.965 31.5053 358.611 32.3713 357.551V355.784C33.2373 355.431 34.1033 354.724 35.258 354.018V352.251C37.2787 350.838 39.8767 348.718 41.32 345.538C42.7633 342.357 44.784 339.884 46.8047 337.411H48.248C48.5367 334.584 50.2687 332.817 52.0007 331.05C53.7327 329.284 55.4647 327.87 57.4853 326.104C56.6193 325.75 55.7533 325.397 55.176 325.397C54.5987 326.104 54.0213 326.457 53.444 327.164H51.1347C50.846 327.517 50.5573 327.87 49.98 328.224C49.6913 328.577 49.114 328.577 48.8253 328.93C48.8253 327.87 49.114 326.81 48.248 325.75C47.6707 326.104 47.382 326.81 46.516 327.517H41.32C40.7427 328.224 40.454 328.577 40.1653 328.93H35.258C35.258 327.517 34.9693 326.104 34.9693 324.337C33.8147 323.984 32.0827 324.337 31.2167 323.277C30.3507 322.217 29.196 322.57 28.33 321.864C28.0413 320.097 27.464 318.683 28.6187 317.27C29.7733 316.21 29.196 314.797 29.196 313.383C29.4847 311.97 30.928 311.617 30.6393 309.85C30.6393 309.497 30.062 309.143 29.7733 308.79C29.7733 309.143 29.196 309.497 28.6187 310.203C28.33 309.143 28.33 308.437 28.0413 307.73C28.6187 307.023 28.9073 306.316 29.4847 305.963V304.196C31.2167 302.076 32.66 300.31 34.392 298.19H36.4127C36.124 298.896 35.8353 299.603 35.5467 300.31C35.258 300.663 35.258 301.37 35.258 301.723C34.392 302.076 33.2373 301.723 34.1033 303.49C34.392 303.136 34.6807 302.43 35.258 301.723C35.8353 301.723 36.4127 301.723 37.2787 301.723C39.588 298.896 41.8973 296.07 44.2067 293.243C44.784 293.243 45.0727 293.243 45.3613 293.243L52.0007 285.116C52.8667 284.763 53.444 284.763 54.31 284.409C54.5987 283.349 54.8873 282.289 55.176 281.583C56.042 281.229 56.6193 281.229 56.908 281.229C58.3513 279.462 59.7947 277.696 60.9493 276.282C61.5267 275.576 61.5267 275.576 60.6607 274.869H57.774C56.908 275.929 56.042 276.989 55.7533 277.342C54.0213 278.402 52.8667 279.109 51.712 279.816C51.712 278.756 52.0007 277.696 51.1347 276.636C50.5573 276.989 50.2687 277.696 49.4027 278.402C47.6707 278.402 45.9387 278.402 44.2067 278.402C43.918 278.402 43.918 278.049 43.6293 278.049C43.6293 277.342 43.3407 276.636 43.3407 275.929C42.4747 274.516 41.32 275.576 40.1653 275.222C39.2993 273.809 37.856 273.809 36.7013 272.749C36.4127 267.449 36.4127 267.449 39.2993 262.502C39.2993 262.149 39.0107 262.149 39.0107 261.795C38.4333 261.442 37.856 261.442 37.2787 261.089C36.4127 260.029 36.99 258.262 36.99 257.202C37.5673 256.495 37.856 256.142 38.1447 255.435C36.99 253.668 35.5467 254.729 34.1033 254.022C34.1033 254.022 33.526 253.315 32.9487 252.608C31.794 252.255 30.6393 253.315 29.7733 251.902C30.928 249.428 31.794 246.602 33.8147 244.835C34.9693 243.775 36.124 242.008 37.2787 240.595C38.722 239.181 39.2993 237.061 41.6087 236.708C43.052 236.355 43.3407 233.528 45.3613 233.528C45.9387 233.528 46.8047 232.468 47.382 231.408C48.5367 229.288 50.5573 228.581 52.2893 227.168C53.444 226.461 54.5987 226.108 55.7533 224.694C56.908 223.281 57.4853 221.514 59.506 221.161C60.9493 221.161 61.5267 218.334 63.2587 217.981C64.9907 217.628 65.568 215.507 67.0113 214.447C67.0113 214.801 67.8773 214.801 68.166 214.447C69.3207 213.387 70.1867 211.974 71.0527 210.914C72.2073 209.854 73.362 209.501 74.8053 208.441H77.1147C77.692 206.321 78.558 204.554 80.29 203.141H83.1767C83.4653 202.434 83.4653 201.727 83.754 200.667C85.486 199.607 87.218 198.547 88.084 196.427C89.5273 196.78 88.95 198.194 89.2387 199.254C90.3933 200.314 90.682 197.487 91.8367 197.84C92.414 197.84 93.28 196.427 94.146 196.427C95.3007 196.427 96.4553 195.72 97.3213 197.134C96.744 197.84 96.4553 198.194 95.878 199.254C96.744 199.607 97.61 199.607 98.476 199.96C98.7647 198.194 98.7647 196.427 99.0533 195.014C100.785 195.72 101.074 198.194 102.806 198.194C102.517 199.254 101.94 199.96 101.363 201.02C101.94 201.374 102.517 201.374 103.383 201.727C104.249 200.314 105.115 199.254 106.27 197.487C107.425 199.254 108.291 200.314 109.157 202.08C110.023 201.374 110.889 201.02 112.043 199.96C112.621 199.96 114.064 199.254 115.219 200.667C114.641 201.374 114.353 201.727 113.775 202.434C114.064 202.787 114.064 203.141 114.353 203.141C115.507 203.141 117.528 202.08 120.126 199.96C121.569 199.96 122.724 199.96 124.167 199.96C124.456 199.96 124.456 199.607 124.745 199.254C124.456 198.547 124.167 198.194 123.59 197.487C125.899 196.074 127.92 195.014 129.941 193.6C131.384 192.187 133.405 194.307 134.848 192.187C134.271 191.48 133.982 191.127 133.405 190.42C133.693 190.42 133.982 190.067 133.982 190.067C134.848 190.067 135.714 190.067 137.446 189.714C138.889 187.593 140.621 185.12 142.065 183C144.663 183 145.529 184.413 146.106 186.18C145.24 186.533 144.085 186.533 145.24 187.947C145.529 187.593 145.817 186.887 146.395 186.18C147.261 186.18 148.415 186.18 149.57 186.18C150.436 185.12 151.302 184.06 152.168 183H159.673C159.962 183.707 160.251 184.767 160.539 186.18C161.117 185.827 161.405 185.12 161.983 184.767H167.756C169.488 186.887 167.467 187.593 166.89 189.36C167.467 189.714 168.045 189.714 168.911 190.067C169.199 191.127 169.777 192.187 170.065 193.247H172.952C173.529 193.954 173.818 194.307 174.395 195.014C174.684 194.66 174.973 194.307 175.55 193.6C176.993 192.54 179.014 194.307 180.169 191.48C181.323 192.54 180.457 193.6 180.746 194.66H176.993C176.993 196.074 174.973 196.074 174.973 198.194C174.107 198.194 173.529 198.547 173.818 199.96C172.952 200.314 171.797 199.96 172.663 201.727C172.952 201.374 173.241 200.667 173.818 199.96C174.684 199.96 174.973 199.607 174.973 198.194C177.282 198.9 178.725 196.074 180.457 195.72C180.457 195.72 180.457 195.367 180.457 195.014C182.478 195.367 181.612 192.894 182.189 192.187C183.344 191.48 184.499 190.774 185.653 190.067C186.231 191.48 186.808 192.894 187.385 194.307C187.097 194.66 186.808 195.367 186.231 195.72C186.519 196.074 187.097 196.427 187.385 196.427C187.674 196.427 192.581 192.894 192.87 192.187C192.581 191.48 192.004 191.127 191.715 190.42C193.159 189.36 193.159 189.36 195.179 191.127H200.664C200.953 191.834 200.953 192.54 201.241 192.894C201.53 193.247 201.53 193.954 201.819 194.307C202.396 193.954 202.685 193.247 203.262 192.54C205.283 192.54 207.592 192.54 209.901 192.54C210.19 192.54 210.19 192.894 210.479 192.894C211.633 194.66 209.613 195.72 209.613 197.134C210.479 197.487 211.345 197.84 212.211 198.194C211.922 199.607 211.633 200.314 211.056 200.667C212.499 203.141 213.365 200.314 214.809 200.314C215.675 201.727 215.097 202.787 215.097 204.201C213.943 205.614 212.211 207.027 212.211 209.501C209.613 211.974 208.458 215.861 204.994 216.921C204.705 216.921 204.705 217.274 204.417 217.274C202.396 219.394 200.953 222.221 198.355 223.634C196.045 225.048 194.313 227.874 192.004 230.348H190.849C189.695 231.408 188.829 233.175 187.674 233.528C185.942 233.881 185.365 235.295 184.499 236.355C183.344 237.415 183.055 239.181 181.323 238.828C181.035 238.828 180.746 239.535 180.169 239.888C179.303 240.948 178.725 242.008 177.571 242.715C176.705 243.422 175.55 243.775 174.684 244.482C174.107 245.188 172.952 245.542 173.241 246.955C172.375 247.308 171.22 246.955 172.086 248.722C172.375 248.368 172.663 247.662 173.241 246.955C174.395 246.955 175.839 246.955 177.282 246.955C177.282 249.075 175.839 248.368 174.973 249.075C174.107 250.135 173.529 250.842 172.663 251.902H169.777C168.622 254.375 166.313 254.729 164.869 256.495C163.137 258.262 161.117 258.969 159.385 260.382C157.653 261.795 156.209 263.209 155.343 265.329C153.323 263.915 152.457 267.095 150.725 267.095C149.859 267.095 148.415 268.509 148.415 270.276C147.549 270.276 146.972 270.629 146.972 272.042C146.395 272.042 145.529 271.689 145.24 272.042C144.951 272.396 144.663 273.102 144.374 273.456C143.508 273.809 142.353 273.456 143.219 275.222C143.508 274.869 143.797 274.162 144.374 273.456C144.663 273.456 145.529 273.809 146.106 273.456C146.395 273.102 146.683 272.396 146.972 271.689C147.838 271.689 148.415 271.336 148.415 269.922C150.436 271.336 151.302 268.156 153.034 268.156C153.9 268.156 155.343 266.742 155.343 264.975H159.096C159.385 263.915 159.673 263.209 159.962 261.795C160.828 261.795 161.983 261.795 163.137 261.442C164.581 260.029 165.447 257.909 167.467 257.909C169.199 255.435 172.375 255.789 174.107 252.962C175.839 250.488 178.725 250.135 180.746 248.368C182.189 246.955 184.21 246.248 185.942 245.188C186.231 245.188 186.231 244.835 186.519 244.482H189.406C189.983 243.775 190.849 242.362 191.715 241.655C192.581 240.595 193.736 241.301 194.602 239.888C195.179 238.828 196.045 237.768 197.2 237.768C198.066 237.768 198.932 236.355 201.241 234.941C201.53 234.235 203.262 232.468 204.705 230.348C204.417 229.995 204.128 229.288 203.551 228.935C204.128 227.874 205.283 228.228 205.86 228.228C206.437 228.228 207.015 227.874 207.592 227.168C208.458 226.461 209.035 226.108 210.19 227.168C209.901 227.874 209.324 228.935 209.035 229.641C208.747 231.761 210.19 232.115 211.345 233.175C211.922 232.468 212.788 231.761 213.365 230.701C212.788 229.995 212.499 229.641 211.922 228.935C212.788 227.521 214.231 228.581 215.386 228.228C215.963 227.874 216.252 227.168 216.829 226.461C217.695 227.521 218.85 228.581 219.716 229.641C220.005 229.288 220.582 228.581 220.871 228.228C222.603 227.874 224.335 227.521 226.067 228.581C225.489 229.288 225.201 229.995 224.623 230.348C225.489 231.761 226.933 230.701 227.799 231.055C228.376 230.348 228.665 229.995 229.242 229.288C230.685 229.288 232.417 229.288 234.149 229.288C233.572 230.701 232.995 231.761 232.706 232.468C232.706 233.175 232.706 233.528 232.995 233.881C234.727 236.001 236.17 237.768 237.902 239.888C237.613 241.655 236.459 242.362 235.593 243.422C234.727 244.835 233.572 245.895 232.706 246.955V250.135C232.129 250.488 231.551 250.488 229.531 251.548C229.531 251.548 228.665 252.962 227.799 254.375C226.644 256.142 225.489 258.262 223.757 258.969C222.025 259.675 220.871 261.795 219.427 262.502C217.984 263.209 216.829 263.915 216.252 264.975C214.231 268.509 210.479 269.569 208.458 272.749C208.169 273.102 207.015 273.102 206.726 273.456C204.994 275.576 203.262 277.342 200.953 279.109C198.932 280.523 197.777 282.996 196.045 284.763C194.025 284.409 193.159 286.529 192.004 287.943C190.849 289.709 188.829 289.709 187.674 291.476C186.519 292.889 185.653 294.303 184.21 295.716C182.767 297.13 181.035 297.483 179.88 299.25C179.014 300.663 177.571 302.076 176.416 303.49H175.261C173.241 305.963 171.22 308.79 168.911 310.203C166.313 311.97 165.158 315.503 162.849 316.563C159.962 317.977 158.519 320.804 156.209 322.924C157.075 324.337 158.23 323.63 159.096 323.984C159.385 325.397 158.23 326.104 157.653 326.457C155.055 327.517 153.9 330.697 151.013 331.05C149.57 333.877 146.395 334.231 144.663 336.704C144.085 337.764 142.353 337.057 141.776 338.471C139.178 339.177 137.735 341.297 136.58 344.124C136.003 344.124 135.137 343.771 134.848 344.124C134.559 344.477 134.271 345.184 133.982 345.891C133.116 345.891 132.539 346.244 132.827 347.658C131.961 348.011 130.807 347.658 131.673 349.424C131.961 349.071 132.25 348.364 132.827 347.658C133.693 347.658 133.982 347.304 133.982 345.891C134.559 345.891 135.425 346.244 135.714 345.891C136.003 345.538 136.291 344.831 136.58 344.124C138.889 344.831 140.333 342.711 142.065 341.651C143.508 340.591 144.951 339.177 146.395 338.117C147.549 337.411 148.993 337.411 149.859 335.644C150.436 333.877 152.168 334.231 153.034 333.171C154.189 331.404 155.921 330.697 157.364 329.637C158.807 328.93 160.539 328.577 161.117 326.81C161.694 325.044 163.426 325.75 164.581 324.69C165.735 323.63 167.179 322.924 168.333 321.864C170.354 320.097 172.952 319.037 174.973 317.27C176.993 315.857 179.014 315.503 180.457 313.383C180.457 313.03 180.746 313.03 181.035 312.677C182.478 311.97 184.21 311.263 185.653 310.203C187.097 309.143 187.963 307.023 189.983 306.67C190.272 306.67 190.849 305.61 190.849 305.61C192.581 305.963 192.87 303.843 194.313 303.843C195.757 303.843 196.334 301.37 197.777 302.076C199.509 299.25 202.685 298.543 204.417 295.363H207.303C207.881 294.303 208.747 293.243 209.613 292.536C210.19 291.829 211.345 291.829 211.922 291.123C212.788 290.063 214.52 290.416 215.386 288.649C215.963 287.236 217.695 286.883 218.561 286.176C220.582 284.763 222.891 283.703 224.912 282.289C225.778 281.583 226.933 281.936 228.376 281.583C228.376 280.876 228.665 280.169 228.953 279.109C229.531 278.756 230.397 278.756 230.974 278.049C231.263 277.696 231.263 276.989 231.551 276.636C233.572 276.989 232.706 274.516 233.283 273.809C234.149 272.749 235.304 273.456 236.459 273.456C237.036 274.162 237.902 275.222 238.479 275.929C238.191 276.636 237.613 276.989 237.036 278.049C237.613 278.402 238.191 278.756 238.768 278.756C240.789 277.696 241.077 275.576 241.943 273.456C242.809 273.456 243.675 273.456 244.83 273.456C245.407 274.162 245.696 274.516 246.273 275.222C248.294 275.222 250.315 274.869 252.624 275.576C252.047 276.636 251.469 276.989 251.181 277.696C253.49 278.756 253.49 279.109 255.222 277.696C256.665 276.636 257.82 276.989 258.975 277.342C260.129 279.109 258.686 280.169 257.82 281.583C258.975 281.936 259.552 281.936 260.129 282.289C261.284 283.703 262.727 284.763 263.593 286.883C263.305 287.589 263.305 288.296 263.016 288.649C261.284 290.769 259.552 293.243 257.531 295.363C256.377 296.776 255.222 298.543 254.067 299.25C252.047 299.956 251.181 302.076 250.026 303.136C248.871 304.196 248.294 306.316 246.273 305.963C245.119 307.377 243.964 308.79 242.809 310.203C241.943 311.263 240.211 310.91 239.345 312.677C238.479 314.797 236.17 314.443 235.015 316.21C234.149 317.623 233.283 319.037 231.263 319.744C229.819 320.45 228.665 322.57 227.221 323.984C226.355 325.044 224.623 324.69 223.757 326.457C223.18 327.87 222.025 327.87 220.871 328.224C219.716 328.93 218.85 330.697 217.695 331.05C216.541 331.404 215.963 332.464 215.097 333.524C213.943 334.584 213.077 336.351 211.345 336.704C209.901 337.057 209.324 339.531 207.592 339.884C206.149 340.237 204.994 342.357 203.839 343.771C204.705 345.184 205.86 344.477 206.726 344.831C206.726 345.184 206.437 346.244 206.437 346.244C204.994 346.244 204.128 348.011 202.685 348.718C202.396 347.658 202.685 346.244 201.241 347.304C201.53 347.658 202.107 348.011 202.685 348.718C202.107 349.424 201.241 350.131 200.375 350.484C199.509 351.544 198.932 352.251 198.066 353.311C196.045 352.958 194.602 354.371 192.87 355.078C191.715 355.784 190.561 356.491 190.272 358.258C188.251 357.904 186.519 358.965 186.231 361.791C185.653 361.791 184.787 361.438 184.499 361.791C184.21 362.145 183.921 362.851 183.633 363.205C182.767 363.558 181.612 363.205 182.478 364.971C182.767 364.618 183.055 363.911 183.633 363.205C183.921 363.205 184.787 363.558 185.365 363.205C185.653 362.851 185.942 362.145 186.231 361.438C188.251 361.791 189.983 360.731 190.272 357.904H194.313C195.179 356.844 196.045 355.784 197.2 354.371H199.509C200.375 353.311 201.241 352.251 202.107 351.191H204.994C205.86 350.131 206.437 348.718 207.303 347.658H209.901C211.922 346.244 214.231 345.538 215.675 342.711C218.561 342.711 220.582 340.591 223.18 339.531C223.469 339.884 223.757 340.237 224.623 340.944C224.912 339.884 225.201 338.824 225.489 337.411C226.355 337.411 227.51 337.411 228.665 337.057C229.531 335.997 230.397 334.937 231.263 333.877C234.727 334.584 237.325 329.637 241.077 330.344C241.943 329.284 243.098 328.224 243.964 326.81H246.562C247.139 326.104 247.717 325.75 248.294 324.69C249.16 325.397 250.026 325.75 251.181 326.457C251.181 325.75 251.469 324.69 251.469 323.984C253.201 322.924 254.933 321.157 257.531 321.51C257.82 322.57 258.397 323.63 258.686 324.69C260.129 323.63 261.573 322.57 263.305 321.51H267.057C267.346 321.157 267.635 320.804 268.212 320.097C270.521 320.45 270.233 323.277 271.099 324.69C271.676 324.337 271.965 323.63 272.542 322.924H276.872C277.161 324.337 277.161 326.104 277.738 327.517C278.315 328.577 278.893 329.637 278.893 330.697C279.759 332.11 281.779 330.697 281.491 333.171C281.491 333.524 281.202 334.231 281.202 334.584C278.893 337.764 276.295 340.591 273.985 343.417C272.831 344.831 272.253 346.598 270.233 346.951C268.789 346.951 268.212 350.131 266.48 350.131C265.903 350.131 265.325 350.838 264.748 351.191C263.305 352.251 262.727 354.724 260.418 355.078C258.686 355.431 258.397 358.611 256.088 358.611C255.222 358.611 254.356 360.378 253.49 361.438C252.913 362.145 251.758 362.145 251.181 362.851C248.583 366.385 244.83 368.151 242.232 371.685C241.366 373.098 239.345 373.098 238.479 374.865C237.613 376.278 236.459 377.338 234.727 378.045C233.861 378.398 234.438 380.518 233.283 381.578C232.417 382.285 231.84 382.638 230.974 382.992C230.397 382.992 230.108 384.052 229.531 384.759C228.953 385.465 228.376 386.172 227.221 386.525C225.778 386.879 224.912 387.939 224.623 389.705C223.757 390.059 222.603 388.999 222.025 390.765C223.757 391.472 223.757 391.472 224.623 389.705C225.489 389.705 226.355 389.705 227.221 389.352C227.51 390.412 227.221 391.825 228.665 390.765C228.376 390.412 227.799 390.059 227.221 389.352C227.51 388.999 227.51 388.292 227.799 388.292C228.665 387.585 229.819 387.232 231.551 386.525C232.129 386.525 233.861 386.525 235.304 386.172C235.593 385.112 235.593 384.405 235.881 383.345C236.459 383.345 237.036 382.992 237.902 382.638C238.191 382.285 238.768 381.578 239.345 381.225H241.943C244.83 377.692 245.407 377.338 249.16 376.278C249.449 376.278 249.737 376.278 249.737 376.278C252.047 374.158 254.645 373.452 257.243 372.392C259.263 371.685 261.284 370.271 262.727 367.445C263.593 368.151 264.459 368.505 265.614 369.211C265.614 368.505 265.903 367.445 265.903 366.738C267.635 365.678 269.367 363.911 271.965 364.265C272.542 363.911 272.831 363.205 273.408 362.498H276.006C276.583 361.791 276.872 361.438 277.449 360.731C277.738 361.085 278.027 361.438 278.604 362.145C280.047 361.438 281.779 361.085 282.934 359.318C284.089 357.198 286.398 357.904 287.553 355.431C287.841 356.491 288.13 357.551 288.419 358.611C288.707 359.318 288.996 359.318 289.285 358.611C290.151 357.198 291.883 357.904 292.749 356.138C293.326 355.078 293.615 355.431 296.501 356.491C295.924 357.198 295.635 357.551 295.058 358.611C295.924 358.965 296.501 358.965 297.079 359.318C297.656 359.318 298.233 359.318 299.388 359.671C298.811 360.731 298.522 361.438 298.233 362.145C299.677 363.205 301.409 362.498 302.852 362.851C303.429 362.145 303.718 361.791 304.295 361.085C305.45 362.145 304.584 363.911 304.873 365.325C305.739 365.678 306.605 366.385 307.471 366.738C306.316 369.211 305.161 372.038 303.429 374.158C303.429 376.632 301.409 377.692 300.254 379.458C297.367 379.812 296.213 382.992 294.481 384.759C291.883 387.585 289.862 390.412 286.975 392.885C285.821 395.005 283.511 398.892 280.913 402.072C278.604 404.899 276.006 408.079 273.697 410.906C273.119 411.613 271.965 411.966 272.542 413.379C271.676 413.733 270.521 413.379 271.387 415.146C271.676 414.793 271.965 414.086 272.542 413.379C273.119 413.379 273.985 413.733 274.851 413.026C277.738 410.906 280.913 409.139 283.8 407.019C284.377 406.666 285.532 406.666 286.975 406.666C287.553 405.606 288.419 404.192 288.707 403.486H291.594C293.037 402.426 294.481 402.072 295.347 401.012C296.501 399.246 298.522 401.012 299.677 399.246C300.543 398.186 301.986 397.832 303.429 396.772H306.893C307.471 396.065 308.048 395.712 308.625 395.005H311.512C312.089 393.945 312.378 392.885 312.955 391.472C313.533 392.179 314.11 392.532 314.399 393.239C315.553 393.592 316.131 392.532 316.997 392.179C317.574 391.472 318.44 391.472 319.306 391.119C319.595 390.059 319.595 389.352 319.883 388.292C320.461 388.999 321.038 389.352 321.615 390.059C322.193 389.705 322.481 388.999 323.059 388.645C323.925 389.705 325.079 390.765 325.945 392.179C326.523 391.825 327.1 391.825 327.966 391.472C327.389 390.765 326.811 390.059 326.523 389.352C327.966 387.585 328.832 388.645 329.987 390.059C331.141 390.059 332.296 390.412 333.162 390.412C333.451 391.472 333.739 392.532 334.028 393.592H335.471C336.049 393.239 336.337 392.532 336.915 392.179C338.069 393.592 339.224 395.005 340.379 396.419C340.379 396.419 340.379 397.126 340.379 397.832C339.801 399.599 338.069 400.659 336.915 402.426C335.183 404.899 333.451 407.019 331.43 409.139C329.698 410.906 328.543 414.439 325.657 414.439C323.925 416.559 322.481 418.326 320.749 420.446C319.017 422.566 317.285 424.686 315.265 427.16C318.729 428.573 318.729 428.573 322.77 426.453C325.079 427.16 326.811 424.333 329.121 424.333C329.987 424.333 331.141 422.92 332.007 422.92C333.451 422.566 334.028 420.446 335.471 421.153C336.915 421.859 337.492 419.386 338.935 419.386C339.513 419.386 340.09 418.679 340.956 417.619C341.822 417.619 343.265 417.973 344.42 417.619C345.863 416.913 347.018 415.499 348.75 416.206C349.616 414.793 351.348 414.793 352.214 413.733C353.369 412.319 354.812 412.673 355.967 412.673C356.544 411.966 357.121 411.613 357.41 410.906H361.163C361.74 410.553 362.317 409.139 363.183 409.139C366.07 409.492 368.091 405.959 370.977 407.372C372.132 405.252 374.153 405.959 375.885 405.252C376.173 404.899 376.462 404.546 377.039 404.192H379.637C380.215 403.486 380.792 403.132 381.081 402.426H385.122C385.411 402.072 385.699 401.719 386.277 401.012C387.143 401.012 388.297 400.659 389.163 400.659C389.452 400.306 389.741 399.952 390.318 399.246H395.514C396.091 398.539 396.669 398.186 397.246 397.479H404.174C404.751 396.419 405.617 395.005 406.483 393.592C407.349 394.299 407.638 395.005 408.215 395.359C408.504 395.005 408.793 394.652 409.081 394.299C409.37 394.299 409.947 393.945 410.236 393.945C416.009 393.945 421.783 393.945 427.267 393.945L428.422 395.359H436.505C437.082 396.065 437.659 396.419 438.525 397.126H444.01C444.587 397.832 444.876 398.186 445.165 398.539H449.206C450.072 399.952 451.515 400.306 453.247 401.366C451.804 402.072 450.938 402.426 450.072 402.779C450.938 404.192 452.67 404.192 453.825 405.959C454.402 407.019 455.845 407.726 457 408.432C456.711 408.786 456.423 409.139 455.845 409.846C456.134 410.553 456.423 411.259 456.711 411.966C455.557 413.026 454.402 412.319 453.536 412.319C452.959 411.613 452.381 411.259 452.093 410.553H444.01C443.721 410.199 443.144 409.492 442.855 409.139H437.371C436.793 408.432 436.505 408.079 435.927 407.372H426.113C425.535 406.666 425.247 406.312 424.958 405.959H413.989C413.7 406.312 413.123 407.019 412.545 407.726H404.174C403.885 408.079 403.597 408.432 403.019 409.139H397.535C396.957 409.846 396.669 410.199 396.38 410.553C395.225 411.613 393.493 410.199 392.627 411.613C391.761 413.026 390.607 412.319 389.452 412.673C388.586 412.673 387.72 412.673 386.854 413.733C385.699 415.499 383.101 413.379 382.235 416.206H378.194C377.617 416.913 377.039 417.266 376.751 417.973H374.153C373.575 418.679 372.998 419.033 372.709 419.739H370.111C369.823 420.093 369.534 420.799 368.957 420.799C366.07 420.799 363.761 423.626 360.874 422.92C359.431 423.98 357.699 425.04 355.967 426.453H352.214C351.637 427.16 351.059 427.513 350.771 428.22C349.905 428.22 349.039 428.22 347.884 428.22C347.595 428.573 347.307 428.926 346.729 429.633C344.997 429.633 342.977 430.34 341.533 431.753C340.09 433.166 338.358 433.52 336.626 433.873C335.471 436.347 332.585 433.873 331.43 437.053H327.389C326.811 437.76 326.234 438.113 325.945 438.82H321.327C320.749 439.527 320.172 439.88 319.883 440.587H311.801L310.646 442H306.605C305.45 441.293 304.007 440.233 301.986 438.82H298.522C297.367 437.053 296.213 435.286 294.769 433.166C295.058 432.813 295.347 432.106 296.213 430.693V427.513C299.099 423.98 301.986 420.446 304.873 416.913C305.45 416.206 306.027 415.853 305.739 414.793C306.605 414.439 307.759 414.793 306.893 413.026C306.605 413.379 306.316 414.086 305.739 414.793C305.161 414.793 304.584 414.793 303.718 414.793C302.852 415.853 301.986 416.913 300.831 418.326C300.254 418.326 299.099 417.973 298.522 418.326C297.079 419.386 295.347 420.093 293.903 421.153C292.46 421.153 290.439 419.739 289.573 421.859C287.841 421.859 286.109 423.273 284.955 424.333C283.223 426.1 280.625 424.333 279.47 427.16C277.449 426.1 276.006 428.22 274.563 428.926C273.119 429.633 271.965 431.046 270.233 430.693C269.655 430.693 269.078 431.753 268.501 432.106H264.748C264.171 432.813 263.593 433.166 263.016 433.873H250.603C250.026 433.52 249.737 432.813 249.16 432.106H246.273C245.119 430.34 242.521 430.34 241.366 427.866C240.5 424.686 242.232 422.566 243.387 420.446C244.253 418.679 245.407 416.913 246.273 415.146C247.139 413.379 248.871 411.966 250.026 410.199C250.603 409.846 251.181 409.846 252.047 409.492C252.047 408.786 252.335 408.079 252.335 407.019C252.913 406.312 253.49 405.606 254.067 404.899C254.645 404.899 255.222 404.546 255.799 404.546C256.088 403.486 256.377 402.426 256.665 401.366H258.109C261.861 396.419 265.903 391.825 269.655 386.879C269.367 386.525 269.078 386.172 268.789 385.819C267.346 386.525 265.903 386.879 264.748 387.939C263.882 388.645 263.016 389.705 262.15 390.765C260.129 390.059 258.686 391.472 257.243 392.532C254.933 394.299 252.047 395.005 249.737 397.479C246.851 397.479 244.541 399.599 241.943 401.012C238.191 403.132 234.149 405.606 230.397 407.726C229.242 408.432 228.376 409.846 227.221 410.906H224.623C223.469 413.379 221.448 414.439 219.427 415.499C217.695 416.559 216.252 418.326 213.943 417.619C211.633 419.033 209.324 420.446 207.015 422.213C205.571 422.919 204.417 423.626 202.973 424.686C200.953 425.746 199.221 427.513 197.2 427.866C194.891 428.22 193.159 430.34 190.849 429.986C190.561 429.986 190.272 430.693 189.695 431.046H177.282C176.705 431.753 176.127 432.106 175.55 432.813C174.395 432.106 172.952 431.4 171.22 430.34C171.22 429.986 170.931 428.926 170.643 427.866C170.065 427.866 169.488 427.513 168.622 427.513L166.601 425.04V416.559C166.89 415.499 168.045 415.499 168.045 414.086C169.777 414.086 170.065 411.613 171.22 411.259C172.663 410.553 174.107 409.846 174.973 408.432C175.261 407.372 175.261 406.666 175.261 405.959C176.127 405.606 176.993 405.252 177.859 404.899C177.859 403.839 177.859 403.486 177.859 402.779C178.437 402.426 179.014 402.426 179.591 402.072C182.478 398.539 185.076 395.359 187.385 392.532C188.54 392.179 189.117 391.825 189.983 391.825C192.004 388.292 195.468 386.172 196.911 382.285C197.489 382.285 198.355 382.638 198.643 382.285C198.932 381.932 199.221 381.225 199.509 380.872C200.375 380.518 201.53 380.872 200.664 379.105C200.375 379.458 200.087 380.165 199.509 380.872C199.221 380.872 198.355 380.518 197.777 380.872C197.489 381.225 197.2 381.932 196.911 382.638H194.891C192.87 384.405 191.715 387.585 189.117 387.939C187.385 390.059 185.653 392.179 183.921 394.299H181.901C181.901 393.592 181.901 393.239 181.612 392.532C182.478 392.179 183.633 392.532 182.767 390.765C182.478 391.119 182.189 391.825 181.612 392.532C180.746 392.532 180.457 392.885 180.457 394.299C179.88 394.299 179.591 393.945 179.014 394.299C175.839 396.065 172.375 397.832 169.488 400.306C167.467 402.072 165.735 403.839 163.137 404.546C162.271 406.666 159.673 405.959 158.807 408.079C158.519 408.432 158.23 409.139 157.941 409.139C156.209 410.553 153.611 410.553 152.168 412.673C150.725 414.439 148.993 415.499 147.261 416.206C145.529 416.913 144.951 419.386 142.931 419.739C141.487 420.093 140.044 420.799 138.889 422.213C136.58 425.04 133.405 426.1 130.518 427.866C129.363 428.573 128.497 430.34 127.054 429.986C126.765 429.986 126.477 430.693 126.188 431.046C123.59 433.52 120.415 435.286 116.373 436.7C115.796 437.053 115.219 437.76 114.641 438.467H103.672C103.095 439.173 102.806 439.527 102.229 440.233H97.8987C97.0327 438.82 96.4553 437.407 95.3007 435.286C94.146 434.58 92.414 433.52 90.682 432.813V424.333C90.9707 423.626 91.548 423.273 92.1253 422.566V420.093C92.9913 420.093 93.5687 419.739 93.5687 418.326C94.146 417.973 94.7233 417.619 95.3007 417.266C99.9193 411.613 104.538 405.959 109.445 399.952C110.023 399.246 110.023 398.539 110.311 397.832C111.177 397.479 112.332 398.539 112.909 396.772C111.177 396.065 111.177 396.065 110.311 397.832H108.291C106.27 399.599 105.115 402.426 102.517 403.132C101.074 403.486 99.6307 405.606 99.342 407.019C99.0533 408.786 98.1873 409.846 97.0327 410.906C95.878 412.319 95.3007 414.086 93.5687 414.439V412.319C95.3007 411.966 95.5893 411.259 95.878 410.199C96.744 409.846 97.8987 410.199 97.0327 408.432C96.4553 409.139 96.1667 409.492 95.878 410.199ZM228.953 235.648C228.087 236.001 226.933 234.941 226.355 236.708C228.087 237.415 228.087 237.415 228.665 236.001C229.819 235.648 230.685 235.648 229.819 234.235C229.531 234.588 229.242 234.941 228.953 235.648ZM155.632 186.533C154.766 186.887 153.611 185.827 153.034 187.593C154.766 188.3 154.766 188.3 155.343 186.887C156.498 186.533 157.364 186.533 156.498 185.12C156.209 185.473 155.921 185.827 155.632 186.533ZM41.8973 254.375C42.4747 254.375 43.3407 254.375 43.918 254.375C44.4953 253.315 45.65 252.962 45.65 251.195C45.0727 251.195 44.4953 251.195 43.918 250.842C43.3407 252.255 41.8973 252.608 42.186 254.022C41.32 254.375 40.1653 254.375 41.32 255.789C41.6087 255.435 41.8973 254.729 41.8973 254.375ZM205.571 196.427C204.994 196.427 204.128 196.427 203.551 196.427C202.973 197.487 201.819 197.84 201.819 199.607C202.396 199.607 202.973 199.607 203.551 199.96C204.128 198.547 205.571 198.194 205.283 196.78C206.437 196.427 207.303 196.427 206.437 195.014C206.149 195.367 205.571 196.074 205.571 196.427ZM164.003 188.3H159.673C159.673 189.36 159.673 190.42 159.962 191.127C160.828 191.127 161.117 191.48 161.694 191.48C162.849 190.774 164.003 189.714 163.715 188.3C164.869 187.947 165.735 187.947 164.869 186.533C164.581 186.887 164.003 187.593 164.003 188.3ZM274.274 330.344C275.429 328.93 276.583 327.87 277.449 326.457C277.449 326.457 277.449 326.104 277.449 325.75C276.006 325.397 272.542 327.164 272.253 328.224C271.965 329.637 272.253 330.697 274.274 330.344ZM253.201 282.643C253.201 282.643 253.779 282.996 254.645 283.349C255.222 282.289 255.799 281.229 256.377 280.169C256.377 280.169 255.799 279.816 254.933 279.462C254.356 280.523 253.49 281.583 253.201 282.643ZM446.608 401.012C447.474 402.072 448.34 402.072 449.495 401.012C448.34 399.599 447.474 399.599 446.608 401.012ZM269.078 324.69C268.789 324.337 268.789 323.984 268.501 323.63C268.212 323.984 267.923 323.984 267.923 324.337C267.923 324.69 268.212 325.044 268.501 325.397C268.789 325.397 268.789 325.044 269.078 324.69ZM248.294 329.99C248.005 329.637 248.005 329.284 247.717 328.93C247.428 329.284 247.139 329.284 247.428 329.637C247.428 329.99 247.717 330.344 247.717 330.697C248.005 330.344 248.005 330.344 248.294 329.99ZM293.326 359.671C293.037 360.025 293.037 360.025 292.749 360.378C293.037 360.731 293.326 360.731 293.615 360.731C293.615 360.731 293.903 360.378 294.192 360.378C293.903 360.025 293.615 359.671 293.326 359.671ZM414.566 395.712C414.277 395.359 414.277 395.359 413.989 395.005C413.7 395.359 413.7 395.712 413.7 396.065C413.7 396.065 413.989 396.419 413.989 396.772C414.277 396.419 414.277 396.065 414.566 395.712Z" fill="#FEE3B3"/>
<path d="M166.443 120.828C166.297 121.703 166.549 122.929 167.638 123.017C169.46 123.289 171.066 124.456 173.006 124.317C174.814 124.821 176.537 125.576 178.491 125.205C178.524 125.044 178.666 125.006 178.898 125.02C178.666 125.006 178.543 125.115 178.491 125.205C179.675 125.648 180.768 126.039 181.952 126.483C181.479 126.99 181.059 127.407 180.586 127.914C177.637 127.411 174.664 126.534 171.537 127.068C171.125 126.95 170.733 126.903 170.321 126.785C167.812 125.937 165.105 126.053 162.483 125.919C162.199 125.995 161.897 126 161.542 126.096C160.282 125.368 159.019 125.479 157.647 125.466C156.463 125.023 155.342 125.095 154.097 125.276C152.933 124.904 151.754 124.763 150.51 124.945C150.458 125.035 150.477 125.106 150.444 125.267C150.496 125.177 150.477 125.106 150.51 124.945C149.422 124.856 147.802 123.921 147.653 125.634C147.531 126.884 148.446 128.312 150.296 128.12C150.812 128.058 151.366 128.138 151.9 128.147C152.194 128.676 152.672 128.472 153.098 128.358C153.624 128.902 154.319 128.943 155.015 128.985C155.583 128.833 156.15 128.681 156.699 128.458C156.131 128.61 155.564 128.762 155.015 128.985C156.61 129.546 158.206 130.108 159.952 130.096C160.549 130.621 161.212 130.823 161.992 130.614C162.598 130.604 163.133 130.613 163.757 130.674C163.866 130.796 164.027 130.829 164.169 130.791C164.42 130.876 164.69 131.032 164.87 131.136C166.195 131.541 167.521 131.947 168.846 132.352C168.78 132.674 168.663 133.086 168.597 133.408C166.595 133.031 164.644 132.565 162.614 132.653C157.479 131.367 152.24 131.402 147.016 131.205C145.322 131.126 143.238 130.163 142.237 132.105C141.619 133.487 143.394 134.152 144.403 134.795C144.759 135.84 145.54 135.631 146.339 135.493L146.32 135.422C146.794 136.055 147.457 136.258 148.238 136.049C148.9 136.252 149.563 136.454 150.155 136.676C150.828 137.484 151.75 137.237 152.555 137.402C153.218 137.604 153.861 137.736 154.453 137.958C158.094 139.34 161.786 140.632 165.427 142.014C165.626 142.189 165.877 142.274 166.076 142.449C166.02 143.376 165.03 142.805 164.629 143.293C163.611 143.185 162.594 143.078 161.595 143.041C160.889 142.394 160.104 142.3 159.162 142.476C158.835 142.107 158.391 142.151 157.946 142.194C155.461 141.719 153.075 140.761 150.543 140.679C148.451 140.251 146.349 139.217 144.135 140.038C144.078 139.825 143.969 139.702 143.789 139.598C143.045 138.809 142.128 139.359 141.304 139.124C140.617 138.547 139.894 138.969 139.127 138.946C138.298 138.408 137.442 138.333 136.538 138.651C136.184 138.746 135.81 138.77 135.455 138.866C134.885 140.996 134.885 140.996 133.125 141.239C131.805 141.137 130.484 141.034 129.164 140.932C127.966 140.72 126.712 140.296 125.44 140.941C124.294 140.639 123.13 140.267 121.852 140.609C118.999 140.461 118.999 140.461 119.256 141.989C119.612 143.035 119.897 144.099 121.458 143.681C124.243 144.988 127.295 145.311 130.301 146.027C131.163 146.404 132.076 146.692 132.938 147.069C133.071 147.566 133.204 148.063 133.337 148.559C132.245 149.308 131.434 147.7 130.356 148.218C130.01 147.778 129.532 147.982 129.068 147.954C127.983 147.028 126.616 147.318 125.315 147.287C124.548 147.264 123.762 147.17 122.996 147.147C122.484 146.372 121.539 147.386 120.956 146.629C119.592 146.082 118.267 145.677 116.758 146.005C116.218 145.693 115.664 145.614 115.025 145.785C112.464 145.026 109.81 145.053 107.155 145.08C106.8 145.175 106.445 145.27 106.091 145.365C105.466 145.304 104.841 145.243 104.236 145.253C103.066 144.578 101.685 145.1 101.539 145.976C101.366 147.315 102.625 148.042 103.965 148.216C107.24 149.087 110.379 150.3 113.8 150.296C113.999 150.471 114.269 150.626 114.468 150.801C114.688 152.188 113.632 151.938 112.852 152.147C110.566 151.847 108.209 151.566 105.904 151.195C104.526 150.879 103.144 150.261 101.583 150.68L101.621 150.821C101.602 150.75 101.583 150.68 101.583 150.68C101.28 150.685 100.925 150.78 100.622 150.785C100.371 150.7 100.12 150.615 99.7795 150.478C98.8278 150.049 97.7913 149.87 96.7459 150.226C96.1212 150.166 95.4167 150.658 94.8718 150.044C93.9531 149.454 92.9546 149.417 91.9421 149.612C90.5318 149.458 89.1734 149.213 87.8011 149.201C86.2159 149.245 84.4925 148.49 83.1837 150.134C83.0417 150.172 82.8998 150.21 82.7389 150.177C82.5209 149.931 82.3169 149.453 82.085 149.439C81.1574 149.384 80.0031 149.617 80.0944 150.809C80.1908 152.305 81.1337 153.269 82.8089 153.276C84.939 153.846 87.0171 154.506 89.1473 155.076C92.9627 156.259 96.7782 157.443 100.575 158.555C101.12 159.169 101.763 159.301 102.454 159.04C102.36 159.826 104.153 159.421 103.478 160.591C102.768 160.781 101.969 160.919 101.259 161.109C100.771 160.708 100.531 161.229 100.195 161.395C99.6791 161.457 99.2014 161.661 98.7654 161.169C96.9103 161.058 95.0552 160.946 93.1291 160.854C92.1306 160.817 91.0421 160.729 90.0436 160.692C89.6888 160.787 89.334 160.882 88.9792 160.977C88.7093 160.822 88.3685 160.685 88.0985 160.529C86.9999 159.835 85.8645 160.139 84.7241 160.14C82.5369 159.357 80.2853 160.037 78.0703 159.718C76.352 159.265 74.6008 158.974 72.7888 159.307C71.5876 159.934 70.418 159.258 69.2585 159.189C66.9776 159.191 64.6258 159.213 62.345 159.216C62.1701 159.415 62.0852 159.666 62.0333 159.756C62.0662 159.595 62.1701 159.415 62.345 159.216C61.871 158.582 61.2704 158.895 60.6837 158.976C59.5053 158.836 57.896 158.507 57.8695 160.111C57.8379 161.412 59.2534 161.87 60.6776 161.792C62.5467 161.672 64.5057 161.603 66.3937 161.553C67.1603 161.576 67.9269 161.599 68.7645 161.603C72.305 162.327 75.9151 161.892 79.4504 162.314C81.1219 163.159 82.2572 162.855 83.4166 162.924C85.6089 164.01 87.8745 163.099 90.0895 163.418C91.2401 164.022 92.4135 163.86 93.6578 163.679C94.8882 163.729 96.0476 163.799 97.278 163.849C100.014 164.409 102.691 163.616 105.384 163.731C106.311 163.786 107.196 163.397 107.516 162.323C108.862 159.681 107.171 158.765 105.126 157.944C104.894 157.93 104.662 157.916 104.431 157.902C102.958 157.232 101.655 156.06 99.8573 156.161C99.5164 156.025 99.1755 155.888 98.8156 155.68C98.0527 154.82 97.0352 154.712 95.9848 154.765C95.0141 154.265 94.0244 153.693 93.1247 153.174C93.6061 152.132 94.4019 152.832 95.0076 152.822C97.9651 152.79 100.796 153.704 103.786 153.511C104.43 153.643 105.074 153.775 105.718 153.907C108.017 153.975 110.04 155.562 112.472 154.987C114.668 155.235 116.864 155.483 118.989 155.75C120.551 156.473 122.278 156.39 123.972 156.468C125.251 157.267 126.542 156.693 127.767 156.44C129.47 155.984 129.881 154.961 128.469 153.666C127.715 152.271 126.059 152.335 124.941 151.57C124.808 151.073 124.694 150.647 124.561 150.15C126.733 150.025 128.821 151.29 131.111 150.753C132.801 151.669 134.618 151.638 136.545 151.731C138.628 152.694 140.795 152.265 142.985 152.21C143.894 152.195 145.062 151.73 145.004 150.377C144.875 149.042 144.447 148.016 142.777 148.311C142.507 148.156 142.308 147.981 142.058 147.896C141.72 146.922 140.888 147.221 140.225 147.018C139.159 146.163 137.91 146.041 136.675 145.688C136.263 145.57 134.71 145.453 135.92 144.293C136.858 144.954 137.809 144.243 138.755 144.37C139.347 144.591 139.977 144.955 140.686 144.765C140.899 144.708 141.06 144.741 141.273 144.684C142.844 144.871 144.486 145.04 146.058 145.227C146.592 145.236 147.217 145.297 147.752 145.305C150.1 146.121 152.523 146.08 154.992 145.647C156.465 146.317 157.272 144.504 158.63 144.748C159.994 145.295 161.461 145.663 163.008 145.476C163.799 145.873 164.604 146.038 165.455 145.809C166.663 146.627 167.954 146.053 169.203 146.174C170.363 146.244 170.792 145.292 171.099 144.449C171.387 143.536 171.054 142.864 170.103 142.435C169.653 142.175 169.236 141.754 168.838 141.405C167.02 140.295 165.253 139.095 163.057 138.847C164.265 139.664 165.492 140.552 166.699 141.369C167.111 141.487 167.504 141.534 167.916 141.652C167.973 141.865 168.011 142.007 168.068 142.219C168.158 142.271 168.229 142.252 168.248 142.323C168.158 142.271 168.087 142.29 168.068 142.219C168.011 142.007 167.973 141.865 167.916 141.652C167.504 141.534 167.111 141.487 166.699 141.369C165.492 140.552 164.265 139.664 163.057 138.847C161.485 137.519 159.294 137.574 157.669 136.336C157.687 135.266 159.017 135.974 159.182 135.17C159.698 135.108 160.194 134.975 160.639 134.931C163.906 136.338 167.53 135.671 170.89 136.291C172.704 137.098 174.616 137.423 176.556 137.283C177.2 137.415 177.843 137.547 178.487 137.678C179.363 137.824 180.148 137.918 181.024 138.063L180.877 137.799C182.581 138.483 184.365 138.613 186.177 138.28C187.36 137.583 188.168 136.91 186.756 135.615C184.994 133.577 182.443 133.424 180.062 132.769C179.285 132.141 178.508 131.512 177.463 131.869C176.781 131.595 176.189 131.373 175.507 131.1C175.063 131.143 174.637 131.257 174.291 130.817C174.409 130.405 174.475 130.083 174.592 129.672C175.397 129.836 176.301 129.518 176.987 130.095C178.36 130.107 179.732 130.12 181.104 130.132C183.622 130.446 186.178 130.902 188.71 130.984C190.101 131.068 191.442 132.382 192.974 131.287C193.86 132.038 194.886 131.611 195.865 131.577C198.099 131.967 200.391 132.57 202.485 131.02C203.438 128.331 200.788 128.661 199.665 127.593C200.322 126.352 201.766 127.486 202.537 126.671C204.297 126.428 205.85 127.685 207.624 127.209C208.017 127.256 208.5 127.355 208.893 127.402C209.773 127.85 210.706 128.209 211.637 127.427C211.3 126.452 210.547 126.198 209.762 126.104C209.549 126.161 209.407 126.199 209.175 126.185C206.936 125.492 204.829 124.156 202.34 124.518C200.579 123.621 198.677 123.903 196.854 123.63C190.9 122.412 184.814 121.837 178.766 121.404C175.301 120.964 171.766 120.542 168.302 120.101C167.554 120.15 166.55 119.81 166.443 120.828ZM151.594 133.248C151.4 133.376 151.244 133.646 151.146 134.129C151.263 133.717 151.4 133.376 151.594 133.248ZM150.048 134.575C150.1 134.485 150.081 134.414 150.133 134.324C150.081 134.414 150.081 134.414 150.048 134.575ZM104.025 147.591C104.224 147.766 104.513 147.993 104.802 148.22C104.513 147.993 104.243 147.837 104.025 147.591ZM116.381 148.007C116.234 147.742 115.629 147.752 115.075 147.673C115.629 147.752 116.305 147.723 116.381 148.007ZM114.008 149.936C114.685 149.907 115.343 149.807 115.882 150.118C115.362 149.877 114.685 149.907 114.008 149.936ZM121.422 148.938C121.422 148.938 121.37 149.028 121.389 149.099L121.422 148.938ZM82.5478 152.586C82.0219 152.042 81.8558 151.706 82.0117 151.436C81.9268 151.687 82.0219 152.042 82.5478 152.586ZM70.2876 161.042C72.0249 161.566 73.823 161.464 75.6591 161.504C73.842 161.535 72.0439 161.637 70.2876 161.042ZM100.123 157.155C100.36 157.472 100.668 157.769 100.834 158.105C100.739 157.75 100.45 157.523 100.123 157.155C99.5229 157.468 99.0591 157.44 98.5053 157.36C99.0781 157.511 99.6128 157.52 100.123 157.155ZM92.7179 153.359C92.7991 153.946 93.2299 154.134 93.7317 154.304C93.2109 154.064 92.7991 153.946 92.7179 153.359C92.481 153.042 92.1071 153.066 91.6434 153.039C92.0172 153.014 92.481 153.042 92.7179 153.359ZM101.883 152.652C101.22 152.45 100.629 152.228 99.9469 151.954C98.7596 152.349 97.5292 152.298 96.2608 152.106C97.5102 152.227 98.6886 152.368 99.9469 151.954C100.61 152.157 101.22 152.45 101.883 152.652ZM119.003 155.519C119.003 155.519 118.951 155.608 118.97 155.679L119.003 155.519ZM122.806 150.697C122.943 150.356 123.17 150.067 123.307 149.726C123.17 150.067 123.014 150.337 122.806 150.697ZM142.155 150.532C141.904 150.447 141.654 150.362 141.455 150.187C140.906 150.41 140.324 150.794 139.738 150.875C140.343 150.865 140.835 150.429 141.455 150.187C141.725 150.343 141.904 150.447 142.155 150.532ZM136.004 142.901C135.909 142.547 135.833 142.263 135.738 141.908C135.904 142.244 135.98 142.528 136.004 142.901ZM137.636 142.464C137.598 142.322 137.631 142.161 137.593 142.019C137.631 142.161 137.669 142.303 137.636 142.464C137.797 142.497 137.906 142.62 137.996 142.672C137.977 142.601 137.868 142.478 137.636 142.464ZM143.385 142.064C143.385 142.064 143.347 141.922 143.328 141.852L143.385 142.064ZM138.489 143.376C138.986 143.243 139.378 143.29 139.719 143.427C139.378 143.29 139.005 143.314 138.489 143.376ZM149.59 143.368C148.256 143.497 146.993 143.607 145.677 143.808C146.922 143.626 148.256 143.497 149.59 143.368ZM174.503 133.879C174.082 134.295 173.656 134.41 173.283 134.434C173.675 134.48 174.101 134.366 174.503 133.879ZM201.3 129.436C201.551 129.521 201.731 129.625 201.859 129.819C201.679 129.715 201.551 129.521 201.3 129.436ZM192.061 127.881C192.274 127.824 192.487 127.767 192.7 127.71C192.416 127.786 192.274 127.824 192.061 127.881ZM189.365 128.603C189.304 129.228 189.295 129.763 189.234 130.388C189.324 130.439 189.343 130.51 189.433 130.562C189.343 130.51 189.253 130.458 189.234 130.388C189.295 129.763 189.375 129.209 189.365 128.603ZM196.115 126.262C196.257 126.224 196.309 126.134 196.45 126.096C196.328 126.205 196.257 126.224 196.115 126.262ZM161.068 129.721C159.814 129.297 158.488 128.891 157.234 128.467C157.532 128.159 157.848 127.922 158.217 127.595C157.919 127.903 157.602 128.14 157.234 128.467C158.559 128.872 159.814 129.297 161.068 129.721C161.229 129.754 161.371 129.716 161.513 129.678C161.442 129.697 161.3 129.735 161.068 129.721ZM162.852 129.851C162.904 129.761 162.937 129.6 162.989 129.51C162.956 129.671 162.904 129.761 162.852 129.851ZM167.07 130.547C167.168 130.064 167.286 129.652 167.456 129.15C167.934 128.946 168.468 128.955 168.932 128.983C168.449 128.884 167.934 128.946 167.456 129.15C167.286 129.652 167.187 130.135 167.07 130.547ZM171.336 128.871C171.355 128.942 171.355 128.942 171.355 128.942C171.284 128.961 171.336 128.871 171.336 128.871ZM172.039 131.496C172.92 131.945 174.009 132.034 174.908 132.553C174.028 132.105 172.92 131.945 172.039 131.496ZM170.904 131.801C170.961 132.014 170.999 132.155 171.056 132.368C171.018 132.226 170.961 132.014 170.904 131.801C170.203 131.456 169.333 131.613 168.618 131.501C169.404 131.594 170.222 131.527 170.904 131.801ZM172.039 131.496C171.944 131.142 171.868 130.858 171.844 130.484C171.849 130.787 171.944 131.142 172.039 131.496ZM191.084 125.937C191.098 125.705 191.112 125.473 191.216 125.293C191.112 125.473 191.027 125.724 191.084 125.937ZM186.502 124.731C186.658 124.461 186.762 124.281 186.975 124.224C186.833 124.262 186.658 124.461 186.502 124.731Z" fill="#AE3216"/>
<path d="M346.426 377.713L406.626 262.465H394.296C391.999 262.465 390.79 259.807 392.241 258.056L456.37 179.955C459.15 176.572 464.65 178.687 464.408 183.096L459.875 259.505C459.633 263.854 455.765 267.116 451.353 266.633L442.77 265.666L383.054 394.928C381.482 398.311 378.158 400.425 374.41 400.425H353.739L346.426 377.713Z" fill="#FF9123"/>
<path d="M346.426 377.713L406.626 262.465H394.296C391.999 262.465 390.79 259.807 392.241 258.056L456.37 179.955C459.15 176.572 464.65 178.687 464.408 183.096L459.875 259.505C459.633 263.854 455.765 267.116 451.353 266.633L442.77 265.666L383.054 394.928C381.482 398.311 378.158 400.425 374.41 400.425H353.739L346.426 377.713Z" fill="url(#paint0_linear_3053_15297)" fill-opacity="0.5"/>
<path d="M296.684 296.895L339.174 391.244C341.713 396.801 347.273 400.425 353.378 400.425H375.258C378.159 400.425 380.819 398.854 382.269 396.318L383.055 394.928C380.698 394.928 378.522 393.599 377.494 391.485L320.86 280.646L296.684 296.895Z" fill="#FF9123"/>
<path d="M296.684 296.895L339.174 391.244C341.713 396.801 347.273 400.425 353.378 400.425H375.258C378.159 400.425 380.819 398.854 382.269 396.318L383.055 394.928C380.698 394.928 378.522 393.599 377.494 391.485L320.86 280.646L296.684 296.895Z" fill="url(#paint1_linear_3053_15297)" fill-opacity="0.5"/>
<path d="M326.604 291.821C322.373 288.438 316.147 289.465 313.125 293.935L250.629 387.801C245.612 395.291 237.21 399.821 228.144 399.821H219.38L212.188 379.223C212.188 379.223 270.272 290.25 285.262 276.781C285.262 276.781 300.191 263.371 314.878 273.519C318.746 276.176 321.708 280.042 323.521 284.391L326.604 291.821Z" fill="#F58719"/>
<path d="M326.604 291.821C322.373 288.438 316.147 289.465 313.125 293.935L250.629 387.801C245.612 395.291 237.21 399.821 228.144 399.821H219.38L212.188 379.223C212.188 379.223 270.272 290.25 285.262 276.781C285.262 276.781 300.191 263.371 314.878 273.519C318.746 276.176 321.708 280.042 323.521 284.391L326.604 291.821Z" fill="url(#paint2_linear_3053_15297)" fill-opacity="0.5"/>
<path d="M144.25 323.835C144.25 323.835 154.706 310.788 174.954 308.734C174.954 308.734 184.565 311.996 203.725 346.365C222.885 380.674 235.638 396.378 250.567 387.801L249.358 389.855C245.309 396.62 237.935 400.727 230.077 400.727H221.797C212.731 400.727 204.148 396.378 198.829 389.009C183.96 368.231 153.437 327.036 144.25 323.835Z" fill="#FF9123"/>
<path d="M144.25 323.835C144.25 323.835 154.706 310.788 174.954 308.734C174.954 308.734 184.565 311.996 203.725 346.365C222.885 380.674 235.638 396.378 250.567 387.801L249.358 389.855C245.309 396.62 237.935 400.727 230.077 400.727H221.797C212.731 400.727 204.148 396.378 198.829 389.009C183.96 368.231 153.437 327.036 144.25 323.835Z" fill="url(#paint3_linear_3053_15297)" fill-opacity="0.5"/>
<path opacity="0.63" d="M400.673 209.488C400.613 209.488 400.613 209.488 400.673 209.488C400.492 209.488 400.371 209.307 400.371 209.186L400.794 205.441C400.794 205.26 400.975 205.139 401.096 205.2C401.278 205.2 401.399 205.381 401.338 205.502L400.915 209.247C400.915 209.368 400.794 209.488 400.673 209.488Z" fill="white"/>
<path opacity="0.63" d="M347.124 256.602C347.064 256.602 347.003 256.602 346.943 256.542C346.822 256.421 346.761 256.24 346.882 256.119L399.829 187.32C400.373 186.596 401.28 186.354 402.066 186.716C402.912 187.079 403.335 187.804 403.275 188.71L402.307 196.985C402.307 197.166 402.126 197.287 402.005 197.226C401.824 197.226 401.703 197.045 401.763 196.924L402.67 188.71C402.731 187.985 402.307 187.502 401.824 187.32C401.401 187.139 400.736 187.139 400.252 187.743L347.305 256.481C347.305 256.542 347.185 256.602 347.124 256.602Z" fill="white"/>
<path opacity="0.63" d="M226.901 328.723C226.841 328.723 226.781 328.723 226.72 328.663C226.599 328.542 226.539 328.361 226.66 328.24L254.04 287.649C254.946 286.26 256.518 285.535 258.15 285.656C259.782 285.777 261.172 286.743 261.897 288.253C261.958 288.374 261.897 288.555 261.776 288.676C261.655 288.737 261.474 288.676 261.353 288.555C260.749 287.287 259.54 286.441 258.089 286.321C256.639 286.2 255.309 286.864 254.523 288.072L227.143 328.663C227.143 328.663 227.022 328.723 226.901 328.723Z" fill="white"/>
<path opacity="0.63" d="M219.827 339.233C219.767 339.233 219.706 339.233 219.646 339.173C219.525 339.052 219.465 338.871 219.585 338.75L221.338 336.153C221.459 336.032 221.64 335.971 221.761 336.092C221.882 336.213 221.943 336.394 221.822 336.515L220.069 339.112C220.009 339.173 219.888 339.233 219.827 339.233Z" fill="white"/>
<path d="M390.901 121.661C395.609 142.733 380.799 163.12 359.321 165.081C341.569 166.747 325.092 154.789 321.169 137.343C316.461 116.27 331.271 95.883 352.749 93.9227C370.403 92.2565 386.978 104.312 390.901 121.661Z" fill="#FF9123"/>
<path d="M390.901 121.661C395.609 142.733 380.799 163.12 359.321 165.081C341.569 166.747 325.092 154.789 321.169 137.343C316.461 116.27 331.271 95.883 352.749 93.9227C370.403 92.2565 386.978 104.312 390.901 121.661Z" fill="url(#paint4_linear_3053_15297)" fill-opacity="0.5"/>
<path opacity="0.68" d="M324.603 119.994C324.505 119.994 324.406 119.994 324.308 119.994C324.014 119.896 323.818 119.602 323.916 119.308C327.839 107.155 338.039 98.4314 350.593 96.3731C352.555 96.0791 354.614 95.883 356.674 95.9811C356.968 95.9811 357.262 96.2751 357.164 96.5691C357.164 96.8632 356.87 97.1572 356.576 97.0592C354.614 97.0592 352.653 97.1572 350.691 97.4513C338.53 99.4115 328.624 107.841 324.897 119.602C324.995 119.896 324.799 119.994 324.603 119.994Z" fill="white"/>
<path opacity="0.68" d="M386.587 124.405C390.019 141.95 377.563 158.612 359.713 160.278C344.413 161.749 330.192 151.065 327.25 135.971C323.817 118.427 336.273 101.764 354.123 100.098C369.423 98.6279 383.644 109.213 386.587 124.405Z" fill="white"/>
<path d="M357.458 152.828L356.968 149.594C353.535 149.986 350.102 149.692 347.552 149.104C346.67 148.908 346.081 148.026 346.179 147.046L346.571 143.909C346.67 142.733 347.846 141.949 348.925 142.243C351.475 142.831 354.516 143.223 357.654 142.635C360.891 142.145 363.146 140.675 362.852 138.322C362.558 136.264 360.498 135.382 355.693 134.892C348.925 134.108 343.825 132.05 342.943 126.365C342.158 121.268 345.296 116.661 351.671 114.603L350.985 111.369C350.789 110.291 351.573 109.31 352.554 109.212L354.418 108.918C355.496 108.722 356.477 109.507 356.575 110.487L357.066 113.427C360.204 113.035 362.558 113.231 364.52 113.623C365.5 113.819 366.187 114.701 366.089 115.681L365.795 118.622C365.696 119.7 364.618 120.484 363.539 120.288C361.773 119.896 359.322 119.602 356.281 120.092C352.456 120.68 351.573 122.444 351.77 123.914C352.064 125.679 354.614 126.561 359.812 127.247C367.364 128.227 370.796 130.775 371.679 136.166C372.464 141.067 369.521 146.066 362.558 148.32L363.147 151.946C363.343 153.024 362.558 154.005 361.577 154.103L359.714 154.397C358.635 154.593 357.654 153.907 357.458 152.828Z" fill="#FF9123"/>
<path d="M357.458 152.828L356.968 149.594C353.535 149.986 350.102 149.692 347.552 149.104C346.67 148.908 346.081 148.026 346.179 147.046L346.571 143.909C346.67 142.733 347.846 141.949 348.925 142.243C351.475 142.831 354.516 143.223 357.654 142.635C360.891 142.145 363.146 140.675 362.852 138.322C362.558 136.264 360.498 135.382 355.693 134.892C348.925 134.108 343.825 132.05 342.943 126.365C342.158 121.268 345.296 116.661 351.671 114.603L350.985 111.369C350.789 110.291 351.573 109.31 352.554 109.212L354.418 108.918C355.496 108.722 356.477 109.507 356.575 110.487L357.066 113.427C360.204 113.035 362.558 113.231 364.52 113.623C365.5 113.819 366.187 114.701 366.089 115.681L365.795 118.622C365.696 119.7 364.618 120.484 363.539 120.288C361.773 119.896 359.322 119.602 356.281 120.092C352.456 120.68 351.573 122.444 351.77 123.914C352.064 125.679 354.614 126.561 359.812 127.247C367.364 128.227 370.796 130.775 371.679 136.166C372.464 141.067 369.521 146.066 362.558 148.32L363.147 151.946C363.343 153.024 362.558 154.005 361.577 154.103L359.714 154.397C358.635 154.593 357.654 153.907 357.458 152.828Z" fill="url(#paint5_linear_3053_15297)" fill-opacity="0.5"/>
<path d="M299.693 127.738C303.911 146.556 290.67 164.689 271.447 166.551C255.559 168.021 240.847 157.338 237.415 141.753C233.197 122.935 246.438 104.802 265.661 102.94C281.451 101.47 296.261 112.251 299.693 127.738Z" fill="#FF9123"/>
<path d="M299.693 127.738C303.911 146.556 290.67 164.689 271.447 166.551C255.559 168.021 240.847 157.338 237.415 141.753C233.197 122.935 246.438 104.802 265.661 102.94C281.451 101.47 296.261 112.251 299.693 127.738Z" fill="url(#paint6_linear_3053_15297)" fill-opacity="0.5"/>
<path opacity="0.68" d="M240.552 126.268C240.454 126.268 240.356 126.268 240.258 126.268C239.963 126.17 239.767 125.875 239.865 125.581C243.396 114.702 252.517 106.861 263.796 105.097C265.562 104.803 267.425 104.705 269.19 104.705C269.485 104.705 269.779 104.999 269.681 105.293C269.681 105.587 269.387 105.881 269.092 105.783C267.327 105.783 265.562 105.881 263.894 106.175C253.008 107.939 244.181 115.486 240.846 125.875C240.944 126.17 240.748 126.268 240.552 126.268Z" fill="white"/>
<path opacity="0.68" d="M295.669 128.913C299.593 145.184 288.118 160.866 271.445 162.238C258.302 163.218 246.239 154.495 243.1 141.655C239.177 125.385 250.652 109.703 267.325 108.331C280.468 107.35 292.531 116.172 295.669 128.913Z" fill="white"/>
<path d="M269.875 155.574L269.384 152.634C266.344 153.026 263.205 152.732 260.95 152.143C260.165 151.947 259.577 151.163 259.675 150.281L259.969 147.439C260.067 146.361 261.048 145.675 262.127 145.969C264.382 146.557 267.129 146.851 269.875 146.361C272.817 145.871 274.779 144.596 274.484 142.538C274.19 140.676 272.327 139.892 268.109 139.402C262.029 138.716 257.517 136.853 256.732 131.757C256.046 127.15 258.792 123.132 264.48 121.269L263.99 118.329C263.794 117.349 264.48 116.565 265.461 116.369L267.129 116.075C268.109 115.879 268.894 116.565 269.09 117.545L269.482 120.191C272.327 119.897 274.386 119.995 276.152 120.289C277.034 120.485 277.623 121.269 277.525 122.151L277.23 124.798C277.132 125.778 276.152 126.464 275.171 126.268C273.602 125.974 271.346 125.68 268.698 126.072C265.265 126.66 264.48 128.228 264.677 129.502C264.971 131.071 267.129 131.855 271.934 132.541C278.702 133.423 281.742 135.677 282.527 140.48C283.213 144.89 280.565 149.301 274.386 151.359L274.877 154.594C275.073 155.574 274.386 156.358 273.405 156.554L271.738 156.848C270.954 157.142 270.071 156.554 269.875 155.574Z" fill="#FF9123"/>
<path d="M269.875 155.574L269.384 152.634C266.344 153.026 263.205 152.732 260.95 152.143C260.165 151.947 259.577 151.163 259.675 150.281L259.969 147.439C260.067 146.361 261.048 145.675 262.127 145.969C264.382 146.557 267.129 146.851 269.875 146.361C272.817 145.871 274.779 144.596 274.484 142.538C274.19 140.676 272.327 139.892 268.109 139.402C262.029 138.716 257.517 136.853 256.732 131.757C256.046 127.15 258.792 123.132 264.48 121.269L263.99 118.329C263.794 117.349 264.48 116.565 265.461 116.369L267.129 116.075C268.109 115.879 268.894 116.565 269.09 117.545L269.482 120.191C272.327 119.897 274.386 119.995 276.152 120.289C277.034 120.485 277.623 121.269 277.525 122.151L277.23 124.798C277.132 125.778 276.152 126.464 275.171 126.268C273.602 125.974 271.346 125.68 268.698 126.072C265.265 126.66 264.48 128.228 264.677 129.502C264.971 131.071 267.129 131.855 271.934 132.541C278.702 133.423 281.742 135.677 282.527 140.48C283.213 144.89 280.565 149.301 274.386 151.359L274.877 154.594C275.073 155.574 274.386 156.358 273.405 156.554L271.738 156.848C270.954 157.142 270.071 156.554 269.875 155.574Z" fill="url(#paint7_linear_3053_15297)" fill-opacity="0.5"/>
<path d="M353.138 53.4436C357.257 71.9681 344.311 89.8065 325.48 91.5708C309.886 93.041 295.469 82.5536 292.036 67.2635C287.917 48.7389 300.863 30.9985 319.694 29.1362C335.19 27.666 349.705 38.2515 353.138 53.4436Z" fill="#FF9123"/>
<path d="M353.138 53.4436C357.257 71.9681 344.311 89.8065 325.48 91.5708C309.886 93.041 295.469 82.5536 292.036 67.2635C287.917 48.7389 300.863 30.9985 319.694 29.1362C335.19 27.666 349.705 38.2515 353.138 53.4436Z" fill="url(#paint8_linear_3053_15297)" fill-opacity="0.5"/>
<path opacity="0.68" d="M295.075 52.0713C294.977 52.0713 294.879 52.0713 294.781 52.0713C294.487 51.9733 294.291 51.6792 294.389 51.3852C297.821 40.7017 306.845 33.0567 317.829 31.2924C319.595 30.9984 321.36 30.9004 323.125 30.9004C323.42 30.9004 323.714 31.1944 323.616 31.4885C323.616 31.7825 323.322 32.0766 323.027 31.9785C321.36 31.9785 319.595 32.0766 317.927 32.3706C307.237 34.0368 298.606 41.4858 295.37 51.7773C295.468 51.8753 295.271 52.0713 295.075 52.0713Z" fill="white"/>
<path opacity="0.68" d="M349.118 54.7173C352.943 70.6935 341.664 86.0816 325.383 87.4538C312.535 88.4339 300.57 79.8087 297.627 67.263C293.802 51.2868 305.081 35.8987 321.362 34.5265C334.21 33.4483 346.077 42.1715 349.118 54.7173Z" fill="white"/>
<path d="M323.807 80.7892L323.317 77.9468C320.374 78.3389 317.236 78.0449 315.078 77.4568C314.294 77.2607 313.803 76.4766 313.901 75.6925L314.196 72.9481C314.294 71.968 315.274 71.2819 316.255 71.4779C318.511 72.066 321.159 72.2621 323.905 71.87C326.749 71.3799 328.711 70.1058 328.417 68.1455C328.122 66.3812 326.357 65.4991 322.14 65.1071C316.255 64.421 311.744 62.6567 310.959 57.658C310.273 53.1494 313.019 49.2289 318.609 47.3666L318.119 44.5242C318.021 43.6421 318.609 42.76 319.492 42.564L321.159 42.2699C322.042 42.1719 322.924 42.76 323.121 43.6421L323.513 46.1905C326.259 45.8964 328.319 45.9944 329.986 46.2885C330.869 46.4845 331.457 47.2686 331.359 48.1507L331.065 50.6991C330.967 51.6792 329.986 52.3653 329.103 52.1693C327.534 51.8752 325.376 51.5812 322.728 52.0713C319.296 52.5613 318.609 54.1296 318.805 55.4037C319.099 56.9719 321.257 57.658 325.867 58.3441C332.438 59.2263 335.478 61.4806 336.263 66.1852C336.949 70.4978 334.399 74.9084 328.319 76.8687L328.809 80.1031C328.907 80.9853 328.319 81.8674 327.436 82.0634L325.769 82.3574C324.788 82.3574 324.003 81.7694 323.807 80.7892Z" fill="#FF9123"/>
<path d="M323.807 80.7892L323.317 77.9468C320.374 78.3389 317.236 78.0449 315.078 77.4568C314.294 77.2607 313.803 76.4766 313.901 75.6925L314.196 72.9481C314.294 71.968 315.274 71.2819 316.255 71.4779C318.511 72.066 321.159 72.2621 323.905 71.87C326.749 71.3799 328.711 70.1058 328.417 68.1455C328.122 66.3812 326.357 65.4991 322.14 65.1071C316.255 64.421 311.744 62.6567 310.959 57.658C310.273 53.1494 313.019 49.2289 318.609 47.3666L318.119 44.5242C318.021 43.6421 318.609 42.76 319.492 42.564L321.159 42.2699C322.042 42.1719 322.924 42.76 323.121 43.6421L323.513 46.1905C326.259 45.8964 328.319 45.9944 329.986 46.2885C330.869 46.4845 331.457 47.2686 331.359 48.1507L331.065 50.6991C330.967 51.6792 329.986 52.3653 329.103 52.1693C327.534 51.8752 325.376 51.5812 322.728 52.0713C319.296 52.5613 318.609 54.1296 318.805 55.4037C319.099 56.9719 321.257 57.658 325.867 58.3441C332.438 59.2263 335.478 61.4806 336.263 66.1852C336.949 70.4978 334.399 74.9084 328.319 76.8687L328.809 80.1031C328.907 80.9853 328.319 81.8674 327.436 82.0634L325.769 82.3574C324.788 82.3574 324.003 81.7694 323.807 80.7892Z" fill="url(#paint9_linear_3053_15297)" fill-opacity="0.5"/>
<path d="M348.93 193.897C353.049 212.226 340.201 229.966 321.468 231.633C306.07 233.103 291.653 222.615 288.318 207.521C284.199 189.193 297.047 171.452 315.78 169.786C331.178 168.414 345.595 178.803 348.93 193.897Z" fill="#FF9123"/>
<path d="M348.93 193.897C353.049 212.226 340.201 229.966 321.468 231.633C306.07 233.103 291.653 222.615 288.318 207.521C284.199 189.193 297.047 171.452 315.78 169.786C331.178 168.414 345.595 178.803 348.93 193.897Z" fill="url(#paint10_linear_3053_15297)" fill-opacity="0.5"/>
<path opacity="0.68" d="M291.353 192.526C291.255 192.526 291.157 192.526 291.058 192.526C290.764 192.428 290.568 192.134 290.666 191.839C294.099 181.254 303.024 173.609 313.91 171.845C315.676 171.551 317.441 171.453 319.207 171.453C319.501 171.453 319.795 171.747 319.697 172.041C319.697 172.335 319.403 172.629 319.109 172.531C317.441 172.531 315.676 172.629 314.009 172.825C303.416 174.491 294.883 181.842 291.549 192.036C291.745 192.428 291.549 192.526 291.353 192.526Z" fill="white"/>
<path opacity="0.68" d="M345.203 196.348C348.146 211.736 337.161 226.34 321.371 227.614C308.13 228.692 296.067 219.381 293.517 206.443C290.574 191.055 301.559 176.451 317.349 175.177C330.59 174.099 342.653 183.312 345.203 196.348Z" fill="white"/>
<path d="M319.897 221.047L319.406 218.205C316.464 218.597 313.424 218.303 311.168 217.715C310.383 217.519 309.893 216.735 309.991 215.951L310.285 213.206C310.383 212.226 311.364 211.54 312.345 211.736C314.502 212.226 317.15 212.52 319.897 212.128C322.741 211.638 324.702 210.364 324.408 208.404C324.114 206.639 322.349 205.855 318.229 205.365C312.345 204.679 307.931 202.915 307.147 197.916C306.46 193.407 309.206 189.487 314.699 187.723L314.208 184.88C314.11 183.998 314.699 183.116 315.581 183.018L317.249 182.724C318.131 182.626 319.014 183.214 319.112 184.096L319.504 186.645C322.251 186.351 324.31 186.449 325.977 186.743C326.86 186.939 327.449 187.723 327.351 188.605L327.056 191.153C326.958 192.133 326.075 192.819 325.095 192.623C323.525 192.329 321.368 192.035 318.72 192.525C315.385 193.015 314.6 194.584 314.797 195.858C314.993 197.426 317.249 198.112 321.858 198.798C328.429 199.68 331.47 201.837 332.156 206.541C332.843 210.854 330.293 215.166 324.212 217.127L324.702 220.263C324.801 221.145 324.212 222.027 323.329 222.125L321.662 222.419C320.877 222.615 319.995 221.929 319.897 221.047Z" fill="#FF9123"/>
<path d="M319.897 221.047L319.406 218.205C316.464 218.597 313.424 218.303 311.168 217.715C310.383 217.519 309.893 216.735 309.991 215.951L310.285 213.206C310.383 212.226 311.364 211.54 312.345 211.736C314.502 212.226 317.15 212.52 319.897 212.128C322.741 211.638 324.702 210.364 324.408 208.404C324.114 206.639 322.349 205.855 318.229 205.365C312.345 204.679 307.931 202.915 307.147 197.916C306.46 193.407 309.206 189.487 314.699 187.723L314.208 184.88C314.11 183.998 314.699 183.116 315.581 183.018L317.249 182.724C318.131 182.626 319.014 183.214 319.112 184.096L319.504 186.645C322.251 186.351 324.31 186.449 325.977 186.743C326.86 186.939 327.449 187.723 327.351 188.605L327.056 191.153C326.958 192.133 326.075 192.819 325.095 192.623C323.525 192.329 321.368 192.035 318.72 192.525C315.385 193.015 314.6 194.584 314.797 195.858C314.993 197.426 317.249 198.112 321.858 198.798C328.429 199.68 331.47 201.837 332.156 206.541C332.843 210.854 330.293 215.166 324.212 217.127L324.702 220.263C324.801 221.145 324.212 222.027 323.329 222.125L321.662 222.419C320.877 222.615 319.995 221.929 319.897 221.047Z" fill="url(#paint11_linear_3053_15297)" fill-opacity="0.5"/>
<path d="M210.779 205.112L210.785 205.111C212.097 205.047 213.192 206.062 213.227 207.397C213.227 207.398 213.227 207.399 213.227 207.4L217.587 406.746C217.587 406.746 217.587 406.746 217.587 406.747C217.623 408.399 216.337 409.741 214.705 409.777L214.695 409.777C203.501 410.075 174.897 410.791 145.007 410.873C115.071 410.955 84.0209 410.399 67.8147 408.185C66.7903 408.024 66.0938 407.18 66.122 406.224L66.1222 406.216L71.4377 197.136L71.4377 197.136L71.4379 197.128C71.4707 195.587 72.899 194.346 74.5635 194.585C93.171 197.694 157.353 207.568 210.779 205.112Z" fill="#FAF5E8" stroke="#B59074" stroke-width="4"/>
<g opacity="0.6">
<path opacity="0.6" d="M205.966 224.779C206.384 224.779 206.742 224.481 206.683 224.063L206.623 222.81C206.623 222.392 206.264 222.034 205.846 222.034L88.6665 217.438C88.2484 217.438 88.129 217.677 88.3679 218.035L90.279 220.601C90.5179 220.959 91.0555 221.198 91.4735 221.258L205.966 224.779Z" fill="#B59074"/>
</g>
<g opacity="0.6">
<path opacity="0.6" d="M88.4282 225.078C88.0101 225.078 87.8907 225.317 88.1296 225.675L90.0408 228.242C90.2797 228.6 90.8172 228.838 91.2353 228.898L205.728 232.479C206.146 232.479 206.504 232.181 206.444 231.763L206.385 230.51C206.385 230.092 206.026 229.734 205.608 229.734L88.4282 225.078Z" fill="#B59074"/>
</g>
<path d="M106.83 295.329L91.3614 295.209C89.1516 295.209 87.3001 293.657 87.121 291.688L85.7473 278.796C85.6876 278.02 85.9265 277.244 86.4043 276.647C87.0015 275.99 87.8377 275.513 88.7933 275.453C90.1072 275.334 91.8989 275.214 93.8699 275.035C98.17 274.677 103.008 274.259 105.875 274.2H105.934C107.965 274.2 109.757 275.453 110.234 277.244C111.071 280.228 110.951 285.838 110.832 291.807C110.772 293.717 108.98 295.329 106.83 295.329ZM88.9127 276.647C88.3155 276.707 87.7779 276.945 87.4196 277.363C87.121 277.721 87.0015 278.139 87.0612 278.557L88.4349 291.449C88.5544 292.822 89.8683 293.836 91.4809 293.896L106.89 294.015C106.89 294.015 106.89 294.015 106.95 294.015C108.443 294.015 109.637 293.001 109.697 291.688C109.816 285.779 109.876 280.288 109.159 277.482C108.801 276.229 107.487 275.334 106.054 275.393C103.247 275.453 98.2298 275.871 94.1685 276.229C92.0184 276.408 90.2267 276.587 88.9127 276.647Z" fill="#AB866A"/>
<path opacity="0.6" d="M90.5825 277.96C93.8076 277.721 100.855 277.005 104.2 276.945C105.633 276.945 106.828 277.781 107.186 278.975C107.843 281.362 107.723 286.077 107.664 290.494C107.604 291.807 106.41 292.822 104.976 292.822L92.6729 292.702C91.1797 292.702 89.9255 291.688 89.7463 290.315L88.6713 279.989C88.4921 278.975 89.388 278.02 90.5825 277.96Z" fill="#B59074"/>
<g opacity="0.6">
<path opacity="0.6" d="M119.845 281.899C119.427 281.899 119.188 282.198 119.247 282.616L120.92 288.823C121.039 289.241 121.457 289.539 121.875 289.539L200.413 289.42C200.831 289.42 201.19 289.062 201.13 288.644L201.011 284.406C201.011 283.988 200.652 283.63 200.234 283.63L119.845 281.899Z" fill="#B59074"/>
</g>
<path d="M108.197 260.77L92.7286 260.651C90.5188 260.651 88.6673 259.099 88.4882 257.129L87.1145 244.237C87.0548 243.461 87.2937 242.685 87.7715 242.088C88.3687 241.432 89.2048 240.954 90.1604 240.895C91.4744 240.775 93.2661 240.656 95.237 240.477C99.5372 240.119 104.375 239.701 107.242 239.641H107.301C109.332 239.641 111.124 240.895 111.602 242.685C112.438 245.669 112.318 251.28 112.199 257.249C112.139 259.218 110.347 260.77 108.197 260.77ZM90.2799 242.148C89.6826 242.208 89.1451 242.446 88.7868 242.864C88.4882 243.222 88.3687 243.64 88.4284 244.058L89.8021 256.95C89.9215 258.323 91.2355 259.338 92.8481 259.397L108.257 259.517C108.257 259.517 108.257 259.517 108.317 259.517C109.81 259.517 111.004 258.502 111.064 257.189C111.184 251.28 111.243 245.789 110.527 242.984C110.168 241.73 108.854 240.835 107.421 240.895C104.614 240.954 99.5969 241.372 95.5357 241.73C93.3856 241.909 91.5938 242.029 90.2799 242.148Z" fill="#AB866A"/>
<path opacity="0.6" d="M91.9536 243.402C95.1787 243.163 102.226 242.447 105.571 242.387C107.004 242.387 108.199 243.223 108.557 244.417C109.214 246.804 109.095 251.519 109.035 255.936C108.975 257.249 107.781 258.323 106.347 258.264L94.044 258.144C92.5508 258.144 91.2966 257.13 91.1174 255.757L90.0424 245.431C89.8632 244.476 90.7591 243.521 91.9536 243.402Z" fill="#B59074"/>
<g opacity="0.6">
<path opacity="0.6" d="M121.224 247.341C120.805 247.341 120.567 247.639 120.626 248.057L122.299 254.264C122.418 254.682 122.836 254.981 123.254 254.981L201.792 254.861C202.21 254.861 202.569 254.503 202.509 254.085L202.389 249.848C202.389 249.43 202.031 249.072 201.613 249.072L121.224 247.341Z" fill="#B59074"/>
</g>
<path d="M106.885 328.276C106.825 328.276 106.885 328.276 106.885 328.276L91.4161 328.156C89.2063 328.156 87.3548 326.605 87.1757 324.635L85.802 311.743C85.7423 310.967 85.9812 310.191 86.459 309.594C87.0562 308.938 87.8924 308.46 88.8479 308.4C90.1619 308.281 91.9536 308.162 93.9246 307.983C98.2247 307.624 103.062 307.207 105.929 307.147H105.989C108.02 307.147 109.811 308.4 110.289 310.191C111.125 313.175 111.006 318.786 110.886 324.754C110.827 326.724 109.035 328.276 106.885 328.276ZM88.9674 309.654C88.3702 309.713 87.8326 309.952 87.4743 310.37C87.1757 310.728 87.0562 311.146 87.1159 311.564L88.4896 324.456C88.6091 325.829 89.923 326.843 91.5356 326.903L106.945 327.022C106.945 327.022 106.945 327.022 107.004 327.022C108.497 327.022 109.692 326.008 109.752 324.695C109.871 318.786 109.931 313.295 109.214 310.489C108.856 309.236 107.542 308.341 106.108 308.4C103.301 308.46 98.2845 308.878 94.2232 309.236C92.0134 309.415 90.2216 309.534 88.9674 309.654Z" fill="#AB866A"/>
<path opacity="0.6" d="M90.5825 310.967C93.8076 310.728 100.855 310.012 104.2 309.952C105.633 309.952 106.828 310.788 107.186 311.981C107.843 314.369 107.723 319.084 107.664 323.501C107.604 324.814 106.41 325.888 104.976 325.829L92.6729 325.709C91.1797 325.709 89.9255 324.695 89.7463 323.322L88.6713 312.996C88.4921 311.981 89.388 311.026 90.5825 310.967Z" fill="#B59074"/>
<g opacity="0.6">
<path opacity="0.6" d="M119.907 314.846C119.489 314.846 119.25 315.145 119.31 315.562L120.982 321.77C121.102 322.188 121.52 322.486 121.938 322.486L200.476 322.367C200.894 322.367 201.252 322.009 201.192 321.591L201.073 317.353C201.073 316.935 200.715 316.577 200.297 316.577L119.907 314.846Z" fill="#B59074"/>
</g>
<path d="M105.455 359.969L89.9864 359.849C87.7766 359.849 85.9251 358.297 85.746 356.328L84.3723 343.436C84.3126 342.66 84.5515 341.884 85.0293 341.287C85.6265 340.63 86.4627 340.153 87.4183 340.093C88.7322 339.974 90.524 339.854 92.4949 339.675C96.5562 339.317 101.633 338.9 104.5 338.84C106.53 338.84 108.382 340.034 108.859 341.884C109.696 344.868 109.576 350.479 109.457 356.447C109.397 358.357 107.605 359.969 105.455 359.969ZM87.5377 341.287C86.9405 341.347 86.4029 341.585 86.0446 342.003C85.746 342.361 85.6265 342.779 85.6862 343.197L87.0599 356.089C87.1794 357.462 88.4933 358.476 90.1059 358.536L105.515 358.656C106.948 358.656 108.262 357.641 108.262 356.328C108.382 350.419 108.441 344.928 107.725 342.123C107.366 340.869 106.052 339.974 104.619 340.034C101.812 340.093 96.7353 340.511 92.7338 340.869C90.6434 341.048 88.8517 341.227 87.5377 341.287Z" fill="#AB866A"/>
<path opacity="0.6" d="M89.2075 342.6C92.4326 342.361 99.4801 341.645 102.825 341.585C104.258 341.585 105.453 342.421 105.811 343.615C106.468 346.002 106.348 350.717 106.289 355.134C106.229 356.447 105.035 357.462 103.601 357.462L91.2979 357.342C89.8047 357.342 88.5505 356.328 88.3714 354.955L87.2963 344.629C87.1171 343.615 88.013 342.719 89.2075 342.6Z" fill="#B59074"/>
<g opacity="0.6">
<path opacity="0.6" d="M118.474 346.539C118.055 346.539 117.817 346.837 117.876 347.255L119.549 353.462C119.668 353.88 120.086 354.178 120.504 354.178L199.042 354.059C199.46 354.059 199.819 353.701 199.759 353.283L199.639 349.045C199.639 348.628 199.281 348.269 198.863 348.269L118.474 346.539Z" fill="#B59074"/>
</g>
<path d="M103.783 392.616C103.724 392.616 103.724 392.616 103.783 392.616L88.3146 392.497C86.1047 392.497 84.2533 390.945 84.0741 388.975L82.7004 376.083C82.6407 375.307 82.8796 374.531 83.3574 373.934C83.9546 373.278 84.7908 372.8 85.7464 372.741C87.0603 372.621 88.8521 372.502 90.823 372.323C95.1232 371.965 99.9609 371.547 102.828 371.487C104.918 371.487 106.71 372.681 107.188 374.531C108.024 377.516 107.904 383.126 107.785 389.095C107.665 391.064 105.933 392.616 103.783 392.616ZM85.8061 373.994C85.2089 374.054 84.6713 374.293 84.313 374.71C84.0144 375.068 83.8949 375.486 83.9546 375.904L85.3283 388.796C85.4478 390.169 86.7617 391.184 88.3743 391.243L103.783 391.363C103.783 391.363 103.783 391.363 103.843 391.363C105.336 391.363 106.531 390.348 106.59 389.035C106.71 383.126 106.769 377.635 106.053 374.83C105.694 373.576 104.381 372.741 102.947 372.741C100.14 372.8 95.1232 373.218 91.0619 373.576C88.9118 373.755 87.1201 373.875 85.8061 373.994Z" fill="#AB866A"/>
<path opacity="0.6" d="M87.4731 375.248C90.6983 375.009 97.7458 374.293 101.09 374.233C102.524 374.233 103.718 375.069 104.077 376.263C104.734 378.65 104.614 383.365 104.554 387.782C104.495 389.095 103.3 390.11 101.867 390.11L89.5635 389.99C88.0704 389.99 86.8162 388.976 86.637 387.603L85.5619 377.277C85.3828 376.322 86.2786 375.367 87.4731 375.248Z" fill="#B59074"/>
<g opacity="0.6">
<path opacity="0.6" d="M116.747 379.187C116.329 379.187 116.09 379.485 116.15 379.903L117.822 386.111C117.941 386.528 118.36 386.827 118.778 386.827L197.316 386.707C197.734 386.707 198.092 386.349 198.032 385.932L197.913 381.694C197.913 381.276 197.555 380.918 197.136 380.918L116.747 379.187Z" fill="#B59074"/>
</g>
<path d="M44.5002 423.116C44.5002 423.116 44.063 425.737 43.8445 428.358C43.7716 429.378 44.5731 430.251 45.5202 430.324C48.9446 430.47 56.3764 430.761 58.9993 430.615C59.3636 430.615 59.6551 430.178 59.5093 429.814C59.3636 429.523 59.145 429.232 58.8536 429.086L46.6131 423.48L44.5002 423.116Z" fill="#4A4743"/>
<path d="M44.0664 421.586L44.4307 424.717C44.4307 424.717 46.5436 425.737 48.0008 424.572L47.1265 421.077L44.0664 421.586Z" fill="#FEC0A1"/>
<path d="M44.3553 362.608C44.2096 363.409 43.481 403.456 47.7797 421.44C47.8525 421.732 47.7068 422.023 47.4154 422.169C46.7597 422.46 45.4482 422.824 43.9181 422.897C43.4081 422.897 43.0438 422.605 42.8981 422.169C41.6595 418.018 35.8307 397.121 35.0292 377.17C34.1549 354.89 35.0292 376.442 35.0292 376.442L35.5392 362.681L44.3553 362.608Z" fill="#583B18"/>
<path d="M30.4423 424.499C30.4423 424.499 29.7137 425.81 28.9851 429.305C28.8394 429.96 29.2766 430.542 29.9323 430.615C31.098 430.761 32.8467 430.906 34.231 430.834C34.8868 430.834 35.3968 430.251 35.3239 429.596C35.1782 428.285 34.6682 426.174 33.211 424.572L30.4423 424.499Z" fill="#4A4743"/>
<path d="M29.7812 420.494L30.6556 425.227C30.6556 425.227 31.5299 425.883 33.2057 425.373L32.7685 420.276L29.7812 420.494Z" fill="#FEC0A1"/>
<path d="M27.4492 363.847C23.9519 384.962 28.1778 416.053 29.635 422.17C29.7079 422.534 29.9993 422.825 30.4365 422.898C31.0922 422.971 32.1122 423.116 33.2051 422.752C33.5694 422.679 33.788 422.315 33.8609 421.951C34.0795 417 33.7152 386.783 36.9939 374.841C37.1396 374.259 37.5039 373.676 38.0139 373.312L44.3527 368.798L44.8627 361.517L27.4492 363.847Z" fill="#4F300C"/>
<path d="M49.7474 323.799C39.2556 323.654 27.6708 326.566 27.6708 326.566C24.5379 344.842 27.088 365.885 27.088 365.885C35.2483 367.997 44.3558 364.574 44.3558 364.574C45.7401 356.929 52.006 335.449 52.006 335.449C57.1062 334.794 61.3321 333.338 64.8294 331.372C62.2064 328.314 60.895 324.382 60.3849 322.052C56.7419 323.29 52.9532 323.872 49.7474 323.799Z" fill="#FF9123"/>
<path d="M49.7474 323.799C39.2556 323.654 27.6708 326.566 27.6708 326.566C24.5379 344.842 27.088 365.885 27.088 365.885C35.2483 367.997 44.3558 364.574 44.3558 364.574C45.7401 356.929 52.006 335.449 52.006 335.449C57.1062 334.794 61.3321 333.338 64.8294 331.372C62.2064 328.314 60.895 324.382 60.3849 322.052C56.7419 323.29 52.9532 323.872 49.7474 323.799Z" fill="url(#paint12_linear_3053_15297)" fill-opacity="0.5"/>
<path d="M80.785 308.363C79.7649 307.125 78.4534 307.707 78.4534 307.707C76.9234 314.26 68.8359 319.503 60.457 322.124C60.9671 324.454 62.2785 328.386 64.9015 331.444C78.7449 323.653 80.785 308.363 80.785 308.363Z" fill="#FEC0A1"/>
<path d="M80.4949 308.654C80.5678 309.018 79.3291 309.528 78.6005 308.144C78.6005 307.489 78.1634 304.576 78.6005 304.067C80.7135 301.154 84.8665 297.514 84.8665 297.514C85.5951 298.169 85.0122 298.897 85.0122 298.897L82.9721 301.009C83.4093 301.737 83.9193 302.392 84.1379 303.339C84.3565 304.067 84.2108 304.795 83.8465 305.45C83.4822 306.106 83.045 306.906 82.535 307.562C81.7335 308.654 80.4949 308.654 80.4949 308.654Z" fill="#FEC0A1"/>
<path d="M82.0958 302.319L80.2743 303.848L79.6914 305.377L81.2943 307.198C81.2943 307.198 81.8772 304.14 82.2415 303.484C82.7515 302.829 82.5329 302.465 82.0958 302.319Z" fill="#FEC0A1"/>
<path d="M31.6768 336.759L27.6695 326.565C27.6695 326.565 17.8334 333.191 16.2305 341.638C18.052 341.783 21.4764 342.22 24.7551 343.895C25.4837 339.963 31.6768 336.759 31.6768 336.759Z" fill="#FF9123"/>
<path d="M31.6768 336.759L27.6695 326.565C27.6695 326.565 17.8334 333.191 16.2305 341.638C18.052 341.783 21.4764 342.22 24.7551 343.895C25.4837 339.963 31.6768 336.759 31.6768 336.759Z" fill="url(#paint13_linear_3053_15297)" fill-opacity="0.5"/>
<path d="M40.2766 346.298C40.2766 346.298 29.2747 352.487 25.5589 347.172C24.7574 346.08 24.6117 344.988 24.7574 343.895C21.4787 342.221 18.0543 341.784 16.2328 341.638C15.7228 344.187 16.0142 346.881 17.4714 349.648C23.9559 361.516 41.6609 348.992 41.6609 348.992L40.2766 346.298Z" fill="#FEC0A1"/>
<path d="M38.9641 354.162L44.9386 333.192C45.0115 332.973 45.2301 332.755 45.4486 332.755C46.5415 332.609 49.6745 332.245 53.3175 331.954C57.6891 331.59 62.7893 331.299 65.8494 331.517C66.2866 331.517 66.578 332.027 66.3594 332.391C64.6108 335.886 57.4705 350.157 53.9004 354.817C53.7547 354.963 53.6089 355.036 53.3904 355.036L39.4741 354.89C39.1098 354.963 38.8184 354.526 38.9641 354.162Z" fill="#857E85"/>
<path d="M53.9696 330.134L58.3412 329.405C58.5598 329.333 58.7784 329.624 58.7055 329.842L58.2683 331.153C58.1955 331.299 58.1226 331.371 57.9769 331.371L53.751 331.954C53.5324 331.954 53.3867 331.808 53.3867 331.59L53.6782 330.425C53.751 330.279 53.8239 330.134 53.9696 330.134Z" fill="#676067"/>
<path d="M50.6953 333.847L51.0596 331.954C51.0596 331.735 51.2782 331.59 51.4239 331.59L60.24 330.716C60.5314 330.716 60.75 330.934 60.6771 331.225L60.0942 333.555C60.0214 333.774 59.8757 333.847 59.7299 333.92L51.1325 334.356C50.9139 334.356 50.6953 334.065 50.6953 333.847Z" fill="#676067"/>
<path d="M40.4215 349.064C40.4215 349.064 39.62 345.642 39.9115 344.404C40.2758 343.167 40.9315 341.637 43.1173 341.929C45.3031 342.293 47.8532 343.167 47.8532 343.167C47.8532 343.167 47.7075 344.768 46.0317 344.259L47.0517 345.06C47.0517 345.06 46.906 346.297 45.5217 345.642L46.4689 346.662C46.4689 346.662 45.886 347.681 44.8659 347.026C43.773 346.516 43.3359 349.501 40.4215 349.064Z" fill="#FEC0A1"/>
<path d="M39.1106 315.28L35.7591 324.964C35.6862 325.11 35.7591 325.328 35.9048 325.401C36.8519 325.911 40.1306 327.367 44.0651 324.819C44.5022 324.527 44.7937 324.163 44.7937 323.654L45.8866 315.28H39.1106Z" fill="#F4B697"/>
<path d="M46.3918 306.325C46.3918 306.325 50.0348 313.242 49.5976 316.009C49.1605 318.776 44.5703 318.63 40.6359 316.3L37.8672 308.873L46.3918 306.325Z" fill="#FEC0A1"/>
<path d="M40.7814 312.732C40.9271 312.659 41 312.441 40.9271 312.295C40.6357 311.858 40.0528 310.911 39.9071 310.111C39.9071 310.111 39.2513 309.674 41.5828 309.164C43.9144 308.581 47.4116 307.708 48.1402 305.742C48.8688 303.776 46.9745 298.897 43.9872 302.829C43.8415 302.975 43.6229 302.975 43.5501 302.829C43.04 302.174 41.8014 300.863 39.9799 301.664C38.3041 302.392 38.0856 303.63 38.1584 304.285C38.1584 304.504 38.0127 304.577 37.7941 304.577C36.9198 304.431 34.8797 304.285 33.9325 306.397C33.1311 308.145 33.6411 309.091 34.1511 309.528C34.2968 309.674 34.224 309.965 34.0054 309.965C33.4225 310.111 32.6939 310.62 32.7668 311.931C32.8396 313.751 34.8797 313.606 35.4626 313.46C35.5355 313.46 35.6812 313.46 35.6812 313.533C36.1912 314.042 38.377 316.372 40.7814 316.664C41 316.664 41.1457 316.518 41.0728 316.3L40.0528 313.314C39.9799 313.169 40.0528 313.023 40.1985 312.95L40.7814 312.732Z" fill="#583B18"/>
<path d="M41.1491 313.169C41.1491 313.169 38.5261 311.349 38.3804 312.878C38.1618 314.407 40.7119 315.062 42.0234 314.48L41.1491 313.169Z" fill="url(#paint14_linear_3053_15297)"/>
<path d="M357.464 266.142C357.279 266.603 359.216 267.341 360.231 265.405C360.231 264.483 360.785 260.519 360.139 259.689C356.91 255.632 350.637 250.47 350.637 250.47C349.622 251.392 350.453 252.406 350.453 252.406L353.497 255.356C352.851 256.37 352.113 257.292 351.836 258.583C351.56 259.504 351.744 260.611 352.298 261.44C352.851 262.362 353.589 263.469 354.235 264.391C355.619 266.05 357.464 266.142 357.464 266.142Z" fill="#FEC0A1"/>
<path d="M355.982 264.113C355.982 264.113 355.06 259.873 354.506 258.951C354.23 258.49 354.045 258.121 354.137 257.752C354.23 257.476 354.414 257.291 354.783 257.107H354.875L357.735 259.32L358.658 261.532L358.381 261.624L357.458 259.504L354.783 257.383C354.599 257.476 354.414 257.66 354.414 257.844C354.322 258.121 354.414 258.398 354.691 258.766C355.337 259.688 356.167 263.837 356.259 264.021L355.982 264.113Z" fill="#FEC0A1"/>
<path d="M395.195 275.454C395.195 275.454 398.701 277.113 399.254 279.049C399.808 280.616 403.59 280.801 403.959 283.843C404.143 285.41 405.343 286.701 406.911 286.885C410.786 287.531 416.874 289.559 417.797 296.289C418.535 301.451 415.859 303.48 413.092 304.125C411.062 304.586 409.679 306.614 410.14 308.642C410.509 310.578 409.955 312.883 406.542 314.727C398.885 318.783 391.228 305.139 391.228 305.139L389.66 281.354L395.195 275.454Z" fill="#734815"/>
<path d="M359.119 262.915C359.119 262.915 368.99 289.743 385.779 298.132C385.779 298.132 380.152 307.259 377.292 307.812C377.292 307.812 359.396 284.856 357.551 266.05L359.119 262.915Z" fill="#FEC0A1"/>
<path d="M426.649 424.433L427.111 428.49C427.203 429.227 427.849 429.873 428.587 429.965C429.878 430.149 432 430.242 434.03 430.057C434.952 429.965 435.506 429.043 435.229 428.213C434.768 426.646 433.845 424.249 432.461 422.866H427.941C427.203 422.866 426.557 423.604 426.649 424.433Z" fill="#4A4743"/>
<path d="M391.317 376.679L390.579 381.196C390.579 381.196 393.162 407.01 393.623 417.427C393.716 419.087 393.254 420.654 392.424 422.037L387.996 429.228L399.251 422.59L399.435 421.207L397.59 418.626L399.989 389.678C400.173 388.018 399.804 386.267 398.974 384.792L396.668 380.366L391.317 376.679Z" fill="#FEC0A1"/>
<path d="M387.171 430.242H390.769C391.415 430.242 392.06 429.965 392.522 429.412C393.629 427.937 395.935 425.079 397.042 425.079C398.518 424.987 398.334 430.334 398.334 430.334H399.164L400.271 423.697C400.548 422.037 399.717 420.378 398.241 419.64C398.241 419.64 397.872 422.129 396.027 423.328C394.182 424.434 388.463 428.49 388.463 428.49C388.463 428.49 387.725 428.398 386.987 428.49C385.88 428.583 385.972 430.242 387.171 430.242Z" fill="#4A4743"/>
<path d="M406.723 378.892C406.723 378.892 421.667 407.287 424.066 413.74C426.464 420.194 427.294 425.633 427.294 426.094C427.387 426.923 428.309 427.661 431.077 427.661C432.46 427.661 433.198 427.108 433.567 426.555C433.844 426.094 433.844 425.541 433.66 424.987C432.829 423.236 430.062 417.612 429.047 415.123C427.848 412.081 425.265 398.344 423.789 393.55C422.313 388.757 420.745 383.594 414.472 378.8C414.472 378.892 410.136 374.651 406.723 378.892Z" fill="#FEC0A1"/>
<path d="M397.315 332.336C393.44 316.018 403.219 306.707 403.219 306.707C397.038 300.806 385.783 298.133 385.783 298.133C385.783 298.133 375.082 305.969 376.374 312.146C377.112 315.741 383.938 333.719 383.938 333.719C383.938 333.719 390.211 336.669 397.315 332.336Z" fill="#583B18"/>
<path d="M405.894 340.448C404.326 335.747 397.315 332.335 397.315 332.335C390.212 336.576 383.939 333.626 383.939 333.626C383.939 333.626 382.555 338.973 383.477 344.044C384.4 349.114 390.581 381.197 390.581 381.197C400.175 383.133 415.027 379.261 415.027 379.261C408.846 368.382 407.462 345.15 405.894 340.448Z" fill="#FF9123"/>
<path d="M405.894 340.448C404.326 335.747 397.315 332.335 397.315 332.335C390.212 336.576 383.939 333.626 383.939 333.626C383.939 333.626 382.555 338.973 383.477 344.044C384.4 349.114 390.581 381.197 390.581 381.197C400.175 383.133 415.027 379.261 415.027 379.261C408.846 368.382 407.462 345.15 405.894 340.448Z" fill="#583B18"/>
<path d="M392.796 287.346L395.933 301.451C396.21 302.649 395.103 302.465 393.811 302.28C391.782 301.912 389.106 301.082 388.184 299.515C388.092 299.33 388.092 299.146 387.999 298.962L386.615 289.189C386.523 288.452 386.892 287.622 387.63 287.346L390.213 286.147C391.413 285.686 392.612 286.332 392.796 287.346Z" fill="#F4B697"/>
<path d="M389.103 273.978C389.103 273.978 385.413 275.545 382.83 280.892C380.339 286.239 382.184 288.729 384.583 289.097C386.981 289.466 390.487 289.374 394.269 285.963C398.051 282.46 393.992 272.042 389.103 273.978Z" fill="#FEC0A1"/>
<path d="M391.778 283.013C391.778 283.013 394.545 275.177 387.627 275.085L385.966 276.191C385.966 276.191 383.383 271.858 387.627 269.738C391.87 267.617 396.759 269.369 398.512 274.992C400.265 280.616 400.634 284.396 397.59 287.162C394.638 289.835 393.438 286.793 393.438 286.793C393.438 286.793 395.099 284.304 394.361 282.921C393.715 281.538 392.147 283.197 392.147 283.197L391.778 283.013Z" fill="#734815"/>
<path d="M392.512 283.935C392.512 283.935 393.896 279.878 395.833 281.538C397.77 283.105 394.265 285.318 392.973 285.963L392.512 283.935Z" fill="url(#paint15_linear_3053_15297)"/>
<path d="M404.97 311.132C404.97 311.132 376.28 346.164 354.785 306.246C354.785 306.246 354.416 305.231 354.601 303.756C354.693 303.019 354.232 300.345 353.955 299.055C353.863 298.594 354.14 298.225 354.601 298.133C354.97 298.133 355.247 298.225 355.523 298.502L359.398 303.48C359.675 304.494 359.213 305.508 358.291 305.969C357.737 306.246 357.553 306.983 357.922 307.536C374.25 328.925 401.557 305.416 402.018 305.692C403.863 306.707 405.892 307.813 404.97 311.132Z" fill="#FEC0A1"/>
<defs>
<linearGradient id="paint0_linear_3053_15297" x1="379.797" y1="193.992" x2="496.899" y2="344.58" gradientUnits="userSpaceOnUse">
<stop stop-color="#FFCA00"/>
<stop offset="0.791667" stop-color="#FF9000"/>
</linearGradient>
<linearGradient id="paint1_linear_3053_15297" x1="321.112" y1="289.116" x2="377.309" y2="387.225" gradientUnits="userSpaceOnUse">
<stop stop-color="#FFCA00"/>
<stop offset="0.791667" stop-color="#FF9000"/>
</linearGradient>
<linearGradient id="paint2_linear_3053_15297" x1="244.548" y1="278.922" x2="299.004" y2="394.871" gradientUnits="userSpaceOnUse">
<stop stop-color="#FFCA00"/>
<stop offset="0.791667" stop-color="#FF9000"/>
</linearGradient>
<linearGradient id="paint3_linear_3053_15297" x1="174.32" y1="315.238" x2="206.034" y2="403.977" gradientUnits="userSpaceOnUse">
<stop stop-color="#FFCA00"/>
<stop offset="0.791667" stop-color="#FF9000"/>
</linearGradient>
<linearGradient id="paint4_linear_3053_15297" x1="340.511" y1="98.8222" x2="367.937" y2="165.24" gradientUnits="userSpaceOnUse">
<stop stop-color="#FFCA00"/>
<stop offset="0.791667" stop-color="#FF9000"/>
</linearGradient>
<linearGradient id="paint5_linear_3053_15297" x1="351.02" y1="112.108" x2="373.646" y2="146.963" gradientUnits="userSpaceOnUse">
<stop stop-color="#FFCA00"/>
<stop offset="0.791667" stop-color="#FF9000"/>
</linearGradient>
<linearGradient id="paint6_linear_3053_15297" x1="254.688" y1="107.323" x2="279.215" y2="166.678" gradientUnits="userSpaceOnUse">
<stop stop-color="#FFCA00"/>
<stop offset="0.791667" stop-color="#FF9000"/>
</linearGradient>
<linearGradient id="paint7_linear_3053_15297" x1="263.983" y1="118.932" x2="284.298" y2="150.214" gradientUnits="userSpaceOnUse">
<stop stop-color="#FFCA00"/>
<stop offset="0.791667" stop-color="#FF9000"/>
</linearGradient>
<linearGradient id="paint8_linear_3053_15297" x1="308.985" y1="33.4339" x2="333.074" y2="91.6883" gradientUnits="userSpaceOnUse">
<stop stop-color="#FFCA00"/>
<stop offset="0.791667" stop-color="#FF9000"/>
</linearGradient>
<linearGradient id="paint9_linear_3053_15297" x1="318.072" y1="45.0945" x2="337.993" y2="75.7845" gradientUnits="userSpaceOnUse">
<stop stop-color="#FFCA00"/>
<stop offset="0.791667" stop-color="#FF9000"/>
</linearGradient>
<linearGradient id="paint10_linear_3053_15297" x1="305.126" y1="174.056" x2="328.951" y2="231.783" gradientUnits="userSpaceOnUse">
<stop stop-color="#FFCA00"/>
<stop offset="0.791667" stop-color="#FF9000"/>
</linearGradient>
<linearGradient id="paint11_linear_3053_15297" x1="314.177" y1="185.523" x2="333.94" y2="215.892" gradientUnits="userSpaceOnUse">
<stop stop-color="#FFCA00"/>
<stop offset="0.791667" stop-color="#FF9000"/>
</linearGradient>
<linearGradient id="paint12_linear_3053_15297" x1="37.0605" y1="325.2" x2="55.8288" y2="364.718" gradientUnits="userSpaceOnUse">
<stop stop-color="#FFCA00"/>
<stop offset="0.791667" stop-color="#FF9000"/>
</linearGradient>
<linearGradient id="paint13_linear_3053_15297" x1="20.5991" y1="327.791" x2="27.7907" y2="343.31" gradientUnits="userSpaceOnUse">
<stop stop-color="#FFCA00"/>
<stop offset="0.791667" stop-color="#FF9000"/>
</linearGradient>
<linearGradient id="paint14_linear_3053_15297" x1="1384.86" y1="1142.34" x2="1369.92" y2="1133.13" gradientUnits="userSpaceOnUse">
<stop stop-color="#FF928E"/>
<stop offset="1" stop-color="#FEB3B1"/>
</linearGradient>
<linearGradient id="paint15_linear_3053_15297" x1="431.781" y1="136.842" x2="425.442" y2="161.759" gradientUnits="userSpaceOnUse">
<stop stop-color="#FF928E"/>
<stop offset="1" stop-color="#FEB3B1"/>
</linearGradient>
</defs>
</svg>
