<svg width="480" height="460" viewBox="0 0 480 460" fill="none" xmlns="http://www.w3.org/2000/svg">
<path d="M187.443 375.744C189.353 375.744 189.035 374.79 189.353 373.836C189.671 372.883 190.627 372.247 191.582 371.294C192.537 370.658 192.537 369.386 193.174 368.751C194.447 367.479 195.402 366.208 195.084 364.618C196.994 364.618 197.631 363.029 198.586 362.393C199.86 361.44 201.134 360.804 200.815 359.214C202.725 357.625 205.273 356.354 205.909 354.446C206.865 352.221 208.138 350.632 210.367 349.36C212.277 348.089 211.641 345.864 213.551 344.91C215.461 343.957 215.78 342.049 216.735 340.46C218.008 338.553 218.645 336.646 220.874 335.374C221.829 334.738 223.421 333.785 223.421 333.149C223.103 330.288 227.56 329.97 227.56 327.109C227.56 326.474 228.515 325.52 229.152 325.202C232.973 322.659 234.246 318.527 237.749 315.984C241.251 313.441 244.435 310.262 247.937 307.402C248.893 306.766 249.529 306.13 250.803 304.859C249.529 304.541 248.574 304.541 247.619 304.223C246.027 307.084 242.525 307.719 239.659 309.309C236.794 310.58 233.928 311.852 231.063 313.441C229.471 314.713 227.242 315.984 224.695 315.984C223.74 317.573 221.192 317.255 220.237 318.209C218.964 319.481 216.735 318.845 215.461 320.434C214.506 322.024 212.277 322.024 211.004 322.659C207.82 324.249 203.999 325.52 200.815 327.109C196.994 328.699 193.492 330.288 189.99 331.878C186.487 333.467 182.985 334.421 179.801 336.328C179.483 336.328 179.164 336.646 179.164 336.646C175.98 335.692 174.07 338.553 171.204 338.235C170.249 338.235 168.976 338.871 166.747 339.824H154.648C154.011 340.46 153.056 340.778 152.419 341.414H148.917C148.28 342.049 147.643 342.685 146.688 343.003H140.957C138.41 340.778 136.181 338.871 133.634 336.646H129.495C128.54 335.692 127.584 334.738 126.629 334.103C125.993 331.878 129.176 330.924 128.54 328.699C128.221 327.427 129.813 325.838 130.45 324.884C129.813 323.295 128.221 323.613 127.266 323.295C126.311 322.977 126.629 322.659 126.948 322.024C129.176 318.845 131.087 315.984 132.36 312.487C132.36 312.17 133.316 312.17 133.952 311.852C134.271 312.805 133.316 314.077 134.589 314.713C134.908 314.713 135.226 315.03 135.226 314.713C137.455 312.805 139.683 311.216 141.594 309.309C140.957 306.766 144.459 305.812 143.504 303.269H146.37C147.325 302.633 148.28 301.68 149.235 301.044V298.501C149.872 298.183 150.827 297.865 151.146 297.548C151.464 296.912 151.146 295.958 151.146 295.322C152.419 295.64 153.056 295.005 153.056 294.051C153.056 293.097 153.056 291.826 151.146 292.144V289.919C152.738 287.694 155.922 286.74 156.877 284.197C158.469 284.515 159.106 283.243 159.742 282.29C161.016 281.018 161.016 278.793 163.245 277.84C165.155 276.886 163.881 274.661 165.792 274.025C168.021 273.071 168.021 270.846 169.294 269.575C170.249 268.303 172.478 267.668 172.16 265.76C172.16 265.443 172.478 265.443 172.478 265.125C175.344 262.582 178.209 260.039 181.075 257.496C181.711 253.999 185.532 252.728 187.761 250.185C189.671 248.278 192.537 247.006 193.174 243.827C193.492 242.874 195.084 242.238 195.721 241.602C196.676 240.331 198.268 240.331 199.542 239.695C200.815 239.059 199.86 237.152 201.452 236.516C203.044 235.881 204.317 234.927 205.909 234.291C205.591 232.384 207.82 231.748 208.775 230.477H211.004C211.322 229.523 211.641 228.57 212.277 227.616C215.461 226.98 217.372 224.755 219.6 223.166V221.576C222.784 220.623 225.968 219.033 227.242 216.173C228.834 212.994 231.699 211.405 234.883 210.133V208.544C238.704 205.365 242.525 202.186 246.345 198.69C246.345 198.69 246.345 198.054 246.345 197.736C247.619 197.736 248.256 197.1 247.937 196.147C249.211 195.829 250.485 196.147 249.211 194.557C248.893 194.875 248.256 195.511 247.937 196.147C246.982 196.147 246.345 196.465 246.345 197.736C245.39 197.736 244.435 197.736 243.48 197.736C243.162 197.736 243.162 198.054 242.843 198.372C238.067 200.597 233.61 202.822 228.515 204.411C226.287 205.047 225.65 207.908 222.466 207.59C221.192 209.497 218.327 209.815 216.416 210.769C214.506 211.722 212.277 212.676 210.049 213.63C208.457 214.265 206.228 214.265 205.273 215.855C204.317 217.444 201.77 217.126 200.815 218.08C198.905 220.305 195.721 220.941 193.174 222.212C190.308 223.484 187.124 224.437 184.895 226.662C183.622 227.616 181.393 227.616 180.438 228.887C175.98 228.252 172.796 231.43 168.976 232.702C166.429 233.338 164.518 235.563 161.653 235.563C159.106 235.563 157.514 238.106 154.648 237.152C152.419 238.106 150.509 239.377 147.962 239.059C146.688 241.284 144.141 240.013 142.231 240.967C141.275 241.284 140.957 242.238 140.002 242.238C138.41 242.556 136.818 242.238 135.226 242.238C134.589 242.556 133.952 243.192 132.997 243.827H129.495C128.858 244.463 128.221 244.781 127.266 245.417H121.535C120.898 246.052 120.261 246.37 119.306 247.006H102.113C101.476 247.324 101.158 247.96 100.521 248.278H94.4715C93.8347 248.278 92.8796 246.37 90.6508 246.688C89.0588 247.006 87.1485 246.052 85.8749 245.099C84.2829 244.145 82.6909 243.827 81.099 242.874C80.1438 242.238 79.1886 241.92 77.915 241.602C77.2782 241.602 77.2782 239.695 76.3231 239.059C75.3679 238.106 74.0943 237.152 72.8207 236.198V231.43C72.1839 230.795 71.5472 230.159 70.9104 229.523V224.755C70.2736 224.437 69.6368 223.802 69 223.166V203.458C69.6368 203.14 70.2736 202.504 70.2736 202.186C70.592 200.279 69.9552 198.054 71.2288 196.783C72.5023 195.193 72.8207 193.922 72.8207 192.332C72.8207 191.697 72.5023 191.061 72.8207 190.743C75.3679 189.154 74.0943 186.929 75.3679 185.021C75.6863 184.386 76.3231 183.75 77.2782 182.796C76.3231 182.478 75.3679 181.525 74.7311 180.889C75.0495 180.571 75.6863 180.253 76.0047 179.617C76.9599 178.028 76.3231 176.439 76.6415 174.532C76.9599 174.214 78.2334 173.578 77.915 172.942C77.915 168.492 82.6909 165.631 82.3725 161.181C83.0093 160.545 83.6461 160.227 84.2829 159.592V155.777C85.5565 155.141 86.8301 153.87 88.1036 153.234V150.056C91.9244 146.877 93.8347 142.427 96.7003 137.659C97.3371 137.023 98.929 135.751 100.521 134.48H102.431C103.387 133.208 104.66 131.937 104.979 130.665C105.297 129.076 106.252 127.487 107.844 126.851C109.436 125.897 108.481 124.308 109.754 123.354C111.028 122.401 112.302 120.811 113.894 119.858C116.759 118.268 117.077 114.772 119.943 112.865C122.809 110.957 125.674 109.05 127.266 106.507C129.813 102.057 134.271 99.1962 138.41 95.6996C141.275 93.1567 142.231 89.6601 145.415 87.7529C143.186 86.1635 140.957 87.435 138.728 87.1171C138.091 87.7528 137.455 88.0707 136.818 88.7065H132.997C132.679 89.0243 132.042 89.3422 131.405 90.2958H125.674C125.037 90.9316 124.401 91.2494 123.764 91.8852C121.853 91.8852 119.625 92.203 117.714 92.203C117.077 92.5209 116.759 93.1566 116.122 93.4745H105.934C105.615 92.5209 105.615 91.8852 105.297 90.9316C104.342 89.6601 102.431 90.6137 101.476 90.2958C99.2474 88.7065 97.6555 87.435 96.0635 86.1635C96.0635 85.2099 96.0635 84.892 96.0635 84.892C96.7003 84.2563 97.3371 83.6205 97.9739 82.9848V78.2167C97.3371 77.581 96.7003 77.2631 96.0635 76.6274V70.27C99.8842 67.727 100.521 63.2768 104.342 61.3696C105.615 61.0517 106.57 60.7338 107.207 60.7338C107.207 60.0981 107.207 59.4624 107.207 58.8266C110.073 56.6015 112.938 54.0586 116.441 51.5156H118.033C118.351 50.562 118.669 49.6084 119.306 48.6548C119.943 48.6548 120.898 48.3369 121.853 48.3369C123.764 46.7475 125.993 44.8403 127.903 43.2509C129.495 41.6616 132.36 41.6616 133.952 40.0722C135.863 38.4829 138.728 37.8471 140.32 35.9399C141.912 34.0327 145.096 34.6684 146.37 32.4433H150.19C150.827 31.8076 151.464 31.4897 152.419 30.854H156.24C157.195 29.5825 158.469 28.9468 160.379 29.2646C162.289 29.5825 162.926 27.9932 164.2 27.9932C164.837 28.311 165.155 28.9468 166.11 29.5825C167.065 28.311 168.021 26.7217 168.339 26.0859H177.572C177.891 25.7681 178.528 25.4502 179.483 24.4966C180.438 24.4966 182.03 24.4966 183.622 24.1787C184.895 22.5894 186.806 22.5894 188.716 22.5894C189.671 23.2251 190.627 23.543 191.9 24.4966C192.855 24.1787 193.81 23.543 195.084 22.9072C195.402 23.2251 196.039 23.8608 196.994 24.1787C197.631 23.543 198.268 23.2251 198.905 22.5894H204.636C204.954 22.2715 205.591 21.9536 206.228 21.3179C208.775 20.6821 211.322 21.6357 213.869 21C214.506 21.6357 215.143 21.9536 215.78 22.5894H240.933C241.57 22.2715 241.888 21.9536 242.525 21.3179H265.449C267.359 22.2715 269.27 23.2251 271.817 24.4966H275.001C275.638 25.1323 276.275 25.4502 276.911 26.0859C277.548 25.4502 278.185 25.1323 278.822 24.8144C280.414 26.0859 282.006 27.3574 283.598 28.6289V31.8076C284.553 32.7612 285.508 33.397 286.463 34.0327H294.105C294.741 34.6684 295.378 35.3042 296.333 35.6221H298.562C298.88 36.5757 299.199 37.5293 299.836 38.4829C300.472 38.4829 301.428 38.8008 302.701 39.1186C303.656 41.3437 303.02 43.5688 303.02 46.1118C303.656 46.7475 304.293 47.3833 304.93 47.7011V57.5551C304.612 57.873 303.975 58.1909 303.02 59.1445C303.02 60.0981 303.02 61.3696 302.701 62.6411C301.109 63.5947 300.154 65.184 301.109 66.4555C300.791 67.0913 300.791 67.4091 300.791 67.727C299.836 68.6806 298.244 69.6342 297.607 70.5878C296.97 71.8593 296.97 73.1308 295.378 73.7665C293.468 74.7201 293.786 76.6274 292.513 77.581C291.239 78.8525 289.647 79.8061 288.692 81.0776C287.737 82.0312 287.418 83.3027 286.782 84.2563H284.871C283.279 85.2099 284.234 87.435 282.006 88.3886C280.095 89.0243 280.414 90.9316 279.14 92.203C278.185 93.4745 276.275 94.1103 275.956 96.0175C275.638 97.289 273.727 98.5604 272.454 99.5141C271.18 100.786 269.588 101.739 268.315 102.693C268.951 105.554 265.449 106.189 264.494 108.097C264.494 108.732 264.812 109.05 264.812 109.686C266.086 110.957 267.678 110.004 269.27 110.322C269.907 109.686 270.543 109.368 271.18 108.732H275.001C275.638 109.368 276.275 109.686 276.911 110.322C278.185 109.368 279.14 108.414 280.414 107.143C281.05 107.461 281.687 108.097 282.324 108.732H288.055C288.692 108.097 289.329 107.779 289.965 107.143H293.786C294.423 107.779 295.06 108.097 295.697 108.732C296.333 108.732 296.97 108.732 297.925 108.732C298.244 107.779 298.562 106.825 299.199 105.871C303.338 105.871 306.522 103.011 311.298 104.282C311.616 104.282 312.253 104.918 313.208 105.554H323.715C324.352 105.236 324.989 104.6 325.626 103.964H331.357C331.993 104.6 332.63 104.918 333.267 105.554H381.026C381.981 107.461 384.847 106.825 386.439 108.414C387.394 109.368 389.304 109.686 390.896 110.004C391.215 109.686 391.852 109.368 392.17 108.732C393.762 111.275 395.672 113.818 397.264 116.679C400.448 116.361 403.314 117.633 405.861 118.586C408.408 119.54 408.408 122.401 410 123.99C409.045 125.262 408.408 126.851 407.453 128.122C406.816 127.487 406.179 127.169 405.542 126.533C403.632 129.712 402.359 133.208 398.856 135.751C396.309 137.659 394.08 139.566 392.488 142.427C391.215 144.652 388.031 146.241 385.802 148.148C383.255 150.373 380.708 152.281 378.479 154.506C376.25 156.413 374.021 158.32 371.793 160.227C367.972 163.088 365.425 166.903 360.649 168.81C356.51 170.717 353.963 174.214 350.142 177.075C349.505 177.075 348.55 176.757 348.55 177.075C345.048 180.889 339.635 182.478 335.814 186.293C334.541 187.564 331.993 187.564 330.72 189.154C329.446 190.743 327.536 191.379 325.626 192.332C323.715 193.286 321.805 194.875 319.576 195.829C317.666 196.465 316.711 198.372 314.163 198.69C312.253 199.008 311.616 201.868 309.069 201.868C308.432 201.868 307.477 202.822 306.84 203.458C303.338 207.272 297.607 208.862 294.105 212.676C289.647 213.948 287.737 217.762 283.916 219.351C279.777 221.259 277.23 224.119 274.046 226.344C272.135 227.934 268.951 228.252 267.359 230.159C265.768 232.066 263.539 233.656 261.31 235.245C259.4 236.834 257.171 238.741 255.26 240.331C253.032 242.238 250.803 244.145 248.574 246.052C246.664 247.642 244.435 249.549 242.525 251.138C240.614 252.728 238.386 254.635 236.475 256.224C234.565 257.814 232.336 259.721 230.426 261.31C230.107 261.628 229.789 262.264 229.471 262.582C229.471 263.217 229.789 263.535 229.789 264.171C239.659 261.31 239.659 261.31 243.48 258.132C245.709 258.132 247.937 258.449 249.211 256.542C251.44 257.178 252.077 254.953 253.987 254.953C255.26 254.953 256.534 253.364 258.126 253.364C260.355 253.364 261.628 252.41 263.22 251.774C265.449 250.821 267.996 249.867 270.543 248.913C270.862 249.231 271.499 249.867 272.135 250.185C273.091 248.278 275.956 248.913 277.548 247.324C278.822 246.37 281.05 246.37 282.642 247.642C283.598 248.595 284.553 248.595 286.145 247.96C286.145 247.324 286.463 246.688 286.782 245.735C287.737 244.463 289.647 245.417 291.239 245.099C291.876 245.735 292.513 246.052 293.149 246.688C296.015 244.781 296.015 244.781 299.199 246.688C299.517 246.37 300.154 246.052 300.791 245.417H314.163C314.482 245.735 315.119 246.052 316.074 246.688H323.397C324.989 245.735 326.899 244.781 329.128 245.099C330.401 246.052 331.675 247.324 333.267 248.278C333.585 247.324 334.222 246.37 334.541 245.417C336.451 245.099 337.088 247.006 339.317 246.688C341.227 246.37 343.456 247.324 345.048 248.595C346.64 249.867 348.55 249.867 350.142 249.867C352.371 251.138 353.326 252.728 354.281 254.635H355.873C358.102 256.224 360.331 257.814 362.559 259.403C362.878 259.721 363.833 259.721 364.788 259.721C364.788 260.992 365.106 262.264 365.106 263.535C365.743 264.171 366.38 264.807 366.698 265.125C365.425 266.078 364.47 267.032 363.196 267.986C362.878 269.575 363.514 271.8 361.286 273.071C361.923 275.297 360.331 276.886 359.375 278.793C358.42 280.383 357.783 282.29 356.51 283.561C354.918 285.151 353.644 287.058 352.371 288.647C351.097 290.237 349.187 291.19 347.595 292.462C348.232 293.097 348.868 293.733 349.505 294.369C347.276 295.64 343.774 295.64 343.774 298.819C343.774 299.773 342.5 300.726 341.545 301.044C339.953 301.998 340.59 303.587 339.635 304.541C338.68 304.859 337.725 304.859 336.769 305.176C336.769 305.812 336.451 306.448 336.133 307.402C333.904 309.309 331.675 311.216 329.446 313.123C328.173 314.077 326.899 314.395 325.626 315.03C324.034 315.666 324.989 317.256 323.715 318.527C322.442 319.481 320.85 319.481 319.895 320.116C318.939 321.07 318.939 322.341 317.984 323.613C316.711 324.884 313.845 323.931 313.845 325.838C313.845 327.745 311.935 328.381 310.661 329.652C309.387 330.924 308.114 331.878 306.522 333.149C305.248 334.421 303.975 335.374 302.383 336.646C302.383 337.281 302.383 337.599 302.064 338.235C300.154 339.189 298.244 340.46 296.333 341.414V343.321C295.697 343.639 295.378 343.957 294.741 343.957C292.513 343.957 290.921 345.546 290.602 346.817C290.284 349.996 287.1 349.996 284.871 351.268C284.871 351.903 284.871 352.221 284.553 353.175C282.006 355.4 278.822 357.943 275.956 360.486C273.091 363.029 270.225 365.572 268.633 366.525C267.041 369.068 266.404 370.34 265.449 371.294C266.723 372.565 268.315 371.611 269.907 371.929C270.543 371.294 271.18 370.976 271.817 370.34C273.727 369.704 274.683 371.294 275.638 371.611C279.458 372.883 281.369 369.068 286.463 370.976C285.826 370.34 286.463 370.976 287.418 371.611H293.149C294.105 371.294 294.741 369.386 296.97 370.022C297.607 370.658 298.244 370.976 298.88 371.611H312.253C312.89 372.247 313.527 372.565 314.163 373.201C314.8 372.883 315.119 372.247 315.437 371.929C316.074 371.929 316.711 371.611 317.029 371.611C317.347 371.611 317.666 371.611 317.984 371.611C320.531 372.247 322.76 373.836 325.626 373.519C326.581 374.79 328.491 374.472 329.446 375.426C330.72 376.379 331.675 377.333 332.63 378.287C333.267 377.651 333.904 377.333 334.859 376.697C337.725 379.24 340.909 381.783 343.774 384.326C344.092 384.644 344.092 384.644 344.411 384.962H346.321C347.595 387.187 348.868 389.412 350.46 391.637C351.415 392.591 350.779 393.862 351.097 394.816C350.46 394.498 350.142 394.498 349.505 394.18C348.868 393.862 347.913 393.544 347.276 393.227C346.958 392.273 346.958 391.002 345.366 391.955C346.003 392.273 346.321 392.591 347.276 393.227C347.276 393.862 347.276 394.498 347.276 395.452C348.55 395.77 348.868 397.359 350.46 397.359C351.734 396.405 350.779 395.452 351.097 394.498C351.415 394.498 352.052 394.498 352.052 394.498C352.689 395.452 353.326 396.723 353.963 397.677C354.599 398.63 356.191 398.948 356.51 400.538C355.555 401.491 354.281 400.856 353.007 401.173C352.689 400.22 352.689 398.948 351.097 399.902C351.734 400.22 352.052 400.538 353.007 401.173C353.007 401.173 352.689 401.491 353.007 401.809C357.465 404.352 357.783 404.034 359.375 407.531C361.922 411.981 364.788 416.113 369.564 419.292C370.519 419.928 371.474 420.563 372.748 421.517C369.564 422.471 369.564 422.471 362.559 419.292C362.241 418.338 362.241 417.067 360.649 418.021C361.286 418.338 361.604 418.656 362.559 419.292C362.559 419.928 362.559 420.563 362.559 421.517C365.106 423.742 367.654 425.967 370.838 428.51C369.246 428.828 367.654 429.146 367.654 428.828C366.062 426.921 363.196 427.239 361.604 425.649C361.286 425.332 360.012 425.967 358.102 426.285C360.967 428.192 362.878 429.782 365.106 431.053C364.47 432.325 364.47 433.278 363.833 433.596C362.241 433.914 360.967 434.232 360.012 435.503H355.873C354.918 434.55 353.644 433.278 352.689 432.325C351.415 432.325 350.46 432.325 349.505 432.643C349.187 431.689 349.187 430.418 347.595 431.371C348.232 431.689 348.55 432.007 349.505 432.643C349.505 434.55 347.276 433.596 346.003 434.55C346.003 435.186 345.684 435.821 345.366 436.775C345.048 437.411 344.729 437.411 344.092 436.775C343.774 436.457 343.137 435.503 342.819 435.821C340.272 436.457 339.635 433.278 337.088 433.914C335.814 432.643 334.541 431.689 332.949 430.417C331.993 430.735 331.038 431.053 329.765 431.371C333.267 432.96 333.904 435.821 335.496 438.364C334.222 439.318 332.63 438.682 331.038 439C323.715 432.643 323.715 432.643 317.666 430.735C314.8 428.51 311.935 425.967 309.069 423.424C309.387 422.153 308.432 421.517 307.796 420.564C307.159 419.928 306.84 418.656 306.522 417.703C305.567 416.113 304.612 414.524 303.656 412.935C304.93 410.392 301.746 409.12 301.746 407.213C301.746 405.624 298.562 401.173 297.288 399.902H289.329C288.692 400.538 288.373 400.856 287.737 401.173H283.916C283.279 401.809 282.642 402.127 281.687 402.763H277.866C277.23 403.398 276.593 403.716 275.638 404.352H271.817C271.18 404.988 270.225 405.306 269.588 405.941H264.812C262.584 406.895 260.673 407.849 257.808 409.12H253.669C253.032 409.756 252.077 410.074 251.44 410.71H244.117C243.48 411.345 242.843 411.663 241.888 412.299H228.834C228.197 412.935 227.56 413.252 226.605 413.888H222.784C222.148 414.524 221.511 414.842 220.556 415.478H207.183C206.546 415.795 206.228 416.431 205.591 416.749H200.178C199.223 417.385 198.586 417.703 197.631 418.338H185.851C185.532 417.703 185.214 417.385 185.214 416.749C186.487 416.431 188.079 417.385 188.716 415.795C186.169 415.16 186.169 415.16 185.214 416.749C182.667 416.431 178.209 414.524 175.98 412.935V392.909C177.254 392.591 178.209 392.273 179.164 391.955C181.075 389.73 175.662 388.459 178.209 386.233C179.164 386.551 179.801 386.869 180.756 387.505C182.03 386.551 181.075 385.598 181.393 384.644C181.711 384.644 182.03 384.644 182.348 384.644C184.259 382.101 184.895 379.24 187.124 377.015C187.761 377.333 187.443 376.379 187.443 375.744ZM208.138 284.515C209.412 284.515 210.049 283.879 210.049 282.925C211.004 282.925 212.596 283.243 212.914 282.925C214.188 281.336 217.053 281.654 218.327 280.065C220.874 276.886 225.65 276.25 228.197 273.389C228.834 272.436 231.381 273.707 230.744 271.482C232.336 271.164 233.61 271.164 232.336 269.893C232.018 270.211 231.381 270.846 231.063 271.482H226.287C225.65 272.118 224.695 273.071 224.376 273.071C222.148 272.436 221.511 274.661 219.6 274.979C217.372 274.979 216.416 276.568 215.461 277.84C213.869 279.429 211.641 279.429 210.049 280.7V283.243C208.775 283.243 208.138 283.879 208.775 284.833C207.183 285.151 205.909 285.151 207.183 286.422C207.501 285.468 208.138 285.151 208.138 284.515ZM355.236 259.403C355.555 260.675 355.555 261.946 357.147 260.675C356.51 260.357 356.191 260.039 355.555 260.039C355.236 258.767 355.236 257.496 353.644 258.767C353.963 259.403 354.599 259.721 355.236 259.403ZM304.93 114.772C301.746 115.408 299.517 114.136 297.925 116.043C299.836 117.315 301.746 117.315 303.02 115.408C304.612 115.09 305.885 115.09 304.612 113.818C304.293 113.818 303.975 114.454 304.93 114.772ZM240.614 266.714H235.52C235.202 267.35 234.883 267.986 234.883 268.303C234.883 268.621 235.202 269.257 235.52 269.575C236.475 268.939 237.43 268.303 238.386 268.303C239.659 267.986 240.933 267.986 240.614 266.714C242.525 265.443 242.525 265.443 241.57 263.535C239.978 263.853 241.251 265.443 240.614 266.714ZM311.298 165.631C308.432 165.313 306.204 166.267 306.204 168.81C304.612 169.128 303.338 169.128 304.612 170.399C304.93 170.081 305.567 169.446 305.885 168.81C308.751 169.128 310.979 168.174 310.979 165.631C312.571 165.313 313.845 165.313 312.571 164.042C311.935 164.36 311.616 164.995 311.298 165.631ZM248.256 263.217C248.893 263.217 249.529 263.535 250.166 263.217C252.077 262.582 253.987 261.628 255.897 260.675C255.897 259.721 255.897 259.085 254.624 258.449C257.808 257.814 260.036 259.085 261.628 257.178C259.718 255.906 257.808 255.906 255.897 258.132H253.032C251.44 260.039 249.211 260.992 248.256 263.217C246.982 263.535 245.39 262.582 244.753 264.171C247.301 264.807 247.301 264.807 248.256 263.217ZM143.504 43.2509H139.365C137.136 44.2046 135.544 44.5224 134.271 45.476C132.36 46.7475 130.768 48.9726 128.54 49.6084C126.311 50.2441 125.037 51.8335 123.445 53.1049C121.535 54.3764 119.943 56.2836 118.033 57.5551C117.077 58.5087 115.804 59.1445 114.212 59.7802C112.302 60.416 110.71 62.0053 109.436 63.2768C107.844 64.8662 105.297 64.2304 104.023 66.1376C103.068 67.4091 103.387 69.3163 101.476 69.9521C99.2474 70.9057 99.8842 73.4487 97.9739 74.4023C97.3371 74.7201 97.3371 75.038 98.2922 75.6738C98.929 75.6738 99.5658 75.6738 100.839 75.9916C100.521 73.7665 102.113 71.8593 104.342 71.2236C105.934 70.5878 107.207 70.27 108.162 69.3163C111.346 66.7734 114.53 63.9125 117.396 61.3696C120.261 61.6875 121.217 59.4624 122.809 58.5087C124.401 57.2373 125.993 55.6479 127.903 55.0122C130.45 54.3764 131.087 51.8335 132.997 51.8335C135.544 51.5156 136.818 50.2441 138.092 48.6548C139.683 47.0654 141.912 47.0654 143.504 45.7939C143.504 44.8403 143.504 44.2046 142.867 43.5688C144.459 43.251 145.733 43.251 144.459 41.9795C144.141 42.2973 143.504 42.6152 143.504 43.2509ZM106.57 229.523C102.113 229.205 103.705 226.344 101.795 225.073C99.8842 223.802 98.2922 221.894 96.7003 220.623C94.7899 220.941 93.1979 219.987 91.9244 221.259C92.5612 224.437 93.8347 227.298 95.4267 227.934C98.6106 228.887 100.839 231.748 106.57 229.523ZM389.623 113.818C387.076 112.865 385.165 113.5 382.936 113.183C381.981 113.183 381.345 113.5 380.389 113.5C381.026 115.09 382.3 116.043 384.528 116.679C385.165 116.361 386.12 115.725 387.076 115.09C387.712 115.725 388.349 116.043 389.623 116.997C389.304 115.725 389.623 114.772 389.623 113.818ZM339.317 255.271C339.953 255.271 340.909 254.953 342.182 254.953C341.864 253.681 341.864 253.046 341.227 250.821C339.953 253.363 337.406 250.821 336.451 253.046C337.406 253.681 338.043 254.317 339.317 255.271ZM259.718 30.854C261.947 30.854 263.857 33.397 265.449 30.854C264.494 30.2183 263.539 29.2646 263.539 29.2646C262.265 29.9004 260.992 30.2183 259.718 30.854ZM85.2381 224.119C86.8301 222.53 86.8301 220.941 85.2381 219.033C83.6461 220.941 83.6461 222.53 85.2381 224.119ZM267.359 256.542C267.359 256.224 267.359 255.906 267.359 255.589C266.404 255.589 265.768 255.271 264.812 255.271C264.494 255.271 264.176 255.589 264.176 255.906C264.176 256.224 264.494 256.86 264.812 256.86C265.449 256.86 266.404 256.542 267.359 256.542ZM354.918 268.303C354.599 268.303 353.963 268.303 353.644 268.303C353.644 268.939 353.326 269.893 353.326 270.529C353.326 270.846 353.644 271.164 353.963 271.164C354.281 271.164 355.236 270.846 355.236 270.529C355.236 269.893 354.918 268.939 354.918 268.303ZM328.81 379.876C327.218 378.922 325.944 378.287 324.989 380.194C325.944 380.83 327.218 380.83 328.81 379.876ZM270.225 30.2183C270.225 30.5361 269.588 30.5361 269.588 30.854C269.588 31.1719 269.907 31.4897 270.225 31.8076C270.543 31.4897 270.862 31.4897 270.862 31.1719C270.862 30.854 270.543 30.5361 270.225 30.2183ZM168.021 39.4365C167.702 39.1186 167.702 38.8008 167.384 38.4829C167.065 38.8008 166.747 38.8008 166.747 39.1186C166.747 39.4365 167.065 39.7544 167.384 40.0722C167.384 39.7544 167.702 39.7544 168.021 39.4365ZM148.28 40.0722C147.962 40.3901 147.643 40.3901 147.643 40.708C147.643 41.0259 147.962 41.3437 148.28 41.6616C148.599 41.3437 148.917 41.3437 148.917 41.0259C148.599 40.708 148.28 40.3901 148.28 40.0722ZM300.472 51.5156C300.154 51.8335 300.154 51.8335 299.836 52.1513C300.154 52.4692 300.791 52.4692 301.109 52.7871C301.109 52.7871 301.428 52.4692 301.746 52.1513C301.428 52.1513 301.109 51.8335 300.472 51.5156ZM296.652 62.9589C296.333 63.2768 296.333 63.2768 296.015 63.5947C296.333 63.9125 296.97 63.9125 297.288 64.2304C297.288 64.2304 297.607 63.9125 297.925 63.5947C297.607 63.5947 297.289 63.2768 296.652 62.9589ZM374.658 114.454C374.977 114.772 374.977 114.772 375.295 115.09C375.613 114.772 375.932 114.454 375.932 114.136C375.932 114.136 375.613 113.818 375.295 113.5C374.977 113.818 374.977 114.136 374.658 114.454ZM294.423 117.633C294.741 117.951 294.741 117.951 295.06 118.268C295.378 117.951 295.697 117.633 295.697 117.315C295.697 117.315 295.378 116.997 295.06 116.679C295.06 116.997 294.741 117.315 294.423 117.633ZM289.647 119.54C289.965 119.222 289.965 119.222 290.284 118.904C289.965 118.586 289.329 118.586 289.01 118.268C289.01 118.268 288.692 118.586 288.373 118.904C289.01 119.222 289.329 119.54 289.647 119.54ZM398.538 120.176C398.219 120.494 397.583 120.494 397.264 120.811C397.583 121.129 397.583 121.447 397.901 121.447C398.219 121.447 398.856 121.129 399.175 120.811C398.856 120.494 398.856 120.176 398.538 120.176ZM270.543 126.215C270.862 125.897 270.862 125.897 271.18 125.579C270.862 125.262 270.225 125.262 269.907 124.944C269.907 124.944 269.588 125.262 269.27 125.579C269.907 125.897 270.225 125.897 270.543 126.215ZM345.048 254.953C345.366 254.635 345.366 254.635 345.684 254.317C345.366 253.999 344.729 253.999 344.411 253.681C344.411 253.681 344.092 253.999 343.774 254.317C344.411 254.317 344.729 254.635 345.048 254.953ZM279.14 256.224C279.458 256.542 279.458 256.542 279.777 256.86C280.095 256.542 280.414 256.224 280.414 255.906C280.414 255.906 280.095 255.589 279.777 255.271C279.777 255.589 279.458 255.906 279.14 256.224ZM275.001 257.496C274.683 257.178 274.683 256.86 274.364 256.86C274.046 256.86 273.409 257.178 273.091 257.496C273.409 257.814 273.409 258.132 273.727 258.132C274.364 257.814 274.683 257.814 275.001 257.496ZM261.628 262.264C261.31 261.946 261.31 261.946 260.992 261.628C260.673 261.946 260.355 262.264 260.355 262.582C260.355 262.582 260.673 262.9 260.992 263.217C260.992 262.9 261.31 262.582 261.628 262.264ZM360.012 263.217C359.694 263.535 359.375 263.535 359.375 263.853C359.375 264.171 359.694 264.489 360.012 264.807C360.331 264.489 360.649 264.489 360.649 264.171C360.649 263.853 360.331 263.535 360.012 263.217ZM316.392 379.24C316.074 379.558 315.437 379.558 315.119 379.876C315.437 380.194 315.437 380.512 315.755 380.512C316.074 380.512 316.711 380.194 317.029 379.876C317.029 379.558 316.711 379.24 316.392 379.24ZM356.51 406.895C356.191 407.213 355.555 407.213 355.236 407.531C355.555 407.849 355.555 408.167 355.873 408.167C356.191 408.167 356.828 407.849 357.147 407.531C357.147 407.213 356.828 407.213 356.51 406.895Z" fill="#FEE3B3"/>
<path d="M139.683 305.494V302.951C141.275 301.68 142.867 300.408 144.141 299.137C145.733 297.865 147.325 296.912 147.643 294.687C147.962 293.733 149.235 292.462 151.146 292.462V295.64C150.509 295.958 149.554 296.276 149.235 296.594C148.917 297.23 149.235 298.183 149.235 298.819C146.688 299.773 144.778 301.362 143.504 303.587C142.867 303.905 141.912 304.223 141.275 304.541C140.639 305.176 140.002 305.494 139.683 305.494Z" fill="#FEE3B3"/>
<path d="M135.863 310.58C135.544 308.037 136.818 306.448 139.683 305.812C140.002 308.037 138.728 309.944 135.863 310.58Z" fill="#FEE3B3"/>
<path d="M286.463 89.6601C288.055 88.7065 289.01 88.3886 290.284 89.3422C289.329 91.2494 288.055 90.6137 286.463 89.6601Z" fill="#FEE3B3"/>
<path d="M160.697 276.25C160.697 275.614 160.379 274.661 160.697 274.025C161.016 273.389 161.971 273.389 162.608 273.071C162.608 273.707 162.926 274.661 162.608 275.297C162.289 275.614 161.334 275.932 160.697 276.25Z" fill="#FEE3B3"/>
<path d="M185.532 375.744C185.532 374.79 185.532 374.154 185.532 373.201C185.532 372.883 186.169 372.883 186.806 372.565C186.806 372.565 187.443 372.883 187.443 373.201C187.443 374.154 187.443 374.79 187.443 375.744H185.532Z" fill="#FEE3B3"/>
<path d="M312.89 55.33C312.571 55.6479 312.571 55.9658 312.253 56.2836C311.935 55.9658 311.616 55.9658 311.616 55.6479C311.616 55.33 311.935 55.0122 312.253 54.6943C312.571 54.6943 312.89 55.0122 312.89 55.33Z" fill="#FEE3B3"/>
<path d="M308.432 64.5483C308.751 64.8662 309.069 65.184 309.069 65.5019C309.069 65.5019 308.751 65.8198 308.432 66.1376C308.114 65.8198 307.796 65.5019 307.796 65.184C307.796 64.8662 308.432 64.5483 308.432 64.5483Z" fill="#FEE3B3"/>
<path d="M305.248 69.6342C305.885 68.9985 306.522 68.3627 306.84 68.0449C308.114 69.3163 306.522 69.3163 305.248 69.6342Z" fill="#FEE3B3"/>
<path d="M306.204 68.9985C305.567 69.6342 304.93 70.27 304.612 70.5878C303.338 69.3163 304.612 69.6342 306.204 68.9985Z" fill="#FEE3B3"/>
<path d="M294.741 82.0312C294.423 81.7133 294.423 81.7133 294.105 81.3954C294.423 81.0776 295.06 81.0776 295.378 80.7597C295.378 80.7597 295.697 81.0776 296.015 81.3954C295.697 81.7133 295.378 82.0312 294.741 82.0312Z" fill="#FEE3B3"/>
<path d="M282.324 97.289C282.961 96.6532 283.598 96.0175 283.916 95.6996C285.19 96.9711 283.598 96.9711 282.324 97.289Z" fill="#FEE3B3"/>
<path d="M283.279 96.9711C282.642 97.6068 282.006 98.2426 281.687 98.5605C280.414 96.9711 281.687 97.289 283.279 96.9711Z" fill="#FEE3B3"/>
<path d="M278.185 100.468C278.503 100.786 278.503 100.786 278.822 101.103C278.503 101.421 277.866 101.421 277.548 101.739C277.548 101.739 277.23 101.421 276.911 101.103C277.548 100.786 277.866 100.786 278.185 100.468Z" fill="#FEE3B3"/>
<path d="M197.95 235.881C198.268 236.198 198.268 236.198 198.586 236.516C198.268 236.834 197.631 236.834 197.313 237.152C197.313 237.152 196.994 236.834 196.676 236.516C197.313 236.198 197.631 235.881 197.95 235.881Z" fill="#FEE3B3"/>
<path d="M188.716 243.827C189.353 243.192 189.99 242.556 190.308 242.238C191.582 243.51 189.99 243.51 188.716 243.827Z" fill="#FEE3B3"/>
<path d="M189.671 243.509C189.035 244.145 188.398 244.781 188.079 245.099C186.806 243.827 188.398 243.827 189.671 243.509Z" fill="#FEE3B3"/>
<path d="M182.985 250.503C183.622 249.867 184.259 249.231 184.577 248.913C185.851 250.185 184.577 250.185 182.985 250.503Z" fill="#FEE3B3"/>
<path d="M183.94 249.867C183.303 250.503 182.667 251.138 182.348 251.456C181.075 250.185 182.667 250.503 183.94 249.867Z" fill="#FEE3B3"/>
<path d="M171.523 261.946C172.16 261.31 172.796 260.675 173.115 260.357C174.388 261.628 173.115 261.31 171.523 261.946Z" fill="#FEE3B3"/>
<path d="M172.478 261.31C171.841 261.946 171.204 262.582 170.886 262.9C169.613 261.628 171.204 261.946 172.478 261.31Z" fill="#FEE3B3"/>
<path d="M165.792 268.303C166.429 267.668 167.065 267.032 167.384 266.714C168.657 267.986 167.384 267.986 165.792 268.303Z" fill="#FEE3B3"/>
<path d="M166.747 267.986C166.11 268.621 165.473 269.257 165.155 269.575C163.881 268.303 165.473 268.303 166.747 267.986Z" fill="#FEE3B3"/>
<path d="M161.971 273.071C162.608 272.436 163.245 271.8 163.563 271.482C164.837 273.071 163.563 272.754 161.971 273.071Z" fill="#FEE3B3"/>
<path d="M161.016 276.25C160.379 276.886 159.742 277.522 159.424 277.84C158.15 276.25 159.742 276.568 161.016 276.25Z" fill="#FEE3B3"/>
<path d="M158.469 280.7C158.15 280.7 157.832 281.018 157.832 281.018C157.514 280.7 157.195 280.383 157.195 280.065C157.195 280.065 157.514 279.747 157.832 279.429C157.832 279.747 158.15 280.383 158.469 280.7Z" fill="#FEE3B3"/>
<path d="M156.877 284.833C155.922 284.197 155.603 283.879 154.966 283.561C156.558 282.29 156.558 283.561 156.877 284.833Z" fill="#FEE3B3"/>
<path d="M133.952 312.17C133.952 310.898 134.589 310.58 135.863 310.58C135.863 311.534 135.226 312.17 133.952 312.17Z" fill="#FEE3B3"/>
<path d="M236.157 313.441C235.838 313.123 235.202 313.123 234.883 312.805C235.202 312.487 235.202 312.17 235.52 312.17C235.838 312.17 236.475 312.487 236.794 312.805C236.794 313.123 236.475 313.441 236.157 313.441Z" fill="#FEE3B3"/>
<path d="M230.744 317.256C231.381 316.62 232.018 315.984 232.336 315.666C233.61 316.938 232.018 316.938 230.744 317.256Z" fill="#FEE3B3"/>
<path d="M231.699 316.938L230.107 318.527C228.834 316.938 230.107 317.256 231.699 316.938Z" fill="#FEE3B3"/>
<path d="M225.013 323.613C225.65 322.977 226.287 322.341 226.605 322.024C227.879 323.613 226.287 323.295 225.013 323.613Z" fill="#FEE3B3"/>
<path d="M225.968 323.295C225.331 323.931 224.695 324.567 224.376 324.884C223.103 323.613 224.376 323.613 225.968 323.295Z" fill="#FEE3B3"/>
<path d="M219.6 330.924C219.282 331.242 218.645 331.242 218.327 331.56C218.008 331.56 218.008 331.242 217.69 330.924C218.008 330.606 218.645 330.606 218.964 330.288C219.282 330.288 219.6 330.606 219.6 330.924Z" fill="#FEE3B3"/>
<path d="M213.869 339.189C213.551 339.506 213.551 339.506 213.232 339.824C212.914 339.506 212.596 339.189 212.596 338.871C212.596 338.871 212.914 338.553 213.232 338.235C213.232 338.553 213.551 338.871 213.869 339.189Z" fill="#FEE3B3"/>
<path d="M211.004 341.414C211.322 341.732 211.641 342.049 211.641 342.367C211.641 342.367 211.322 342.685 211.004 343.003C210.685 342.685 210.367 342.367 210.367 342.049C210.367 341.732 211.004 341.732 211.004 341.414Z" fill="#FEE3B3"/>
<path d="M205.909 348.089C206.546 347.453 207.183 346.817 207.501 346.5C208.775 347.771 207.183 347.771 205.909 348.089Z" fill="#FEE3B3"/>
<path d="M206.865 347.771C206.228 348.407 205.591 349.043 205.273 349.36C203.999 348.089 205.273 348.089 206.865 347.771Z" fill="#FEE3B3"/>
<path d="M200.815 353.493C201.134 353.175 201.134 353.175 201.452 352.857C201.77 353.175 202.089 353.493 202.089 353.811C202.089 353.811 201.77 354.129 201.452 354.446C201.452 354.129 201.134 353.811 200.815 353.493Z" fill="#FEE3B3"/>
<path d="M197.631 357.625C197.95 357.943 198.268 358.261 198.268 358.579C198.268 358.579 197.95 358.897 197.631 359.214C197.313 358.897 196.994 358.579 196.994 358.261C197.313 358.261 197.631 357.943 197.631 357.625Z" fill="#FEE3B3"/>
<path d="M195.084 364.3H193.174C193.174 363.665 193.174 362.711 194.447 363.029C194.447 363.029 194.766 363.665 195.084 364.3Z" fill="#FEE3B3"/>
<path d="M193.492 363.983C192.855 364.618 192.218 365.254 191.9 365.572C190.627 364.3 192.218 364.3 193.492 363.983Z" fill="#FEE3B3"/>
<path d="M188.716 369.386C189.353 368.751 189.99 368.115 190.308 367.797C191.582 369.068 189.99 369.068 188.716 369.386Z" fill="#FEE3B3"/>
<path d="M189.671 369.068C189.035 369.704 188.398 370.34 188.079 370.658C186.806 369.068 188.398 369.386 189.671 369.068Z" fill="#FEE3B3"/>
<path d="M185.851 375.426C185.214 376.062 184.577 376.697 184.259 377.015C182.985 375.744 184.577 375.744 185.851 375.426Z" fill="#FEE3B3"/>
<path d="M181.711 385.916C180.756 385.28 180.438 384.962 179.801 384.644C181.393 383.373 181.393 384.644 181.711 385.916Z" fill="#FEE3B3"/>
<path d="M413.923 102.471C413.735 102.471 413.547 102.471 413.359 102.471C413.359 102.848 413.359 103.225 413.296 103.602C413.296 103.225 413.296 102.848 413.359 102.471C413.547 102.471 413.735 102.471 413.923 102.471C413.672 96.0041 413.61 89.5368 412.733 83.0695C413.986 82.0021 412.795 80.9347 412.67 79.8673C412.67 79.6789 412.67 79.4278 412.67 79.2394C413.234 73.3373 412.733 67.4979 412.545 61.6585C412.169 58.3307 411.793 54.9401 411.417 51.6123C411.48 50.2937 410.916 49.4147 409.663 49.1007C407.47 48.5356 406.906 50.4821 405.841 51.6123C404.964 51.8634 404.964 52.8053 404.588 53.4332C402.27 54.9401 401.58 57.64 400.077 59.7121C399.701 59.8376 399.575 60.026 399.638 60.4027C399.638 60.7795 399.575 61.219 399.575 61.5957C398.51 62.3492 397.696 63.3538 397.633 64.7352C396.944 65.1747 397.132 65.9282 397.069 66.6188C396.13 67.4979 395.44 68.5653 395.315 69.8839C393.874 74.0907 392.37 78.2348 390.929 82.4417C390.867 83.0695 390.804 83.6974 390.741 84.2625C390.115 84.5137 390.178 85.016 390.303 85.5183C389.99 86.5229 389.363 87.5276 389.488 88.6578C387.734 90.4159 388.737 92.9902 387.734 94.9367C387.734 95.125 387.734 95.3762 387.734 95.5645C387.233 96.7575 386.794 98.0133 387.045 99.3319C385.604 98.8296 386.732 97.5738 386.293 96.8203C385.416 90.2903 386.481 83.6346 385.291 77.1046C385.165 74.0907 386.168 70.9513 385.103 67.9374C385.103 66.6816 385.291 65.3631 385.103 64.1073C384.789 62.0352 383.724 61.1562 381.845 62.7887C379.464 65.5514 378.148 68.942 377.083 72.3954C376.269 74.2163 374.953 75.8488 375.141 78.0464C375.016 78.172 374.953 78.3604 375.016 78.5487C375.266 79.1138 375.767 79.3022 376.331 79.3022C375.767 79.2394 375.266 79.0511 375.016 78.5487C373.512 80.3068 373.762 82.6928 373.073 84.7021C372.196 85.2044 372.447 86.0206 372.447 86.7741C371.382 87.402 372.071 88.4066 371.883 89.2857C371.068 90.2275 371.256 91.3577 371.256 92.4879C370.379 94.0576 370.066 95.7529 369.941 97.511C369.314 97.8877 369.878 98.2645 370.003 98.6412C369.502 99.0179 369.69 100.023 368.876 100.148C368.876 100.525 368.876 100.902 368.813 101.278C368.813 101.53 368.813 101.718 368.876 101.969C368.876 101.718 368.876 101.53 368.813 101.278C367.56 100.462 368.374 99.2691 368.312 98.2017C367.372 97.511 368.688 96.318 367.748 95.5645C367.81 93.6809 367.56 91.7972 367.059 89.9763C366.933 88.4694 367.372 86.8997 366.432 85.5811C366.62 81.3742 365.179 77.5441 363.863 73.6512C363.55 72.8349 363.049 72.2071 362.046 72.521C361.921 72.3954 361.733 72.3326 361.545 72.3326C359.728 70.8257 359.29 72.2698 358.788 73.5884C357.535 74.5303 357.535 76.1 357.034 77.4185C356.157 78.0464 355.906 78.9255 355.781 79.9301C354.215 83.1951 353.15 86.5857 352.147 89.9763C352.085 90.3531 352.022 90.7298 352.022 91.1065C351.019 92.2367 350.769 93.5553 350.957 94.9995C350.706 95.8157 350.456 96.632 350.205 97.511C349.265 97.9505 349.641 98.704 349.704 99.3947C349.077 101.906 348.451 104.418 347.824 106.992C347.574 107.432 347.511 107.997 347.386 108.625C346.634 109.566 346.133 110.634 346.258 111.89C346.195 112.266 346.133 112.706 346.07 113.083C345.882 113.271 345.694 113.459 345.506 113.648C344.942 113.962 344.942 114.464 345.067 115.029C345.067 115.531 344.942 116.159 345.631 116.285C346.634 116.473 347.072 115.72 347.574 115.092C348.388 114.715 348.889 114.15 348.701 113.145C349.641 111.136 350.205 109.001 350.644 106.804C351.395 104.355 352.21 101.906 352.46 99.3319C352.523 99.1435 352.586 98.9552 352.648 98.7668C353.714 94.9995 354.716 91.2321 355.781 87.4648C356.408 86.2718 357.034 85.1416 356.971 83.7602C358.225 82.5672 358.538 80.9347 358.851 79.365C359.603 78.9255 360.167 78.4232 360.104 77.4813C360.355 76.979 360.731 76.6651 361.295 76.9162C361.67 78.6115 362.046 80.244 362.36 81.9393C362.61 82.7556 362.861 83.6346 363.174 84.4509C363.111 84.6393 363.174 84.8276 363.299 85.016C363.487 86.2718 362.861 87.6531 363.863 88.7833C363.926 90.7298 363.675 92.739 364.427 94.6227C364.74 97.6994 364.991 100.776 365.304 103.853C365.492 108.499 365.931 113.145 367.059 117.666C367.184 118.357 366.808 119.11 367.497 119.676C369.314 121.12 369.69 119.487 370.254 118.357C370.254 118.357 370.254 118.357 370.254 118.42C370.692 115.531 371.382 112.58 371.444 109.692C371.507 107.243 372.885 104.983 372.133 102.534C372.509 100.713 372.948 98.8296 373.324 97.0087C374.201 93.2414 375.016 89.474 375.893 85.7067C377.146 84.5137 376.457 82.7556 377.083 81.3742C378.336 78.9883 378.837 76.3511 379.652 73.8396C381.03 72.7094 380.278 70.449 381.97 69.5071C382.033 69.8839 382.033 70.2606 382.095 70.6373C382.095 70.8257 382.095 71.0769 382.095 71.2652C382.095 71.7047 382.095 72.0815 382.095 72.521C382.283 77.5441 381.531 82.63 382.597 87.5904C382.784 91.6088 382.158 95.6273 383.223 99.583C383.223 100.211 383.286 100.776 383.286 101.404C383.286 102.471 382.91 103.602 383.662 104.606C383.787 104.983 383.85 105.422 383.975 105.799C383.912 107.557 383.912 109.315 385.04 110.822C386.732 111.827 387.985 111.701 388.361 109.504C388.799 106.992 389.112 104.543 389.488 102.032C390.616 100.964 389.802 99.5203 390.24 98.3273C391.368 96.318 391.243 94.1204 391.431 91.9856H391.368C392.37 91.6088 392.558 90.981 391.932 90.0391C392.057 89.8508 392.12 89.6624 392.12 89.474C393.811 86.7113 393.999 83.3835 395.127 80.4324C396.13 77.6697 397.508 74.907 397.571 71.8303C397.571 71.642 397.571 71.4536 397.571 71.2024C398.009 70.3862 398.448 69.5699 398.886 68.6909C398.886 68.2514 398.824 67.8118 398.824 67.3723C399.074 66.7444 399.262 66.1793 399.513 65.5514C399.763 65.5514 399.951 65.5514 400.202 65.6142C400.891 64.6724 401.518 63.7306 401.455 62.4748C402.457 62.098 401.894 61.219 402.082 60.5911C403.084 60.3399 403.209 59.2725 403.899 58.7702C404.901 58.2051 405.653 57.4517 405.653 56.1959C405.653 55.1913 406.781 55.1913 407.156 54.5006C408.347 53.182 408.41 54.7517 408.848 55.1913C408.535 57.4517 408.973 59.6493 409.099 61.8469C409.036 62.0352 409.036 62.2864 408.973 62.4748C409.099 64.5468 408.597 66.6816 409.412 68.7537C409.475 69.7583 409.161 70.8885 410.039 71.7675C408.597 73.1489 409.851 74.8442 409.663 76.3511C409.663 77.1674 409.663 77.9836 409.663 78.8627C409.663 80.8091 409.099 82.8184 410.101 84.6393C409.349 86.4602 410.164 88.3438 410.164 90.1647C409.851 93.5553 409.976 96.9459 410.79 100.274C410.79 100.902 410.79 101.467 410.79 102.095C410.665 102.283 410.602 102.409 410.728 102.597C410.352 103.036 410.352 103.539 410.728 103.978C409.788 105.046 411.041 106.05 410.916 107.118C411.041 109.001 410.414 110.948 411.354 112.832C411.417 113.648 411.48 114.464 411.542 115.28C411.73 115.28 411.918 115.28 412.043 115.28C411.855 115.28 411.73 115.28 411.542 115.28C411.229 117.227 411.417 119.173 411.855 121.057C412.106 121.81 411.48 123.317 413.046 122.941C414.236 122.627 415.113 121.622 414.988 120.115C414.612 114.087 414.299 108.248 413.923 102.471ZM351.897 93.053C351.897 93.1158 351.897 93.1158 351.959 93.1786C351.897 93.1158 351.897 93.053 351.897 93.053ZM352.523 94.9367C352.147 94.7483 351.771 94.6227 351.333 94.4343C351.333 94.6227 351.27 94.7483 351.27 94.9367C351.395 95.2506 351.458 95.5018 351.395 95.6901C351.395 95.439 351.395 95.2506 351.27 94.9367C351.333 94.7483 351.333 94.6227 351.333 94.4343C351.709 94.6227 352.085 94.7483 352.523 94.9367ZM364.427 85.5183C364.615 85.5183 364.803 85.5183 365.054 85.5183C364.866 85.5183 364.615 85.5183 364.427 85.5183ZM368.876 104.292C368.938 104.983 368.75 105.611 368.5 106.239C368.75 105.611 368.876 104.983 368.876 104.292ZM367.56 102.471C367.497 102.346 367.497 102.22 367.497 102.095C367.497 102.22 367.56 102.346 367.56 102.471ZM367.873 103.413C367.873 103.664 367.873 103.79 367.748 103.915C367.81 103.79 367.873 103.602 367.873 103.413ZM368.625 109.253C368.813 109.566 368.813 109.88 368.813 110.32C368.813 109.88 368.813 109.504 368.625 109.253ZM369.439 107.494C369.063 107.683 368.625 107.934 368.249 108.122C368.625 107.934 369.001 107.683 369.439 107.494ZM385.667 97.9505C385.604 98.2645 385.479 98.5156 385.165 98.704C385.416 98.4528 385.604 98.2017 385.667 97.9505ZM384.225 63.9817C384.225 63.7306 384.1 63.5422 383.912 63.3538C384.1 63.4794 384.225 63.7306 384.225 63.9817ZM382.722 76.7907C382.659 75.4721 382.659 74.0907 382.597 72.7722C382.659 74.1535 382.722 75.4721 382.722 76.7907ZM384.476 86.209C384.288 86.3974 384.1 86.5857 383.912 86.7741C384.038 86.5857 384.288 86.3974 384.476 86.209ZM385.04 103.664C385.04 103.915 385.04 104.104 385.103 104.355C385.479 104.355 385.917 104.355 386.293 104.355C386.356 104.167 386.356 103.978 386.356 103.79C386.042 103.162 385.98 102.597 386.168 102.032C386.042 102.597 386.105 103.162 386.356 103.79C386.356 103.978 386.356 104.167 386.293 104.355C385.917 104.355 385.479 104.355 385.103 104.355C385.04 104.104 384.977 103.915 385.04 103.664ZM388.674 99.0807C388.799 98.704 389.3 98.3901 389.488 98.0133C389.488 97.5738 389.363 97.1343 389.175 96.8203C389.363 97.1343 389.488 97.511 389.488 98.0133C389.238 98.3901 388.799 98.704 388.674 99.0807ZM391.744 88.3438C391.681 87.402 391.681 86.3974 391.932 85.4555C391.681 86.3974 391.619 87.402 391.744 88.3438ZM403.899 57.8912C403.773 57.8284 403.648 57.7656 403.585 57.64C403.648 57.7028 403.773 57.8284 403.899 57.8912C403.961 57.7656 404.024 57.5772 404.149 57.4517C404.086 57.5772 403.961 57.7028 403.899 57.8912ZM407.219 53.496C407.407 53.0564 407.783 52.8681 408.347 52.7425C407.72 52.8681 407.344 53.1192 407.219 53.496ZM410.101 51.6123C410.164 51.4239 410.164 51.2355 410.164 50.9844C410.164 51.1728 410.164 51.4239 410.101 51.6123ZM412.043 70.449C411.918 70.5745 411.793 70.7629 411.73 70.9513C411.793 70.7629 411.855 70.5745 412.043 70.449C411.793 69.9467 411.542 69.5071 411.166 69.1932C411.48 69.5071 411.793 69.9467 412.043 70.449ZM411.417 83.0068C411.354 82.944 411.354 82.8812 411.292 82.8184C411.354 82.8812 411.417 82.944 411.417 83.0068C411.855 83.0068 412.294 83.0695 412.733 83.0695C412.294 83.0068 411.855 83.0068 411.417 83.0068ZM412.67 100.588C412.482 100.085 412.294 99.583 412.231 99.0807C412.357 99.583 412.482 100.085 412.67 100.588ZM413.296 116.285C413.422 116.473 413.484 116.599 413.61 116.787C413.484 116.599 413.422 116.41 413.296 116.285Z" fill="#00B884"/>
<path d="M398.824 67.2467C398.824 67.6863 398.886 68.1258 398.886 68.5653C400.265 67.9374 399.889 66.5561 400.202 65.4259C399.951 65.4259 399.763 65.4259 399.513 65.3631C399.325 66.0537 399.074 66.6188 398.824 67.2467Z" fill="#00B884"/>
<path d="M202.538 438.57C202.066 437.371 201.122 436.372 200.381 435.239C198.089 433.241 196.943 430.176 194.382 428.444C193.034 426.445 191.349 424.847 189.461 423.448C188.652 422.848 188.315 422.249 188.989 421.382C190 420.716 191.281 420.317 191.686 418.918C195.393 416.186 196.876 412.522 195.73 409.258C195.528 409.058 195.258 408.858 195.056 408.658C193.438 407.659 191.753 407.792 190.135 408.658C189.259 408.792 188.248 408.392 187.439 409.191C185.484 409.791 183.327 410.124 182.114 412.056C180.968 412.722 180.025 412.789 179.553 411.256C179.62 411.057 179.553 410.857 179.418 410.723C179.418 410.524 179.418 410.257 179.418 410.057C179.553 407.726 178.879 405.461 178.205 403.262C178.137 401.797 177.935 400.398 176.924 399.265C176.654 398.133 176.115 397.133 174.969 396.667C172.543 395.268 171.127 396.134 170.521 398.665C170.386 398.932 170.251 399.198 170.116 399.465C169.644 400.531 169.105 401.663 168.633 402.729C167.285 405.794 165.6 408.658 165.398 412.056C165.196 413.655 163.713 414.92 164.117 416.719C163.241 417.852 162.23 418.918 162.5 420.516C160.882 422.249 158.253 421.316 156.501 422.582C155.22 423.248 153.467 422.448 152.322 423.647C149.76 423.714 147.671 425.18 145.649 426.445C144.098 427.445 142.885 429.243 145.649 430.642C147.873 432.708 150.771 432.974 153.602 433.44C153.67 433.307 153.804 433.241 153.872 433.107C154.276 432.974 154.681 432.841 155.018 432.708C154.613 432.841 154.209 432.974 153.872 433.107C153.804 433.241 153.67 433.307 153.602 433.44C155.22 434.373 156.905 434.107 158.59 433.973C160.14 433.84 160.882 434.373 160.41 435.972C160.208 436.438 160.006 436.838 159.803 437.304C158.118 439.703 157.579 442.434 157.781 445.299C157.781 445.965 157.781 446.564 157.849 447.231C157.983 448.363 157.646 449.962 159.129 450.162C160.208 450.295 161.826 450.228 162.297 448.63C162.567 448.43 162.769 448.23 163.039 448.03C164.589 448.163 164.994 446.831 165.87 446.031C166.072 445.832 166.274 445.698 166.476 445.498C167.555 444.899 167.892 443.566 169.173 443.233C170.318 442.967 170.723 440.502 172.543 441.968C172.341 444.699 172.273 447.43 173.015 450.095C174.093 452.36 174.228 452.427 175.643 451.228C176.587 450.628 177.531 449.962 178.474 449.362C178.879 449.362 179.148 449.162 179.216 448.763C180.766 447.164 182.316 445.498 183.26 443.433C185.552 442.034 184.81 439.37 185.956 437.438C187.035 437.837 188.181 438.237 189.259 438.703C189.259 438.437 189.192 438.17 189.192 437.971C189.192 438.237 189.259 438.503 189.259 438.703C190.405 439.17 191.146 440.569 192.629 440.036C193.303 440.569 193.977 441.035 194.651 441.568C196.404 442.434 198.156 443.566 200.179 442.234C200.381 441.968 200.65 441.768 200.853 441.501C203.886 441.568 202.942 439.703 202.538 438.57ZM194.247 429.044C194.247 429.51 194.18 430.043 193.843 430.376C194.18 429.976 194.247 429.51 194.247 429.044ZM188.855 425.913C189.259 426.712 189.663 427.578 190.135 428.377C189.663 427.578 189.259 426.779 188.855 425.913ZM187.439 421.982C187.507 421.849 187.641 421.716 187.709 421.649C187.574 421.716 187.507 421.849 187.439 421.982C187.439 422.249 187.372 422.515 187.304 422.648C187.372 422.448 187.439 422.249 187.439 421.982ZM193.64 408.725C192.899 408.525 192.09 408.858 191.349 408.925C192.09 408.858 192.831 408.525 193.64 408.725ZM182.721 412.589C183.058 412.589 183.395 412.655 183.597 412.789C183.327 412.655 182.99 412.589 182.721 412.589ZM179.351 411.923C178.879 412.589 177.666 413.055 178.744 414.054C177.666 412.988 178.879 412.522 179.351 411.923ZM170.588 403.329C170.993 402.929 171.06 402.329 171.262 401.73C171.06 402.263 170.993 402.929 170.588 403.329ZM145.716 429.976C145.581 429.91 145.446 429.776 145.312 429.643C145.446 429.776 145.514 429.91 145.716 429.976ZM145.918 427.578C146.457 427.245 146.997 427.511 147.536 427.911C147.064 427.511 146.525 427.245 145.918 427.578ZM155.827 430.776C156.298 430.709 156.703 430.709 157.175 430.642C156.703 430.642 156.231 430.709 155.827 430.776ZM160.612 441.035C160.747 441.102 160.882 441.102 161.084 441.168C161.286 440.302 160.949 439.236 161.893 438.57C161.96 437.837 162.365 437.238 162.702 436.638C162.297 437.238 161.893 437.837 161.893 438.57C160.949 439.236 161.354 440.302 161.084 441.168C160.882 441.168 160.747 441.102 160.612 441.035ZM161.826 448.563C161.826 448.163 161.826 447.697 161.893 447.297C161.826 447.697 161.826 448.097 161.826 448.563ZM171.127 438.77C171.397 438.503 171.801 438.237 171.936 437.971C171.801 438.237 171.464 438.503 171.127 438.77ZM174.7 441.301C175.037 441.435 175.172 441.701 175.239 441.968C175.172 441.701 174.969 441.435 174.7 441.301ZM183.193 443.167C183.193 443.167 183.327 443.233 183.395 443.233L183.193 443.167ZM183.058 436.905C183.26 437.038 183.395 437.104 183.597 437.171C183.395 437.104 183.193 437.038 183.058 436.905ZM185.821 437.171C185.889 437.238 185.956 437.238 186.024 437.238C185.889 437.238 185.889 437.238 185.821 437.171ZM197.55 438.637C197.145 438.17 196.673 437.771 196.269 437.304V437.371C196.134 437.571 195.999 437.704 195.797 437.771C195.932 437.704 196.134 437.571 196.269 437.371C194.988 437.571 194.112 436.638 192.966 436.438C191.146 435.372 189.326 434.373 187.507 433.307C183.664 431.775 183.327 431.975 182.788 436.438C181.777 437.238 182.451 438.237 182.316 439.17C181.71 439.836 181.171 440.569 181.305 441.568C180.025 443.034 178.744 444.433 177.463 445.898C175.711 443.7 176.385 441.102 176.317 438.637C176.317 437.771 177.126 436.638 175.509 436.372C175.509 436.172 175.441 436.039 175.306 435.839C172.61 433.707 172.071 436.905 170.655 437.771C168.162 439.969 165.196 441.635 163.308 444.499C160.545 445.099 162.028 442.767 161.354 441.834L161.286 441.901C162.23 440.968 161.96 439.569 162.567 438.503C163.443 437.171 164.387 435.839 165.263 434.506C165.802 433.707 166.544 432.908 166.005 431.842C165.398 430.709 164.387 430.443 163.241 430.509C161.286 430.509 159.264 430.509 157.309 430.509C156.231 429.776 155.085 429.91 153.872 429.976C152.726 429.71 151.647 429.443 150.502 429.177C150.434 429.31 150.367 429.443 150.299 429.577C150.165 429.843 149.962 430.043 149.76 430.176C149.423 430.376 149.154 430.509 148.884 430.576C149.154 430.509 149.423 430.376 149.625 430.243C149.828 430.11 150.03 429.91 150.165 429.643C150.232 429.51 150.299 429.377 150.367 429.243C149.962 429.044 149.491 428.777 149.086 428.577C149.086 427.645 150.097 427.844 150.502 427.378C151.513 426.912 152.524 426.512 153.535 426.046C156.096 426.779 158.321 425.246 160.68 424.713C161.354 423.981 162.297 424.047 163.106 423.847C164.994 423.581 166.005 422.515 165.87 420.583C166.072 420.183 166.342 419.784 166.544 419.451C166.544 418.651 166.544 417.852 166.544 416.986C166.544 417.785 166.544 418.584 166.544 419.451C167.285 416.586 168.566 413.855 168.566 410.79C168.566 410.524 168.499 410.257 168.499 409.924C168.768 409.058 168.768 408.192 168.836 407.326C168.768 408.192 168.701 409.125 168.499 409.924C168.499 410.191 168.566 410.457 168.566 410.79C170.251 409.391 170.049 407.259 170.588 405.461C172.138 404.195 172.475 402.463 172.475 400.597C173.756 400.131 173.958 401.463 174.632 401.93C175.172 405.927 175.441 409.991 176.654 413.921C176.587 415.32 176.25 416.986 177.598 417.718C178.609 418.318 179.89 417.852 180.429 416.519C181.103 415.853 181.845 415.12 182.519 414.454C183.395 414.521 183.664 413.921 183.934 413.322C186.698 412.722 189.394 411.856 191.955 410.723C191.955 410.923 192.023 411.123 192.157 411.256C192.427 413.455 190.27 414.654 189.798 416.519C189.192 417.185 188.046 417.252 187.911 418.385C183.327 421.582 183.193 423.381 187.372 426.579C188.046 427.445 188.652 428.577 190 428.577C190.607 429.31 191.214 430.043 191.82 430.776C193.101 432.641 194.382 434.506 196.134 435.972C196.134 436.438 196.134 436.905 196.134 437.371C196.741 437.771 197.145 438.17 197.55 438.637ZM200.718 441.301C199.774 440.968 198.763 440.702 198.696 439.769C198.763 440.635 199.707 440.968 200.718 441.301C200.785 441.368 200.853 441.368 200.92 441.368C200.785 441.368 200.718 441.301 200.718 441.301ZM199.572 438.57C200.246 438.57 200.92 438.57 201.594 438.637C200.92 438.637 200.246 438.637 199.572 438.57Z" fill="#5D82C8"/>
<g opacity="0.9">
<path d="M32.5229 378H403.234C404.381 378 405.312 377.26 405.312 376.35C405.312 375.439 404.381 374.699 403.234 374.699H32.5229C31.3764 374.699 30.4448 375.439 30.4448 376.35C30.4448 377.26 31.3764 378 32.5229 378Z" fill="#4F300C" fill-opacity="0.65"/>
<path d="M14.4216 378H22.7578C23.9044 378 24.8359 377.26 24.8359 376.35C24.8359 375.439 23.9044 374.699 22.7578 374.699H14.4216C13.2751 374.699 12.3436 375.439 12.3436 376.35C12.3436 377.26 13.2751 378 14.4216 378Z" fill="#4F300C" fill-opacity="0.65"/>
<path d="M415.034 378H475.441C476.588 378 477.52 377.26 477.52 376.35C477.52 375.439 476.588 374.699 475.441 374.699H415.034C413.887 374.699 412.956 375.439 412.956 376.35C412.956 377.26 413.887 378 415.034 378Z" fill="#4F300C" fill-opacity="0.65"/>
<path d="M201.802 262.072C202.007 263.968 204.665 263.899 207.687 263.442C210.709 262.986 209.913 263.785 214.162 263.694C218.411 263.602 219.819 262.164 220.001 261.547C220.16 260.999 218.115 260.611 215.912 260.154C215.639 260.086 215.366 260.04 215.071 259.971C212.594 259.423 210.89 257.619 208.732 256.066C206.687 254.605 205.301 247.868 205.301 247.868L199.258 247.823C199.258 247.823 201.144 253.897 202.143 256.021C202.734 257.254 202.098 258.852 201.916 260.063C201.848 260.725 201.734 261.41 201.802 262.072Z" fill="#F0A253"/>
<path d="M207.709 263.443C210.73 262.987 209.935 263.786 214.184 263.694C218.433 263.603 219.841 262.164 220.023 261.548C220.182 261 218.137 260.612 215.933 260.155L215.911 260.201C215.911 260.201 213.23 261.776 209.731 261.525C206.868 261.342 203.937 260.246 201.961 260.086C201.847 260.749 201.756 261.411 201.824 262.073C202.006 263.969 204.687 263.9 207.709 263.443Z" fill="#975573"/>
<path d="M154.658 261.778C154.795 263.673 157.453 263.719 160.497 263.376C163.519 263.034 162.724 263.81 166.973 263.879C171.221 263.947 172.675 262.554 172.902 261.938C173.084 261.39 171.039 260.933 168.858 260.385C168.586 260.316 168.313 260.248 168.04 260.179C165.587 259.54 163.951 257.667 161.861 256.046C159.861 254.493 161.497 248.099 161.497 248.099L156.93 245.93C156.93 245.93 156.294 252.529 155.953 255.863C155.817 257.233 155.136 258.604 154.908 259.791C154.727 260.43 154.613 261.093 154.658 261.778Z" fill="#F0A253"/>
<path d="M160.472 263.374C163.493 263.032 162.698 263.808 166.947 263.877C171.196 263.945 172.65 262.552 172.877 261.936C173.059 261.388 171.014 260.931 168.833 260.383L168.81 260.428C168.81 260.428 166.061 261.89 162.585 261.525C159.745 261.228 156.837 260.017 154.883 259.789C154.746 260.428 154.633 261.091 154.678 261.776C154.769 263.671 157.45 263.694 160.472 263.374Z" fill="#975573"/>
<path d="M164.93 166.779C164.93 166.779 163.657 172.944 162.385 204.252C162.385 204.252 160.022 210.053 158.318 217.132C156.614 224.211 155.41 253.783 155.41 253.783C155.41 253.783 156.092 254.765 158.159 254.902C159.841 254.994 161.158 254.263 161.158 254.263C161.158 254.263 173.041 215.533 178.812 200.507C184.582 185.481 187.99 164.016 187.99 164.016L164.93 166.779Z" fill="#734815"/>
<path d="M179.219 169.407C179.219 169.407 180.15 175.641 189.738 205.442C189.738 205.442 189.534 211.699 190.374 218.938C191.215 226.177 200.916 254.699 200.916 254.699C200.916 254.699 202.211 255.156 204.142 254.631C205.937 254.151 207.346 253.078 207.346 253.078C207.346 253.078 203.62 212.339 203.87 196.217C204.12 180.094 199.894 158.789 199.894 158.789L179.219 169.407Z" fill="#734815"/>
<path d="M196.193 83.1086C194.693 82.1494 192.83 81.9668 191.535 81.9668C191.876 81.6471 192.558 81.5329 192.558 81.5329C191.763 81.373 189.922 82.0809 189.922 82.0809C178.949 77.1941 176.381 93.6587 176.427 97.518C176.472 101.377 176.268 105.807 170.519 108.959C159.205 115.193 167.884 127.501 167.884 127.501C165.839 133.37 173.382 140.586 173.382 140.586C173.246 137.458 187.514 117.568 195.193 113.046C197.147 110.466 198.011 105.762 198.079 105.374C197.579 109.119 196.829 111.197 196.216 112.338C202.804 106.858 200.192 85.6662 196.193 83.1086Z" fill="#C65447"/>
<path d="M193.807 110.924C193.853 110.946 190.217 112.842 187.468 112.088C184.901 111.38 183.22 108.023 183.242 108.023C184.333 107.795 184.651 106.311 184.628 99.8481L185.128 99.9395L193.103 101.538L193.398 101.607C193.398 101.607 193.217 104.233 193.194 106.699C193.194 107.224 193.194 107.727 193.217 108.206C193.307 109.622 193.466 110.764 193.807 110.924Z" fill="#F1B981"/>
<path d="M193.21 106.674C193.21 107.199 193.21 107.702 193.233 108.181C188.598 107.999 185.917 102.655 184.895 100.326L193.097 101.536L193.392 101.604C193.415 101.582 193.21 104.208 193.21 106.674Z" fill="#F1B981"/>
<path d="M184.286 99.0251C184.286 99.0251 181.855 95.1658 181.265 91.8775C180.856 89.5254 182.037 80.8021 190.762 82.058C190.762 82.058 193.306 82.3092 195.669 83.9306C197.555 85.2094 200.304 87.9954 197.237 95.5997L196.442 98.1802L184.286 99.0251Z" fill="#C65447"/>
<path d="M193.894 105.463C193.894 105.463 183.034 104.025 184.034 97.2195C185.033 90.4372 184.306 85.6646 191.281 86.304C198.256 86.9434 199.233 89.7293 199.438 92.0814C199.642 94.4335 196.757 105.646 193.894 105.463Z" fill="#FBC38B"/>
<path d="M196.232 86.8766C196.232 86.8766 192.074 94.3896 187.349 94.892C182.623 95.3944 180.828 93.8644 180.828 93.8644C180.828 93.8644 184.736 91.6037 186.19 86.831C186.19 86.8538 194.551 82.7662 196.232 86.8766Z" fill="#C65447"/>
<path d="M195.418 87.4257C195.418 87.4257 197.372 89.5266 197.645 91.3535C197.94 93.1575 197.645 96.7656 198.69 96.7884C198.69 96.7884 201.734 91.7189 199.667 88.2707C197.485 84.6169 195.418 87.4257 195.418 87.4257Z" fill="#C65447"/>
<path d="M267.578 179.658C265.306 174.794 258.967 170.798 253.628 170.775C249.675 170.775 246.198 172.122 243.517 174.337C241.973 175.593 239.655 174.771 239.246 172.807L234.566 150.976C233.884 147.802 230.772 145.77 227.591 146.455L151.956 162.828C148.866 163.49 146.89 166.55 147.549 169.679L163.816 245.608C164.27 247.777 165.861 249.422 167.837 250.038L166.838 250.312H169.769H169.791C170.155 250.312 170.518 250.266 170.882 250.175L172.518 249.81L191.921 245.608C194.647 245.014 195.76 241.703 193.92 239.602C192.148 237.57 190.875 235.035 190.33 232.18C188.808 224.119 193.761 216.127 201.645 213.98C210.415 211.583 219.275 217.086 221.161 225.901C221.865 229.212 221.479 232.523 220.252 235.423C219.775 236.542 220.161 237.73 220.979 238.392L219.843 238.94H222.456C222.661 238.94 222.865 238.917 223.07 238.894L246.244 233.87C249.402 233.185 251.424 230.057 250.742 226.86L246.108 205.166C245.676 203.156 247.493 201.398 249.47 201.9C251.765 202.494 254.219 202.562 256.672 202.037C266.442 199.959 272.122 189.295 267.578 179.658Z" fill="#D86713"/>
<path d="M250.944 170.775C246.991 170.775 243.515 172.122 240.834 174.337C239.289 175.593 236.972 174.771 236.563 172.807L231.882 150.976C231.201 147.802 228.088 145.77 224.907 146.455L149.273 162.828C146.183 163.49 144.206 166.55 144.865 169.679L161.132 245.608C161.814 248.828 164.995 250.883 168.198 250.198L189.26 245.654C191.986 245.06 193.099 241.749 191.259 239.648C189.487 237.615 188.215 235.081 187.669 232.226C186.147 224.165 191.1 216.173 198.984 214.026C207.754 211.628 216.614 217.132 218.5 225.946C219.205 229.257 218.818 232.569 217.591 235.469C216.796 237.364 218.432 239.351 220.431 238.94L243.606 233.916C246.764 233.231 248.786 230.102 248.104 226.905L243.469 205.211C243.038 203.202 244.855 201.443 246.832 201.946C249.127 202.54 251.58 202.608 254.034 202.083C263.736 199.982 269.393 189.318 264.872 179.681C262.622 174.794 256.283 170.775 250.944 170.775Z" fill="#F1A34F"/>
<path d="M250.944 170.775C246.991 170.775 243.515 172.122 240.834 174.337C239.289 175.593 236.972 174.771 236.563 172.807L231.882 150.976C231.201 147.802 228.088 145.77 224.907 146.455L149.273 162.828C146.183 163.49 144.206 166.55 144.865 169.679L161.132 245.608C161.814 248.828 164.995 250.883 168.198 250.198L189.26 245.654C191.986 245.06 193.099 241.749 191.259 239.648C189.487 237.615 188.215 235.081 187.669 232.226C186.147 224.165 191.1 216.173 198.984 214.026C207.754 211.628 216.614 217.132 218.5 225.946C219.205 229.257 218.818 232.569 217.591 235.469C216.796 237.364 218.432 239.351 220.431 238.94L243.606 233.916C246.764 233.231 248.786 230.102 248.104 226.905L243.469 205.211C243.038 203.202 244.855 201.443 246.832 201.946C249.127 202.54 251.58 202.608 254.034 202.083C263.736 199.982 269.393 189.318 264.872 179.681C262.622 174.794 256.283 170.775 250.944 170.775Z" fill="url(#paint0_linear_3053_19499)" fill-opacity="0.5"/>
<path d="M223.273 141.911C223.273 141.911 227.999 142.688 229.226 145.77C230.453 148.853 228.726 150.931 228.067 150.931C227.409 150.931 226.136 150.429 225.523 148.83C224.955 147.232 223.273 141.911 223.273 141.911Z" fill="#F0A253"/>
<path d="M158.336 155.682C158.336 155.682 163.63 155.682 165.538 158.81C167.447 161.961 165.924 164.542 165.197 164.656C164.47 164.77 162.993 164.451 162.062 162.829C161.108 161.185 158.336 155.682 158.336 155.682Z" fill="#F0A253"/>
<path d="M223.411 145.496C222.934 145.405 220.889 145.153 218.277 144.742C213.46 143.989 206.758 142.642 204.508 140.563C203.895 139.993 202.486 136.887 201.009 133.302C199.51 141.203 199.442 147.277 199.828 151.89L167.338 158.924C170.133 153.26 174.427 146.25 173.632 140.563C173.337 138.463 172.178 135.562 171.746 132.32C171.701 132.046 171.678 131.772 171.655 131.475C167.089 135.243 161.84 139.399 161.704 140.244C161.499 141.637 165.044 157.074 165.044 157.074C164.158 159.106 160.341 158.672 160.341 158.672C156.751 156.092 151.48 141.5 151.912 138.28C152.343 135.037 165.407 116.632 168.565 112.224C171.701 107.885 183.106 107.977 183.379 107.977C192.467 113.457 193.285 108.913 193.285 108.913C193.285 108.913 201.464 110.489 202.872 112.909C204.281 115.353 210.461 133.781 210.893 134.421C211.801 135.768 226.728 141.203 227.001 142.779C227.274 144.377 224.752 145.77 223.411 145.496Z" fill="white"/>
<path d="M223.411 145.496C222.934 145.405 220.889 145.153 218.277 144.742C213.46 143.989 206.758 142.642 204.508 140.563C203.895 139.993 202.486 136.887 201.009 133.302C199.51 141.203 199.442 147.277 199.828 151.89L167.338 158.924C170.133 153.26 174.427 146.25 173.632 140.563C173.337 138.463 172.178 135.562 171.746 132.32C171.701 132.046 171.678 131.772 171.655 131.475C167.089 135.243 161.84 139.399 161.704 140.244C161.499 141.637 165.044 157.074 165.044 157.074C164.158 159.106 160.341 158.672 160.341 158.672C156.751 156.092 151.48 141.5 151.912 138.28C152.343 135.037 165.407 116.632 168.565 112.224C171.701 107.885 183.106 107.977 183.379 107.977C192.467 113.457 193.285 108.913 193.285 108.913C193.285 108.913 201.464 110.489 202.872 112.909C204.281 115.353 210.461 133.781 210.893 134.421C211.801 135.768 226.728 141.203 227.001 142.779C227.274 144.377 224.752 145.77 223.411 145.496Z" fill="url(#paint1_linear_3053_19499)"/>
<path d="M178.673 156.48L167.336 158.924C170.153 153.283 173.857 146.25 173.061 140.61C172.766 138.509 172.084 135.997 171.744 132.754C171.721 132.434 171.653 131.498 171.653 131.498C171.653 131.498 179.673 137.846 179.809 144.72C179.9 148.26 179.287 152.918 178.673 156.48Z" fill="#975573"/>
<path d="M218.568 144.788C213.706 144.035 206.912 142.687 204.64 140.609C204.027 140.038 202.595 136.933 201.096 133.347C201.096 133.347 200.573 127.593 202.073 127.821C203.572 128.027 205.776 138.234 207.344 138.874C208.73 139.445 216.5 142.436 218.568 144.788Z" fill="#975573"/>
<path d="M458.322 363.76C457.641 366.09 454.46 367.642 454.051 370.474C453.847 371.867 453.324 372.94 452.665 373.671H442.805C442.896 373.123 443.327 372.529 444.622 372.255C447.371 371.662 448.394 368.328 448.235 365.222C448.167 363.92 448.189 362.436 448.257 361.157C448.348 359.376 448.485 357.983 448.485 357.983L454.301 356.613L454.914 357.412L455.505 358.166C455.505 358.166 459.004 361.431 458.322 363.76Z" fill="#FF9123"/>
<path d="M458.322 363.76C457.641 366.09 454.46 367.642 454.051 370.474C453.847 371.867 453.324 372.94 452.665 373.671H442.805C442.896 373.123 443.327 372.529 444.622 372.255C447.371 371.662 448.394 368.328 448.235 365.222C448.167 363.92 448.189 362.436 448.257 361.157C448.348 359.376 448.485 357.983 448.485 357.983L454.301 356.613L454.914 357.412L455.505 358.166C455.505 358.166 459.004 361.431 458.322 363.76Z" fill="url(#paint2_linear_3053_19499)" fill-opacity="0.5"/>
<path d="M412.409 373.671H392.461C392.915 373.146 393.688 372.62 394.983 372.415C398.05 371.913 403.366 370.131 404.548 366.181C404.593 366.044 404.616 365.93 404.661 365.793C405.593 361.568 412.454 367.094 412.454 367.094C412.454 367.094 412.477 367.254 412.5 367.551C412.613 368.716 412.886 371.935 412.409 373.671Z" fill="#FF9123"/>
<path d="M412.409 373.671H392.461C392.915 373.146 393.688 372.62 394.983 372.415C398.05 371.913 403.366 370.131 404.548 366.181C404.593 366.044 404.616 365.93 404.661 365.793C405.593 361.568 412.454 367.094 412.454 367.094C412.454 367.094 412.477 367.254 412.5 367.551C412.613 368.716 412.886 371.935 412.409 373.671Z" fill="url(#paint3_linear_3053_19499)" fill-opacity="0.5"/>
<path d="M395.777 261.957C395.777 261.957 396.822 274.997 398.049 290.685C399.708 311.991 401.707 338.138 401.912 343.093C402.253 351.702 403.616 365.472 403.616 365.472C403.616 365.472 406.865 368.738 413.385 367.368C413.385 367.368 419.179 347.706 420.837 326.925C420.86 326.583 420.883 326.24 420.906 325.898C422.45 304.729 424.836 260.153 424.836 260.153L395.777 261.957Z" fill="#734815"/>
<path d="M395.777 261.957C395.777 261.957 396.822 274.997 398.049 290.685L420.837 326.925C420.86 326.583 420.883 326.24 420.906 325.898C422.45 304.729 424.836 260.153 424.836 260.153L395.777 261.957Z" fill="#4F300C"/>
<path d="M400.527 263.511C400.527 263.511 419.271 310.759 431.608 332.955C443.945 355.152 447.785 361.34 447.785 361.34C447.785 361.34 454.851 358.509 455.487 356.568C455.487 356.568 450.761 313.705 442.514 303.269C437.856 297.354 432.358 279.656 432.108 273.445C431.858 267.257 430.449 254.994 430.449 254.994L400.527 263.511Z" fill="#734815"/>
<path d="M410.161 190.597C409.32 185.642 409.298 182.719 409.298 182.719L418.817 175.023C418.454 185.619 425.224 190.711 425.224 190.711C425.224 190.711 412.546 196.991 405.231 194.662C405.208 194.639 407.003 192.333 410.161 190.597Z" fill="#F1B981"/>
<path d="M407.046 182.535C407.046 182.535 419.156 184.545 420.292 176.963C421.428 169.382 423.745 164.518 416.066 162.896C408.387 161.275 406.455 163.947 405.456 166.39C404.479 168.856 403.934 181.827 407.046 182.535Z" fill="#FBC38B"/>
<path d="M364.561 198.206L361.993 196.608C361.993 196.608 358.79 191.835 353.292 194.804C353.292 194.804 351.11 196.197 352.587 197.361C354.041 198.526 353.655 197.864 355.677 199.554C357.699 201.244 360.312 201.837 361.993 200.924L364.152 200.718L364.561 198.206Z" fill="white"/>
<path d="M364.561 198.206L361.993 196.608C361.993 196.608 358.79 191.835 353.292 194.804C353.292 194.804 351.11 196.197 352.587 197.361C354.041 198.526 353.655 197.864 355.677 199.554C357.699 201.244 360.312 201.837 361.993 200.924L364.152 200.718L364.561 198.206Z" fill="url(#paint4_linear_3053_19499)"/>
<path d="M361.492 198.704C362.151 196.625 362.469 196.443 362.469 196.443C362.469 196.443 383.304 198.909 385.28 199.069C387.234 199.206 414.521 193.565 414.521 193.565L427.403 209.277C427.403 209.277 389.438 210.715 384.462 210.258C376.238 209.482 361.356 201.809 361.356 201.809C361.356 201.809 360.97 200.325 361.492 198.704Z" fill="white"/>
<path d="M361.492 198.704C362.151 196.625 362.469 196.443 362.469 196.443C362.469 196.443 383.304 198.909 385.28 199.069C387.234 199.206 414.521 193.565 414.521 193.565L427.403 209.277C427.403 209.277 389.438 210.715 384.462 210.258C376.238 209.482 361.356 201.809 361.356 201.809C361.356 201.809 360.97 200.325 361.492 198.704Z" fill="url(#paint5_linear_3053_19499)"/>
<path d="M431.883 257.414C431.928 258.236 430.247 259.127 429.542 259.447C424.112 261.89 419.046 263.603 413.32 264.151C406.527 264.859 398.507 263.306 395.758 263.352C395.462 263.352 395.213 263.237 394.985 263.055C394.804 262.918 394.645 254.583 394.804 244.055C394.804 243.644 394.804 243.21 394.849 242.799V242.662C394.849 241.566 394.872 240.447 394.894 239.328C394.963 236.268 395.076 233.094 395.213 229.966C395.417 225.353 395.69 220.808 396.053 216.789C396.439 212.587 396.939 208.957 397.598 206.376C399.075 200.439 402.437 196.534 405.527 193.657L408.049 191.419C410.571 191.944 413.252 191.784 415.933 190.46C418.841 189.021 421.977 187.468 422.499 187.833C426.407 190.779 429.043 197.447 430.383 205.919C431.11 210.487 431.474 215.556 431.451 220.877C431.451 222.909 431.383 224.987 431.269 227.065C430.61 238.255 431.292 247.96 431.678 253.624C431.769 255.222 431.86 256.524 431.883 257.414Z" fill="white"/>
<path d="M431.883 257.414C431.928 258.236 430.247 259.127 429.542 259.447C424.112 261.89 419.046 263.603 413.32 264.151C406.527 264.859 398.507 263.306 395.758 263.352C395.462 263.352 395.213 263.237 394.985 263.055C394.804 262.918 394.645 254.583 394.804 244.055C394.804 243.644 394.804 243.21 394.849 242.799V242.662C394.849 241.566 394.872 240.447 394.894 239.328C394.963 236.268 395.076 233.094 395.213 229.966C395.417 225.353 395.69 220.808 396.053 216.789C396.439 212.587 396.939 208.957 397.598 206.376C399.075 200.439 402.437 196.534 405.527 193.657L408.049 191.419C410.571 191.944 413.252 191.784 415.933 190.46C418.841 189.021 421.977 187.468 422.499 187.833C426.407 190.779 429.043 197.447 430.383 205.919C431.11 210.487 431.474 215.556 431.451 220.877C431.451 222.909 431.383 224.987 431.269 227.065C430.61 238.255 431.292 247.96 431.678 253.624C431.769 255.222 431.86 256.524 431.883 257.414Z" fill="url(#paint6_linear_3053_19499)"/>
<path d="M367.559 153.9L291.039 141.683C287.79 141.158 284.722 143.396 284.2 146.661L280.815 168.104C280.656 169.086 280.905 171.895 280.905 171.895L283.655 172.306C283.814 172.351 283.973 172.374 284.132 172.374C284.632 172.42 285.154 172.351 285.677 172.169C288.221 171.255 291.016 170.958 293.879 171.484C301.944 172.968 307.579 180.527 306.715 188.702C305.761 197.813 297.446 204.139 288.562 202.723C285.222 202.198 282.291 200.645 280.042 198.43C279.61 197.996 279.088 197.768 278.543 197.722L275.657 197.288L272.067 223.435C271.568 226.655 273.749 229.692 276.952 230.195L298.809 233.689C300.831 234.008 301.808 236.36 300.626 238.027C299.24 239.968 298.286 242.252 297.877 244.764C296.31 254.629 304.193 263.832 314.804 263.055C320.143 262.667 326.186 258.169 328.117 253.145C329.549 249.445 329.549 245.677 328.481 242.343C327.868 240.448 329.481 238.553 331.435 238.872L353.427 242.389C356.631 242.891 359.653 240.699 360.153 237.479L372.33 160.477C372.83 157.348 370.695 154.402 367.559 153.9Z" fill="#D86713"/>
<path d="M325.278 252.732C326.709 249.033 326.709 245.265 325.641 241.931C325.028 240.036 326.641 238.14 328.595 238.46L350.588 241.977C353.791 242.479 356.813 240.287 357.313 237.067L369.49 160.065C369.99 156.913 367.855 153.945 364.719 153.465L288.199 141.248C284.95 140.723 281.883 142.961 281.36 146.226L277.975 167.669C277.543 170.432 280.224 172.693 282.837 171.734C285.381 170.82 288.176 170.523 291.039 171.049C299.104 172.533 304.739 180.092 303.875 188.267C302.921 197.378 294.606 203.704 285.722 202.288C282.382 201.763 279.451 200.21 277.202 197.995C275.748 196.556 273.272 197.378 272.954 199.411L269.228 223.023C268.728 226.243 270.909 229.28 274.112 229.782L295.969 233.276C297.991 233.596 298.968 235.948 297.786 237.615C296.401 239.556 295.446 241.84 295.037 244.352C293.47 254.217 301.353 263.42 311.964 262.643C317.326 262.255 323.346 257.756 325.278 252.732Z" fill="#D98D3F"/>
<path d="M325.278 252.732C326.709 249.033 326.709 245.265 325.641 241.931C325.028 240.036 326.641 238.14 328.595 238.46L350.588 241.977C353.791 242.479 356.813 240.287 357.313 237.067L369.49 160.065C369.99 156.913 367.855 153.945 364.719 153.465L288.199 141.248C284.95 140.723 281.883 142.961 281.36 146.226L277.975 167.669C277.543 170.432 280.224 172.693 282.837 171.734C285.381 170.82 288.176 170.523 291.039 171.049C299.104 172.533 304.739 180.092 303.875 188.267C302.921 197.378 294.606 203.704 285.722 202.288C282.382 201.763 279.451 200.21 277.202 197.995C275.748 196.556 273.272 197.378 272.954 199.411L269.228 223.023C268.728 226.243 270.909 229.28 274.112 229.782L295.969 233.276C297.991 233.596 298.968 235.948 297.786 237.615C296.401 239.556 295.446 241.84 295.037 244.352C293.47 254.217 301.353 263.42 311.964 262.643C317.326 262.255 323.346 257.756 325.278 252.732Z" fill="url(#paint7_linear_3053_19499)" fill-opacity="0.5"/>
<path d="M364.63 215.942L361.495 215.417C361.495 215.417 357.905 210.21 351.657 213.133C351.657 213.133 349.181 214.526 350.817 215.828C352.452 217.129 352.021 216.421 354.293 218.294C356.565 220.189 359.518 220.943 361.45 220.007L363.903 219.87L364.63 215.942Z" fill="#FBC38B"/>
<path d="M362.246 217.541C362.337 215.212 363.586 214.961 363.586 214.961C363.586 214.961 387.42 213.385 389.487 212.974C391.555 212.563 410.526 196.76 410.526 196.76C410.526 196.76 417.864 190.138 423.022 192.376C427.498 194.317 428.883 198.153 429.111 201.693C429.383 205.895 427.02 209.822 423.226 211.604C414.706 215.6 397.644 223.455 393.758 224.141C385.125 225.648 362.905 220.807 362.905 220.807C362.905 220.807 362.155 219.368 362.246 217.541Z" fill="white"/>
<path d="M362.246 217.541C362.337 215.212 363.586 214.961 363.586 214.961C363.586 214.961 387.42 213.385 389.487 212.974C391.555 212.563 410.526 196.76 410.526 196.76C410.526 196.76 417.864 190.138 423.022 192.376C427.498 194.317 428.883 198.153 429.111 201.693C429.383 205.895 427.02 209.822 423.226 211.604C414.706 215.6 397.644 223.455 393.758 224.141C385.125 225.648 362.905 220.807 362.905 220.807C362.905 220.807 362.155 219.368 362.246 217.541Z" fill="url(#paint8_linear_3053_19499)"/>
<path d="M405.457 166.412C405.457 166.412 400.55 162.758 403.753 157.072C403.753 157.072 407.616 158.351 413.114 157.072C418.612 155.793 423.52 157.62 424.156 159.538C424.156 159.538 426.292 160.406 426.496 163.626C426.701 166.846 420.294 176.985 420.294 176.985C420.294 176.985 418.93 175.272 419.294 174.085C419.657 172.897 420.839 170.271 419.408 170.271C417.976 170.271 417.476 172.418 416.908 171.55C416.318 170.682 417.385 167.097 415.681 166.503C413.955 165.91 407.389 167.485 405.457 166.412Z" fill="#614525"/>
<path d="M238.537 370.934L216.908 272.214H222.861C224.269 272.214 225.428 271.05 225.428 269.634V266.3C225.428 264.884 224.269 263.719 222.861 263.719H147.317C145.908 263.719 144.75 264.884 144.75 266.3V269.634C144.75 271.05 145.908 272.214 147.317 272.214H154.974L133.344 370.934C133.049 372.258 133.89 373.582 135.207 373.879C136.525 374.176 137.843 373.331 138.138 372.007L159.995 272.214H211.864L233.744 372.007C234.039 373.331 235.357 374.176 236.674 373.879C237.992 373.582 238.81 372.258 238.537 370.934Z" fill="#504639" fill-opacity="0.5"/>
<path d="M352.799 284.087H331.192C328.397 284.087 326.625 287.101 327.966 289.568C329.261 291.942 324.671 312.518 315.015 313.043C305.927 313.545 298.384 306.261 298.384 297.218C298.384 293.815 299.452 290.664 301.27 288.083C302.451 286.416 301.27 284.087 299.225 284.087H275.46C272.211 284.087 269.576 286.736 269.576 290.001C269.576 290.001 267.417 315.646 265.6 314.733C263.714 313.774 261.601 313.203 259.374 313.088H259.352C259.079 313.066 258.829 313.066 258.556 313.066C258.284 313.066 254.376 312.997 254.376 312.997L253.785 344.693L257.193 344.739C260.419 344.648 263.237 344.328 265.713 343.049C267.485 342.136 269.598 343.437 269.598 345.447V367.826C269.598 371.092 272.234 373.74 275.483 373.74H353.048C356.229 373.74 358.797 371.16 358.797 367.963V290.07C358.774 286.759 356.093 284.087 352.799 284.087Z" fill="#D86713"/>
<path d="M250.856 344.305C254.718 345.15 258.422 344.556 261.512 342.958C263.284 342.044 265.397 343.346 265.397 345.356V367.735C265.397 371 268.032 373.649 271.281 373.649H348.847C352.028 373.649 354.595 371.069 354.595 367.872V290.001C354.595 286.69 351.914 283.996 348.62 283.996H327.013C324.218 283.996 322.446 287.01 323.787 289.476C325.082 291.851 325.809 294.591 325.741 297.514C325.536 305.735 319.016 312.518 310.836 312.951C301.748 313.431 294.205 306.169 294.205 297.126C294.205 293.724 295.273 290.572 297.091 287.992C298.272 286.325 297.091 283.996 295.046 283.996H271.281C268.032 283.996 265.397 286.645 265.397 289.91V312.152C265.397 314.207 263.238 315.555 261.398 314.618C259.285 313.545 256.899 312.951 254.355 312.951C244.403 312.951 236.61 322.2 239.019 332.613C240.246 337.888 245.63 343.186 250.856 344.305Z" fill="#F1A34F"/>
<path d="M250.856 344.305C254.718 345.15 258.422 344.556 261.512 342.958C263.284 342.044 265.397 343.346 265.397 345.356V367.735C265.397 371 268.032 373.649 271.281 373.649H348.847C352.028 373.649 354.595 371.069 354.595 367.872V290.001C354.595 286.69 351.914 283.996 348.62 283.996H327.013C324.218 283.996 322.446 287.01 323.787 289.476C325.082 291.851 325.809 294.591 325.741 297.514C325.536 305.735 319.016 312.518 310.836 312.951C301.748 313.431 294.205 306.169 294.205 297.126C294.205 293.724 295.273 290.572 297.091 287.992C298.272 286.325 297.091 283.996 295.046 283.996H271.281C268.032 283.996 265.397 286.645 265.397 289.91V312.152C265.397 314.207 263.238 315.555 261.398 314.618C259.285 313.545 256.899 312.951 254.355 312.951C244.403 312.951 236.61 322.2 239.019 332.613C240.246 337.888 245.63 343.186 250.856 344.305Z" fill="url(#paint9_linear_3053_19499)" fill-opacity="0.5"/>
<path d="M76.0482 260.864L78.1157 262.554C78.1157 262.554 83.7503 260.522 85.0226 267.258C85.0226 267.258 85.3634 270.136 83.5458 270.136C81.7282 270.136 82.4779 269.816 79.9106 269.907C77.3433 269.976 75.2303 268.628 74.8441 266.528L73.6172 264.746L76.0482 260.864Z" fill="#ECCE74"/>
<path d="M75.8197 264.471C77.4555 262.735 77.3419 261.457 77.3419 261.457C77.3419 261.457 58.2799 245.768 56.3487 244.49C55.031 243.622 40.9901 231.108 34.424 223.481C31.1751 219.69 27.131 221.174 22.5188 222.499L18.7246 223.595C14.1352 224.919 12.9537 231.359 16.7025 234.487C27.29 243.302 44.9206 253.236 48.2377 255.314C56.4169 260.498 72.4572 266.64 72.4572 266.64C72.4572 266.64 74.4111 265.955 75.8197 264.471Z" fill="#D98D3F"/>
<path d="M98.1319 360.679C98.1319 360.679 102.767 364.173 109.833 362.323C109.833 362.323 115.558 361.022 116.808 363.876C116.808 363.876 108.038 368.352 105.834 369.585C104.153 370.499 102.426 371.96 101.176 373.079C100.199 373.97 98.6772 373.855 97.8593 372.828C97.473 372.348 97.0413 371.777 96.5415 371.115C95.201 369.265 92.043 363.328 92.043 363.328L98.1319 360.679Z" fill="#FF9123"/>
<path d="M98.1319 360.679C98.1319 360.679 102.767 364.173 109.833 362.323C109.833 362.323 115.558 361.022 116.808 363.876C116.808 363.876 108.038 368.352 105.834 369.585C104.153 370.499 102.426 371.96 101.176 373.079C100.199 373.97 98.6772 373.855 97.8593 372.828C97.473 372.348 97.0413 371.777 96.5415 371.115C95.201 369.265 92.043 363.328 92.043 363.328L98.1319 360.679Z" fill="url(#paint10_linear_3053_19499)" fill-opacity="0.5"/>
<path d="M100.291 359.057C100.291 359.057 97.4739 365.588 90.976 364.378C90.976 364.378 77.7076 353.371 68.6196 341.93C65.666 338.208 63.1441 334.463 61.6673 331.015C55.6238 316.971 39.3564 296.03 28.9961 285.412L54.8968 275.98C54.8968 275.98 63.1896 292.765 74.2314 313.363C82.1834 328.252 91.5667 345.082 100.291 359.057Z" fill="#734815"/>
<path d="M74.2315 313.386L68.6197 341.93C65.6661 338.208 63.1442 334.463 61.6674 331.015C55.6239 316.971 39.3564 296.03 28.9961 285.412L54.8968 275.98C54.8968 276.003 63.1896 292.788 74.2315 313.386Z" fill="#4F300C"/>
<path d="M52.9852 364.377C52.9852 364.377 52.7125 369.584 58.9832 370.269C58.9832 370.269 62.573 370.292 62.573 373.603L44.3061 373.672C44.3061 373.672 43.7836 372.324 43.6473 369.47C43.5564 367.278 45.7602 361.523 45.7602 361.523L52.9852 364.377Z" fill="#FF9123"/>
<path d="M52.9852 364.377C52.9852 364.377 52.7125 369.584 58.9832 370.269C58.9832 370.269 62.573 370.292 62.573 373.603L44.3061 373.672C44.3061 373.672 43.7836 372.324 43.6473 369.47C43.5564 367.278 45.7602 361.523 45.7602 361.523L52.9852 364.377Z" fill="url(#paint11_linear_3053_19499)" fill-opacity="0.5"/>
<path d="M46.3988 276.003C46.3988 276.003 57.9405 288.745 65.2563 311.718C69.2323 324.209 57.9405 355.631 55.7594 366.547C55.7594 366.547 48.1937 367.186 43.0135 365.177C43.0135 365.177 42.6273 342.638 45.649 325.26C47.353 315.532 30.4494 304.456 23.0655 286.895C18.0444 274.952 24.156 275.135 31.6536 274.861L46.3988 276.003Z" fill="#734815"/>
<path d="M33.0618 219.14C26.6321 222.794 13.5 219.414 13.5 219.414C13.5 219.414 18.8392 213.271 16.4081 203.406L21.452 205.987L26.8593 208.75C26.8593 208.75 27.2001 210.485 27.45 213.637C27.5182 214.436 27.5636 215.349 27.6091 216.331C30.9262 217.313 33.0618 219.14 33.0618 219.14Z" fill="#F0A253"/>
<path d="M56.6188 275.34C56.6188 276.481 55.3238 277.007 55.0512 277.075C52.4611 277.555 45.2362 280.386 38.7155 281.026C33.24 281.597 28.128 281.049 22.5389 279.93C21.7892 279.77 20.0625 279.313 19.9262 278.605C19.7671 277.829 -1.65779 234.692 14.9959 216.172C15.3822 215.738 18.6766 216.515 21.6756 217.245C24.4474 217.908 26.9921 217.542 29.264 216.629L32.0813 218.113C35.5347 220.054 42.1008 226.951 42.8733 232.34C43.2595 235.08 44.8272 237.135 45.2816 239.533C45.4406 240.424 45.6224 241.291 45.8041 242.159C46.1449 243.826 46.5085 245.425 46.8493 246.932C47.8262 251.02 48.8713 254.536 49.871 257.573C50.9616 260.793 52.0067 263.488 52.9609 265.726C54.1878 268.649 55.2329 270.818 55.8691 272.485C56.3462 273.673 56.6188 274.609 56.6188 275.34Z" fill="white"/>
<path d="M56.6188 275.34C56.6188 276.481 55.3238 277.007 55.0512 277.075C52.4611 277.555 45.2362 280.386 38.7155 281.026C33.24 281.597 28.128 281.049 22.5389 279.93C21.7892 279.77 20.0625 279.313 19.9262 278.605C19.7671 277.829 -1.65779 234.692 14.9959 216.172C15.3822 215.738 18.6766 216.515 21.6756 217.245C24.4474 217.908 26.9921 217.542 29.264 216.629L32.0813 218.113C35.5347 220.054 42.1008 226.951 42.8733 232.34C43.2595 235.08 44.8272 237.135 45.2816 239.533C45.4406 240.424 45.6224 241.291 45.8041 242.159C46.1449 243.826 46.5085 245.425 46.8493 246.932C47.8262 251.02 48.8713 254.536 49.871 257.573C50.9616 260.793 52.0067 263.488 52.9609 265.726C54.1878 268.649 55.2329 270.818 55.8691 272.485C56.3462 273.673 56.6188 274.609 56.6188 275.34Z" fill="url(#paint12_linear_3053_19499)"/>
<path d="M55.8938 272.508C25.6536 258.19 15.1797 230.673 15.1797 230.673C15.1797 230.673 39.7626 239.784 45.8061 242.159C46.1469 243.826 46.5104 245.425 46.8512 246.932C47.8282 251.02 48.8733 254.536 49.873 257.574C50.9635 260.793 52.0087 263.488 52.9629 265.726C54.2125 268.649 55.2349 270.841 55.8938 272.508Z" fill="#CDA93E"/>
<path d="M141.319 242.045L134.844 221.402C134.208 219.392 132.14 218.456 130.345 218.958C130.255 218.981 130.164 219.027 130.05 219.05L127.778 219.803C127.778 219.803 124.211 223.48 121.666 224.233C113.828 226.517 106.376 222.315 103.513 214.62C100.333 206.056 104.013 196.671 112.579 193.953C115.509 193.017 121.258 194.752 121.258 194.752L123.575 193.976C124.825 193.588 125.688 192.24 125.234 190.802L118.099 168.08C117.123 164.974 113.828 163.239 110.738 164.221L89.6769 170.889C87.723 171.506 85.8145 169.839 86.1326 167.829C86.4961 165.477 86.3598 163.011 85.5873 160.59C82.611 151.09 71.5009 146.409 62.3675 151.844C57.7781 154.584 54.3929 161.298 54.8927 166.641C55.2562 170.592 56.9148 173.949 59.3685 176.438C60.7544 177.854 60.1637 180.252 58.2552 180.868L37.0576 187.582C33.9677 188.564 32.2637 191.875 33.2179 194.981L56.5513 269.152C57.5055 272.189 60.7317 273.879 63.7307 272.92L137.434 249.558C140.569 248.554 142.319 245.197 141.319 242.045Z" fill="#D86713"/>
<path d="M52.6896 167.417C53.0531 171.368 54.7117 174.725 57.1654 177.214C58.5513 178.63 57.9606 181.028 56.0521 181.644L34.8545 188.358C31.7645 189.34 30.0605 192.651 31.0148 195.757L54.28 269.928C55.2342 272.965 58.4604 274.655 61.4595 273.696L135.163 250.334C138.298 249.353 140.025 245.973 139.048 242.821L132.573 222.178C131.732 219.506 128.347 218.707 126.438 220.739C124.575 222.703 122.19 224.21 119.418 225.01C111.58 227.293 103.196 223.068 100.333 215.373C97.1525 206.809 101.765 197.447 110.33 194.729C113.556 193.702 116.851 193.793 119.827 194.752C121.758 195.369 123.598 193.542 122.985 191.601L115.851 168.879C114.874 165.773 111.58 164.038 108.49 165.02L87.4283 171.688C85.4744 172.304 83.5659 170.637 83.884 168.628C84.2475 166.276 84.1112 163.809 83.3387 161.389C80.3624 151.889 69.2524 147.208 60.119 152.643C55.575 155.36 52.1897 162.074 52.6896 167.417Z" fill="#D98D3F"/>
<path d="M52.6896 167.417C53.0531 171.368 54.7117 174.725 57.1654 177.214C58.5513 178.63 57.9606 181.028 56.0521 181.644L34.8545 188.358C31.7645 189.34 30.0605 192.651 31.0148 195.757L54.28 269.928C55.2342 272.965 58.4604 274.655 61.4595 273.696L135.163 250.334C138.298 249.353 140.025 245.973 139.048 242.821L132.573 222.178C131.732 219.506 128.347 218.707 126.438 220.739C124.575 222.703 122.19 224.21 119.418 225.01C111.58 227.293 103.196 223.068 100.333 215.373C97.1525 206.809 101.765 197.447 110.33 194.729C113.556 193.702 116.851 193.793 119.827 194.752C121.758 195.369 123.598 193.542 122.985 191.601L115.851 168.879C114.874 165.773 111.58 164.038 108.49 165.02L87.4283 171.688C85.4744 172.304 83.5659 170.637 83.884 168.628C84.2475 166.276 84.1112 163.809 83.3387 161.389C80.3624 151.889 69.2524 147.208 60.119 152.643C55.575 155.36 52.1897 162.074 52.6896 167.417Z" fill="url(#paint13_linear_3053_19499)" fill-opacity="0.5"/>
<path d="M73.5976 264.198L76.2104 265.157C76.2104 265.157 81.4359 261.435 84.7076 267.486C84.7076 267.486 85.889 270.135 84.026 270.706C82.163 271.277 82.8446 270.729 80.2091 271.62C77.5963 272.487 75.0062 271.871 74.0065 269.975L72.2344 268.674L73.5976 264.198Z" fill="#FBC38B"/>
<path d="M75.73 267.921C76.707 265.386 77.1387 264.244 77.1387 264.244C77.1387 264.244 57.3951 248.054 55.373 246.683C54.0098 245.747 40.3551 235.471 33.6982 227.478C30.4038 223.505 25.2009 221.701 20.1571 222.751L16.0221 223.619C11.0237 224.67 9.38787 231.041 13.273 234.398C24.2013 243.829 42.6498 254.744 46.1033 257.028C54.646 262.668 73.5262 270.57 73.5262 270.57C73.5262 270.57 74.9803 269.907 75.73 267.921Z" fill="white"/>
<path d="M75.73 267.921C76.707 265.386 77.1387 264.244 77.1387 264.244C77.1387 264.244 57.3951 248.054 55.373 246.683C54.0098 245.747 40.3551 235.471 33.6982 227.478C30.4038 223.505 25.2009 221.701 20.1571 222.751L16.0221 223.619C11.0237 224.67 9.38787 231.041 13.273 234.398C24.2013 243.829 42.6498 254.744 46.1033 257.028C54.646 262.668 73.5262 270.57 73.5262 270.57C73.5262 270.57 74.9803 269.907 75.73 267.921Z" fill="url(#paint14_linear_3053_19499)"/>
<path d="M27.4714 213.615C21.1553 213.981 17.043 208.728 17.043 208.728C17.043 208.728 19.9057 207.13 21.4506 205.965L26.858 208.728C26.858 208.751 27.2215 210.487 27.4714 213.615Z" fill="#F0A253"/>
<path d="M30.1529 207.107C30.1529 207.107 20.5879 214.003 16.4074 207.952C12.2269 201.9 8.16005 198.703 14.1127 194.045C20.0426 189.386 22.8371 190.848 24.7229 192.538C26.5859 194.228 32.5385 205.166 30.1529 207.107Z" fill="#F0A253"/>
<path d="M25.723 187.08C25.3822 184.751 24.6097 183.107 24.6097 183.107C24.6097 183.107 24.019 185.596 19.475 185.253C14.931 184.911 7.72877 185.71 5.32046 190.917C5.16142 191.259 5.0251 191.579 4.9115 191.944C4.47982 190.78 4.36622 189.067 4.36622 189.067C3.50286 191.305 4.36622 194.114 4.36622 194.114C4.3435 194.205 4.3435 194.274 4.32078 194.365C3.3211 195.21 2.48047 197.859 2.48047 197.859C2.77583 197.128 3.52559 196.649 4.18446 196.352C4.16174 200.394 5.79758 204.367 8.66029 205.532C12.8635 207.244 12.818 205.943 17.0439 208.752C17.0439 208.752 18.1799 207.336 17.4075 206.399C16.635 205.44 13.7268 204.07 15.3399 202.7C16.9758 201.33 17.5665 202.883 18.1799 201.924C18.7707 200.965 15.7716 198.224 19.634 195.621C23.4964 193.018 26.0638 189.41 25.723 187.08Z" fill="#4F300C"/>
</g>
<defs>
<linearGradient id="paint0_linear_3053_19499" x1="179.163" y1="153.676" x2="214.673" y2="254.286" gradientUnits="userSpaceOnUse">
<stop stop-color="#FFCA00"/>
<stop offset="0.791667" stop-color="#FF9000"/>
</linearGradient>
<linearGradient id="paint1_linear_3053_19499" x1="189.454" y1="107.977" x2="189.454" y2="158.924" gradientUnits="userSpaceOnUse">
<stop stop-color="#DA98AC"/>
<stop offset="1" stop-color="#C75E7D"/>
</linearGradient>
<linearGradient id="paint2_linear_3053_19499" x1="447.218" y1="357.819" x2="454.178" y2="373.233" gradientUnits="userSpaceOnUse">
<stop stop-color="#FFCA00"/>
<stop offset="0.791667" stop-color="#FF9000"/>
</linearGradient>
<linearGradient id="paint3_linear_3053_19499" x1="398.18" y1="364.871" x2="400.1" y2="374.801" gradientUnits="userSpaceOnUse">
<stop stop-color="#FFCA00"/>
<stop offset="0.791667" stop-color="#FF9000"/>
</linearGradient>
<linearGradient id="paint4_linear_3053_19499" x1="358.317" y1="193.831" x2="358.317" y2="201.351" gradientUnits="userSpaceOnUse">
<stop stop-color="#A8D7A8"/>
<stop offset="1" stop-color="#95B895"/>
</linearGradient>
<linearGradient id="paint5_linear_3053_19499" x1="394.311" y1="193.565" x2="394.311" y2="210.348" gradientUnits="userSpaceOnUse">
<stop stop-color="#A8D7A8"/>
<stop offset="1" stop-color="#95B895"/>
</linearGradient>
<linearGradient id="paint6_linear_3053_19499" x1="413.311" y1="187.779" x2="413.311" y2="264.336" gradientUnits="userSpaceOnUse">
<stop stop-color="#A8D7A8"/>
<stop offset="1" stop-color="#95B895"/>
</linearGradient>
<linearGradient id="paint7_linear_3053_19499" x1="297.554" y1="149.764" x2="350.423" y2="255.526" gradientUnits="userSpaceOnUse">
<stop stop-color="#FFCA00"/>
<stop offset="0.791667" stop-color="#FF9000"/>
</linearGradient>
<linearGradient id="paint8_linear_3053_19499" x1="395.685" y1="191.914" x2="395.685" y2="224.431" gradientUnits="userSpaceOnUse">
<stop stop-color="#A8D7A8"/>
<stop offset="1" stop-color="#95B895"/>
</linearGradient>
<linearGradient id="paint9_linear_3053_19499" x1="271.391" y1="290.335" x2="299.642" y2="378.846" gradientUnits="userSpaceOnUse">
<stop stop-color="#FFCA00"/>
<stop offset="0.791667" stop-color="#FF9000"/>
</linearGradient>
<linearGradient id="paint10_linear_3053_19499" x1="99.0471" y1="361.598" x2="101.976" y2="375.105" gradientUnits="userSpaceOnUse">
<stop stop-color="#FFCA00"/>
<stop offset="0.791667" stop-color="#FF9000"/>
</linearGradient>
<linearGradient id="paint11_linear_3053_19499" x1="48.998" y1="362.382" x2="52.2715" y2="374.73" gradientUnits="userSpaceOnUse">
<stop stop-color="#FFCA00"/>
<stop offset="0.791667" stop-color="#FF9000"/>
</linearGradient>
<linearGradient id="paint12_linear_3053_19499" x1="32.6395" y1="216.047" x2="32.6395" y2="281.254" gradientUnits="userSpaceOnUse">
<stop stop-color="#F7D777"/>
<stop offset="1" stop-color="#E3C25D"/>
</linearGradient>
<linearGradient id="paint13_linear_3053_19499" x1="61.4569" y1="159.079" x2="113.251" y2="269.204" gradientUnits="userSpaceOnUse">
<stop stop-color="#FFCA00"/>
<stop offset="0.791667" stop-color="#FF9000"/>
</linearGradient>
<linearGradient id="paint14_linear_3053_19499" x1="44.1279" y1="222.457" x2="44.1279" y2="270.57" gradientUnits="userSpaceOnUse">
<stop stop-color="#F7D777"/>
<stop offset="1" stop-color="#E3C25D"/>
</linearGradient>
</defs>
</svg>
