<svg width="40" height="40" viewBox="0 0 40 40" fill="none" xmlns="http://www.w3.org/2000/svg">
<path d="M0 10C0 4.47715 4.46505 0 9.97297 0H29.9189C35.4268 0 39.8919 4.47715 39.8919 10V30C39.8919 35.5228 35.4268 40 29.9189 40H9.97297C4.46505 40 0 35.5228 0 30V10Z" fill="#FF4C00"/>
<path d="M19.9453 20.606L24.0945 16.4455C24.6138 15.9248 25.4554 15.9252 25.9747 16.4459L27.4791 17.9544C27.9984 18.4751 27.9984 19.3193 27.4791 19.84L24.3334 22.9942C24.3334 22.9942 22.5383 23.6001 19.9453 20.606Z" fill="url(#paint0_linear_9759_3646)"/>
<path d="M22.3402 6.40049C22.3402 7.72597 21.2686 8.80049 19.9467 8.80049C18.6248 8.80049 17.5532 7.72597 17.5532 6.40049C17.5532 5.075 18.6248 4.00049 19.9467 4.00049C21.2686 4.00049 22.3402 5.075 22.3402 6.40049Z" fill="white"/>
<path d="M10.2734 14.4002C10.9344 13.2522 10.5421 11.7844 9.39734 11.1217C8.25254 10.4589 6.78869 10.8523 6.12774 12.0002C5.46678 13.1481 5.85902 14.6159 7.00382 15.2786C8.14862 15.9414 9.61247 15.5481 10.2734 14.4002Z" fill="white"/>
<path d="M33.7656 28.0002C34.4266 26.8522 34.0344 25.3844 32.8896 24.7217C31.7448 24.0589 30.2809 24.4522 29.62 25.6002C28.959 26.7481 29.3512 28.2159 30.496 28.8786C31.6409 29.5414 33.1047 29.1481 33.7656 28.0002Z" fill="white"/>
<path d="M19.9467 36.0005C21.2686 36.0005 22.3402 34.926 22.3402 33.6005C22.3402 32.275 21.2686 31.2005 19.9467 31.2005C18.6248 31.2005 17.5532 32.275 17.5532 33.6005C17.5532 34.926 18.6248 36.0005 19.9467 36.0005Z" fill="white"/>
<path d="M32.8895 15.2785C31.7447 15.9412 30.2809 15.5479 29.6199 14.4C28.959 13.2521 29.3512 11.7843 30.496 11.1216C31.6408 10.4588 33.1047 10.8521 33.7656 12C34.4266 13.1479 34.0343 14.6158 32.8895 15.2785Z" fill="white"/>
<path d="M6.12771 28C6.78866 29.1479 8.25251 29.5412 9.39731 28.8785C10.5421 28.2158 10.9343 26.7479 10.2734 25.6C9.61245 24.4521 8.1486 24.0588 7.0038 24.7216C5.859 25.3843 5.46676 26.8521 6.12771 28Z" fill="white"/>
<path d="M22.7676 24.566C21.2097 26.1281 18.6839 26.1281 17.126 24.566L13.5157 20.9459C13.0483 20.4772 13.0483 19.7174 13.5157 19.2488L15.2082 17.5517C15.6755 17.0831 16.4329 17.0828 16.9003 17.5514L19.9468 20.6062C22.5398 23.6003 24.3349 22.9944 24.3349 22.9944L22.7676 24.566Z" fill="white"/>
<defs>
<linearGradient id="paint0_linear_9759_3646" x1="26.7269" y1="17.2001" x2="19.9295" y2="23.093" gradientUnits="userSpaceOnUse">
<stop stop-color="white"/>
<stop offset="1" stop-color="white" stop-opacity="0.1"/>
</linearGradient>
</defs>
</svg>
