<svg width="567" height="315" viewBox="0 0 567 315" fill="none" xmlns="http://www.w3.org/2000/svg">
<g clip-path="url(#clip0_588_3403)">
<g clip-path="url(#clip1_588_3403)">
<path d="M553 314.363C553 314.445 436.801 314.609 293.541 314.609C150.199 314.527 34 314.445 34 314.363C34 314.281 150.199 314.117 293.541 314.117C436.801 314.117 553 314.199 553 314.363Z" fill="black" fill-opacity="0.55"/>
<path d="M516.562 11.9152C516.562 11.9152 516.652 11.9152 516.92 11.9152C517.189 11.9152 517.548 11.9152 517.995 11.9152C518.264 11.9152 518.443 11.9152 518.802 11.9152C519.07 11.9152 519.429 12.0048 519.698 12.0048C520.056 12.0944 520.414 12.0944 520.773 12.184C521.131 12.2736 521.579 12.3632 521.937 12.4528C523.639 12.9007 525.7 13.6174 527.76 14.9612C529.821 16.305 532.061 18.1864 533.763 20.7844C535.465 23.3825 536.809 26.6972 537.167 30.3703C537.167 31.2662 537.346 32.2516 537.257 33.1475C537.257 33.5955 537.257 34.133 537.167 34.5809C537.078 35.0289 536.988 35.5664 536.988 36.0143C536.63 37.8957 536.003 39.8666 535.017 41.7479C534.032 43.6293 532.777 45.3314 531.254 46.8544C529.731 48.3774 527.85 49.7212 525.879 50.7067C523.908 51.6921 521.669 52.4088 519.339 52.6776C518.802 52.7672 518.175 52.7672 517.548 52.8568C516.92 52.8568 516.383 52.9464 515.756 52.8568C514.591 52.7672 513.426 52.6776 512.172 52.4089C509.664 51.8713 507.245 50.7963 505.095 49.4525H505.274C502.855 50.4379 500.436 51.4234 498.107 52.3193L497.659 52.4984L497.749 52.0505C498.465 49.4525 499.182 46.8544 499.899 44.346V44.5251C497.838 41.8375 496.584 38.7915 496.046 35.7456C495.778 34.2226 495.688 32.6996 495.778 31.2662C495.778 30.5495 495.867 29.8328 495.957 29.1161C496.046 28.7577 496.046 28.3994 496.136 28.041C496.226 27.6827 496.315 27.3243 496.405 27.0556C497.838 21.6803 501.153 17.6489 504.468 15.3196C506.08 14.1549 507.782 13.3486 509.216 12.8111C509.574 12.7215 509.933 12.5424 510.291 12.4528C510.649 12.3632 511.008 12.2736 511.276 12.184C511.635 12.0944 511.903 12.0048 512.172 11.9152C512.441 11.8257 512.799 11.8257 513.068 11.8257C513.606 11.7361 514.054 11.6465 514.502 11.6465C514.949 11.6465 515.308 11.6465 515.577 11.6465C515.845 11.6465 516.025 11.6465 516.204 11.6465C516.472 11.9152 516.562 11.9152 516.562 11.9152C516.562 11.9152 516.472 11.9152 516.383 11.9152C516.204 11.9152 516.025 11.9152 515.756 12.0048C515.487 12.0048 515.129 12.0048 514.681 12.0944C514.233 12.0944 513.785 12.2736 513.247 12.2736C511.097 12.6319 507.962 13.5278 504.736 15.8571C501.511 18.1864 498.286 22.1282 496.942 27.4139C496.853 27.7723 496.763 28.041 496.674 28.3994C496.584 28.7577 496.584 29.1161 496.494 29.4744C496.405 30.1911 496.315 30.9078 496.315 31.6245C496.226 33.0579 496.315 34.5809 496.584 36.0143C497.122 38.9707 498.376 42.0167 500.347 44.6147L500.436 44.7043V44.7939C499.72 47.3024 499.092 49.8108 498.376 52.4984L498.107 52.2297C500.436 51.2442 502.855 50.3483 505.274 49.3629V49.2733L505.364 49.3629C507.424 50.7067 509.753 51.6922 512.262 52.2297C513.426 52.4984 514.591 52.588 515.756 52.6776C516.293 52.6776 516.92 52.6776 517.458 52.6776C517.995 52.6776 518.623 52.6776 519.16 52.4984C521.4 52.2297 523.639 51.513 525.61 50.5275C527.581 49.542 529.373 48.1982 530.896 46.7648C532.419 45.2418 533.584 43.5397 534.569 41.7479C535.555 39.9562 536.092 37.9852 536.54 36.1039C536.63 35.656 536.719 35.1184 536.719 34.6705C536.809 34.2226 536.809 33.685 536.809 33.2371C536.898 32.3412 536.809 31.3558 536.809 30.4599C536.45 26.8764 535.196 23.6512 533.494 21.0532C531.792 18.4551 529.642 16.5738 527.581 15.23C525.521 13.8862 523.55 13.0799 521.848 12.6319C521.4 12.5424 521.041 12.4528 520.683 12.2736C520.325 12.184 519.966 12.184 519.608 12.0944C519.25 12.0048 518.981 12.0048 518.712 11.9152C518.443 11.9152 518.175 11.9152 517.906 11.8257C517.458 11.8257 517.1 11.7361 516.831 11.7361C516.741 11.9152 516.562 11.9152 516.562 11.9152Z" fill="black" fill-opacity="0.5"/>
<path d="M522.475 29.9225L519.34 26.0702C519.161 25.891 518.802 25.891 518.713 26.1598L518.175 27.5036C512.71 25.891 509.754 30.6392 509.754 30.6392L511.814 32.0726C514.054 28.5786 517.369 29.6537 517.369 29.6537L516.921 30.8183C516.831 31.0871 517.01 31.3559 517.369 31.3559L522.296 30.5496C522.475 30.46 522.654 30.1912 522.475 29.9225Z" fill="#FF9123"/>
<path d="M522.475 29.9225L519.34 26.0702C519.161 25.891 518.802 25.891 518.713 26.1598L518.175 27.5036C512.71 25.891 509.754 30.6392 509.754 30.6392L511.814 32.0726C514.054 28.5786 517.369 29.6537 517.369 29.6537L516.921 30.8183C516.831 31.0871 517.01 31.3559 517.369 31.3559L522.296 30.5496C522.475 30.46 522.654 30.1912 522.475 29.9225Z" fill="url(#paint0_linear_588_3403)" fill-opacity="0.5"/>
<path d="M521.401 34.4912C519.251 37.5372 516.474 36.9101 515.936 36.7309L516.563 35.2079C516.653 35.1183 516.474 34.9391 516.384 34.9391L510.74 35.6558C510.65 35.6558 510.561 35.835 510.65 35.9246L514.055 40.404C514.144 40.4936 514.323 40.4936 514.323 40.404L514.951 38.7914C520.326 40.4936 523.372 35.9246 523.372 35.9246L521.401 34.4912Z" fill="#FF9123"/>
<path d="M521.401 34.4912C519.251 37.5372 516.474 36.9101 515.936 36.7309L516.563 35.2079C516.653 35.1183 516.474 34.9391 516.384 34.9391L510.74 35.6558C510.65 35.6558 510.561 35.835 510.65 35.9246L514.055 40.404C514.144 40.4936 514.323 40.4936 514.323 40.404L514.951 38.7914C520.326 40.4936 523.372 35.9246 523.372 35.9246L521.401 34.4912Z" fill="url(#paint1_linear_588_3403)" fill-opacity="0.5"/>
<path d="M402.338 151.403H303.971C303.254 151.403 302.627 150.776 302.627 150.059V86.004C302.627 85.2873 303.254 84.6602 303.971 84.6602H402.338C403.055 84.6602 403.682 85.2873 403.682 86.004V150.149C403.682 150.865 403.055 151.403 402.338 151.403Z" fill="#53514D"/>
<path d="M401.979 152.389H304.239C301.014 152.389 298.416 149.791 298.416 146.565H407.892C407.892 149.701 405.294 152.389 401.979 152.389Z" fill="#716F6B"/>
<path d="M400.636 87.2583H305.314V143.698H400.636V87.2583Z" fill="#53514D"/>
<path d="M343.209 146.476L344.553 148.626H363.635L364.889 146.476H343.209Z" fill="#53514D"/>
<path d="M395.977 143.519H310.242C308.629 143.519 307.285 142.176 307.285 140.563V92.096C307.285 90.4835 308.629 89.1396 310.242 89.1396H395.977C397.589 89.1396 398.933 90.4835 398.933 92.096V140.563C398.933 142.176 397.589 143.519 395.977 143.519Z" fill="#EBEBEB"/>
<path d="M398.933 93.1709H307.285V143.519H398.933V93.1709Z" fill="#FAFAFA"/>
<path d="M314.094 92.0066C314.49 92.0066 314.81 91.6858 314.81 91.2899C314.81 90.8941 314.49 90.5732 314.094 90.5732C313.698 90.5732 313.377 90.8941 313.377 91.2899C313.377 91.6858 313.698 92.0066 314.094 92.0066Z" fill="#263238"/>
<path d="M309.615 92.0066C310.011 92.0066 310.332 91.6858 310.332 91.2899C310.332 90.8941 310.011 90.5732 309.615 90.5732C309.219 90.5732 308.898 90.8941 308.898 91.2899C308.898 91.6858 309.219 92.0066 309.615 92.0066Z" fill="#263238"/>
<path d="M311.766 92.0066C312.161 92.0066 312.482 91.6858 312.482 91.2899C312.482 90.8941 312.161 90.5732 311.766 90.5732C311.37 90.5732 311.049 90.8941 311.049 91.2899C311.049 91.6858 311.37 92.0066 311.766 92.0066Z" fill="#263238"/>
<path d="M402.786 146.476C402.786 146.476 380.389 146.565 352.706 146.565C325.024 146.565 302.627 146.565 302.627 146.476C302.627 146.476 325.024 146.386 352.706 146.386C380.389 146.386 402.786 146.476 402.786 146.476Z" fill="#455A64"/>
<path d="M334.52 118.524H313.646V119.958H334.52V118.524Z" fill="#E0E0E0"/>
<path d="M361.487 99.084H340.613V100.517H361.487V99.084Z" fill="#E0E0E0"/>
<path d="M392.662 104.28C392.662 104.28 381.016 104.37 366.682 104.37C352.348 104.37 340.701 104.37 340.701 104.28C340.701 104.28 352.348 104.19 366.682 104.19C381.016 104.28 392.662 104.28 392.662 104.28Z" fill="#E0E0E0"/>
<path d="M392.662 107.326C392.662 107.326 381.016 107.416 366.682 107.416C352.348 107.416 340.701 107.416 340.701 107.326C340.701 107.326 352.348 107.236 366.682 107.236C381.016 107.326 392.662 107.326 392.662 107.326Z" fill="#E0E0E0"/>
<path d="M392.662 110.462C392.662 110.462 381.016 110.551 366.682 110.551C352.348 110.551 340.701 110.551 340.701 110.462C340.701 110.462 352.348 110.372 366.682 110.372C381.016 110.372 392.662 110.372 392.662 110.462Z" fill="#E0E0E0"/>
<path d="M392.662 113.508C392.662 113.508 381.016 113.597 366.682 113.597C352.348 113.597 340.701 113.597 340.701 113.508C340.701 113.508 352.348 113.418 366.682 113.418C381.016 113.418 392.662 113.418 392.662 113.508Z" fill="#E0E0E0"/>
<path d="M392.662 116.553C392.662 116.553 381.016 116.643 366.682 116.643C352.348 116.643 340.701 116.643 340.701 116.553C340.701 116.553 352.348 116.464 366.682 116.464C381.016 116.464 392.662 116.464 392.662 116.553Z" fill="#E0E0E0"/>
<path d="M350.737 119.689C356.328 119.689 360.86 119.649 360.86 119.599C360.86 119.55 356.328 119.51 350.737 119.51C345.146 119.51 340.613 119.55 340.613 119.599C340.613 119.649 345.146 119.689 350.737 119.689Z" fill="#E0E0E0"/>
<path d="M375.193 125.602C384.644 125.602 392.304 125.562 392.304 125.512C392.304 125.463 384.644 125.423 375.193 125.423C365.743 125.423 358.082 125.463 358.082 125.512C358.082 125.562 365.743 125.602 375.193 125.602Z" fill="#E0E0E0"/>
<path d="M375.193 128.827C384.644 128.827 392.304 128.787 392.304 128.738C392.304 128.688 384.644 128.648 375.193 128.648C365.743 128.648 358.082 128.688 358.082 128.738C358.082 128.787 365.743 128.827 375.193 128.827Z" fill="#E0E0E0"/>
<path d="M375.193 132.052C384.644 132.052 392.304 132.012 392.304 131.963C392.304 131.913 384.644 131.873 375.193 131.873C365.743 131.873 358.082 131.913 358.082 131.963C358.082 132.012 365.743 132.052 375.193 132.052Z" fill="#E0E0E0"/>
<path d="M375.193 135.367C384.644 135.367 392.304 135.327 392.304 135.278C392.304 135.228 384.644 135.188 375.193 135.188C365.743 135.188 358.082 135.228 358.082 135.278C358.082 135.327 365.743 135.367 375.193 135.367Z" fill="#E0E0E0"/>
<path d="M324.397 125.333C330.037 125.333 334.61 125.293 334.61 125.243C334.61 125.194 330.037 125.154 324.397 125.154C318.756 125.154 314.184 125.194 314.184 125.243C314.184 125.293 318.756 125.333 324.397 125.333Z" fill="#E0E0E0"/>
<path d="M324.397 127.842C330.037 127.842 334.61 127.802 334.61 127.752C334.61 127.703 330.037 127.663 324.397 127.663C318.756 127.663 314.184 127.703 314.184 127.752C314.184 127.802 318.756 127.842 324.397 127.842Z" fill="#E0E0E0"/>
<path d="M324.397 130.35C330.037 130.35 334.61 130.31 334.61 130.26C334.61 130.211 330.037 130.171 324.397 130.171C318.756 130.171 314.184 130.211 314.184 130.26C314.184 130.31 318.756 130.35 324.397 130.35Z" fill="#E0E0E0"/>
<path d="M324.397 132.948C330.037 132.948 334.61 132.908 334.61 132.859C334.61 132.809 330.037 132.769 324.397 132.769C318.756 132.769 314.184 132.809 314.184 132.859C314.184 132.908 318.756 132.948 324.397 132.948Z" fill="#E0E0E0"/>
<path d="M324.397 135.457C330.037 135.457 334.61 135.416 334.61 135.367C334.61 135.317 330.037 135.277 324.397 135.277C318.756 135.277 314.184 135.317 314.184 135.367C314.184 135.416 318.756 135.457 324.397 135.457Z" fill="#E0E0E0"/>
<path d="M355.485 123.989H340.613V138.323H355.485V123.989Z" fill="#F5F5F5"/>
<path d="M341.777 137.069L345.898 129.723L349.213 134.381L351.274 131.962L354.32 137.069H341.777Z" fill="#EBEBEB"/>
<path d="M349.571 129.364C350.165 129.364 350.646 128.883 350.646 128.289C350.646 127.696 350.165 127.214 349.571 127.214C348.977 127.214 348.496 127.696 348.496 128.289C348.496 128.883 348.977 129.364 349.571 129.364Z" fill="#EBEBEB"/>
<path d="M354.319 137.159C354.319 137.159 354.319 137.069 354.319 137.159C354.319 137.069 354.319 136.979 354.319 136.89C354.319 136.711 354.319 136.531 354.319 136.263C354.319 135.725 354.319 134.829 354.319 133.844C354.319 131.783 354.319 128.737 354.319 125.154L354.409 125.243C350.736 125.243 346.436 125.243 341.867 125.243L341.956 125.154V125.243V125.333V125.512V125.96C341.956 126.229 341.956 126.498 341.956 126.766C341.956 127.304 341.956 127.841 341.956 128.379C341.956 129.454 341.956 130.439 341.956 131.515C341.956 133.485 341.956 135.456 341.956 137.159L341.867 137.069C345.629 137.069 348.765 137.069 350.915 137.069C351.99 137.069 352.886 137.069 353.513 137.069C353.782 137.069 354.051 137.069 354.23 137.069C354.14 137.159 354.23 137.159 354.319 137.159C354.23 137.159 354.14 137.159 354.14 137.159C353.961 137.159 353.782 137.159 353.513 137.159C352.886 137.159 352.08 137.159 351.005 137.159C348.765 137.159 345.629 137.159 341.867 137.159H341.777V137.069C341.777 135.277 341.777 133.396 341.777 131.425C341.777 130.439 341.777 129.364 341.777 128.289C341.777 127.752 341.777 127.214 341.777 126.677C341.777 126.408 341.777 126.139 341.777 125.87V125.423V125.243V125.154V125.064C341.687 125.154 341.867 124.975 341.867 124.975C346.436 124.975 350.736 124.975 354.409 124.975H354.499V125.064C354.499 128.648 354.499 131.694 354.499 133.754C354.499 134.829 354.499 135.636 354.499 136.173C354.499 136.442 354.499 136.621 354.499 136.8C354.319 136.979 354.319 137.069 354.319 137.159Z" fill="#EBEBEB"/>
<path d="M371.966 98.9941H333.354V137.606H371.966V98.9941Z" fill="#FAFAFA"/>
<path d="M371.967 137.606C371.967 137.606 371.967 137.517 371.967 137.427C371.967 137.248 371.967 137.069 371.967 136.89C371.967 136.352 371.967 135.725 371.967 134.829C371.967 132.948 371.967 130.35 371.877 126.945C371.877 120.226 371.787 110.551 371.787 99.0837L371.967 99.2629C360.768 99.2629 347.509 99.2629 333.354 99.2629C333.265 99.3525 333.802 98.8149 333.623 98.9941V99.0837V99.2629V99.6212V100.248V101.592C333.623 102.488 333.623 103.384 333.623 104.19C333.623 105.892 333.623 107.684 333.623 109.386C333.623 112.791 333.623 116.105 333.623 119.331C333.623 125.781 333.623 131.962 333.623 137.517L333.444 137.338C345.001 137.338 354.587 137.427 361.306 137.427C364.71 137.427 367.308 137.427 369.189 137.517C370.085 137.517 370.802 137.517 371.25 137.517C371.519 137.517 371.608 137.517 371.787 137.517C371.877 137.517 371.877 137.606 371.967 137.606C371.967 137.606 371.877 137.606 371.787 137.606C371.698 137.606 371.519 137.606 371.25 137.606C370.802 137.606 370.085 137.606 369.189 137.606C367.398 137.606 364.71 137.606 361.395 137.696C354.587 137.696 344.911 137.786 333.354 137.786H333.175V137.606C333.175 131.962 333.175 125.87 333.175 119.42C333.175 116.195 333.175 112.88 333.175 109.476C333.175 107.774 333.175 106.072 333.175 104.28C333.175 103.384 333.175 102.578 333.175 101.682V100.338V99.7108V99.3525V99.1733V99.0837C332.996 99.2629 333.444 98.8149 333.444 98.8149C347.599 98.8149 360.768 98.8149 372.056 98.8149H372.235V98.9941C372.235 110.551 372.146 120.226 372.146 127.035C372.146 130.35 372.146 133.037 372.056 134.829C372.056 135.725 372.056 136.352 372.056 136.89C372.056 137.069 372.056 137.248 372.056 137.427C371.967 137.517 371.967 137.606 371.967 137.606Z" fill="black" fill-opacity="0.5"/>
<path d="M362.113 114.314L357.185 108.222C356.916 107.863 356.379 107.953 356.2 108.401L355.393 110.461C346.793 107.863 342.045 115.389 342.045 115.389L345.36 117.718C348.943 112.163 354.05 113.955 354.05 113.955L353.333 115.747C353.154 116.195 353.512 116.643 353.96 116.553L361.665 115.299C362.202 115.209 362.381 114.672 362.113 114.314Z" fill="#FF9123"/>
<path d="M362.113 114.314L357.185 108.222C356.916 107.863 356.379 107.953 356.2 108.401L355.393 110.461C346.793 107.863 342.045 115.389 342.045 115.389L345.36 117.718C348.943 112.163 354.05 113.955 354.05 113.955L353.333 115.747C353.154 116.195 353.512 116.643 353.96 116.553L361.665 115.299C362.202 115.209 362.381 114.672 362.113 114.314Z" fill="url(#paint2_linear_588_3403)" fill-opacity="0.5"/>
<path d="M360.411 121.57C357.096 126.408 352.706 125.423 351.81 125.064L352.796 122.735C352.885 122.556 352.706 122.377 352.527 122.377L343.658 123.541C343.479 123.541 343.389 123.81 343.479 123.989L348.854 131.067C348.943 131.246 349.212 131.156 349.302 130.977L350.377 128.469C358.798 131.156 363.636 123.9 363.636 123.9L360.411 121.57Z" fill="#FF9123"/>
<path d="M360.411 121.57C357.096 126.408 352.706 125.423 351.81 125.064L352.796 122.735C352.885 122.556 352.706 122.377 352.527 122.377L343.658 123.541C343.479 123.541 343.389 123.81 343.479 123.989L348.854 131.067C348.943 131.246 349.212 131.156 349.302 130.977L350.377 128.469C358.798 131.156 363.636 123.9 363.636 123.9L360.411 121.57Z" fill="url(#paint3_linear_588_3403)" fill-opacity="0.5"/>
<path d="M352.527 103.205C363.165 103.205 371.788 103.084 371.788 102.936C371.788 102.787 363.165 102.667 352.527 102.667C341.889 102.667 333.266 102.787 333.266 102.936C333.266 103.084 341.889 103.205 352.527 103.205Z" fill="black" fill-opacity="0.5"/>
<path d="M334.968 101.324C335.166 101.324 335.326 101.163 335.326 100.965C335.326 100.767 335.166 100.607 334.968 100.607C334.77 100.607 334.609 100.767 334.609 100.965C334.609 101.163 334.77 101.324 334.968 101.324Z" fill="black" fill-opacity="0.5"/>
<path d="M336.042 101.324C336.24 101.324 336.4 101.163 336.4 100.965C336.4 100.767 336.24 100.607 336.042 100.607C335.844 100.607 335.684 100.767 335.684 100.965C335.684 101.163 335.844 101.324 336.042 101.324Z" fill="black" fill-opacity="0.5"/>
<path d="M337.118 101.324C337.316 101.324 337.476 101.163 337.476 100.965C337.476 100.767 337.316 100.607 337.118 100.607C336.92 100.607 336.76 100.767 336.76 100.965C336.76 101.163 336.92 101.324 337.118 101.324Z" fill="black" fill-opacity="0.5"/>
<path d="M296.266 58.4111H189.657C187.775 58.4111 186.342 59.9341 186.342 61.7259V137.069C186.342 138.95 187.865 140.384 189.657 140.384H230.598C230.598 140.384 233.196 148.447 225.133 152.568H263.387C263.387 152.568 254.249 149.432 256.578 140.384H296.266C298.147 140.384 299.581 138.861 299.581 137.069V61.7259C299.581 59.9341 298.147 58.4111 296.266 58.4111Z" fill="#53514D"/>
<path d="M244.394 132.5C245.828 134.561 243.588 136.8 241.527 135.367C241.438 135.277 241.438 135.277 241.348 135.188C239.915 133.127 242.155 130.888 244.215 132.321C244.305 132.321 244.394 132.411 244.394 132.5Z" fill="black" fill-opacity="0.5"/>
<path d="M297.788 126.587H188.223V62.5324C188.223 61.0094 189.477 59.8447 190.91 59.8447H295.101C296.624 59.8447 297.788 61.099 297.788 62.5324V126.587Z" fill="#53514D"/>
<path d="M294.205 124.348H191V63.0698H294.205V124.348Z" fill="#EBEBEB"/>
<path d="M294.205 67.5493H191V126.588H294.205V67.5493Z" fill="#FAFAFA"/>
<path d="M198.615 66.2952C199.06 66.2952 199.421 65.9342 199.421 65.4889C199.421 65.0436 199.06 64.6826 198.615 64.6826C198.17 64.6826 197.809 65.0436 197.809 65.4889C197.809 65.9342 198.17 66.2952 198.615 66.2952Z" fill="#F5F5F5"/>
<path d="M193.597 66.2952C194.043 66.2952 194.404 65.9342 194.404 65.4889C194.404 65.0436 194.043 64.6826 193.597 64.6826C193.152 64.6826 192.791 65.0436 192.791 65.4889C192.791 65.9342 193.152 66.2952 193.597 66.2952Z" fill="#F5F5F5"/>
<path d="M196.017 66.2952C196.463 66.2952 196.824 65.9342 196.824 65.4889C196.824 65.0436 196.463 64.6826 196.017 64.6826C195.572 64.6826 195.211 65.0436 195.211 65.4889C195.211 65.9342 195.572 66.2952 196.017 66.2952Z" fill="#F5F5F5"/>
<path d="M221.73 96.1274H198.168V97.74H221.73V96.1274Z" fill="#E0E0E0"/>
<path d="M252.101 74.2681H228.539V75.8806H252.101V74.2681Z" fill="#E0E0E0"/>
<path d="M287.129 80.1809C287.129 80.1809 274.05 80.2705 257.834 80.2705C241.619 80.2705 228.539 80.2705 228.539 80.1809C228.539 80.1809 241.619 80.0913 257.834 80.0913C274.05 80.0913 287.129 80.0913 287.129 80.1809Z" fill="#E0E0E0"/>
<path d="M287.129 83.5852C287.129 83.5852 274.05 83.6748 257.834 83.6748C241.619 83.6748 228.539 83.6748 228.539 83.5852C228.539 83.5852 241.619 83.4956 257.834 83.4956C274.05 83.4956 287.129 83.5852 287.129 83.5852Z" fill="#E0E0E0"/>
<path d="M287.129 86.9895C287.129 86.9895 274.05 87.0791 257.834 87.0791C241.619 87.0791 228.539 87.0791 228.539 86.9895C228.539 86.9895 241.619 86.8999 257.834 86.8999C274.05 86.9895 287.129 86.9895 287.129 86.9895Z" fill="#E0E0E0"/>
<path d="M287.129 90.4836C287.129 90.4836 274.05 90.5732 257.834 90.5732C241.619 90.5732 228.539 90.5732 228.539 90.4836C228.539 90.4836 241.619 90.394 257.834 90.394C274.05 90.394 287.129 90.394 287.129 90.4836Z" fill="#E0E0E0"/>
<path d="M287.129 93.8879C287.129 93.8879 274.05 93.9775 257.834 93.9775C241.619 93.9775 228.539 93.9775 228.539 93.8879C228.539 93.8879 241.619 93.7983 257.834 93.7983C274.05 93.7983 287.129 93.8879 287.129 93.8879Z" fill="#E0E0E0"/>
<path d="M240.006 97.4712C246.339 97.4712 251.473 97.4311 251.473 97.3816C251.473 97.3321 246.339 97.292 240.006 97.292C233.673 97.292 228.539 97.3321 228.539 97.3816C228.539 97.4311 233.673 97.4712 240.006 97.4712Z" fill="#E0E0E0"/>
<path d="M267.42 104.101C278.057 104.101 286.681 104.06 286.681 104.011C286.681 103.961 278.057 103.921 267.42 103.921C256.782 103.921 248.158 103.961 248.158 104.011C248.158 104.06 256.782 104.101 267.42 104.101Z" fill="#E0E0E0"/>
<path d="M267.42 107.774C278.057 107.774 286.681 107.734 286.681 107.684C286.681 107.635 278.057 107.595 267.42 107.595C256.782 107.595 248.158 107.635 248.158 107.684C248.158 107.734 256.782 107.774 267.42 107.774Z" fill="#E0E0E0"/>
<path d="M267.42 111.447C278.057 111.447 286.681 111.407 286.681 111.357C286.681 111.308 278.057 111.268 267.42 111.268C256.782 111.268 248.158 111.308 248.158 111.357C248.158 111.407 256.782 111.447 267.42 111.447Z" fill="#E0E0E0"/>
<path d="M267.42 115.03C278.057 115.03 286.681 114.99 286.681 114.941C286.681 114.891 278.057 114.851 267.42 114.851C256.782 114.851 248.158 114.891 248.158 114.941C248.158 114.99 256.782 115.03 267.42 115.03Z" fill="#E0E0E0"/>
<path d="M210.262 103.742C216.595 103.742 221.729 103.702 221.729 103.653C221.729 103.603 216.595 103.563 210.262 103.563C203.929 103.563 198.795 103.603 198.795 103.653C198.795 103.702 203.929 103.742 210.262 103.742Z" fill="#E0E0E0"/>
<path d="M210.262 106.609C216.595 106.609 221.729 106.569 221.729 106.52C221.729 106.47 216.595 106.43 210.262 106.43C203.929 106.43 198.795 106.47 198.795 106.52C198.795 106.569 203.929 106.609 210.262 106.609Z" fill="#E0E0E0"/>
<path d="M210.262 109.476C216.595 109.476 221.729 109.436 221.729 109.386C221.729 109.337 216.595 109.297 210.262 109.297C203.929 109.297 198.795 109.337 198.795 109.386C198.795 109.436 203.929 109.476 210.262 109.476Z" fill="#E0E0E0"/>
<path d="M210.262 112.343C216.595 112.343 221.729 112.303 221.729 112.253C221.729 112.204 216.595 112.164 210.262 112.164C203.929 112.164 198.795 112.204 198.795 112.253C198.795 112.303 203.929 112.343 210.262 112.343Z" fill="#E0E0E0"/>
<path d="M210.262 115.209C216.595 115.209 221.729 115.169 221.729 115.12C221.729 115.07 216.595 115.03 210.262 115.03C203.929 115.03 198.795 115.07 198.795 115.12C198.795 115.169 203.929 115.209 210.262 115.209Z" fill="#E0E0E0"/>
<path d="M245.292 102.309H228.539V118.435H245.292V102.309Z" fill="#F5F5F5"/>
<path d="M229.793 117.091L234.452 108.759L238.214 114.045L240.543 111.268L243.948 117.091H229.793Z" fill="#EBEBEB"/>
<path d="M238.663 108.311C239.306 108.311 239.827 107.79 239.827 107.147C239.827 106.503 239.306 105.982 238.663 105.982C238.019 105.982 237.498 106.503 237.498 107.147C237.498 107.79 238.019 108.311 238.663 108.311Z" fill="#EBEBEB"/>
<path d="M243.947 117.091C243.947 117.001 243.947 116.912 243.947 116.822C243.947 116.643 243.947 116.374 243.947 116.105C243.947 115.478 243.947 114.493 243.947 113.328C243.947 110.999 243.947 107.595 243.947 103.563L244.037 103.653C239.916 103.653 235.078 103.653 229.882 103.653C229.882 103.653 230.061 103.474 229.972 103.563V103.653V103.742V104.011V104.459C229.972 104.728 229.972 105.086 229.972 105.355C229.972 105.982 229.972 106.52 229.972 107.147C229.972 108.311 229.972 109.476 229.972 110.641C229.972 112.88 229.972 115.03 229.972 117.001L229.882 116.912C234.093 116.912 237.587 116.912 240.095 116.912C241.349 116.912 242.335 116.912 242.962 116.912C243.32 116.912 243.589 116.912 243.768 116.912C243.768 117.091 243.858 117.091 243.947 117.091C243.858 117.091 243.768 117.091 243.679 117.091C243.5 117.091 243.231 117.091 242.962 117.091C242.335 117.091 241.349 117.091 240.095 117.091C237.587 117.091 234.093 117.091 229.882 117.091H229.793V117.001C229.793 115.03 229.793 112.88 229.793 110.641C229.793 109.476 229.793 108.311 229.793 107.147C229.793 106.52 229.793 105.982 229.793 105.355C229.793 105.086 229.793 104.728 229.793 104.459V104.011V103.742V103.653V103.563C229.703 103.653 229.882 103.474 229.882 103.474C235.078 103.474 239.916 103.474 244.037 103.474H244.127V103.563C244.127 107.595 244.127 110.999 244.127 113.328C244.127 114.493 244.127 115.389 244.127 116.016C244.127 116.285 244.127 116.553 244.127 116.733C243.948 116.912 243.947 117.001 243.947 117.091Z" fill="#EBEBEB"/>
<path d="M266.969 70.9536H222.803V115.12H266.969V70.9536Z" fill="#FAFAFA"/>
<path d="M266.97 115.12C266.97 115.12 266.97 115.031 266.97 114.941C266.97 114.762 266.97 114.583 266.97 114.314C266.97 113.776 266.97 112.97 266.97 111.895C266.97 109.835 266.97 106.789 266.881 102.936C266.881 95.2318 266.791 84.2126 266.791 70.9536L266.97 71.1328C254.159 71.1328 239.019 71.1328 222.804 71.1328C222.714 71.2224 223.251 70.6848 223.072 70.864V70.9536V71.0432V71.2224V71.5807V72.2974V73.8204C223.072 74.8059 223.072 75.7913 223.072 76.7768C223.072 78.7477 223.072 80.7186 223.072 82.6896C223.072 86.5418 223.072 90.3941 223.072 94.0672C223.072 101.503 223.072 108.491 223.072 114.941L222.893 114.762C236.062 114.762 247.082 114.852 254.876 114.852C258.728 114.852 261.774 114.852 263.835 114.941C264.82 114.941 265.626 114.941 266.254 114.941C266.522 114.941 266.701 114.941 266.881 114.941C266.881 115.12 266.97 115.12 266.97 115.12C266.97 115.12 266.881 115.12 266.791 115.12C266.612 115.12 266.433 115.12 266.164 115.12C265.626 115.12 264.82 115.12 263.835 115.12C261.774 115.12 258.728 115.12 254.876 115.21C247.082 115.21 236.062 115.299 222.804 115.299H222.624V115.12C222.624 108.67 222.624 101.682 222.624 94.2464C222.624 90.5733 222.624 86.721 222.624 82.8687C222.624 80.8978 222.624 78.9269 222.624 76.956C222.624 75.9705 222.624 74.985 222.624 73.9996V72.4766V71.7599V71.4015V71.2224V71.1328V71.0432C222.445 71.2224 222.893 70.7744 222.893 70.7744C239.019 70.7744 254.249 70.7744 267.06 70.7744H267.239V70.9536C267.239 84.2126 267.149 95.2318 267.149 103.026C267.149 106.878 267.149 109.924 267.06 111.985C267.06 112.97 267.06 113.776 267.06 114.314C267.06 114.583 267.06 114.762 267.06 114.941C266.97 115.031 266.97 115.12 266.97 115.12Z" fill="#263238"/>
<path d="M255.772 88.5127L250.128 81.5248C249.77 81.1665 249.143 81.2561 248.964 81.704L248.068 84.0333C238.213 81.0769 232.838 89.6773 232.838 89.6773L236.601 92.3649C240.722 86.0042 246.545 88.0647 246.545 88.0647L245.739 90.1252C245.559 90.5732 246.007 91.1107 246.455 91.0211L255.324 89.4981C255.862 89.5877 256.041 88.9606 255.772 88.5127Z" fill="#FF9123"/>
<path d="M255.772 88.5127L250.128 81.5248C249.77 81.1665 249.143 81.2561 248.964 81.704L248.068 84.0333C238.213 81.0769 232.838 89.6773 232.838 89.6773L236.601 92.3649C240.722 86.0042 246.545 88.0647 246.545 88.0647L245.739 90.1252C245.559 90.5732 246.007 91.1107 246.455 91.0211L255.324 89.4981C255.862 89.5877 256.041 88.9606 255.772 88.5127Z" fill="url(#paint4_linear_588_3403)" fill-opacity="0.5"/>
<path d="M253.802 96.8442C249.949 102.399 244.932 101.234 243.947 100.876L245.112 98.1881C245.201 98.0089 245.022 97.7401 244.753 97.7401L234.63 99.0839C234.361 99.0839 234.271 99.3527 234.451 99.5319L240.543 107.684C240.722 107.864 240.991 107.864 241.08 107.595L242.245 104.728C251.831 107.774 257.475 99.5319 257.475 99.5319L253.802 96.8442Z" fill="#FF9123"/>
<path d="M253.802 96.8442C249.949 102.399 244.932 101.234 243.947 100.876L245.112 98.1881C245.201 98.0089 245.022 97.7401 244.753 97.7401L234.63 99.0839C234.361 99.0839 234.271 99.3527 234.451 99.5319L240.543 107.684C240.722 107.864 240.991 107.864 241.08 107.595L242.245 104.728C251.831 107.774 257.475 99.5319 257.475 99.5319L253.802 96.8442Z" fill="url(#paint5_linear_588_3403)" fill-opacity="0.5"/>
<path d="M244.753 75.7914C256.925 75.7914 266.792 75.6711 266.792 75.5227C266.792 75.3742 256.925 75.2539 244.753 75.2539C232.582 75.2539 222.715 75.3742 222.715 75.5227C222.715 75.6711 232.582 75.7914 244.753 75.7914Z" fill="#263238"/>
<path d="M224.685 73.641C224.882 73.641 225.043 73.4806 225.043 73.2827C225.043 73.0848 224.882 72.9243 224.685 72.9243C224.487 72.9243 224.326 73.0848 224.326 73.2827C224.326 73.4806 224.487 73.641 224.685 73.641Z" fill="#263238"/>
<path d="M225.938 73.641C226.136 73.641 226.297 73.4806 226.297 73.2827C226.297 73.0848 226.136 72.9243 225.938 72.9243C225.741 72.9243 225.58 73.0848 225.58 73.2827C225.58 73.4806 225.741 73.641 225.938 73.641Z" fill="#263238"/>
<path d="M227.104 73.641C227.302 73.641 227.463 73.4806 227.463 73.2827C227.463 73.0848 227.302 72.9243 227.104 72.9243C226.907 72.9243 226.746 73.0848 226.746 73.2827C226.746 73.4806 226.907 73.641 227.104 73.641Z" fill="#263238"/>
<path d="M180.34 152.747H148.267C146.655 152.747 145.4 151.493 145.4 149.88V101.324C145.4 99.7113 146.655 98.457 148.267 98.457H180.34C181.952 98.457 183.206 99.7113 183.206 101.324V149.88C183.206 151.403 181.952 152.747 180.34 152.747Z" fill="#53514D"/>
<path d="M182.041 102.13H146.564V147.461H182.041V102.13Z" fill="#FAFAFA"/>
<path d="M165.378 148.895C166.543 150.418 164.841 152.21 163.228 151.045C162.064 149.522 163.766 147.73 165.378 148.895Z" fill="black" fill-opacity="0.25"/>
<path d="M169.679 100.607H158.839C158.66 100.607 158.57 100.518 158.57 100.339C158.57 100.159 158.66 100.07 158.839 100.07H169.679C169.858 100.07 169.948 100.159 169.948 100.339C169.948 100.428 169.858 100.607 169.679 100.607Z" fill="black" fill-opacity="0.25"/>
<path d="M177.893 110.317H151.176V137.034H177.893V110.317Z" fill="#FAFAFA"/>
<path d="M177.892 137.034C177.892 137.034 177.892 136.972 177.892 136.91C177.892 136.786 177.892 136.662 177.892 136.538C177.892 136.167 177.892 135.733 177.892 135.113C177.892 133.811 177.892 132.013 177.83 129.658C177.83 125.008 177.768 118.314 177.768 110.379L177.892 110.503C170.144 110.503 160.969 110.503 151.175 110.503C151.113 110.565 151.485 110.193 151.361 110.317V110.379V110.503V110.751V111.185V112.115C151.361 112.734 151.361 113.354 151.361 113.912C151.361 115.09 151.361 116.33 151.361 117.508C151.361 119.863 151.361 122.157 151.361 124.389C151.361 128.852 151.361 133.129 151.361 136.972L151.237 136.848C159.233 136.848 165.866 136.91 170.516 136.91C172.871 136.91 174.669 136.91 175.971 136.972C176.59 136.972 177.086 136.972 177.396 136.972C177.582 136.972 177.644 136.972 177.768 136.972C177.83 136.972 177.83 137.034 177.892 137.034C177.892 137.034 177.83 137.034 177.768 137.034C177.706 137.034 177.582 137.034 177.396 137.034C177.086 137.034 176.59 137.034 175.971 137.034C174.731 137.034 172.871 137.034 170.577 137.096C165.866 137.096 159.171 137.158 151.175 137.158H151.051V137.034C151.051 133.129 151.051 128.914 151.051 124.451C151.051 122.219 151.051 119.925 151.051 117.57C151.051 116.392 151.051 115.214 151.051 113.974C151.051 113.354 151.051 112.796 151.051 112.177V111.247V110.813V110.565V110.441V110.379C150.927 110.503 151.237 110.193 151.237 110.193C161.031 110.193 170.144 110.193 177.954 110.193H178.078V110.317C178.078 118.314 178.016 125.008 178.016 129.72C178.016 132.013 178.016 133.873 177.954 135.113C177.954 135.733 177.954 136.167 177.954 136.538C177.954 136.662 177.954 136.786 177.954 136.91C177.892 136.972 177.892 137.034 177.892 137.034Z" fill="black" fill-opacity="0.5"/>
<path d="M171.073 120.918L167.664 116.702C167.478 116.454 167.106 116.516 166.982 116.826L166.424 118.252C160.473 116.454 157.188 121.661 157.188 121.661L159.481 123.273C161.961 119.43 165.494 120.67 165.494 120.67L164.998 121.909C164.874 122.219 165.122 122.529 165.432 122.467L170.763 121.599C171.135 121.538 171.259 121.166 171.073 120.918Z" fill="#FF9123"/>
<path d="M171.073 120.918L167.664 116.702C167.478 116.454 167.106 116.516 166.982 116.826L166.424 118.252C160.473 116.454 157.188 121.661 157.188 121.661L159.481 123.273C161.961 119.43 165.494 120.67 165.494 120.67L164.998 121.909C164.874 122.219 165.122 122.529 165.432 122.467L170.763 121.599C171.135 121.538 171.259 121.166 171.073 120.918Z" fill="url(#paint6_linear_588_3403)" fill-opacity="0.5"/>
<path d="M169.895 125.939C167.601 129.286 164.564 128.605 163.944 128.357L164.626 126.745C164.688 126.621 164.564 126.497 164.44 126.497L158.303 127.303C158.179 127.303 158.117 127.489 158.179 127.613L161.898 132.51C161.96 132.634 162.146 132.572 162.208 132.448L162.952 130.712C168.779 132.572 172.126 127.551 172.126 127.551L169.895 125.939Z" fill="#FF9123"/>
<path d="M169.895 125.939C167.601 129.286 164.564 128.605 163.944 128.357L164.626 126.745C164.688 126.621 164.564 126.497 164.44 126.497L158.303 127.303C158.179 127.303 158.117 127.489 158.179 127.613L161.898 132.51C161.96 132.634 162.146 132.572 162.208 132.448L162.952 130.712C168.779 132.572 172.126 127.551 172.126 127.551L169.895 125.939Z" fill="url(#paint7_linear_588_3403)" fill-opacity="0.5"/>
<path d="M164.439 113.23C171.8 113.23 177.767 113.147 177.767 113.044C177.767 112.942 171.8 112.858 164.439 112.858C157.078 112.858 151.111 112.942 151.111 113.044C151.111 113.147 157.078 113.23 164.439 113.23Z" fill="black" fill-opacity="0.5"/>
<path d="M152.289 111.929C152.426 111.929 152.537 111.818 152.537 111.681C152.537 111.544 152.426 111.433 152.289 111.433C152.152 111.433 152.041 111.544 152.041 111.681C152.041 111.818 152.152 111.929 152.289 111.929Z" fill="black" fill-opacity="0.5"/>
<path d="M153.033 111.929C153.17 111.929 153.281 111.818 153.281 111.681C153.281 111.544 153.17 111.433 153.033 111.433C152.896 111.433 152.785 111.544 152.785 111.681C152.785 111.818 152.896 111.929 153.033 111.929Z" fill="black" fill-opacity="0.5"/>
<path d="M153.777 111.929C153.914 111.929 154.025 111.818 154.025 111.681C154.025 111.544 153.914 111.433 153.777 111.433C153.64 111.433 153.529 111.544 153.529 111.681C153.529 111.818 153.64 111.929 153.777 111.929Z" fill="black" fill-opacity="0.5"/>
<path d="M410.401 161.706H401.084V314.184H410.401V161.706Z" fill="#86837F"/>
<path d="M149.075 161.706H139.758V314.184H149.075V161.706Z" fill="#86837F"/>
<path d="M462.183 152.389H100.518V161.706H462.183V152.389Z" fill="#86837F"/>
<path d="M401.085 161.706H296.805V187.865H401.085V161.706Z" fill="#86837F"/>
<path d="M421.062 162.422C421.062 162.512 349.302 162.512 260.79 162.333C172.277 162.154 100.518 161.885 100.518 161.795C100.518 161.706 172.277 161.706 260.79 161.885C349.302 162.064 421.062 162.243 421.062 162.422Z" fill="#263238"/>
<path d="M303.165 187.865C303.314 187.865 303.434 182.049 303.434 174.875C303.434 167.701 303.314 161.885 303.165 161.885C303.017 161.885 302.896 167.701 302.896 174.875C302.896 182.049 303.017 187.865 303.165 187.865Z" fill="black" fill-opacity="0.5"/>
<path d="M393.917 182.938C393.917 183.028 373.581 183.028 348.407 182.938C323.233 182.848 302.896 182.58 302.896 182.49C302.896 182.4 323.233 182.4 348.407 182.49C373.491 182.58 393.917 182.759 393.917 182.938Z" fill="black" fill-opacity="0.5"/>
<path d="M393.917 187.955C394.066 187.955 394.186 182.46 394.186 175.681C394.186 168.903 394.066 163.408 393.917 163.408C393.769 163.408 393.648 168.903 393.648 175.681C393.648 182.46 393.769 187.955 393.917 187.955Z" fill="black" fill-opacity="0.5"/>
<path d="M401.532 212.144C401.443 212.144 401.264 201.035 401.264 187.418C401.264 173.8 401.353 162.691 401.532 162.691C401.712 162.691 401.801 173.8 401.801 187.418C401.801 201.035 401.712 212.144 401.532 212.144Z" fill="#263238"/>
<path d="M349.75 173.084C351.63 173.084 353.154 171.559 353.154 169.679C353.154 167.799 351.63 166.275 349.75 166.275C347.87 166.275 346.346 167.799 346.346 169.679C346.346 171.559 347.87 173.084 349.75 173.084Z" fill="black" fill-opacity="0.5"/>
<path d="M473.472 89.0499L474.726 98.7254L489.418 86.1831L497.481 88.154C497.481 88.154 489.239 105.534 482.61 112.432C476.07 119.331 472.576 120.316 470.068 120.406C466.663 120.585 465.14 116.464 465.14 116.464L463.617 92.5438L473.472 89.0499Z" fill="#FFBE9D"/>
<path d="M474.636 98.4565C474.546 98.4565 474.008 99.442 473.561 100.875C473.202 102.309 473.113 103.473 473.202 103.473C473.292 103.473 473.471 102.309 473.919 100.965C474.277 99.6212 474.725 98.5461 474.636 98.4565Z" fill="#874232"/>
<path d="M490.762 61.8154H501.781C503.483 61.8154 504.916 63.7864 504.379 65.3093L493.27 86.9896C492.822 87.7958 492.016 88.3334 491.03 88.3334H477.503C475.98 88.1542 475.353 86.452 476.069 85.4666L486.82 64.2343C487.536 62.7113 489.149 61.8154 490.762 61.8154Z" fill="#35332F"/>
<path d="M491.567 63.0698H502.586C503.93 63.0698 504.826 64.5032 504.199 65.7575L493.359 86.9897C492.911 87.796 492.104 88.3335 491.119 88.3335H477.77C476.964 88.3335 476.427 87.4377 476.785 86.721L487.536 65.4887C488.342 64.0553 489.865 63.0698 491.567 63.0698Z" fill="#494743"/>
<path d="M492.465 71.939L499.185 74.6266L500.618 80.0914L497.393 88.1543L485.478 89.8565L488.972 86.273L488.524 83.1374C488.524 83.1374 485.209 82.0624 485.119 81.6144C485.03 81.0769 485.567 79.3747 486.015 79.2851C486.553 79.1956 490.047 80.5394 490.047 80.5394C490.047 80.5394 485.926 77.3142 486.015 76.7767C486.105 76.2392 486.553 74.8954 487.359 74.8058C488.165 74.6266 494.795 77.7622 494.795 77.7622L495.87 80.181L496.855 76.2392C496.945 76.3288 491.032 74.6266 492.465 71.939Z" fill="#FFBE9D"/>
<path d="M491.66 84.6606C491.66 84.6606 491.839 84.3918 491.929 84.0335C492.018 83.5855 491.929 82.9584 491.75 82.3313C491.481 81.7042 491.123 81.1667 490.764 80.8979C490.406 80.6291 490.137 80.5396 490.137 80.5396C490.048 80.6291 490.943 81.2563 491.391 82.4209C491.75 83.5855 491.571 84.6606 491.66 84.6606Z" fill="#874232"/>
<path d="M494.795 83.4957C494.795 83.4957 494.616 82.8686 494.526 81.704C494.437 81.1664 494.437 80.4497 494.168 79.733C494.078 79.3747 493.81 79.0163 493.541 78.658C493.272 78.2996 492.824 78.1205 492.466 77.9413C490.853 77.3142 489.42 76.8662 488.345 76.5079C487.27 76.1495 486.643 75.9704 486.643 76.0599C486.643 76.1495 487.27 76.3287 488.255 76.7766C489.33 77.135 490.764 77.6725 492.287 78.2996C492.645 78.4788 493.003 78.658 493.272 78.9267C493.541 79.1955 493.72 79.5539 493.81 79.8226C494.078 80.4497 494.078 81.1664 494.168 81.704C494.437 82.8686 494.795 83.4957 494.795 83.4957Z" fill="#874232"/>
<path d="M496.002 80.9745C496.123 81.7067 496.3 82.2873 496.398 82.2711C496.495 82.255 496.477 81.6484 496.356 80.9161C496.235 80.1839 496.058 79.6034 495.96 79.6195C495.862 79.6356 495.881 80.2423 496.002 80.9745Z" fill="#874232"/>
<path d="M495.152 68.6241C495.944 68.6241 496.586 67.9824 496.586 67.1907C496.586 66.3991 495.944 65.7573 495.152 65.7573C494.361 65.7573 493.719 66.3991 493.719 67.1907C493.719 67.9824 494.361 68.6241 495.152 68.6241Z" fill="#FAFAFA" fill-opacity="0.5"/>
<path d="M496.494 309.077L493.896 300.029L476.785 300.925L479.383 314.273H480.458C485.206 314.273 504.647 314.004 507.782 312.84C511.276 311.586 496.494 309.077 496.494 309.077Z" fill="#FF9123"/>
<path d="M496.494 309.077L493.896 300.029L476.785 300.925L479.383 314.273H480.458C485.206 314.273 504.647 314.004 507.782 312.84C511.276 311.586 496.494 309.077 496.494 309.077Z" fill="url(#paint8_linear_588_3403)" fill-opacity="0.5"/>
<g opacity="0.4">
<g opacity="0.4">
<g opacity="0.4">
<g opacity="0.4">
<g opacity="0.4">
<g opacity="0.4">
<path d="M485.655 313.825C485.297 312.392 484.49 311.138 483.236 310.242C482.072 309.436 479.921 309.167 478.398 309.346L479.384 314.005L485.655 313.825Z" fill="#FF9123"/>
<path d="M485.655 313.825C485.297 312.392 484.49 311.138 483.236 310.242C482.072 309.436 479.921 309.167 478.398 309.346L479.384 314.005L485.655 313.825Z" fill="url(#paint9_linear_588_3403)" fill-opacity="0.5"/>
</g>
</g>
</g>
</g>
</g>
</g>
<g opacity="0.4">
<g opacity="0.4">
<g opacity="0.4">
<g opacity="0.4">
<path d="M503.751 310.6C503.751 310.6 508.947 311.765 508.32 312.661C507.693 313.556 488.073 314.542 479.383 314.273V313.915L502.317 312.929C502.317 312.929 502.676 310.69 503.751 310.6Z" fill="#FF9123"/>
<path d="M503.751 310.6C503.751 310.6 508.947 311.765 508.32 312.661C507.693 313.556 488.073 314.542 479.383 314.273V313.915L502.317 312.929C502.317 312.929 502.676 310.69 503.751 310.6Z" fill="url(#paint10_linear_588_3403)" fill-opacity="0.5"/>
</g>
</g>
</g>
</g>
<path d="M479.115 313.915C479.115 313.915 479.205 313.915 479.384 313.915C479.653 313.915 479.922 313.915 480.28 313.915C481.176 313.915 482.161 313.915 483.415 313.915C486.103 313.826 489.687 313.736 493.718 313.557C497.749 313.378 501.423 313.109 504.021 312.84C505.275 312.75 506.26 312.661 507.156 312.571C507.514 312.571 507.783 312.482 507.962 312.482C508.142 312.482 508.231 312.482 508.231 312.392C508.231 312.392 508.142 312.392 507.962 312.392C507.694 312.392 507.425 312.392 507.156 312.482C506.35 312.571 505.275 312.661 504.021 312.75C501.423 312.93 497.749 313.198 493.718 313.378C489.687 313.557 486.013 313.736 483.415 313.826C482.161 313.826 481.176 313.915 480.28 313.915C479.922 313.915 479.653 313.915 479.384 313.915C479.205 313.915 479.115 313.915 479.115 313.915Z" fill="#FF9123"/>
<path d="M479.115 313.915C479.115 313.915 479.205 313.915 479.384 313.915C479.653 313.915 479.922 313.915 480.28 313.915C481.176 313.915 482.161 313.915 483.415 313.915C486.103 313.826 489.687 313.736 493.718 313.557C497.749 313.378 501.423 313.109 504.021 312.84C505.275 312.75 506.26 312.661 507.156 312.571C507.514 312.571 507.783 312.482 507.962 312.482C508.142 312.482 508.231 312.482 508.231 312.392C508.231 312.392 508.142 312.392 507.962 312.392C507.694 312.392 507.425 312.392 507.156 312.482C506.35 312.571 505.275 312.661 504.021 312.75C501.423 312.93 497.749 313.198 493.718 313.378C489.687 313.557 486.013 313.736 483.415 313.826C482.161 313.826 481.176 313.915 480.28 313.915C479.922 313.915 479.653 313.915 479.384 313.915C479.205 313.915 479.115 313.915 479.115 313.915Z" fill="url(#paint11_linear_588_3403)" fill-opacity="0.5"/>
<path d="M502.318 313.198C502.407 313.198 502.407 312.482 502.855 311.675C503.303 310.869 503.93 310.511 503.841 310.421C503.841 310.331 503.124 310.69 502.676 311.586C502.139 312.392 502.228 313.198 502.318 313.198Z" fill="#FF9123"/>
<path d="M502.318 313.198C502.407 313.198 502.407 312.482 502.855 311.675C503.303 310.869 503.93 310.511 503.841 310.421C503.841 310.331 503.124 310.69 502.676 311.586C502.139 312.392 502.228 313.198 502.318 313.198Z" fill="url(#paint12_linear_588_3403)" fill-opacity="0.5"/>
<path d="M497.404 310.114C497.185 310.502 497.043 310.837 497.086 310.861C497.129 310.885 497.341 310.59 497.56 310.202C497.778 309.814 497.92 309.48 497.877 309.456C497.834 309.431 497.622 309.726 497.404 310.114Z" fill="#FF9123"/>
<path d="M497.404 310.114C497.185 310.502 497.043 310.837 497.086 310.861C497.129 310.885 497.341 310.59 497.56 310.202C497.778 309.814 497.92 309.48 497.877 309.456C497.834 309.431 497.622 309.726 497.404 310.114Z" fill="url(#paint13_linear_588_3403)" fill-opacity="0.5"/>
<path d="M496.085 309.627C495.805 309.907 495.606 310.162 495.641 310.197C495.676 310.232 495.932 310.034 496.212 309.754C496.492 309.474 496.69 309.219 496.655 309.184C496.62 309.149 496.365 309.348 496.085 309.627Z" fill="#FF9123"/>
<path d="M496.085 309.627C495.805 309.907 495.606 310.162 495.641 310.197C495.676 310.232 495.932 310.034 496.212 309.754C496.492 309.474 496.69 309.219 496.655 309.184C496.62 309.149 496.365 309.348 496.085 309.627Z" fill="url(#paint14_linear_588_3403)" fill-opacity="0.5"/>
<path d="M495.631 308.531C495.136 308.552 494.737 308.609 494.739 308.658C494.741 308.707 495.144 308.731 495.638 308.71C496.132 308.69 496.532 308.633 496.529 308.583C496.527 308.534 496.125 308.511 495.631 308.531Z" fill="#FF9123"/>
<path d="M495.631 308.531C495.136 308.552 494.737 308.609 494.739 308.658C494.741 308.707 495.144 308.731 495.638 308.71C496.132 308.69 496.532 308.633 496.529 308.583C496.527 308.534 496.125 308.511 495.631 308.531Z" fill="url(#paint15_linear_588_3403)" fill-opacity="0.5"/>
<path d="M494.344 307.464C494.344 307.554 494.792 307.733 495.329 307.733C495.956 307.733 496.404 307.554 496.315 307.554C496.315 307.464 495.867 307.554 495.329 307.554C494.792 307.464 494.344 307.464 494.344 307.464Z" fill="#FF9123"/>
<path d="M494.344 307.464C494.344 307.554 494.792 307.733 495.329 307.733C495.956 307.733 496.404 307.554 496.315 307.554C496.315 307.464 495.867 307.554 495.329 307.554C494.792 307.464 494.344 307.464 494.344 307.464Z" fill="url(#paint16_linear_588_3403)" fill-opacity="0.5"/>
<path d="M497.57 309.346C497.57 309.346 498.018 309.435 498.645 309.256C499.004 309.167 499.362 309.077 499.81 308.898C499.989 308.808 500.258 308.719 500.437 308.629C500.527 308.539 500.616 308.45 500.706 308.271C500.706 308.092 500.616 307.912 500.527 307.823C499.452 307.375 498.377 308.002 498.018 308.539C497.839 308.808 497.749 309.077 497.66 309.256C497.66 309.435 497.66 309.525 497.66 309.525C497.66 309.525 497.749 309.077 498.108 308.539C498.287 308.271 498.645 308.002 499.004 307.912C499.362 307.733 499.9 307.733 500.348 307.912C500.527 308.002 500.437 308.271 500.258 308.36C500.079 308.45 499.81 308.539 499.631 308.629C499.183 308.808 498.825 308.898 498.466 308.987C498.018 309.256 497.57 309.256 497.57 309.346Z" fill="#FF9123"/>
<path d="M497.57 309.346C497.57 309.346 498.018 309.435 498.645 309.256C499.004 309.167 499.362 309.077 499.81 308.898C499.989 308.808 500.258 308.719 500.437 308.629C500.527 308.539 500.616 308.45 500.706 308.271C500.706 308.092 500.616 307.912 500.527 307.823C499.452 307.375 498.377 308.002 498.018 308.539C497.839 308.808 497.749 309.077 497.66 309.256C497.66 309.435 497.66 309.525 497.66 309.525C497.66 309.525 497.749 309.077 498.108 308.539C498.287 308.271 498.645 308.002 499.004 307.912C499.362 307.733 499.9 307.733 500.348 307.912C500.527 308.002 500.437 308.271 500.258 308.36C500.079 308.45 499.81 308.539 499.631 308.629C499.183 308.808 498.825 308.898 498.466 308.987C498.018 309.256 497.57 309.256 497.57 309.346Z" fill="url(#paint17_linear_588_3403)" fill-opacity="0.5"/>
<path d="M497.927 309.346C497.927 309.346 498.106 309.077 498.017 308.54C498.017 308.271 497.837 308.002 497.658 307.733C497.479 307.465 497.21 307.196 496.673 307.196C496.404 307.285 496.314 307.554 496.314 307.733C496.314 307.913 496.404 308.092 496.494 308.181C496.673 308.45 496.852 308.629 497.031 308.808C497.39 309.167 497.658 309.256 497.658 309.256C497.658 309.256 497.39 309.077 497.121 308.719C496.942 308.54 496.762 308.36 496.583 308.092C496.404 307.823 496.314 307.465 496.583 307.375C496.852 307.375 497.121 307.554 497.3 307.823C497.479 308.092 497.569 308.271 497.658 308.54C497.927 309.077 497.837 309.346 497.927 309.346Z" fill="#FF9123"/>
<path d="M497.927 309.346C497.927 309.346 498.106 309.077 498.017 308.54C498.017 308.271 497.837 308.002 497.658 307.733C497.479 307.465 497.21 307.196 496.673 307.196C496.404 307.285 496.314 307.554 496.314 307.733C496.314 307.913 496.404 308.092 496.494 308.181C496.673 308.45 496.852 308.629 497.031 308.808C497.39 309.167 497.658 309.256 497.658 309.256C497.658 309.256 497.39 309.077 497.121 308.719C496.942 308.54 496.762 308.36 496.583 308.092C496.404 307.823 496.314 307.465 496.583 307.375C496.852 307.375 497.121 307.554 497.3 307.823C497.479 308.092 497.569 308.271 497.658 308.54C497.927 309.077 497.837 309.346 497.927 309.346Z" fill="url(#paint18_linear_588_3403)" fill-opacity="0.5"/>
<path d="M479.205 309.166C479.205 309.166 479.653 309.077 480.459 309.166C481.266 309.256 482.341 309.435 483.326 310.152C484.312 310.869 484.939 311.765 485.207 312.481C485.476 313.198 485.566 313.735 485.566 313.735C485.566 313.735 485.566 313.646 485.566 313.377C485.566 313.198 485.476 312.84 485.297 312.481C485.028 311.765 484.401 310.689 483.416 309.973C482.43 309.256 481.266 308.987 480.459 308.987C480.101 308.987 479.743 308.987 479.474 309.077C479.295 309.166 479.205 309.166 479.205 309.166Z" fill="#FF9123"/>
<path d="M479.205 309.166C479.205 309.166 479.653 309.077 480.459 309.166C481.266 309.256 482.341 309.435 483.326 310.152C484.312 310.869 484.939 311.765 485.207 312.481C485.476 313.198 485.566 313.735 485.566 313.735C485.566 313.735 485.566 313.646 485.566 313.377C485.566 313.198 485.476 312.84 485.297 312.481C485.028 311.765 484.401 310.689 483.416 309.973C482.43 309.256 481.266 308.987 480.459 308.987C480.101 308.987 479.743 308.987 479.474 309.077C479.295 309.166 479.205 309.166 479.205 309.166Z" fill="url(#paint19_linear_588_3403)" fill-opacity="0.5"/>
<path d="M480.882 305.502C480.803 303.525 480.698 301.923 480.649 301.925C480.599 301.927 480.624 303.532 480.703 305.51C480.783 307.487 480.888 309.089 480.937 309.087C480.987 309.085 480.962 307.48 480.882 305.502Z" fill="#FF9123"/>
<path d="M480.882 305.502C480.803 303.525 480.698 301.923 480.649 301.925C480.599 301.927 480.624 303.532 480.703 305.51C480.783 307.487 480.888 309.089 480.937 309.087C480.987 309.085 480.962 307.48 480.882 305.502Z" fill="url(#paint20_linear_588_3403)" fill-opacity="0.5"/>
<path d="M487.715 312.034C487.715 312.123 488.879 312.213 490.223 312.123C491.657 312.034 492.732 311.854 492.732 311.765C492.732 311.675 491.567 311.854 490.223 311.854C488.79 312.034 487.715 311.944 487.715 312.034Z" fill="#FF9123"/>
<path d="M487.715 312.034C487.715 312.123 488.879 312.213 490.223 312.123C491.657 312.034 492.732 311.854 492.732 311.765C492.732 311.675 491.567 311.854 490.223 311.854C488.79 312.034 487.715 311.944 487.715 312.034Z" fill="url(#paint21_linear_588_3403)" fill-opacity="0.5"/>
<path d="M484.311 312.213C484.311 312.213 484.4 312.482 484.579 312.661C484.669 312.929 484.759 313.109 484.848 313.109C484.938 313.109 484.938 312.84 484.758 312.571C484.579 312.302 484.311 312.123 484.311 312.213Z" fill="#FF9123"/>
<path d="M484.311 312.213C484.311 312.213 484.4 312.482 484.579 312.661C484.669 312.929 484.759 313.109 484.848 313.109C484.938 313.109 484.938 312.84 484.758 312.571C484.579 312.302 484.311 312.123 484.311 312.213Z" fill="url(#paint22_linear_588_3403)" fill-opacity="0.5"/>
<path d="M483.381 310.891C483.199 310.724 483.023 310.618 482.99 310.655C482.957 310.692 483.078 310.856 483.261 311.023C483.444 311.19 483.619 311.295 483.652 311.258C483.685 311.222 483.564 311.057 483.381 310.891Z" fill="#FF9123"/>
<path d="M483.381 310.891C483.199 310.724 483.023 310.618 482.99 310.655C482.957 310.692 483.078 310.856 483.261 311.023C483.444 311.19 483.619 311.295 483.652 311.258C483.685 311.222 483.564 311.057 483.381 310.891Z" fill="url(#paint23_linear_588_3403)" fill-opacity="0.5"/>
<path d="M481.086 310.063C481.086 310.152 481.355 310.063 481.623 310.152C481.892 310.242 482.071 310.332 482.071 310.332C482.071 310.332 481.982 310.063 481.623 309.973C481.355 309.884 481.086 309.973 481.086 310.063Z" fill="#FF9123"/>
<path d="M481.086 310.063C481.086 310.152 481.355 310.063 481.623 310.152C481.892 310.242 482.071 310.332 482.071 310.332C482.071 310.332 481.982 310.063 481.623 309.973C481.355 309.884 481.086 309.973 481.086 310.063Z" fill="url(#paint24_linear_588_3403)" fill-opacity="0.5"/>
<path d="M480.021 309.788C479.88 309.742 479.753 309.743 479.738 309.79C479.722 309.837 479.824 309.913 479.965 309.959C480.106 310.005 480.233 310.004 480.249 309.957C480.264 309.91 480.162 309.835 480.021 309.788Z" fill="#FF9123"/>
<path d="M480.021 309.788C479.88 309.742 479.753 309.743 479.738 309.79C479.722 309.837 479.824 309.913 479.965 309.959C480.106 310.005 480.233 310.004 480.249 309.957C480.264 309.91 480.162 309.835 480.021 309.788Z" fill="url(#paint25_linear_588_3403)" fill-opacity="0.5"/>
<path d="M490.672 285.157L495.061 277.094L480.011 268.763L473.471 280.499L474.367 281.036C478.398 283.545 495.061 293.578 498.287 294.295C501.96 295.101 490.672 285.157 490.672 285.157Z" fill="#FF9123"/>
<path d="M490.672 285.157L495.061 277.094L480.011 268.763L473.471 280.499L474.367 281.036C478.398 283.545 495.061 293.578 498.287 294.295C501.96 295.101 490.672 285.157 490.672 285.157Z" fill="url(#paint26_linear_588_3403)" fill-opacity="0.5"/>
<g opacity="0.4">
<g opacity="0.4">
<g opacity="0.4">
<g opacity="0.4">
<g opacity="0.4">
<g opacity="0.4">
<path d="M479.025 283.366C479.473 282.022 479.473 280.409 478.846 279.066C478.309 277.722 477.234 276.647 475.89 276.02L473.561 280.23L479.025 283.366Z" fill="#FF9123"/>
<path d="M479.025 283.366C479.473 282.022 479.473 280.409 478.846 279.066C478.309 277.722 477.234 276.647 475.89 276.02L473.561 280.23L479.025 283.366Z" fill="url(#paint27_linear_588_3403)" fill-opacity="0.5"/>
</g>
</g>
</g>
</g>
</g>
</g>
<g opacity="0.4">
<g opacity="0.4">
<g opacity="0.4">
<g opacity="0.4">
<path d="M496.046 290.264C496.046 290.264 499.809 294.026 498.824 294.474C497.838 294.922 480.637 285.426 473.381 280.498L473.56 280.14L493.538 291.428C493.628 291.428 495.151 289.816 496.046 290.264Z" fill="#FF9123"/>
<path d="M496.046 290.264C496.046 290.264 499.809 294.026 498.824 294.474C497.838 294.922 480.637 285.426 473.381 280.498L473.56 280.14L493.538 291.428C493.628 291.428 495.151 289.816 496.046 290.264Z" fill="url(#paint28_linear_588_3403)" fill-opacity="0.5"/>
</g>
</g>
</g>
</g>
<path d="M473.471 280.051C473.471 280.051 473.56 280.14 473.739 280.23C473.919 280.409 474.187 280.499 474.456 280.678C475.173 281.126 476.069 281.663 477.144 282.29C479.383 283.634 482.609 285.516 486.103 287.487C489.596 289.457 492.911 291.16 495.24 292.324C496.316 292.862 497.301 293.31 498.018 293.758C498.286 293.937 498.555 294.026 498.824 294.116C499.003 294.206 499.093 294.206 499.093 294.206C499.093 294.206 499.003 294.116 498.824 294.026C498.555 293.937 498.376 293.758 498.107 293.668C497.391 293.31 496.405 292.772 495.33 292.235C493.001 290.98 489.776 289.278 486.192 287.307C482.698 285.336 479.473 283.545 477.233 282.201C476.158 281.574 475.262 281.036 474.546 280.588C474.277 280.409 474.008 280.32 473.829 280.14C473.56 280.051 473.471 280.051 473.471 280.051Z" fill="#FF9123"/>
<path d="M473.471 280.051C473.471 280.051 473.56 280.14 473.739 280.23C473.919 280.409 474.187 280.499 474.456 280.678C475.173 281.126 476.069 281.663 477.144 282.29C479.383 283.634 482.609 285.516 486.103 287.487C489.596 289.457 492.911 291.16 495.24 292.324C496.316 292.862 497.301 293.31 498.018 293.758C498.286 293.937 498.555 294.026 498.824 294.116C499.003 294.206 499.093 294.206 499.093 294.206C499.093 294.206 499.003 294.116 498.824 294.026C498.555 293.937 498.376 293.758 498.107 293.668C497.391 293.31 496.405 292.772 495.33 292.235C493.001 290.98 489.776 289.278 486.192 287.307C482.698 285.336 479.473 283.545 477.233 282.201C476.158 281.574 475.262 281.036 474.546 280.588C474.277 280.409 474.008 280.32 473.829 280.14C473.56 280.051 473.471 280.051 473.471 280.051Z" fill="url(#paint29_linear_588_3403)" fill-opacity="0.5"/>
<path d="M493.539 291.697C493.628 291.697 493.987 291.07 494.793 290.712C495.599 290.264 496.316 290.264 496.316 290.174C496.316 290.085 495.51 290.085 494.703 290.533C493.807 290.891 493.449 291.608 493.539 291.697Z" fill="#FF9123"/>
<path d="M493.539 291.697C493.628 291.697 493.987 291.07 494.793 290.712C495.599 290.264 496.316 290.264 496.316 290.174C496.316 290.085 495.51 290.085 494.703 290.533C493.807 290.891 493.449 291.608 493.539 291.697Z" fill="url(#paint30_linear_588_3403)" fill-opacity="0.5"/>
<path d="M491.068 286.471C490.677 286.685 490.38 286.893 490.403 286.936C490.427 286.98 490.763 286.842 491.154 286.628C491.545 286.414 491.842 286.206 491.818 286.163C491.795 286.119 491.459 286.257 491.068 286.471Z" fill="#FF9123"/>
<path d="M491.068 286.471C490.677 286.685 490.38 286.893 490.403 286.936C490.427 286.98 490.763 286.842 491.154 286.628C491.545 286.414 491.842 286.206 491.818 286.163C491.795 286.119 491.459 286.257 491.068 286.471Z" fill="url(#paint31_linear_588_3403)" fill-opacity="0.5"/>
<path d="M490.181 285.434C489.796 285.523 489.492 285.635 489.503 285.683C489.514 285.731 489.836 285.698 490.222 285.609C490.607 285.52 490.911 285.408 490.9 285.36C490.889 285.312 490.567 285.345 490.181 285.434Z" fill="#FF9123"/>
<path d="M490.181 285.434C489.796 285.523 489.492 285.635 489.503 285.683C489.514 285.731 489.836 285.698 490.222 285.609C490.607 285.52 490.911 285.408 490.9 285.36C490.889 285.312 490.567 285.345 490.181 285.434Z" fill="url(#paint32_linear_588_3403)" fill-opacity="0.5"/>
<path d="M490.325 284.145C489.894 283.901 489.526 283.738 489.501 283.781C489.477 283.824 489.806 284.057 490.236 284.301C490.667 284.545 491.035 284.708 491.06 284.665C491.084 284.622 490.755 284.389 490.325 284.145Z" fill="#FF9123"/>
<path d="M490.325 284.145C489.894 283.901 489.526 283.738 489.501 283.781C489.477 283.824 489.806 284.057 490.236 284.301C490.667 284.545 491.035 284.708 491.06 284.665C491.084 284.622 490.755 284.389 490.325 284.145Z" fill="url(#paint33_linear_588_3403)" fill-opacity="0.5"/>
<path d="M489.775 282.649C489.775 282.649 490.044 283.097 490.492 283.365C490.94 283.724 491.478 283.813 491.478 283.724C491.478 283.634 491.119 283.455 490.582 283.186C490.134 282.918 489.775 282.559 489.775 282.649Z" fill="#FF9123"/>
<path d="M489.775 282.649C489.775 282.649 490.044 283.097 490.492 283.365C490.94 283.724 491.478 283.813 491.478 283.724C491.478 283.634 491.119 283.455 490.582 283.186C490.134 282.918 489.775 282.559 489.775 282.649Z" fill="url(#paint34_linear_588_3403)" fill-opacity="0.5"/>
<path d="M491.566 285.874C491.566 285.874 491.925 286.143 492.552 286.411C492.91 286.501 493.269 286.68 493.716 286.77C493.985 286.77 494.164 286.859 494.433 286.859C494.523 286.859 494.702 286.859 494.881 286.68C494.971 286.591 494.971 286.322 494.971 286.232C494.344 285.247 493.089 285.247 492.462 285.516C492.104 285.695 491.925 285.874 491.746 285.964C491.656 286.143 491.566 286.232 491.566 286.232C491.566 286.232 491.835 285.874 492.462 285.605C492.731 285.516 493.179 285.426 493.627 285.516C493.985 285.605 494.523 285.874 494.702 286.232C494.792 286.411 494.612 286.591 494.433 286.591C494.254 286.591 493.985 286.591 493.716 286.501C493.269 286.411 492.91 286.322 492.552 286.232C491.925 286.053 491.566 285.874 491.566 285.874Z" fill="#FF9123"/>
<path d="M491.566 285.874C491.566 285.874 491.925 286.143 492.552 286.411C492.91 286.501 493.269 286.68 493.716 286.77C493.985 286.77 494.164 286.859 494.433 286.859C494.523 286.859 494.702 286.859 494.881 286.68C494.971 286.591 494.971 286.322 494.971 286.232C494.344 285.247 493.089 285.247 492.462 285.516C492.104 285.695 491.925 285.874 491.746 285.964C491.656 286.143 491.566 286.232 491.566 286.232C491.566 286.232 491.835 285.874 492.462 285.605C492.731 285.516 493.179 285.426 493.627 285.516C493.985 285.605 494.523 285.874 494.702 286.232C494.792 286.411 494.612 286.591 494.433 286.591C494.254 286.591 493.985 286.591 493.716 286.501C493.269 286.411 492.91 286.322 492.552 286.232C491.925 286.053 491.566 285.874 491.566 285.874Z" fill="url(#paint35_linear_588_3403)" fill-opacity="0.5"/>
<path d="M491.746 286.143C491.746 286.143 492.015 285.964 492.194 285.516C492.284 285.247 492.373 284.978 492.284 284.62C492.194 284.351 492.194 283.903 491.746 283.724C491.477 283.634 491.298 283.814 491.209 283.993C491.119 284.172 491.119 284.351 491.119 284.53C491.119 284.889 491.209 285.157 491.209 285.337C491.477 285.785 491.657 286.053 491.746 286.143C491.746 286.053 491.567 285.785 491.477 285.337C491.388 285.068 491.388 284.799 491.388 284.53C491.388 284.262 491.477 283.814 491.746 283.903C492.015 283.993 492.105 284.351 492.194 284.709C492.194 284.978 492.194 285.247 492.105 285.516C492.015 285.874 491.746 286.053 491.746 286.143Z" fill="#FF9123"/>
<path d="M491.746 286.143C491.746 286.143 492.015 285.964 492.194 285.516C492.284 285.247 492.373 284.978 492.284 284.62C492.194 284.351 492.194 283.903 491.746 283.724C491.477 283.634 491.298 283.814 491.209 283.993C491.119 284.172 491.119 284.351 491.119 284.53C491.119 284.889 491.209 285.157 491.209 285.337C491.477 285.785 491.657 286.053 491.746 286.143C491.746 286.053 491.567 285.785 491.477 285.337C491.388 285.068 491.388 284.799 491.388 284.53C491.388 284.262 491.477 283.814 491.746 283.903C492.015 283.993 492.105 284.351 492.194 284.709C492.194 284.978 492.194 285.247 492.105 285.516C492.015 285.874 491.746 286.053 491.746 286.143Z" fill="url(#paint36_linear_588_3403)" fill-opacity="0.5"/>
<path d="M476.068 276.109C476.068 276.109 476.516 276.288 477.143 276.736C477.77 277.184 478.577 277.99 479.025 279.065C479.473 280.14 479.473 281.305 479.383 282.021C479.294 282.828 479.025 283.276 479.114 283.276C479.114 283.276 479.204 283.186 479.294 283.007C479.383 282.828 479.473 282.469 479.562 282.111C479.741 281.305 479.741 280.14 479.294 278.975C478.846 277.811 477.95 277.005 477.323 276.557C476.964 276.377 476.695 276.198 476.516 276.109C476.158 276.109 476.068 276.019 476.068 276.109Z" fill="#FF9123"/>
<path d="M476.068 276.109C476.068 276.109 476.516 276.288 477.143 276.736C477.77 277.184 478.577 277.99 479.025 279.065C479.473 280.14 479.473 281.305 479.383 282.021C479.294 282.828 479.025 283.276 479.114 283.276C479.114 283.276 479.204 283.186 479.294 283.007C479.383 282.828 479.473 282.469 479.562 282.111C479.741 281.305 479.741 280.14 479.294 278.975C478.846 277.811 477.95 277.005 477.323 276.557C476.964 276.377 476.695 276.198 476.516 276.109C476.158 276.109 476.068 276.019 476.068 276.109Z" fill="url(#paint37_linear_588_3403)" fill-opacity="0.5"/>
<path d="M479.345 273.743C480.324 272.023 481.082 270.609 481.039 270.584C480.996 270.56 480.168 271.934 479.189 273.654C478.21 275.374 477.451 276.788 477.494 276.813C477.537 276.837 478.365 275.463 479.345 273.743Z" fill="#FF9123"/>
<path d="M479.345 273.743C480.324 272.023 481.082 270.609 481.039 270.584C480.996 270.56 480.168 271.934 479.189 273.654C478.21 275.374 477.451 276.788 477.494 276.813C477.537 276.837 478.365 275.463 479.345 273.743Z" fill="url(#paint38_linear_588_3403)" fill-opacity="0.5"/>
<path d="M481.713 283.007C481.713 283.007 482.609 283.724 483.773 284.441C485.028 285.157 486.013 285.516 486.103 285.516C486.103 285.426 485.117 284.978 483.863 284.261C482.698 283.545 481.713 282.918 481.713 283.007Z" fill="#FF9123"/>
<path d="M481.713 283.007C481.713 283.007 482.609 283.724 483.773 284.441C485.028 285.157 486.013 285.516 486.103 285.516C486.103 285.426 485.117 284.978 483.863 284.261C482.698 283.545 481.713 282.918 481.713 283.007Z" fill="url(#paint39_linear_588_3403)" fill-opacity="0.5"/>
<path d="M478.756 281.305C478.667 281.305 478.756 281.574 478.667 281.843C478.667 282.111 478.577 282.38 478.667 282.38C478.756 282.38 478.846 282.201 478.936 281.843C478.936 281.574 478.846 281.305 478.756 281.305Z" fill="#FF9123"/>
<path d="M478.756 281.305C478.667 281.305 478.756 281.574 478.667 281.843C478.667 282.111 478.577 282.38 478.667 282.38C478.756 282.38 478.846 282.201 478.936 281.843C478.936 281.574 478.846 281.305 478.756 281.305Z" fill="url(#paint40_linear_588_3403)" fill-opacity="0.5"/>
<path d="M478.647 279.773C478.58 279.535 478.487 279.352 478.44 279.366C478.392 279.379 478.408 279.583 478.475 279.821C478.541 280.059 478.634 280.242 478.682 280.228C478.73 280.215 478.714 280.011 478.647 279.773Z" fill="#FF9123"/>
<path d="M478.647 279.773C478.58 279.535 478.487 279.352 478.44 279.366C478.392 279.379 478.408 279.583 478.475 279.821C478.541 280.059 478.634 280.242 478.682 280.228C478.73 280.215 478.714 280.011 478.647 279.773Z" fill="url(#paint41_linear_588_3403)" fill-opacity="0.5"/>
<path d="M477.145 277.811C477.145 277.901 477.324 277.99 477.503 278.169C477.682 278.349 477.772 278.617 477.861 278.528C477.951 278.528 477.951 278.259 477.682 277.99C477.413 277.811 477.145 277.721 477.145 277.811Z" fill="#FF9123"/>
<path d="M477.145 277.811C477.145 277.901 477.324 277.99 477.503 278.169C477.682 278.349 477.772 278.617 477.861 278.528C477.951 278.528 477.951 278.259 477.682 277.99C477.413 277.811 477.145 277.721 477.145 277.811Z" fill="url(#paint42_linear_588_3403)" fill-opacity="0.5"/>
<path d="M476.446 277.042C476.35 276.928 476.242 276.862 476.204 276.893C476.166 276.925 476.213 277.043 476.308 277.157C476.403 277.271 476.511 277.338 476.549 277.306C476.587 277.274 476.541 277.156 476.446 277.042Z" fill="#FF9123"/>
<path d="M476.446 277.042C476.35 276.928 476.242 276.862 476.204 276.893C476.166 276.925 476.213 277.043 476.308 277.157C476.403 277.271 476.511 277.338 476.549 277.306C476.587 277.274 476.541 277.156 476.446 277.042Z" fill="url(#paint43_linear_588_3403)" fill-opacity="0.5"/>
<path d="M464.603 123.093L511.995 188.761C518.893 198.347 520.595 210.8 516.295 221.908L493.898 280.409L472.935 269.569L491.211 212.591L455.376 180.25L450.09 123.093H464.603Z" fill="#53514D"/>
<path d="M474.815 309.346L497.571 306.121L476.786 213.398L462.452 123.093L424.467 123.272L419.002 149.701C417.479 157.137 418.554 164.841 422.048 171.56L442.385 210.979C442.205 213.398 474.815 309.346 474.815 309.346Z" fill="#494743"/>
<path d="M497.302 207.395C497.392 207.485 495.869 208.56 494.257 210.173C492.644 211.695 491.39 213.129 491.3 213.039C491.211 212.95 492.286 211.427 493.898 209.814C495.6 208.202 497.213 207.306 497.302 207.395Z" fill="#455A64"/>
<path d="M494.843 212.625C497.251 212.342 499.189 211.993 499.171 211.845C499.154 211.698 497.188 211.808 494.78 212.091C492.372 212.374 490.434 212.724 490.451 212.871C490.469 213.018 492.435 212.908 494.843 212.625Z" fill="#455A64"/>
<path d="M461.467 56.6191C461.467 56.6191 469.44 58.9484 472.396 68.6239C475.353 78.2993 478.847 88.2436 478.847 88.2436L466.036 91.6479L461.467 56.6191Z" fill="#FF9123"/>
<path d="M461.467 56.6191C461.467 56.6191 469.44 58.9484 472.396 68.6239C475.353 78.2993 478.847 88.2436 478.847 88.2436L466.036 91.6479L461.467 56.6191Z" fill="url(#paint44_linear_588_3403)" fill-opacity="0.5"/>
<path d="M468.902 78.5683C469.529 80.8976 470.156 83.3165 470.246 85.6458C470.335 89.498 468.544 93.2607 466.125 96.3067C466.125 96.3067 466.125 96.3963 466.035 96.3963L464.602 123.093L424.377 123.273L424.108 111.895L421.421 89.498L418.823 96.665L400.457 84.7499L404.22 75.7015C405.743 71.8493 407.982 67.2803 410.491 64.2343C413.985 60.0237 418.912 57.2465 424.287 55.9923C428.14 55.0964 431.902 54.6484 431.902 54.6484L448.655 54.8276C452.507 54.8276 461.556 56.5298 461.556 56.5298L468.902 78.5683Z" fill="#FF9123"/>
<path d="M468.902 78.5683C469.529 80.8976 470.156 83.3165 470.246 85.6458C470.335 89.498 468.544 93.2607 466.125 96.3067C466.125 96.3067 466.125 96.3963 466.035 96.3963L464.602 123.093L424.377 123.273L424.108 111.895L421.421 89.498L418.823 96.665L400.457 84.7499L404.22 75.7015C405.743 71.8493 407.982 67.2803 410.491 64.2343C413.985 60.0237 418.912 57.2465 424.287 55.9923C428.14 55.0964 431.902 54.6484 431.902 54.6484L448.655 54.8276C452.507 54.8276 461.556 56.5298 461.556 56.5298L468.902 78.5683Z" fill="url(#paint45_linear_588_3403)" fill-opacity="0.5"/>
<path d="M464.332 99.4421C464.332 99.4421 464.601 99.1734 465.049 98.6358C465.497 98.0983 466.124 97.292 466.751 96.217C468.095 94.1565 469.439 90.8417 469.797 87.079C470.155 83.2268 469.349 79.8224 468.363 77.4932C467.916 76.3285 467.468 75.4327 467.109 74.8055C466.751 74.1784 466.482 73.9097 466.482 73.9097C466.393 73.9993 467.199 75.2535 468.005 77.5828C468.811 79.912 469.528 83.2268 469.259 86.9895C468.901 90.6625 467.647 93.8877 466.482 96.0378C465.318 98.1879 464.332 99.3525 464.332 99.4421Z" fill="black" fill-opacity="0.25"/>
<path d="M432.35 100.876C432.35 100.876 432.618 100.965 433.156 101.055C433.693 101.144 434.41 101.234 435.306 101.144C437.098 101.055 439.696 100.607 442.204 99.1735C444.623 97.7401 446.415 95.7692 447.4 94.2462C447.848 93.4399 448.207 92.8128 448.386 92.3649C448.565 91.9169 448.655 91.6482 448.655 91.5586C448.565 91.5586 448.117 92.5441 447.132 94.067C446.146 95.5005 444.354 97.3818 442.025 98.7256C439.696 100.069 437.187 100.607 435.396 100.786C433.425 100.965 432.35 100.786 432.35 100.876Z" fill="black" fill-opacity="0.25"/>
<path d="M419.359 57.7842C419.359 57.8738 419.897 57.8738 420.793 58.0529C421.689 58.2321 422.943 58.7696 424.197 59.8447C425.451 60.9197 426.616 62.4427 427.333 64.5033C428.049 66.4742 428.139 68.893 427.781 71.4015C427.422 73.8204 426.526 76.1496 425.72 78.1206C424.824 80.0915 424.018 81.8833 423.301 83.4062C422.585 84.9292 422.047 86.0939 421.778 86.9897C421.42 87.8856 421.33 88.3336 421.33 88.3336C421.33 88.3336 421.599 87.8856 421.957 87.0793C422.316 86.273 422.943 85.0188 423.66 83.5854C424.376 82.152 425.272 80.3603 426.168 78.3893C427.064 76.4184 427.87 74.0891 428.318 71.5807C428.676 69.0722 428.587 66.5638 427.781 64.4137C426.974 62.3532 425.72 60.651 424.376 59.6655C423.032 58.5905 421.689 58.1425 420.793 57.9634C420.345 57.8738 419.986 57.8738 419.718 57.8738C419.539 57.7842 419.359 57.7842 419.359 57.7842Z" fill="black" fill-opacity="0.25"/>
<path d="M454.659 3.6731C456.719 1.523 460.303 1.34382 462.901 2.86681C465.409 4.3898 466.932 7.34619 467.291 10.3026C467.559 12.1839 467.38 14.1548 468.276 15.7674C469.262 17.4696 471.232 18.4551 472.576 19.8885C474.637 22.1281 474.995 25.6221 473.562 28.2201C472.755 29.6535 471.412 30.9973 471.77 32.6099C472.218 34.3121 474.189 34.8496 475.443 36.1038C477.235 37.9851 476.966 40.9415 476.429 43.45C476.16 44.6146 475.801 45.8689 474.816 46.4064C474.01 46.8543 473.024 46.6751 472.128 46.5856C466.395 45.7793 460.572 47.0335 454.748 47.3023C448.925 47.6606 442.654 46.8543 438.443 42.8229" fill="#494743"/>
<path d="M453.851 56.7088L453.762 46.3166C453.762 46.3166 461.197 45.0624 462.72 35.3869C463.527 30.5492 463.258 22.6655 462.81 16.2152C462.452 10.392 458.599 3.04581 450.895 3.13539C450.895 3.13539 433.963 1.88117 433.156 14.8714L432.798 56.7088C432.709 62.532 437.546 67.3697 443.369 67.2801C449.282 67.1905 453.941 62.4424 453.851 56.7088Z" fill="#FFBE9D"/>
<path d="M453.852 46.3167C453.852 46.3167 447.312 46.7646 440.861 42.8228C440.861 42.8228 443.997 49.4522 453.762 48.5564L453.852 46.3167Z" fill="#874232" fill-opacity="0.2"/>
<path d="M440.234 32.5202C440.324 33.7744 440.324 34.9391 440.324 35.9245C440.234 39.0601 438.532 41.8373 435.845 43.3603C433.694 44.5249 431.544 45.3312 429.125 45.5104C426.527 45.6 424.019 44.8833 421.6 43.9874C417.479 42.554 413.358 40.9414 409.327 39.1497C408.699 38.8809 408.072 38.6122 407.804 37.985C407.445 37.3579 407.714 36.5516 407.893 35.9245C408.431 34.0432 409.058 32.2514 409.595 30.3701C409.954 29.295 410.222 28.22 410.85 27.3241C411.477 26.3386 412.283 25.5324 413.358 25.3532C414.254 25.174 415.15 25.2636 416.046 24.9948C416.942 24.6365 417.658 23.8302 418.017 22.9343C418.375 22.0384 418.554 21.053 418.733 20.0675C419.181 18.007 420.167 15.8569 422.048 14.961C423.123 14.4235 424.377 14.4235 425.452 13.9756C426.975 13.3484 428.14 11.915 428.857 10.3921C429.663 8.86907 430.2 7.34608 431.186 5.91267C431.903 4.83762 432.888 3.94175 434.053 3.49381C434.68 2.95628 435.307 2.41876 436.024 2.06041C439.249 0.268655 443.101 0.44783 446.774 0.537417C450.358 0.716593 458.421 -2.68774 458.958 6.71896C457.883 5.55432 455.375 5.10639 454.21 7.1669C453.404 8.6003 453.135 9.58577 453.404 11.1983C453.672 12.8109 453.852 14.5131 453.045 15.8569C452.149 17.2903 450.358 17.8278 448.745 17.7382C447.133 17.6487 445.61 16.932 444.087 16.2153C444.087 16.2153 442.922 22.3968 438.801 23.8302L440.234 32.5202Z" fill="#494743"/>
<path d="M413.18 40.5833C413.18 40.5833 412.911 40.5833 412.552 40.225C412.194 39.9562 411.925 39.2395 412.104 38.3436C412.284 37.4477 413.18 36.731 414.344 36.3727C415.509 35.9247 417.032 36.0143 418.555 35.2976C419.271 34.9393 419.988 34.2226 420.347 33.4163C420.794 32.61 420.974 31.6245 421.063 30.7287C421.332 28.8473 421.153 26.6972 422.138 24.9055C422.586 24.0096 423.482 23.3825 424.468 22.9345C425.453 22.5762 426.618 22.397 427.693 22.2178C428.857 22.1283 430.022 21.9491 431.187 21.5907C432.351 21.2324 433.605 20.6053 434.322 19.4406C435.039 18.276 435.128 16.9322 435.128 15.7675C435.128 14.6029 435.128 13.3487 435.666 12.4528C436.114 11.4673 437.189 11.0194 438.264 10.9298C439.339 10.8402 440.414 11.0194 441.4 11.2882C442.475 11.5569 443.46 11.7361 444.535 11.7361C445.61 11.7361 446.685 11.3777 447.402 10.661C448.119 9.94434 448.387 8.95888 448.477 8.063C448.567 7.16712 448.567 6.36084 448.746 5.55455C448.835 4.74826 449.015 4.03156 449.373 3.40444C449.731 2.77733 450.269 2.32939 450.806 2.06063C451.881 1.43352 453.046 1.52311 453.852 1.70228C454.659 1.97104 455.286 2.32939 455.644 2.68774C456.002 2.95651 456.182 3.22527 456.182 3.13568C456.182 3.13568 456.182 3.04609 456.092 2.95651C456.002 2.86692 455.913 2.68774 455.734 2.50857C455.375 2.15022 454.838 1.70228 453.942 1.43352C453.046 1.16475 451.881 1.07517 450.627 1.70228C450 1.97104 449.463 2.50857 449.015 3.13568C448.567 3.7628 448.387 4.56908 448.298 5.37537C448.208 6.18166 448.119 7.07754 448.029 7.88383C447.94 8.69011 447.671 9.58599 447.044 10.2131C446.417 10.8402 445.521 11.109 444.535 11.109C443.55 11.109 442.564 10.9298 441.489 10.661C440.414 10.3923 439.339 10.2131 438.174 10.3027C437.01 10.3923 435.756 10.9298 435.128 12.0944C433.964 14.4237 435.039 17.0218 433.785 19.0823C433.158 20.0677 432.083 20.6053 431.007 20.9636C429.932 21.322 428.768 21.4116 427.603 21.5907C426.438 21.7699 425.274 21.9491 424.199 22.3074C423.124 22.7554 422.138 23.4721 421.601 24.4575C420.526 26.518 420.705 28.6682 420.526 30.4599C420.347 32.2517 419.63 34.0434 418.286 34.7601C416.942 35.4768 415.419 35.4768 414.165 35.9247C412.911 36.2831 411.925 37.179 411.836 38.1644C411.657 39.1499 412.104 39.8666 412.463 40.1354C412.911 40.5833 413.18 40.5833 413.18 40.5833Z" fill="white" fill-opacity="0.1"/>
<path d="M471.053 47.0333C471.053 47.0333 471.232 46.9437 471.501 46.7645C471.77 46.4958 472.218 46.1374 472.576 45.5999C472.935 44.9728 473.382 44.1665 473.472 43.181C473.651 42.1956 473.562 40.9414 472.935 39.7767C472.397 38.6121 471.143 37.7162 470.157 36.8203C469.62 36.3724 469.172 35.7453 468.903 35.1182C468.634 34.4015 468.724 33.6848 468.993 32.9681C469.53 31.5347 470.784 30.2804 471.68 28.6678C472.487 27.0553 472.845 24.9948 472.039 23.1134C471.68 22.2175 470.874 21.4112 470.068 20.9633C469.261 20.4258 468.545 19.9778 468.007 19.3507C466.932 18.0069 466.574 16.3048 466.395 14.6922C466.215 13.0796 466.215 11.5566 466.036 10.0336C465.857 8.60022 465.499 7.16682 464.872 6.09177C464.245 5.01672 463.259 4.21043 462.274 3.85208C461.288 3.49373 460.392 3.58332 459.676 3.85208C459.048 4.12084 458.601 4.56878 458.421 4.92713C458.242 5.28548 458.153 5.46465 458.242 5.46465C458.332 5.55424 458.511 4.65837 459.765 4.12084C460.392 3.85208 461.288 3.85208 462.094 4.21043C462.99 4.56878 463.797 5.28548 464.424 6.36053C465.051 7.43558 465.32 8.68981 465.499 10.1232C465.678 11.5566 465.588 13.0796 465.768 14.7818C465.947 16.3943 466.305 18.2757 467.47 19.7091C468.097 20.4258 468.903 20.9633 469.62 21.4112C470.336 21.8592 471.053 22.4863 471.322 23.3822C472.039 24.9948 471.77 26.9657 470.964 28.4887C470.157 30.0117 468.903 31.2659 468.276 32.8785C467.918 33.6848 467.918 34.5806 468.186 35.3869C468.455 36.1932 468.993 36.8203 469.53 37.2683C470.605 38.2537 471.77 39.06 472.307 40.1351C472.845 41.2101 472.934 42.2852 472.845 43.2706C472.755 44.2561 472.397 44.9728 472.039 45.5999C471.77 46.5854 471.053 46.9437 471.053 47.0333Z" fill="white" fill-opacity="0.1"/>
<path d="M458.689 98.0086L452.955 92.4542C451.432 91.3791 449.641 91.0208 447.759 91.3791C446.057 91.7375 444.534 92.723 443.549 94.0668L437.188 103.115L412.551 107.326C412.551 107.326 417.479 96.2169 417.568 95.7689L418.106 96.1273L417.568 95.7689L402.249 85.8247L395.53 102.219C395.53 102.219 389.259 118.972 402.159 123.81C414.97 128.648 444.534 112.701 444.534 112.701V112.611L448.297 109.834L450.089 108.311C451.343 107.236 452.149 105.713 452.328 104.011L452.955 97.6503C452.955 97.6503 456.36 99.442 457.972 100.248C458.779 100.696 459.137 100.248 459.227 99.7108C459.406 99.1733 459.137 98.4566 458.689 98.0086Z" fill="#FFBE9D"/>
<path d="M452.955 98.2774C452.955 98.2774 452.865 98.0086 452.596 97.5607C452.328 97.2023 451.79 96.5752 451.073 96.3064C450.267 96.0377 449.461 96.3064 449.102 96.6648C448.744 97.0232 448.744 97.3815 448.744 97.3815C448.834 97.3815 448.923 97.1127 449.282 96.844C449.64 96.5752 450.267 96.396 450.984 96.5752C451.611 96.844 452.148 97.2919 452.417 97.6503C452.776 98.0086 452.955 98.2774 452.955 98.2774Z" fill="black" fill-opacity="0.25"/>
<path d="M448.654 100.607C448.654 100.607 448.923 100.517 449.192 100.248C449.55 100.069 449.998 99.8901 450.625 99.8901C451.163 99.8901 451.7 100.069 452.059 100.248C452.417 100.428 452.596 100.607 452.596 100.607C452.596 100.607 452.507 100.338 452.148 100.069C451.79 99.8005 451.252 99.5317 450.625 99.5317C449.998 99.5317 449.371 99.8005 449.102 100.069C448.744 100.338 448.654 100.607 448.654 100.607Z" fill="black" fill-opacity="0.25"/>
</g>
</g>
<defs>
<linearGradient id="paint0_linear_588_3403" x1="513.373" y1="26.3786" x2="514.642" y2="32.793" gradientUnits="userSpaceOnUse">
<stop stop-color="#FFCA00"/>
<stop offset="0.791667" stop-color="#FF9000"/>
</linearGradient>
<linearGradient id="paint1_linear_588_3403" x1="514.222" y1="34.914" x2="515.436" y2="41.1843" gradientUnits="userSpaceOnUse">
<stop stop-color="#FFCA00"/>
<stop offset="0.791667" stop-color="#FF9000"/>
</linearGradient>
<linearGradient id="paint2_linear_588_3403" x1="347.756" y1="108.688" x2="349.777" y2="118.857" gradientUnits="userSpaceOnUse">
<stop stop-color="#FFCA00"/>
<stop offset="0.791667" stop-color="#FF9000"/>
</linearGradient>
<linearGradient id="paint3_linear_588_3403" x1="349.154" y1="122.249" x2="351.127" y2="132.298" gradientUnits="userSpaceOnUse">
<stop stop-color="#FFCA00"/>
<stop offset="0.791667" stop-color="#FF9000"/>
</linearGradient>
<linearGradient id="paint4_linear_588_3403" x1="239.359" y1="82.0858" x2="241.653" y2="93.664" gradientUnits="userSpaceOnUse">
<stop stop-color="#FFCA00"/>
<stop offset="0.791667" stop-color="#FF9000"/>
</linearGradient>
<linearGradient id="paint5_linear_588_3403" x1="240.896" y1="97.6195" x2="243.146" y2="109.107" gradientUnits="userSpaceOnUse">
<stop stop-color="#FFCA00"/>
<stop offset="0.791667" stop-color="#FF9000"/>
</linearGradient>
<linearGradient id="paint6_linear_588_3403" x1="161.139" y1="117.025" x2="162.538" y2="124.061" gradientUnits="userSpaceOnUse">
<stop stop-color="#FFCA00"/>
<stop offset="0.791667" stop-color="#FF9000"/>
</linearGradient>
<linearGradient id="paint7_linear_588_3403" x1="162.106" y1="126.408" x2="163.471" y2="133.362" gradientUnits="userSpaceOnUse">
<stop stop-color="#FFCA00"/>
<stop offset="0.791667" stop-color="#FF9000"/>
</linearGradient>
<linearGradient id="paint8_linear_588_3403" x1="485.703" y1="301.036" x2="488.497" y2="316.01" gradientUnits="userSpaceOnUse">
<stop stop-color="#FFCA00"/>
<stop offset="0.791667" stop-color="#FF9000"/>
</linearGradient>
<linearGradient id="paint9_linear_588_3403" x1="480.451" y1="309.626" x2="481.733" y2="314.408" gradientUnits="userSpaceOnUse">
<stop stop-color="#FFCA00"/>
<stop offset="0.791667" stop-color="#FF9000"/>
</linearGradient>
<linearGradient id="paint10_linear_588_3403" x1="487.582" y1="310.863" x2="487.796" y2="314.896" gradientUnits="userSpaceOnUse">
<stop stop-color="#FFCA00"/>
<stop offset="0.791667" stop-color="#FF9000"/>
</linearGradient>
<linearGradient id="paint11_linear_588_3403" x1="487.35" y1="312.5" x2="487.386" y2="314.156" gradientUnits="userSpaceOnUse">
<stop stop-color="#FFCA00"/>
<stop offset="0.791667" stop-color="#FF9000"/>
</linearGradient>
<linearGradient id="paint12_linear_588_3403" x1="502.702" y1="310.605" x2="504.142" y2="312.603" gradientUnits="userSpaceOnUse">
<stop stop-color="#FFCA00"/>
<stop offset="0.791667" stop-color="#FF9000"/>
</linearGradient>
<linearGradient id="paint13_linear_588_3403" x1="497.72" y1="309.891" x2="497.547" y2="309.803" gradientUnits="userSpaceOnUse">
<stop stop-color="#FFCA00"/>
<stop offset="0.791667" stop-color="#FF9000"/>
</linearGradient>
<linearGradient id="paint14_linear_588_3403" x1="496.423" y1="309.525" x2="496.278" y2="309.395" gradientUnits="userSpaceOnUse">
<stop stop-color="#FFCA00"/>
<stop offset="0.791667" stop-color="#FF9000"/>
</linearGradient>
<linearGradient id="paint15_linear_588_3403" x1="496.026" y1="308.681" x2="496.01" y2="308.487" gradientUnits="userSpaceOnUse">
<stop stop-color="#FFCA00"/>
<stop offset="0.791667" stop-color="#FF9000"/>
</linearGradient>
<linearGradient id="paint16_linear_588_3403" x1="494.904" y1="307.483" x2="494.921" y2="307.775" gradientUnits="userSpaceOnUse">
<stop stop-color="#FFCA00"/>
<stop offset="0.791667" stop-color="#FF9000"/>
</linearGradient>
<linearGradient id="paint17_linear_588_3403" x1="498.457" y1="307.801" x2="498.922" y2="309.705" gradientUnits="userSpaceOnUse">
<stop stop-color="#FFCA00"/>
<stop offset="0.791667" stop-color="#FF9000"/>
</linearGradient>
<linearGradient id="paint18_linear_588_3403" x1="496.803" y1="307.348" x2="497.754" y2="309.198" gradientUnits="userSpaceOnUse">
<stop stop-color="#FFCA00"/>
<stop offset="0.791667" stop-color="#FF9000"/>
</linearGradient>
<linearGradient id="paint19_linear_588_3403" x1="481.004" y1="309.323" x2="482.458" y2="314.04" gradientUnits="userSpaceOnUse">
<stop stop-color="#FFCA00"/>
<stop offset="0.791667" stop-color="#FF9000"/>
</linearGradient>
<linearGradient id="paint20_linear_588_3403" x1="480.779" y1="307.064" x2="480.973" y2="307.055" gradientUnits="userSpaceOnUse">
<stop stop-color="#FFCA00"/>
<stop offset="0.791667" stop-color="#FF9000"/>
</linearGradient>
<linearGradient id="paint21_linear_588_3403" x1="489.134" y1="311.769" x2="489.15" y2="312.226" gradientUnits="userSpaceOnUse">
<stop stop-color="#FFCA00"/>
<stop offset="0.791667" stop-color="#FF9000"/>
</linearGradient>
<linearGradient id="paint22_linear_588_3403" x1="484.479" y1="312.254" x2="484.932" y2="312.966" gradientUnits="userSpaceOnUse">
<stop stop-color="#FFCA00"/>
<stop offset="0.791667" stop-color="#FF9000"/>
</linearGradient>
<linearGradient id="paint23_linear_588_3403" x1="483.413" y1="311.145" x2="483.532" y2="310.991" gradientUnits="userSpaceOnUse">
<stop stop-color="#FFCA00"/>
<stop offset="0.791667" stop-color="#FF9000"/>
</linearGradient>
<linearGradient id="paint24_linear_588_3403" x1="481.365" y1="309.964" x2="481.434" y2="310.383" gradientUnits="userSpaceOnUse">
<stop stop-color="#FFCA00"/>
<stop offset="0.791667" stop-color="#FF9000"/>
</linearGradient>
<linearGradient id="paint25_linear_588_3403" x1="480.08" y1="309.983" x2="480.115" y2="309.793" gradientUnits="userSpaceOnUse">
<stop stop-color="#FFCA00"/>
<stop offset="0.791667" stop-color="#FF9000"/>
</linearGradient>
<linearGradient id="paint26_linear_588_3403" x1="480.697" y1="270.571" x2="490.523" y2="294.334" gradientUnits="userSpaceOnUse">
<stop stop-color="#FFCA00"/>
<stop offset="0.791667" stop-color="#FF9000"/>
</linearGradient>
<linearGradient id="paint27_linear_588_3403" x1="475.196" y1="276.539" x2="478.484" y2="282.804" gradientUnits="userSpaceOnUse">
<stop stop-color="#FFCA00"/>
<stop offset="0.791667" stop-color="#FF9000"/>
</linearGradient>
<linearGradient id="paint28_linear_588_3403" x1="480.623" y1="281.155" x2="484.053" y2="295.971" gradientUnits="userSpaceOnUse">
<stop stop-color="#FFCA00"/>
<stop offset="0.791667" stop-color="#FF9000"/>
</linearGradient>
<linearGradient id="paint29_linear_588_3403" x1="480.717" y1="281.052" x2="484.057" y2="295.688" gradientUnits="userSpaceOnUse">
<stop stop-color="#FFCA00"/>
<stop offset="0.791667" stop-color="#FF9000"/>
</linearGradient>
<linearGradient id="paint30_linear_588_3403" x1="494.315" y1="290.238" x2="494.691" y2="291.859" gradientUnits="userSpaceOnUse">
<stop stop-color="#FFCA00"/>
<stop offset="0.791667" stop-color="#FF9000"/>
</linearGradient>
<linearGradient id="paint31_linear_588_3403" x1="491.455" y1="286.449" x2="491.354" y2="286.283" gradientUnits="userSpaceOnUse">
<stop stop-color="#FFCA00"/>
<stop offset="0.791667" stop-color="#FF9000"/>
</linearGradient>
<linearGradient id="paint32_linear_588_3403" x1="490.522" y1="285.526" x2="490.469" y2="285.339" gradientUnits="userSpaceOnUse">
<stop stop-color="#FFCA00"/>
<stop offset="0.791667" stop-color="#FF9000"/>
</linearGradient>
<linearGradient id="paint33_linear_588_3403" x1="490.581" y1="284.482" x2="490.67" y2="284.308" gradientUnits="userSpaceOnUse">
<stop stop-color="#FFCA00"/>
<stop offset="0.791667" stop-color="#FF9000"/>
</linearGradient>
<linearGradient id="paint34_linear_588_3403" x1="490.257" y1="282.714" x2="490.566" y2="283.85" gradientUnits="userSpaceOnUse">
<stop stop-color="#FFCA00"/>
<stop offset="0.791667" stop-color="#FF9000"/>
</linearGradient>
<linearGradient id="paint35_linear_588_3403" x1="492.529" y1="285.469" x2="492.815" y2="287.045" gradientUnits="userSpaceOnUse">
<stop stop-color="#FFCA00"/>
<stop offset="0.791667" stop-color="#FF9000"/>
</linearGradient>
<linearGradient id="paint36_linear_588_3403" x1="491.459" y1="283.873" x2="492.768" y2="285.432" gradientUnits="userSpaceOnUse">
<stop stop-color="#FFCA00"/>
<stop offset="0.791667" stop-color="#FF9000"/>
</linearGradient>
<linearGradient id="paint37_linear_588_3403" x1="477.088" y1="276.578" x2="480.937" y2="281.241" gradientUnits="userSpaceOnUse">
<stop stop-color="#FFCA00"/>
<stop offset="0.791667" stop-color="#FF9000"/>
</linearGradient>
<linearGradient id="paint38_linear_588_3403" x1="478.43" y1="275.013" x2="478.6" y2="275.108" gradientUnits="userSpaceOnUse">
<stop stop-color="#FFCA00"/>
<stop offset="0.791667" stop-color="#FF9000"/>
</linearGradient>
<linearGradient id="paint39_linear_588_3403" x1="482.954" y1="283.177" x2="483.568" y2="285.769" gradientUnits="userSpaceOnUse">
<stop stop-color="#FFCA00"/>
<stop offset="0.791667" stop-color="#FF9000"/>
</linearGradient>
<linearGradient id="paint40_linear_588_3403" x1="478.714" y1="281.381" x2="479.262" y2="281.762" gradientUnits="userSpaceOnUse">
<stop stop-color="#FFCA00"/>
<stop offset="0.791667" stop-color="#FF9000"/>
</linearGradient>
<linearGradient id="paint41_linear_588_3403" x1="478.539" y1="280.005" x2="478.721" y2="279.937" gradientUnits="userSpaceOnUse">
<stop stop-color="#FFCA00"/>
<stop offset="0.791667" stop-color="#FF9000"/>
</linearGradient>
<linearGradient id="paint42_linear_588_3403" x1="477.362" y1="277.83" x2="477.658" y2="278.546" gradientUnits="userSpaceOnUse">
<stop stop-color="#FFCA00"/>
<stop offset="0.791667" stop-color="#FF9000"/>
</linearGradient>
<linearGradient id="paint43_linear_588_3403" x1="476.393" y1="277.239" x2="476.523" y2="277.096" gradientUnits="userSpaceOnUse">
<stop stop-color="#FFCA00"/>
<stop offset="0.791667" stop-color="#FF9000"/>
</linearGradient>
<linearGradient id="paint44_linear_588_3403" x1="466.382" y1="59.0959" x2="485.119" y2="81.6034" gradientUnits="userSpaceOnUse">
<stop stop-color="#FFCA00"/>
<stop offset="0.791667" stop-color="#FF9000"/>
</linearGradient>
<linearGradient id="paint45_linear_588_3403" x1="420.196" y1="59.5006" x2="446.222" y2="123.583" gradientUnits="userSpaceOnUse">
<stop stop-color="#FFCA00"/>
<stop offset="0.791667" stop-color="#FF9000"/>
</linearGradient>
<clipPath id="clip0_588_3403">
<rect width="567" height="314.542" fill="white"/>
</clipPath>
<clipPath id="clip1_588_3403">
<rect width="567" height="314.542" fill="white"/>
</clipPath>
</defs>
</svg>
