<svg width="472" height="422" viewBox="0 0 472 422" fill="none" xmlns="http://www.w3.org/2000/svg">
<g clip-path="url(#clip0_604_2043)">
<path d="M347.109 366.67L410.35 245.602H397.397C394.984 245.602 393.714 242.81 395.238 240.97L462.605 158.925C465.526 155.372 471.304 157.593 471.05 162.225L466.288 242.493C466.034 247.061 461.97 250.488 457.335 249.98L448.319 248.965L385.587 384.754C383.936 388.308 380.444 390.528 376.507 390.528H354.792L347.109 366.67Z" fill="#FF9123"/>
<path d="M347.109 366.67L410.35 245.602H397.397C394.984 245.602 393.714 242.81 395.238 240.97L462.605 158.925C465.526 155.372 471.304 157.593 471.05 162.225L466.288 242.493C466.034 247.061 461.97 250.488 457.335 249.98L448.319 248.965L385.587 384.754C383.936 388.308 380.444 390.528 376.507 390.528H354.792L347.109 366.67Z" fill="url(#paint0_linear_604_2043)" fill-opacity="0.5"/>
<path d="M294.855 281.77L339.492 380.883C342.159 386.721 348 390.528 354.413 390.528H377.398C380.446 390.528 383.239 388.879 384.763 386.214L385.589 384.754C383.112 384.754 380.826 383.358 379.747 381.137L320.253 264.701L294.855 281.77Z" fill="#FF9123"/>
<path d="M294.855 281.77L339.492 380.883C342.159 386.721 348 390.528 354.413 390.528H377.398C380.446 390.528 383.239 388.879 384.763 386.214L385.589 384.754C383.112 384.754 380.826 383.358 379.747 381.137L320.253 264.701L294.855 281.77Z" fill="url(#paint1_linear_604_2043)" fill-opacity="0.5"/>
<path d="M326.284 276.44C321.84 272.887 315.3 273.965 312.125 278.661L246.472 377.267C241.202 385.135 232.376 389.894 222.852 389.894H213.646L206.09 368.257C206.09 368.257 267.108 274.79 282.854 260.64C282.854 260.64 298.537 246.554 313.966 257.214C318.03 260.006 321.141 264.067 323.046 268.635L326.284 276.44Z" fill="#F58719"/>
<path d="M326.284 276.44C321.84 272.887 315.3 273.965 312.125 278.661L246.472 377.267C241.202 385.135 232.376 389.894 222.852 389.894H213.646L206.09 368.257C206.09 368.257 267.108 274.79 282.854 260.64C282.854 260.64 298.537 246.554 313.966 257.214C318.03 260.006 321.141 264.067 323.046 268.635L326.284 276.44Z" fill="url(#paint2_linear_604_2043)" fill-opacity="0.5"/>
<path d="M134.723 310.07C134.723 310.07 145.707 296.364 166.978 294.207C166.978 294.207 177.073 297.633 197.201 333.738C217.328 369.78 230.726 386.277 246.409 377.267L245.139 379.424C240.885 386.531 233.139 390.846 224.884 390.846H216.186C206.661 390.846 197.645 386.277 192.058 378.536C176.438 356.708 144.374 313.433 134.723 310.07Z" fill="#FF9123"/>
<path d="M134.723 310.07C134.723 310.07 145.707 296.364 166.978 294.207C166.978 294.207 177.073 297.633 197.201 333.738C217.328 369.78 230.726 386.277 246.409 377.267L245.139 379.424C240.885 386.531 233.139 390.846 224.884 390.846H216.186C206.661 390.846 197.645 386.277 192.058 378.536C176.438 356.708 144.374 313.433 134.723 310.07Z" fill="url(#paint3_linear_604_2043)" fill-opacity="0.5"/>
<path opacity="0.63" d="M404.095 189.95C404.031 189.95 404.031 189.95 404.095 189.95C403.904 189.95 403.777 189.76 403.777 189.633L404.222 185.699C404.222 185.508 404.412 185.381 404.539 185.445C404.73 185.445 404.857 185.635 404.793 185.762L404.349 189.696C404.349 189.823 404.222 189.95 404.095 189.95Z" fill="white"/>
<path opacity="0.63" d="M347.839 239.443C347.775 239.443 347.712 239.443 347.648 239.38C347.521 239.253 347.458 239.062 347.585 238.935L403.206 166.662C403.777 165.901 404.73 165.647 405.555 166.028C406.444 166.409 406.888 167.17 406.825 168.122L405.809 176.815C405.809 177.005 405.618 177.132 405.491 177.069C405.301 177.069 405.174 176.878 405.237 176.751L406.19 168.122C406.253 167.36 405.809 166.853 405.301 166.662C404.857 166.472 404.158 166.472 403.65 167.107L348.029 239.316C348.029 239.38 347.902 239.443 347.839 239.443Z" fill="white"/>
<path opacity="0.63" d="M221.546 315.206C221.482 315.206 221.419 315.206 221.355 315.142C221.228 315.015 221.165 314.825 221.292 314.698L250.055 272.058C251.007 270.598 252.658 269.837 254.372 269.964C256.087 270.091 257.547 271.106 258.309 272.692C258.372 272.819 258.309 273.01 258.182 273.137C258.055 273.2 257.864 273.137 257.737 273.01C257.103 271.677 255.833 270.789 254.309 270.662C252.785 270.535 251.388 271.233 250.563 272.502L221.8 315.142C221.8 315.142 221.673 315.206 221.546 315.206Z" fill="white"/>
<path opacity="0.63" d="M214.116 326.247C214.053 326.247 213.989 326.247 213.926 326.183C213.799 326.056 213.735 325.866 213.862 325.739L215.704 323.011C215.83 322.884 216.021 322.82 216.148 322.947C216.275 323.074 216.338 323.264 216.211 323.391L214.37 326.12C214.307 326.183 214.18 326.247 214.116 326.247Z" fill="white"/>
<path d="M393.826 97.6862C398.772 119.823 383.214 141.24 360.651 143.299C342.002 145.049 324.693 132.488 320.572 114.16C315.627 92.0233 331.184 70.6069 353.748 68.5477C372.293 66.7973 389.705 79.4618 393.826 97.6862Z" fill="#FF9123"/>
<path d="M393.826 97.6862C398.772 119.823 383.214 141.24 360.651 143.299C342.002 145.049 324.693 132.488 320.572 114.16C315.627 92.0233 331.184 70.6069 353.748 68.5477C372.293 66.7973 389.705 79.4618 393.826 97.6862Z" fill="url(#paint4_linear_604_2043)" fill-opacity="0.5"/>
<path opacity="0.68" d="M324.178 95.9359C324.075 95.9359 323.972 95.9359 323.869 95.9359C323.559 95.8329 323.353 95.524 323.456 95.2151C327.578 82.4477 338.293 73.284 351.481 71.1217C353.541 70.8128 355.705 70.6069 357.868 70.7099C358.178 70.7099 358.487 71.0188 358.384 71.3277C358.384 71.6366 358.075 71.9454 357.765 71.8425C355.705 71.8425 353.644 71.9454 351.584 72.2543C338.808 74.3136 328.402 83.1684 324.487 95.524C324.59 95.8329 324.384 95.9359 324.178 95.9359Z" fill="white"/>
<path opacity="0.68" d="M389.295 100.57C392.901 119 379.817 136.504 361.065 138.254C344.993 139.798 330.053 128.575 326.962 112.719C323.356 94.2888 336.441 76.7851 355.193 75.0347C371.265 73.4902 386.204 84.6103 389.295 100.57Z" fill="white"/>
<path d="M358.693 130.428L358.178 127.03C354.572 127.442 350.966 127.133 348.287 126.516C347.36 126.31 346.742 125.383 346.845 124.353L347.257 121.059C347.36 119.823 348.596 118.999 349.73 119.308C352.408 119.926 355.602 120.338 358.899 119.72C362.299 119.205 364.669 117.661 364.36 115.19C364.051 113.027 361.887 112.101 356.839 111.586C349.73 110.762 344.372 108.6 343.445 102.628C342.62 97.2742 345.917 92.4349 352.614 90.2727L351.893 86.8749C351.687 85.7423 352.511 84.7127 353.542 84.6097L355.499 84.3008C356.633 84.0949 357.663 84.9186 357.766 85.9482L358.281 89.0371C361.578 88.6253 364.051 88.8312 366.111 89.243C367.142 89.449 367.863 90.3756 367.76 91.4053L367.451 94.4942C367.348 95.6267 366.214 96.4504 365.081 96.2445C363.226 95.8327 360.651 95.5238 357.457 96.0386C353.439 96.6564 352.511 98.5097 352.717 100.054C353.026 101.907 355.705 102.834 361.166 103.555C369.099 104.585 372.705 107.262 373.632 112.925C374.457 118.073 371.366 123.324 364.051 125.692L364.669 129.502C364.875 130.634 364.051 131.664 363.02 131.767L361.063 132.076C359.929 132.282 358.899 131.561 358.693 130.428Z" fill="#FF9123"/>
<path d="M358.693 130.428L358.178 127.03C354.572 127.442 350.966 127.133 348.287 126.516C347.36 126.31 346.742 125.383 346.845 124.353L347.257 121.059C347.36 119.823 348.596 118.999 349.73 119.308C352.408 119.926 355.602 120.338 358.899 119.72C362.299 119.205 364.669 117.661 364.36 115.19C364.051 113.027 361.887 112.101 356.839 111.586C349.73 110.762 344.372 108.6 343.445 102.628C342.62 97.2742 345.917 92.4349 352.614 90.2727L351.893 86.8749C351.687 85.7423 352.511 84.7127 353.542 84.6097L355.499 84.3008C356.633 84.0949 357.663 84.9186 357.766 85.9482L358.281 89.0371C361.578 88.6253 364.051 88.8312 366.111 89.243C367.142 89.449 367.863 90.3756 367.76 91.4053L367.451 94.4942C367.348 95.6267 366.214 96.4504 365.081 96.2445C363.226 95.8327 360.651 95.5238 357.457 96.0386C353.439 96.6564 352.511 98.5097 352.717 100.054C353.026 101.907 355.705 102.834 361.166 103.555C369.099 104.585 372.705 107.262 373.632 112.925C374.457 118.073 371.366 123.324 364.051 125.692L364.669 129.502C364.875 130.634 364.051 131.664 363.02 131.767L361.063 132.076C359.929 132.282 358.899 131.561 358.693 130.428Z" fill="url(#paint5_linear_604_2043)" fill-opacity="0.5"/>
<path d="M298.011 104.07C302.441 123.839 288.532 142.887 268.338 144.843C251.648 146.388 236.193 135.165 232.587 118.794C228.157 99.0246 242.066 79.9765 262.26 78.0202C278.847 76.4757 294.405 87.8016 298.011 104.07Z" fill="#FF9123"/>
<path d="M298.011 104.07C302.441 123.839 288.532 142.887 268.338 144.843C251.648 146.388 236.193 135.165 232.587 118.794C228.157 99.0246 242.066 79.9765 262.26 78.0202C278.847 76.4757 294.405 87.8016 298.011 104.07Z" fill="url(#paint6_linear_604_2043)" fill-opacity="0.5"/>
<path opacity="0.68" d="M235.885 102.525C235.782 102.525 235.679 102.525 235.576 102.525C235.267 102.422 235.06 102.114 235.164 101.805C238.873 90.3758 248.454 82.1387 260.303 80.2854C262.157 79.9765 264.115 79.8735 265.969 79.8735C266.279 79.8735 266.588 80.1824 266.485 80.4913C266.485 80.8002 266.176 81.1091 265.866 81.0061C264.012 81.0061 262.157 81.1091 260.406 81.418C248.97 83.2713 239.697 91.1995 236.194 102.114C236.297 102.422 236.091 102.525 235.885 102.525Z" fill="white"/>
<path opacity="0.68" d="M293.785 105.305C297.906 122.397 285.852 138.871 268.337 140.313C254.531 141.342 241.858 132.179 238.561 118.69C234.44 101.599 246.494 85.1245 264.01 83.683C277.815 82.6534 290.488 91.92 293.785 105.305Z" fill="white"/>
<path d="M266.688 133.312L266.173 130.223C262.979 130.635 259.682 130.326 257.312 129.708C256.488 129.502 255.87 128.678 255.973 127.752L256.282 124.766C256.385 123.633 257.415 122.912 258.549 123.221C260.918 123.839 263.803 124.148 266.688 123.633C269.779 123.118 271.84 121.78 271.531 119.617C271.221 117.661 269.264 116.837 264.834 116.323C258.446 115.602 253.706 113.646 252.882 108.292C252.161 103.452 255.046 99.2308 261.021 97.2745L260.506 94.1856C260.3 93.156 261.021 92.3323 262.052 92.1263L263.803 91.8174C264.834 91.6115 265.658 92.3323 265.864 93.3619L266.276 96.1419C269.264 95.833 271.427 95.936 273.282 96.2449C274.209 96.4508 274.827 97.2745 274.724 98.2012L274.415 100.981C274.312 102.011 273.282 102.732 272.252 102.526C270.603 102.217 268.234 101.908 265.452 102.32C261.846 102.937 261.021 104.585 261.228 105.923C261.537 107.571 263.803 108.394 268.852 109.115C275.961 110.042 279.155 112.41 279.979 117.455C280.7 122.089 277.918 126.722 271.428 128.884L271.943 132.282C272.149 133.312 271.428 134.135 270.397 134.341L268.646 134.65C267.821 134.959 266.894 134.341 266.688 133.312Z" fill="#FF9123"/>
<path d="M266.688 133.312L266.173 130.223C262.979 130.635 259.682 130.326 257.312 129.708C256.488 129.502 255.87 128.678 255.973 127.752L256.282 124.766C256.385 123.633 257.415 122.912 258.549 123.221C260.918 123.839 263.803 124.148 266.688 123.633C269.779 123.118 271.84 121.78 271.531 119.617C271.221 117.661 269.264 116.837 264.834 116.323C258.446 115.602 253.706 113.646 252.882 108.292C252.161 103.452 255.046 99.2308 261.021 97.2745L260.506 94.1856C260.3 93.156 261.021 92.3323 262.052 92.1263L263.803 91.8174C264.834 91.6115 265.658 92.3323 265.864 93.3619L266.276 96.1419C269.264 95.833 271.427 95.936 273.282 96.2449C274.209 96.4508 274.827 97.2745 274.724 98.2012L274.415 100.981C274.312 102.011 273.282 102.732 272.252 102.526C270.603 102.217 268.234 101.908 265.452 102.32C261.846 102.937 261.021 104.585 261.228 105.923C261.537 107.571 263.803 108.394 268.852 109.115C275.961 110.042 279.155 112.41 279.979 117.455C280.7 122.089 277.918 126.722 271.428 128.884L271.943 132.282C272.149 133.312 271.428 134.135 270.397 134.341L268.646 134.65C267.821 134.959 266.894 134.341 266.688 133.312Z" fill="url(#paint7_linear_604_2043)" fill-opacity="0.5"/>
<path d="M354.157 26.0241C358.484 45.4841 344.884 64.2234 325.103 66.0768C308.721 67.6212 293.575 56.6042 289.969 40.5419C285.642 21.0819 299.242 2.44558 319.024 0.489278C335.302 -1.05517 350.551 10.0648 354.157 26.0241Z" fill="#FF9123"/>
<path d="M354.157 26.0241C358.484 45.4841 344.884 64.2234 325.103 66.0768C308.721 67.6212 293.575 56.6042 289.969 40.5419C285.642 21.0819 299.242 2.44558 319.024 0.489278C335.302 -1.05517 350.551 10.0648 354.157 26.0241Z" fill="url(#paint8_linear_604_2043)" fill-opacity="0.5"/>
<path opacity="0.68" d="M293.162 24.5823C293.059 24.5823 292.956 24.5823 292.853 24.5823C292.544 24.4793 292.338 24.1705 292.441 23.8616C296.047 12.6386 305.526 4.60747 317.065 2.75414C318.92 2.44525 320.774 2.34229 322.629 2.34229C322.938 2.34229 323.247 2.65117 323.144 2.96006C323.144 3.26895 322.835 3.57784 322.526 3.47488C320.774 3.47488 318.92 3.57784 317.168 3.88673C305.938 5.6371 296.871 13.4623 293.471 24.2734C293.574 24.3764 293.368 24.5823 293.162 24.5823Z" fill="white"/>
<path opacity="0.68" d="M349.935 27.362C353.954 44.145 342.105 60.3102 325.002 61.7517C311.505 62.7813 298.936 53.7206 295.845 40.5413C291.827 23.7583 303.675 7.59312 320.778 6.15164C334.275 5.01905 346.742 14.1828 349.935 27.362Z" fill="white"/>
<path d="M323.348 54.7506L322.833 51.7647C319.742 52.1765 316.445 51.8676 314.178 51.2498C313.354 51.0439 312.839 50.2202 312.942 49.3965L313.251 46.5135C313.354 45.4839 314.384 44.7632 315.415 44.9691C317.784 45.5869 320.566 45.7928 323.451 45.3809C326.439 44.8661 328.499 43.5276 328.19 41.4683C327.881 39.615 326.027 38.6883 321.596 38.2765C315.415 37.5557 310.675 35.7024 309.851 30.4513C309.13 25.715 312.015 21.5965 317.887 19.6402L317.372 16.6542C317.269 15.7276 317.887 14.8009 318.815 14.595L320.566 14.2861C321.493 14.1831 322.421 14.8009 322.627 15.7276L323.039 18.4046C325.924 18.0957 328.087 18.1987 329.839 18.5076C330.766 18.7135 331.384 19.5372 331.281 20.4639L330.972 23.1409C330.869 24.1705 329.839 24.8913 328.911 24.6854C327.263 24.3765 324.996 24.0676 322.215 24.5824C318.608 25.0972 317.887 26.7446 318.093 28.0831C318.402 29.7306 320.669 30.4513 325.511 31.172C332.414 32.0987 335.608 34.4669 336.433 39.4091C337.154 43.9395 334.475 48.5728 328.087 50.6321L328.602 54.0298C328.705 54.9565 328.087 55.8832 327.16 56.0891L325.408 56.398C324.378 56.398 323.554 55.7802 323.348 54.7506Z" fill="#FF9123"/>
<path d="M323.348 54.7506L322.833 51.7647C319.742 52.1765 316.445 51.8676 314.178 51.2498C313.354 51.0439 312.839 50.2202 312.942 49.3965L313.251 46.5135C313.354 45.4839 314.384 44.7632 315.415 44.9691C317.784 45.5869 320.566 45.7928 323.451 45.3809C326.439 44.8661 328.499 43.5276 328.19 41.4683C327.881 39.615 326.027 38.6883 321.596 38.2765C315.415 37.5557 310.675 35.7024 309.851 30.4513C309.13 25.715 312.015 21.5965 317.887 19.6402L317.372 16.6542C317.269 15.7276 317.887 14.8009 318.815 14.595L320.566 14.2861C321.493 14.1831 322.421 14.8009 322.627 15.7276L323.039 18.4046C325.924 18.0957 328.087 18.1987 329.839 18.5076C330.766 18.7135 331.384 19.5372 331.281 20.4639L330.972 23.1409C330.869 24.1705 329.839 24.8913 328.911 24.6854C327.263 24.3765 324.996 24.0676 322.215 24.5824C318.608 25.0972 317.887 26.7446 318.093 28.0831C318.402 29.7306 320.669 30.4513 325.511 31.172C332.414 32.0987 335.608 34.4669 336.433 39.4091C337.154 43.9395 334.475 48.5728 328.087 50.6321L328.602 54.0298C328.705 54.9565 328.087 55.8832 327.16 56.0891L325.408 56.398C324.378 56.398 323.554 55.7802 323.348 54.7506Z" fill="url(#paint9_linear_604_2043)" fill-opacity="0.5"/>
<path d="M349.733 173.57C354.06 192.824 340.563 211.461 320.884 213.211C304.709 214.756 289.563 203.739 286.06 187.882C281.733 168.628 295.23 149.992 314.908 148.241C331.084 146.8 346.23 157.714 349.733 173.57Z" fill="#FF9123"/>
<path d="M349.733 173.57C354.06 192.824 340.563 211.461 320.884 213.211C304.709 214.756 289.563 203.739 286.06 187.882C281.733 168.628 295.23 149.992 314.908 148.241C331.084 146.8 346.23 157.714 349.733 173.57Z" fill="url(#paint10_linear_604_2043)" fill-opacity="0.5"/>
<path opacity="0.68" d="M289.248 172.129C289.145 172.129 289.042 172.129 288.939 172.129C288.63 172.026 288.424 171.717 288.527 171.409C292.133 160.289 301.509 152.257 312.945 150.404C314.799 150.095 316.654 149.992 318.509 149.992C318.818 149.992 319.127 150.301 319.024 150.61C319.024 150.919 318.715 151.228 318.406 151.125C316.654 151.125 314.799 151.228 313.048 151.434C301.921 153.184 292.957 160.906 289.454 171.614C289.66 172.026 289.454 172.129 289.248 172.129Z" fill="white"/>
<path opacity="0.68" d="M345.818 176.144C348.909 192.31 337.37 207.651 320.782 208.99C306.873 210.122 294.2 200.341 291.521 186.75C288.43 170.584 299.97 155.243 316.557 153.904C330.467 152.772 343.139 162.45 345.818 176.144Z" fill="white"/>
<path d="M319.233 202.092L318.718 199.106C315.627 199.517 312.433 199.209 310.064 198.591C309.239 198.385 308.724 197.561 308.827 196.737L309.136 193.854C309.239 192.825 310.27 192.104 311.3 192.31C313.567 192.825 316.348 193.134 319.233 192.722C322.221 192.207 324.282 190.869 323.973 188.809C323.664 186.956 321.809 186.132 317.482 185.617C311.3 184.897 306.664 183.043 305.839 177.792C305.118 173.056 308.003 168.937 313.773 167.084L313.258 164.098C313.155 163.171 313.773 162.245 314.7 162.142L316.451 161.833C317.379 161.73 318.306 162.348 318.409 163.274L318.821 165.951C321.706 165.643 323.87 165.746 325.621 166.054C326.548 166.26 327.167 167.084 327.064 168.011L326.754 170.688C326.651 171.717 325.724 172.438 324.694 172.232C323.045 171.923 320.779 171.614 317.997 172.129C314.494 172.644 313.67 174.291 313.876 175.63C314.082 177.277 316.451 177.998 321.294 178.719C328.197 179.646 331.391 181.911 332.112 186.853C332.833 191.383 330.154 195.914 323.767 197.973L324.282 201.268C324.385 202.194 323.767 203.121 322.839 203.224L321.088 203.533C320.264 203.739 319.336 203.018 319.233 202.092Z" fill="#FF9123"/>
<path d="M319.233 202.092L318.718 199.106C315.627 199.517 312.433 199.209 310.064 198.591C309.239 198.385 308.724 197.561 308.827 196.737L309.136 193.854C309.239 192.825 310.27 192.104 311.3 192.31C313.567 192.825 316.348 193.134 319.233 192.722C322.221 192.207 324.282 190.869 323.973 188.809C323.664 186.956 321.809 186.132 317.482 185.617C311.3 184.897 306.664 183.043 305.839 177.792C305.118 173.056 308.003 168.937 313.773 167.084L313.258 164.098C313.155 163.171 313.773 162.245 314.7 162.142L316.451 161.833C317.379 161.73 318.306 162.348 318.409 163.274L318.821 165.951C321.706 165.643 323.87 165.746 325.621 166.054C326.548 166.26 327.167 167.084 327.064 168.011L326.754 170.688C326.651 171.717 325.724 172.438 324.694 172.232C323.045 171.923 320.779 171.614 317.997 172.129C314.494 172.644 313.67 174.291 313.876 175.63C314.082 177.277 316.451 177.998 321.294 178.719C328.197 179.646 331.391 181.911 332.112 186.853C332.833 191.383 330.154 195.914 323.767 197.973L324.282 201.268C324.385 202.194 323.767 203.121 322.839 203.224L321.088 203.533C320.264 203.739 319.336 203.018 319.233 202.092Z" fill="url(#paint11_linear_604_2043)" fill-opacity="0.5"/>
<path d="M204.606 185.251L204.612 185.25C206.048 185.18 207.246 186.291 207.283 187.75C207.283 187.751 207.283 187.752 207.283 187.753L211.863 397.167C211.902 398.957 210.508 400.414 208.737 400.453L208.728 400.453C196.968 400.767 166.919 401.518 135.518 401.605C104.071 401.691 71.4449 401.107 54.4124 398.78C53.2884 398.604 52.5167 397.675 52.5478 396.618L52.548 396.609L58.132 176.971L58.132 176.971L58.1322 176.963C58.168 175.281 59.7259 173.934 61.5321 174.194C81.0774 177.459 148.493 187.831 204.606 185.251Z" fill="#FFF9F3" stroke="#B59074" stroke-width="4"/>
<g opacity="0.6">
<path opacity="0.6" d="M199.555 206.013C199.994 206.013 200.371 205.699 200.308 205.261L200.245 203.944C200.245 203.505 199.869 203.129 199.43 203.129L76.3322 198.301C75.8931 198.301 75.7676 198.552 76.0185 198.928L78.0262 201.624C78.2772 202 78.8419 202.251 79.2811 202.314L199.555 206.013Z" fill="#B59074"/>
</g>
<g opacity="0.6">
<path opacity="0.6" d="M76.0822 206.326C75.6431 206.326 75.5176 206.577 75.7685 206.953L77.7762 209.649C78.0272 210.026 78.5919 210.276 79.0311 210.339L199.305 214.101C199.744 214.101 200.121 213.788 200.058 213.349L199.995 212.032C199.995 211.593 199.619 211.217 199.18 211.217L76.0822 206.326Z" fill="#B59074"/>
</g>
<path d="M95.4109 280.125L79.161 279.999C76.8396 279.999 74.8946 278.369 74.7064 276.3L73.2634 262.757C73.2006 261.942 73.4516 261.126 73.9535 260.499C74.5809 259.81 75.4593 259.308 76.4632 259.245C77.8435 259.12 79.7257 258.995 81.7961 258.807C86.3135 258.43 91.3955 257.991 94.407 257.929H94.4698C96.603 257.929 98.4852 259.245 98.9871 261.126C99.8655 264.261 99.74 270.155 99.6145 276.425C99.5518 278.432 97.6695 280.125 95.4109 280.125ZM76.5886 260.499C75.9612 260.562 75.3966 260.813 75.0201 261.252C74.7064 261.628 74.5809 262.067 74.6437 262.506L76.0867 276.049C76.2122 277.491 77.5925 278.557 79.2865 278.62L95.4736 278.745C95.4736 278.745 95.4736 278.745 95.5364 278.745C97.1049 278.745 98.3597 277.679 98.4224 276.3C98.5479 270.093 98.6107 264.324 97.8578 261.377C97.4813 260.061 96.101 259.12 94.5952 259.183C91.6464 259.245 86.3762 259.684 82.1098 260.061C79.8512 260.249 77.9689 260.437 76.5886 260.499Z" fill="#AB866A"/>
<path opacity="0.6" d="M78.3442 261.879C81.7322 261.628 89.1356 260.876 92.6491 260.813C94.1549 260.813 95.4097 261.691 95.7862 262.945C96.4763 265.453 96.3508 270.406 96.2881 275.046C96.2253 276.425 94.9705 277.491 93.4648 277.491L80.5402 277.366C78.9716 277.366 77.6541 276.3 77.4659 274.858L76.3365 264.011C76.1483 262.945 77.0894 261.942 78.3442 261.879Z" fill="#B59074"/>
<g opacity="0.6">
<path opacity="0.6" d="M109.086 266.017C108.647 266.017 108.396 266.331 108.459 266.769L110.215 273.29C110.341 273.729 110.78 274.043 111.219 274.043L193.723 273.917C194.163 273.917 194.539 273.541 194.476 273.102L194.351 268.651C194.351 268.212 193.974 267.835 193.535 267.835L109.086 266.017Z" fill="#B59074"/>
</g>
<path d="M96.8483 243.821L80.5985 243.695C78.2771 243.695 76.3321 242.065 76.1439 239.996L74.7009 226.453C74.6381 225.638 74.8891 224.823 75.391 224.196C76.0184 223.506 76.8968 223.004 77.9007 222.942C79.281 222.816 81.1632 222.691 83.2336 222.503C87.7509 222.127 92.8329 221.688 95.8445 221.625H95.9072C98.0404 221.625 99.9226 222.942 100.425 224.823C101.303 227.958 101.177 233.852 101.052 240.122C100.989 242.191 99.107 243.821 96.8483 243.821ZM78.0261 224.258C77.3987 224.321 76.8341 224.572 76.4576 225.011C76.1439 225.387 76.0184 225.826 76.0812 226.265L77.5242 239.808C77.6497 241.25 79.03 242.316 80.724 242.379L96.9111 242.504C96.9111 242.504 96.9111 242.504 96.9738 242.504C98.5423 242.504 99.7972 241.438 99.8599 240.059C99.9854 233.852 100.048 228.083 99.2952 225.136C98.9188 223.82 97.5385 222.879 96.0327 222.942C93.0839 223.004 87.8137 223.443 83.5473 223.82C81.2887 224.008 79.4064 224.133 78.0261 224.258Z" fill="#AB866A"/>
<path opacity="0.6" d="M79.7856 225.576C83.1736 225.325 90.577 224.572 94.0905 224.51C95.5963 224.51 96.8511 225.388 97.2276 226.642C97.9177 229.15 97.7922 234.103 97.7295 238.743C97.6668 240.122 96.4119 241.251 94.9062 241.188L81.9816 241.063C80.413 241.063 79.0955 239.997 78.9073 238.555L77.7779 227.707C77.5897 226.704 78.5308 225.701 79.7856 225.576Z" fill="#B59074"/>
<g opacity="0.6">
<path opacity="0.6" d="M110.531 229.713C110.092 229.713 109.841 230.027 109.904 230.466L111.661 236.987C111.786 237.425 112.225 237.739 112.665 237.739L195.169 237.614C195.608 237.614 195.984 237.237 195.922 236.798L195.796 232.347C195.796 231.908 195.42 231.532 194.981 231.532L110.531 229.713Z" fill="#B59074"/>
</g>
<path d="M95.4695 314.735C95.4695 314.735 95.4067 314.735 95.4695 314.735L79.2196 314.61C76.8982 314.61 74.9532 312.98 74.765 310.911L73.322 297.367C73.2592 296.552 73.5102 295.737 74.0121 295.11C74.6395 294.421 75.5179 293.919 76.5218 293.856C77.9021 293.731 79.7843 293.605 81.8547 293.417C86.3721 293.041 91.4541 292.602 94.4656 292.54H94.5284C96.6616 292.54 98.5438 293.856 99.0457 295.737C99.9241 298.872 99.7986 304.766 99.6731 311.036C99.6104 313.105 97.7281 314.735 95.4695 314.735ZM76.6472 295.173C76.0198 295.236 75.4552 295.486 75.0787 295.925C74.765 296.302 74.6395 296.74 74.7023 297.179L76.1453 310.723C76.2708 312.165 77.6511 313.231 79.3451 313.293L95.5322 313.419C95.5322 313.419 95.5322 313.419 95.595 313.419C97.1635 313.419 98.4183 312.353 98.481 310.973C98.6065 304.766 98.6693 298.998 97.9164 296.051C97.5399 294.734 96.1596 293.794 94.6539 293.856C91.705 293.919 86.4348 294.358 82.1684 294.734C79.847 294.922 77.9648 295.048 76.6472 295.173Z" fill="#AB866A"/>
<path opacity="0.6" d="M78.3442 296.552C81.7322 296.301 89.1356 295.549 92.6491 295.486C94.1549 295.486 95.4097 296.364 95.7862 297.618C96.4763 300.126 96.3508 305.079 96.2881 309.719C96.2253 311.099 94.9705 312.227 93.4648 312.165L80.5402 312.039C78.9716 312.039 77.6541 310.973 77.4659 309.531L76.3365 298.684C76.1483 297.618 77.0894 296.615 78.3442 296.552Z" fill="#B59074"/>
<g opacity="0.6">
<path opacity="0.6" d="M109.149 300.627C108.709 300.627 108.459 300.941 108.521 301.38L110.278 307.901C110.403 308.34 110.843 308.653 111.282 308.653L193.786 308.528C194.225 308.528 194.602 308.151 194.539 307.713L194.413 303.261C194.413 302.822 194.037 302.446 193.598 302.446L109.149 300.627Z" fill="#B59074"/>
</g>
<path d="M93.9695 348.029L77.7196 347.903C75.3982 347.903 73.4532 346.273 73.265 344.204L71.822 330.661C71.7592 329.846 72.0102 329.031 72.5121 328.404C73.1395 327.714 74.0179 327.212 75.0218 327.15C76.4021 327.024 78.2843 326.899 80.3547 326.711C84.6211 326.335 89.9541 325.896 92.9656 325.833C95.0988 325.833 97.0438 327.087 97.5457 329.031C98.4241 332.166 98.2986 338.059 98.1731 344.329C98.1104 346.336 96.2281 348.029 93.9695 348.029ZM75.1472 328.404C74.5198 328.466 73.9552 328.717 73.5787 329.156C73.265 329.532 73.1395 329.971 73.2023 330.41L74.6453 343.953C74.7708 345.395 76.1511 346.461 77.8451 346.524L94.0322 346.649C95.538 346.649 96.9183 345.583 96.9183 344.204C97.0438 337.997 97.1065 332.228 96.3536 329.282C95.9772 327.965 94.5969 327.024 93.0911 327.087C90.1423 327.15 84.8093 327.589 80.6057 327.965C78.4098 328.153 76.5275 328.341 75.1472 328.404Z" fill="#AB866A"/>
<path opacity="0.6" d="M76.8989 329.783C80.2869 329.532 87.6903 328.78 91.2038 328.717C92.7096 328.717 93.9644 329.595 94.3408 330.849C95.031 333.357 94.9055 338.31 94.8427 342.95C94.78 344.329 93.5252 345.395 92.0194 345.395L79.0948 345.27C77.5263 345.27 76.2088 344.204 76.0205 342.762L74.8912 331.915C74.703 330.849 75.6441 329.909 76.8989 329.783Z" fill="#B59074"/>
<g opacity="0.6">
<path opacity="0.6" d="M107.645 333.921C107.206 333.921 106.955 334.234 107.017 334.673L108.774 341.194C108.9 341.633 109.339 341.947 109.778 341.947L192.282 341.821C192.721 341.821 193.098 341.445 193.035 341.006L192.91 336.554C192.91 336.115 192.533 335.739 192.094 335.739L107.645 333.921Z" fill="#B59074"/>
</g>
<path d="M92.2117 382.325C92.1489 382.325 92.1489 382.325 92.2117 382.325L75.9618 382.2C73.6404 382.2 71.6954 380.57 71.5072 378.501L70.0642 364.957C70.0014 364.142 70.2524 363.327 70.7543 362.7C71.3817 362.01 72.2601 361.509 73.2639 361.446C74.6442 361.321 76.5265 361.195 78.5969 361.007C83.1142 360.631 88.1962 360.192 91.2078 360.129C93.4037 360.129 95.286 361.383 95.7879 363.327C96.6663 366.462 96.5408 372.356 96.4153 378.626C96.2898 380.695 94.4703 382.325 92.2117 382.325ZM73.3267 362.763C72.6993 362.826 72.1346 363.076 71.7582 363.515C71.4445 363.891 71.319 364.33 71.3817 364.769L72.8248 378.312C72.9502 379.755 74.3305 380.82 76.0245 380.883L92.2117 381.009C92.2117 381.009 92.2117 381.009 92.2744 381.009C93.8429 381.009 95.0977 379.943 95.1605 378.563C95.286 372.356 95.3487 366.588 94.5958 363.641C94.2194 362.324 92.8391 361.446 91.3333 361.446C88.3845 361.509 83.1142 361.948 78.8479 362.324C76.5892 362.512 74.707 362.637 73.3267 362.763Z" fill="#AB866A"/>
<path opacity="0.6" d="M75.0786 364.08C78.4666 363.829 85.87 363.077 89.3835 363.014C90.8893 363.014 92.1441 363.892 92.5206 365.146C93.2107 367.654 93.0852 372.607 93.0225 377.247C92.9598 378.626 91.7049 379.692 90.1992 379.692L77.2745 379.567C75.706 379.567 74.3885 378.501 74.2002 377.059L73.0709 366.212C72.8827 365.209 73.8238 364.205 75.0786 364.08Z" fill="#B59074"/>
<g opacity="0.6">
<path opacity="0.6" d="M105.828 368.218C105.389 368.218 105.138 368.531 105.201 368.97L106.958 375.491C107.083 375.93 107.522 376.243 107.962 376.243L190.466 376.118C190.905 376.118 191.281 375.742 191.219 375.303L191.093 370.851C191.093 370.412 190.717 370.036 190.277 370.036L105.828 368.218Z" fill="#B59074"/>
</g>
<path d="M29.9398 414.365C29.9398 414.365 29.4806 417.118 29.2509 419.872C29.1744 420.943 30.0163 421.861 31.0113 421.937C34.6087 422.09 42.4157 422.396 45.1711 422.243C45.5538 422.243 45.86 421.784 45.7069 421.402C45.5538 421.096 45.3242 420.79 45.018 420.637L32.1594 414.747L29.9398 414.365Z" fill="#4A4743"/>
<path d="M29.4844 412.758L29.8671 416.047C29.8671 416.047 32.0867 417.118 33.6175 415.894L32.699 412.223L29.4844 412.758Z" fill="#FEC0A1"/>
<path d="M29.7873 350.801C29.6342 351.643 28.8688 393.712 33.3846 412.605C33.4611 412.911 33.3081 413.217 33.0019 413.37C32.3131 413.676 30.9354 414.058 29.328 414.135C28.7923 414.135 28.4096 413.829 28.2565 413.37C26.9553 409.01 20.8322 387.057 19.9902 366.099C19.0718 342.693 19.9902 365.334 19.9902 365.334L20.526 350.878L29.7873 350.801Z" fill="#5E5B57"/>
<path d="M15.1697 415.818C15.1697 415.818 14.4043 417.195 13.6389 420.867C13.4858 421.555 13.945 422.167 14.6339 422.243C15.8585 422.396 17.6955 422.549 19.1497 422.473C19.8386 422.473 20.3743 421.861 20.2978 421.173C20.1447 419.796 19.6089 417.578 18.0782 415.895L15.1697 415.818Z" fill="#4A4743"/>
<path d="M14.4766 411.611L15.395 416.583C15.395 416.583 16.3135 417.271 18.0739 416.736L17.6147 411.381L14.4766 411.611Z" fill="#FEC0A1"/>
<path d="M12.0292 352.102C8.35529 374.284 12.7946 406.946 14.3254 413.371C14.4019 413.753 14.708 414.059 15.1673 414.136C15.8561 414.212 16.9277 414.365 18.0758 413.983C18.4585 413.906 18.6881 413.524 18.7646 413.141C18.9942 407.94 18.6116 376.197 22.0558 363.652C22.2089 363.04 22.5916 362.429 23.1274 362.046L29.7863 357.304L30.3221 349.655L12.0292 352.102Z" fill="#4A4743"/>
<path d="M35.4528 310.033C24.4312 309.88 12.2614 312.94 12.2614 312.94C8.97022 332.139 11.6491 354.244 11.6491 354.244C20.2215 356.462 29.7889 352.867 29.7889 352.867C31.2431 344.836 37.8255 322.271 37.8255 322.271C43.1833 321.583 47.6226 320.053 51.2964 317.988C48.541 314.775 47.1633 310.645 46.6275 308.197C42.8006 309.498 38.8205 310.11 35.4528 310.033Z" fill="#FF9123"/>
<path d="M35.4528 310.033C24.4312 309.88 12.2614 312.94 12.2614 312.94C8.97022 332.139 11.6491 354.244 11.6491 354.244C20.2215 356.462 29.7889 352.867 29.7889 352.867C31.2431 344.836 37.8255 322.271 37.8255 322.271C43.1833 321.583 47.6226 320.053 51.2964 317.988C48.541 314.775 47.1633 310.645 46.6275 308.197C42.8006 309.498 38.8205 310.11 35.4528 310.033Z" fill="url(#paint12_linear_604_2043)" fill-opacity="0.5"/>
<path d="M68.0576 293.817C66.9861 292.516 65.6083 293.128 65.6083 293.128C64.001 300.012 55.5052 305.52 46.7031 308.273C47.2389 310.721 48.6166 314.851 51.372 318.064C65.9145 309.879 68.0576 293.817 68.0576 293.817Z" fill="#FEC0A1"/>
<path d="M67.7527 294.123C67.8293 294.505 66.5281 295.041 65.7627 293.587C65.7627 292.899 65.3035 289.839 65.7627 289.304C67.9823 286.244 72.3451 282.42 72.3451 282.42C73.1105 283.108 72.4981 283.873 72.4981 283.873L70.3551 286.091C70.8143 286.856 71.3501 287.545 71.5797 288.539C71.8093 289.304 71.6562 290.069 71.2735 290.757C70.8908 291.446 70.4316 292.287 69.8958 292.975C69.0539 294.123 67.7527 294.123 67.7527 294.123Z" fill="#FEC0A1"/>
<path d="M69.436 287.468L67.5225 289.075L66.9102 290.681L68.594 292.593C68.594 292.593 69.2063 289.38 69.589 288.692C70.1248 288.004 69.8952 287.621 69.436 287.468Z" fill="#FEC0A1"/>
<path d="M16.4685 323.648L12.2589 312.939C12.2589 312.939 1.92605 319.9 0.242188 328.772C2.15567 328.925 5.75302 329.384 9.19728 331.144C9.96268 327.013 16.4685 323.648 16.4685 323.648Z" fill="#FF9123"/>
<path d="M16.4685 323.648L12.2589 312.939C12.2589 312.939 1.92605 319.9 0.242188 328.772C2.15567 328.925 5.75302 329.384 9.19728 331.144C9.96268 327.013 16.4685 323.648 16.4685 323.648Z" fill="url(#paint13_linear_604_2043)" fill-opacity="0.5"/>
<path d="M25.5025 333.668C25.5025 333.668 13.9451 340.169 10.0416 334.586C9.19965 333.438 9.04657 332.291 9.19965 331.144C5.75538 329.384 2.15804 328.925 0.244555 328.772C-0.291221 331.45 0.0149367 334.28 1.54572 337.186C8.35772 349.654 26.9568 336.498 26.9568 336.498L25.5025 333.668Z" fill="#FEC0A1"/>
<path d="M24.1223 341.929L30.3985 319.9C30.475 319.67 30.7047 319.441 30.9343 319.441C32.0824 319.288 35.3736 318.905 39.2005 318.599C43.7929 318.217 49.1506 317.911 52.3653 318.141C52.8245 318.141 53.1307 318.676 52.9011 319.058C51.0641 322.73 43.5633 337.722 39.8128 342.617C39.6598 342.77 39.5067 342.847 39.2771 342.847L24.6581 342.694C24.2754 342.77 23.9692 342.311 24.1223 341.929Z" fill="#857E85"/>
<path d="M39.8858 316.687L44.4781 315.922C44.7077 315.846 44.9374 316.152 44.8608 316.381L44.4016 317.758C44.325 317.911 44.2485 317.987 44.0954 317.987L39.6561 318.599C39.4265 318.599 39.2734 318.446 39.2734 318.217L39.5796 316.993C39.6561 316.84 39.7327 316.687 39.8858 316.687Z" fill="#676067"/>
<path d="M36.4453 320.588L36.828 318.599C36.828 318.37 37.0576 318.217 37.2107 318.217L46.472 317.299C46.7781 317.299 47.0077 317.528 46.9312 317.834L46.3189 320.282C46.2423 320.511 46.0893 320.588 45.9362 320.664L36.9046 321.123C36.6749 321.123 36.4453 320.817 36.4453 320.588Z" fill="#676067"/>
<path d="M25.6536 336.574C25.6536 336.574 24.8117 332.979 25.1178 331.679C25.5005 330.378 26.1894 328.772 28.4855 329.078C30.7817 329.46 33.4606 330.378 33.4606 330.378C33.4606 330.378 33.3075 332.061 31.5471 331.526L32.6187 332.367C32.6187 332.367 32.4656 333.667 31.0113 332.979L32.0064 334.05C32.0064 334.05 31.394 335.121 30.3225 334.432C29.1744 333.897 28.7152 337.033 25.6536 336.574Z" fill="#FEC0A1"/>
<path d="M24.2774 301.083L20.7566 311.257C20.6801 311.41 20.7566 311.639 20.9097 311.715C21.9047 312.251 25.3489 313.781 29.4821 311.104C29.9413 310.798 30.2475 310.415 30.2475 309.88L31.3955 301.083H24.2774Z" fill="#F4B697"/>
<path d="M31.9278 291.675C31.9278 291.675 35.7547 298.942 35.2955 301.848C34.8363 304.755 30.0143 304.602 25.8812 302.154L22.9727 294.352L31.9278 291.675Z" fill="#FEC0A1"/>
<path d="M26.034 298.406C26.1871 298.33 26.2636 298.1 26.1871 297.947C25.8809 297.488 25.2686 296.494 25.1155 295.653C25.1155 295.653 24.4267 295.194 26.8759 294.658C29.3252 294.046 32.9991 293.128 33.7645 291.063C34.5299 288.998 32.5399 283.873 29.4017 288.004C29.2487 288.156 29.019 288.156 28.9425 288.004C28.4067 287.315 27.1056 285.938 25.1921 286.78C23.4317 287.545 23.2021 288.845 23.2786 289.533C23.2786 289.763 23.1255 289.839 22.8959 289.839C21.9774 289.686 19.8343 289.533 18.8393 291.752C17.9974 293.587 18.5332 294.582 19.0689 295.041C19.222 295.194 19.1455 295.5 18.9159 295.5C18.3035 295.653 17.5382 296.188 17.6147 297.565C17.6912 299.477 19.8343 299.324 20.4466 299.171C20.5232 299.171 20.6763 299.171 20.6763 299.248C21.212 299.783 23.5082 302.231 26.034 302.537C26.2636 302.537 26.4167 302.384 26.3402 302.154L25.2686 299.018C25.1921 298.865 25.2686 298.712 25.4217 298.636L26.034 298.406Z" fill="#4A4743"/>
<path d="M26.4185 298.865C26.4185 298.865 23.663 296.953 23.51 298.559C23.2803 300.166 25.9592 300.854 27.3369 300.242L26.4185 298.865Z" fill="url(#paint14_linear_604_2043)"/>
<path d="M358.701 249.464C358.507 249.948 360.542 250.723 361.608 248.689C361.608 247.721 362.19 243.556 361.512 242.685C358.12 238.423 351.53 233 351.53 233C350.464 233.968 351.336 235.034 351.336 235.034L354.534 238.133C353.856 239.198 353.08 240.167 352.79 241.523C352.499 242.491 352.693 243.653 353.274 244.525C353.856 245.493 354.631 246.655 355.309 247.624C356.763 249.367 358.701 249.464 358.701 249.464Z" fill="#FEC0A1"/>
<path d="M357.147 247.333C357.147 247.333 356.178 242.878 355.596 241.909C355.306 241.425 355.112 241.037 355.209 240.65C355.306 240.36 355.5 240.166 355.887 239.972H355.984L358.988 242.296L359.957 244.621L359.667 244.718L358.698 242.49L355.887 240.263C355.693 240.36 355.5 240.553 355.5 240.747C355.403 241.037 355.5 241.328 355.79 241.715C356.469 242.684 357.341 247.042 357.438 247.236L357.147 247.333Z" fill="#FEC0A1"/>
<path d="M398.338 259.245C398.338 259.245 402.021 260.988 402.602 263.022C403.183 264.668 407.157 264.862 407.544 268.058C407.738 269.705 408.998 271.06 410.645 271.254C414.716 271.932 421.112 274.063 422.081 281.132C422.856 286.556 420.046 288.686 417.138 289.364C415.006 289.849 413.553 291.979 414.037 294.11C414.425 296.144 413.843 298.565 410.258 300.502C402.214 304.763 394.171 290.43 394.171 290.43L392.523 265.443L398.338 259.245Z" fill="#4A4743"/>
<path d="M360.44 246.074C360.44 246.074 370.81 274.256 388.447 283.069C388.447 283.069 382.536 292.657 379.532 293.238C379.532 293.238 360.731 269.123 358.793 249.366L360.44 246.074Z" fill="#FEC0A1"/>
<path d="M431.38 415.748L431.865 420.01C431.962 420.784 432.64 421.462 433.415 421.559C434.772 421.753 437.001 421.85 439.133 421.656C440.102 421.559 440.684 420.591 440.393 419.719C439.908 418.073 438.939 415.555 437.486 414.102H432.737C431.962 414.102 431.283 414.877 431.38 415.748Z" fill="#4A4743"/>
<path d="M394.266 365.582L393.491 370.328C393.491 370.328 396.204 397.445 396.689 408.388C396.786 410.132 396.301 411.778 395.429 413.231L390.777 420.785L402.6 413.812L402.794 412.359L400.856 409.647L403.376 379.237C403.569 377.494 403.182 375.654 402.31 374.105L399.887 369.456L394.266 365.582Z" fill="#FEC0A1"/>
<path d="M389.907 421.851H393.687C394.365 421.851 395.043 421.56 395.528 420.979C396.691 419.429 399.114 416.427 400.276 416.427C401.827 416.33 401.633 421.947 401.633 421.947H402.505L403.668 414.975C403.959 413.231 403.087 411.488 401.536 410.713C401.536 410.713 401.149 413.328 399.211 414.587C397.272 415.749 391.264 420.011 391.264 420.011C391.264 420.011 390.489 419.914 389.713 420.011C388.55 420.107 388.647 421.851 389.907 421.851Z" fill="#4A4743"/>
<path d="M410.449 367.907C410.449 367.907 426.148 397.736 428.668 404.515C431.188 411.295 432.06 417.008 432.06 417.493C432.157 418.364 433.126 419.139 436.033 419.139C437.487 419.139 438.262 418.558 438.65 417.977C438.94 417.493 438.94 416.912 438.747 416.331C437.874 414.49 434.967 408.583 433.901 405.968C432.641 402.772 429.928 388.342 428.377 383.306C426.827 378.27 425.179 372.847 418.59 367.811C418.59 367.907 414.035 363.452 410.449 367.907Z" fill="#FEC0A1"/>
<path d="M400.565 318.999C396.495 301.858 406.767 292.076 406.767 292.076C400.274 285.878 388.451 283.069 388.451 283.069C388.451 283.069 377.21 291.301 378.567 297.79C379.342 301.567 386.513 320.452 386.513 320.452C386.513 320.452 393.103 323.551 400.565 318.999Z" fill="#4A4743"/>
<path d="M409.577 327.522C407.93 322.583 400.565 319 400.565 319C393.103 323.454 386.513 320.355 386.513 320.355C386.513 320.355 385.059 325.972 386.028 331.299C386.998 336.626 393.49 370.328 393.49 370.328C403.569 372.362 419.171 368.294 419.171 368.294C412.678 356.867 411.225 332.461 409.577 327.522Z" fill="#FF9123"/>
<path d="M409.577 327.522C407.93 322.583 400.565 319 400.565 319C393.103 323.454 386.513 320.355 386.513 320.355C386.513 320.355 385.059 325.972 386.028 331.299C386.998 336.626 393.49 370.328 393.49 370.328C403.569 372.362 419.171 368.294 419.171 368.294C412.678 356.867 411.225 332.461 409.577 327.522Z" fill="#4A4743"/>
<path d="M395.82 271.738L399.115 286.555C399.406 287.814 398.243 287.621 396.886 287.427C394.754 287.04 391.944 286.168 390.975 284.522C390.878 284.328 390.878 284.134 390.781 283.941L389.327 273.675C389.23 272.9 389.618 272.029 390.393 271.738L393.107 270.479C394.366 269.995 395.626 270.673 395.82 271.738Z" fill="#F4B697"/>
<path d="M391.941 257.695C391.941 257.695 388.064 259.341 385.351 264.959C382.735 270.576 384.673 273.191 387.192 273.578C389.712 273.965 393.394 273.868 397.368 270.285C401.341 266.605 397.077 255.661 391.941 257.695Z" fill="#FEC0A1"/>
<path d="M394.751 267.186C394.751 267.186 397.659 258.954 390.39 258.858L388.646 260.02C388.646 260.02 385.933 255.468 390.39 253.241C394.848 251.013 399.984 252.853 401.826 258.761C403.667 264.668 404.055 268.639 400.857 271.544C397.756 274.353 396.496 271.157 396.496 271.157C396.496 271.157 398.24 268.542 397.465 267.09C396.786 265.637 395.139 267.38 395.139 267.38L394.751 267.186Z" fill="#4A4743"/>
<path d="M395.523 268.155C395.523 268.155 396.977 263.893 399.012 265.637C401.047 267.283 397.365 269.607 396.008 270.285L395.523 268.155Z" fill="url(#paint15_linear_604_2043)"/>
<path d="M408.605 296.725C408.605 296.725 378.467 333.526 355.887 291.592C355.887 291.592 355.499 290.526 355.693 288.977C355.79 288.202 355.305 285.394 355.015 284.038C354.918 283.554 355.208 283.166 355.693 283.069C356.081 283.069 356.371 283.166 356.662 283.457L360.732 288.686C361.023 289.752 360.538 290.817 359.569 291.301C358.988 291.592 358.794 292.367 359.182 292.948C376.335 315.416 405.02 290.72 405.504 291.011C407.443 292.076 409.575 293.238 408.605 296.725Z" fill="#FEC0A1"/>
</g>
<defs>
<linearGradient id="paint0_linear_604_2043" x1="382.166" y1="173.671" x2="505.182" y2="331.864" gradientUnits="userSpaceOnUse">
<stop stop-color="#FFCA00"/>
<stop offset="0.791667" stop-color="#FF9000"/>
</linearGradient>
<linearGradient id="paint1_linear_604_2043" x1="320.517" y1="273.598" x2="379.552" y2="376.662" gradientUnits="userSpaceOnUse">
<stop stop-color="#FFCA00"/>
<stop offset="0.791667" stop-color="#FF9000"/>
</linearGradient>
<linearGradient id="paint2_linear_604_2043" x1="240.084" y1="262.889" x2="297.29" y2="384.694" gradientUnits="userSpaceOnUse">
<stop stop-color="#FFCA00"/>
<stop offset="0.791667" stop-color="#FF9000"/>
</linearGradient>
<linearGradient id="paint3_linear_604_2043" x1="166.311" y1="301.04" x2="199.627" y2="394.26" gradientUnits="userSpaceOnUse">
<stop stop-color="#FFCA00"/>
<stop offset="0.791667" stop-color="#FF9000"/>
</linearGradient>
<linearGradient id="paint4_linear_604_2043" x1="340.891" y1="73.6946" x2="369.703" y2="143.467" gradientUnits="userSpaceOnUse">
<stop stop-color="#FFCA00"/>
<stop offset="0.791667" stop-color="#FF9000"/>
</linearGradient>
<linearGradient id="paint5_linear_604_2043" x1="351.93" y1="87.6518" x2="375.698" y2="124.267" gradientUnits="userSpaceOnUse">
<stop stop-color="#FFCA00"/>
<stop offset="0.791667" stop-color="#FF9000"/>
</linearGradient>
<linearGradient id="paint6_linear_604_2043" x1="250.732" y1="82.6242" x2="276.499" y2="144.977" gradientUnits="userSpaceOnUse">
<stop stop-color="#FFCA00"/>
<stop offset="0.791667" stop-color="#FF9000"/>
</linearGradient>
<linearGradient id="paint7_linear_604_2043" x1="260.499" y1="94.8189" x2="281.84" y2="127.681" gradientUnits="userSpaceOnUse">
<stop stop-color="#FFCA00"/>
<stop offset="0.791667" stop-color="#FF9000"/>
</linearGradient>
<linearGradient id="paint8_linear_604_2043" x1="307.774" y1="5.004" x2="333.08" y2="66.2002" gradientUnits="userSpaceOnUse">
<stop stop-color="#FFCA00"/>
<stop offset="0.791667" stop-color="#FF9000"/>
</linearGradient>
<linearGradient id="paint9_linear_604_2043" x1="317.323" y1="17.2533" x2="338.25" y2="49.4931" gradientUnits="userSpaceOnUse">
<stop stop-color="#FFCA00"/>
<stop offset="0.791667" stop-color="#FF9000"/>
</linearGradient>
<linearGradient id="paint10_linear_604_2043" x1="303.717" y1="152.727" x2="328.745" y2="213.369" gradientUnits="userSpaceOnUse">
<stop stop-color="#FFCA00"/>
<stop offset="0.791667" stop-color="#FF9000"/>
</linearGradient>
<linearGradient id="paint11_linear_604_2043" x1="313.224" y1="164.774" x2="333.986" y2="196.676" gradientUnits="userSpaceOnUse">
<stop stop-color="#FFCA00"/>
<stop offset="0.791667" stop-color="#FF9000"/>
</linearGradient>
<linearGradient id="paint12_linear_604_2043" x1="22.1252" y1="311.504" x2="41.8413" y2="353.018" gradientUnits="userSpaceOnUse">
<stop stop-color="#FFCA00"/>
<stop offset="0.791667" stop-color="#FF9000"/>
</linearGradient>
<linearGradient id="paint13_linear_604_2043" x1="4.83145" y1="314.226" x2="12.3861" y2="330.529" gradientUnits="userSpaceOnUse">
<stop stop-color="#FFCA00"/>
<stop offset="0.791667" stop-color="#FF9000"/>
</linearGradient>
<linearGradient id="paint14_linear_604_2043" x1="1437.99" y1="1169.91" x2="1422.29" y2="1160.23" gradientUnits="userSpaceOnUse">
<stop stop-color="#FF928E"/>
<stop offset="1" stop-color="#FEB3B1"/>
</linearGradient>
<linearGradient id="paint15_linear_604_2043" x1="436.775" y1="113.634" x2="430.117" y2="139.809" gradientUnits="userSpaceOnUse">
<stop stop-color="#FF928E"/>
<stop offset="1" stop-color="#FEB3B1"/>
</linearGradient>
<clipPath id="clip0_604_2043">
<rect width="472" height="422" fill="white"/>
</clipPath>
</defs>
</svg>
