<svg width="559" height="466" viewBox="0 0 559 466" fill="none" xmlns="http://www.w3.org/2000/svg">
<g clip-path="url(#clip0_588_6960)">
<g opacity="0.6">
<g opacity="0.25">
<g opacity="0.25">
<path opacity="0.25" d="M268.361 279.86C255.311 275.553 239.41 284.024 235.615 297.333C234.149 302.553 234.226 308.55 230.942 312.824C225.848 319.409 215.651 318.741 208.348 322.877C199.774 327.695 196.654 340.101 201.843 348.404C204.168 352.185 207.995 355.574 207.725 359.95C207.414 365.532 200.577 368.96 199.625 374.439C198.769 379.479 203.359 384.101 208.355 385.076C213.396 385.931 218.451 384.011 222.954 381.751C227.501 379.371 231.899 376.664 236.845 375.585C242.356 374.445 247.992 375.522 253.595 375.23C267.056 374.601 279.22 365.963 286.883 354.838C294.546 343.714 298.34 330.405 300.884 317.175" fill="#FFA711"/>
</g>
</g>
<g opacity="0.8">
<g opacity="0.8">
<g opacity="0.8">
<path opacity="0.8" d="M268.361 279.86C255.311 275.553 239.41 284.024 235.615 297.333C234.149 302.553 234.226 308.55 230.942 312.824C225.848 319.409 215.651 318.741 208.348 322.877C199.774 327.695 196.654 340.101 201.843 348.404C204.168 352.185 207.995 355.574 207.725 359.95C207.414 365.532 200.577 368.96 199.625 374.439C198.769 379.479 203.359 384.101 208.355 385.076C213.396 385.931 218.451 384.011 222.954 381.751C227.501 379.371 231.899 376.664 236.845 375.585C242.356 374.445 247.992 375.522 253.595 375.23C267.056 374.601 279.22 365.963 286.883 354.838C294.546 343.714 298.34 330.405 300.884 317.175" fill="#FFA711"/>
</g>
</g>
</g>
</g>
<path d="M271.469 292.477C260.578 288.566 247.167 295.995 244.609 307.254C243.126 314.163 244.476 322.94 238.511 326.76C234.44 329.317 228.855 327.92 224.709 330.313C219.092 333.381 218.835 342.103 222.934 346.949C226.989 351.915 233.729 353.673 240.159 353.892C262.219 354.763 283.881 339.005 289.878 317.766" fill="#FF9711" fill-opacity="0.3"/>
<path d="M450.861 233.045L434.842 223.769L443.313 209.01L460.462 222.911L451.359 232.619" fill="#FFBE9D"/>
<path d="M458.764 220.721L471.285 229.917C471.285 229.917 484.89 220.322 487.335 221.773L470.269 246.699L450.175 233.061L458.764 220.721Z" fill="#FF9123"/>
<path d="M458.764 220.721L471.285 229.917C471.285 229.917 484.89 220.322 487.335 221.773L470.269 246.699L450.175 233.061L458.764 220.721Z" fill="url(#paint0_linear_588_6960)" fill-opacity="0.5"/>
<g opacity="0.6">
<g opacity="0.6">
<g opacity="0.6">
<g opacity="0.6">
<g opacity="0.6">
<path opacity="0.6" d="M464.972 236.863C464.75 237.459 465.05 238.113 465.646 238.335C466.242 238.556 466.896 238.256 467.117 237.661C467.339 237.065 466.964 236.247 466.406 236.108C465.847 235.968 465.03 236.343 464.927 236.983" fill="white"/>
</g>
</g>
</g>
</g>
</g>
<g opacity="0.6">
<g opacity="0.6">
<g opacity="0.6">
<g opacity="0.6">
<path opacity="0.6" d="M470.354 246.662L468.393 245.187L485.487 221.83C485.487 221.83 486.72 221.068 487.421 221.735L470.354 246.662Z" fill="#383F42"/>
</g>
</g>
</g>
</g>
<path d="M471.463 229.44C471.582 229.485 471.197 230.155 471.207 231.041C471.217 231.926 471.516 232.58 471.353 232.655C471.308 232.774 470.689 232.069 470.686 230.983C470.72 229.978 471.306 229.314 471.463 229.44Z" fill="#263238"/>
<path d="M474.347 227.527C474.467 227.571 474.283 228.249 474.538 229.022C474.793 229.795 475.218 230.292 475.174 230.411C475.13 230.53 474.34 230.101 474.092 229.127C473.761 228.191 474.228 227.483 474.347 227.527Z" fill="#263238"/>
<path d="M478.426 228.229C478.382 228.348 477.667 228.082 477.211 227.302C476.755 226.522 476.901 225.763 477.021 225.807C477.14 225.852 477.283 226.379 477.664 226.996C478.083 227.694 478.552 228.072 478.426 228.229Z" fill="#263238"/>
<path d="M468.347 227.604C468.422 227.768 467.925 228.193 467.458 228.902C466.991 229.61 466.926 230.332 466.726 230.325C466.606 230.28 466.47 229.552 467.026 228.605C467.537 227.778 468.31 227.523 468.347 227.604Z" fill="#263238"/>
<path d="M465.753 225.826C465.79 225.908 465.531 226.422 464.945 227.086C464.612 227.437 464.196 227.825 463.624 228.087C463.379 228.199 463.089 228.431 462.762 228.581C462.599 228.656 462.435 228.731 462.234 228.724C462.033 228.717 461.594 228.621 461.564 228.339C461.451 228.094 461.502 227.774 461.628 227.617C461.755 227.46 461.881 227.304 462.007 227.147C462.296 226.916 462.504 226.721 462.831 226.572C463.366 226.228 463.893 226.085 464.421 225.942C465.314 225.731 465.954 225.833 465.991 225.915C466.029 225.997 465.426 225.976 464.571 226.269C464.125 226.374 463.635 226.599 463.182 226.905C462.974 227.1 462.729 227.212 462.439 227.443C462.15 227.675 462.061 227.913 462.098 227.995C462.136 228.077 462.136 228.077 462.218 228.039C462.299 228.002 462.463 227.927 462.664 227.934C462.991 227.784 463.236 227.672 463.481 227.559C464.016 227.215 464.387 226.947 464.758 226.678C465.337 226.215 465.715 225.745 465.753 225.826Z" fill="#263238"/>
<path d="M465.865 226.071C465.902 226.152 465.262 226.05 464.435 225.539C464.04 225.325 463.57 224.947 463.144 224.45C462.95 224.242 462.8 223.915 462.569 223.626C462.419 223.299 462.232 222.89 462.491 222.376C462.661 222.1 462.944 222.069 463.145 222.076C463.346 222.083 463.502 222.209 463.703 222.216C464.061 222.349 464.255 222.557 464.568 222.809C465.075 223.268 465.3 223.759 465.525 224.249C465.855 225.185 465.633 225.781 465.633 225.781C465.552 225.819 465.572 225.216 465.198 224.399C465.011 223.99 464.704 223.537 464.272 223.241C464.078 223.033 463.802 222.863 463.564 222.774C463.288 222.604 462.968 222.553 462.923 222.672C462.879 222.791 462.947 223.156 463.059 223.401C463.172 223.646 463.321 223.973 463.516 224.181C463.822 224.634 464.292 225.012 464.605 225.264C465.351 225.812 465.865 226.071 465.865 226.071Z" fill="#263238"/>
<path d="M392.5 200.643L444.346 234.15L455.648 215.424L401.799 171.067" fill="#263238"/>
<path d="M390.198 189.138C390.399 189.145 390.361 191.437 391.031 194.196C391.701 196.955 392.92 198.967 392.757 199.042C392.675 199.08 391.292 197.142 390.585 194.301C389.877 191.461 390.079 189.094 390.198 189.138Z" fill="black" fill-opacity="0.25"/>
<path d="M387.164 190.725C387.328 190.65 388.1 192.769 389.588 195.153C391.076 197.537 392.629 199.199 392.465 199.274C392.421 199.393 390.623 197.843 389.098 195.378C387.692 192.956 387.045 190.681 387.164 190.725Z" fill="black" fill-opacity="0.25"/>
<path d="M275.028 254.258L251.424 257.357C241.018 300.494 258.641 334.647 308.217 336.857L319.033 301.74L275.028 254.258Z" fill="#4A4743"/>
<path d="M274.67 248.291C264.984 262.123 265.895 281.385 274.794 296.493C284.568 313.079 303.921 324.882 327.147 319.879L456.238 226.427C478.725 210.094 482.517 177.997 464.366 156.942C447.76 137.75 419.005 135.001 399.076 150.657L274.67 248.291Z" fill="#EAE7E4"/>
<path d="M274.672 248.291C274.672 248.291 275.043 248.022 275.83 247.365C276.617 246.708 277.775 245.782 279.223 244.624C282.282 242.234 286.707 238.723 292.499 234.092C304.037 224.95 320.78 211.841 341.414 195.565C351.75 187.468 363.08 178.52 375.235 168.996C381.353 164.216 387.598 159.278 394.05 154.147C395.661 152.915 397.317 151.563 398.928 150.33C399.752 149.755 400.659 149.142 401.445 148.485C401.899 148.178 402.352 147.872 402.723 147.603L404.12 146.765C405.063 146.234 406.007 145.703 406.869 145.209C407.85 144.76 408.831 144.31 409.812 143.861C410.793 143.412 411.811 143.044 412.867 142.758L414.413 142.247L415.187 141.992L415.997 141.819C417.053 141.533 418.147 141.328 419.202 141.043C420.296 140.838 421.345 140.753 422.438 140.549C423.004 140.488 423.532 140.345 424.097 140.284L425.749 140.219L427.401 140.155C427.966 140.094 428.569 140.114 429.09 140.172C430.214 140.251 431.3 140.247 432.424 140.326C433.548 140.404 434.628 140.602 435.789 140.762C436.31 140.82 436.951 140.922 437.472 140.98L439.147 141.399L440.823 141.818L441.62 142.047L442.454 142.357C451.214 145.069 459.281 150.372 465.345 157.78C471.371 165.106 475.238 174.411 475.906 184.29C476.619 194.05 474.341 204.192 469.016 212.862C466.838 216.529 464.072 219.774 461.036 222.648C458.038 225.604 454.503 227.817 451.198 230.319C444.514 235.161 437.913 239.966 431.355 244.651C418.359 254.065 405.653 263.248 393.563 272.05C369.182 289.647 346.821 305.823 327.142 320.08C322.887 320.941 318.691 321.281 314.591 321.182C310.452 321 306.492 320.343 302.79 319.171C299.088 317.999 295.6 316.432 292.403 314.633C289.249 312.715 286.386 310.566 283.931 308.23C283.267 307.644 282.684 307.02 282.102 306.397C281.52 305.774 280.938 305.151 280.355 304.527C279.773 303.904 279.273 303.243 278.809 302.664C278.309 302.004 277.808 301.343 277.345 300.764C276.845 300.103 276.382 299.524 275.963 298.826C275.544 298.128 275.163 297.511 274.744 296.813C274.326 296.115 274.026 295.461 273.645 294.844C273.263 294.228 272.926 293.492 272.627 292.839C270.074 287.481 268.645 282.202 268.006 277.353C267.367 272.503 267.555 268.165 268.207 264.405C268.776 260.683 269.765 257.659 270.852 255.282C271.074 254.686 271.295 254.09 271.592 253.658C271.85 253.143 272.147 252.711 272.324 252.234C272.539 251.839 272.753 251.444 272.968 251.049C273.22 250.736 273.353 250.378 273.524 250.103C274.331 248.843 274.672 248.291 274.672 248.291C274.672 248.291 274.331 248.843 273.568 249.983C273.398 250.259 273.145 250.572 273.012 250.93C272.798 251.325 272.583 251.72 272.368 252.115C272.154 252.51 271.895 253.024 271.636 253.539C271.377 254.053 271.155 254.649 270.934 255.245C269.928 257.584 268.977 260.69 268.408 264.412C267.838 268.134 267.649 272.473 268.288 277.322C268.927 282.172 270.357 287.451 272.872 292.726C273.172 293.38 273.471 294.034 273.89 294.732C274.271 295.349 274.608 296.084 274.99 296.701C275.371 297.317 275.79 298.015 276.29 298.676C276.709 299.374 277.172 299.953 277.672 300.614C278.173 301.275 278.636 301.854 279.136 302.514C279.637 303.175 280.182 303.717 280.682 304.378C281.183 305.038 281.765 305.662 282.392 306.166C282.974 306.789 283.556 307.412 284.22 307.998C286.757 310.297 289.539 312.484 292.692 314.402C295.89 316.2 299.295 317.805 302.997 318.977C306.744 320.029 310.623 320.725 314.761 320.906C318.862 321.005 323.02 320.583 327.193 319.76L327.111 319.797C346.791 305.541 369.151 289.364 393.495 271.686C405.666 262.847 418.291 253.701 431.287 244.286C437.807 239.519 444.446 234.797 451.13 229.955C454.472 227.534 457.97 225.239 460.887 222.321C463.922 219.447 466.607 216.24 468.784 212.572C473.984 204.059 476.299 193.999 475.624 184.321C474.948 174.642 471.082 165.338 465.093 158.093C459.185 150.812 451.118 145.508 442.478 142.84L441.681 142.612L440.884 142.384L439.209 141.965L437.533 141.546C436.974 141.406 436.453 141.348 435.85 141.327C434.689 141.167 433.609 140.97 432.486 140.891C431.362 140.813 430.275 140.816 429.151 140.737C428.63 140.679 428.065 140.741 427.462 140.72L425.81 140.785L424.158 140.849C423.593 140.91 423.027 140.972 422.581 141.077C421.488 141.281 420.439 141.366 419.345 141.57C418.289 141.856 417.196 142.061 416.222 142.309L415.411 142.483L414.638 142.738L413.092 143.249C412.073 143.616 411.017 143.902 410.036 144.352C409.055 144.801 408.074 145.25 407.175 145.662C406.231 146.193 405.37 146.687 404.426 147.218L403.111 148.018C402.658 148.325 402.287 148.594 401.834 148.9C401.009 149.476 400.103 150.089 399.279 150.664C397.586 151.934 396.012 153.248 394.401 154.481C387.911 159.53 381.667 164.468 375.548 169.248C363.394 178.772 352.063 187.72 341.727 195.817C321.056 212.011 304.313 225.12 292.737 234.181C286.99 238.692 282.483 242.24 279.424 244.631C277.894 245.826 276.736 246.752 275.912 247.327C275.125 247.985 274.672 248.291 274.672 248.291Z" fill="black" fill-opacity="0.25"/>
<path d="M327.146 319.879L327.933 371.04C327.933 371.04 412.495 322.019 387.054 276.415L327.146 319.879Z" fill="#FF9123"/>
<path d="M327.146 319.879L327.933 371.04C327.933 371.04 412.495 322.019 387.054 276.415L327.146 319.879Z" fill="url(#paint1_linear_588_6960)" fill-opacity="0.5"/>
<path d="M334.25 201.517C334.25 201.517 272.83 179.714 226.767 221.878L274.753 248.254L334.25 201.517Z" fill="#FF9123"/>
<path d="M334.25 201.517C334.25 201.517 272.83 179.714 226.767 221.878L274.753 248.254L334.25 201.517Z" fill="url(#paint2_linear_588_6960)" fill-opacity="0.5"/>
<path d="M403.516 147.831C427.924 152.967 463.126 200.23 461.898 220.867C506.719 182.04 497.179 132.713 497.179 132.713C443.867 115.007 403.516 147.831 403.516 147.831Z" fill="#FF9123"/>
<path d="M403.516 147.831C427.924 152.967 463.126 200.23 461.898 220.867C506.719 182.04 497.179 132.713 497.179 132.713C443.867 115.007 403.516 147.831 403.516 147.831Z" fill="url(#paint3_linear_588_6960)" fill-opacity="0.5"/>
<path d="M288.798 323.105C290.511 317.345 291.784 312.641 291.641 312.599C291.498 312.556 289.994 317.191 288.281 322.951C286.568 328.711 285.295 333.414 285.438 333.457C285.581 333.499 287.085 328.864 288.798 323.105Z" fill="black" fill-opacity="0.25"/>
<path d="M497.263 132.676C497.263 132.676 497.256 132.876 497.198 133.397C497.14 133.919 497.038 134.559 496.966 135.482C496.894 136.405 496.734 137.566 496.529 138.846C496.427 139.486 496.362 140.208 496.253 141.05C496.106 141.809 495.997 142.65 495.806 143.529C495.506 145.249 495.199 147.169 494.765 149.247C494.213 151.28 493.654 153.514 493.088 155.948C492.727 157.103 492.321 158.376 491.915 159.65C491.51 160.924 491.104 162.197 490.617 163.508C489.56 166.168 488.541 168.909 487.158 171.719C484.51 177.382 480.97 183.256 476.387 189.014C474.155 191.915 471.566 194.684 468.776 197.445C467.403 198.766 465.867 200.162 464.531 201.565C463.076 202.924 461.383 204.194 459.772 205.426C446.636 215.4 431.947 226.084 416.635 237.351C385.928 259.922 358.035 280.216 337.858 294.898C327.751 302.198 319.582 308.115 313.968 312.269C311.123 314.265 308.977 315.841 307.41 316.955C306.668 317.493 306.051 317.874 305.68 318.143C305.308 318.412 305.063 318.524 305.063 318.524C305.063 318.524 305.271 318.33 305.642 318.061C306.014 317.792 306.593 317.329 307.335 316.791C308.821 315.715 311.048 314.101 313.774 312.062C319.388 307.908 327.557 301.99 337.626 294.608C357.766 279.844 385.622 259.469 416.328 236.898C431.641 225.631 446.292 214.865 459.466 204.973C461.159 203.703 462.726 202.59 464.143 201.15C465.56 199.709 467.052 198.432 468.507 197.074C471.335 194.394 473.886 191.544 476.156 188.724C480.775 183.048 484.278 177.092 486.964 171.511C488.385 168.783 489.448 165.923 490.46 163.382C490.948 162.071 491.353 160.798 491.759 159.524C492.164 158.25 492.608 157.059 492.969 155.904C493.572 153.551 494.213 151.28 494.684 149.284C495.117 147.207 495.424 145.286 495.843 143.611C496.034 142.732 496.181 141.972 496.328 141.213C496.474 140.454 496.539 139.732 496.641 139.091C496.809 137.729 497.006 136.65 497.078 135.727C497.15 134.804 497.334 134.126 497.31 133.643C497.174 132.914 497.263 132.676 497.263 132.676Z" fill="black" fill-opacity="0.25"/>
<path d="M396.992 269.391C396.992 269.391 396.873 269.347 396.754 269.303C396.597 269.177 396.359 269.088 396.121 268.999C395.487 268.696 394.697 268.267 393.631 267.668C393.117 267.409 392.484 267.105 391.894 266.683C391.224 266.298 390.553 265.913 389.844 265.447C388.428 264.513 386.691 263.529 384.924 262.262C384.059 261.669 383.156 260.995 382.135 260.276C381.151 259.639 380.255 258.764 379.233 258.045C377.235 256.488 375.205 254.649 373.057 252.766C368.885 248.842 364.578 244.189 360.574 238.903C356.57 233.618 353.295 228.196 350.572 223.114C349.292 220.536 348.087 218.121 347.082 215.713C346.64 214.532 346.034 213.425 345.711 212.287C345.306 211.187 344.901 210.087 344.533 209.069C343.798 207.032 343.22 205.122 342.753 203.456C342.498 202.683 342.325 201.873 342.107 201.181C341.971 200.453 341.79 199.843 341.692 199.196C341.45 198.021 341.239 197.129 341.141 196.482C341.11 196.199 340.998 195.954 341.005 195.753C340.93 195.589 340.974 195.47 340.974 195.47C340.974 195.47 341.012 195.552 341.086 195.715C341.161 195.879 341.192 196.162 341.304 196.407C341.485 197.016 341.733 197.99 341.937 199.084C342.117 199.693 342.216 200.34 342.434 201.032C342.652 201.723 342.907 202.496 343.08 203.307C343.628 204.934 344.088 206.801 344.904 208.8C345.272 209.818 345.677 210.918 346.082 212.018C346.487 213.118 347.011 214.263 347.536 215.407C348.502 217.733 349.707 220.148 350.987 222.726C353.673 227.726 356.948 233.148 360.952 238.434C364.956 243.719 369.226 248.29 373.397 252.214C375.546 254.098 377.494 255.974 379.492 257.531C380.47 258.369 381.41 259.125 382.312 259.799C383.214 260.474 384.199 261.111 385.101 261.785C386.786 263.09 388.523 264.074 389.94 265.007C390.648 265.474 391.356 265.941 391.908 266.281C392.579 266.666 393.131 267.007 393.645 267.266C394.711 267.865 395.501 268.294 396.053 268.635C396.328 268.805 396.485 268.931 396.723 269.02C396.955 269.309 397.074 269.354 396.992 269.391Z" fill="#263238"/>
<path d="M410.464 223.959C422.255 218.577 427.77 205.353 422.781 194.422C417.792 183.49 404.188 178.992 392.397 184.373C380.606 189.755 375.091 202.979 380.08 213.91C385.069 224.841 398.672 229.34 410.464 223.959Z" fill="#FCFCFC"/>
<path d="M422.806 194.473C422.806 194.473 422.768 194.391 422.656 194.146C422.544 193.901 422.312 193.611 422.125 193.203C422.013 192.957 421.9 192.712 421.706 192.504C421.512 192.297 421.362 191.97 421.168 191.762C420.937 191.472 420.787 191.145 420.555 190.856C420.324 190.567 420.055 190.195 419.704 189.861C419.166 189.119 418.383 188.489 417.644 187.74C416.824 187.028 415.884 186.272 414.818 185.672C412.649 184.391 409.952 183.254 406.832 182.705C403.713 182.156 400.089 182.234 396.475 183.197C395.62 183.49 394.646 183.739 393.747 184.15C393.338 184.338 392.81 184.481 392.401 184.668C391.993 184.855 391.539 185.162 391.049 185.386L390.395 185.686L389.778 186.067C389.325 186.374 388.954 186.643 388.464 186.867C388.011 187.174 387.677 187.524 387.224 187.831L386.645 188.294L386.103 188.839C383.03 191.631 380.482 195.567 379.326 199.953C378.088 204.377 378.482 209.338 380.422 213.79C382.526 218.166 386.026 221.705 390.184 223.657C394.298 225.728 398.824 226.324 403.027 225.783L403.793 225.729L404.522 225.593C405.05 225.45 405.534 225.426 406.062 225.283C406.59 225.14 407.036 225.035 407.526 224.81L408.218 224.592L408.872 224.292C409.362 224.068 409.808 223.962 410.299 223.738C410.708 223.55 411.198 223.326 411.569 223.057C412.469 222.645 413.211 222.107 414.073 221.613C417.2 219.587 419.588 216.812 421.248 214.173C422.869 211.452 423.851 208.629 424.216 206.188C424.458 204.989 424.499 203.784 424.496 202.697C424.411 201.648 424.446 200.644 424.235 199.751C424.129 199.305 424.143 198.904 424.038 198.457C423.97 198.093 423.82 197.766 423.752 197.402C423.684 197.037 423.571 196.792 423.541 196.509C423.429 196.264 423.316 196.019 423.286 195.736C423.098 195.328 423.03 194.963 422.918 194.718C422.761 194.592 422.806 194.473 422.806 194.473C422.806 194.473 422.843 194.555 422.956 194.8C423.068 195.045 423.218 195.372 423.405 195.781C423.517 196.026 423.629 196.271 423.742 196.516C423.854 196.761 423.922 197.126 423.99 197.49C424.058 197.855 424.208 198.182 424.276 198.546C424.344 198.91 424.449 199.356 424.473 199.84C424.684 200.732 424.65 201.737 424.772 202.868C424.775 203.954 424.734 205.159 424.529 206.44C424.12 209.001 423.22 211.786 421.554 214.626C419.85 217.384 417.544 220.122 414.373 222.267C413.593 222.723 412.768 223.299 411.869 223.71C411.46 223.898 411.007 224.204 410.517 224.429C410.026 224.654 409.58 224.759 409.089 224.984L408.435 225.283L407.744 225.501C407.216 225.644 406.77 225.75 406.279 225.974C405.752 226.117 405.268 226.141 404.74 226.284L403.929 226.458L403.163 226.512C398.923 226.971 394.315 226.412 390.082 224.297C385.805 222.301 382.267 218.68 380.126 214.222C378.148 209.689 377.761 204.526 378.999 200.103C380.199 195.598 382.747 191.661 385.902 188.832L386.444 188.287L387.104 187.787C387.557 187.48 387.891 187.129 388.344 186.823C388.797 186.517 389.169 186.248 389.659 186.023L390.276 185.642L390.93 185.342C391.42 185.117 391.829 184.93 392.282 184.624C392.773 184.399 393.181 184.212 393.709 184.069C394.608 183.657 395.583 183.408 396.475 183.197C400.171 182.197 403.832 182.201 406.951 182.749C410.153 183.26 412.887 184.48 415.094 185.842C416.197 186.524 417.137 187.28 417.958 187.992C418.696 188.741 419.517 189.453 420.055 190.195C420.324 190.567 420.637 190.819 420.906 191.19C421.138 191.479 421.287 191.806 421.519 192.096C421.75 192.385 421.863 192.63 422.094 192.92C422.207 193.165 422.319 193.41 422.431 193.656C422.619 194.064 422.768 194.391 422.881 194.636C422.731 194.309 422.806 194.473 422.806 194.473Z" fill="#263238"/>
<g opacity="0.6">
<g opacity="0.25">
<g opacity="0.25">
<path opacity="0.25" d="M187.606 379.944C185.722 382.093 182.867 383.203 180.139 384.156C177.373 385.027 174.57 385.817 172.178 387.506C168.547 390.158 166.38 394.711 162.299 396.383C156.508 398.64 150.386 394.127 144.201 393.796C136.653 393.298 129.496 399.049 121.82 395.247C117.229 392.999 114.342 387.992 114.759 382.857C115.354 374.871 123.042 370.063 130.467 369.431C136.843 368.883 143.174 370.829 149.223 372.805C151.294 373.438 153.402 374.154 155.472 374.788C162.205 376.747 169.518 375.869 175.595 372.294C178.552 370.544 181.988 370.057 185.22 370.851C186.099 371.042 186.927 371.553 187.591 372.139C188.255 372.725 188.793 373.467 189.085 374.322C189.977 376.485 189.193 378.228 187.606 379.944Z" fill="#FFA711"/>
</g>
</g>
<g opacity="0.8">
<g opacity="0.8">
<g opacity="0.8">
<path opacity="0.8" d="M187.606 379.944C185.722 382.093 182.867 383.203 180.139 384.156C177.373 385.027 174.57 385.817 172.178 387.506C168.547 390.158 166.38 394.711 162.299 396.383C156.508 398.64 150.386 394.127 144.201 393.796C136.653 393.298 129.496 399.049 121.82 395.247C117.229 392.999 114.342 387.992 114.759 382.857C115.354 374.871 123.042 370.063 130.467 369.431C136.843 368.883 143.174 370.829 149.223 372.805C151.294 373.438 153.402 374.154 155.472 374.788C162.205 376.747 169.518 375.869 175.595 372.294C178.552 370.544 181.988 370.057 185.22 370.851C186.099 371.042 186.927 371.553 187.591 372.139C188.255 372.725 188.793 373.467 189.085 374.322C189.977 376.485 189.193 378.228 187.606 379.944Z" fill="#FFA711"/>
</g>
</g>
</g>
</g>
<g opacity="0.6">
<g opacity="0.25">
<g opacity="0.25">
<path opacity="0.25" d="M133.538 409.163C132.238 407.188 128.569 407.385 126.474 408.641C124.379 409.897 123.061 411.985 121.786 413.953C120.43 415.959 118.992 418.002 116.785 419.013C114.377 420.018 111.696 419.564 109.115 419.758C106.533 419.952 103.627 421.382 103.456 424.031C103.326 425.475 103.874 427.103 105.09 428.03C106.186 428.912 107.409 429.637 108.802 430.087C112.184 431.208 116.233 431.627 119.783 431.386C124.544 430.985 128.942 428.278 131.453 424.26C133.927 420.16 137.1 413.267 133.538 409.163Z" fill="#FFA711"/>
</g>
</g>
<g opacity="0.8">
<g opacity="0.8">
<g opacity="0.8">
<path opacity="0.8" d="M133.538 409.163C132.238 407.188 128.569 407.385 126.474 408.641C124.379 409.897 123.061 411.985 121.786 413.953C120.43 415.959 118.992 418.002 116.785 419.013C114.377 420.018 111.696 419.564 109.115 419.758C106.533 419.952 103.627 421.382 103.456 424.031C103.326 425.475 103.874 427.103 105.09 428.03C106.186 428.912 107.409 429.637 108.802 430.087C112.184 431.208 116.233 431.627 119.783 431.386C124.544 430.985 128.942 428.278 131.453 424.26C133.927 420.16 137.1 413.267 133.538 409.163Z" fill="#FFA711"/>
</g>
</g>
</g>
</g>
<path d="M305.917 186.311C298.9 189.13 297.908 195.815 294.552 198.638C291.196 201.46 287.102 203.534 282.749 203.748C277.109 203.958 271.817 201.042 266.218 200.047C255.027 197.856 242.75 203.875 237.734 214.084C239.667 218.737 245.239 220.535 250.16 221.347C255.082 222.158 267.35 221.087 270.643 224.82C273.121 227.64 267.364 233.639 270.473 235.676C273.463 237.669 279.356 234.772 282.282 232.739C301.11 219.862 296.843 229.332 302.876 225.876C302.876 225.876 314.584 216.458 324.262 209.948" fill="#5E5B57"/>
<path d="M430.147 275.267L416.41 262.77L427.827 250.122L441.607 267.248L430.801 274.968" fill="#FFBE9D"/>
<path d="M440.483 264.796L450.868 276.454C450.868 276.454 466.141 269.853 468.327 271.818L446.531 292.68L429.626 275.208L440.483 264.796Z" fill="#FF9123"/>
<path d="M440.483 264.796L450.868 276.454C450.868 276.454 466.141 269.853 468.327 271.818L446.531 292.68L429.626 275.208L440.483 264.796Z" fill="url(#paint4_linear_588_6960)" fill-opacity="0.5"/>
<g opacity="0.6">
<g opacity="0.6">
<g opacity="0.6">
<g opacity="0.6">
<g opacity="0.6">
<path opacity="0.6" d="M443.157 281.865C442.816 282.416 443.034 283.108 443.504 283.486C444.055 283.826 444.784 283.69 445.125 283.138C445.465 282.587 445.255 281.695 444.74 281.436C444.226 281.177 443.334 281.388 443.113 281.984" fill="white"/>
</g>
</g>
</g>
</g>
</g>
<g opacity="0.6">
<g opacity="0.6">
<g opacity="0.6">
<g opacity="0.6">
<path opacity="0.6" d="M446.41 292.637L444.782 290.812L466.286 271.467C466.286 271.467 467.631 270.95 468.207 271.774L446.41 292.637Z" fill="#383F42"/>
</g>
</g>
</g>
</g>
<path d="M451.044 275.978C451.119 276.141 450.659 276.648 450.468 277.527C450.24 278.324 450.413 279.134 450.294 279.09C450.13 279.165 449.756 278.347 449.991 277.35C450.226 276.352 450.969 275.814 451.044 275.978Z" fill="#263238"/>
<path d="M454.225 274.718C454.344 274.762 454.041 275.396 454.133 276.243C454.187 277.01 454.568 277.626 454.405 277.701C454.361 277.82 453.615 277.272 453.568 276.305C453.564 275.218 454.188 274.636 454.225 274.718Z" fill="#263238"/>
<path d="M458.158 276.179C458.114 276.298 457.443 275.914 457.151 275.059C456.858 274.204 457.124 273.489 457.243 273.533C457.362 273.578 457.342 274.18 457.559 274.872C457.896 275.607 458.24 276.142 458.158 276.179Z" fill="#263238"/>
<path d="M448.351 273.553C448.426 273.716 447.772 274.016 447.186 274.68C446.563 275.262 446.379 275.939 446.178 275.932C446.059 275.888 446.086 275.085 446.836 274.346C447.548 273.525 448.395 273.434 448.351 273.553Z" fill="#263238"/>
<path d="M446.295 271.23C446.333 271.312 445.955 271.782 445.175 272.238C444.804 272.507 444.313 272.731 443.741 272.993C443.496 273.106 443.131 273.174 442.767 273.242C442.603 273.317 442.403 273.31 442.202 273.303C442.001 273.296 441.606 273.082 441.575 272.799C441.545 272.516 441.633 272.278 441.841 272.084C441.967 271.927 442.13 271.853 442.294 271.778C442.621 271.628 442.948 271.478 443.193 271.366C443.803 271.185 444.331 271.042 444.852 271.1C445.819 271.053 446.333 271.312 446.37 271.393C446.326 271.513 445.768 271.373 444.92 271.465C444.436 271.488 443.99 271.594 443.418 271.856C443.173 271.968 442.846 272.118 442.6 272.231C442.273 272.38 442.066 272.574 442.14 272.738C442.178 272.82 442.178 272.82 442.297 272.864C442.416 272.908 442.58 272.833 442.699 272.877C442.982 272.847 443.309 272.697 443.591 272.667C444.119 272.524 444.609 272.299 445.018 272.112C445.761 271.574 446.176 271.186 446.295 271.23Z" fill="#263238"/>
<path d="M446.245 271.549C446.245 271.549 445.687 271.41 444.904 270.78C444.553 270.446 444.165 270.03 443.903 269.458C443.753 269.131 443.641 268.886 443.573 268.522C443.505 268.157 443.4 267.711 443.696 267.279C443.904 267.085 444.268 267.017 444.425 267.143C444.663 267.231 444.82 267.357 444.939 267.402C445.252 267.654 445.446 267.862 445.677 268.151C446.021 268.686 446.283 269.258 446.307 269.741C446.436 270.671 446.096 271.222 446.096 271.222C445.976 271.178 446.235 270.664 446.024 269.772C445.919 269.326 445.694 268.835 445.388 268.382C445.194 268.175 445 267.967 444.806 267.759C444.53 267.589 444.292 267.5 444.21 267.538C444.084 267.694 444.115 267.977 444.145 268.26C444.176 268.542 444.325 268.869 444.438 269.114C444.662 269.605 444.969 270.058 445.238 270.429C445.776 271.171 446.327 271.512 446.245 271.549Z" fill="#263238"/>
<path d="M307.324 186.359C307.324 186.359 306.22 216.335 317.098 218.274C327.976 220.213 379.855 231.553 379.855 231.553L423.634 275.085L438.665 259.102L395.1 204.594L340.242 187.399L307.324 186.359Z" fill="#4A4743"/>
<path d="M379.896 219.767C380.016 219.811 379.576 222.089 379.68 224.909C379.785 227.729 380.514 229.966 380.432 230.004C380.35 230.041 379.339 227.834 379.278 224.895C379.136 221.994 379.777 219.722 379.896 219.767Z" fill="black" fill-opacity="0.25"/>
<path d="M376.644 220.662C376.808 220.587 377.171 222.893 378.169 225.502C379.084 228.148 380.266 230.079 380.184 230.117C380.102 230.154 378.675 228.335 377.722 225.607C376.688 222.917 376.525 220.618 376.644 220.662Z" fill="black" fill-opacity="0.25"/>
<path d="M425.1 273.325C425.1 273.325 424.981 273.28 424.906 273.117C424.75 272.991 424.518 272.701 424.205 272.449C423.623 271.826 422.765 271.032 421.675 269.949C419.496 267.783 416.227 264.534 412.257 260.617C408.249 256.618 403.502 251.87 398.381 246.305C397.06 244.932 395.821 243.522 394.425 241.986C393.148 240.494 391.752 238.958 390.312 237.541C387.312 234.663 383.985 231.935 380.539 229.163L380.658 229.207C377.828 228.427 374.759 227.558 371.609 226.726C369.218 226.042 366.783 225.476 364.467 224.955C362.07 224.471 359.754 223.949 357.438 223.428C352.806 222.385 348.413 221.431 344.176 220.603C339.939 219.775 335.852 219.274 332.055 218.541C328.295 217.89 324.78 217.127 321.681 215.975C320.132 215.4 318.746 214.749 317.486 213.942C316.226 213.134 315.174 212.133 314.404 211.101C312.783 209.075 311.973 206.875 311.551 205.09C311.13 203.305 310.977 201.892 310.929 200.925C310.906 200.441 310.919 200.039 310.926 199.839C310.896 199.556 310.94 199.437 310.94 199.437C310.94 199.437 310.977 199.518 311.008 199.801C311.038 200.084 311.069 200.366 311.093 200.85C311.14 201.817 311.375 203.193 311.797 204.978C312.3 206.725 313.073 208.843 314.694 210.87C315.545 211.864 316.478 212.821 317.738 213.628C318.998 214.436 320.384 215.086 321.933 215.662C324.995 216.732 328.51 217.495 332.27 218.146C336.03 218.797 340.117 219.298 344.353 220.126C348.59 220.954 353.065 221.871 357.615 222.951C359.931 223.473 362.247 223.994 364.645 224.478C367.042 224.962 369.433 225.647 371.786 226.25C374.855 227.118 377.886 227.906 380.835 228.73C384.363 231.465 387.608 234.231 390.645 237.191C392.168 238.57 393.482 240.144 394.796 241.717C396.073 243.209 397.431 244.663 398.753 246.036C403.955 251.564 408.62 256.349 412.546 260.385C416.472 264.421 419.704 267.589 421.92 269.837C423.01 270.92 423.824 271.833 424.45 272.337C424.682 272.626 424.958 272.797 425.07 273.042C424.981 273.28 425.1 273.325 425.1 273.325Z" fill="black" fill-opacity="0.25"/>
<path d="M326.086 187.158L351.328 179.649L364.932 177.175L350.988 190.782L326.086 187.158Z" fill="#36332F"/>
<path d="M296.199 198.774C296.199 198.774 296.148 199.094 295.971 199.57C295.793 200.047 295.527 200.762 295.054 201.672C294.232 203.334 292.825 205.659 290.822 207.764C288.818 209.868 286.71 211.527 285.068 212.477C284.206 212.97 283.589 213.352 283.061 213.495C282.571 213.719 282.325 213.832 282.288 213.75C282.25 213.668 283.313 213.181 284.88 212.068C286.485 211.036 288.512 209.415 290.434 207.348C292.355 205.281 293.8 203.037 294.741 201.42C295.599 199.839 296.08 198.729 296.199 198.774Z" fill="black" fill-opacity="0.25"/>
<path d="M297.251 156.164L308.474 192.754C308.474 192.754 323.23 184.808 335.669 183.461C348.026 182.151 354.573 178.955 354.573 178.955L342.555 158.55L342.517 137.307L355.468 156.294L379.77 165.731L389.356 158.373L369.701 144.83L344.486 110.298C344.486 110.298 344.486 110.298 344.448 110.216C342.334 107.328 339.344 105.335 335.918 104.333L335.478 104.238L315.173 102.662L309.815 105.215C303.922 108.113 299.561 110.901 296.799 112.859C294.244 114.623 292.183 117.248 291.194 120.272C290.56 122.343 290.042 125.745 290.654 129.024L297.251 156.164Z" fill="#FF9123"/>
<path d="M297.251 156.164L308.474 192.754C308.474 192.754 323.23 184.808 335.669 183.461C348.026 182.151 354.573 178.955 354.573 178.955L342.555 158.55L342.517 137.307L355.468 156.294L379.77 165.731L389.356 158.373L369.701 144.83L344.486 110.298C344.486 110.298 344.486 110.298 344.448 110.216C342.334 107.328 339.344 105.335 335.918 104.333L335.478 104.238L315.173 102.662L309.815 105.215C303.922 108.113 299.561 110.901 296.799 112.859C294.244 114.623 292.183 117.248 291.194 120.272C290.56 122.343 290.042 125.745 290.654 129.024L297.251 156.164Z" fill="url(#paint5_linear_588_6960)" fill-opacity="0.5"/>
<path d="M342.081 118.222C342.081 118.222 342.186 118.668 342.196 119.554C342.206 120.439 342.284 121.689 342.318 123.058C342.378 125.997 342.479 130.104 342.567 134.613C342.654 139.122 342.636 143.185 342.652 146.243C342.604 147.65 342.645 148.818 342.692 149.785C342.665 150.589 342.688 151.073 342.688 151.073C342.688 151.073 342.583 150.626 342.573 149.741C342.481 148.893 342.441 147.725 342.451 146.237C342.391 143.298 342.29 139.19 342.165 134.6C342.078 130.091 342.058 125.946 342.079 122.969C342.127 121.563 342.087 120.395 342.159 119.472C341.985 118.661 342.081 118.222 342.081 118.222Z" fill="black" fill-opacity="0.25"/>
<path d="M293.609 133.108C300.804 140.394 316.065 157.73 322.528 164.065C324.513 166.024 327.002 167.356 329.676 168.01L372.973 176.161L376.001 162.908L340.654 150.52L309.475 117.435C305.198 113.065 296.203 113.725 292.69 118.795C290.104 122.65 290.303 129.777 293.609 133.108Z" fill="#FF9123"/>
<path d="M293.609 133.108C300.804 140.394 316.065 157.73 322.528 164.065C324.513 166.024 327.002 167.356 329.676 168.01L372.973 176.161L376.001 162.908L340.654 150.52L309.475 117.435C305.198 113.065 296.203 113.725 292.69 118.795C290.104 122.65 290.303 129.777 293.609 133.108Z" fill="url(#paint6_linear_588_6960)" fill-opacity="0.5"/>
<path d="M310.916 118.852C310.916 118.852 311.11 119.059 311.461 119.393C311.849 119.809 312.394 120.35 313.096 121.018C314.492 122.554 316.552 124.676 319.194 127.421C324.397 132.949 331.891 140.888 340.901 150.408L340.781 150.364C351.158 154.016 363.166 158.206 376.128 162.751L376.366 162.839L376.36 163.04C375.691 166.115 374.897 169.347 374.184 172.541C373.898 173.859 373.574 175.096 373.332 176.294L373.243 176.533L373.005 176.444C361.136 174.069 349.863 171.915 339.632 169.877C337.115 169.349 334.636 168.902 332.119 168.374C331.479 168.272 330.92 168.132 330.28 168.03C329.721 167.89 329.081 167.788 328.485 167.567C327.331 167.206 326.302 166.688 325.318 166.051C324.334 165.414 323.476 164.62 322.655 163.908C321.879 163.077 321.058 162.365 320.319 161.616C318.841 160.117 317.364 158.619 315.961 157.284C310.438 151.705 306.212 147.015 303.264 143.817C301.83 142.199 300.666 140.952 299.889 140.121C299.501 139.706 299.232 139.334 299.038 139.127C298.844 138.919 298.769 138.755 298.769 138.755C298.769 138.755 298.926 138.881 299.12 139.089C299.314 139.297 299.665 139.631 300.053 140.046C300.829 140.877 301.994 142.124 303.509 143.704C306.458 146.902 310.847 151.517 316.288 157.134C317.609 158.506 319.168 159.968 320.646 161.466C321.385 162.216 322.206 162.927 322.982 163.759C323.758 164.59 324.579 165.301 325.563 165.938C326.547 166.575 327.576 167.093 328.693 167.373C329.289 167.594 329.81 167.652 330.45 167.754C331.009 167.894 331.649 167.996 332.289 168.098C334.687 168.582 337.166 169.029 339.765 169.52C349.996 171.557 361.269 173.711 373.138 176.086L372.848 176.318C373.09 175.119 373.414 173.883 373.7 172.565C374.457 169.252 375.17 166.057 375.876 163.064L376.026 163.391C363.064 158.846 351.018 154.574 340.761 150.966L340.723 150.885C331.796 141.327 324.383 133.351 319.18 127.823C316.62 125.04 314.56 122.918 313.164 121.382C312.506 120.595 311.962 120.054 311.574 119.638C311.11 119.059 310.916 118.852 310.916 118.852Z" fill="black" fill-opacity="0.25"/>
<path d="M305.601 115.452C305.557 115.572 304.804 115.224 303.442 115.057C302.08 114.89 300.108 114.903 298.19 115.683C296.272 116.463 294.78 117.739 293.898 118.836C293.016 119.932 292.668 120.685 292.549 120.641C292.549 120.641 292.74 119.762 293.585 118.584C294.43 117.406 295.884 116.047 297.965 115.193C299.965 114.376 302.056 114.406 303.456 114.655C304.811 115.023 305.601 115.452 305.601 115.452Z" fill="black" fill-opacity="0.25"/>
<path d="M370.62 144.902C370.695 145.066 369.067 145.614 367.456 146.846C365.845 148.078 364.949 149.576 364.793 149.45C364.673 149.406 365.413 147.782 367.187 146.475C368.843 145.123 370.583 144.82 370.62 144.902Z" fill="black" fill-opacity="0.25"/>
<g opacity="0.4">
<g opacity="0.4">
<g opacity="0.4">
<path opacity="0.4" d="M299.898 139.92C299.898 139.92 306.789 152.586 310.459 158.223C314.129 163.859 318.936 169.172 325.253 171.519C331.571 173.867 338.682 172.982 345.375 171.399C342.739 170.827 340.147 170.135 337.556 169.444C334.167 168.524 329.753 168.172 326.668 166.619C320.736 163.601 317.148 157.927 312.565 153.105C308.332 148.616 304.049 144.447 299.898 139.92Z" fill="black"/>
</g>
</g>
</g>
<g opacity="0.4">
<g opacity="0.4">
<g opacity="0.4">
<path opacity="0.4" d="M349.451 147.481C348.022 139.828 344.941 132.24 341.966 125.098C342.517 127.812 341.938 130.649 342.124 133.432C342.24 134.763 342.44 137.144 342.44 137.144L349.376 147.318" fill="black"/>
</g>
</g>
</g>
<path d="M301.422 71.7795C301.82 73.0804 301.363 74.6741 300.406 75.607C299.864 76.1518 299.047 76.5263 298.505 77.0711C297.963 77.6159 297.609 78.5693 298.109 79.23C298.416 79.683 299.093 79.867 299.652 80.0067C300.21 80.1464 300.8 80.5687 300.861 81.1341C300.878 81.8185 300.06 82.193 299.876 82.8707C299.692 83.5483 300.111 84.2465 300.744 84.5497C301.377 84.8528 302.099 84.9176 302.74 85.0199C303.38 85.1221 304.177 85.3504 304.558 85.9668" fill="#4A4743"/>
<path d="M331.252 71.2654C331.335 66.4805 327.736 62.2945 323.414 60.4175C319.092 58.5404 314.062 58.5704 309.45 59.2986C308.803 59.3973 307.992 59.5709 307.808 60.2486C307.668 60.8071 308.049 61.4235 308.564 61.6824C309.078 61.9413 309.763 61.9244 310.328 61.8631C308.237 61.8322 306.139 62.0022 304.258 62.8636C303.604 63.1632 302.988 63.5445 302.565 64.1337C302.143 64.7228 302.153 65.6082 302.578 66.1055C303.041 66.6845 304.09 66.5995 304.394 65.9661C302.52 66.6265 300.909 67.8592 299.805 69.5516C299.042 70.6924 298.622 72.3679 299.429 73.4816C299.93 74.1424 300.764 74.4524 301.346 75.0757C302.354 76.1963 302.337 77.8855 302.408 79.3363C302.571 81.6351 303.091 84.0667 304.392 86.0422C305.692 88.0176 307.773 89.5368 310.14 89.738" fill="#4A4743"/>
<path d="M320.635 115.881C315.413 116.79 310.507 113.203 309.68 107.945L305.421 78.3514C304.149 70.8252 309.3 63.7188 316.858 62.7288L317.543 62.7119C324.603 62.1475 330.994 67.0317 332.123 74.03C333.229 80.5448 334.269 87.7815 334.591 91.2925C335.066 98.5904 327.927 100.279 327.927 100.279L328.427 105.686C328.902 110.611 325.529 115.123 320.635 115.881Z" fill="#FFBE9D"/>
<path d="M327.891 100.198C327.891 100.198 323.279 100.926 318.219 98.2993C318.219 98.2993 320.942 103.381 328.15 102.057L327.891 100.198Z" fill="#EB996E"/>
<path d="M312.366 69.3348C311.352 68.4152 309.574 66.2625 308.301 65.8571C306.989 65.3699 305.749 66.3336 304.673 67.2223C303.596 68.1111 303.064 69.5414 303.136 70.9922C303.56 76.2371 305.262 80.6 306.057 85.5758C306.126 85.9402 306.156 86.2229 306.388 86.5124C306.97 87.1357 307.9 87.0065 308.711 86.8329C310.703 86.2167 311.048 84.3777 311.28 82.2934C311.256 81.8098 310.698 79.2963 310.511 78.8876C309.371 75.7508 309.889 72.3486 312.07 69.7673L312.366 69.3348Z" fill="#4A4743"/>
<path d="M308.169 81.544C308.05 81.4997 303.016 80.4432 303.611 85.4122C304.206 90.3812 309.009 88.7744 309.053 88.6552C309.097 88.536 308.169 81.544 308.169 81.544Z" fill="#FFBE9D"/>
<path d="M307.34 86.8665C307.34 86.8665 307.259 86.904 307.133 87.0606C306.969 87.1354 306.724 87.2478 306.486 87.1592C305.927 87.0195 305.389 86.2771 305.26 85.3475C305.155 84.9015 305.25 84.4623 305.383 84.1048C305.516 83.7473 305.686 83.4715 305.931 83.3592C306.177 83.2468 306.371 83.4546 306.49 83.4989C306.565 83.6623 306.602 83.744 306.602 83.744C306.602 83.744 306.646 83.6249 306.653 83.424C306.616 83.3423 306.541 83.1788 306.422 83.1345C306.303 83.0902 306.064 83.0017 305.901 83.0765C305.536 83.1446 305.24 83.577 305.107 83.9344C305.012 84.3737 304.916 84.8129 304.977 85.3781C305.144 86.3894 305.757 87.2953 306.479 87.3601C306.799 87.4112 307.126 87.2615 307.252 87.1049C307.333 87.0674 307.378 86.9482 307.34 86.8665Z" fill="#EB996E"/>
<path d="M311.1 71.1028C312.552 68.6577 315.096 68.3822 316.942 68.5254C318.788 68.6687 320.576 69.3331 322.504 69.4389C324.35 69.5822 326.424 68.9286 327.327 67.2293C327.971 66.0442 327.781 64.549 327.346 63.1663C326.505 60.6834 324.527 58.5239 322.068 57.4746C321.434 57.1714 320.555 56.9806 320.133 57.5697C319.547 58.2338 320.197 59.2215 320.698 59.8823C320.698 59.8823 312.186 60.518 308.482 64.0935C304.779 67.669 311.1 71.1028 311.1 71.1028Z" fill="#4A4743"/>
<path d="M309.086 59.3662C309.086 59.3662 309.317 59.6557 309.787 60.0338C310.257 60.4118 311.003 60.9602 312.076 61.3588C313.148 61.7573 314.466 62.0436 315.873 62.0914C316.595 62.1562 317.324 62.0201 318.135 61.8465C318.945 61.673 319.718 61.4176 320.566 61.3258C321.414 61.234 322.382 61.1864 323.179 61.4147C323.976 61.643 324.684 62.1096 325.31 62.6137C325.855 63.1552 326.236 63.7716 326.454 64.463C326.672 65.1543 326.651 65.7571 326.549 66.3973C326.389 67.5585 325.758 68.3416 325.261 68.7673C325.053 68.9613 324.808 69.0737 324.645 69.1486C324.481 69.2235 324.399 69.2609 324.399 69.2609C324.399 69.2609 324.726 69.1111 325.104 68.6412C325.52 68.2531 326.031 67.4256 326.229 66.3461C326.287 65.8251 326.308 65.2224 326.127 64.6128C325.947 64.0032 325.566 63.3867 325.058 62.9269C324.551 62.4671 323.88 62.0822 323.083 61.854C322.286 61.6257 321.52 61.6801 320.672 61.7719C319.824 61.8638 319.051 62.1191 318.24 62.2927C317.429 62.4662 316.581 62.5581 315.859 62.4933C314.371 62.4829 313.016 62.1149 311.943 61.7163C310.87 61.3178 310.087 60.6876 309.699 60.2721C309.505 60.0644 309.311 59.8566 309.236 59.6932C309.123 59.4479 309.086 59.3662 309.086 59.3662Z" fill="black" fill-opacity="0.25"/>
<path d="M304.863 62.8844C304.863 62.8844 305.095 63.1739 305.602 63.6337C306.109 64.0935 306.937 64.6044 307.972 64.9213C309.045 65.3199 310.489 65.4494 311.984 65.2589C313.517 65.1502 315.182 64.6838 316.967 64.2618C318.752 63.8398 320.455 63.4552 322.062 63.5099C322.866 63.5372 323.663 63.7655 324.208 64.307C324.752 64.8485 325.052 65.5024 325.113 66.0677C325.31 67.3618 324.837 68.271 324.496 68.8226C324.326 69.0984 324.118 69.2925 323.992 69.4492C323.866 69.6058 323.784 69.6432 323.784 69.6432C323.784 69.6432 324.036 69.33 324.295 68.8158C324.636 68.2642 324.99 67.3107 324.786 66.2175C324.643 65.6897 324.381 65.1175 323.874 64.6577C323.366 64.1979 322.689 64.014 321.967 63.9492C320.478 63.9387 318.775 64.3233 316.991 64.7454C315.206 65.1674 313.54 65.6337 312.008 65.7425C310.393 65.8887 308.949 65.7591 307.839 65.2788C306.685 64.9177 305.901 64.2876 305.394 63.8278C305.163 63.5383 305.006 63.4123 304.931 63.2488C304.9 62.9662 304.863 62.8844 304.863 62.8844Z" fill="black" fill-opacity="0.25"/>
<path d="M375.77 164.991C375.77 164.991 379.905 164.086 381.69 163.664C382.218 163.521 382.752 163.177 383.318 163.116C386.121 162.326 389.48 160.59 390.274 159.731C391.647 158.41 392.583 160.454 391.278 162.139C389.973 163.825 388.948 164.394 388.948 164.394L394.653 165.835C394.973 165.886 395.167 166.094 395.398 166.383L399.831 173.253C400.213 173.87 400.185 174.673 399.688 175.099C399.398 175.331 399.153 175.443 398.72 175.147L399.251 176.09C400.164 177.65 397.898 179.182 396.904 177.66C396.904 177.66 396.904 177.66 396.867 177.578L395.77 179.07C395.77 179.07 395.238 180.5 393.539 179.597C392.115 178.865 387.484 175.448 387.484 175.448C387.484 175.448 374.312 175.845 373.615 173.89L375.77 164.991Z" fill="#FFBE9D"/>
<path d="M396.948 177.541C396.867 177.578 396.485 176.962 395.798 175.892C395.147 174.904 394.109 173.501 393.077 171.897C392.539 171.155 392.001 170.412 391.538 169.833C391.307 169.544 390.987 169.493 390.667 169.441C390.346 169.39 390.026 169.339 389.706 169.288C388.545 169.128 387.785 168.981 387.748 168.9C387.71 168.818 388.514 168.845 389.757 168.968C390.077 169.019 390.398 169.07 390.762 169.002C391.164 169.016 391.641 169.193 391.954 169.445C392.536 170.068 393.074 170.811 393.612 171.553C394.644 173.157 395.563 174.516 396.169 175.623C396.731 176.849 397.03 177.503 396.948 177.541Z" fill="#EB996E"/>
<path d="M398.767 175.027C398.604 175.102 397.16 172.599 394.927 169.666C394.389 168.924 393.851 168.181 393.255 167.96C392.54 167.694 391.825 167.428 391.266 167.289C390.708 167.149 390.268 167.054 389.866 167.04C389.546 166.989 389.383 167.064 389.345 166.982C389.345 166.982 389.471 166.825 389.873 166.839C390.238 166.771 390.677 166.866 391.317 166.969C391.876 167.108 392.635 167.255 393.35 167.521C394.222 167.912 394.678 168.692 395.216 169.435C396.292 170.92 397.13 172.316 397.78 173.304C398.468 174.373 398.767 175.027 398.767 175.027Z" fill="#EB996E"/>
<path d="M386.51 172.237C386.472 172.155 387.194 172.22 388.281 172.217C388.601 172.268 388.884 172.237 389.204 172.288C389.524 172.339 389.926 172.353 390.284 172.486C390.641 172.619 390.992 172.952 391.223 173.242C391.455 173.531 391.768 173.783 392.037 174.155C394.247 176.604 395.905 178.712 395.824 178.749C395.742 178.787 393.876 176.873 391.666 174.424C391.434 174.134 391.084 173.8 390.852 173.511C390.621 173.221 390.389 172.932 390.031 172.799C389.756 172.629 389.473 172.659 389.153 172.608C388.833 172.557 388.512 172.506 388.311 172.499C387.187 172.421 386.51 172.237 386.51 172.237Z" fill="#EB996E"/>
<path d="M383.165 164.076C383.172 163.876 384.987 163.736 387.19 164.012C389.438 164.169 391.151 164.67 391.144 164.871C391.1 164.99 389.38 164.69 387.132 164.533C386.209 164.462 385.287 164.39 384.326 164.237C383.604 164.172 383.202 164.158 383.165 164.076Z" fill="#EB996E"/>
</g>
<defs>
<linearGradient id="paint0_linear_588_6960" x1="457.725" y1="223.406" x2="477.339" y2="245.523" gradientUnits="userSpaceOnUse">
<stop stop-color="#FFCA00"/>
<stop offset="0.791667" stop-color="#FF9000"/>
</linearGradient>
<linearGradient id="paint1_linear_588_6960" x1="328.155" y1="308.172" x2="369.435" y2="357.679" gradientUnits="userSpaceOnUse">
<stop stop-color="#FFCA00"/>
<stop offset="0.791667" stop-color="#FF9000"/>
</linearGradient>
<linearGradient id="paint2_linear_588_6960" x1="253.545" y1="208.214" x2="283.634" y2="250.659" gradientUnits="userSpaceOnUse">
<stop stop-color="#FFCA00"/>
<stop offset="0.791667" stop-color="#FF9000"/>
</linearGradient>
<linearGradient id="paint3_linear_588_6960" x1="428.874" y1="141.084" x2="497.402" y2="204.177" gradientUnits="userSpaceOnUse">
<stop stop-color="#FFCA00"/>
<stop offset="0.791667" stop-color="#FF9000"/>
</linearGradient>
<linearGradient id="paint4_linear_588_6960" x1="437.797" y1="268.194" x2="457.177" y2="289.661" gradientUnits="userSpaceOnUse">
<stop stop-color="#FFCA00"/>
<stop offset="0.791667" stop-color="#FF9000"/>
</linearGradient>
<linearGradient id="paint5_linear_588_6960" x1="300.639" y1="115.991" x2="363.486" y2="175.475" gradientUnits="userSpaceOnUse">
<stop stop-color="#FFCA00"/>
<stop offset="0.791667" stop-color="#FF9000"/>
</linearGradient>
<linearGradient id="paint6_linear_588_6960" x1="305.833" y1="118.158" x2="372.472" y2="166.078" gradientUnits="userSpaceOnUse">
<stop stop-color="#FFCA00"/>
<stop offset="0.791667" stop-color="#FF9000"/>
</linearGradient>
<clipPath id="clip0_588_6960">
<rect width="480" height="291.385" fill="white" transform="translate(0.4375 200.659) rotate(-24.6123)"/>
</clipPath>
</defs>
</svg>
