<svg width="52" height="52" viewBox="0 0 52 52" fill="none" xmlns="http://www.w3.org/2000/svg">
<circle cx="26" cy="26" r="26" fill="#FFF1F7"/>
<path d="M34.9729 36.4006C34.9729 36.1009 34.7743 35.9011 34.3769 35.7013H34.1782L34.3769 32.7043C34.3769 32.1049 34.4763 31.6053 34.4763 31.1058C34.4763 30.6063 34.4763 30.0069 34.5756 29.5074C34.5756 29.0079 34.3769 28.5084 34.0789 28.1088C33.8802 28.0089 33.6816 27.909 33.4829 27.7092L33.3836 27.6093V26.5104C33.3836 24.8121 32.1916 23.6133 30.4035 23.6133H28.4168C28.2182 23.6133 28.2182 23.5134 28.2182 23.3136V22.4145C28.2182 22.3146 28.2182 22.3146 28.3175 22.2147C28.7148 21.7152 29.0128 21.1157 29.1122 20.3165V18.0188C29.1122 17.9189 29.1122 17.819 29.0128 17.7191V17.6192C28.4168 16.0208 26.8275 14.822 25.3375 15.0218C23.4501 15.2216 22.2581 16.6202 22.2581 18.4184V19.817C22.2581 20.6162 22.5561 21.4154 22.7548 21.915V23.3136C22.7548 23.5134 22.7548 23.7132 22.5561 23.7132H19.9734C18.5827 23.913 17.5894 25.1118 17.5894 26.5104V27.8091C17.5894 27.8091 17.49 27.8091 17.3907 27.8091C17.2914 27.8091 17.2914 27.8091 17.192 27.8091C16.4967 28.2087 16.1987 28.908 16.298 29.7072C16.298 30.4065 16.3973 31.1058 16.3973 31.8051C16.3973 32.5045 16.4967 33.2038 16.4967 33.8032L16.596 35.8012C16 35.9011 16 36.3007 16 36.4006C16 36.6004 16 36.7003 16.0993 36.8002C16.1987 36.9001 16.298 37 16.596 37H34.2776C34.5756 37 34.6749 36.9001 34.7743 36.8002C34.8736 36.8002 35.0723 36.7003 34.9729 36.4006ZM26.9268 23.4135L26.5295 23.6133C26.2315 23.8131 25.9335 24.0129 25.7348 24.2127C25.6355 24.2127 25.5361 24.3126 25.5361 24.3126C25.0395 24.0129 24.5428 23.7132 24.1454 23.3136V23.1138C25.0395 23.7132 25.9335 23.7132 26.9268 23.4135ZM27.0262 25.7112L26.5295 25.2117L27.4235 24.6123L27.5228 24.7122C27.5228 24.7122 27.6222 24.7122 27.6222 24.8121C27.4235 25.2117 27.2248 25.5114 27.0262 25.7112ZM27.7215 19.4174C27.7215 19.9169 27.7215 20.4164 27.5228 20.816C27.1255 21.8151 26.6288 22.2147 25.8341 22.4145C25.2381 22.5144 24.6421 22.3146 24.2448 21.8151C23.7481 21.3155 23.5494 20.7161 23.5494 20.0168V18.3185C23.5494 17.4194 24.2448 16.5203 25.2381 16.3205H25.6355C26.5295 16.3205 27.2248 16.82 27.5228 17.6192C27.7215 17.9189 27.7215 18.3185 27.7215 18.818V19.4174ZM23.9468 25.7112C23.8474 25.6113 23.7481 25.4115 23.6488 25.2117C23.5494 25.0119 23.4501 24.912 23.2514 24.8121L23.5494 24.6123C23.6488 24.8121 23.8474 24.8121 23.9468 24.912C24.0461 25.0119 24.1454 25.0119 24.2448 25.1118L24.3441 25.2117L23.9468 25.7112ZM24.4434 27.2097L25.4368 26.1108L26.4301 27.2097C26.5295 27.3096 26.7281 27.5094 27.0262 27.5094C27.2248 27.5094 27.4235 27.3096 27.5228 27.2097L28.0195 26.6103C28.1188 26.4105 28.3175 26.2107 28.5162 25.911C28.7148 25.7112 28.8142 25.4115 29.0128 25.2117V25.1118H30.4035C31.2975 25.1118 31.8936 25.7112 31.8936 26.5104V27.909H18.8807V26.4105C18.98 25.4115 19.6754 25.0119 20.2714 24.912H21.7614C22.1588 25.4115 22.5561 25.911 22.9534 26.4105L23.3508 27.0099C23.4501 27.2097 23.5494 27.4095 23.8474 27.4095C24.0461 27.4095 24.2448 27.3096 24.4434 27.2097ZM33.2842 29.1078V29.5074C33.2842 30.0069 33.1849 30.5064 33.1849 31.0059C33.1849 31.5054 33.1849 32.005 33.0856 32.5045L32.8869 35.8012H17.9867C17.9867 35.5015 17.9867 35.1019 17.9867 34.8022C17.9867 34.4026 17.9867 34.1029 17.9867 33.7033L17.788 29.6073V29.4075C17.788 29.1078 17.9867 28.908 18.2847 28.908H32.8869C32.9862 28.908 33.1849 29.0079 33.2842 29.1078Z" fill="#FD71AF"/>
<path d="M25.4368 30.4065C24.3441 30.4065 23.3508 31.4055 23.3508 32.5045C23.3508 33.004 23.5494 33.6034 23.9468 34.003C24.3441 34.4026 24.8408 34.6024 25.4368 34.6024C26.5295 34.6024 27.5228 33.6034 27.5228 32.5045C27.5228 32.0049 27.3242 31.4055 26.9268 31.0059C26.5295 30.6063 26.0328 30.4065 25.4368 30.4065ZM26.0328 33.004C25.8341 33.2038 25.6355 33.3037 25.5361 33.3037C25.2381 33.3037 25.1388 33.2038 24.9401 33.004C24.7415 32.8042 24.7415 32.6044 24.7415 32.4046C24.7415 32.2048 24.8408 32.0049 24.9401 31.8051C25.1388 31.6053 25.3375 31.5054 25.4368 31.5054C26.0328 31.5054 26.2315 31.905 26.2315 32.4046C26.2315 32.6044 26.1321 32.8042 26.0328 33.004Z" fill="#FD71AF"/>
</svg>
