<svg width="153" height="42" viewBox="0 0 153 42" fill="none" xmlns="http://www.w3.org/2000/svg">
<path opacity="0.5" d="M6.12963 41.3808H146.87C149.654 41.3808 151.874 39.2608 151.874 36.75V5.25C151.874 2.7392 149.654 0.619208 146.87 0.619208H6.12963C3.34595 0.619208 1.1265 2.7392 1.1265 5.25V36.75C1.1265 39.2608 3.34595 41.3808 6.12963 41.3808Z" stroke="#4D4B62"/>
<path d="M53.8888 9.506C53.8888 10.4178 53.6073 11.1481 53.0528 11.6927C52.4152 12.3384 51.5849 12.6632 50.5673 12.6632C49.5948 12.6632 48.7644 12.3329 48.0832 11.6818C47.4006 11.0212 47.0601 10.2103 47.0601 9.23983C47.0601 8.26931 47.4006 7.4585 48.0832 6.8033C48.7644 6.14674 49.5948 5.81641 50.5673 5.81641C51.0515 5.81641 51.5131 5.91332 51.9536 6.0935C52.3927 6.27505 52.7502 6.52075 53.0092 6.82378L52.4209 7.39981C51.9691 6.88247 51.3541 6.62722 50.5673 6.62722C49.858 6.62722 49.2429 6.86746 48.7208 7.35203C48.2043 7.83797 47.9453 8.46724 47.9453 9.23983C47.9453 10.0124 48.2043 10.6471 48.7208 11.1331C49.2429 11.6122 49.858 11.8579 50.5673 11.8579C51.3203 11.8579 51.9536 11.6122 52.4532 11.1276C52.7826 10.8068 52.9698 10.3646 53.019 9.79948H50.5673V9.01051H53.8381C53.8775 9.18113 53.8888 9.3463 53.8888 9.506Z" fill="white" stroke="white" stroke-width="0.16" stroke-miterlimit="10"/>
<path d="M59.0779 6.77078H56.0055V8.84558H58.7753V9.63455H56.0055V11.7094H59.0779V12.5133H55.1357V5.9668H59.0779V6.77078Z" fill="white" stroke="white" stroke-width="0.16" stroke-miterlimit="10"/>
<path d="M62.7396 12.5133H61.8699V6.77078H59.9854V5.9668H64.6256V6.77078H62.7396V12.5133Z" fill="white" stroke="white" stroke-width="0.16" stroke-miterlimit="10"/>
<path d="M67.9839 12.5133V5.9668H68.8523V12.5133H67.9839Z" fill="white" stroke="white" stroke-width="0.16" stroke-miterlimit="10"/>
<path d="M72.7016 12.5133H71.8388V6.77078H69.9473V5.9668H74.5931V6.77078H72.7016V12.5133Z" fill="white" stroke="white" stroke-width="0.16" stroke-miterlimit="10"/>
<path d="M83.3783 11.6709C82.7126 12.3329 81.8879 12.6632 80.9041 12.6632C79.9147 12.6632 79.0899 12.3329 78.4242 11.6709C77.7599 11.0102 77.4292 10.1994 77.4292 9.23983C77.4292 8.28023 77.7599 7.46942 78.4242 6.80876C79.0899 6.14674 79.9147 5.81641 80.9041 5.81641C81.8822 5.81641 82.707 6.14674 83.3727 6.81422C84.0426 7.48034 84.3734 8.28569 84.3734 9.23983C84.3734 10.1994 84.0426 11.0102 83.3783 11.6709ZM79.0674 11.1222C79.5685 11.6122 80.1779 11.8579 80.9041 11.8579C81.6247 11.8579 82.2397 11.6122 82.7351 11.1222C83.2348 10.6321 83.4881 10.0029 83.4881 9.23983C83.4881 8.47679 83.2348 7.84753 82.7351 7.35749C82.2397 6.86746 81.6247 6.62176 80.9041 6.62176C80.1779 6.62176 79.5685 6.86746 79.0674 7.35749C78.5678 7.84753 78.3145 8.47679 78.3145 9.23983C78.3145 10.0029 78.5678 10.6321 79.0674 11.1222Z" fill="white" stroke="white" stroke-width="0.16" stroke-miterlimit="10"/>
<path d="M85.5938 12.5133V5.9668H86.6493L89.9314 11.0582H89.9694L89.9314 9.79972V5.9668H90.7998V12.5133H89.8934L86.4565 7.17073H86.4185L86.4565 8.43472V12.5133H85.5938Z" fill="white" stroke="white" stroke-width="0.16" stroke-miterlimit="10"/>
<path d="M77.215 22.0743C74.5704 22.0743 72.4101 24.0263 72.4101 26.7194C72.4101 29.3907 74.5704 31.3631 77.215 31.3631C79.8651 31.3631 82.0255 29.3907 82.0255 26.7194C82.0255 24.0263 79.8651 22.0743 77.215 22.0743ZM77.215 29.534C75.7639 29.534 74.5156 28.3724 74.5156 26.7194C74.5156 25.0445 75.7639 23.9034 77.215 23.9034C78.666 23.9034 79.92 25.0445 79.92 26.7194C79.92 28.3724 78.666 29.534 77.215 29.534ZM66.7312 22.0743C64.081 22.0743 61.9263 24.0263 61.9263 26.7194C61.9263 29.3907 64.081 31.3631 66.7312 31.3631C69.3799 31.3631 71.5361 29.3907 71.5361 26.7194C71.5361 24.0263 69.3799 22.0743 66.7312 22.0743ZM66.7312 29.534C65.2787 29.534 64.0262 28.3724 64.0262 26.7194C64.0262 25.0445 65.2787 23.9034 66.7312 23.9034C68.1822 23.9034 69.4306 25.0445 69.4306 26.7194C69.4306 28.3724 68.1822 29.534 66.7312 29.534ZM54.2559 23.498V25.4718H59.1157C58.9736 26.5747 58.5936 27.3855 58.0109 27.9506C57.3016 28.6331 56.1967 29.3907 54.2559 29.3907C51.2652 29.3907 48.9233 27.0497 48.9233 24.1491C48.9233 21.2485 51.2652 18.9075 54.2559 18.9075C55.873 18.9075 57.0496 19.5204 57.918 20.3148L59.3522 18.9239C58.1376 17.7991 56.5219 16.9351 54.2559 16.9351C50.1547 16.9351 46.708 20.1715 46.708 24.1491C46.708 28.1267 50.1547 31.3631 54.2559 31.3631C56.4726 31.3631 58.1376 30.6588 59.4464 29.3375C60.7877 28.0366 61.2057 26.2075 61.2057 24.7306C61.2057 24.272 61.1663 23.8502 61.0959 23.498H54.2559ZM105.269 25.0282C104.873 23.9894 103.653 22.0743 101.168 22.0743C98.7047 22.0743 96.6541 23.9566 96.6541 26.7194C96.6541 29.3211 98.6835 31.3631 101.404 31.3631C103.604 31.3631 104.873 30.0623 105.395 29.3047L103.763 28.2496C103.218 29.0222 102.477 29.534 101.404 29.534C100.339 29.534 99.5744 29.0604 99.0847 28.1267L105.49 25.5564L105.269 25.0282ZM98.7384 26.5747C98.6835 24.7838 100.173 23.8666 101.239 23.8666C102.075 23.8666 102.785 24.272 103.021 24.8521L98.7384 26.5747ZM93.5324 31.0806H95.6379V17.4306H93.5324V31.0806ZM90.0843 23.109H90.0139C89.541 22.5657 88.6389 22.0743 87.4961 22.0743C85.0979 22.0743 82.9051 24.1163 82.9051 26.7344C82.9051 29.3375 85.0979 31.3631 87.4961 31.3631C88.6389 31.3631 89.541 30.8676 90.0139 30.308H90.0843V30.9741C90.0843 32.75 89.1061 33.7041 87.5284 33.7041C86.2421 33.7041 85.4441 32.8032 85.1147 32.0456L83.2837 32.7868C83.8115 34.0181 85.209 35.5332 87.5284 35.5332C89.997 35.5332 92.08 34.1245 92.08 30.697V22.3569H90.0843V23.109ZM87.6762 29.534C86.2252 29.534 85.0106 28.356 85.0106 26.7344C85.0106 25.0978 86.2252 23.9034 87.6762 23.9034C89.1061 23.9034 90.2335 25.0978 90.2335 26.7344C90.2335 28.356 89.1061 29.534 87.6762 29.534ZM115.126 17.4306H110.091V31.0806H112.19V25.9086H115.126C117.458 25.9086 119.745 24.272 119.745 21.6689C119.745 19.0672 117.453 17.4306 115.126 17.4306ZM115.181 24.0099H112.19V19.3293H115.181C116.749 19.3293 117.644 20.5919 117.644 21.6689C117.644 22.7254 116.749 24.0099 115.181 24.0099ZM128.162 22.0484C126.644 22.0484 125.067 22.6981 124.418 24.1382L126.281 24.8958C126.683 24.1382 127.42 23.8925 128.2 23.8925C129.289 23.8925 130.394 24.5272 130.411 25.6479V25.7912C130.031 25.5783 129.217 25.2629 128.217 25.2629C126.21 25.2629 124.165 26.3345 124.165 28.3342C124.165 30.1633 125.808 31.3413 127.656 31.3413C129.069 31.3413 129.849 30.7229 130.339 30.0036H130.411V31.0587H132.439V25.8226C132.439 23.4025 130.575 22.0484 128.162 22.0484ZM127.908 29.5286C127.222 29.5286 126.265 29.1982 126.265 28.3724C126.265 27.3159 127.458 26.9105 128.491 26.9105C129.416 26.9105 129.849 27.1084 130.411 27.3691C130.246 28.6331 129.124 29.5286 127.908 29.5286ZM139.828 22.3473L137.414 28.2646H137.342L134.847 22.3473H132.582L136.332 30.6165L134.192 35.2179H136.387L142.164 22.3473H139.828ZM120.899 31.0806H123.005V17.4306H120.899V31.0806Z" fill="white"/>
<path d="M12.2492 6.55213C11.9185 6.88792 11.7271 7.41072 11.7271 8.08776V32.2373C11.7271 32.9144 11.9185 33.4372 12.2492 33.773L12.3308 33.8467L26.2839 20.3195V20.0001L12.3308 6.47296L12.2492 6.55213Z" fill="url(#paint0_linear_2492_16289)"/>
<path d="M30.9295 24.8311L26.2837 20.3197V20.0003L30.9352 15.489L31.0393 15.5477L36.5479 18.5875C38.12 19.4502 38.12 20.8698 36.5479 21.738L31.0393 24.7724L30.9295 24.8311Z" fill="url(#paint1_linear_2492_16289)"/>
<path d="M31.0393 24.7725L26.2837 20.1601L12.249 33.7733C12.7712 34.3056 13.6227 34.3698 14.5909 33.8374L31.0393 24.7725Z" fill="url(#paint2_linear_2492_16289)"/>
<path d="M31.0393 15.5468L14.5909 6.48188C13.6227 5.95499 12.7712 6.01914 12.249 6.55149L26.2837 20.1592L31.0393 15.5468Z" fill="url(#paint3_linear_2492_16289)"/>
<defs>
<linearGradient id="paint0_linear_2492_16289" x1="25.045" y1="32.4888" x2="6.72719" y2="13.6019" gradientUnits="userSpaceOnUse">
<stop stop-color="#00A0FF"/>
<stop offset="0.0066" stop-color="#00A1FF"/>
<stop offset="0.2601" stop-color="#00BEFF"/>
<stop offset="0.5122" stop-color="#00D2FF"/>
<stop offset="0.7604" stop-color="#00DFFF"/>
<stop offset="1" stop-color="#00E3FF"/>
</linearGradient>
<linearGradient id="paint1_linear_2492_16289" x1="38.595" y1="20.1585" x2="11.3511" y2="20.1585" gradientUnits="userSpaceOnUse">
<stop stop-color="#FFE000"/>
<stop offset="0.4087" stop-color="#FFBD00"/>
<stop offset="0.7754" stop-color="#FFA500"/>
<stop offset="1" stop-color="#FF9C00"/>
</linearGradient>
<linearGradient id="paint2_linear_2492_16289" x1="28.4533" y1="17.6528" x2="3.61291" y2="-7.95939" gradientUnits="userSpaceOnUse">
<stop stop-color="#FF3A44"/>
<stop offset="1" stop-color="#C31162"/>
</linearGradient>
<linearGradient id="paint3_linear_2492_16289" x1="8.71621" y1="41.8068" x2="19.8086" y2="30.3699" gradientUnits="userSpaceOnUse">
<stop stop-color="#32A071"/>
<stop offset="0.0685" stop-color="#2DA771"/>
<stop offset="0.4762" stop-color="#15CF74"/>
<stop offset="0.8009" stop-color="#06E775"/>
<stop offset="1" stop-color="#00F076"/>
</linearGradient>
</defs>
</svg>
