<svg width="185" height="185" viewBox="0 0 185 185" fill="none" xmlns="http://www.w3.org/2000/svg">
<rect width="185" height="185" rx="92.5" fill="white"/>
<g clip-path="url(#clip0_671_3)">
<path d="M112.237 72.7627L94.4742 70.7891L72.7636 72.7627L70.7896 92.4997L72.7632 112.237L92.5002 114.704L112.237 112.237L114.211 92.0066L112.237 72.7627Z" fill="white"/>
<path d="M80.8605 103.385C79.3853 102.388 78.3638 100.933 77.8062 99.0081L81.2307 97.597C81.5415 98.7812 82.0842 99.6988 82.8589 100.35C83.6288 101.002 84.5663 101.322 85.6617 101.322C86.7818 101.322 87.744 100.982 88.548 100.301C89.352 99.6197 89.757 98.7512 89.757 97.7005C89.757 96.625 89.3325 95.7463 88.4839 95.0657C87.6353 94.3851 86.5695 94.0442 85.2964 94.0442H83.3179V90.6546H85.0939C86.1893 90.6546 87.1122 90.3587 87.8622 89.7666C88.6122 89.1745 88.9872 88.3652 88.9872 87.334C88.9872 86.4163 88.6515 85.6858 87.9807 85.1383C87.3098 84.5908 86.4608 84.3145 85.4295 84.3145C84.423 84.3145 83.6235 84.5811 83.0314 85.1188C82.4393 85.6566 82.0099 86.3177 81.7388 87.0973L78.3492 85.6862C78.798 84.4131 79.6223 83.2881 80.8309 82.3161C82.0399 81.3441 83.5842 80.8555 85.4592 80.8555C86.8455 80.8555 88.0939 81.1221 89.1994 81.6598C90.3045 82.1976 91.173 82.9427 91.7997 83.89C92.4263 84.8421 92.7372 85.9082 92.7372 87.0921C92.7372 88.3011 92.4462 89.3222 91.8638 90.1611C91.2814 91 90.5659 91.6412 89.7173 92.0905V92.2926C90.8132 92.7444 91.7651 93.4865 92.4705 94.4391C93.186 95.4013 93.546 96.5511 93.546 97.8932C93.546 99.2353 93.2055 100.434 92.5245 101.485C91.8435 102.536 90.9012 103.365 89.7072 103.967C88.5083 104.569 87.1613 104.875 85.6662 104.875C83.9344 104.88 82.3358 104.381 80.8605 103.385ZM101.875 86.3916L98.1349 89.1103L96.255 86.2585L103 81.3932H105.586V104.342H101.875V86.3916Z" fill="#767676"/>
<path d="M112.237 129.999L130 112.236L121.118 108.289L112.237 112.236L108.29 121.118L112.237 129.999Z" fill="#7F7F7F"/>
<path d="M68.8159 121.12L72.7632 130.001H112.237V112.238H72.7632L68.8159 121.12Z" fill="#939393"/>
<path d="M60.9209 55C57.6497 55 55 57.6497 55 60.9209V112.237L63.8815 116.184L72.763 112.237V72.763H112.237L116.184 63.8815L112.237 55H60.9209Z" fill="#878787"/>
<path d="M55 112.238V124.08C55 127.352 57.6497 130.001 60.9209 130.001H72.763V112.238H55Z" fill="#6F6F6F"/>
<path d="M112.237 72.7637V112.237H130V72.7637L121.118 68.8164L112.237 72.7637Z" fill="#C6C6C6"/>
<path d="M130 72.763V60.9209C130 57.6494 127.35 55 124.079 55H112.237V72.763H130Z" fill="#6A6A6A"/>
</g>
<defs>
<clipPath id="clip0_671_3">
<rect width="75" height="75" fill="white" transform="translate(55 55)"/>
</clipPath>
</defs>
</svg>
