<svg width="196" height="55" viewBox="0 0 196 55" fill="none" xmlns="http://www.w3.org/2000/svg">
<rect x="1" y="1.08887" width="194" height="53" rx="7.5" stroke="#242424" stroke-opacity="0.15"/>
<path d="M69.1818 13.2932C69.1818 14.4553 68.823 15.3861 68.1163 16.0802C67.3036 16.9031 66.2454 17.3171 64.9485 17.3171C63.709 17.3171 62.6507 16.8961 61.7825 16.0663C60.9125 15.2243 60.4785 14.1908 60.4785 12.954C60.4785 11.7171 60.9125 10.6837 61.7825 9.84861C62.6507 9.01183 63.709 8.59082 64.9485 8.59082C65.5656 8.59082 66.1539 8.71433 66.7153 8.94397C67.275 9.17536 67.7306 9.4885 68.0607 9.87472L67.3109 10.6089C66.7351 9.94952 65.9513 9.6242 64.9485 9.6242C64.0445 9.6242 63.2605 9.93039 62.5951 10.548C61.9368 11.1673 61.6067 11.9693 61.6067 12.954C61.6067 13.9386 61.9368 14.7476 62.5951 15.367C63.2605 15.9776 64.0445 16.2907 64.9485 16.2907C65.9082 16.2907 66.7153 15.9776 67.3521 15.36C67.7719 14.9511 68.0105 14.3875 68.0732 13.6673H64.9485V12.6617H69.1171C69.1674 12.8792 69.1818 13.0897 69.1818 13.2932Z" fill="#242424" stroke="#242424" stroke-width="0.203921" stroke-miterlimit="10"/>
<path d="M75.7949 9.8069H71.8791V12.4512H75.4092V13.4568H71.8791V16.1012H75.7949V17.1258H70.7705V8.78223H75.7949V9.8069Z" fill="#242424" stroke="#242424" stroke-width="0.203921" stroke-miterlimit="10"/>
<path d="M80.4624 17.1258H79.354V9.8069H76.9521V8.78223H82.8661V9.8069H80.4624V17.1258Z" fill="#242424" stroke="#242424" stroke-width="0.203921" stroke-miterlimit="10"/>
<path d="M87.1455 17.1258V8.78223H88.2523V17.1258H87.1455Z" fill="#242424" stroke="#242424" stroke-width="0.203921" stroke-miterlimit="10"/>
<path d="M93.1588 17.1258H92.0592V9.8069H89.6484V8.78223H95.5696V9.8069H93.1588V17.1258Z" fill="#242424" stroke="#242424" stroke-width="0.203921" stroke-miterlimit="10"/>
<path d="M106.767 16.0524C105.918 16.8961 104.867 17.3171 103.613 17.3171C102.352 17.3171 101.301 16.8961 100.453 16.0524C99.6061 15.2103 99.1846 14.177 99.1846 12.954C99.1846 11.731 99.6061 10.6976 100.453 9.85557C101.301 9.01183 102.352 8.59082 103.613 8.59082C104.86 8.59082 105.911 9.01183 106.76 9.86253C107.613 10.7115 108.035 11.7379 108.035 12.954C108.035 14.177 107.613 15.2103 106.767 16.0524ZM101.272 15.3531C101.911 15.9776 102.688 16.2907 103.613 16.2907C104.532 16.2907 105.316 15.9776 105.947 15.3531C106.584 14.7284 106.907 13.9265 106.907 12.954C106.907 11.9815 106.584 11.1795 105.947 10.5549C105.316 9.93039 104.532 9.61724 103.613 9.61724C102.688 9.61724 101.911 9.93039 101.272 10.5549C100.636 11.1795 100.313 11.9815 100.313 12.954C100.313 13.9265 100.636 14.7284 101.272 15.3531Z" fill="#242424" stroke="#242424" stroke-width="0.203921" stroke-miterlimit="10"/>
<path d="M109.59 17.1258V8.78223H110.935L115.118 15.2712H115.167L115.118 13.6673V8.78223H116.225V17.1258H115.07L110.689 10.3166H110.641L110.689 11.9276V17.1258H109.59Z" fill="#242424" stroke="#242424" stroke-width="0.203921" stroke-miterlimit="10"/>
<path d="M98.9108 29.3126C95.5402 29.3126 92.7869 31.8005 92.7869 35.2328C92.7869 38.6374 95.5402 41.1512 98.9108 41.1512C102.288 41.1512 105.042 38.6374 105.042 35.2328C105.042 31.8005 102.288 29.3126 98.9108 29.3126ZM98.9108 38.82C97.0613 38.82 95.4704 37.3396 95.4704 35.2328C95.4704 33.0982 97.0613 31.6438 98.9108 31.6438C100.76 31.6438 102.358 33.0982 102.358 35.2328C102.358 37.3396 100.76 38.82 98.9108 38.82ZM85.5491 29.3126C82.1714 29.3126 79.4252 31.8005 79.4252 35.2328C79.4252 38.6374 82.1714 41.1512 85.5491 41.1512C88.9249 41.1512 91.673 38.6374 91.673 35.2328C91.673 31.8005 88.9249 29.3126 85.5491 29.3126ZM85.5491 38.82C83.6978 38.82 82.1015 37.3396 82.1015 35.2328C82.1015 33.0982 83.6978 31.6438 85.5491 31.6438C87.3984 31.6438 88.9895 33.0982 88.9895 35.2328C88.9895 37.3396 87.3984 38.82 85.5491 38.82ZM69.6492 31.1271V33.6427H75.843C75.6619 35.0484 75.1776 36.0818 74.435 36.802C73.5309 37.6718 72.1227 38.6374 69.6492 38.6374C65.8375 38.6374 62.8527 35.6538 62.8527 31.957C62.8527 28.2601 65.8375 25.2765 69.6492 25.2765C71.7102 25.2765 73.2098 26.0577 74.3166 27.0701L76.1445 25.2974C74.5964 23.8639 72.5372 22.7627 69.6492 22.7627C64.4222 22.7627 60.0293 26.8875 60.0293 31.957C60.0293 37.0264 64.4222 41.1512 69.6492 41.1512C72.4744 41.1512 74.5964 40.2536 76.2645 38.5696C77.974 36.9116 78.5068 34.5804 78.5068 32.6981C78.5068 32.1136 78.4565 31.576 78.3668 31.1271H69.6492ZM134.666 33.0774C134.161 31.7534 132.606 29.3126 129.439 29.3126C126.3 29.3126 123.686 31.7116 123.686 35.2328C123.686 38.5487 126.273 41.1512 129.74 41.1512C132.544 41.1512 134.161 39.4934 134.826 38.5278L132.746 37.1831C132.052 38.1677 131.107 38.82 129.74 38.82C128.383 38.82 127.408 38.2164 126.784 37.0264L134.948 33.7506L134.666 33.0774ZM126.343 35.0484C126.273 32.7659 128.171 31.5969 129.53 31.5969C130.595 31.5969 131.5 32.1136 131.801 32.8529L126.343 35.0484ZM119.707 40.7912H122.391V23.3942H119.707V40.7912ZM115.313 30.6314H115.223C114.62 29.9389 113.471 29.3126 112.014 29.3126C108.958 29.3126 106.163 31.9152 106.163 35.2519C106.163 38.5696 108.958 41.1512 112.014 41.1512C113.471 41.1512 114.62 40.5197 115.223 39.8065H115.313V40.6555C115.313 42.9188 114.066 44.1348 112.055 44.1348C110.416 44.1348 109.399 42.9866 108.979 42.0211L106.645 42.9657C107.318 44.535 109.099 46.466 112.055 46.466C115.202 46.466 117.856 44.6706 117.856 40.3023V29.6728H115.313V30.6314ZM112.244 38.82C110.394 38.82 108.846 37.3187 108.846 35.2519C108.846 33.1661 110.394 31.6438 112.244 31.6438C114.066 31.6438 115.503 33.1661 115.503 35.2519C115.503 37.3187 114.066 38.82 112.244 38.82ZM147.229 23.3942H140.812V40.7912H143.487V34.1995H147.229C150.201 34.1995 153.116 32.1136 153.116 28.7959C153.116 25.4801 150.194 23.3942 147.229 23.3942ZM147.299 31.7796H143.487V25.8141H147.299C149.297 25.8141 150.438 27.4233 150.438 28.7959C150.438 30.1425 149.297 31.7796 147.299 31.7796ZM163.843 29.2796C161.909 29.2796 159.899 30.1077 159.071 31.9431L161.446 32.9086C161.958 31.9431 162.898 31.6299 163.892 31.6299C165.28 31.6299 166.688 32.4389 166.71 33.8672V34.0498C166.225 33.7785 165.188 33.3765 163.913 33.3765C161.355 33.3765 158.749 34.7423 158.749 37.2909C158.749 39.6221 160.843 41.1234 163.198 41.1234C164.999 41.1234 165.993 40.3353 166.618 39.4185H166.71V40.7633H169.294V34.0898C169.294 31.0054 166.919 29.2796 163.843 29.2796ZM163.52 38.8132C162.645 38.8132 161.425 38.3921 161.425 37.3396C161.425 35.9931 162.946 35.4764 164.263 35.4764C165.441 35.4764 165.993 35.7286 166.71 36.0609C166.499 37.6718 165.069 38.8132 163.52 38.8132ZM178.712 29.6606L175.635 37.2022H175.543L172.363 29.6606H169.477L174.256 40.1997L171.529 46.0642H174.326L181.689 29.6606H178.712ZM154.586 40.7912H157.271V23.3942H154.586V40.7912Z" fill="#242424"/>
<path d="M16.1117 9.52961C15.6902 9.95758 15.4463 10.6239 15.4463 11.4868V42.2655C15.4463 43.1284 15.6902 43.7947 16.1117 44.2227L16.2157 44.3166L33.9991 27.0762V26.6691L16.2157 9.42871L16.1117 9.52961Z" fill="url(#paint0_linear_2715_11905)"/>
<path d="M39.9192 32.8255L33.998 27.0757V26.6686L39.9264 20.9189L40.0591 20.9938L47.0799 24.868C49.0835 25.9675 49.0835 27.7768 47.0799 28.8833L40.0591 32.7507L39.9192 32.8255Z" fill="url(#paint1_linear_2715_11905)"/>
<path d="M40.0598 32.7506L33.9987 26.8721L16.1113 44.2221C16.7769 44.9006 17.8621 44.9824 19.0961 44.3038L40.0598 32.7506Z" fill="url(#paint2_linear_2715_11905)"/>
<path d="M40.0598 20.9928L19.0961 9.43949C17.8621 8.76797 16.7769 8.84973 16.1113 9.52821L33.9987 26.8713L40.0598 20.9928Z" fill="url(#paint3_linear_2715_11905)"/>
<defs>
<linearGradient id="paint0_linear_2715_11905" x1="32.4201" y1="42.586" x2="9.07397" y2="18.5145" gradientUnits="userSpaceOnUse">
<stop stop-color="#00A0FF"/>
<stop offset="0.0066" stop-color="#00A1FF"/>
<stop offset="0.2601" stop-color="#00BEFF"/>
<stop offset="0.5122" stop-color="#00D2FF"/>
<stop offset="0.7604" stop-color="#00DFFF"/>
<stop offset="1" stop-color="#00E3FF"/>
</linearGradient>
<linearGradient id="paint1_linear_2715_11905" x1="49.6889" y1="26.8702" x2="14.9663" y2="26.8702" gradientUnits="userSpaceOnUse">
<stop stop-color="#FFE000"/>
<stop offset="0.4087" stop-color="#FFBD00"/>
<stop offset="0.7754" stop-color="#FFA500"/>
<stop offset="1" stop-color="#FF9C00"/>
</linearGradient>
<linearGradient id="paint2_linear_2715_11905" x1="36.7639" y1="23.6765" x2="5.1047" y2="-8.96648" gradientUnits="userSpaceOnUse">
<stop stop-color="#FF3A44"/>
<stop offset="1" stop-color="#C31162"/>
</linearGradient>
<linearGradient id="paint3_linear_2715_11905" x1="11.6088" y1="54.4612" x2="25.746" y2="39.8848" gradientUnits="userSpaceOnUse">
<stop stop-color="#32A071"/>
<stop offset="0.0685" stop-color="#2DA771"/>
<stop offset="0.4762" stop-color="#15CF74"/>
<stop offset="0.8009" stop-color="#06E775"/>
<stop offset="1" stop-color="#00F076"/>
</linearGradient>
</defs>
</svg>
