<svg width="153" height="42" viewBox="0 0 153 42" fill="none" xmlns="http://www.w3.org/2000/svg">
<path opacity="0.5" d="M146.87 42H6.12963C3.03474 42 0.5 39.6362 0.5 36.75V5.25C0.5 2.36381 3.03474 2.21967e-06 6.12963 2.21967e-06H146.87C149.965 2.21967e-06 152.5 2.36381 152.5 5.25V36.75C152.5 39.6362 149.965 42 146.87 42Z" fill="white" fill-opacity="0.3"/>
<path d="M53.8887 9.506C53.8887 10.4178 53.6072 11.1481 53.0527 11.6927C52.4151 12.3384 51.5848 12.6632 50.5672 12.6632C49.5947 12.6632 48.7643 12.3329 48.0831 11.6818C47.4005 11.0212 47.0599 10.2103 47.0599 9.23983C47.0599 8.26931 47.4005 7.4585 48.0831 6.8033C48.7643 6.14674 49.5947 5.81641 50.5672 5.81641C51.0513 5.81641 51.513 5.91332 51.9535 6.0935C52.3926 6.27505 52.7501 6.52075 53.009 6.82378L52.4207 7.39981C51.969 6.88247 51.3539 6.62722 50.5672 6.62722C49.8579 6.62722 49.2428 6.86746 48.7207 7.35203C48.2042 7.83797 47.9452 8.46724 47.9452 9.23983C47.9452 10.0124 48.2042 10.6471 48.7207 11.1331C49.2428 11.6122 49.8579 11.8579 50.5672 11.8579C51.3202 11.8579 51.9535 11.6122 52.4531 11.1276C52.7825 10.8068 52.9696 10.3646 53.0189 9.79948H50.5672V9.01051H53.838C53.8774 9.18113 53.8887 9.3463 53.8887 9.506Z" fill="white" stroke="white" stroke-width="0.16" stroke-miterlimit="10"/>
<path d="M59.0779 6.77078H56.0055V8.84558H58.7753V9.63455H56.0055V11.7094H59.0779V12.5133H55.1357V5.9668H59.0779V6.77078Z" fill="white" stroke="white" stroke-width="0.16" stroke-miterlimit="10"/>
<path d="M62.7396 12.5133H61.8699V6.77078H59.9854V5.9668H64.6256V6.77078H62.7396V12.5133Z" fill="white" stroke="white" stroke-width="0.16" stroke-miterlimit="10"/>
<path d="M67.9838 12.5133V5.9668H68.8521V12.5133H67.9838Z" fill="white" stroke="white" stroke-width="0.16" stroke-miterlimit="10"/>
<path d="M72.7013 12.5133H71.8386V6.77078H69.947V5.9668H74.5929V6.77078H72.7013V12.5133Z" fill="white" stroke="white" stroke-width="0.16" stroke-miterlimit="10"/>
<path d="M83.3782 11.6709C82.7125 12.3329 81.8877 12.6632 80.904 12.6632C79.9146 12.6632 79.0898 12.3329 78.4241 11.6709C77.7598 11.0102 77.4291 10.1994 77.4291 9.23983C77.4291 8.28023 77.7598 7.46942 78.4241 6.80876C79.0898 6.14674 79.9146 5.81641 80.904 5.81641C81.8821 5.81641 82.7069 6.14674 83.3726 6.81422C84.0425 7.48034 84.3732 8.28569 84.3732 9.23983C84.3732 10.1994 84.0425 11.0102 83.3782 11.6709ZM79.0673 11.1222C79.5683 11.6122 80.1777 11.8579 80.904 11.8579C81.6246 11.8579 82.2396 11.6122 82.735 11.1222C83.2346 10.6321 83.488 10.0029 83.488 9.23983C83.488 8.47679 83.2346 7.84753 82.735 7.35749C82.2396 6.86746 81.6246 6.62176 80.904 6.62176C80.1777 6.62176 79.5683 6.86746 79.0673 7.35749C78.5677 7.84753 78.3143 8.47679 78.3143 9.23983C78.3143 10.0029 78.5677 10.6321 79.0673 11.1222Z" fill="white" stroke="white" stroke-width="0.16" stroke-miterlimit="10"/>
<path d="M85.5936 12.5133V5.9668H86.6492L89.9313 11.0582H89.9693L89.9313 9.79972V5.9668H90.7996V12.5133H89.8933L86.4564 7.17073H86.4184L86.4564 8.43472V12.5133H85.5936Z" fill="white" stroke="white" stroke-width="0.16" stroke-miterlimit="10"/>
<path d="M77.2148 22.0743C74.5703 22.0743 72.41 24.0263 72.41 26.7194C72.41 29.3907 74.5703 31.3631 77.2148 31.3631C79.865 31.3631 82.0254 29.3907 82.0254 26.7194C82.0254 24.0263 79.865 22.0743 77.2148 22.0743ZM77.2148 29.534C75.7638 29.534 74.5154 28.3724 74.5154 26.7194C74.5154 25.0445 75.7638 23.9034 77.2148 23.9034C78.6659 23.9034 79.9199 25.0445 79.9199 26.7194C79.9199 28.3724 78.6659 29.534 77.2148 29.534ZM66.7311 22.0743C64.0809 22.0743 61.9262 24.0263 61.9262 26.7194C61.9262 29.3907 64.0809 31.3631 66.7311 31.3631C69.3798 31.3631 71.536 29.3907 71.536 26.7194C71.536 24.0263 69.3798 22.0743 66.7311 22.0743ZM66.7311 29.534C65.2786 29.534 64.026 28.3724 64.026 26.7194C64.026 25.0445 65.2786 23.9034 66.7311 23.9034C68.1821 23.9034 69.4305 25.0445 69.4305 26.7194C69.4305 28.3724 68.1821 29.534 66.7311 29.534ZM54.2558 23.498V25.4718H59.1156C58.9734 26.5747 58.5934 27.3855 58.0108 27.9506C57.3014 28.6331 56.1966 29.3907 54.2558 29.3907C51.2651 29.3907 48.9231 27.0497 48.9231 24.1491C48.9231 21.2485 51.2651 18.9075 54.2558 18.9075C55.8729 18.9075 57.0495 19.5204 57.9179 20.3148L59.352 18.9239C58.1374 17.7991 56.5217 16.9351 54.2558 16.9351C50.1546 16.9351 46.7079 20.1715 46.7079 24.1491C46.7079 28.1267 50.1546 31.3631 54.2558 31.3631C56.4725 31.3631 58.1374 30.6588 59.4463 29.3375C60.7876 28.0366 61.2056 26.2075 61.2056 24.7306C61.2056 24.272 61.1662 23.8502 61.0958 23.498H54.2558ZM105.269 25.0282C104.873 23.9894 103.653 22.0743 101.167 22.0743C98.7045 22.0743 96.6539 23.9566 96.6539 26.7194C96.6539 29.3211 98.6834 31.3631 101.404 31.3631C103.604 31.3631 104.873 30.0623 105.395 29.3047L103.763 28.2496C103.218 29.0222 102.476 29.534 101.404 29.534C100.339 29.534 99.5743 29.0604 99.0845 28.1267L105.49 25.5564L105.269 25.0282ZM98.7383 26.5747C98.6834 24.7838 100.172 23.8666 101.239 23.8666C102.075 23.8666 102.785 24.272 103.021 24.8521L98.7383 26.5747ZM93.5323 31.0806H95.6378V17.4306H93.5323V31.0806ZM90.0842 23.109H90.0138C89.5409 22.5657 88.6388 22.0743 87.496 22.0743C85.0977 22.0743 82.905 24.1163 82.905 26.7344C82.905 29.3375 85.0977 31.3631 87.496 31.3631C88.6388 31.3631 89.5409 30.8676 90.0138 30.308H90.0842V30.9741C90.0842 32.75 89.106 33.7041 87.5283 33.7041C86.2419 33.7041 85.444 32.8032 85.1146 32.0456L83.2836 32.7868C83.8114 34.0181 85.2089 35.5332 87.5283 35.5332C89.9969 35.5332 92.0799 34.1245 92.0799 30.697V22.3569H90.0842V23.109ZM87.6761 29.534C86.2251 29.534 85.0105 28.356 85.0105 26.7344C85.0105 25.0978 86.2251 23.9034 87.6761 23.9034C89.106 23.9034 90.2334 25.0978 90.2334 26.7344C90.2334 28.356 89.106 29.534 87.6761 29.534ZM115.126 17.4306H110.09V31.0806H112.19V25.9086H115.126C117.458 25.9086 119.745 24.272 119.745 21.6689C119.745 19.0672 117.453 17.4306 115.126 17.4306ZM115.181 24.0099H112.19V19.3293H115.181C116.749 19.3293 117.644 20.5919 117.644 21.6689C117.644 22.7254 116.749 24.0099 115.181 24.0099ZM128.162 22.0484C126.644 22.0484 125.067 22.6981 124.418 24.1382L126.281 24.8958C126.682 24.1382 127.42 23.8925 128.2 23.8925C129.289 23.8925 130.394 24.5272 130.411 25.6479V25.7912C130.031 25.5783 129.217 25.2629 128.216 25.2629C126.209 25.2629 124.165 26.3345 124.165 28.3342C124.165 30.1633 125.808 31.3413 127.656 31.3413C129.069 31.3413 129.849 30.7229 130.339 30.0036H130.411V31.0587H132.439V25.8226C132.439 23.4025 130.575 22.0484 128.162 22.0484ZM127.908 29.5286C127.221 29.5286 126.264 29.1982 126.264 28.3724C126.264 27.3159 127.458 26.9105 128.491 26.9105C129.416 26.9105 129.849 27.1084 130.411 27.3691C130.246 28.6331 129.124 29.5286 127.908 29.5286ZM139.828 22.3473L137.414 28.2646H137.342L134.847 22.3473H132.582L136.332 30.6165L134.192 35.2179H136.386L142.164 22.3473H139.828ZM120.899 31.0806H123.005V17.4306H120.899V31.0806Z" fill="white"/>
<path d="M12.2491 6.55213C11.9183 6.88792 11.7269 7.41072 11.7269 8.08776V32.2373C11.7269 32.9144 11.9183 33.4372 12.2491 33.773L12.3307 33.8467L26.2837 20.3195V20.0001L12.3307 6.47296L12.2491 6.55213Z" fill="url(#paint0_linear_2492_4571)"/>
<path d="M30.9297 24.8311L26.2838 20.3197V20.0003L30.9353 15.489L31.0394 15.5477L36.548 18.5875C38.1201 19.4502 38.1201 20.8698 36.548 21.738L31.0394 24.7724L30.9297 24.8311Z" fill="url(#paint1_linear_2492_4571)"/>
<path d="M31.0393 24.7725L26.2837 20.1601L12.249 33.7733C12.7712 34.3056 13.6227 34.3698 14.5909 33.8374L31.0393 24.7725Z" fill="url(#paint2_linear_2492_4571)"/>
<path d="M31.0393 15.5468L14.5909 6.48188C13.6227 5.95499 12.7712 6.01914 12.249 6.55149L26.2837 20.1592L31.0393 15.5468Z" fill="url(#paint3_linear_2492_4571)"/>
<defs>
<linearGradient id="paint0_linear_2492_4571" x1="25.0449" y1="32.4888" x2="6.72707" y2="13.6019" gradientUnits="userSpaceOnUse">
<stop stop-color="#00A0FF"/>
<stop offset="0.0066" stop-color="#00A1FF"/>
<stop offset="0.2601" stop-color="#00BEFF"/>
<stop offset="0.5122" stop-color="#00D2FF"/>
<stop offset="0.7604" stop-color="#00DFFF"/>
<stop offset="1" stop-color="#00E3FF"/>
</linearGradient>
<linearGradient id="paint1_linear_2492_4571" x1="38.5951" y1="20.1585" x2="11.3512" y2="20.1585" gradientUnits="userSpaceOnUse">
<stop stop-color="#FFE000"/>
<stop offset="0.4087" stop-color="#FFBD00"/>
<stop offset="0.7754" stop-color="#FFA500"/>
<stop offset="1" stop-color="#FF9C00"/>
</linearGradient>
<linearGradient id="paint2_linear_2492_4571" x1="28.4533" y1="17.6528" x2="3.61291" y2="-7.95939" gradientUnits="userSpaceOnUse">
<stop stop-color="#FF3A44"/>
<stop offset="1" stop-color="#C31162"/>
</linearGradient>
<linearGradient id="paint3_linear_2492_4571" x1="8.71621" y1="41.8068" x2="19.8086" y2="30.3699" gradientUnits="userSpaceOnUse">
<stop stop-color="#32A071"/>
<stop offset="0.0685" stop-color="#2DA771"/>
<stop offset="0.4762" stop-color="#15CF74"/>
<stop offset="0.8009" stop-color="#06E775"/>
<stop offset="1" stop-color="#00F076"/>
</linearGradient>
</defs>
</svg>
