<svg width="375" height="280" viewBox="0 0 375 280" fill="none" xmlns="http://www.w3.org/2000/svg">
<g opacity="0.95">
<path d="M287.728 257.93C287.728 257.93 286.657 263.266 286.199 268.602C286.046 270.737 287.575 272.566 289.716 272.566C296.752 272.871 312.046 273.633 317.552 273.481C318.317 273.481 318.929 272.566 318.623 271.804C318.317 271.194 317.858 270.584 317.246 270.279L292.163 258.54L287.728 257.93Z" fill="#4A4743"/>
<path d="M287.117 254.728L287.881 261.131C287.881 261.131 292.317 263.266 295.223 260.979L293.54 253.813L287.117 254.728Z" fill="#FFBE9D"/>
<path d="M288.794 133.678C288.488 135.355 286.194 217.529 294.606 254.424C294.758 255.034 294.453 255.644 293.841 255.796C292.464 256.406 289.864 257.168 286.652 257.168C285.735 257.168 284.817 256.559 284.511 255.644C282.064 247.106 270.441 204.113 269.217 163.255C267.841 117.517 269.217 161.73 269.217 161.73L270.593 133.525L288.794 133.678Z" fill="#5E5B57"/>
<path d="M258.817 260.37C258.817 260.37 257.287 263.114 255.758 270.279C255.452 271.651 256.37 272.871 257.746 273.023C260.04 273.328 263.711 273.633 266.617 273.633C267.994 273.633 269.064 272.414 268.911 271.194C268.605 268.602 267.688 264.181 264.629 260.827L258.817 260.37Z" fill="#4A4743"/>
<path d="M257.598 252.136L259.28 261.893C259.28 261.893 260.963 263.265 264.48 262.351L263.716 251.831L257.598 252.136Z" fill="#FFBE9D"/>
<path d="M253.919 135.964C246.272 179.262 254.531 243.142 257.284 255.643C257.437 256.406 258.048 257.015 258.813 257.168C260.19 257.473 262.331 257.625 264.472 257.015C265.237 256.863 265.696 256.101 265.848 255.338C266.307 245.276 266.154 183.226 273.19 158.833C273.496 157.613 274.26 156.546 275.331 155.784L288.484 146.636L289.555 131.695L253.919 135.964Z" fill="#4A4743"/>
<path d="M300.557 54.2476C278.992 53.6378 255.133 59.4312 255.133 59.4312C248.403 96.7832 253.298 140.081 253.298 140.081C269.968 144.655 288.933 137.794 288.933 137.794C291.839 122.244 305.299 78.1835 305.299 78.1835C315.852 76.9638 324.569 74.0671 331.758 70.1032C326.405 63.7 323.805 55.6197 322.734 50.8936C314.934 53.1804 307.287 54.4001 300.557 54.2476Z" fill="#FF9123"/>
<path d="M300.557 54.2476C278.992 53.6378 255.133 59.4312 255.133 59.4312C248.403 96.7832 253.298 140.081 253.298 140.081C269.968 144.655 288.933 137.794 288.933 137.794C291.839 122.244 305.299 78.1835 305.299 78.1835C315.852 76.9638 324.569 74.0671 331.758 70.1032C326.405 63.7 323.805 55.6197 322.734 50.8936C314.934 53.1804 307.287 54.4001 300.557 54.2476Z" fill="url(#paint0_linear_633_672)" fill-opacity="0.5"/>
<path d="M364.641 23.1461C362.499 20.5544 359.899 21.774 359.899 21.774C356.535 35.1903 339.864 45.8623 322.581 50.8934C323.652 55.6195 326.099 63.6998 331.605 70.103C360.205 54.3999 364.641 23.1461 364.641 23.1461Z" fill="#FFBE9D"/>
<path d="M364.189 23.7548C364.342 24.5171 361.895 25.4319 360.365 22.6876C360.365 21.3155 359.601 15.3697 360.365 14.3025C364.801 8.35665 373.365 0.88623 373.365 0.88623C374.742 2.25835 373.518 3.63047 373.518 3.63047L369.389 7.89928C370.307 9.42385 371.224 10.796 371.836 12.6254C372.142 13.9976 371.989 15.5221 371.224 16.8943C370.46 18.2664 369.542 19.9434 368.471 21.1631C366.636 23.7548 364.189 23.7548 364.189 23.7548Z" fill="#F5B493"/>
<path d="M367.56 10.645L363.736 13.8466L362.513 17.0482L365.878 20.8596C365.878 20.8596 367.101 14.6089 367.866 13.2368C368.784 11.7122 368.325 11.1024 367.56 10.645Z" fill="#F5B493"/>
<path d="M263.258 80.3163L255.152 59.4297C255.152 59.4297 234.81 72.8459 231.293 90.2261C235.116 90.531 241.999 91.5982 248.728 95.1047C250.411 86.872 263.258 80.3163 263.258 80.3163Z" fill="#FF9123"/>
<path d="M263.258 80.3163L255.152 59.4297C255.152 59.4297 234.81 72.8459 231.293 90.2261C235.116 90.531 241.999 91.5982 248.728 95.1047C250.411 86.872 263.258 80.3163 263.258 80.3163Z" fill="url(#paint1_linear_633_672)" fill-opacity="0.5"/>
<path d="M280.687 100.136C280.687 100.136 257.899 112.637 250.404 101.66C248.875 99.3736 248.416 97.0868 248.875 94.9524C242.145 91.4459 235.263 90.3786 231.439 90.0737C230.369 95.2573 230.827 100.898 233.886 106.539C247.04 131.085 283.746 105.624 283.746 105.624L280.687 100.136Z" fill="#FFBE9D"/>
<path d="M278.851 36.5625L271.816 56.2295C271.663 56.5345 271.816 56.9918 272.121 57.1443C273.957 58.2115 280.686 61.2607 288.945 56.2295C289.863 55.7722 290.322 54.8575 290.475 53.7903L292.922 36.715L278.851 36.5625Z" fill="#F5B493"/>
<path d="M293.989 18.4204C293.989 18.4204 301.33 32.599 300.413 38.3923C299.342 44.0333 290.013 43.5759 281.907 38.8497L276.401 23.4515L293.989 18.4204Z" fill="#FFBE9D"/>
<path d="M282.368 31.2266C282.674 31.0742 282.827 30.6168 282.674 30.3119C282.062 29.3972 280.992 27.5677 280.686 25.8906C280.686 25.8906 279.309 24.9759 284.204 23.9087C289.098 22.8415 296.286 21.1645 297.816 17.0481C299.345 13.0842 295.521 3.02202 289.251 10.9498C288.945 11.2547 288.486 11.2547 288.333 10.9498C287.262 9.57769 284.662 6.83345 280.992 8.51048C277.474 10.0351 277.168 12.4744 277.168 13.8465C277.168 14.1514 276.862 14.4563 276.403 14.4563C274.721 14.1514 270.439 13.8465 268.45 18.1153C266.768 21.6218 267.839 23.6038 268.756 24.671C269.062 24.9759 268.909 25.5857 268.45 25.5857C267.227 25.8906 265.85 26.8054 266.003 29.5496C266.156 33.2086 270.286 32.9037 271.509 32.7512C271.662 32.7512 271.968 32.7512 271.968 32.9037C273.039 33.9709 277.474 38.8495 282.368 39.4593C282.827 39.4593 283.133 39.1544 282.98 38.6971L280.839 32.4463C280.686 32.1414 280.839 31.8365 281.145 31.684L282.368 31.2266Z" fill="#4A4743"/>
<path d="M283.135 32.141C283.135 32.141 277.782 28.482 277.323 31.5312C276.864 34.5804 282.064 36.1049 284.664 34.8853L283.135 32.141Z" fill="url(#paint2_linear_633_672)"/>
<path d="M275.941 119.957L288.33 76.8115C288.483 76.3541 288.942 75.8968 289.4 75.8968C291.695 75.5919 298.118 74.8296 305.612 74.2198C314.636 73.4575 325.189 72.8476 331.46 73.305C332.378 73.305 332.837 74.3722 332.531 75.1345C329.013 82.3 314.33 111.724 306.836 121.329C306.53 121.634 306.224 121.786 305.765 121.786L277.012 121.481C276.4 121.634 275.788 120.719 275.941 119.957Z" fill="#4A4743"/>
<path d="M278.995 109.589C278.995 109.589 277.312 102.576 277.924 99.9846C278.689 97.5453 279.912 94.1912 284.501 94.9535C288.936 95.7158 294.289 97.5453 294.289 97.5453C294.289 97.5453 293.983 100.747 290.618 99.8321L292.76 101.509C292.76 101.509 292.454 104.101 289.548 102.729L291.536 104.863C291.536 104.863 290.313 106.998 288.171 105.625C286.03 104.101 284.959 110.352 278.995 109.589Z" fill="#F5B493"/>
<path d="M308.517 90.8375C306.49 90.8375 304.846 89.1993 304.846 87.1785C304.846 85.1577 306.49 83.5195 308.517 83.5195C310.544 83.5195 312.188 85.1577 312.188 87.1785C312.188 89.1993 310.544 90.8375 308.517 90.8375Z" fill="white" fill-opacity="0.2"/>
<path d="M289.711 89.4652L292.311 80.9276C292.617 79.8604 293.535 79.0981 294.606 78.7932C302.559 77.1161 324.124 76.8112 324.43 76.8112V75.8965C324.277 75.8965 302.406 76.2014 294.453 77.8784C293.076 78.1833 292.006 79.2505 291.547 80.6226L288.947 89.1603L289.711 89.4652Z" fill="white" fill-opacity="0.1"/>
<path d="M134.808 216.919H139.855V271.499H134.808V216.919Z" fill="#4A4743"/>
<path d="M115.088 272.718H159.441C159.441 270.888 157.912 269.364 156.077 269.364H118.3C116.617 269.364 115.088 270.888 115.088 272.718Z" fill="#4A4743"/>
<path d="M108.507 215.09C108.507 218.139 110.955 220.578 114.013 220.578H158.826C161.885 220.578 164.332 218.139 164.332 215.09V210.211C164.332 207.162 161.885 204.723 158.826 204.723H114.013C110.955 204.723 108.507 207.162 108.507 210.211V215.09Z" fill="#4A4743"/>
<path d="M174.735 180.634C174.735 180.634 182.229 181.853 190.794 187.494C192.171 188.409 192.782 189.934 192.629 191.458C191.559 199.386 187.429 225.304 173.664 250.612C172.9 251.984 172.747 253.508 173.053 255.033L175.5 266.162L179.935 270.279H168.464L160.817 249.849L164.029 248.782C166.476 248.02 168.311 245.733 168.311 242.989L168.617 221.035C168.311 211.278 174.582 204.57 174.582 204.57L156.382 203.655L174.735 180.634Z" fill="#F5B493"/>
<path d="M184.211 272.109C185.282 273.481 173.046 275.31 166.929 272.261C166.929 272.261 158.364 257.473 158.364 249.85C158.364 249.85 158.976 248.325 164.023 248.63C164.023 248.63 166.929 266.163 169.988 268.145C173.046 270.127 178.4 268.297 178.4 268.297C178.4 268.297 182.682 270.127 184.211 272.109Z" fill="#4A4743"/>
<path d="M158.823 204.723C158.976 204.57 178.4 202.436 178.4 202.436C178.4 202.436 177.788 208.382 179.777 216.462C181.765 224.542 210.366 259.912 210.366 259.912L207.307 269.365C216.636 272.566 225.66 273.176 234.684 271.042L216.024 259.912C216.024 259.912 198.589 200.759 187.883 190.239L168.306 183.531L158.823 204.723Z" fill="#FFBE9D"/>
<path d="M115.082 170.268C115.082 170.268 103.917 186.885 102.846 194.508C101.928 202.131 105.905 205.18 117.682 205.638C129.458 206.095 160.965 206.095 160.965 206.095L187.883 183.226C187.883 183.226 168.306 176.213 163.259 174.231C158.212 172.554 115.082 170.268 115.082 170.268Z" fill="#FF9123"/>
<path d="M115.082 170.268C115.082 170.268 103.917 186.885 102.846 194.508C101.928 202.131 105.905 205.18 117.682 205.638C129.458 206.095 160.965 206.095 160.965 206.095L187.883 183.226C187.883 183.226 168.306 176.213 163.259 174.231C158.212 172.554 115.082 170.268 115.082 170.268Z" fill="url(#paint3_linear_633_672)" fill-opacity="0.5"/>
<path d="M208.529 266.164C208.529 266.164 205.317 269.213 207.458 272.72C207.458 272.72 233 277.293 240.035 275.159C240.035 275.159 238.659 271.805 230.706 268.146L231.317 268.603C232.082 269.213 231.623 270.28 230.706 270.28C225.658 269.976 214.952 269.061 208.529 266.164Z" fill="#4A4743"/>
<path d="M166.164 91.4478C166.164 92.9723 152.093 150.449 152.093 150.449L112.175 162.188C104.528 164.475 96.1158 161.273 91.9863 154.565C81.2802 137.795 86.4803 115.536 103.304 104.864L108.963 101.358C121.046 93.7346 131.446 83.8249 139.552 72.2381L141.693 69.189L166.164 91.4478Z" fill="#4A4743"/>
<path d="M97.9428 146.942C98.0958 146.942 98.0958 146.942 98.0958 146.79C98.0958 146.637 98.0958 146.485 97.9428 146.485C93.2016 143.74 92.7427 137.337 92.8957 134.593C92.8957 129.409 94.2721 124.226 96.8722 119.652C101.461 111.572 109.567 105.931 117.367 100.595L119.049 99.5278C127.002 94.0394 135.873 87.3312 139.391 77.5739C139.391 77.4215 139.391 77.269 139.238 77.269C139.085 77.269 138.932 77.2691 138.932 77.4215C135.414 87.0263 126.696 93.7344 118.743 99.2229L117.061 100.29C109.261 105.626 101.155 111.267 96.4134 119.5C93.8133 124.073 92.4368 129.257 92.2839 134.593C92.5898 137.49 93.0486 144.045 97.9428 146.942Z" fill="white" fill-opacity="0.2"/>
<path d="M101.313 138.405C101.466 138.405 101.618 138.252 101.465 138.1C100.395 132.764 100.548 128.038 101.924 123.921C104.371 116.603 110.948 111.267 116.301 107.456C117.372 106.694 118.442 105.931 119.666 105.169C124.713 101.663 129.913 98.1561 133.737 93.2775C133.89 93.125 133.737 92.9725 133.737 92.9725C133.584 92.8201 133.431 92.9725 133.431 92.9725C129.76 97.8512 124.56 101.358 119.513 104.712C118.442 105.474 117.219 106.236 116.148 106.999C110.642 110.81 104.066 116.299 101.618 123.769C100.242 127.885 100.089 132.764 101.16 138.1C101.007 138.405 101.16 138.405 101.313 138.405Z" fill="white" fill-opacity="0.2"/>
<path d="M145.518 168.135C145.518 168.135 158.672 155.786 165.095 147.553C168.613 143.132 169.684 137.186 168.001 131.85C165.095 121.941 159.895 111.726 159.283 110.201C158.519 107.762 143.836 107.914 143.836 107.914C143.836 107.914 114.93 126.667 103.612 158.225L116.306 162.189C116.306 162.189 123.8 149.535 131.295 141.607C131.295 141.607 118.447 158.53 117.989 165.543L145.518 168.135Z" fill="#FF9123"/>
<path d="M145.518 168.135C145.518 168.135 158.672 155.786 165.095 147.553C168.613 143.132 169.684 137.186 168.001 131.85C165.095 121.941 159.895 111.726 159.283 110.201C158.519 107.762 143.836 107.914 143.836 107.914C143.836 107.914 114.93 126.667 103.612 158.225L116.306 162.189C116.306 162.189 123.8 149.535 131.295 141.607C131.295 141.607 118.447 158.53 117.989 165.543L145.518 168.135Z" fill="url(#paint4_linear_633_672)" fill-opacity="0.5"/>
<path d="M163.254 93.1247C163.101 93.582 157.136 109.59 156.83 109.895C156.524 110.2 148.418 110.657 144.595 108.065L154.077 89.6182L163.254 93.1247Z" fill="#FFBE9D"/>
<path d="M172.129 169.049L162.493 159.749L149.187 165.39C149.187 165.39 135.881 167.372 128.387 165.39C120.74 163.408 120.74 163.408 120.74 163.408L103.61 158.072L100.857 165.695C100.245 167.677 100.857 169.811 102.539 170.878C104.069 171.945 105.751 173.013 106.822 173.622C109.116 174.537 162.493 173.013 162.493 173.013L172.129 169.049Z" fill="#FFBE9D"/>
<path d="M161.727 66.5972C161.727 66.5972 168.609 69.9512 172.892 80.4708C177.174 90.9903 173.197 95.564 168.762 95.8689C164.174 96.3263 157.444 95.7165 150.562 88.7035C143.832 81.8429 152.703 62.4808 161.727 66.5972Z" fill="#FFBE9D"/>
<path d="M155.763 83.6722C155.763 83.6722 151.328 68.4265 164.634 69.0364L167.693 71.3232C167.693 71.3232 173.046 63.243 165.246 58.8217C157.446 54.4005 145.21 57.2971 141.234 67.8167C137.257 78.3362 138.786 85.5017 144.14 90.9902C149.493 96.4786 152.246 90.6853 152.246 90.6853C152.246 90.6853 149.493 85.6542 150.869 83.2149C152.246 80.7756 154.998 83.9772 154.998 83.9772L155.763 83.6722Z" fill="#4A4743"/>
<path d="M155.606 86.2636C155.606 86.2636 149.335 79.708 147.194 84.4341C144.9 89.1603 153.312 90.38 156.523 90.5324L155.606 86.2636Z" fill="#FFBE9D"/>
<path d="M135.728 173.468C135.881 173.468 135.881 173.468 135.728 173.468H191.705C193.082 173.468 194.152 172.401 194.152 171.029C194.152 169.657 193.082 168.589 191.705 168.589H135.881C134.504 168.589 133.434 169.657 133.434 171.029C133.434 172.248 134.504 173.316 135.728 173.468Z" fill="#403D39"/>
<path d="M241.872 122.853H195.377C192.012 122.853 188.8 124.834 187.423 127.884L166.011 173.316H223.671C225.812 173.316 227.801 171.944 228.718 169.962L245.389 127.884C246.307 125.597 244.472 122.853 241.872 122.853Z" fill="#72685B"/>
<path d="M210.843 152.916C208.913 152.297 208.167 149.261 209.176 146.135C210.186 143.01 212.568 140.977 214.498 141.597C216.428 142.216 217.174 145.252 216.165 148.378C215.155 151.503 212.773 153.536 210.843 152.916Z" fill="white" fill-opacity="0.2"/>
<path d="M72.2501 265.706C72.2501 265.706 71.6383 268.908 71.4854 272.719C71.3325 274.396 72.556 275.768 74.2384 275.921C79.8973 276.531 92.8975 277.445 101.309 276.226C102.533 276.073 102.992 274.701 102.074 273.786C98.7094 270.585 90.4504 264.486 76.8384 263.114L72.2501 265.706Z" fill="#5E5B57"/>
<path d="M69.3501 258.389L72.2561 265.402C72.715 266.317 73.6326 266.927 74.7032 266.927C75.4679 266.927 76.2326 266.774 76.9974 266.469C78.6797 266.012 79.5974 264.182 78.9856 262.658L76.8445 255.34L69.3501 258.389Z" fill="#FFBE9D"/>
<path d="M19.9413 271.348C19.9413 271.348 25.7532 276.226 28.0473 282.325C28.6591 284.002 27.2826 285.831 25.6003 285.831H13.6707C11.9883 285.831 10.6117 284.307 10.9176 282.63C11.5294 278.361 13.8236 271.348 19.9413 271.348Z" fill="#5E5B57"/>
<path d="M12.7543 265.096C12.7543 265.096 13.9779 270.28 14.8955 273.634C15.0485 274.244 15.6602 274.549 16.272 274.396C18.1073 273.786 19.4839 273.481 20.5545 273.634C21.0133 273.634 21.4721 273.329 21.4721 272.872L21.625 264.334L12.7543 265.096Z" fill="#FFBE9D"/>
<path d="M43.4948 149.229L78.6719 256.101C78.6719 256.101 71.9423 260.523 68.7305 260.37L26.9768 174.384C26.9768 174.384 19.6355 227.287 23.1532 265.401L11.2236 266.316C11.2236 266.316 -8.20022 169.201 6.48238 135.965L43.4948 149.229Z" fill="#4A4743"/>
<path d="M50.2209 55.1626C50.2209 55.1626 21.7733 57.7544 25.7498 77.8787C25.7498 77.8787 9.99661 107.455 2.65529 142.216C2.3494 143.283 3.11408 144.503 4.33764 144.655L51.7504 152.735C53.1269 152.888 54.3504 152.125 54.6563 150.906L65.9742 107.303L70.4096 127.427L84.4805 123.768L72.7037 64.1576C72.5508 64.1576 70.8684 55.4675 50.2209 55.1626Z" fill="#FF9123"/>
<path d="M50.2209 55.1626C50.2209 55.1626 21.7733 57.7544 25.7498 77.8787C25.7498 77.8787 9.99661 107.455 2.65529 142.216C2.3494 143.283 3.11408 144.503 4.33764 144.655L51.7504 152.735C53.1269 152.888 54.3504 152.125 54.6563 150.906L65.9742 107.303L70.4096 127.427L84.4805 123.768L72.7037 64.1576C72.5508 64.1576 70.8684 55.4675 50.2209 55.1626Z" fill="url(#paint5_linear_633_672)" fill-opacity="0.5"/>
<path d="M66.1272 105.169C65.8213 105.169 65.6684 104.864 65.8213 104.711L69.7978 86.5691C69.7978 86.4166 69.9508 86.2642 70.2567 86.2642C70.4096 86.2642 70.5625 86.5691 70.5625 86.7215L66.586 104.864C66.4331 105.169 66.2802 105.169 66.1272 105.169Z" fill="black" fill-opacity="0.1"/>
<path d="M63.3796 159.139C61.8502 158.376 60.1678 158.071 58.4854 158.529L55.1206 159.291C54.3559 159.443 53.7441 158.986 53.5911 158.224L50.2264 127.885C45.9439 129.867 39.8262 129.714 37.8379 129.562L45.638 165.237H73.168L63.3796 159.139Z" fill="#FFBE9D"/>
<path d="M136.332 93.2775L135.567 90.5333C135.108 89.0087 133.885 87.6366 132.355 87.0268L117.367 80.9285C117.367 80.9285 117.214 78.9465 120.579 77.7269C123.944 76.3548 123.179 72.6958 123.179 72.6958C123.179 72.6958 118.591 74.8302 111.708 78.1843C107.884 80.1662 105.59 83.5202 104.52 86.112L70.4131 127.428L74.3896 130.172C79.5897 133.831 86.9311 132.002 89.837 126.361L108.343 91.1431C117.52 93.8874 127.002 94.4972 136.332 93.2775Z" fill="#FFBE9D"/>
<path d="M59.4171 35.8031L50.6993 60.1963C50.6993 60.1963 58.4995 66.2946 64.1584 64.1602L68.5938 50.1341C68.4408 50.2865 65.0761 33.0589 59.4171 35.8031Z" fill="#F5B493"/>
<path d="M85.5664 26.9599C85.5664 27.2648 77.1546 50.7432 77.1546 50.7432L63.8485 45.7121L68.5897 22.3861C68.4368 22.3861 85.5664 20.7091 85.5664 26.9599Z" fill="#FFBE9D"/>
<path d="M70.8837 28.0262L67.519 40.2229C67.519 40.3753 67.519 40.5278 67.519 40.6802C67.519 41.595 67.8249 45.1015 71.1896 44.6441C74.4014 44.1867 77.3073 43.8818 78.9897 44.7966C79.7544 45.254 80.2133 46.1687 79.9074 46.931C79.1427 49.0654 77.3073 53.7916 75.1661 57.7554C74.7073 58.5177 73.7896 58.8227 72.872 58.5177C70.4249 57.4505 65.2248 54.8588 61.4012 51.8096C60.9424 51.3522 60.6366 50.7424 60.7895 50.1326C61.4013 47.0834 63.0836 37.6311 63.2366 34.8868C63.2366 32.2951 60.4836 30.4656 59.2601 29.7033C58.8012 29.3984 58.4954 29.0934 58.4954 28.6361C58.0365 26.959 57.7306 23.3001 62.4718 22.5378C63.3895 22.3853 64.1543 21.4706 63.8484 20.4034C63.3895 18.4214 63.5425 15.5247 67.366 14.4575C71.1896 13.3903 73.4838 15.6772 74.7073 17.3542C75.1661 18.1165 76.0838 18.269 76.8485 17.964C77.3074 17.8116 77.7662 17.8116 78.378 18.269C79.1427 18.8788 80.3663 18.7263 80.978 17.8116C82.0486 16.1346 84.0369 14.61 87.4016 15.6772C93.3664 17.6591 93.0605 24.5197 90.9193 28.3312C88.7781 32.1426 82.3545 29.5508 79.2956 27.1115C77.0015 25.282 73.4838 26.3492 71.9543 26.9591C71.3426 27.1115 70.8837 27.5689 70.8837 28.0262Z" fill="#4A4743"/>
<path d="M61.8668 39.1563C61.8668 39.1563 65.3845 32.4482 63.0903 30.3139C60.7962 28.1795 56.8196 28.4844 56.8196 33.8204C56.9725 40.376 61.8668 39.1563 61.8668 39.1563Z" fill="#FFBE9D"/>
<path d="M40.595 130.019C38.6068 130.019 37.2303 129.867 37.0773 129.867H36.7714L26.3712 81.6904C26.3712 81.538 26.5242 81.3855 26.6772 81.2331C26.8301 81.2331 26.983 81.3855 27.136 81.538L37.3832 129.257C38.9127 129.41 47.1716 129.867 51.454 126.818L42.4304 84.892L44.2657 81.3855C44.4187 81.233 44.5716 81.0806 44.7245 81.2331C44.8775 81.3855 45.0304 81.538 44.8774 81.6904L43.1951 85.0445L52.2188 127.123L52.0658 127.275C49.007 129.562 43.9598 130.019 40.595 130.019Z" fill="black" fill-opacity="0.1"/>
<path d="M351.52 276.986C351.826 276.986 351.979 276.986 352.285 276.834C353.203 276.377 353.662 275.309 353.203 274.242L315.273 178.346C314.814 177.279 313.743 176.822 312.826 177.279C311.908 177.737 311.449 178.804 311.908 179.871L349.838 275.767C350.144 276.529 350.756 276.986 351.52 276.986Z" fill="#4A4743"/>
<path d="M308.852 276.986C309.617 276.986 310.229 276.529 310.534 275.767L348.465 179.871C348.923 178.804 348.465 177.737 347.547 177.279C346.629 176.822 345.559 177.279 345.1 178.346L307.17 274.242C306.711 275.309 307.17 276.376 308.087 276.834C308.24 276.986 308.546 276.986 308.852 276.986Z" fill="#4A4743"/>
<path d="M94.2665 276.986C94.5724 276.986 94.7253 276.986 95.0312 276.834C95.9489 276.376 96.4077 275.309 95.9489 274.242L58.0189 178.346C57.5601 177.279 56.4894 176.822 55.5718 177.279C54.6541 177.737 54.1953 178.804 54.6541 179.871L92.5841 275.767C92.89 276.529 93.5018 276.986 94.2665 276.986Z" fill="#4A4743"/>
<path d="M51.602 276.986C52.3667 276.986 52.9784 276.529 53.2843 275.767L91.2145 179.871C91.6734 178.804 91.2145 177.737 90.2969 177.279C89.3792 176.822 88.3086 177.279 87.8497 178.346L49.9195 274.242C49.4607 275.309 49.9196 276.376 50.8372 276.834C50.9902 276.986 51.2961 276.986 51.602 276.986Z" fill="#4A4743"/>
<path d="M99.7891 171.639H44.882V165.999H99.7891C98.5655 165.999 98.5655 171.639 99.7891 171.639Z" fill="#908D89"/>
<path d="M45.3421 171.638C45.0362 171.638 44.8833 171.486 44.8833 171.181V166.455C44.8833 166.15 45.0362 165.997 45.3421 165.997H101.014C101.32 165.997 101.473 165.845 101.473 165.54V165.235C101.473 164.93 101.32 164.778 101.014 164.778H41.8244C40.4479 164.778 39.3773 165.845 39.3773 167.217V170.876C39.3773 172.096 40.4479 173.163 41.6715 173.163H101.014C101.32 173.163 101.473 173.01 101.473 172.706V172.401C101.473 172.096 101.32 171.943 101.014 171.943H45.3421V171.638Z" fill="#4A4743"/>
<path d="M36.9201 175.45C36.7672 174.84 36.9202 174.23 37.532 173.62C38.1437 173.163 39.0614 172.858 39.979 172.858H368.962C370.185 172.858 371.409 173.315 372.173 173.925C372.785 174.687 372.938 175.602 372.479 176.364L368.962 181.395C368.197 182.615 366.362 183.377 364.373 183.377H42.4262C40.5909 183.377 39.0614 182.463 38.7555 181.395L36.9201 175.45Z" fill="#7C7975"/>
</g>
<defs>
<linearGradient id="paint0_linear_633_672" x1="309.081" y1="57.3109" x2="271.2" y2="138.331" gradientUnits="userSpaceOnUse">
<stop stop-color="#FFCA00"/>
<stop offset="0.791667" stop-color="#FF9000"/>
</linearGradient>
<linearGradient id="paint1_linear_633_672" x1="254.217" y1="61.9522" x2="239.463" y2="93.9591" gradientUnits="userSpaceOnUse">
<stop stop-color="#FFCA00"/>
<stop offset="0.791667" stop-color="#FF9000"/>
</linearGradient>
<linearGradient id="paint2_linear_633_672" x1="221.203" y1="-1160.46" x2="222.567" y2="-1133.11" gradientUnits="userSpaceOnUse">
<stop stop-color="#FF928E"/>
<stop offset="1" stop-color="#FEB3B1"/>
</linearGradient>
<linearGradient id="paint3_linear_633_672" x1="163.796" y1="172.801" x2="157.222" y2="210.633" gradientUnits="userSpaceOnUse">
<stop stop-color="#FFCA00"/>
<stop offset="0.791667" stop-color="#FF9000"/>
</linearGradient>
<linearGradient id="paint4_linear_633_672" x1="150.349" y1="112.171" x2="128.524" y2="169.352" gradientUnits="userSpaceOnUse">
<stop stop-color="#FFCA00"/>
<stop offset="0.791667" stop-color="#FF9000"/>
</linearGradient>
<linearGradient id="paint5_linear_633_672" x1="61.3189" y1="62.063" x2="19.2539" y2="147.522" gradientUnits="userSpaceOnUse">
<stop stop-color="#FFCA00"/>
<stop offset="0.791667" stop-color="#FF9000"/>
</linearGradient>
</defs>
</svg>
