<svg width="83" height="83" viewBox="0 0 83 83" fill="none" xmlns="http://www.w3.org/2000/svg">
<path d="M19.9434 82.4158L2.35938 72.0701C3.16651 70.8331 4.37722 69.9897 5.70323 69.6523C7.08689 69.3149 8.5282 69.4836 9.85421 70.2708C11.0073 70.9455 12.4486 70.6082 13.1404 69.4836L17.9256 61.7805L22.0189 64.1983L17.2337 71.9014C16.8878 72.4636 16.8302 73.0821 16.9455 73.7006C17.1184 74.2629 17.4644 74.8252 18.0409 75.1625C19.3092 75.9497 20.174 77.1305 20.5199 78.4237C20.9235 79.7169 20.7506 81.1788 19.9434 82.4158Z" fill="#FF9123"/>
<path d="M19.9434 82.4158L2.35938 72.0701C3.16651 70.8331 4.37722 69.9897 5.70323 69.6523C7.08689 69.3149 8.5282 69.4836 9.85421 70.2708C11.0073 70.9455 12.4486 70.6082 13.1404 69.4836L17.9256 61.7805L22.0189 64.1983L17.2337 71.9014C16.8878 72.4636 16.8302 73.0821 16.9455 73.7006C17.1184 74.2629 17.4644 74.8252 18.0409 75.1625C19.3092 75.9497 20.174 77.1305 20.5199 78.4237C20.9235 79.7169 20.7506 81.1788 19.9434 82.4158Z" fill="url(#paint0_linear_1101_12470)" fill-opacity="0.5"/>
<path d="M19.9409 82.416L8.23744 75.5001C5.52776 73.3073 6.85377 71.3955 8.23744 71.0582C9.6211 70.7208 11.0624 70.8895 12.3884 71.6767C13.5415 72.3514 14.9828 72.014 15.6746 70.8895L20.4598 63.1864L22.0741 64.1423L17.2889 71.8454C16.943 72.4076 16.8853 73.0261 17.0006 73.6446C17.1736 74.2069 17.5195 74.7692 18.096 75.1065C19.3644 75.8937 20.2292 77.0745 20.5751 78.3677C20.921 79.7171 20.7481 81.179 19.9409 82.416Z" fill="#FF9123"/>
<path d="M19.9409 82.416L8.23744 75.5001C5.52776 73.3073 6.85377 71.3955 8.23744 71.0582C9.6211 70.7208 11.0624 70.8895 12.3884 71.6767C13.5415 72.3514 14.9828 72.014 15.6746 70.8895L20.4598 63.1864L22.0741 64.1423L17.2889 71.8454C16.943 72.4076 16.8853 73.0261 17.0006 73.6446C17.1736 74.2069 17.5195 74.7692 18.096 75.1065C19.3644 75.8937 20.2292 77.0745 20.5751 78.3677C20.921 79.7171 20.7481 81.179 19.9409 82.416Z" fill="url(#paint1_linear_1101_12470)" fill-opacity="0.5"/>
<path d="M71.3776 32.4301L57.1374 49.9167C52.1792 57.901 43.6467 61.7244 35.46 62.0618C32.6927 62.1742 29.9253 61.8931 27.3886 61.2184C25.2555 60.6561 22.8341 61.7806 21.5081 63.9173L21.2198 64.3671C20.4127 65.7165 19.7208 66.8411 19.7208 66.8411L16.7229 65.098C16.7229 65.098 17.4147 63.9735 18.2795 62.624C19.7208 60.2625 19.6632 57.3949 18.0489 55.6519C11.1882 48.1737 8.65153 35.8038 15.1663 25.2331L24.7943 5.04761L71.3776 32.4301Z" fill="#FF9123"/>
<path d="M71.3776 32.4301L57.1374 49.9167C52.1792 57.901 43.6467 61.7244 35.46 62.0618C32.6927 62.1742 29.9253 61.8931 27.3886 61.2184C25.2555 60.6561 22.8341 61.7806 21.5081 63.9173L21.2198 64.3671C20.4127 65.7165 19.7208 66.8411 19.7208 66.8411L16.7229 65.098C16.7229 65.098 17.4147 63.9735 18.2795 62.624C19.7208 60.2625 19.6632 57.3949 18.0489 55.6519C11.1882 48.1737 8.65153 35.8038 15.1663 25.2331L24.7943 5.04761L71.3776 32.4301Z" fill="url(#paint2_linear_1101_12470)" fill-opacity="0.5"/>
<path d="M11.8761 39.346C13.0292 32.7675 9.80063 29.2252 6.34147 25.458C3.57415 22.4217 0.749171 19.3292 0.114992 14.6624C-0.576839 9.48951 1.90222 4.20417 6.22616 1.5615C9.51236 -0.462668 13.2021 -0.518895 16.2577 1.39282C20.6393 4.14794 22.2536 9.37705 20.9276 16.6866C20.0051 21.8594 17.9296 26.3014 17.8143 26.4701L15.1047 25.2331C15.22 24.9519 22.7148 8.87101 14.6434 3.81058C11.8761 2.06755 9.16645 3.19209 7.84044 4.03549C4.49659 6.05966 2.5364 10.2767 3.11293 14.2688C3.6318 18.036 6.05321 20.6787 8.58992 23.49C12.1644 27.4259 16.2577 31.9241 14.8164 39.8521L11.8761 39.346Z" fill="#FF9123"/>
<path d="M11.8761 39.346C13.0292 32.7675 9.80063 29.2252 6.34147 25.458C3.57415 22.4217 0.749171 19.3292 0.114992 14.6624C-0.576839 9.48951 1.90222 4.20417 6.22616 1.5615C9.51236 -0.462668 13.2021 -0.518895 16.2577 1.39282C20.6393 4.14794 22.2536 9.37705 20.9276 16.6866C20.0051 21.8594 17.9296 26.3014 17.8143 26.4701L15.1047 25.2331C15.22 24.9519 22.7148 8.87101 14.6434 3.81058C11.8761 2.06755 9.16645 3.19209 7.84044 4.03549C4.49659 6.05966 2.5364 10.2767 3.11293 14.2688C3.6318 18.036 6.05321 20.6787 8.58992 23.49C12.1644 27.4259 16.2577 31.9241 14.8164 39.8521L11.8761 39.346Z" fill="url(#paint3_linear_1101_12470)" fill-opacity="0.5"/>
<path d="M45.7716 59.3631C51.1909 55.3148 55.9185 56.4393 60.9919 57.6763C65.0276 58.6322 69.1785 59.6443 73.6754 58.0137C78.6912 56.2144 82.3233 51.6038 82.7269 46.6558C83.0152 42.8324 81.4009 39.6837 78.23 37.8844C73.7331 35.4104 68.1984 36.4225 62.2026 40.9207C57.9363 44.1256 54.8807 47.9491 54.7654 48.1177L57.1292 49.917C57.2445 49.7483 68.3714 35.804 76.731 40.4146C79.6137 41.989 79.8443 44.8566 79.729 46.3747C79.4407 50.1981 76.5004 53.8529 72.6377 55.2586C69.0056 56.5518 65.4888 55.7084 61.7414 54.8087C56.495 53.5155 50.5568 52.1099 43.9844 57.0016L45.7716 59.3631Z" fill="#FF9123"/>
<path d="M45.7716 59.3631C51.1909 55.3148 55.9185 56.4393 60.9919 57.6763C65.0276 58.6322 69.1785 59.6443 73.6754 58.0137C78.6912 56.2144 82.3233 51.6038 82.7269 46.6558C83.0152 42.8324 81.4009 39.6837 78.23 37.8844C73.7331 35.4104 68.1984 36.4225 62.2026 40.9207C57.9363 44.1256 54.8807 47.9491 54.7654 48.1177L57.1292 49.917C57.2445 49.7483 68.3714 35.804 76.731 40.4146C79.6137 41.989 79.8443 44.8566 79.729 46.3747C79.4407 50.1981 76.5004 53.8529 72.6377 55.2586C69.0056 56.5518 65.4888 55.7084 61.7414 54.8087C56.495 53.5155 50.5568 52.1099 43.9844 57.0016L45.7716 59.3631Z" fill="url(#paint4_linear_1101_12470)" fill-opacity="0.5"/>
<path d="M35.46 62.062C32.6927 62.1744 29.9253 61.8933 27.3886 61.2186C25.2555 60.6563 22.8341 61.7808 21.5081 63.9175L21.2198 64.3673C20.182 64.8733 19.3749 65.548 19.029 66.3914L16.7229 65.042C16.7229 65.042 17.4147 63.9175 18.2795 62.568C19.7208 60.2065 19.6632 57.3389 18.0489 55.5959C11.1882 48.1177 8.65153 35.7477 15.1663 25.1771L24.7943 4.99158L32.5197 9.54596C32.462 9.48974 1.21435 50.8166 35.46 62.062Z" fill="#FF9123"/>
<path d="M35.46 62.062C32.6927 62.1744 29.9253 61.8933 27.3886 61.2186C25.2555 60.6563 22.8341 61.7808 21.5081 63.9175L21.2198 64.3673C20.182 64.8733 19.3749 65.548 19.029 66.3914L16.7229 65.042C16.7229 65.042 17.4147 63.9175 18.2795 62.568C19.7208 60.2065 19.6632 57.3389 18.0489 55.5959C11.1882 48.1177 8.65153 35.7477 15.1663 25.1771L24.7943 4.99158L32.5197 9.54596C32.462 9.48974 1.21435 50.8166 35.46 62.062Z" fill="url(#paint5_linear_1101_12470)" fill-opacity="0.5"/>
<path d="M21.5637 68.5278L13.8959 63.9734C12.8582 63.3549 12.5122 62.0055 13.1464 60.9934C13.7806 59.9813 15.1643 59.644 16.202 60.2625L23.8698 64.8168C24.9076 65.4353 25.2535 66.7848 24.6193 67.7969C23.9851 68.8089 22.6591 69.1463 21.5637 68.5278Z" fill="#FF9123"/>
<path d="M21.5637 68.5278L13.8959 63.9734C12.8582 63.3549 12.5122 62.0055 13.1464 60.9934C13.7806 59.9813 15.1643 59.644 16.202 60.2625L23.8698 64.8168C24.9076 65.4353 25.2535 66.7848 24.6193 67.7969C23.9851 68.8089 22.6591 69.1463 21.5637 68.5278Z" fill="url(#paint6_linear_1101_12470)" fill-opacity="0.5"/>
<g opacity="0.8">
<path fill-rule="evenodd" clip-rule="evenodd" d="M42.1606 26.7281C41.4928 26.3461 40.6377 26.5582 40.2505 27.2018C39.8633 27.8455 40.0907 28.677 40.7584 29.059C41.4261 29.441 42.2813 29.2289 42.6685 28.5853C43.0557 27.9416 42.8283 27.1101 42.1606 26.7281ZM31.3939 44.6262C30.7262 44.2442 29.871 44.4563 29.4838 45.0999C29.0966 45.7436 29.324 46.5751 29.9917 46.9571C30.6594 47.3391 31.5146 47.127 31.9018 46.4834C32.289 45.8397 32.0616 45.0082 31.3939 44.6262ZM44.1324 41.3959C44.5196 40.7522 45.3748 40.5401 46.0425 40.9222C46.7102 41.3042 46.9376 42.1357 46.5504 42.7793C46.1632 43.423 45.308 43.6351 44.6403 43.2531C43.9726 42.8711 43.7452 42.0396 44.1324 41.3959ZM27.4757 30.2995C26.808 29.9174 25.9528 30.1295 25.5656 30.7732C25.1784 31.4169 25.4058 32.2484 26.0735 32.6304C26.7412 33.0124 27.5964 32.8003 27.9836 32.1566C28.3708 31.513 28.1434 30.6815 27.4757 30.2995Z" fill="#472A02" fill-opacity="0.35"/>
<path fill-rule="evenodd" clip-rule="evenodd" d="M42.1215 26.3453C41.4538 25.9632 40.5986 26.1754 40.2114 26.819C39.8242 27.4627 40.0516 28.2942 40.7193 28.6762C41.387 29.0582 42.2422 28.8461 42.6294 28.2024C43.0166 27.5588 42.7892 26.7273 42.1215 26.3453ZM31.3548 44.2434C30.6871 43.8614 29.8319 44.0735 29.4447 44.7171C29.0575 45.3608 29.2849 46.1923 29.9526 46.5743C30.6204 46.9563 31.4755 46.7442 31.8627 46.1005C32.2499 45.4569 32.0225 44.6254 31.3548 44.2434ZM44.0933 41.0131C44.4805 40.3694 45.3357 40.1573 46.0034 40.5393C46.6711 40.9214 46.8985 41.7529 46.5113 42.3965C46.1241 43.0402 45.2689 43.2523 44.6012 42.8703C43.9335 42.4882 43.7061 41.6568 44.0933 41.0131ZM27.4366 29.9166C26.7689 29.5346 25.9138 29.7467 25.5266 30.3904C25.1394 31.0341 25.3668 31.8655 26.0345 32.2476C26.7022 32.6296 27.5574 32.4175 27.9446 31.7738C28.3318 31.1301 28.1044 30.2987 27.4366 29.9166Z" fill="white"/>
<path fill-rule="evenodd" clip-rule="evenodd" d="M47.905 33.9545C47.7066 33.2292 46.9411 32.7913 46.1952 32.9763C45.4492 33.1613 45.0053 33.8992 45.2037 34.6245C45.402 35.3497 46.1675 35.7877 46.9135 35.6027C47.6594 35.4177 48.1033 34.6798 47.905 33.9545ZM27.1631 39.099C26.9647 38.3737 26.1992 37.9357 25.4533 38.1207C24.7074 38.3058 24.2635 39.0437 24.4618 39.769C24.6602 40.4942 25.4257 40.9322 26.1716 40.7472C26.9175 40.5622 27.3614 39.8242 27.1631 39.099ZM38.6174 45.5733C39.3633 45.3883 40.1288 45.8262 40.3272 46.5515C40.5255 47.2768 40.0816 48.0147 39.3357 48.1997C38.5898 48.3847 37.8243 47.9467 37.6259 47.2215C37.4276 46.4962 37.8715 45.7583 38.6174 45.5733ZM34.8117 26.3842C34.6133 25.659 33.8478 25.221 33.1019 25.406C32.356 25.591 31.9121 26.329 32.1104 27.0542C32.3088 27.7795 33.0743 28.2175 33.8202 28.0325C34.5661 27.8474 35.01 27.1095 34.8117 26.3842Z" fill="#472A02" fill-opacity="0.35"/>
<path fill-rule="evenodd" clip-rule="evenodd" d="M47.8346 33.6204C47.6363 32.8951 46.8708 32.4571 46.1249 32.6422C45.3789 32.8272 44.935 33.5651 45.1334 34.2904C45.3317 35.0156 46.0972 35.4536 46.8432 35.2686C47.5891 35.0836 48.033 34.3456 47.8346 33.6204ZM27.0928 38.7649C26.8944 38.0396 26.1289 37.6016 25.383 37.7866C24.637 37.9716 24.1931 38.7096 24.3915 39.4348C24.5898 40.1601 25.3553 40.5981 26.1013 40.4131C26.8472 40.2281 27.2911 39.4901 27.0928 38.7649ZM38.5471 45.2392C39.293 45.0541 40.0585 45.4921 40.2569 46.2174C40.4552 46.9427 40.0113 47.6806 39.2654 47.8656C38.5194 48.0506 37.754 47.6126 37.5556 46.8874C37.3572 46.1621 37.8012 45.4242 38.5471 45.2392ZM34.7414 26.0501C34.543 25.3249 33.7775 24.8869 33.0316 25.0719C32.2857 25.2569 31.8417 25.9948 32.0401 26.7201C32.2385 27.4454 33.004 27.8834 33.7499 27.6983C34.4958 27.5133 34.9397 26.7754 34.7414 26.0501Z" fill="white"/>
<path d="M30.8741 33.9418L32.7095 40.3356C32.756 40.5037 32.9207 40.5979 33.0938 40.5554L44.9244 37.6762C45.0976 37.6337 45.1926 37.4757 45.1461 37.3076L44.4221 34.7701C44.3756 34.6019 44.211 34.5077 44.0378 34.5502L35.2371 36.6858C35.1559 36.3916 34.1912 33.1501 34.1912 33.1501C34.1447 32.982 33.98 32.8877 33.8069 32.9302L31.08 33.5995C30.9227 33.6157 30.8276 33.7737 30.8741 33.9418Z" fill="#472A02" fill-opacity="0.35"/>
<path d="M31.0381 33.3491L32.8736 39.7429C32.92 39.9111 33.0847 40.0053 33.2579 39.9628L45.0885 37.0836C45.2616 37.0411 45.3566 36.8831 45.3102 36.715L44.5861 34.1774C44.5397 34.0093 44.375 33.9151 44.2019 33.9575L35.4012 36.0931C35.3199 35.7989 34.3552 32.5574 34.3552 32.5574C34.3088 32.3893 34.1441 32.2951 33.971 32.3376L31.244 33.0069C31.0867 33.023 30.9917 33.181 31.0381 33.3491Z" fill="white"/>
</g>
<defs>
<linearGradient id="paint0_linear_1101_12470" x1="7.91965" y1="63.2396" x2="16.1119" y2="82.1357" gradientUnits="userSpaceOnUse">
<stop stop-color="#FFCA00"/>
<stop offset="0.791667" stop-color="#FF9000"/>
</linearGradient>
<linearGradient id="paint1_linear_1101_12470" x1="11.0224" y1="64.5461" x2="19.5413" y2="81.0739" gradientUnits="userSpaceOnUse">
<stop stop-color="#FFCA00"/>
<stop offset="0.791667" stop-color="#FF9000"/>
</linearGradient>
<linearGradient id="paint2_linear_1101_12470" x1="28.3566" y1="9.41684" x2="52.5738" y2="66.3339" gradientUnits="userSpaceOnUse">
<stop stop-color="#FFCA00"/>
<stop offset="0.791667" stop-color="#FF9000"/>
</linearGradient>
<linearGradient id="paint3_linear_1101_12470" x1="6.04633" y1="2.81782" x2="27.0025" y2="30.0345" gradientUnits="userSpaceOnUse">
<stop stop-color="#FFCA00"/>
<stop offset="0.791667" stop-color="#FF9000"/>
</linearGradient>
<linearGradient id="paint4_linear_1101_12470" x1="54.9512" y1="38.1794" x2="60.6373" y2="61.5965" gradientUnits="userSpaceOnUse">
<stop stop-color="#FFCA00"/>
<stop offset="0.791667" stop-color="#FF9000"/>
</linearGradient>
<linearGradient id="paint5_linear_1101_12470" x1="18.1981" y1="9.33298" x2="51.549" y2="40.9855" gradientUnits="userSpaceOnUse">
<stop stop-color="#FFCA00"/>
<stop offset="0.791667" stop-color="#FF9000"/>
</linearGradient>
<linearGradient id="paint6_linear_1101_12470" x1="16.253" y1="60.5803" x2="18.9365" y2="69.4337" gradientUnits="userSpaceOnUse">
<stop stop-color="#FFCA00"/>
<stop offset="0.791667" stop-color="#FF9000"/>
</linearGradient>
</defs>
</svg>
