<svg width="440" height="410" viewBox="0 0 440 410" fill="none" xmlns="http://www.w3.org/2000/svg">
<g opacity="0.95">
<path d="M378.077 164.693C376.981 167.251 375.154 169.078 372.231 170.174C370.769 170.539 369.308 171.635 369.308 173.462C368.212 173.462 367.481 173.828 367.481 175.289C366.385 175.655 364.923 174.558 364.192 176.385C366.385 177.116 366.385 177.116 367.481 175.289C368.577 175.289 369.308 174.924 369.308 173.462H371.865C372.596 172.732 372.962 172.366 373.692 171.635L376.981 174.924C377.346 174.558 377.712 174.558 378.077 174.193C380.269 172.001 382.096 170.174 384.288 167.981C387.212 168.347 387.942 165.424 389.769 164.328C391.231 164.693 393.423 163.231 393.788 166.155C392.327 169.443 388.673 170.905 386.846 174.193C386.846 174.924 387.212 175.289 387.212 176.02C388.308 177.116 390.135 176.02 391.231 176.751C391.962 176.02 392.692 175.289 393.058 174.924H397.442C400 173.828 402.192 172.366 404.75 171.635C405.481 171.27 406.577 171.635 407.673 171.635C407.673 172.366 408.404 173.462 408.038 174.193C406.942 175.289 405.481 176.385 404.75 177.116C404.75 180.405 406.212 181.501 408.404 182.232V184.789C407.673 185.52 407.308 185.886 406.577 186.616V188.443C405.481 189.539 404.019 191.001 402.923 192.097C401.827 193.193 400 194.655 399.635 196.116C399.269 198.309 397.077 199.039 395.981 200.866C394.885 202.328 393.788 203.79 392.327 204.52C390.5 205.616 391.596 207.809 389.769 208.905H387.942C386.481 211.463 385.019 214.02 385.019 217.674C383.558 217.674 382.462 217.674 381 218.04C378.808 219.867 378.077 222.424 376.615 224.982H373.692C370.038 228.636 366.019 232.655 362.365 236.309V237.04C360.538 237.405 359.442 238.501 359.077 240.328C357.981 240.694 356.519 240.328 357.615 242.155C357.981 241.79 358.346 241.059 359.077 240.328C359.808 240.328 360.904 240.328 362.365 240.328C362.365 238.867 362.365 237.771 362.365 236.674H364.923C368.577 233.021 372.596 229.001 376.25 225.347V224.617H379.173C380.635 222.79 382.462 220.963 383.923 219.501H386.115C386.481 218.405 386.846 217.674 387.212 216.578C388.308 215.482 389.769 216.213 390.5 216.213C391.962 215.482 392.692 214.751 393.788 214.386V216.578C392.692 217.674 391.231 218.77 390.135 219.501C390.5 220.963 389.769 222.79 390.865 224.251C393.423 221.694 395.615 218.405 398.904 216.578C401.827 214.751 404.75 212.559 406.942 210.001C408.038 210.367 408.404 210.367 409.135 210.367C410.231 211.097 409.5 212.559 409.865 213.655C408.769 213.655 408.038 214.02 408.038 215.482C406.942 215.482 406.212 215.847 406.577 217.309C405.481 217.674 404.019 217.309 405.115 219.136C405.481 218.77 405.846 218.04 406.577 217.309C406.942 217.309 407.673 217.309 408.038 217.309C408.769 218.405 409.135 219.501 409.865 220.597C409.5 223.155 406.577 223.886 406.577 226.078C405.481 226.444 404.019 226.078 405.115 227.905C405.481 227.54 405.846 226.809 406.577 226.078C407.308 226.078 408.038 226.078 409.135 226.078C413.885 221.328 418.269 216.578 423.019 212.193C424.115 212.193 425.577 211.828 425.577 213.655C425.577 214.751 425.577 215.847 425.577 216.944C424.481 217.309 423.75 217.309 422.654 217.674C421.923 219.136 421.192 220.597 420.462 222.424H426.673C427.404 222.059 427.769 221.328 428.5 220.963C429.962 222.059 428.865 223.155 429.596 224.251C428.5 224.617 427.038 224.251 428.135 226.078C428.5 225.713 428.865 224.982 429.596 224.251C431.423 223.886 432.154 221.694 433.981 220.963C435.442 221.328 436.904 220.232 438 221.694C436.904 222.79 435.808 224.251 434.712 225.347C434.712 226.444 434.712 227.905 436.173 227.905C437.635 227.905 438 228.636 438 230.463C432.519 235.944 426.308 242.155 420.462 248.002C415.346 250.194 412.058 254.579 408.404 258.598C406.212 260.79 402.923 261.521 401.096 264.079C399.269 266.636 397.077 269.194 394.154 270.656C391.231 272.117 389.404 275.04 386.846 276.136C384.288 277.598 382.462 279.79 380.269 281.252C376.981 282.713 374.788 285.271 372.231 287.463C371.865 287.829 371.5 288.56 371.135 288.56C368.212 288.56 367.115 291.483 364.923 292.579C364.558 292.579 363.827 292.579 363.462 292.944C362 294.771 360.173 295.867 357.981 296.598C354.692 300.617 349.577 302.444 346.288 306.464C345.923 306.829 345.192 306.464 344.462 306.464C342.269 308.656 340.442 311.944 337.519 313.041C334.596 314.137 333.135 316.695 330.942 318.156C328.75 319.252 327.288 320.348 325.462 321.81C323.635 323.271 321.442 324.733 319.615 326.195C317.788 327.656 316.327 329.483 314.5 330.945C313.038 332.041 311.212 332.772 309.75 334.233C307.923 335.695 306.462 337.522 304.635 338.983C303.173 340.445 302.077 342.272 300.25 343.368C292.577 347.752 287.462 355.06 281.25 360.906C279.788 362.003 278.327 362.003 276.865 363.464C275.404 364.926 273.942 366.387 272.481 367.849C271.385 368.945 269.923 370.407 268.827 371.503H267C263.712 375.157 260.058 378.445 256.404 382.099H254.577C250.558 386.118 246.904 389.772 242.885 393.791C241.788 394.888 240.327 395.984 239.231 397.445C238.135 399.272 235.577 398.907 234.115 400.368C233.019 401.465 232.288 403.292 230.096 402.926C229.365 404.753 227.173 404.388 225.712 405.484C225.346 405.849 225.346 405.849 224.615 406.58H215.846C215.115 407.311 214.75 407.676 214.019 408.407H210.365C207.442 408.772 207.077 410.965 204.154 409.503C203.423 408.407 201.596 406.58 200.5 405.118H196.481C194.288 403.292 196.115 402.195 197.212 400.734V397.445C197.577 396.349 199.404 395.984 199.038 394.522C200.135 394.522 200.865 394.157 200.865 392.695C201.962 392.695 202.692 392.33 202.692 390.868C203.788 390.868 204.519 390.503 204.519 389.041C209.635 385.022 209.635 385.022 209.269 383.926C207.077 382.83 205.981 385.387 204.519 386.484C204.519 387.214 204.519 388.311 204.519 389.041C203.423 389.041 202.692 389.407 202.692 390.868C201.596 390.868 200.865 391.234 200.865 392.695C199.769 392.695 199.038 393.061 199.038 394.522H196.481C196.481 394.157 195.75 393.426 196.115 393.426C197.942 391.234 197.942 387.945 201.231 386.849C200.5 386.118 199.769 385.388 199.038 384.291C199.769 383.195 200.135 382.099 200.865 381.003C200.5 380.637 200.5 380.272 200.135 380.272C196.481 380.272 193.192 380.272 189.538 380.272C188.442 376.618 188.442 376.618 190.269 374.426C189.538 372.599 187.712 373.695 185.885 373.33C185.519 374.426 184.788 375.522 184.058 376.984L183.327 376.253V378.08C182.596 378.445 181.865 378.445 181.135 378.811C177.115 382.83 172.731 387.214 169.077 390.868H161.769C160.673 389.041 157.75 389.407 156.288 387.58C154.096 390.868 149.712 391.234 147.885 394.522C147.154 393.791 146.788 393.426 146.058 392.695C144.962 393.791 143.865 394.888 142.769 395.984H138.385C136.192 396.715 134.731 399.638 132.173 398.176C131.442 397.445 131.077 397.08 130.346 396.349C129.25 395.618 129.615 394.522 129.25 393.426C128.885 392.695 128.154 392.33 127.788 391.599C128.519 390.868 128.885 390.503 129.25 390.138C128.519 389.407 127.788 388.676 127.058 387.58C126.327 387.945 125.231 388.676 124.135 389.407C123.404 389.041 122.308 388.311 121.212 387.58H116.462C115.731 386.849 114.635 386.118 113.904 385.387C113.538 383.195 112.808 381.368 115.365 379.907V372.599C116.096 371.868 116.462 371.503 117.192 370.772C116.462 370.407 115.731 370.041 115.365 370.041C112.442 371.137 111.346 374.426 108.423 375.522C106.231 376.253 104.038 377.714 101.481 378.811H96C93.4423 379.907 91.25 382.099 88.6923 382.099C86.1346 382.464 83.9423 386.118 81.0192 383.561C79.1923 381.368 82.1154 380.637 82.4808 378.811C82.1154 378.445 82.1154 377.714 81.75 376.618C81.0192 377.349 80.6539 377.714 80.2885 378.08C79.9231 378.08 79.1923 378.445 78.8269 378.445C76.2692 378.445 73.7115 378.445 71.1539 378.445C69.6923 376.984 70.4231 375.522 70.4231 374.06C71.1538 373.33 71.5192 372.964 72.25 372.234C71.5192 371.503 70.4231 370.772 69.6923 369.676C67.8654 370.407 67.1346 373.33 64.2115 372.964C62.75 374.426 61.2885 375.887 59.8269 377.349C58.3654 378.445 56.5385 379.176 54.7115 379.907C53.6154 380.272 52.8846 381.003 51.0577 381.734H39.3654C38.2692 382.83 36.8077 384.291 35.7115 385.387C32.4231 385.022 29.8654 387.214 26.5769 388.676H19.6346C18.9038 388.311 18.1731 387.214 17.4423 386.484C17.4423 385.022 17.0769 383.926 17.0769 382.464C15.25 381.003 13.0577 382.099 11.2308 381.734C10.5 381.003 10.1346 380.637 9.40385 379.907C8.30769 381.003 7.94231 381.368 7.21154 381.734C5.75 380.272 4.28846 378.81 2.82692 377.714V374.06C3.19231 373.695 3.55769 373.33 4.28846 372.599V366.022C5.01923 365.291 5.38462 364.56 6.11538 363.83V359.81L1.73077 362.733C0.269231 361.637 1.73077 359.81 1 358.714C1.73077 357.983 2.46154 357.253 2.82692 356.522V352.868C5.38462 351.041 6.48077 348.118 7.94231 345.56C9.03846 344.099 9.03846 341.541 10.5 340.445C13.0577 338.252 13.4231 334.233 16.7115 332.406V326.56C14.8846 325.829 12.6923 325.464 11.5962 323.271V312.675C14.8846 310.483 15.6154 306.464 17.8077 303.175H19.6346C21.4615 301.348 20.3654 299.156 20.7308 297.329C22.5577 295.502 24.3846 294.04 25.8462 292.579C25.8462 291.117 25.4808 290.021 25.8462 290.021C27.6731 288.925 27.3077 287.098 28.4038 285.637C29.8654 283.81 32.0577 282.348 32.7885 280.521C33.5192 277.963 36.4423 277.598 36.4423 275.04C36.4423 272.483 40.0962 272.117 40.0962 269.559C40.0962 267.367 43.75 267.002 43.75 264.079C43.75 263.713 44.4808 263.348 44.8462 262.617C46.6731 260.425 49.5962 258.598 50.6923 256.405C51.7885 253.848 54.3462 252.752 55.4423 250.559C57.6346 245.078 63.1154 242.155 66.7692 237.405V235.944C76.2692 226.444 85.7692 216.944 95.2692 207.443C98.1923 204.886 101.846 203.059 104.404 200.136C107.327 196.847 110.615 193.924 113.538 190.636C116.462 187.712 119.019 184.424 122.308 181.866C125.596 179.309 126.692 175.289 129.615 172.732C132.538 170.174 135.096 167.251 137.654 164.693C138.019 164.328 138.385 163.962 138.385 163.231C139.481 159.578 142.404 158.481 145.327 156.654C145.327 155.924 145.327 155.558 145.327 155.193C146.788 153.731 148.25 151.904 149.712 150.808C150.442 150.808 151.173 150.808 151.538 150.808C153 148.981 153 146.058 156.288 145.327C157.75 145.327 159.212 143.866 159.577 141.674C159.577 141.308 159.942 140.212 160.308 140.212C163.596 139.847 165.058 137.654 165.058 134.731C166.154 134.731 166.885 134.731 167.25 134.731L169.808 132.173V130.346C170.904 129.616 172.365 129.25 173.462 128.52V127.423C176.385 124.5 178.942 121.943 181.865 119.019C182.596 118.654 183.327 118.654 184.058 118.289V116.462C185.519 115 187.712 115 188.808 113.173C190.269 111.346 192.096 109.885 193.558 108.058C195.019 106.596 197.212 105.865 196.115 103.308C198.308 102.212 200.865 103.673 201.962 101.115C202.692 101.481 203.058 102.212 203.788 102.577C204.885 101.115 206.712 101.115 207.808 100.385C208.904 99.6539 209.635 98.5577 210.731 97.4616C211.096 97.8269 211.462 98.1923 211.462 98.1923C211.462 98.9231 211.462 99.2885 211.462 100.019C212.558 100.75 214.019 101.115 215.481 101.846C214.019 104.404 213.288 106.962 211.462 109.154C206.346 113.904 201.596 119.019 196.481 124.135C196.115 124.5 195.75 125.596 195.385 126.693C193.923 128.154 192.096 129.981 190.269 131.808C188.442 133.635 186.25 135.462 184.788 137.289C183.327 139.116 182.231 141.674 180.404 143.5C178.577 145.327 176.75 147.154 174.923 148.981V151.174C173.462 152.27 172 153.001 169.808 154.462C169.808 154.828 169.442 155.558 169.442 156.654C168.712 156.654 167.981 157.02 166.885 157.385C166.519 157.751 166.519 158.481 165.788 160.308C164.692 161.039 162.5 162.866 161.038 163.962V167.616C159.942 167.616 159.212 167.981 159.212 169.443C158.115 169.443 157.385 169.808 157.385 171.27C156.288 171.27 155.558 171.635 155.923 173.097C154.827 173.462 153.365 173.097 154.462 174.924C154.827 174.558 155.192 173.828 155.923 173.097C157.019 173.097 157.385 172.732 157.385 171.27C158.481 171.27 159.212 170.905 159.212 169.443C160.308 169.443 161.038 169.078 161.038 167.616C161.404 167.616 161.769 167.616 161.769 167.616C170.538 158.847 179.673 150.077 188.442 140.943C188.808 140.577 189.173 139.481 189.538 138.02C192.096 135.462 194.654 132.173 197.942 129.981C201.596 127.789 204.519 124.5 207.808 121.943H210.365C209.269 124.135 208.538 126.327 207.077 128.52C206.712 129.25 206.712 130.712 208.538 130.712C208.904 130.712 209.269 130.712 209.269 130.712C212.558 127.058 215.846 123.404 218.769 120.481H225.346C225.712 121.212 225.346 121.943 222.423 125.231C222.788 125.962 222.788 126.693 223.154 127.423C224.25 126.693 224.981 126.327 226.077 125.596C225.712 126.693 226.442 127.058 227.538 127.423C228.635 127.423 229.731 127.423 229.731 125.596C230.096 125.231 231.192 125.231 231.192 124.866C231.558 123.77 230.827 123.77 229.731 123.77C230.096 123.404 234.481 120.116 234.481 120.116C236.308 120.116 237.769 120.116 239.596 120.481C239.962 120.481 239.962 121.577 240.327 121.943C239.231 122.308 237.769 121.943 238.865 123.77C239.231 123.404 239.596 122.673 240.327 121.943C242.154 121.943 242.519 119.75 243.981 119.019C245.077 118.289 246.538 118.289 247.635 117.193C248.365 116.462 249.827 116.827 251.288 116.462C253.481 114.269 255.673 111.712 257.5 109.519C260.423 110.616 261.519 108.423 262.981 106.962C264.442 105.5 265.904 104.404 267.731 104.404V102.212C269.558 101.481 271.019 100.385 273.212 99.2885C273.942 99.6539 274.673 100.385 276.135 101.481C277.231 100.385 278.327 98.9231 279.058 97.8269C280.154 97.8269 280.519 97.8269 281.615 98.1923C281.981 99.6539 281.981 101.481 282.346 102.942C284.173 102.577 284.904 100.75 286 99.6539C287.462 98.5577 288.558 97.0962 289.654 96C291.481 100.019 291.846 100.385 295.865 102.212C293.673 103.308 294.404 106.231 292.212 107.692C290.385 108.789 290.385 111.712 288.558 113.173C286.731 114.635 285.269 116.462 283.442 117.923C283.442 119.019 283.442 119.75 283.808 120.481C282.712 120.846 281.25 120.481 282.346 122.308C282.712 121.943 283.077 121.212 283.808 120.481C285.635 120.481 286.365 118.654 287.827 117.193C289.288 117.193 291.481 116.827 293.308 116.827C294.769 115.731 293.673 113.904 294.038 112.442C296.596 112.077 298.058 109.885 299.885 108.423C301.712 108.423 303.904 107.692 305.731 108.789C305.731 110.25 304.269 110.981 303.173 111.712H301.346C301.346 112.808 300.981 113.904 300.615 114.269C298.788 115.731 296.962 116.462 295.5 117.558C295.865 119.385 295.135 120.846 296.231 122.308C297.327 121.212 298.058 120.116 299.154 119.385C300.25 118.289 302.442 118.654 303.538 116.827C304.269 115.731 305.365 114.269 306.462 113.904C307.923 113.173 309.75 112.808 310.481 111.346C311.212 109.885 313.038 110.25 314.135 109.519C314.865 108.789 315.231 108.058 315.231 107.327C316.327 105.865 318.154 107.327 319.25 106.596C319.981 107.327 320.712 107.692 321.077 108.423C321.808 108.058 322.173 107.327 323.269 106.596C323.635 107.692 323.635 108.423 324 108.789C322.173 113.173 317.423 113.539 315.231 116.462C316.692 117.923 318.154 116.827 319.981 117.558C320.346 117.923 321.442 118.654 322.173 119.385C326.558 115.366 332.038 113.173 334.231 109.519C336.788 108.058 337.885 107.327 338.981 106.596C340.442 108.423 339.346 110.616 339.712 112.808C338.981 113.173 338.25 113.539 336.423 114.269C334.596 116.096 331.673 119.019 329.115 121.577C329.481 122.673 329.481 123.039 329.846 123.77C330.212 123.77 330.577 123.404 330.942 123.404C331.673 122.673 332.404 121.577 333.5 120.846H338.615C339.346 120.116 340.077 119.75 340.808 119.019H344.096C344.462 119.385 345.192 120.116 345.923 120.846C348.115 118.289 351.038 116.827 354.327 115.366C354.692 115.731 355.058 116.462 355.788 117.193C354.327 118.654 353.231 120.116 351.769 121.577C351.404 125.231 354.692 125.231 356.885 126.327C356.519 127.789 355.058 127.058 353.962 127.789C353.596 128.885 353.596 130.712 353.231 132.539C352.135 132.173 351.404 131.808 350.308 131.077C350.308 132.539 349.942 133.635 349.942 134.731C349.942 135.097 349.942 135.462 349.942 135.462C345.923 138.75 343.365 143.5 337.885 146.058C337.885 146.058 337.519 147.154 337.519 147.885C335.327 148.616 332.769 149.712 331.673 152.27H329.846C328.75 157.02 325.096 159.943 323.269 164.328C322.904 165.424 321.442 166.155 319.615 166.52C318.519 166.52 317.788 168.347 317.058 169.443C316.692 169.808 317.423 170.539 317.423 171.635C319.25 169.078 322.538 170.539 324.731 168.712C326.558 166.885 329.481 166.52 332.038 165.058C332.769 165.424 333.865 166.155 334.962 166.885C336.423 165.424 337.154 164.328 338.615 163.231C339.346 163.231 340.442 163.231 342.269 162.866C343.365 162.866 344.462 159.578 346.654 162.135C346.654 162.866 347.019 163.597 346.654 163.962C345.192 165.789 343.365 167.251 341.538 169.078V173.462C342.635 173.462 343.365 173.828 344.096 173.828C344.462 172.732 344.827 171.635 345.192 170.539C346.288 170.539 347.385 170.539 349.212 170.174C350.673 169.808 351.038 166.52 353.962 166.52C354.692 166.52 355.788 165.424 356.885 165.058C357.25 164.693 357.981 165.058 358.712 165.058C359.077 165.058 359.808 165.424 360.538 165.424C360.538 166.155 360.538 166.885 360.538 167.616C359.077 169.078 357.615 167.981 355.788 168.347C354.327 169.808 353.231 172.001 351.038 173.097C349.212 174.193 347.385 174.558 346.288 176.751C346.288 177.116 346.288 177.847 346.288 178.212C346.654 178.212 347.385 178.578 347.385 178.578C348.481 176.751 351.038 177.482 352.5 175.655C353.596 174.193 355.423 173.462 357.25 172.366C359.077 171.635 360.904 171.27 362.365 170.174C364.923 168.347 367.115 166.52 370.404 165.058H378.077V164.693ZM21.0962 330.945C20 333.502 19.2692 335.695 18.1731 337.887C17.0769 340.079 15.9808 342.272 14.1538 344.099C13.0577 345.195 12.6923 347.022 11.9615 348.483C11.5962 348.849 12.3269 349.945 12.6923 350.676C14.1538 349.214 15.6154 347.753 17.0769 346.291V344.464C18.1731 343.368 19.6346 341.906 20.7308 340.81C20.3654 337.156 22.9231 334.599 24.0192 331.675C22.9231 331.31 22.1923 331.31 21.0962 330.945ZM354.692 245.809C352.5 245.444 351.769 245.078 352.135 245.444C350.308 246.54 349.212 247.271 347.385 248.367C349.577 248.732 350.308 249.098 349.942 248.732C351.769 247.636 352.865 246.905 354.692 245.809Z" fill="#FEE6BE"/>
<path d="M405.575 363.853C405.221 362.089 405.6 360.027 403.591 358.94C404.051 357.827 403.4 357.067 402.748 356.307L402.829 356.28C403.019 356.035 403.209 355.791 403.426 355.574C403.344 355.439 403.263 355.303 403.181 355.167C402.801 354.841 402.448 354.542 402.095 354.189C402.475 354.515 402.828 354.814 403.181 355.167C403.263 355.303 403.344 355.439 403.426 355.574C404.43 356.199 405.082 357.394 406.494 357.341C406.792 357.585 407.037 357.938 407.39 358.128C407.987 358.4 408.802 359.052 409.235 358.075C409.669 357.099 408.475 357.315 408.122 356.908C407.932 356.717 407.606 356.663 407.307 356.527C406.927 356.255 406.52 355.956 406.112 355.712C405.352 354.572 404.184 354.001 403.044 353.349C402.501 352.697 401.985 352.072 401.089 351.936C401.088 351.013 400.328 350.85 399.677 350.578C399.487 350.388 399.351 350.198 399.161 350.008C398.834 349.085 398.21 348.46 397.26 348.107C397.178 347.971 397.07 347.917 396.934 347.889C396.581 347.536 396.282 347.183 395.929 346.83C394.435 345.554 393.837 343.545 392.208 342.404C392.18 341.671 391.583 341.291 391.229 340.72C390.903 339.526 389.79 338.901 389.084 338.032C388.35 336.919 387.616 335.86 386.856 334.882C386.448 334.366 385.878 333.959 385.39 334.827C384.577 336.346 386.07 336.754 386.722 337.569C386.749 337.705 386.804 337.813 386.939 337.841C387.32 339.415 388.488 340.474 389.439 341.642C390.987 343.516 392.291 345.579 394.192 347.155C394.274 347.29 394.382 347.399 394.545 347.453C394.546 348.105 395.197 348.105 395.523 348.431C396.04 349.707 396.99 350.603 397.995 351.5C398.103 351.391 398.212 351.283 398.293 351.201C397.831 350.685 397.37 350.224 396.908 349.708C397.397 350.196 397.859 350.712 398.293 351.201C398.185 351.31 398.076 351.418 397.995 351.5C399.652 354.133 401.31 356.767 402.994 359.428C403.429 360.731 403.837 362.061 404.3 363.391C404.056 364.232 404.111 365.318 402.754 365.1C400.175 364.04 398.436 361.759 396.02 360.481C395.097 360.698 395.233 359.802 394.907 359.422C393.576 358.2 392.544 356.679 390.86 355.918C390.779 355.782 390.67 355.674 390.507 355.674C389.964 355.076 389.394 354.506 388.851 353.908C386.515 351.247 384.07 348.694 381.328 346.44C381.328 346.277 381.273 346.168 381.11 346.168C380.431 345.001 379.67 343.86 378.259 343.425C376.468 343.478 376.93 344.428 377.473 345.406C378.071 346.817 379.157 347.795 380.515 348.502C382.145 351.108 384.481 353.118 386.653 355.291C389.125 358.577 391.543 361.862 394.015 365.148C394.07 365.636 394.396 366.125 394.07 366.613C393.202 366.83 393.554 365.555 392.848 365.608C392.359 364.902 391.735 364.441 390.92 364.169C390.16 363.354 389.399 362.539 388.639 361.724C387.661 360.638 386.683 359.552 385.733 358.439C385.624 358.33 385.488 358.194 385.38 358.085C384.429 357.026 383.424 355.967 382.474 354.908C382.337 354.23 381.822 353.931 381.197 353.686C380.137 351.758 378.454 350.346 376.879 348.879C375.656 347.386 374.353 345.974 372.805 344.751C372.56 344.127 372.261 343.448 371.529 344.18C370.742 344.913 370.743 345.781 371.612 346.541C372.046 346.976 372.291 347.655 373.024 347.791C373.133 348.062 373.187 348.388 373.35 348.605C376.474 352.868 380.466 356.264 384.051 360.12C384.188 360.907 385.056 360.908 385.464 361.424C385.926 363.08 387.664 363.895 388.207 365.524C387.963 365.768 388.072 366.365 387.475 366.202C386.525 365.414 385.547 364.653 384.57 363.838C384.162 362.563 383.184 361.856 382.044 361.313C381.528 360.96 381.446 360.172 380.74 360.009C379.79 358.896 378.975 357.701 377.644 356.967C377.536 356.859 377.454 356.723 377.345 356.614C377.155 355.881 376.775 355.338 375.933 355.256C375.852 355.121 375.743 355.012 375.607 354.93C374.982 353.166 373.299 352.242 372.185 350.857C371.967 349.934 370.665 350.15 370.447 349.227C369.904 348.63 369.36 348.033 368.817 347.435C368.627 346.539 368.165 346.62 367.677 347.163C366.375 348.573 367.326 349.524 368.358 350.502C369.444 351.642 370.558 352.756 371.617 353.869C372.894 355.363 374.143 356.829 375.42 358.323C375.773 358.459 376.126 358.595 376.506 358.758C376.153 358.622 375.8 358.486 375.42 358.323C378.272 362.531 381.505 366.523 383.516 371.301C383.625 371.844 383.734 372.387 383.843 372.93C382.406 374.041 381.78 372.494 380.83 372.032C379.309 370.511 378.005 368.773 376.132 367.659C375.697 367.279 375.29 366.871 374.856 366.491C374.638 366.274 374.367 366.057 374.15 365.839C373.579 364.618 372.791 363.559 371.488 363.015C369.75 361.331 368.364 359.349 366.301 357.991C366.273 357.855 366.192 357.719 366.056 357.638C365.811 356.525 365.132 355.846 363.992 355.682C363.775 355.899 363.531 356.089 363.287 356.333C362.012 357.336 362.854 357.961 363.669 358.613C363.777 358.504 363.886 358.45 363.994 358.342C363.885 358.233 363.804 358.097 363.668 357.962C363.777 358.07 363.858 358.206 363.994 358.342C363.886 358.45 363.804 358.532 363.669 358.613C364.104 359.699 365.271 360.161 365.95 361.057C367.771 364.342 370.649 366.841 372.687 369.964C373.855 372 374.997 374.009 376.165 376.045C376.573 377.212 376.981 378.325 377.389 379.493L377.307 379.628C376.059 379.845 375.922 378.189 374.81 378.161C374.836 377.374 374.456 376.831 373.777 376.478C373.424 376.125 373.098 375.799 372.772 375.419C369.703 372.35 366.634 369.281 363.593 366.239C363.131 365.777 362.696 365.343 362.235 364.881C361.094 363.686 359.953 362.491 358.785 361.323C358.378 360.916 357.97 360.074 357.265 360.725C356.669 361.322 356.099 362.163 356.643 363.032C357.023 363.683 357.702 364.199 358.218 364.77C359.359 366.562 360.771 368.082 362.238 369.603C363.026 371.259 364.33 372.454 365.633 373.704C365.77 375.305 366.938 376.31 367.916 377.396C368.106 377.532 368.323 377.641 368.486 377.75C368.296 377.614 368.079 377.505 367.916 377.396C368.731 378.862 369.573 380.356 370.361 381.849C370.77 383.45 371.232 385.052 371.64 386.653C371.369 386.762 371.071 386.897 370.772 386.979C369.85 387.249 370.012 386.381 369.686 386.001C368.029 384.398 366.644 382.525 364.58 381.383C364.39 381.193 364.173 381.03 363.956 380.813C363.792 379.999 363.249 379.618 362.516 379.374C362.353 379.211 362.19 378.993 362.027 378.831C361.919 378.288 361.484 378.016 361.023 377.826C360.316 376.36 359.175 375.328 357.736 374.594C357.546 374.132 357.573 373.508 356.813 373.616C355.401 372.041 354.341 370.059 352.278 369.135C351.924 368.185 351.028 367.777 350.268 367.288C348.667 367.531 348.83 368.454 349.347 369.567C349.51 370.056 349.727 370.49 350.297 370.626C350.678 371.169 350.841 371.875 351.601 372.093C351.656 372.201 351.737 372.283 351.846 372.337C353.558 375.351 355.731 378.012 358.066 380.565C358.61 382.193 359.86 383.334 360.81 384.665C361.789 386.782 362.767 388.9 363.746 391.017C363.773 391.262 363.773 391.479 363.801 391.723C363.611 392.564 364.399 393.135 364.426 393.922C364.4 394.709 364.373 395.496 364.32 396.256C361.904 396.444 360.79 394.299 359.107 393.212C358.998 393.104 358.862 392.968 358.726 392.886C356.907 391.067 355.413 388.867 353.051 387.644C352.86 386.966 352.615 386.396 351.774 386.368C351.04 384.603 349.438 383.598 348.08 382.403C347.836 382.267 347.646 382.131 347.402 381.995C345.744 379.633 343.843 377.569 341.372 376.02C340.911 375.667 340.341 375.314 340.151 376.155C339.935 377.024 339.094 378.081 340.533 378.761C341.321 379.44 342.081 380.2 342.95 380.744C342.054 380.173 341.321 379.44 340.533 378.761C341.81 380.906 343.792 382.454 345.422 384.301C345.993 385.957 347.405 386.935 348.6 388.075C349.714 390.275 351.235 392.175 353.055 393.832C353.762 395.678 355.093 397.117 356.207 398.72C356.126 399.398 356.642 399.643 357.049 399.996C357.131 400.728 357.213 401.461 357.81 402.005C357.973 402.222 358.163 402.466 358.326 402.683C358.354 402.928 358.354 403.145 358.381 403.389C358.164 403.606 357.947 403.823 357.703 404.013C356.535 403.171 356.046 401.433 354.254 401.378C354.227 401.242 354.146 401.106 354.064 401.025C354.281 400.591 354.037 400.238 353.765 399.966C351.456 397.658 349.256 395.241 346.541 393.393C345.346 391.601 344.313 389.701 342.087 388.939C341.979 388.885 341.87 388.776 341.816 388.668C340.919 387.609 340.538 386.143 339.208 385.463C338.8 384.568 338.365 383.699 337.253 383.562C337.144 383.454 337.035 383.399 336.9 383.318C336.438 382.856 336.003 382.367 335.569 381.933C333.642 382.447 334.593 383.398 335.191 384.321C337.011 387.443 339.971 389.535 342.388 392.169C344.425 394.206 346.489 396.27 348.553 398.28C350.129 400.561 352.518 402.028 354.311 404.092C355.18 404.961 356.022 405.911 356.999 406.672C358.683 408.03 360.419 407.271 360.798 405.101C360.906 404.504 360.933 403.879 360.417 403.418C360.308 403.309 360.199 403.2 360.064 403.065C359.52 402.576 359.764 401.897 359.655 401.3C359.682 400.405 359.111 399.726 358.677 399.02C358.215 398.341 357.753 397.662 357.291 396.983C357.128 396.495 356.368 396.277 356.639 395.572C356.991 395.49 357.344 395.355 357.697 395.274C358.783 396.197 359.896 397.094 360.983 398.017C362.042 399.076 363.264 399.756 364.729 398.997C366.356 398.13 366.599 396.583 366.218 394.9C366.109 393.869 366.651 392.783 365.918 391.833C365.754 390.747 365.726 389.635 364.83 388.793C365.073 387.843 364.476 387.191 364.068 386.458C363.606 385.671 362.819 384.992 363.388 383.934C363.578 384.069 363.741 384.178 363.958 384.287C364.881 384.722 365.045 386.025 366.212 386.161C367.135 386.976 368.032 387.872 368.982 388.66C370.91 390.208 372.294 389.856 373.351 387.767C373.703 387.143 373.621 386.573 373.133 386.03C373.702 384.918 372.833 383.995 372.642 382.99C372.614 382.095 372.342 381.28 371.69 380.574C371.446 379.896 371.228 379.19 370.983 378.511C371.064 378.213 371.119 377.941 371.227 377.67C372.748 379.028 374.268 380.386 375.871 381.717C376.577 382.315 377.472 382.56 378.313 382.045C379.236 381.448 379.452 380.58 378.936 379.575C378.69 377.92 378.336 376.318 377.358 374.906C377.033 374.58 376.707 374.2 376.381 373.874C375.973 372.978 375.592 372.055 375.185 371.159C377.356 370.998 377.927 373.577 379.827 373.85C380.153 374.175 380.506 374.528 380.805 374.881C383.575 376.729 384.497 376.512 385.282 373.826C384.848 373.12 385.987 372.09 384.846 371.492C384.819 371.248 384.846 371.003 384.819 370.759C385.253 370.271 384.71 370.053 384.52 369.755C384.627 368.561 383.297 367.664 383.839 366.362C385.604 367.802 386.854 369.919 389.269 370.437C390.654 371.008 391.332 370.167 391.847 369.054C391.819 368.973 391.792 368.892 391.738 368.783C391.765 368.864 391.792 368.946 391.847 369.054C392.009 368.729 392.172 368.403 392.362 368.105C392.986 368.458 393.584 369.056 394.181 369.11C395.212 369.165 396.678 369.221 395.726 367.347C395.563 366.804 395.97 366.126 395.345 365.664C395.128 365.664 394.911 365.664 394.721 365.637C394.938 365.637 395.155 365.637 395.345 365.664C395.128 365.23 395.453 364.579 394.856 364.307C394.828 364.063 394.801 363.819 394.801 363.547C395.099 363.466 395.398 363.385 395.723 363.276C396.104 363.385 396.375 363.711 396.674 363.847C398.981 364.853 400.639 367.378 403.569 367C405.605 366.594 405.712 365.292 405.575 363.853ZM380.65 347.769C379.564 347.551 378.94 346.71 378.206 346.031C378.94 346.71 379.592 347.524 380.65 347.769ZM387.059 353.582C387.168 353.69 387.276 353.799 387.385 353.907C387.249 353.772 387.168 353.69 387.059 353.582ZM387.739 355.672C387.576 355.4 387.196 355.129 387.087 354.857C387.196 355.129 387.63 355.4 387.739 355.672ZM390.78 357.357C390.78 357.465 390.753 357.547 390.78 357.628C390.753 357.547 390.753 357.438 390.78 357.357ZM394.04 361.81C393.958 361.728 393.877 361.647 393.795 361.565C393.823 361.647 393.958 361.728 394.04 361.81ZM366.003 359.7C366.247 359.51 366.329 359.266 366.329 359.049C366.274 359.266 366.22 359.483 366.003 359.7ZM372.142 367.141C371.3 366.299 370.513 365.457 369.671 364.615C370.485 365.43 371.3 366.299 372.142 367.141ZM368.673 374.086C368.375 373.95 368.13 373.977 368.022 374.411C368.103 373.95 368.375 373.896 368.673 374.086ZM369.053 374.358C369.678 374.874 370.248 375.444 370.819 375.96C370.221 375.417 369.651 374.846 369.053 374.358ZM370.926 374.82C371.17 374.413 371.741 375.038 372.202 375.337C371.741 375.038 371.197 374.44 370.926 374.82ZM358.148 380.429L358.256 380.429C358.256 380.429 358.175 380.456 358.148 380.429ZM358.853 379.724C358.907 379.778 358.961 379.887 359.016 379.941C358.934 379.86 358.907 379.778 358.853 379.724ZM361.215 380.784C360.97 380.54 360.726 380.295 360.481 380.105C360.753 380.322 360.997 380.567 361.215 380.784ZM361.541 381.11C361.785 381.029 362.002 380.974 362.192 381.002C361.975 381.002 361.785 381.029 361.541 381.11ZM361.595 381.816C361.351 382.277 361.135 382.711 360.891 383.172C361.135 382.711 361.379 382.25 361.595 381.816ZM347.974 385.225C348.218 385.198 348.435 385.253 348.625 385.28C348.462 385.226 348.218 385.198 347.974 385.225C348.191 385.443 348.327 385.687 348.327 385.958C348.327 385.633 348.191 385.443 347.974 385.225ZM350.752 399.448C351.377 399.964 352.001 400.426 352.734 400.834C352.028 400.453 351.377 399.964 350.752 399.448ZM354.772 403.576C354.853 403.604 354.962 403.658 355.07 403.712C354.962 403.658 354.88 403.631 354.772 403.576ZM358.545 405.235C358.464 405.316 358.355 405.424 358.301 405.533C358.355 405.424 358.437 405.343 358.545 405.235ZM351.721 387.616C352.047 387.888 352.318 387.942 352.617 387.861C352.291 387.97 351.992 387.888 351.721 387.616C351.612 387.725 351.477 387.806 351.395 387.942C351.477 387.806 351.585 387.698 351.721 387.616ZM348.925 387.641C349.333 388.917 350.501 389.434 351.424 390.249C350.501 389.434 349.333 388.863 348.925 387.641ZM353.407 393.371C353.815 393.887 354.195 394.43 354.657 394.946C354.222 394.457 353.788 393.914 353.407 393.371ZM357.155 397.119C356.531 396.766 355.988 396.331 355.499 395.842C356.015 396.304 356.558 396.739 357.155 397.119ZM363.615 397.449C363.398 397.286 363.235 397.069 363.017 396.852C363.207 397.042 363.398 397.286 363.615 397.449ZM365.974 395.09C365.785 395.551 365.568 395.985 365.351 396.473C365.568 395.985 365.757 395.524 365.974 395.09ZM364.636 382.849C364.771 382.713 364.853 382.578 364.907 382.415C364.853 382.523 364.771 382.713 364.636 382.849ZM371.451 387.657C371.071 387.983 370.637 388.471 370.176 388.444C370.637 388.417 371.071 387.983 371.451 387.657ZM372.723 382.855L372.615 382.855C372.615 382.855 372.669 382.855 372.723 382.855ZM376.901 380.795C376.983 380.877 377.064 380.904 377.118 380.958C377.064 380.904 376.956 380.849 376.901 380.795ZM376.164 373.983C376.191 374.173 376.191 374.39 376.245 374.607C376.218 374.417 376.164 374.2 376.164 373.983C375.485 373.358 375.267 372.435 374.914 371.648C375.294 372.462 375.485 373.358 376.164 373.983ZM373.827 370.236C373.637 370.046 373.393 369.91 373.148 369.882C373.393 369.91 373.61 370.073 373.827 370.236ZM374.152 369.91C374.315 369.91 374.424 369.965 374.532 370.019C374.451 369.938 374.315 369.91 374.152 369.91ZM384.007 374.341C384.007 373.907 384.034 373.445 384.033 373.011C384.061 373.473 384.061 373.907 384.007 374.341ZM382.996 364.489C383.159 364.652 383.349 364.787 383.566 364.95C383.349 364.787 383.186 364.625 382.996 364.489ZM391.275 367.181C391.004 367.778 391.005 368.538 390.734 369.135C391.005 368.538 390.977 367.751 391.275 367.181Z" fill="#00B884"/>
<path d="M21.2245 215.498C27.6035 188.412 48.3792 167.222 74.8316 160.684C93.0323 156.189 110.472 158.641 125.22 165.879C130.136 168.273 135.93 165.588 137.276 160.217C150.326 108.497 196.208 70.3193 250.81 70.3193C315.596 70.3193 368.091 124.024 368.091 190.28C368.091 192.032 368.032 194.425 368.032 196.76C368.266 201.722 370.373 203.823 373.533 204.349C398.932 207.034 418.83 228.458 419.942 254.843C421.23 285.14 397.118 310.241 367.447 310.241H93.1494C46.2139 310.183 9.46139 265.526 21.2245 215.498Z" fill="#B2A499"/>
<path d="M42.4698 225.656C48.1465 201.488 66.6983 182.516 90.3416 176.737C106.611 172.768 122.178 174.869 135.346 181.349C139.735 183.509 144.885 181.057 146.114 176.27C157.702 130.095 198.726 96.0044 247.476 96.0044C305.297 96.0044 352.174 143.93 352.174 203.123C352.174 204.699 352.115 206.859 352.115 208.902C352.291 213.338 354.222 215.206 357.031 215.673C379.68 218.067 397.471 237.214 398.466 260.739C399.578 287.767 378.041 310.183 351.589 310.183H106.728C64.7671 310.183 31.9356 270.313 42.4698 225.656Z" fill="#BCAEA3"/>
<path d="M84.3072 342.581C84.3072 344.8 86.1214 346.609 88.3453 346.609H307.104C309.328 346.609 311.143 344.8 311.143 342.581L312.957 217.192C312.957 214.973 310.323 210.654 305.524 210.945L91.6811 205.4C88.872 205.341 86.1799 206.392 84.1901 208.377C82.2003 210.362 81.1469 213.047 81.2054 215.791L84.3072 342.581Z" fill="#876237"/>
<path d="M88.2845 338.728C88.2845 340.83 89.9817 342.522 92.0885 342.522H301.835C303.942 342.522 305.639 340.83 305.639 338.728L307.336 224.897C307.161 218.067 301.133 215.556 297.446 215.732L92.4981 210.244C90.5084 210.186 88.6356 210.945 87.2311 212.346C85.8265 213.747 85.0657 215.615 85.1242 217.6L88.2845 338.728Z" fill="#FAF5E8"/>
<path d="M293.413 284.615C293.121 284.615 292.828 284.381 292.828 284.031L292.945 274.808C292.945 274.516 293.179 274.282 293.53 274.282C293.823 274.282 294.116 274.516 294.057 274.866L293.94 284.089C293.94 284.381 293.706 284.615 293.413 284.615Z" fill="white"/>
<path d="M69.8514 356.999H321.149C322.964 356.999 324.485 355.54 324.485 353.672V349.236C324.485 347.426 323.022 345.908 321.149 345.908H69.8514C68.0372 345.908 66.5156 347.368 66.5156 349.236V353.672C66.5741 355.54 68.0372 356.999 69.8514 356.999Z" fill="#583B18"/>
<path d="M179.287 336.977H98.5247C95.5401 336.977 93.1406 334.584 93.1406 331.607V226.473C93.1406 223.438 95.6571 220.986 98.7588 221.103L179.521 224.197C182.388 224.313 184.729 226.707 184.729 229.567V331.607C184.671 334.584 182.271 336.977 179.287 336.977Z" fill="#FEE6BE"/>
<path opacity="0.25" d="M160.855 269.437H112.106C110.408 269.437 109.004 268.036 109.004 266.343V265.409C109.004 263.716 110.408 262.315 112.106 262.315H160.914C162.611 262.315 164.016 263.716 164.016 265.409V266.285C164.016 268.036 162.611 269.437 160.855 269.437Z" fill="#BE9A5D"/>
<path opacity="0.25" d="M160.972 280.762H112.164C110.467 280.762 109.062 279.361 109.062 277.668V276.793C109.062 275.1 110.467 273.699 112.164 273.699H160.972C162.67 273.699 164.074 275.1 164.074 276.793V277.668C164.133 279.361 162.728 280.762 160.972 280.762Z" fill="#BE9A5D"/>
<path opacity="0.25" d="M161.324 292.32H112.516C110.819 292.32 109.414 290.919 109.414 289.226V288.351C109.414 286.658 110.819 285.257 112.516 285.257H161.324C163.021 285.257 164.426 286.658 164.426 288.351V289.226C164.426 290.919 163.021 292.32 161.324 292.32Z" fill="#BE9A5D"/>
<path opacity="0.25" d="M161.441 303.645H112.633C110.936 303.645 109.531 302.244 109.531 300.551V299.675C109.531 297.983 110.936 296.582 112.633 296.582H161.441C163.138 296.582 164.543 297.983 164.543 299.675V300.551C164.543 302.244 163.138 303.645 161.441 303.645Z" fill="#BE9A5D"/>
<path opacity="0.25" d="M281.193 270.379H208.332C206.635 270.379 205.23 268.978 205.23 267.285V266.409C205.23 264.716 206.635 263.315 208.332 263.315H281.193C282.891 263.315 284.295 264.716 284.295 266.409V267.285C284.295 269.036 282.891 270.379 281.193 270.379Z" fill="#BE9A5D"/>
<path opacity="0.25" d="M281.428 281.762H208.567C206.869 281.762 205.465 280.361 205.465 278.668V277.793C205.465 276.1 206.869 274.699 208.567 274.699H281.428C283.125 274.699 284.53 276.1 284.53 277.793V278.668C284.53 280.361 283.125 281.762 281.428 281.762Z" fill="#BE9A5D"/>
<path opacity="0.25" d="M249.182 293.32H208.567C206.869 293.32 205.465 291.919 205.465 290.226V289.351C205.465 287.658 206.869 286.257 208.567 286.257H249.182C250.879 286.257 252.283 287.658 252.283 289.351V290.226C252.283 291.919 250.937 293.32 249.182 293.32Z" fill="#BE9A5D"/>
<path d="M218.617 138.09C218.617 116.441 235.874 98.8916 257.16 98.8916H356.187C377.474 98.8916 394.73 116.441 394.73 138.09V238.801C394.73 260.45 377.474 278 356.187 278H257.16C235.874 278 218.617 260.45 218.617 238.801V138.09Z" fill="url(#paint0_linear_3053_13911)"/>
<path d="M218.617 138.09C218.617 116.441 235.874 98.8916 257.16 98.8916H356.187C377.474 98.8916 394.73 116.441 394.73 138.09V238.801C394.73 260.45 377.474 278 356.187 278H257.16C235.874 278 218.617 260.45 218.617 238.801V138.09Z" fill="url(#paint1_linear_3053_13911)"/>
<g opacity="0.9">
<path fill-rule="evenodd" clip-rule="evenodd" d="M307.133 120.083C302.771 120.083 299.235 123.679 299.235 128.115C299.235 132.551 302.771 136.146 307.133 136.146C311.494 136.146 315.03 132.551 315.03 128.115C315.03 123.679 311.494 120.083 307.133 120.083ZM307.133 243.427C302.771 243.427 299.235 247.023 299.235 251.459C299.235 255.895 302.771 259.491 307.133 259.491C311.494 259.491 315.03 255.895 315.03 251.459C315.03 247.023 311.494 243.427 307.133 243.427ZM359.594 189.5C359.594 185.064 363.13 181.468 367.491 181.468C371.853 181.468 375.389 185.064 375.389 189.5C375.389 193.936 371.853 197.532 367.491 197.532C363.13 197.532 359.594 193.936 359.594 189.5ZM246.21 181.468C241.848 181.468 238.312 185.064 238.312 189.5C238.312 193.936 241.848 197.532 246.21 197.532C250.572 197.532 254.107 193.936 254.107 189.5C254.107 185.064 250.572 181.468 246.21 181.468Z" fill="#472A02" fill-opacity="0.35"/>
<path fill-rule="evenodd" clip-rule="evenodd" d="M305.824 118.24C301.462 118.24 297.927 121.836 297.927 126.272C297.927 130.708 301.462 134.304 305.824 134.304C310.186 134.304 313.721 130.708 313.721 126.272C313.721 121.836 310.186 118.24 305.824 118.24ZM305.824 241.584C301.462 241.584 297.927 245.18 297.927 249.616C297.927 254.052 301.462 257.648 305.824 257.648C310.186 257.648 313.721 254.052 313.721 249.616C313.721 245.18 310.186 241.584 305.824 241.584ZM358.285 187.657C358.285 183.221 361.821 179.626 366.183 179.626C370.544 179.626 374.08 183.221 374.08 187.657C374.08 192.093 370.544 195.689 366.183 195.689C361.821 195.689 358.285 192.093 358.285 187.657ZM244.901 179.626C240.54 179.626 237.004 183.221 237.004 187.657C237.004 192.093 240.54 195.689 244.901 195.689C249.263 195.689 252.799 192.093 252.799 187.657C252.799 183.221 249.263 179.626 244.901 179.626Z" fill="white"/>
<path fill-rule="evenodd" clip-rule="evenodd" d="M356.163 140.291C353.079 137.154 348.078 137.154 344.994 140.291C341.91 143.427 341.91 148.513 344.994 151.649C348.078 154.786 353.079 154.786 356.163 151.649C359.247 148.513 359.247 143.427 356.163 140.291ZM270.404 227.508C267.32 224.372 262.319 224.372 259.235 227.508C256.151 230.645 256.151 235.73 259.235 238.867C262.319 242.003 267.32 242.003 270.404 238.867C273.488 235.73 273.488 230.645 270.404 227.508ZM344.994 227.103C348.078 223.966 353.079 223.966 356.163 227.103C359.247 230.239 359.247 235.325 356.163 238.461C353.079 241.598 348.078 241.598 344.994 238.461C341.91 235.325 341.91 230.239 344.994 227.103ZM270.404 139.885C267.32 136.749 262.319 136.749 259.235 139.885C256.151 143.022 256.151 148.107 259.235 151.244C262.319 154.38 267.32 154.38 270.404 151.244C273.488 148.107 273.488 143.022 270.404 139.885Z" fill="#472A02" fill-opacity="0.35"/>
<path fill-rule="evenodd" clip-rule="evenodd" d="M354.854 138.783C351.77 135.646 346.769 135.646 343.685 138.783C340.601 141.92 340.601 147.005 343.685 150.142C346.769 153.278 351.77 153.278 354.854 150.142C357.938 147.005 357.938 141.92 354.854 138.783ZM269.095 226C266.011 222.864 261.011 222.864 257.926 226C254.842 229.137 254.842 234.222 257.926 237.359C261.011 240.496 266.011 240.496 269.095 237.359C272.179 234.222 272.179 229.137 269.095 226ZM343.685 225.595C346.769 222.458 351.77 222.458 354.854 225.595C357.938 228.731 357.938 233.817 354.854 236.953C351.77 240.09 346.769 240.09 343.685 236.953C340.601 233.817 340.601 228.731 343.685 225.595ZM269.095 138.377C266.011 135.241 261.011 135.241 257.926 138.377C254.842 141.514 254.842 146.599 257.926 149.736C261.011 152.873 266.011 152.873 269.095 149.736C272.179 146.599 272.179 141.514 269.095 138.377Z" fill="white"/>
<path d="M273.374 190.181L300.985 217.577C301.702 218.303 302.778 218.303 303.495 217.577L352.571 168.113C353.287 167.387 353.287 166.299 352.571 165.573L341.633 154.687C340.917 153.961 339.841 153.961 339.124 154.687L302.598 191.451C301.343 190.181 287.179 176.392 287.179 176.392C286.462 175.666 285.386 175.666 284.669 176.392L273.374 187.822C272.657 188.366 272.657 189.455 273.374 190.181Z" fill="#472A02" fill-opacity="0.35"/>
<path d="M272.436 186.662L300.047 214.059C300.764 214.785 301.84 214.785 302.557 214.059L351.633 164.594C352.35 163.869 352.35 162.78 351.633 162.054L340.696 151.168C339.979 150.443 338.903 150.443 338.186 151.168L301.661 187.932C300.406 186.662 286.242 172.873 286.242 172.873C285.525 172.147 284.449 172.147 283.732 172.873L272.436 184.304C271.719 184.848 271.719 185.936 272.436 186.662Z" fill="white"/>
</g>
<path d="M70.265 151.753C70.265 151.753 75.2394 152.045 75.8832 162.26C75.8832 162.26 64.2956 172.593 48.67 175.045C47.4995 175.22 50.3086 167.047 50.7183 165.938C52.7666 160.684 59.0871 157.299 70.265 151.753Z" fill="#4F300C"/>
<path d="M126.449 139.727H115.915C115.915 139.727 83.61 104.119 62.4247 100.558C62.4247 100.558 47.6769 119.354 63.1855 154.438C64.4145 157.24 67.9259 158.524 70.5594 156.831C71.3202 156.306 71.9054 155.664 72.2566 154.847L71.0276 124.9C71.0276 124.9 98.5919 148.951 103.391 153.562C108.131 158.174 132.477 155.372 126.449 139.727Z" fill="#614524"/>
<path d="M24.6782 214.448C29.0674 210.595 36.0902 206.275 46.2732 205.049L49.7261 207.151C49.7261 207.151 47.5607 210.361 43.5226 213.747C39.8357 215.849 34.1589 218.767 29.4771 219.41C24.9123 219.993 24.2685 217.25 24.6782 214.448Z" fill="#4F300C"/>
<path d="M50.7801 165.996C53.4721 166.872 54.7011 170.725 61.6068 168.156C68.2784 165.704 73.2529 162.552 75.7694 160.684C75.8279 161.151 75.8864 161.676 75.8864 162.26C75.8864 162.26 63.7136 173.818 48.088 176.27C46.9175 176.445 45.9812 175.278 46.3908 174.169C47.1516 172.242 48.4977 169.207 50.7801 165.996Z" fill="#A29CA2"/>
<path d="M21.4002 217.717C22.2781 216.724 23.39 215.615 24.736 214.448C24.2679 217.25 24.9701 219.993 29.5349 219.351C34.2168 218.709 39.8935 215.849 43.5805 213.689C38.9572 217.6 31.9929 221.745 23.1559 221.511C21.1076 221.511 20.1127 219.235 21.4002 217.717Z" fill="#A29CA2"/>
<path d="M126.098 147.316L76.8218 147.841C76.8218 147.841 48.6722 171.075 43.5807 206.508C43.5807 206.508 42.7614 209.135 47.7943 209.544C47.7943 209.544 64.8245 198.453 75.8854 178.839C89.4628 154.788 116.442 165.646 116.442 165.646C129.375 168.506 139.676 167.455 147.225 155.839L126.098 147.316Z" fill="#583B18"/>
<path d="M124.929 107.738C124.929 107.738 119.603 134.24 93.619 144.748L84.3724 143.639L82.207 147.083L103.919 147.783C103.919 147.783 122.471 140.486 132.303 120.522C132.595 119.88 137.979 108.73 124.929 107.738Z" fill="#F5B493"/>
<path d="M122.059 146.907C122.059 146.907 128.087 130.562 129.374 114.626C129.374 114.626 124.985 110.831 122.176 109.197C121.298 108.672 120.947 107.562 121.415 106.628C123.463 102.425 135.695 85.9636 136.631 85.7301C141.606 84.5042 162.089 74.7556 176.544 94.428C182.747 102.892 175.315 128.869 147.224 155.839C138.211 157.356 129.784 154.73 122.059 146.907Z" fill="#FF9123"/>
<path d="M122.059 146.907C122.059 146.907 128.087 130.562 129.374 114.626C129.374 114.626 124.985 110.831 122.176 109.197C121.298 108.672 120.947 107.562 121.415 106.628C123.463 102.425 135.695 85.9636 136.631 85.7301C141.606 84.5042 162.089 74.7556 176.544 94.428C182.747 102.892 175.315 128.869 147.224 155.839C138.211 157.356 129.784 154.73 122.059 146.907Z" fill="url(#paint2_linear_3053_13911)" fill-opacity="0.5"/>
<path d="M145.352 118.246C145.352 118.246 128.615 138.035 107.137 140.954C107.137 140.954 101.577 135.933 97.4804 137.743C93.3838 139.553 87.707 147.492 87.707 147.492H115.213C115.213 147.492 141.256 146.558 154.248 130.855C153.194 125.251 150.093 121.982 145.352 118.246Z" fill="#FFBE9D"/>
<path d="M155.126 71.8955L158.813 84.0959C158.989 84.6797 158.755 85.2634 158.287 85.6137C156.531 86.8395 151.908 89.2329 145.587 86.8979C144.885 86.606 144.358 85.9639 144.3 85.205L143.363 74.5224L155.126 71.8955Z" fill="#F5B493"/>
<path d="M133.648 61.9717C133.648 61.9717 135.463 74.6391 140.32 78.4918C145.177 82.403 154.658 79.4258 157.877 69.9107L151.498 53.624L133.648 61.9717Z" fill="#FFBE9D"/>
<path d="M152.2 64.19C151.849 64.3068 151.439 64.0733 151.381 63.6646C151.205 62.4971 150.737 60.1621 149.859 58.586C149.859 58.586 150.328 56.9515 145.646 59.4616C140.964 61.9718 133.941 65.6494 129.844 63.4311C125.806 61.2713 121.768 50.5302 132.361 52.515C132.771 52.5734 133.122 52.2815 133.122 51.8729C133.005 50.1216 133.18 46.0353 137.277 44.7511C141.139 43.5252 143.246 45.2765 144.124 46.3272C144.358 46.6191 144.885 46.6191 145.119 46.3272C146.289 44.8095 149.45 41.5988 154.073 43.642C157.877 45.3348 158.462 47.6698 158.404 49.1292C158.404 49.5962 158.872 49.9465 159.282 49.713C160.452 49.1876 162.325 48.8957 164.139 51.1724C166.655 54.2662 163.086 56.9515 162.032 57.7104C161.857 57.8271 161.74 58.0023 161.74 58.2358C161.74 59.8703 161.505 66.9337 157.936 70.9032C157.643 71.2534 157.058 71.1367 156.882 70.728L154.132 64.2484C154.014 63.9565 153.663 63.7814 153.371 63.8981L152.2 64.19Z" fill="#614524"/>
<path d="M152.141 65.5328C152.141 65.5328 153.779 58.7613 156.354 60.9795C158.929 63.1978 155.711 68.0429 152.784 68.9186L152.141 65.5328Z" fill="#FFBE9D"/>
<path d="M89.1126 148.951L76.7642 107.855C76.2375 106.162 74.7744 104.994 73.0187 104.878L56.3396 103.71C54.6425 103.593 53.355 105.228 53.9402 106.862L67.7516 146.09C68.2198 147.375 69.3318 148.25 70.6778 148.367L87.1228 150.177L89.1126 148.951Z" fill="#A1826A"/>
<path d="M66.529 117.458C65.4864 117.973 65.3855 119.89 66.3037 121.739C67.222 123.588 68.8116 124.669 69.8543 124.154C70.8969 123.638 70.9978 121.722 70.0796 119.873C69.1613 118.024 67.5717 116.943 66.529 117.458Z" fill="white" fill-opacity="0.5"/>
<path d="M87.0643 150.235H87.1228L122.12 148.484C122.997 148.425 123.641 147.725 123.583 146.849C123.524 145.974 122.822 145.332 121.944 145.39L86.9472 147.141C86.0694 147.2 85.4256 147.9 85.4842 148.776C85.5427 149.593 86.245 150.235 87.0643 150.235Z" fill="#9F8169"/>
<path d="M129.375 114.86C129.258 114.86 129.141 114.743 129.141 114.626C129.141 107.271 131.95 97.5223 132.008 97.4056C132.067 97.2888 132.184 97.2305 132.301 97.2305C132.418 97.2888 132.476 97.4056 132.476 97.5223C132.476 97.6391 129.609 107.329 129.667 114.626C129.667 114.743 129.55 114.86 129.375 114.86Z" fill="#4A4743" fill-opacity="0.15"/>
<path d="M145.351 118.479C145.292 118.479 145.234 118.479 145.175 118.42C145.058 118.362 145.058 118.187 145.117 118.07C145.175 117.953 152.783 108.321 155.417 101.725C155.475 101.608 155.592 101.55 155.709 101.608C155.826 101.667 155.885 101.783 155.826 101.9C153.193 108.555 145.526 118.245 145.468 118.362C145.468 118.42 145.409 118.479 145.351 118.479Z" fill="#4A4743" fill-opacity="0.15"/>
<path d="M156.119 133.306L154.714 131.38C154.656 131.263 154.656 131.146 154.773 131.03C154.89 130.971 155.007 130.971 155.124 131.088L156.294 132.723C167.063 127.994 173.793 115.093 173.851 114.977C173.91 114.86 174.085 114.801 174.202 114.86C174.319 114.918 174.378 115.093 174.319 115.21C174.261 115.327 167.414 128.52 156.353 133.248L156.119 133.306Z" fill="#4A4743" fill-opacity="0.15"/>
</g>
<defs>
<linearGradient id="paint0_linear_3053_13911" x1="228.105" y1="117.586" x2="382.565" y2="275.397" gradientUnits="userSpaceOnUse">
<stop stop-color="#DBDBDB"/>
<stop offset="1" stop-color="#F2F2F2"/>
</linearGradient>
<linearGradient id="paint1_linear_3053_13911" x1="268.427" y1="111.556" x2="337.997" y2="277.172" gradientUnits="userSpaceOnUse">
<stop stop-color="#FFCA00"/>
<stop offset="1" stop-color="#FF9000"/>
</linearGradient>
<linearGradient id="paint2_linear_3053_13911" x1="137.435" y1="87.4705" x2="170.847" y2="150.182" gradientUnits="userSpaceOnUse">
<stop stop-color="#FFCA00"/>
<stop offset="0.791667" stop-color="#FF9000"/>
</linearGradient>
</defs>
</svg>
