<svg width="440" height="400" viewBox="0 0 440 400" fill="none" xmlns="http://www.w3.org/2000/svg">
<g opacity="0.95">
<path d="M23.4712 155.764C24.2301 155.644 24.7846 155.585 25.339 155.527C27.0625 154.468 24.5274 152.74 27.2426 151.816C29.5463 152.531 28.2901 153.342 30.7395 154.121C32.4015 154.704 29.1618 155.245 32.6616 156.034C34.0335 155.73 33.1303 155.027 33.5691 154.462C35.0282 154.348 36.8374 154.238 35.4683 153.025C34.5352 152.764 32.5816 152.052 31.3569 151.663C31.4183 150.02 31.6542 148.759 31.7442 147.433C32.503 147.313 33.2033 147.319 33.8164 147.135C33.8178 146.377 33.965 145.683 33.9964 144.483C33.7921 144.544 31.0211 144.078 32.4802 143.964C33.0347 143.906 33.7349 143.912 34.348 143.728C34.5552 142.15 34.7625 140.572 34.9697 138.995C35.8743 138.94 36.7789 138.884 37.7421 138.703C37.9779 137.442 38.0679 136.116 38.3623 134.728C38.3623 134.728 39.4127 134.737 40.696 135.001C40.5774 136.011 40.2258 136.766 40.3116 137.715C40.4559 138.537 39.0539 139.283 40.9775 140.437C42.115 140.637 43.3112 140.71 44.9446 140.977C45.329 138.264 45.6549 135.676 46.1265 133.153C46.1851 133.028 46.9439 132.908 47.6441 132.914C48.7231 133.239 49.8606 133.439 50.9396 133.764C51.0539 135.029 51.1682 136.293 51.3411 137.432C51.3411 137.432 51.9242 137.69 52.07 137.754C52.9746 137.699 53.8206 137.77 54.7252 137.714C54.8709 137.779 57.3189 139.317 57.3189 139.317C58.1649 139.387 58.9238 139.268 60.1199 139.341C60.38 140.67 62.0406 142.012 64.2556 143.295C66.0363 142.868 65.7462 141.981 65.2517 141.155C64.5229 140.833 63.9398 140.575 63.3568 140.317C63.504 139.624 62.718 138.669 64.0899 138.365C64.7901 138.371 65.3446 138.313 66.0449 138.319C66.3693 136.49 66.6937 134.66 66.8723 132.766C67.7769 132.711 68.8273 132.72 69.3818 132.662C69.9949 132.478 68.8002 131.646 72.0956 132.496C71.8898 133.316 71.684 134.135 71.6826 134.893C71.8269 135.716 70.3378 136.272 72.2613 137.426C75.4996 137.643 72.6429 136.229 75.1523 136.124C76.7572 136.075 76.963 135.255 77.839 134.884C79.4138 135.277 80.4928 135.602 81.8633 136.056C80.8129 136.047 79.9083 136.103 79.1495 136.222C79.0894 137.106 78.8837 137.926 78.8236 138.81C80.5442 139.267 81.8275 139.531 80.1641 139.706C79.7268 139.513 79.1437 139.255 78.4735 138.807C77.8319 138.675 76.9858 138.604 76.7815 138.666C76.0227 138.785 75.7011 139.098 75.2924 139.221C73.5132 138.89 72.4628 138.881 70.6836 138.549C72.2285 139.384 73.5403 139.964 74.7065 140.48C78.7322 140.894 81.8247 141.047 85.3245 141.836C86.5792 141.784 87.6881 141.667 88.5342 141.738C89.0601 141.363 87.8654 140.532 88.0697 140.47C91.9497 140.82 94.1947 141.661 95.9453 141.676C97.6674 141.376 94.8107 139.961 98.4576 140.056C98.7192 140.627 98.9807 141.198 99.3008 141.643L100.264 141.461C101.257 140.838 102.775 140.599 103.156 139.402C103.538 138.205 104.355 137.959 106.163 138.607C106.892 138.929 107.505 138.745 107.914 138.622C108.468 138.564 108.703 138.06 109.403 138.066C111.008 138.017 112.758 138.033 114.509 138.048L115.764 137.996C115.442 138.309 115.266 138.686 115.091 139.064C115.762 138.754 116.493 138.318 117.164 138.008C117.427 137.821 117.836 137.698 118.099 137.511C118.07 137.195 118.392 136.882 119.005 136.697C118.626 136.378 118.043 136.12 117.664 135.801C117.081 135.543 116.498 135.285 115.915 135.028L115.508 134.392L116.823 133.456C114.379 129.644 114.818 129.079 118.578 131.197C119.831 131.903 121.259 132.989 122.482 134.137C123.006 134.521 123.472 135.031 123.851 135.35C124.873 135.043 125.836 134.862 126.858 134.555C124.324 132.068 121.614 129.96 118.875 128.293L123.868 126.252L122.673 125.42C123.229 124.604 125.214 124.115 126.731 124.634C127.022 124.763 127.139 124.511 127.489 124.514C130.435 125.362 133.377 127.725 136.114 130.908L138.386 132.823L140.574 133.032L136.936 128.388C135.189 126.098 134.899 125.211 137.377 126.307L138.835 126.951C139.538 125.441 140.182 124.057 140.886 122.547C141.003 122.295 140.887 121.788 140.654 121.534C138.296 118.67 139.929 118.937 140.805 118.566C142.09 118.071 143.521 117.642 144.864 117.022L144.311 116.322C143.582 115.999 142.853 115.677 141.6 114.971C144.577 114.618 139.857 111.165 139.685 109.268L144.901 112.789C146.475 113.94 148.107 114.965 149.534 116.051C149.71 115.674 149.973 115.487 150.266 114.857C148.401 113.577 146.973 112.491 145.633 111.595C147.035 110.849 148.437 110.103 149.693 109.292C150.014 108.979 150.162 108.286 149.754 107.65C148.271 105.173 149.206 104.676 150.199 104.053C150.929 103.617 151.135 102.797 151.574 102.233C152.334 101.355 153.24 100.541 153.737 99.8507C155.135 101.379 156.271 102.337 157.203 103.356L159.738 105.084C160.61 106.987 161.514 106.932 161.516 106.174C161.373 104.593 160.91 102.567 160.534 100.731C160.825 100.86 161.321 100.928 161.554 101.183C164.7 104.243 165.43 103.807 165.754 101.978C165.873 100.968 168.468 101.812 170.014 101.889C169.111 101.186 168.208 100.483 167.159 99.7154C170.896 98.4845 170.896 98.4845 176.051 103.647C176.895 104.476 177.273 105.553 177.854 106.569C176.834 106.118 175.609 105.728 175.056 105.029C172.96 102.736 171.443 102.217 169.869 101.824L174.236 106.79L176.331 109.841C177.761 109.412 179.279 109.172 180.622 108.552C180.885 108.365 180.449 107.413 180.392 106.781C179.694 106.017 178.79 105.314 178.092 104.55L171.105 96.1486C171.689 95.6482 172.42 95.2124 173.004 94.712C173.647 94.0858 174.493 94.1564 176.415 96.0687C177.027 96.6427 177.756 96.9649 178.426 97.4131C178.223 96.7163 178.02 96.0195 177.613 95.3842C177.206 94.7488 176.448 94.1104 175.982 93.6008C177.15 93.3583 178.519 94.5707 179.858 96.2252C181.927 97.4437 183.909 98.472 185.92 99.8163C188.076 101.225 190.32 102.824 191.139 101.821C191.519 101.382 191.463 99.9912 190.997 99.4817C189.513 97.7628 187.619 96.1667 185.813 94.7609C184.677 93.8033 177.774 87.1088 177.63 86.2862C177.514 85.7798 177.923 85.657 178.186 85.4697L182.705 87.4679C183.522 87.2223 185.156 87.4893 185.011 86.6667C184.925 85.7182 183.499 83.8735 182.51 82.2221C182.365 82.1577 181.81 82.216 181.314 82.1485L180.645 80.9422C181.491 81.0128 182.337 81.0834 183.183 81.154C182.313 78.4927 183.511 77.8082 185.611 77.8266C186.663 77.0776 188.735 76.7799 184.25 72.8234C184.104 72.7589 184.135 71.5587 184.427 71.6877C186.03 72.3967 187.516 73.3574 189.207 74.2567C190.054 73.5691 191.135 73.1363 193.001 73.6581C193.789 73.8545 194.112 72.7833 193.967 71.9607C193.534 69.4928 193.567 67.5345 196.484 68.0655C196.63 68.1299 196.688 68.0041 196.747 67.8782C196.398 67.117 196.049 66.3558 195.526 65.2139C197.566 66.8745 199.081 68.1513 201.266 69.8764C200.277 68.225 199.928 67.4638 199.579 66.7026C200.338 66.5828 201.038 66.589 201.739 66.5951C201.011 65.5146 200.43 64.4986 199.848 63.4827C202.793 64.3298 205.447 65.048 208.101 65.7662L208.83 66.0885C210.816 64.8422 212.744 63.7219 214.789 62.3498C214.382 61.7144 213.567 60.4436 212.404 58.4117C214.968 60.4559 216.774 61.8617 218.434 63.203C218.843 63.0802 219.311 62.8316 219.719 62.7088C218.787 61.6898 218.089 60.9255 217.303 59.9709C218.09 60.1673 219.169 60.4926 219.023 60.4282C217.803 57.7639 220.571 59.7467 221.563 59.8818L223.632 61.1003C224.099 60.8517 224.654 60.7934 225.121 60.5447C225.326 60.4833 225.384 60.3575 225.443 60.2316C226.466 59.1665 229.411 60.0136 227.463 56.2689C227.289 55.8883 227.669 55.4493 227.815 55.5138C230.642 57.3708 230.675 55.4124 232.395 55.8698L231.285 56.7446C231.109 57.1222 230.729 57.5611 230.553 57.9386C230.729 57.5611 230.963 57.0577 231.285 56.7446L232.395 55.8698L236.948 55.1514L239.576 54.0372C240.135 51.7044 242.383 51.029 246.144 52.3887C245.038 50.9891 243.873 49.7153 242.855 48.5059L243.816 49.083C244.141 47.2535 244.524 45.2983 244.731 43.7206C246.334 44.4296 247.851 44.9483 249.163 45.5284C249.573 44.6475 248.641 43.6284 247.155 42.6677C246.106 41.9003 244.998 41.2588 244.008 40.3656C243.25 39.7272 242.523 38.6468 242.32 37.95C242.233 37.7597 243.283 37.7689 243.866 38.0267C245.644 39.1163 247.451 40.5221 250.219 42.5049C248.094 39.8959 246.434 37.7964 244.601 35.3163C245.476 35.7031 246.059 35.9609 246.642 36.2187L250.636 37.8332L252.179 39.4262C253.377 38.7417 254.686 40.8381 256.055 42.0506L257.513 42.6951C261.854 45.829 264.829 46.2341 267.485 46.1942C267.573 45.6263 267.516 44.994 267.635 43.9841C270.2 45.2702 272.852 46.7466 275.563 48.0971C277.811 47.4218 274.724 44.2357 273.152 42.3265C275.427 42.7255 277.207 43.057 279.19 43.3271C279.019 41.4301 281.758 43.0968 282.693 42.5995C284.358 41.6664 286.803 44.7205 288.872 45.939C288.176 43.6584 288.616 42.3355 291.009 42.4827C292.205 42.5564 292.848 41.9302 293.404 41.1137C294.457 39.6066 295.044 37.5899 298.719 38.7593C299.83 37.1263 298.114 34.3945 295.057 30.7665C295.786 31.0888 296.282 31.1563 296.719 31.3496C299.547 32.4485 299.665 32.1968 297.57 29.1457C296.609 27.8105 295.503 26.4109 294.863 25.5207C296.904 26.4231 299.003 27.1997 301.044 28.1021C299.763 26.3218 298.541 24.4157 296.854 22C299.913 24.1117 302.679 27.6109 304.984 27.5679C307.75 30.3089 304.456 28.7005 304.834 29.7779L308.648 34.0444C308.882 33.541 308.766 33.0346 308.505 32.4637C307.546 30.3703 308.538 30.5053 310.636 32.04C311.306 32.4882 312.15 33.3169 312.646 33.3844C313.434 33.5809 313.96 33.2064 314.66 33.2125C313.815 32.3838 312.884 31.3647 312.068 30.8521C309.998 29.6336 308.366 28.6084 308.632 26.9048C308.603 26.5887 307.293 25.2504 307.236 24.6181C307.004 23.6052 307.21 22.7856 307.649 22.2208C307.708 22.095 309.34 23.1201 310.155 23.6327C311.933 24.7224 315.08 27.0244 315.402 26.7113C316.425 25.6462 318.931 27.0581 321.322 27.9636C322.197 28.3503 323.276 28.6757 323.539 28.4884C324.503 27.5491 326.31 28.9549 328.349 30.6155C329.019 31.0636 329.544 31.4473 330.214 31.8954L329.922 31.7665L322.411 22.9818L322.966 22.9235C324.248 23.9456 325.617 25.158 326.811 25.9898C328.443 27.015 329.988 27.8499 330.423 29.5595C330.51 29.7498 331.354 30.5786 331.5 30.643C331.937 30.8364 332.346 30.7136 332.463 30.4619C332.58 30.2102 332.319 29.6393 332.145 29.2587C331.566 26.7264 332.558 26.8614 336.199 29.9892L341.388 32.4355C342.787 33.2059 344.127 34.1021 345.498 34.5564C347.101 35.2654 348.443 35.4035 349.959 35.9222L351.594 35.4311C351.944 35.4342 352.236 35.5631 353.141 35.5078C353.282 37.8467 353.308 39.6792 353.333 41.5117C353.361 42.586 354.322 43.1631 355.488 43.6787L356.362 44.8236L357.353 44.9586L357.965 45.5326C358.78 46.8034 359.594 48.0741 360.613 49.2835C361.458 50.1122 362.594 51.0699 363.555 51.6469C363.993 51.8403 364.227 51.3369 364.549 51.0238C365.016 50.7752 365.396 50.3362 365.718 50.0231C367.523 52.1871 368.803 53.9674 370.492 55.6249C372.647 57.7919 375.152 59.962 377.57 61.9417C380.513 64.3052 383.397 66.7945 386.456 68.9062C388.554 70.4409 390.769 71.7239 393.363 73.3262C392.604 73.4459 391.991 73.6301 391.291 73.6239C390.445 73.5533 389.366 73.228 388.433 72.9671L388.899 73.4766C389.802 74.1795 390.705 74.8824 391.521 75.395C394.465 77.0003 397.464 79.9961 398.336 81.8991C397.314 82.2061 395.972 82.068 395.971 82.8262C395.91 84.4683 396.518 86.5586 396.836 88.52C391.968 85.7606 391.647 86.0737 393.886 89.9474C394.875 91.5987 395.368 93.1826 396.152 94.8953L395.598 94.9537C397.346 96.4853 399.239 98.0814 401.366 99.9323C401.714 100.693 402.296 101.709 402.819 102.851C403.429 104.183 404.098 105.39 404.883 107.103C403.601 106.08 403.048 105.381 401.533 104.104C402.143 105.436 402.2 106.068 402.695 106.894C404.47 109.5 406.449 112.044 408.224 114.65L408.132 116.734C408.802 117.183 409.501 117.947 410.084 118.205C413.348 120.255 417.394 125.535 415.962 126.722C414.793 127.723 415.432 129.371 416.099 131.336L415.953 131.271L414.516 135.492L417.871 135.458L414.924 135.369L416.362 131.149L416.508 131.213C416.768 132.542 417.524 133.939 419.476 135.409C419.155 135.722 418.92 136.225 418.599 136.539C417.927 136.849 416.877 136.839 416.438 137.404C415.795 138.03 415.676 139.04 415.412 139.986C418.47 142.856 421.47 145.851 425.139 149.295C423.386 150.796 421.632 152.297 419.879 153.798L418.624 153.85C417.805 154.854 417.161 156.239 415.963 156.923C414.853 157.798 413.189 157.973 411.7 158.528C411.29 159.409 410.356 159.907 410.383 160.981C410.321 162.623 409.155 162.108 407.319 161.144L403.14 164.456L402.148 164.321L402.351 165.018C402.696 168.053 398.936 165.935 396.341 165.091L392.754 164.112C390.623 164.536 388.666 165.34 386.681 165.828C384.288 166.439 381.807 166.86 380.491 168.554C380.402 169.122 380.314 169.69 380.079 170.193L379.553 170.568L379.4 174.294C379.252 175.746 377.701 177.944 380.561 177.842C379.916 179.227 379.535 180.424 379.007 181.556C378.949 181.682 378.832 181.934 378.773 182.06C379.034 182.631 379.15 183.137 379.266 183.644L381.747 183.223C379.933 185.608 378.324 187.932 381.094 189.156C381.531 189.35 380.858 190.418 380.769 190.986L379.457 190.406C378.028 190.077 376.599 189.749 375.316 189.485C376.745 189.813 378.174 190.142 379.457 190.406L380.769 190.986L380.301 191.992C381.467 192.508 384.269 191.774 383.653 193.475C383.653 193.475 384.412 193.355 384.966 193.297L389.169 192.576C390.628 192.462 392 192.158 393.401 192.17C395.21 192.06 397.019 191.949 398.683 191.774L407.26 192.228L408.165 192.173C410.761 192.259 413.738 191.906 415.691 192.618C418.928 193.594 421.522 195.196 424.379 196.611C426.768 198.275 428.953 200 426.554 203.643L425.872 209.261C427.74 209.024 429.695 208.978 432 208.935C429.896 210.433 427.851 211.805 425.806 213.177L425.278 215.068C427.817 214.522 427.611 215.341 426.529 216.532C425.213 218.227 423.197 219.915 423.544 221.434C423.573 221.75 421.295 222.868 420.039 223.678L416.156 224.845L409.699 229.274C410.954 229.222 412.354 229.234 413.609 229.182C414.309 229.188 414.951 229.32 415.593 229.452C414.804 230.014 413.898 230.827 413.08 231.073C410.57 231.935 408.496 232.991 407.734 234.627C404.054 236.49 400.17 238.415 399.727 241.254C399.61 241.506 398.617 242.129 398.091 242.504C397.068 243.569 396.044 244.634 395.108 245.889C396.742 246.156 398.229 246.359 399.425 246.432C398.022 247.937 397.086 249.192 396.004 250.383C394.338 252.074 393.109 253.959 390.801 255.518C386.798 258.453 382.358 261.194 377.976 263.809C375.727 265.243 373.099 266.357 370.558 267.661L360.746 272.125L354.199 277.88L351.949 280.072C350.197 280.815 348.445 281.557 346.838 282.365C342.165 284.851 337.434 287.463 332.906 290.014C331.88 292.596 330.361 293.593 327.852 293.698C326.391 294.569 325.339 295.318 324.142 296.003C319.76 298.618 315.379 301.233 310.91 303.658C307.376 305.586 303.463 307.195 299.842 308.932L276.625 319.912L271.047 322.453L267.307 325.201C266.46 325.888 264.999 326.76 264.969 327.202C264.908 328.844 262.981 329.206 261.084 329.885C259.186 330.563 257.171 331.493 255.214 332.298L255.447 332.552L259.883 332.086L259.94 332.718C257.925 333.648 255.852 334.704 253.515 335.947C255.033 335.708 256.2 335.465 257.368 335.223C257.251 335.474 257.397 335.539 257.251 335.474C256.783 335.723 256.462 336.036 256.053 336.159L243.439 341.356C240.022 343.032 236.518 344.517 233.334 346.448C229.332 348.625 225.654 349.73 222.794 349.831C218.997 351.946 215.813 353.877 212.542 355.617L212.105 355.424L213.011 354.61C206.764 355.946 206.093 356.256 203.373 359.454C202.673 359.448 201.885 359.252 201.068 359.497C197.594 360.541 193.916 361.646 190.529 362.88C187.813 363.804 185.946 364.04 185.014 363.021L182.972 362.877L178.389 364.037L175.093 363.187C174.219 362.8 172.877 362.662 172.82 362.03C172.618 360.575 171.685 360.314 168.735 361.742C164.968 363.414 161.114 364.897 157.406 366.444L155.826 368.326L150.51 371.438C149.517 372.061 150.272 374.216 147.18 373.305L146.099 374.496C146.622 375.637 145.949 376.706 143.029 377.691C142.563 377.182 142.243 376.736 141.864 376.417C140.521 377.037 139.09 377.467 137.893 378.152C136.9 378.775 136.052 379.462 135.059 380.085C133.337 380.386 131.528 380.497 129.834 381.114C125.689 382.467 121.366 384.957 117.077 384.73L111.854 385L110.106 383.468L111.657 381.271L114.085 377.943L114.756 377.633C114.027 377.311 113.181 377.24 112.657 376.857C112.278 376.537 112.571 375.908 112.601 375.466L111.528 372.108L111.295 371.853C111.968 370.785 112.641 369.717 113.432 368.397C112.936 368.33 112.44 368.262 111.798 368.13L106.776 369.855L102.458 370.07C103.657 368.628 104.71 367.12 105.909 365.678C105.502 365.042 105.094 364.407 104.541 363.707C103.928 363.891 103.257 364.201 102.643 364.386L102.352 364.257C102.293 364.382 102.148 364.318 102.089 364.444C102.496 365.079 102.904 365.715 103.311 366.35C102.288 367.415 101.44 368.103 100.738 368.855C99.9797 368.974 99.3666 369.159 97.9947 369.463L95.9768 371.909C96.5899 371.725 97.1444 371.666 97.9032 371.547C97.4345 372.553 96.7614 373.622 96.2926 374.628C95.2708 374.935 94.512 375.055 93.6946 375.301C91.5024 377.367 91.5024 377.367 88.8457 378.165C89.2845 377.6 89.7232 377.035 90.2491 376.661C89.2859 376.842 88.527 376.961 87.8268 376.955C87.4781 376.194 86.7493 375.872 88.357 374.306C89.3802 373.241 89.2359 372.419 89.7632 371.286C89.6475 370.779 88.3642 370.516 89.2416 369.386C90.2634 369.079 91.3438 368.646 92.6285 368.152C92.66 366.952 92.3113 366.191 90.5321 365.859C90.0633 366.866 89.566 367.556 89.1559 368.437C87.8426 368.615 86.7336 368.732 85.566 368.975C85.9462 368.536 86.3263 368.097 86.9108 367.596C86.8236 367.406 86.6493 367.026 86.5621 366.835L84.7515 367.704C80.6043 369.816 76.43 370.853 72.52 370.945C70.798 371.246 68.9588 371.799 67.4997 371.913C64.3772 372.201 59.6755 374.371 58.2207 372.21L57.319 370.749L60.1543 368.057C60.5344 367.618 61.1189 367.118 61.1489 366.676C61.2676 365.666 61.9421 363.84 61.0375 363.895C60.6873 363.892 60.3372 363.889 60.0457 363.76C59.8413 363.822 59.6956 363.757 59.4912 363.818C59.3455 363.754 59.404 363.628 59.2583 363.564C58.821 363.37 58.6466 362.99 58.6181 362.674C57.9493 361.467 57.2218 360.387 56.5531 359.181C57.109 358.364 60.03 356.62 57.0532 356.974C56.1186 357.471 55.2712 358.158 54.3366 358.656C52.7617 358.263 52.676 357.314 52.3573 356.111C53.3505 355.488 54.9282 354.365 56.243 353.428C56.1558 353.238 56.0101 353.174 55.9229 352.983L55.0469 353.355L52.2144 354.53C50.9297 355.025 49.5864 355.645 48.3016 356.139C44.7389 357.75 41.4692 358.733 38.2895 358.389C37.2977 358.254 36.1316 357.738 35.4599 358.048C32.3646 359.411 30.4396 359.015 28.1931 358.932C27.1456 357.407 26.2153 355.63 29.1378 353.128L25.4065 351.326C22.7812 350.924 23.8345 349.417 25.2378 347.913C24.2761 347.336 23.5187 346.698 22.294 346.308C19.786 345.654 19.876 344.328 22.0096 342.388C20.522 342.185 19.2386 341.921 17.6052 341.654C18.0154 340.774 18.5427 339.641 19.07 338.508L22.164 337.904C23.1858 337.597 24.2661 337.164 25.1422 336.792C24.1204 337.099 23.04 337.532 22.164 337.904L19.07 338.508C20.7063 337.259 21.9625 336.449 21.4109 334.991C20.6563 332.836 21.7996 330.003 22.1255 327.415C22.1555 326.973 22.477 326.66 22.507 326.218C22.8014 324.831 23.0958 323.443 23.3902 322.056L18.0541 320.303L15.719 320.788L14.8429 321.16C14.8458 319.643 14.7029 318.062 14.8515 316.611C14.9101 316.485 15.6404 316.049 16.3121 315.739C16.4293 315.487 16.5464 315.235 16.7222 314.858L16.0834 313.21L16.7837 313.216L20.4378 309.52L20.5836 309.584L27.1859 305.22C27.0116 304.839 26.7787 304.584 25.9326 304.514C25.4368 304.446 24.7365 304.44 24.182 304.498C22.9045 301.202 22.9045 301.202 20.3078 301.116C20.3636 302.506 21.6454 303.528 21.0009 304.913C19.6004 304.9 18.7544 304.83 17.8498 304.885C17.1195 305.321 16.3893 305.757 15.1917 306.441C14.4343 305.803 13.6183 305.29 14.2328 304.348C14.7587 303.974 15.226 303.725 15.6933 303.476C15.549 302.654 15.2589 301.767 15.2018 301.134C16.1364 300.637 16.6623 300.263 17.1296 300.014C17.0138 299.507 16.6937 299.062 16.578 298.556C16.5208 297.924 15.2961 297.534 16.0263 297.098C17.4283 296.352 18.1585 295.916 19.1517 295.293C20.5522 295.305 21.9527 295.317 22.9445 295.453C21.5411 296.957 20.3136 298.083 19.4947 299.087C19.3775 299.339 20.0192 299.471 20.6022 299.728C21.8284 299.36 23.2003 299.056 23.8134 298.872C24.9824 297.871 22.9988 297.601 24.6637 296.668C26.4443 296.241 28.2835 295.689 30.0641 295.262C31.0574 294.639 32.0506 294.016 32.9852 293.519C32.6651 293.073 28.5265 290.636 28.0306 290.569L25.6955 291.054C23.8263 292.048 24.758 293.068 21.4297 294.176C20.0878 294.038 18.8331 294.09 17.6369 294.016C17.2597 292.939 16.9696 292.052 16.6795 291.165C17.4097 290.729 18.14 290.293 18.8117 289.983C18.9588 289.289 17.5298 288.961 19.1361 288.153C20.3622 287.785 21.384 287.478 22.9603 287.113C22.6402 286.668 22.2615 286.348 22.0285 286.094C20.1607 286.33 19.0518 286.447 17.6799 286.751C17.3026 285.673 17.0125 284.786 16.7224 283.899C19.4091 282.659 18.2144 281.827 19.0332 280.823C19.1504 280.572 19.9678 280.326 20.6395 280.016C20.1179 278.116 19.392 276.278 18.8704 274.378C19.6006 273.942 20.3309 273.506 21.2069 273.134C21.1197 272.944 21.0911 272.628 20.9168 272.247C21.7928 271.876 22.8732 271.443 23.9536 271.01C23.5463 270.375 23.2848 269.804 22.7317 269.104C22.4116 268.659 22.3545 268.027 22.0344 267.582C21.0769 264.73 20.1194 261.879 19.3077 259.092C19.192 258.585 18.9305 258.014 18.8733 257.382C18.6689 257.443 18.406 257.63 18.143 257.818C16.3053 257.612 16.1895 257.106 17.7372 256.424C18.0873 256.427 18.3789 256.556 18.6704 256.685C18.5546 256.179 18.5847 255.737 18.6147 255.295C18.4103 255.356 18.1474 255.543 17.943 255.605C17.3885 255.663 16.7469 255.531 16.1924 255.589C16.3967 255.528 16.6597 255.341 17.0684 255.218C17.5643 255.285 18.1188 255.227 18.6147 255.295L18.6733 255.169C19.6693 253.029 18.6247 249.987 15.8895 246.046L17.2885 246.817C17.5215 247.072 17.5501 247.388 17.7244 247.768C17.5501 247.388 17.4629 247.197 17.2885 246.817L15.8895 246.046C15.658 245.033 15.2807 243.956 15.2821 243.198C14.9406 238.646 14.9406 238.646 9.49446 233.354C9.34869 233.29 9.32011 232.974 9 232.528C9.55448 232.47 10.2547 232.476 10.955 232.482L12.1497 233.314C12.4712 233.001 13.0843 232.817 13.0271 232.185C12.6813 229.907 12.1025 227.375 11.8153 224.971C11.7581 224.339 11.701 223.707 12.1097 223.584C13.8332 222.525 15.0322 221.082 14.1633 217.663C13.7575 216.269 14.5477 214.949 15.8311 215.213C18.8936 215.809 21.1701 215.45 23.1851 214.52C24.9928 215.167 26.3348 215.305 27.5023 215.063C26.0461 213.66 26.5134 213.411 28.7613 212.736C28.8185 213.368 28.9342 213.875 28.9042 214.317C29.1672 214.13 29.343 213.752 29.4601 213.5C30.1632 211.99 30.662 210.541 32.7342 210.244L33.1157 209.046C31.2208 208.209 29.676 207.374 28.5098 206.858C28.2812 204.329 28.0526 201.8 27.8239 199.27C27.7968 198.196 27.7111 197.247 27.6839 196.173C27.6839 196.173 27.5381 196.109 27.4795 196.235C27.4795 196.235 27.1008 195.915 26.4892 195.341C26.7522 195.154 26.8408 194.586 27.2781 194.78L27.4238 194.844C27.3381 193.896 27.3109 192.821 27.2252 191.873C28.0426 191.627 28.5971 191.569 29.5603 191.388C29.0373 190.246 29.9147 189.116 28.9544 187.781C27.1752 187.45 25.6875 187.247 24.3457 187.109C24.3471 186.351 24.2899 185.719 24.2914 184.96C23.4168 184.574 22.6294 184.377 21.9005 184.055C22.718 183.809 23.4768 183.69 24.44 183.509C24.3843 182.118 24.3285 180.728 24.2728 179.337C24.2171 177.947 24.3071 176.621 24.2514 175.23C25.0103 175.11 25.5647 175.052 26.5865 174.745C26.5594 173.671 26.5908 172.471 26.5637 171.396C27.7898 171.028 28.5487 170.908 29.3661 170.663C28.0256 169.766 26.6265 168.996 24.7616 167.716C23.1253 168.965 25.2818 170.374 23.1796 171.114C23.1796 171.114 22.6837 171.046 22.3336 171.043C22.0421 170.915 21.5462 170.847 21.6048 170.721C21.6091 168.447 21.672 166.046 21.822 163.836C22.7852 163.655 23.5441 163.535 24.5073 163.354C23.2583 160.374 23.2626 158.099 23.4712 155.764ZM14.0861 227.645C13.6202 227.135 13.2415 226.816 12.8628 226.497C13.0957 226.752 13.6202 227.135 14.0861 227.645ZM111.342 362.313C111.429 362.504 111.429 362.504 111.517 362.694C111.429 362.504 111.488 362.378 111.342 362.313C111.197 362.249 111.255 362.123 111.109 362.059C111.255 362.123 111.255 362.123 111.342 362.313ZM136.089 375.229C135.885 375.291 135.622 375.478 135.418 375.539C135.768 375.543 136.031 375.355 136.089 375.229ZM278.593 50.6509C278.563 51.0929 278.591 51.409 278.561 51.851C278.533 51.5349 278.563 51.0929 278.593 50.6509ZM43.1556 346.427C43.2142 346.301 43.1856 345.985 43.2442 345.859C43.1856 345.985 43.0684 346.237 43.1556 346.427ZM125.919 368.759C126.882 368.578 128.05 368.335 129.363 368.157C128.05 368.335 127.028 368.642 125.919 368.759C126.183 367.814 126.185 367.056 125.514 366.607C125.281 366.353 124.786 366.285 124.29 366.218C124.786 366.285 125.223 366.478 125.514 366.607C126.185 367.056 126.329 367.878 125.919 368.759ZM168.075 340.507C166.47 340.556 165.216 340.608 163.961 340.66C165.216 340.608 166.616 340.62 168.075 340.507ZM157.274 111.886C157.886 112.46 158.293 113.095 158.818 113.479C158.293 113.095 157.681 112.521 157.274 111.886ZM274.426 63.377C274.454 63.6931 274.57 64.1996 274.598 64.5158C274.424 64.1352 274.396 63.819 274.426 63.377C274.834 63.2542 275.097 63.067 275.36 62.8797C274.893 63.1284 274.63 63.3156 274.426 63.377ZM381.454 230.29C381.951 229.6 382.653 228.848 383.267 227.905C382.507 228.783 381.951 229.6 381.454 230.29ZM309.942 43.7225C310.613 44.1706 311.37 44.8091 312.099 45.1313C311.429 44.6832 310.613 44.1706 309.942 43.7225ZM74.9454 338.176C74.5952 338.173 74.1865 338.295 73.6906 338.228C74.0407 338.231 74.5367 338.298 74.9454 338.176ZM298.077 69.5861L298.135 69.4603C298.135 69.4603 298.135 69.4603 298.077 69.5861ZM293.753 149.472C293.375 149.153 292.937 148.96 292.559 148.641C292.937 148.96 293.316 149.279 293.753 149.472ZM280.849 138.303C279.917 137.284 278.985 136.265 277.849 135.307C278.927 136.391 279.917 137.284 280.849 138.303ZM258.91 90.6619C260.598 93.0775 262.344 95.3673 264.032 97.783L258.91 90.6619ZM298.25 70.7249C298.075 70.3443 297.755 69.8992 297.581 69.5186C297.697 70.0251 298.017 70.4701 298.25 70.7249ZM61.0877 321.88C60.9734 320.615 60.1288 319.787 58.7584 319.332C60.2746 319.851 61.1192 320.68 61.0877 321.88ZM307.014 49.2568C307.744 48.8209 308.27 48.4464 309.059 47.8847C308.27 48.4464 307.599 48.7565 307.014 49.2568ZM340.11 60.0976C340.169 59.9718 340.023 59.9073 340.082 59.7815C340.169 59.9718 340.169 59.9718 340.11 60.0976ZM341.04 61.8748C341.332 62.0038 341.769 62.1971 342.207 62.3905C341.915 62.2616 341.478 62.0682 341.04 61.8748ZM384.022 214.581C384.167 214.645 384.372 214.584 384.518 214.648C384.518 214.648 384.167 214.645 384.022 214.581ZM234.58 319.986C233.823 319.348 233.211 318.774 233.561 318.777C234.144 319.035 234.436 319.164 234.873 319.357C235.516 318.731 236.159 318.105 236.861 317.353C236.101 318.23 235.458 318.857 233.707 318.841C233.561 318.777 233.357 318.838 233.211 318.774C233.735 319.158 234.201 319.667 234.58 319.986ZM338.545 54.3976C337.788 53.7592 337.176 53.1852 336.915 52.6143C337.235 53.0594 337.846 53.6333 338.545 54.3976ZM177.627 118.761C177.394 118.507 177.161 118.252 177.015 118.187C177.161 118.252 177.453 118.381 177.627 118.761ZM279.785 68.4784C281.068 68.7423 282.41 68.8804 284.043 69.1474C282.41 68.8804 281.126 68.6165 279.785 68.4784ZM326.454 45.2569C325.025 44.9285 323.363 44.3454 321.701 43.7622C323.217 44.2809 324.879 44.8641 326.454 45.2569ZM387.939 210.698C388.319 210.259 388.816 209.568 389.196 209.129C389.109 208.939 389.109 208.939 388.963 208.874C389.109 208.939 389.051 209.065 389.196 209.129C388.962 209.633 388.378 210.133 387.939 210.698ZM162.98 118.507C161.903 117.423 161.146 116.785 160.534 116.211C161.204 116.659 161.903 117.423 162.98 118.507ZM159.514 115.76C159.368 115.695 159.163 115.757 159.018 115.692C159.222 115.631 159.368 115.695 159.514 115.76ZM161.701 115.968C162.08 116.288 162.517 116.481 162.955 116.674C162.517 116.481 162.139 116.162 161.701 115.968C161.031 115.52 160.361 115.072 159.662 114.308C160.274 114.882 161.031 115.52 161.701 115.968ZM194.059 100.835C194.146 101.026 194.174 101.342 194.261 101.532C194.32 101.406 194.292 101.09 194.059 100.835ZM322.084 41.8069C322.055 41.4908 321.94 40.9843 321.824 40.4778C321.794 40.9198 321.91 41.4263 322.084 41.8069ZM334.63 42.043C334.603 40.9687 334.371 39.9558 334.287 38.2492C334.517 40.0203 334.603 40.9687 334.63 42.043ZM351.86 49.2069C351.86 49.2069 351.773 49.0166 351.627 48.9521C351.773 49.0166 351.773 49.0166 351.86 49.2069ZM351.917 49.8392L351.859 49.9651C351.917 49.8392 351.917 49.8392 351.917 49.8392ZM352.034 49.5875C352.093 49.4617 352.093 49.4617 352.006 49.2714C351.947 49.3972 352.034 49.5875 352.034 49.5875ZM385.84 86.0861C385.986 86.1506 386.219 86.4053 386.306 86.5956C386.219 86.4053 385.927 86.2764 385.84 86.0861ZM398.658 220.142C399.213 220.084 399.563 220.087 399.972 219.964C399.621 219.961 399.213 220.084 398.658 220.142ZM388.696 226.816C388.433 227.003 388.316 227.255 388.112 227.316C388.17 227.19 388.433 227.003 388.696 226.816ZM62.2907 364.601C62.2322 364.727 62.2607 365.043 62.1436 365.295C62.2607 365.043 62.3779 364.791 62.2907 364.601ZM35.6373 341.433C35.6073 341.875 35.4901 342.127 35.5187 342.443C35.6358 342.191 35.6073 341.875 35.6373 341.433ZM34.1527 308.755C35.1744 308.448 36.1962 308.142 37.1594 307.96C36.1376 308.267 35.1159 308.574 34.1527 308.755ZM150.925 121.371C151.739 122.642 152.554 123.912 153.368 125.183C152.7 123.977 151.739 122.642 150.925 121.371L154.36 125.318C155.175 126.589 155.378 127.286 155.202 127.663C155.378 127.286 155.029 126.524 154.36 125.318L150.925 121.371C150.372 120.671 149.906 120.161 149.353 119.462C149.906 120.161 150.459 120.861 150.925 121.371ZM185.643 107.585C185.614 107.269 185.731 107.017 185.703 106.701C185.586 106.953 185.614 107.269 185.643 107.585C185.263 108.024 184.882 108.463 184.415 108.712C184.882 108.463 185.117 107.96 185.643 107.585ZM193.178 103.481C193.617 102.916 194.143 102.542 194.29 101.848C194.289 102.606 193.704 103.107 193.178 103.481ZM211.323 74.3239C211.06 74.5111 210.739 74.8242 210.535 74.8856C210.272 75.0728 209.921 75.0698 209.513 75.1926C209.863 75.1956 210.272 75.0728 210.535 74.8856C210.885 74.8887 211.148 74.7014 211.323 74.3239ZM225.698 63.8352C226.077 64.1544 226.514 64.3478 226.806 64.4767C226.514 64.3478 226.136 64.0286 225.698 63.8352ZM239.329 61.364C239.446 61.1123 239.622 60.7348 239.885 60.5475C239.622 60.7348 239.505 60.9865 239.329 61.364ZM240.937 59.7986C240.674 59.9858 240.265 60.1086 240.002 60.2958C240.411 60.173 240.674 59.9858 240.937 59.7986ZM374.532 63.937C374.358 63.5563 374.038 63.1113 373.513 62.7276C373.833 63.1727 374.212 63.4919 374.532 63.937ZM387.948 82.3137L383.141 78.6703C383.024 78.922 382.994 79.364 382.876 79.6157C383.052 79.2382 383.024 78.922 383.141 78.6703L387.948 82.3137C389.116 82.0712 390.225 81.9545 391.246 81.6476C390.283 81.8287 389.116 82.0712 387.948 82.3137ZM111.602 363.643C111.544 363.768 111.631 363.959 111.514 364.21C111.572 364.085 111.485 363.894 111.602 363.643ZM30.6057 302.027C30.8101 301.966 30.9273 301.714 31.1316 301.653C30.1384 302.276 29.2038 302.773 28.2106 303.396C28.0348 303.774 28.122 303.964 28.1506 304.28C28.9108 303.402 29.7583 302.715 30.6057 302.027ZM108.434 141.28L109.367 141.541C109.454 141.731 109.629 142.112 109.716 142.302C109.716 142.302 109.161 142.361 108.87 142.232C108.724 142.167 108.578 142.103 108.578 142.103C108.607 142.419 108.694 142.609 108.723 142.925C108.723 142.925 108.723 142.925 108.868 142.99C109.862 142.367 111.059 141.682 112.052 141.059C110.739 141.237 109.543 141.164 108.434 141.28ZM190.04 96.6302C189.574 96.1206 189.254 95.6756 188.788 95.166C189.313 95.5497 189.72 96.1851 190.04 96.6302ZM219.804 64.4154C220.154 64.4185 220.504 64.4216 220.767 64.2343C220.562 64.2957 220.154 64.4185 219.804 64.4154ZM292.169 46.031C292.665 46.0986 293.102 46.2919 293.452 46.295C292.956 46.2275 292.519 46.0341 292.169 46.031ZM319.464 38.3722C318.91 38.4305 318.21 38.4244 317.714 38.3569C318.355 38.4889 318.91 38.4305 319.464 38.3722L319.93 38.8817C319.317 39.0659 318.763 39.1242 318.004 39.244C317.391 39.4282 316.836 39.4865 316.223 39.6707C316.691 39.422 317.304 39.2378 318.004 39.244C318.617 39.0598 319.171 39.0015 319.93 38.8817L319.464 38.3722ZM367.081 54.2682C368.101 54.7194 369.063 55.2965 369.675 55.8704C368.859 55.3578 368.043 54.8453 367.081 54.2682ZM374.592 63.0529C373.543 62.2856 373.049 61.4599 372.73 60.2567C372.47 58.9276 371.947 57.7858 370.811 56.8281C371.888 57.9116 372.47 58.9276 372.73 60.2567C372.903 61.3955 373.602 62.1597 374.592 63.0529C374.971 63.3721 375.495 63.7558 375.933 63.9492C375.408 63.5655 374.971 63.3721 374.592 63.0529ZM411.476 122.766C411.273 122.069 411.07 121.372 410.663 120.737C411.07 121.372 411.069 122.131 411.476 122.766C411.855 123.085 412.379 123.469 412.758 123.788C412.234 123.404 411.709 123.021 411.476 122.766ZM410.183 158.768C410.213 158.326 410.184 158.01 410.155 157.694C410.125 158.136 410.154 158.452 410.183 158.768ZM408.955 159.894C409.014 159.769 408.868 159.704 408.926 159.578C408.926 159.578 408.868 159.704 408.955 159.894ZM408.259 157.614C408.433 157.994 408.608 158.375 408.782 158.756C408.462 158.311 408.288 157.93 408.259 157.614ZM377.432 196.643C379.067 196.152 380.848 195.725 382.483 195.234C380.848 195.725 379.213 196.216 377.432 196.643ZM405.399 204.153C407.531 202.972 409.722 201.664 411.65 200.544C409.722 201.664 407.59 202.846 405.399 204.153ZM412.682 225.888C411.66 226.195 410.784 226.567 410.054 227.002C410.93 226.631 411.806 226.26 412.682 225.888ZM405.904 230.631C405.35 229.931 404.652 229.167 403.866 228.212C404.652 229.167 405.205 229.866 405.904 230.631ZM135.999 376.555C137.08 376.123 138.306 375.754 139.328 375.447C138.306 375.754 137.226 376.187 135.999 376.555C135.941 376.681 135.678 376.869 135.619 376.994C135.882 376.807 135.941 376.681 135.999 376.555ZM20.435 311.036C19.1788 311.847 17.7769 312.593 17.3667 313.474C17.9226 312.657 19.3246 311.911 20.435 311.036C20.8437 310.914 21.3696 310.539 21.8369 310.29C21.5153 310.604 20.9023 310.788 20.435 311.036ZM31.7747 301.027C33.4696 299.651 35.1059 298.402 36.8008 297.027C36.4507 297.024 36.2463 297.085 35.9548 296.956C35.1674 296.76 36.2778 295.885 33.6797 296.557C32.7737 297.371 33.8526 297.696 33.7054 298.39C32.2163 298.945 30.6686 299.627 28.7122 300.431C29.8498 300.631 30.8415 300.766 31.7747 301.027ZM41.6862 151.374C41.7405 153.523 41.5905 155.733 41.4404 157.943C41.5905 155.733 41.8863 153.587 41.9778 151.503C41.8034 151.122 42.125 150.809 41.6877 150.616C41.9792 150.745 41.6576 151.058 41.6862 151.374Z" fill="#FEE3B3"/>
<g clip-path="url(#clip0_3053_12830)">
<path d="M127.843 108.269C127.815 108.345 127.747 108.536 127.661 108.777L127.934 108.909C127.992 109.121 128.314 109.346 128.118 109.634C127.942 109.893 128.407 110.166 128.052 110.376C128.112 110.918 127.732 111.31 127.482 111.689C127.255 112.033 127.2 112.462 126.857 112.76C126.557 113.02 126.39 113.432 126.164 113.779L125.53 113.807C125.576 113.954 125.61 114.065 125.664 114.238L125.363 114.58C125.438 114.812 125.508 115.03 125.591 115.286C125.473 115.421 125.356 115.556 125.228 115.702L125.583 115.829L125.09 116.181L125.244 116.362C124.704 116.564 124.223 116.077 123.627 116.313C123.259 116.58 122.986 117.125 122.439 117.326C122.228 117.404 122.408 117.793 122.046 117.747C121.918 117.731 122.013 118.148 121.711 118.067C121.598 118.444 121.264 118.596 120.999 118.834C120.773 119.047 120.573 119.285 120.403 119.544C120.256 119.758 120.098 119.965 119.942 120.173C119.79 120.352 119.649 120.54 119.52 120.737C119.421 120.909 119.429 121.204 119.296 121.281C119.205 121.323 119.126 121.387 119.066 121.468C119.007 121.549 118.968 121.643 118.955 121.743L118.562 121.507C118.225 121.674 117.887 121.831 117.55 121.416V120.554C116.907 120.188 116.232 119.869 115.93 119.042C115.953 118.769 115.821 118.382 116.082 118.063C115.703 117.302 116.033 116.659 116.397 116.023C116.848 115.263 117.419 114.582 118.088 114.007C117.691 113.408 117.276 112.849 116.937 112.247C116.705 111.833 116.447 111.381 116.434 110.908C116.421 110.417 116.268 109.905 116.558 109.408C116.688 109.185 116.564 108.862 116.709 108.568C116.781 108.378 116.873 108.196 116.985 108.027C117.058 107.936 117.055 107.783 117.115 107.541C117.249 107.415 117.586 107.246 117.656 107C117.758 106.643 118.212 106.779 118.206 106.362L118.456 106.553L119.079 106.368L119.31 106.808C119.147 107.104 118.97 107.428 118.766 107.799L119.747 107.701L119.977 107.933C119.869 108.148 119.759 108.365 119.614 108.652L120.315 108.724C120.254 109.014 120.193 109.305 120.134 109.592C120.03 109.685 119.917 109.786 119.801 109.89C119.875 109.964 119.905 110.003 119.912 110C120.018 109.94 120.122 109.875 120.249 109.799L120.352 110.076L119.651 110.433L120.03 110.561C119.836 110.757 119.663 110.931 119.438 111.158L120.252 111.805C120.654 111.882 120.976 111.711 121.292 111.437C122.023 110.802 122.826 110.249 123.545 109.611C124.283 108.958 125.066 108.318 125.591 107.443C125.714 107.239 125.929 107.091 126.114 106.905H126.973L127.185 107.174C127.091 107.443 126.995 107.721 126.869 108.082L127.616 107.875L127.843 108.269Z" fill="#D85D54"/>
<path d="M76.0408 125.561L75.277 125.799L75.448 125.43C75.2607 125.146 75.049 124.892 74.661 124.949C74.6312 124.834 74.6119 124.759 74.5851 124.656H73.9108C73.8434 124.589 73.7852 124.556 73.7698 124.51C73.6664 124.197 73.6445 123.825 73.4571 123.579C73.2159 123.264 73.3361 122.953 73.3249 122.648C73.3156 122.399 73.4152 122.145 73.4762 121.895C73.6968 121.009 74.0274 120.154 74.4603 119.351C74.7247 118.854 75.0202 118.374 75.3451 117.915C75.662 117.467 76.0334 117.059 76.3919 116.62C76.2946 116.557 76.188 116.484 76.0771 116.418C75.0212 115.771 74.0537 114.989 73.1993 114.09C72.7889 113.67 72.7861 113.107 72.6667 112.588C72.6401 112.371 72.6374 112.151 72.6588 111.934C72.8784 111.513 73.3205 111.477 73.7494 111.306L74.2099 112.121L74.3809 111.993C74.4368 112.049 74.5353 112.103 74.5631 112.183C74.7341 112.67 75.1301 112.919 75.551 113.13C76.4077 113.56 77.2727 113.975 78.1928 114.425C78.4079 114.195 78.6232 113.845 78.9357 113.669C79.2237 113.507 79.2383 113.044 79.6874 113.088L79.5124 112.872L79.9839 112.541L80.2304 111.994L80.6841 111.967L80.5 111.728C80.8465 111.677 80.8697 111.317 81.0878 111.123C81.3183 110.918 81.4813 110.636 81.6997 110.354L81.8953 110.499C81.938 110.399 81.9775 110.304 82.0276 110.185L82.2391 110.357C82.3458 109.781 82.6709 109.318 83.0163 108.902C83.3726 108.473 83.6925 107.981 84.2747 107.694L84.5563 107.927C84.3262 108.372 84.1033 108.813 83.6316 109.045V109.702C83.7432 109.675 83.8566 109.679 83.8801 109.635C83.9551 109.486 84.0217 109.332 84.0796 109.175L85.1844 108.26C85.207 108.567 85.2218 108.767 85.2359 108.959L84.9238 109.088C84.9489 109.124 84.9808 109.191 84.9972 109.189C85.1953 109.148 85.3912 109.096 85.6323 109.036C85.7006 109.157 85.7838 109.304 85.8674 109.452L85.7107 109.626C85.7449 109.864 86.029 110.074 85.8092 110.347L85.63 110.184C85.6032 110.234 85.5508 110.288 85.5615 110.322C85.6033 110.429 85.6531 110.532 85.7103 110.632C85.6655 111.048 85.3342 111.326 85.0263 111.607C84.7356 111.873 84.4155 112.107 84.0413 112.41L84.4795 112.664C84.3854 112.845 84.3286 112.955 84.2687 113.07L84.4363 113.255L83.8948 113.343C83.9534 113.493 84.0033 113.621 84.061 113.768H83.5173C83.4166 113.976 83.3285 114.158 83.2447 114.331C83.3225 114.415 83.377 114.474 83.4555 114.559L82.922 114.659C82.975 114.799 83.0229 114.925 83.0796 115.075L82.5939 115.147L82.7756 115.638L82.2214 115.422C82.1334 115.591 82.0436 115.763 81.9562 115.93C81.9872 115.99 81.999 116.055 82.0363 116.075C82.1015 116.111 82.1892 116.104 82.2535 116.14C82.5033 116.28 82.5617 116.606 82.8074 116.745C83.0724 116.896 83.1876 117.154 83.3565 117.384C83.5085 117.591 83.6212 117.766 83.6041 118.028C83.5983 118.118 83.6779 118.213 83.7271 118.325C83.6843 118.399 83.6225 118.504 83.5384 118.648C83.318 118.673 83.1574 118.971 82.7547 118.814C82.0501 118.518 81.3115 118.312 80.5562 118.201C80.5134 118.196 80.4787 118.128 80.4091 118.058C80.1857 118.311 79.9641 118.563 79.6858 118.878C79.6822 118.908 79.6671 119.037 79.6507 119.177L79.1124 119.262L79.5514 119.882L79.0661 119.739L78.8894 119.949C78.9838 120.212 78.9076 120.373 78.6017 120.548L78.3487 121.463L78.0335 121.58L78.2122 121.759C77.9684 121.947 77.6884 122.099 77.4997 122.328C77.3287 122.533 77.2574 122.822 77.1248 123.114C77.1379 123.133 77.1915 123.214 77.2764 123.342L76.7499 123.887L76.9494 124.137C76.8294 124.275 76.7112 124.411 76.5801 124.562V125.04L76.0408 125.561Z" fill="#D85D54"/>
<path d="M96.1158 128.833C96.4931 129.291 96.4934 129.293 96.9507 129.038C96.9535 129.17 96.9669 129.301 96.9909 129.431C97.0255 129.513 97.0722 129.589 97.1294 129.657L96.9836 129.803L97.3849 129.992C97.1996 130.258 97.0242 130.508 96.8494 130.759C97.0746 131.167 96.5981 131.239 96.5296 131.458C96.4237 131.795 96.0166 131.867 96.0046 132.228C95.9904 132.648 95.5629 132.7 95.3763 132.944C95.2146 133.157 94.9273 133.296 94.8903 133.568L95.0889 133.91L94.4261 134.288L93.9167 134.53L93.4006 135.143V135.303L91.8282 136.467L92.25 136.684C92.0254 136.999 91.7984 137.319 91.5542 137.663L93.3798 138.289L93.1998 138.652L94.0138 138.944V139.301L94.5206 139.77C94.5306 139.963 94.5401 140.147 94.5491 140.323L94.8451 140.621L94.0941 141.249C93.9171 141.447 93.7329 141.411 93.5348 141.278C93.4696 141.237 93.3941 141.216 93.3172 141.217C92.474 141.235 91.7122 140.913 90.9456 140.631C90.38 140.423 89.8354 140.158 89.2487 139.903C89.0888 140.063 88.8391 140.185 88.8069 140.516L87.7952 140.757C87.6273 140.586 87.4937 140.45 87.3596 140.314L87.541 140.113L87.321 139.653L86.6273 139.761C86.507 139.521 86.3983 139.305 86.2873 139.084L86.181 139.191C86.0003 139.006 85.8181 138.821 85.5669 138.564C85.645 137.995 85.2819 137.34 85.38 136.633C85.3787 136.544 85.3593 136.456 85.3231 136.374C85.2868 136.292 85.2343 136.219 85.1689 136.158C84.6873 135.704 84.6667 135.047 84.4402 134.488C84.3363 134.253 84.2733 134.002 84.2539 133.746C84.2415 133.335 84.1939 132.914 84.2638 132.517C84.3739 131.887 84.4918 131.216 85.2212 130.969C85.4919 130.9 85.7673 130.853 86.0451 130.825V132.106L86.7822 131.628C86.8205 131.741 86.8664 131.876 86.9123 132.011L87.035 131.917V132.673L87.3725 132.501C87.7188 132.806 87.71 133.196 87.6622 133.597L88.0235 133.726C87.9589 133.902 87.8952 134.077 87.8169 134.288C87.911 134.27 87.9584 134.275 87.9849 134.254C88.0484 134.204 88.0919 134.113 88.1614 134.087C88.8585 133.82 89.2094 133.075 89.9092 132.816C90.05 132.306 90.5841 132.197 90.8964 131.854C91.221 131.497 91.6793 131.264 92.0709 130.967C92.4502 130.678 92.664 130.193 93.1588 130.04C93.4795 129.458 93.9559 128.979 94.5337 128.657C94.5136 128.254 95.0647 128.204 95.0519 127.778H95.788L95.9945 127.986C95.6421 128.162 95.5134 128.505 95.2883 128.866C95.7758 128.968 96.0563 128.371 96.5159 128.646L96.1158 128.833Z" fill="#D85D54"/>
<path d="M94.2218 120.155C94.1836 119.771 94.7205 119.729 94.4665 119.371L94.2859 119.532C94.2665 119.513 94.2335 119.496 94.2302 119.474C94.1696 119.072 94.194 118.69 94.4779 118.362C94.7899 118.002 95.0993 117.639 95.3987 117.268C95.4915 117.132 95.5737 116.989 95.6446 116.84C95.4969 116.453 95.2942 116.051 95.1183 115.651C94.9293 115.223 94.933 114.758 94.7282 114.334C94.6191 114.108 94.9038 113.713 94.837 113.437C94.7621 113.128 94.5805 112.866 94.8455 112.575C94.8509 111.762 95.4013 111.255 95.8818 110.69H97.2414L97.5274 110.962L96.8845 111.786C96.9102 111.841 96.9712 111.973 97.0533 112.147C97.1299 112.147 97.2764 112.192 97.329 112.14C97.556 111.915 97.8185 112.006 98.0579 111.979L98.3017 112.511L97.86 113.066L98.601 113.161V113.948C99.1523 113.966 99.2127 113.294 99.6768 113.297C99.8879 112.974 100.195 112.749 100.472 112.492C100.792 112.196 101.095 111.881 101.396 111.565C101.674 111.275 101.955 110.985 102.204 110.67C102.46 110.346 102.68 109.993 102.828 109.779L103.592 109.504C103.691 109.609 103.771 109.73 103.828 109.863C103.853 109.967 103.771 110.105 103.715 110.217C103.623 110.356 103.571 110.518 103.566 110.685L104.304 110.372L104.821 111.383C104.813 111.487 104.814 111.591 104.825 111.694C104.852 111.83 104.889 111.963 104.937 112.093L104.79 112.351L104.976 112.552C104.503 113.314 104.077 114.103 103.559 114.84C103.123 115.459 103.184 115.502 102.865 115.677L103.009 115.838L101.073 118.021V118.294L102.595 119.268L102.403 119.646C102.599 119.815 102.73 120.14 103.109 120.02L103.326 120.454C103.278 120.521 103.219 120.604 103.138 120.717L103.725 121.309L103.513 121.857L103.687 122.157C103.658 122.219 103.649 122.283 103.613 122.307C103.533 122.36 103.415 122.37 103.357 122.437C103.006 122.836 102.943 122.858 102.502 122.706C101.93 122.509 101.315 122.394 100.793 122.107C100.093 121.723 99.4641 121.208 98.7407 120.705C98.3916 120.972 98.0664 121.269 97.7688 121.593C97.4091 121.971 96.9539 122.242 96.4522 122.379L96.6872 121.987L95.7116 122.17C95.6944 122.135 95.6771 122.1 95.6596 122.064L96.2104 121.632L95.9265 121.347H95.3689C95.2948 121.159 95.2122 120.949 95.1145 120.702H94.4382L94.2218 120.155Z" fill="#D85D54"/>
<path d="M97.7609 104.044L96.8854 104.255C96.5276 103.989 96.1002 103.658 95.6586 103.347C95.1321 102.976 94.6747 102.505 94.0737 102.243C93.9347 102.183 93.7887 102.139 93.5949 102.07C93.3608 101.716 93.3336 101.061 92.6459 101.133C92.3349 100.847 92.297 100.35 91.8423 100.301C91.6936 100.046 91.6001 99.7547 91.4041 99.5726C90.5119 98.7402 89.8663 97.7402 89.3108 96.5339C89.2628 96.1612 89.2625 95.6649 89.1826 95.1671C89.0567 94.3828 89.4721 93.7094 90.1474 93.2751C90.3337 93.1553 90.4301 92.8917 90.7398 92.9198C90.9554 92.9392 91.183 92.824 91.4688 92.7532L91.8074 93.0558C91.5771 93.4444 91.1421 93.6899 91.1092 94.212C91.6214 94.384 91.8502 93.8116 92.3662 93.7455L92.6456 93.9966C92.4629 94.2721 92.3399 94.4574 92.1134 94.7993C92.4656 94.6872 92.7161 94.6855 92.8086 94.5629C93.0425 94.2529 93.4202 94.1286 93.6398 93.7836C93.8443 93.4623 94.1796 93.2228 94.5223 92.9989C95.0068 92.6824 95.3997 92.2276 95.854 91.8597C96.5217 91.3189 97.1476 90.7263 97.8917 90.2771C98.1859 90.0995 98.4036 89.7908 98.6477 89.5335C98.87 89.2992 99.2228 89.1967 99.2925 88.8477H100.39V89.5599L100.127 89.8243C100.272 89.7982 100.418 89.7775 100.56 89.7451C100.705 89.712 100.847 89.6672 101.067 89.6068C101.034 90.1371 101.059 90.6065 101.44 90.9484L101.221 91.2448L101.723 91.5213L101.257 91.6494C101.31 91.7478 101.354 91.8513 101.386 91.9583C101.399 92.0663 101.401 92.1753 101.391 92.2836C101.089 92.7015 100.786 93.1193 100.453 93.5782L100.075 93.6199L100.214 93.8136C100.165 93.9311 100.11 94.0613 100.05 94.2066C99.3314 94.1718 99.3264 94.916 98.8822 95.2059L99.0441 95.4209L98.1495 96.3206C98.1736 96.343 98.1353 96.3074 98.1517 96.3226L97.7411 96.7357L97.607 96.6305V97.0627L97.3334 96.8362C97.3605 97.0207 97.3786 97.1432 97.4047 97.3154L96.6902 98.247L96.417 98.0449C96.123 98.3905 95.8218 98.745 95.5175 99.1027L95.9 99.2938L95.5091 99.7923C95.5284 99.8588 95.5282 99.9203 95.5587 99.9546C96.0558 100.515 96.6454 101.017 97.0332 101.644C97.4691 102.351 98.0149 103.081 97.7609 104.044Z" fill="#D85D54"/>
<path d="M109.088 92.1736L109.216 92.0446C109.19 92.0042 109.16 91.9662 109.127 91.9309C108.916 91.7365 108.649 91.5701 108.477 91.3798C108.309 91.1934 108.121 91.0521 107.951 90.8816C107.725 90.6549 107.473 90.3303 107.461 90.0385C107.44 89.5166 107.409 88.993 107.532 88.4459C107.746 87.5016 108.236 86.7865 108.888 86.1339C109.714 85.3059 110.538 84.475 111.406 83.6022C111.077 83.3173 111.06 82.7791 110.538 82.6741C110.32 82.2459 110.101 81.8175 109.882 81.389C109.68 80.9937 109.716 80.5671 109.719 80.1446C109.72 79.8436 109.719 79.5426 109.719 79.2416L110.539 78.1885H111.899L111.312 79.1972C111.815 79.5642 112 78.7687 112.441 79.0108C112.717 79.3907 112.204 79.5691 112.042 79.9368L112.761 79.7629C112.822 79.9448 112.841 80.1383 112.816 80.3286C112.791 80.519 112.724 80.7012 112.618 80.8611L112.95 80.9901C113.044 81.0917 112.848 81.1065 112.815 81.2566L113.303 82.0078C114.65 80.5862 116.367 79.6332 117.417 78.0088H118.236C118.173 78.28 118.118 78.5165 118.043 78.8401L118.685 78.6124V79.2495L118.964 79.3227C118.99 79.366 119.01 79.4128 119.022 79.4616C119.032 79.5425 119.012 79.6279 119.027 79.707C119.193 80.5597 118.771 81.2361 118.329 81.8751C117.85 82.5664 117.294 83.2035 116.732 83.9144C117.133 84.3989 117.774 84.6344 118.339 85.0866L118.386 85.4319C118.536 85.6201 118.778 85.8021 118.846 86.0356C118.997 86.548 119.368 87.0246 119.116 87.6857C119.054 87.7143 118.918 87.7814 118.779 87.8409C118.64 87.9004 118.498 87.9515 118.341 88.0129C118.125 87.792 117.636 87.8622 117.702 87.4322L116.34 87.0359L116.055 86.5374H115.153C115.13 86.4397 115.113 86.3654 115.091 86.2737C114.758 86.0157 114.478 86.3197 114.283 86.3721L113.588 87.1827L113.381 87.025L113.054 87.4891L113.14 87.5994C112.761 87.6948 112.729 88.0772 112.562 88.392L112.214 88.1759C112.191 88.3175 112.169 88.4558 112.143 88.6202L111.882 88.6911C111.847 89.024 111.8 89.429 111.309 89.3186C111.145 89.5336 110.869 89.7329 110.888 89.8989C110.945 90.3984 110.528 90.6373 110.415 91.0276C110.361 91.5211 110.369 91.5208 110.521 91.8505C110.163 92.1347 109.748 92.3376 109.304 92.4453C109.244 92.3709 109.177 92.2858 109.088 92.1736Z" fill="#D85D54"/>
<path d="M61.3492 82.8969L60.8694 82.9568L61.1023 83.2162C60.8998 83.5954 60.5158 83.8225 60.2553 84.1542C60.2936 84.1928 60.3321 84.2313 60.3828 84.2832L59.791 84.75C59.6934 85.008 59.9016 85.3006 59.5584 85.4604C59.8627 85.6658 60.1406 85.8487 60.4134 86.0385C61.2704 86.6339 62.1871 87.1449 62.8929 87.9467C63.2976 88.4053 63.6787 88.8497 63.686 89.509C63.6872 89.6199 63.8 89.7297 63.889 89.8927L63.1226 90.38C61.4936 89.4197 59.8094 88.5641 58.2645 87.3104C58.1538 87.3738 57.9117 87.4274 57.8671 87.5524C57.6904 88.0474 57.3436 88.3947 56.9909 88.749C56.9481 88.792 56.9639 88.8951 56.9524 88.9711L56.4766 89.0232C56.5142 89.1531 56.5461 89.2635 56.6021 89.4564C56.2638 89.7584 56.0285 90.1598 55.9297 90.6038C55.8584 90.8876 55.5877 91.1198 55.3454 91.4638V93.248L54.9164 93.2752C54.885 93.3641 54.8515 93.4591 54.8113 93.5734H54.2493L53.9669 92.7506L53.4681 92.9709C53.4295 92.8515 53.3993 92.7584 53.3692 92.6652C53.3228 92.6457 53.2721 92.603 53.2307 92.6109C53.094 92.6311 52.9547 92.5998 52.8394 92.5231C52.7242 92.4464 52.6411 92.3297 52.6062 92.1952C52.433 91.4342 51.9432 90.6816 52.4133 89.8645C52.422 89.0551 52.9216 88.4376 53.2048 87.734C53.2971 87.5046 53.6947 87.5445 53.587 87.1476C53.5427 86.9843 53.8373 86.7258 53.9821 86.5136C54.1069 86.3169 54.2426 86.1274 54.3884 85.946C54.5658 85.7399 54.7817 85.567 54.9577 85.3598C55.102 85.1716 55.2364 84.976 55.3604 84.7737C54.3686 84.0242 53.7617 82.9597 53.0661 81.9669C52.8434 81.0066 52.4582 80.0739 52.6086 78.9495L53.4473 77.98C53.797 78.0525 54.19 77.8344 54.5094 78.2007C54.3002 78.4844 54.0924 78.7659 53.8824 79.0502L54.0467 79.2263C54.4899 79.3186 54.652 78.6698 55.1154 78.8202L55.3243 79.2287L54.8478 79.5363L55.106 79.796C55.3372 79.5555 55.562 79.5523 55.8328 79.882C55.808 80.0653 55.9495 80.3301 55.6767 80.5436L56.0589 80.7281L55.695 81.2202L56.0975 81.3635L55.6786 81.4772C55.6946 81.6105 55.6625 81.7925 55.738 81.8951C56.0505 82.3178 56.3955 82.7161 56.7649 83.1679C56.9685 82.9842 57.1247 82.8477 57.2759 82.706C58.1693 81.8682 58.9165 80.8637 60.0243 80.2707C60.0183 79.9621 60.3395 79.9841 60.4778 79.8187C60.6346 79.6323 60.8082 79.4593 60.9203 79.3388H61.4691C61.2203 79.7069 60.7965 79.9151 60.9347 80.4455L62.0585 79.7718C62.0208 80.0155 61.9918 80.2018 61.9587 80.4149L62.5621 80.7221L62.3911 81.0783L62.6282 81.1279C62.6362 81.1597 62.6672 81.2139 62.6523 81.2345C62.4538 81.5041 62.1874 81.7426 62.061 82.0415C61.9024 82.4157 61.5524 82.5847 61.3492 82.8969Z" fill="#D85D54"/>
<path d="M76.2494 91.2782C76.8999 90.4755 77.449 89.8083 77.9868 89.1319C78.4882 88.4891 78.9367 87.8063 79.3278 87.0902L79.1442 86.8626L79.5644 86.3823H80.1022C80.3034 86.5847 80.4654 86.8734 80.6954 86.9469C80.9766 87.0368 81.0163 87.2622 81.1298 87.4317C81.5231 88.0166 81.7965 88.6104 81.4943 89.3728C81.3085 89.8411 81.1193 90.3093 80.9268 90.7775C80.8687 90.9181 80.8262 91.0652 80.7526 91.2792L80.3393 91.694V92.21L79.4544 93.824C79.8605 94.1018 80.2349 94.3687 80.6203 94.6191C81.3841 95.1143 82.0158 95.7294 82.3932 96.5745C82.4735 96.793 82.5413 97.0161 82.5961 97.2425C82.5676 97.3072 82.4963 97.4664 82.4178 97.6409L81.9259 97.8712C81.542 97.7381 81.2027 97.6381 80.8782 97.5026C80.5538 97.367 80.2435 97.1955 79.9272 97.0397C79.8733 96.5641 79.3345 96.7564 79.113 96.433C78.931 96.1677 78.5261 96.0569 78.1712 95.8489C77.1181 96.9439 76.1611 98.1285 75.3109 99.3893C75.2449 99.4856 75.266 99.6424 75.2469 99.7711C74.8722 100.061 74.5014 100.017 74.1299 99.7532V99.4922L72.6986 98.6297C72.4615 98.3504 72.5819 97.9115 72.4278 97.5718C72.256 97.1935 72.4013 96.8273 72.3359 96.5494C72.8759 95.3387 73.515 94.2784 74.43 93.3632V92.8042C73.9012 92.4336 73.5726 91.8558 73.2397 91.2892C73.1281 91.0991 73.1107 90.8513 73.0596 90.6277C72.9555 90.1731 72.8001 89.7333 72.814 89.2504C72.8405 88.3268 73.3621 87.6676 74.239 87.3362C74.7921 87.1272 75.3291 87.2324 75.9235 87.1735C75.6035 87.8402 74.837 87.7831 74.3889 88.3414C75.1617 88.3071 75.6325 87.5749 76.4207 87.7149C76.3902 87.9012 76.3594 88.0883 76.3271 88.2851L76.8882 88.4849V89.5275C76.6781 89.8961 76.4465 90.2642 76.2588 90.6531C76.1983 90.7789 76.2494 90.9588 76.2494 91.2782Z" fill="#D85D54"/>
<path d="M90.0454 81.0574L89.1523 82.184V83.2372L88.2704 83.594C87.8978 83.2296 87.7464 82.7461 87.627 82.2896L87.1161 82.4803C86.9514 82.2422 86.7512 82.0319 86.6432 81.7814C86.3198 81.0309 86.3455 80.2293 86.3811 79.4751L86.7882 78.5403C86.5625 78.5063 86.3627 78.538 86.2797 78.4536C85.7524 77.9175 85.2319 77.3719 84.7485 76.7958C84.4879 76.4853 84.2133 76.134 84.1097 75.7555C83.958 75.2015 83.9543 74.6065 83.8828 73.988C84.1313 73.6366 84.3333 73.2251 84.6489 72.9417C84.9389 72.6811 85.3511 72.5581 85.7984 72.3291L86.1067 72.6639L85.2497 73.4943L85.45 73.6958C85.8151 73.428 86.1782 73.0777 86.7717 73.3088L86.308 73.9469L86.9434 73.6981L87.2784 74.2068L86.6633 74.8263L86.9984 74.8958C86.8132 75.2094 86.9179 75.6434 86.4411 75.8036C86.9142 76.3892 87.441 76.7118 87.9757 77.0691L93.3194 72.6115H94.107C93.9692 72.8898 93.8595 73.1118 93.7485 73.3362C93.9849 73.5178 94.172 73.3141 94.3816 73.2224C94.9867 73.7907 95.1295 74.4997 95.0048 75.2911L94.2314 76.2891L94.3955 76.4418L93.9704 76.4965L94.1345 76.6743H93.8309C93.2716 77.7329 92.3259 78.4533 91.6337 79.4182C92.5823 79.9497 93.6442 80.3454 94.6483 80.9472C94.6785 81.0991 94.7128 81.2712 94.7534 81.4746L95.0582 81.1501C95.4625 81.205 95.4542 81.6721 95.793 81.8431C96.0902 81.9932 96.2632 82.3911 96.4945 82.6832V83.6579L96.2313 83.9226C95.3905 83.8323 94.6959 83.3504 93.9306 82.9609L93.8333 83.0494C93.2979 82.9163 92.9783 82.3385 92.3607 82.4246C92.0729 82.052 91.5993 82.0233 91.2297 81.8039C90.8565 81.5823 90.4947 81.3419 90.0454 81.0574Z" fill="#D85D54"/>
<path d="M113.818 94.1752L114.313 94.4567L114.169 95.3253C114.306 95.5644 114.421 95.9281 114.836 96.0752C115.021 95.8145 115.135 95.5162 115.493 95.3703C115.744 95.2679 115.892 94.9079 116.085 94.6619C116.296 94.3915 116.59 94.2067 116.757 93.8769C116.897 93.5997 117.199 93.4098 117.388 93.1516C117.573 92.8751 117.744 92.5893 117.901 92.2953H118.821C118.87 92.5549 118.949 92.8113 118.646 93.0794L119.296 93.1092C119.379 93.4923 119.454 93.8388 119.528 94.178L119.191 94.3102C119.195 94.3848 119.208 94.4587 119.228 94.5306C119.456 95.0958 119.418 95.2896 118.981 95.7259C118.895 95.8057 118.832 95.9077 118.799 96.0208C118.767 96.1339 118.766 96.2538 118.796 96.3674C118.913 96.6451 118.562 96.5383 118.728 96.7946L118.402 96.5245V96.9818L117.904 97.0777V97.5266L117.424 98.0283L118.19 98.7822V99.4005L118.739 99.9532L118.577 100.24C118.662 100.414 118.768 100.629 118.903 100.907L118.407 101.949H117.726L115.399 100.609L115.063 101.13L114.626 100.915V101.68L113.879 101.4L114.12 101.731L113.562 102.259L113.446 101.552L113.771 101.438C113.783 101.377 113.797 101.302 113.814 101.211L113.52 101.109C113.556 100.964 113.591 100.818 113.652 100.569L113.407 100.795L112.385 100.602L112.181 100.208C112.242 99.9676 112.312 99.6948 112.383 99.4166L112.948 99.5109L112.973 99.4204L112.364 99.1124L112.695 98.4244C112.158 97.5071 111.573 96.6412 111.241 95.6446C111.043 94.958 111.278 94.2797 111.376 93.6043C111.452 93.0788 111.884 92.7074 112.357 92.4414C112.424 92.4036 112.488 92.3598 112.596 92.2925H113.408L113.732 92.6191L113.314 93.0398V93.5448L113.864 93.4015L114.194 93.7119C114.057 93.8819 113.943 94.0219 113.818 94.1752Z" fill="#D85D54"/>
<path d="M64.725 102.608L65.0031 102.888L63.5082 104.173L63.5421 104.259C63.6512 104.246 63.757 104.213 63.8539 104.16C63.9972 104.039 64.1104 103.883 64.3077 103.844L65.3441 103.255C65.6398 103.495 65.4242 103.685 65.297 103.977L65.7508 103.804L65.9646 104.018C65.9646 104.346 65.9646 104.674 65.9646 105.006L65.6699 105.296C65.6849 105.334 65.6888 105.386 65.7163 105.407C65.9016 105.547 66.0868 105.688 66.2832 105.813C66.4935 105.947 66.7881 105.985 66.7962 106.327C66.7971 106.367 66.8635 106.411 66.9072 106.442C67.0857 106.544 67.2536 106.663 67.4085 106.798C67.5451 106.981 67.663 107.178 67.7605 107.384C67.7605 107.523 67.7605 107.742 67.7605 107.96L67.3786 108.344L64.3149 107.244L63.6024 107.626L63.5719 107.576C63.3602 107.789 63.1486 108.001 62.8785 108.273C62.8745 108.338 62.8666 108.465 62.8567 108.627L61.6169 109.826C61.4352 110.393 61.5277 110.976 60.7762 111.095C60.6208 110.845 60.0629 110.805 60.1899 110.223L59.6391 110.062C59.5921 110.093 59.5082 110.15 59.4425 110.194C59.2326 109.971 59.0489 109.775 58.7823 109.492C58.7227 108.98 58.6465 108.324 58.5664 107.635C59.2443 106.897 59.9122 106.171 60.6211 105.4C60.3422 105.243 60.0724 105.07 59.8131 104.882C59.5662 104.662 59.3312 104.43 59.1093 104.185L59.3134 103.521L58.9677 103.401V102.846L59.1378 102.675L59.9192 102.519L62.4651 103.955C63.3253 103.626 63.8831 102.867 64.725 102.608Z" fill="#D85D54"/>
</g>
<g clip-path="url(#clip1_3053_12830)">
<path d="M367.385 368.154C370.506 367.055 373.554 365.346 376.563 363.555C383.21 359.618 389.128 354.552 394.059 348.581C397.531 344.378 400.323 339.833 401.442 334.356C401.8 332.601 401.275 331.306 400.155 330.112C399.527 329.443 398.225 329.521 398.151 330.263C397.963 332.146 396.629 333.341 395.737 334.784C393.034 339.162 390.202 343.446 386.663 347.212C382.365 351.786 377.463 355.587 372.191 358.931C369.716 360.501 367.273 362.125 364.679 363.499C364.338 363.679 364.252 364.258 363.699 364.162C363.64 364.152 363.55 364.291 363.484 364.368C363.271 364.614 363.546 367.366 363.802 367.584C365.003 368.602 365.537 368.701 367.385 368.154ZM371.14 364.888C381.576 359.008 390.597 351.536 397.196 341.338C390.979 351.967 381.89 359.362 371.139 364.888L371.14 364.888Z" fill="#557CC6"/>
<path d="M384.777 328.691C383.417 328.595 383.077 329.488 382.639 330.42C382.224 331.301 381.306 331.827 380.785 332.698C380.143 333.773 379.432 334.905 378.591 335.738C377.947 336.376 377.804 337.355 376.883 337.809C376.144 338.174 375.48 338.863 375.283 339.809C375.201 340.204 374.819 340.298 374.543 340.51C373.838 341.055 373.036 341.529 372.829 342.523C372.798 342.676 372.653 342.896 372.527 342.922C371.312 343.17 371.036 344.424 370.211 345.088C369.829 345.395 369.797 345.876 369.902 346.364C369.993 346.787 369.958 347.561 370.102 347.593C370.892 347.765 371.618 348.143 372.549 347.62C375.824 345.781 378.367 343.158 380.744 340.325C383.145 337.463 385.097 334.302 386.764 330.961C387.409 329.669 387.915 328.31 388.161 326.869C388.336 325.841 387.825 325.059 387.247 324.305C387.026 324.017 386.716 323.967 386.387 324.072C386.08 324.17 385.994 324.43 385.915 324.72C385.633 325.755 385.609 326.92 384.45 327.511C384.211 327.633 383.983 327.987 384.062 328.324C384.136 328.648 384.52 328.236 384.777 328.691ZM381.017 338.09C378.841 341.043 376.461 343.811 373.402 345.898C376.212 343.567 378.629 340.851 381.017 338.09L381.017 338.09ZM383.573 334.175L383.808 334.34L382.27 336.608L382.071 336.469L383.573 334.175Z" fill="#557CC6"/>
<path d="M372.991 322.582C372.295 322.106 372.155 322.436 371.756 322.993C371.139 323.856 370.394 324.693 370.068 325.662C369.649 326.902 368.42 327.451 368.002 328.637C367.645 329.649 368.041 330.9 368.829 331.439C369.511 331.905 369.907 331.453 370.331 331.147C372.564 329.531 374.065 327.3 375.329 324.896C376.242 323.159 376.862 321.291 377.525 319.444C377.74 318.845 377.476 318.764 376.977 318.832C376.755 318.862 376.508 319.036 376.238 318.738C376.536 318.444 376.822 318.159 377.111 317.878C377.18 317.81 377.265 317.695 377.335 317.701C378.117 317.763 378.234 317.621 378.159 316.591C377.828 316.746 377.835 317.204 377.467 317.288C377.036 317.065 377.962 316.696 377.405 316.469C376.933 316.277 376.36 316.557 376.28 316.787C375.978 317.65 375.088 317.954 374.684 318.705C374.56 318.934 373.89 318.751 374.065 319.4C374.162 319.758 373.53 320.22 374.214 320.518C373.75 320.503 373.756 321.025 373.558 321.151C373.007 321.5 373.049 322.008 372.991 322.582ZM373.731 325.681C372.569 327.639 371.294 329.506 369.348 330.786C370.979 329.23 372.325 327.432 373.731 325.681L373.731 325.681ZM375.406 322.695C375.58 321.909 375.378 321.365 375.728 320.92C375.869 320.74 375.987 320.364 376.312 320.576C376.575 320.747 376.567 321.076 376.403 321.33C376.162 321.705 375.88 322.053 375.406 322.695Z" fill="#557CC6"/>
<path d="M377.758 316.036C377.499 315.52 376.915 315.211 377.634 314.796C377.949 314.614 377.678 314.369 377.416 314.294C377.01 314.179 376.53 314.017 376.23 314.383C375.879 314.811 375.447 315.346 375.447 315.836C375.447 316.222 376.133 316.262 376.576 316.099C376.922 315.971 377.225 315.667 377.758 316.036Z" fill="#557CC6"/>
</g>
<path d="M416.203 384.808C416.203 384.905 324.446 385.099 211.253 385.099C97.9598 385.099 6.20312 385.002 6.20312 384.808C6.20312 384.711 97.9598 384.517 211.253 384.517C324.446 384.614 416.203 384.711 416.203 384.808Z" fill="#4A4743" fill-opacity="0.8"/>
<path d="M379.085 149.886H181.348V191.954H379.085V149.886Z" fill="#FFF9F3"/>
<path d="M207.994 178.838H196.274C195.072 178.838 194.07 177.867 194.07 176.701V165.237C194.07 164.071 195.072 163.099 196.274 163.099H207.994C209.196 163.099 210.198 164.071 210.198 165.237V176.604C210.298 177.867 209.296 178.838 207.994 178.838Z" fill="#FF9123"/>
<path d="M207.994 178.838H196.274C195.072 178.838 194.07 177.867 194.07 176.701V165.237C194.07 164.071 195.072 163.099 196.274 163.099H207.994C209.196 163.099 210.198 164.071 210.198 165.237V176.604C210.298 177.867 209.296 178.838 207.994 178.838Z" fill="url(#paint0_linear_3053_12830)" fill-opacity="0.5"/>
<path d="M200.883 174.466C200.683 174.466 200.483 174.369 200.282 174.272L196.977 171.843C196.576 171.552 196.476 170.872 196.776 170.483C197.077 170.095 197.778 169.997 198.179 170.289L200.783 172.135L205.892 166.694C206.293 166.305 206.894 166.305 207.294 166.597C207.695 166.986 207.695 167.568 207.394 167.957L201.685 173.981C201.484 174.369 201.184 174.466 200.883 174.466Z" fill="#FFF9F3"/>
<path d="M379.085 191.936H181.348V234.004H379.085V191.936Z" fill="#FFF9F3"/>
<path d="M207.994 220.888H196.274C195.072 220.888 194.07 219.916 194.07 218.75V207.286C194.07 206.12 195.072 205.148 196.274 205.148H207.994C209.196 205.148 210.198 206.12 210.198 207.286V218.653C210.298 219.916 209.296 220.888 207.994 220.888Z" fill="#FF9123"/>
<path d="M207.994 220.888H196.274C195.072 220.888 194.07 219.916 194.07 218.75V207.286C194.07 206.12 195.072 205.148 196.274 205.148H207.994C209.196 205.148 210.198 206.12 210.198 207.286V218.653C210.298 219.916 209.296 220.888 207.994 220.888Z" fill="url(#paint1_linear_3053_12830)" fill-opacity="0.5"/>
<path d="M200.883 216.516C200.683 216.516 200.483 216.419 200.282 216.321L196.977 213.893C196.576 213.601 196.476 212.921 196.776 212.532C197.077 212.144 197.778 212.047 198.179 212.338L200.783 214.184L205.892 208.743C206.293 208.355 206.894 208.355 207.294 208.646C207.695 209.035 207.695 209.618 207.394 210.006L201.685 216.03C201.484 216.419 201.184 216.516 200.883 216.516Z" fill="#FFF9F3"/>
<path d="M376.938 149.886C376.938 149.983 333.263 150.178 279.371 150.178C225.479 150.178 181.805 150.081 181.805 149.886C181.805 149.692 225.479 149.595 279.371 149.595C333.263 149.595 376.938 149.692 376.938 149.886Z" fill="#4A4743" fill-opacity="0.8"/>
<path d="M378.238 233.926H180.5V274.148H378.238V233.926Z" fill="#FFF9F3"/>
<path d="M207.146 262.781H195.426C194.224 262.781 193.223 261.809 193.223 260.643V249.276C193.223 248.11 194.224 247.139 195.426 247.139H207.146C208.348 247.139 209.35 248.11 209.35 249.276V260.643C209.45 261.809 208.449 262.781 207.146 262.781Z" fill="#FF9123"/>
<path d="M207.146 262.781H195.426C194.224 262.781 193.223 261.809 193.223 260.643V249.276C193.223 248.11 194.224 247.139 195.426 247.139H207.146C208.348 247.139 209.35 248.11 209.35 249.276V260.643C209.45 261.809 208.449 262.781 207.146 262.781Z" fill="url(#paint2_linear_3053_12830)" fill-opacity="0.5"/>
<path d="M200.036 258.409C199.835 258.409 199.635 258.312 199.435 258.215L196.129 255.786C195.728 255.494 195.628 254.814 195.929 254.426C196.229 254.037 196.93 253.94 197.331 254.231L199.935 256.077L205.044 250.636C205.445 250.248 206.046 250.248 206.447 250.539C206.847 250.928 206.847 251.511 206.547 251.899L200.837 257.923C200.637 258.312 200.336 258.409 200.036 258.409Z" fill="#FFF9F3"/>
<path d="M376.938 107.624C376.938 107.721 333.263 107.915 279.371 107.915C225.479 107.915 181.805 107.818 181.805 107.624C181.805 107.527 225.479 107.333 279.371 107.333C333.263 107.43 376.938 107.527 376.938 107.624Z" fill="#4A4743" fill-opacity="0.8"/>
<path d="M376.938 191.177C376.938 191.274 333.263 191.469 279.371 191.469C225.479 191.469 181.805 191.372 181.805 191.177C181.805 191.08 225.479 190.886 279.371 190.886C333.263 190.886 376.938 191.08 376.938 191.177Z" fill="#4A4743" fill-opacity="0.8"/>
<path d="M376.938 233.926C376.938 234.023 333.263 234.217 279.371 234.217C225.479 234.217 181.805 234.12 181.805 233.926C181.805 233.731 225.479 233.634 279.371 233.634C333.263 233.731 376.938 233.829 376.938 233.926Z" fill="#4A4743" fill-opacity="0.8"/>
<path d="M180.203 270.391C180.203 270.391 180.203 270.218 180.203 269.873C180.203 269.528 180.203 269.01 180.203 268.32C180.203 266.939 180.203 264.954 180.203 262.365C180.203 257.188 180.203 249.766 180.203 240.533C180.203 222.066 180.578 196.609 180.953 168.391C181.328 140.259 181.578 114.715 181.828 96.2485C181.953 87.015 181.953 79.5937 182.078 74.416C182.078 71.8272 182.078 69.8424 182.203 68.4617C182.203 67.7713 182.203 67.2536 182.203 66.9084C182.203 66.5632 182.203 66.3906 182.203 66.3906C182.203 66.3906 182.203 66.5632 182.203 66.9084C182.203 67.2536 182.203 67.7713 182.203 68.4617C182.203 69.8424 182.203 71.8272 182.203 74.416C182.203 79.5937 182.203 87.015 182.203 96.2485C182.203 114.715 181.828 140.172 181.453 168.391C181.078 196.523 180.828 222.066 180.578 240.446C180.453 249.68 180.453 257.101 180.328 262.279C180.328 264.868 180.328 266.853 180.203 268.233C180.203 268.924 180.203 269.441 180.203 269.787C180.203 270.218 180.203 270.391 180.203 270.391Z" fill="#4A4743" fill-opacity="0.8"/>
<path d="M380.031 107.624H182.293V149.692H380.031V107.624Z" fill="#FFF9F3"/>
<path d="M208.939 136.576H197.219C196.017 136.576 195.016 135.605 195.016 134.439V123.071C195.016 121.906 196.017 120.934 197.219 120.934H208.939C210.141 120.934 211.143 121.906 211.143 123.071V134.439C211.243 135.605 210.242 136.576 208.939 136.576Z" fill="#FF9123"/>
<path d="M208.939 136.576H197.219C196.017 136.576 195.016 135.605 195.016 134.439V123.071C195.016 121.906 196.017 120.934 197.219 120.934H208.939C210.141 120.934 211.143 121.906 211.143 123.071V134.439C211.243 135.605 210.242 136.576 208.939 136.576Z" fill="url(#paint3_linear_3053_12830)" fill-opacity="0.5"/>
<path d="M201.829 132.204C201.628 132.204 201.428 132.107 201.228 132.01L197.922 129.581C197.521 129.29 197.421 128.61 197.722 128.221C198.022 127.832 198.723 127.735 199.124 128.027L201.728 129.873L206.837 124.432C207.238 124.043 207.839 124.043 208.24 124.335C208.64 124.723 208.64 125.306 208.34 125.695L202.63 131.719C202.43 132.107 202.129 132.204 201.829 132.204Z" fill="#FFF9F3"/>
<path d="M293.784 124.626C293.784 124.723 278.758 124.917 260.126 124.917C241.595 124.917 226.469 124.82 226.469 124.626C226.469 124.529 241.494 124.334 260.126 124.334C278.658 124.334 293.784 124.432 293.784 124.626Z" fill="#4A4743" fill-opacity="0.8"/>
<path d="M335.757 131.815C335.757 131.913 311.315 132.107 281.164 132.107C251.012 132.107 226.57 132.01 226.57 131.815C226.57 131.621 251.012 131.524 281.164 131.524C311.315 131.524 335.757 131.621 335.757 131.815Z" fill="#4A4743" fill-opacity="0.8"/>
<path d="M380.031 66H182.293V108.068H380.031V66Z" fill="#FFF9F3"/>
<path d="M208.939 94.952H197.219C196.017 94.952 195.016 93.9805 195.016 92.8146V81.4475C195.016 80.2816 196.017 79.3101 197.219 79.3101H208.939C210.141 79.3101 211.143 80.2816 211.143 81.4475V92.8146C211.243 93.9805 210.242 94.952 208.939 94.952Z" fill="#FF9123"/>
<path d="M208.939 94.952H197.219C196.017 94.952 195.016 93.9805 195.016 92.8146V81.4475C195.016 80.2816 196.017 79.3101 197.219 79.3101H208.939C210.141 79.3101 211.143 80.2816 211.143 81.4475V92.8146C211.243 93.9805 210.242 94.952 208.939 94.952Z" fill="url(#paint4_linear_3053_12830)" fill-opacity="0.5"/>
<path d="M201.829 90.5803C201.628 90.5803 201.428 90.4831 201.228 90.386L197.922 87.9571C197.521 87.6656 197.421 86.9855 197.722 86.5969C198.022 86.2083 198.723 86.1111 199.124 86.4026L201.728 88.2485L206.837 82.8078C207.238 82.4192 207.839 82.4192 208.24 82.7107C208.64 83.0993 208.64 83.6822 208.34 84.0709L202.63 90.0945C202.43 90.4831 202.129 90.5803 201.829 90.5803Z" fill="#FFF9F3"/>
<path d="M293.784 83.0019C293.784 83.0991 278.758 83.2934 260.126 83.2934C241.595 83.2934 226.469 83.1962 226.469 83.0019C226.469 82.9048 241.494 82.7104 260.126 82.7104C278.658 82.7104 293.784 82.8076 293.784 83.0019Z" fill="#4A4743" fill-opacity="0.8"/>
<path d="M335.757 90.1914C335.757 90.2885 311.315 90.4828 281.164 90.4828C251.012 90.4828 226.57 90.3857 226.57 90.1914C226.57 89.9971 251.012 89.8999 281.164 89.8999C311.315 89.8999 335.757 89.9971 335.757 90.1914Z" fill="#4A4743" fill-opacity="0.8"/>
<path d="M376.938 107.682C376.938 107.779 333.263 107.973 279.371 107.973C225.479 107.973 181.805 107.876 181.805 107.682C181.805 107.487 225.479 107.39 279.371 107.39C333.263 107.39 376.938 107.487 376.938 107.682Z" fill="#4A4743" fill-opacity="0.8"/>
<path d="M291.889 166.014C291.889 166.111 276.864 166.306 258.232 166.306C239.7 166.306 224.574 166.208 224.574 166.014C224.574 165.82 239.6 165.723 258.232 165.723C276.763 165.82 291.889 165.917 291.889 166.014Z" fill="#4A4743" fill-opacity="0.8"/>
<path d="M333.862 173.301C333.862 173.398 309.42 173.592 279.269 173.592C249.118 173.592 224.676 173.495 224.676 173.301C224.676 173.204 249.118 173.009 279.269 173.009C309.42 173.009 333.862 173.106 333.862 173.301Z" fill="#4A4743" fill-opacity="0.8"/>
<path d="M291.889 249.373C291.889 249.471 276.864 249.665 258.232 249.665C239.7 249.665 224.574 249.568 224.574 249.373C224.574 249.276 239.6 249.082 258.232 249.082C276.763 249.082 291.889 249.276 291.889 249.373Z" fill="#4A4743" fill-opacity="0.8"/>
<path d="M291.889 208.682C291.889 208.779 276.864 208.973 258.232 208.973C239.7 208.973 224.574 208.876 224.574 208.682C224.574 208.584 239.6 208.39 258.232 208.39C276.763 208.39 291.889 208.584 291.889 208.682Z" fill="#4A4743" fill-opacity="0.8"/>
<path d="M333.862 256.563C333.862 256.66 309.42 256.854 279.269 256.854C249.118 256.854 224.676 256.757 224.676 256.563C224.676 256.466 249.118 256.271 279.269 256.271C309.42 256.271 333.862 256.466 333.862 256.563Z" fill="#4A4743" fill-opacity="0.8"/>
<path d="M333.862 215.871C333.862 215.968 309.42 216.163 279.269 216.163C249.118 216.163 224.676 216.065 224.676 215.871C224.676 215.774 249.118 215.58 279.269 215.58C309.42 215.58 333.862 215.774 333.862 215.871Z" fill="#4A4743" fill-opacity="0.8"/>
<path d="M72.7151 172.135C85.7374 155.424 99.561 157.853 109.077 161.837C118.593 165.82 125.004 176.021 124.403 186.125C124.203 188.749 123.602 191.566 124.804 193.995C126.607 197.881 131.816 199.047 134.821 202.156C138.928 206.431 138.027 213.232 136.624 218.964C135.222 224.696 133.719 231.206 137.225 235.966C140.431 240.338 146.441 241.601 151.45 243.933C158.061 247.042 163.37 252.774 165.273 259.672C167.176 266.57 165.474 274.342 160.565 279.589C155.757 284.738 148.444 286.973 141.332 287.944C120.697 290.859 98.8598 284.447 83.4334 270.845C68.0071 257.243 59.2922 236.743 60.3941 216.535" fill="#4F300C"/>
<path d="M109.778 162.517C109.778 162.614 107.975 162.323 105.17 162.808C102.366 163.197 98.559 164.46 94.3519 165.82C90.1447 167.278 86.1378 168.055 83.2329 167.86C81.7303 167.763 80.6284 167.569 79.827 167.278C79.0257 167.083 78.625 166.889 78.625 166.792C78.625 166.695 80.3279 167.375 83.2329 167.472C86.1378 167.569 90.0445 166.695 94.1515 165.334C98.2585 163.877 102.165 162.711 105.07 162.42C106.473 162.225 107.675 162.225 108.476 162.323C109.277 162.42 109.778 162.517 109.778 162.517Z" fill="#455A64"/>
<path d="M139.731 295.134C140.232 296.591 150.649 344.197 150.649 344.197L229.684 373.635L225.277 384.808L157.561 379.076C117.994 373.344 115.79 354.496 118.194 333.51L122.301 297.466L139.731 295.134Z" fill="#FFBE9D"/>
<path d="M26.1367 269.484C34.2506 257.534 46.6718 250.636 57.9911 246.847L99.5621 249.762C99.5621 249.762 113.586 247.819 124.905 258.797L128.812 358.673L138.328 384.905H39.3593L26.1367 269.484Z" fill="#FF9123"/>
<path d="M26.1367 269.484C34.2506 257.534 46.6718 250.636 57.9911 246.847L99.5621 249.762C99.5621 249.762 113.586 247.819 124.905 258.797L128.812 358.673L138.328 384.905H39.3593L26.1367 269.484Z" fill="url(#paint5_linear_3053_12830)" fill-opacity="0.5"/>
<path d="M124.904 258.7L149.446 301.546L122.199 309.61L124.904 258.7Z" fill="#FF9123"/>
<path d="M124.904 258.7L149.446 301.546L122.199 309.61L124.904 258.7Z" fill="url(#paint6_linear_3053_12830)" fill-opacity="0.5"/>
<path d="M128.213 358.964C128.213 358.964 128.213 358.673 128.113 358.187C128.113 357.604 128.013 356.924 128.013 356.05C127.912 354.107 127.812 351.483 127.612 348.18C127.311 341.477 127.011 332.247 126.71 322.143C126.41 311.941 126.21 302.712 126.109 296.008C126.109 292.705 126.109 289.984 126.109 288.138C126.109 287.264 126.109 286.487 126.109 286.001C126.109 285.515 126.109 285.224 126.109 285.224C126.109 285.224 126.109 285.515 126.21 286.001C126.21 286.584 126.21 287.264 126.31 288.138C126.31 290.081 126.41 292.705 126.51 296.008C126.71 302.712 126.911 311.941 127.211 322.045C127.512 332.247 127.812 341.379 128.013 348.083C128.113 351.386 128.213 354.107 128.213 355.953C128.213 356.827 128.213 357.604 128.213 358.09C128.213 358.673 128.213 358.964 128.213 358.964Z" fill="#4A4743" fill-opacity="0.8"/>
<path d="M56.2877 280.463C53.2826 265.501 31.4453 265.015 27.6388 279.686C27.5387 279.88 27.5387 280.171 27.4385 280.366C21.8289 303.586 40.7612 372.275 45.87 376.258C50.9787 380.241 55.9872 384.71 64.7021 381.213C69.8108 379.173 122.701 333.801 122.701 333.801C122.701 333.801 134.922 345.168 139.029 344.197C143.136 343.225 150.949 331.567 150.949 331.567C150.949 331.567 158.562 342.545 159.464 342.739C162.169 343.225 163.571 340.31 162.569 338.756C161.568 337.299 151.951 316.799 151.951 316.799C151.951 316.799 159.564 316.022 158.062 313.496C158.062 313.496 157.861 311.261 152.752 311.65C147.644 312.038 147.644 306.403 138.127 306.986C128.611 307.569 108.777 309.901 81.03 330.595L68.2081 339.436L56.2877 280.463Z" fill="#FFBE9D"/>
<path d="M81.0299 330.692C81.0299 330.692 81.1301 330.595 81.3304 330.401C81.5307 330.206 81.8312 330.012 82.3321 329.721C83.2336 329.138 84.4357 328.166 86.0384 327C89.4442 324.766 94.2525 321.365 100.964 317.868C107.575 314.37 115.889 310.678 126.007 308.444C128.511 307.958 131.115 307.472 133.82 307.181C135.222 307.083 136.525 306.889 137.927 306.792C139.329 306.695 140.732 306.695 142.234 306.986C143.637 307.278 145.039 307.764 146.341 308.541C147.644 309.318 148.645 310.29 149.948 310.97C150.549 311.358 151.25 311.455 152.051 311.455C152.752 311.455 153.554 311.358 154.355 311.358C155.156 311.358 155.958 311.455 156.659 311.747C157.36 312.038 158.162 312.524 158.362 313.496V313.399C158.562 313.69 158.662 314.079 158.562 314.467C158.462 314.856 158.162 315.147 157.961 315.342C157.46 315.73 156.759 316.022 156.158 316.216C154.856 316.605 153.554 316.896 152.151 317.09L152.352 316.702C154.555 321.268 156.859 326.029 159.163 330.984C160.365 333.413 161.567 335.939 162.87 338.367C162.97 338.659 163.27 338.95 163.37 339.339C163.471 339.728 163.471 340.116 163.37 340.505C163.27 341.282 162.87 341.962 162.269 342.448C161.668 342.934 160.866 343.225 160.065 343.128H159.764C159.764 343.128 159.664 343.128 159.564 343.031C159.464 343.031 159.464 342.934 159.464 342.934C159.263 342.837 159.163 342.642 159.063 342.545C158.763 342.254 158.562 341.962 158.362 341.768C155.757 338.562 153.454 335.161 151.15 331.858H151.55C149.747 334.578 147.744 337.202 145.64 339.533C144.538 340.699 143.537 341.865 142.234 342.934C141.934 343.225 141.633 343.42 141.233 343.711C140.932 343.905 140.531 344.1 140.131 344.294C139.73 344.391 139.329 344.585 138.929 344.683C138.528 344.683 138.027 344.683 137.727 344.488C136.124 344.1 134.822 343.225 133.419 342.448C132.117 341.671 130.815 340.699 129.613 339.825C127.209 337.979 124.905 336.036 122.801 334.093H123.102C106.273 348.374 91.9485 360.422 81.6309 368.777C76.5222 372.955 72.4152 376.161 69.5102 378.298C68.1078 379.367 66.9058 380.144 66.1044 380.63C65.303 381.116 64.9023 381.31 64.9023 381.31C64.9023 381.31 65.303 381.116 66.1044 380.533C66.9058 380.047 68.0076 379.173 69.41 378.104C72.2148 375.967 76.3218 372.663 81.4306 368.486C91.648 360.13 105.972 347.986 122.701 333.704L122.901 333.607L123.102 333.801C125.205 335.744 127.509 337.687 129.913 339.436C131.115 340.311 132.317 341.185 133.62 342.059C134.922 342.837 136.324 343.614 137.727 344.002C139.229 344.585 140.531 343.517 141.734 342.545C142.936 341.574 144.037 340.408 145.039 339.145C147.143 336.716 149.046 334.19 150.849 331.469L151.049 331.178L151.25 331.469C153.554 334.773 155.858 338.173 158.462 341.379C158.662 341.671 158.963 341.962 159.163 342.157C159.263 342.254 159.364 342.448 159.564 342.448L159.664 342.545C159.664 342.545 159.664 342.545 159.664 342.642C159.664 342.642 159.664 342.837 159.664 342.545H159.864C160.566 342.642 161.167 342.448 161.668 342.059C162.669 341.282 163.07 339.728 162.168 338.659C160.866 336.23 159.664 333.704 158.462 331.275C156.158 326.417 153.854 321.657 151.65 316.993L151.55 316.702H151.851C153.153 316.508 154.555 316.313 155.757 315.925C156.358 315.73 156.96 315.439 157.46 315.147C157.661 314.953 157.861 314.759 157.961 314.564C158.061 314.37 157.961 314.079 157.861 313.884V313.787C157.761 313.204 157.16 312.718 156.459 312.427C155.757 312.136 155.056 312.136 154.255 312.038C153.554 312.038 152.752 312.136 151.951 312.136C151.15 312.136 150.348 311.941 149.647 311.553C148.245 310.873 147.243 309.804 145.941 309.124C144.739 308.346 143.436 307.861 142.034 307.666C139.229 307.181 136.424 307.569 133.72 307.861C131.015 308.152 128.411 308.638 125.907 309.124C115.889 311.261 107.475 314.953 100.864 318.353C94.2525 321.754 89.3441 325.057 85.9383 327.292C84.3355 328.458 83.0333 329.332 82.1318 329.915C81.7311 330.206 81.4306 330.401 81.1301 330.595L81.0299 330.692Z" fill="#EB996E"/>
<path d="M63.4009 356.244C63.4009 356.244 63.3008 355.953 63.2006 355.564C63.1004 355.078 63.0003 354.398 62.9001 353.524C62.7999 351.775 62.9001 349.346 63.6013 346.82C64.3025 344.294 65.5045 342.157 66.5062 340.699C67.0071 340.019 67.508 339.436 67.8085 339.048C68.109 338.659 68.3093 338.465 68.4095 338.562C68.5097 338.659 67.8085 339.436 66.8068 340.894C65.9052 342.351 64.8033 344.488 64.1021 346.917C63.4009 349.443 63.2006 351.775 63.2006 353.427C63.3008 355.175 63.5011 356.147 63.4009 356.244Z" fill="#EB996E"/>
<path d="M41.4638 254.717C40.9629 255.008 23.3328 260.157 20.5281 277.645C17.7233 295.133 19.4262 325.737 19.4262 325.737L67.2078 322.531L53.4843 260.935L41.4638 254.717Z" fill="#FF9123"/>
<path d="M41.4638 254.717C40.9629 255.008 23.3328 260.157 20.5281 277.645C17.7233 295.133 19.4262 325.737 19.4262 325.737L67.2078 322.531L53.4843 260.935L41.4638 254.717Z" fill="url(#paint7_linear_3053_12830)" fill-opacity="0.5"/>
<path d="M143.139 341.865C143.039 341.865 143.139 341.282 143.139 340.31C143.139 339.339 142.838 337.979 142.137 336.716C141.436 335.453 140.434 334.481 139.633 333.898C138.831 333.315 138.23 333.121 138.23 333.024C138.23 332.927 138.932 333.121 139.833 333.607C140.735 334.092 141.837 335.064 142.638 336.521C143.339 337.882 143.64 339.339 143.54 340.408C143.439 341.282 143.139 341.865 143.139 341.865Z" fill="#EB996E"/>
<path d="M147.545 336.619C147.345 336.619 147.345 334.481 145.942 332.441C144.54 330.303 142.637 329.332 142.637 329.235C142.637 329.138 143.238 329.332 143.939 329.818C144.64 330.303 145.642 331.081 146.343 332.149C147.044 333.218 147.445 334.384 147.545 335.258C147.645 336.133 147.545 336.619 147.545 336.619Z" fill="#EB996E"/>
<path d="M147.544 325.543C147.544 325.446 147.945 325.64 148.546 326.126C149.047 326.612 149.748 327.389 150.249 328.36C150.75 329.332 150.85 330.401 150.85 331.081C150.85 331.761 150.75 332.247 150.649 332.247C150.449 332.247 150.649 330.498 149.748 328.652C148.846 326.806 147.444 325.737 147.544 325.543Z" fill="#EB996E"/>
<path d="M63.8015 297.951C63.8015 297.951 63.9017 298.145 63.9017 298.436C64.0019 298.825 64.0019 299.214 64.1021 299.797C64.3024 301.06 64.6029 302.711 64.9034 304.849C65.6046 309.221 66.5062 315.341 67.5079 322.434V322.725H67.2074C63.7014 322.92 59.995 323.211 55.9882 323.503C45.8709 324.183 36.7554 324.766 30.0439 325.154C26.7383 325.348 24.1338 325.446 22.2306 325.64C21.329 325.64 20.6278 325.737 20.127 325.737C19.6261 325.737 19.4258 325.737 19.4258 325.737C19.4258 325.737 19.7263 325.64 20.127 325.64C20.6278 325.64 21.329 325.543 22.2306 325.446C24.1338 325.251 26.8384 325.057 30.0439 324.863C36.7554 324.377 45.8709 323.794 55.9882 323.017C59.8949 322.725 63.7014 322.531 67.2074 322.239L67.007 322.531C66.0053 315.439 65.2039 309.318 64.6029 304.946C64.3024 302.808 64.1021 301.06 63.9017 299.797C63.8015 299.214 63.8015 298.825 63.7014 298.436C63.8015 298.145 63.8015 297.951 63.8015 297.951Z" fill="#4A4743" fill-opacity="0.8"/>
<g opacity="0.2">
<g opacity="0.2">
<path opacity="0.2" d="M40.5625 254.231C40.0616 255.883 41.464 257.437 42.2654 258.894C43.9683 261.712 44.0685 265.209 44.1687 268.416C44.4692 274.439 45.0702 280.463 46.9734 286.098C48.8767 291.83 52.1823 297.174 57.0907 300.865C61.9991 304.557 68.5102 306.306 74.5205 304.849C80.5307 303.294 85.5393 298.242 86.0401 292.219C86.541 286.292 82.8347 280.949 80.7311 275.314C79.1283 271.039 78.327 266.473 77.4254 262.003C76.5239 257.534 75.3218 252.968 72.8176 249.082C70.3133 245.196 66.5068 241.892 61.7988 241.018C57.1909 240.241 51.8818 242.281 49.9786 246.556" fill="black"/>
</g>
</g>
<path d="M63.7029 175.73V180.879L63.4023 258.215C63.4023 267.153 71.3159 274.342 81.2328 274.342C91.2499 274.342 99.4639 266.959 99.6643 257.826C99.8646 248.305 100.265 238.298 100.265 238.298C100.265 238.298 112.987 236.452 115.892 220.518C117.294 212.552 117.194 199.533 116.693 188.846C116.293 179.227 107.678 171.941 97.761 172.718L63.7029 175.73Z" fill="#FFBE9D"/>
<path d="M100.264 238.395C100.264 238.395 89.1452 238.88 78.2266 232.274C78.2266 232.274 83.4355 243.35 99.9637 242.184L100.264 238.395Z" fill="#EB996E"/>
<path d="M84.3357 170.484C88.8434 176.119 84.3357 184.182 79.227 189.429C74.2184 194.578 68.108 200.602 69.5104 207.597C71.2133 215.661 82.6328 220.713 81.03 228.874C80.429 231.789 78.0249 234.412 78.1251 237.424C78.1251 242.864 85.4376 245.39 87.5412 250.442C90.4461 257.34 82.6328 264.336 82.6328 271.719C82.6328 275.994 85.1371 279.88 85.3374 284.058C85.7381 292.705 75.2201 299.117 66.5052 297.077C57.7904 295.037 51.7801 286.876 49.8769 278.423C47.8734 269.971 49.1757 261.129 50.4779 252.58C49.6765 256.272 43.9668 256.952 41.162 254.426C38.3572 251.9 37.9565 247.625 38.5575 243.933C40.0601 234.703 46.2707 226.736 49.1757 217.798C51.6799 209.929 51.6799 201.573 52.6816 193.509C53.7835 185.348 56.2878 176.896 62.5986 171.455C68.9094 166.014 80.0283 165.237 85.2372 171.747" fill="#4F300C"/>
<path d="M61.7978 293.968C61.7978 293.968 61.898 293.871 61.9982 293.676C62.1985 293.482 62.3989 293.191 62.5992 292.802C63.1001 292.025 63.9014 290.762 64.5024 289.013C65.1035 287.264 65.7045 285.127 65.8047 282.504C65.9048 279.88 65.5042 276.869 64.2019 273.954C62.8997 270.942 60.5958 268.125 58.0915 265.016C56.8894 263.461 55.5872 261.907 54.5855 260.061C53.4836 258.215 52.6823 256.272 52.2816 254.037C51.8809 251.9 51.8809 249.471 52.8826 247.333C53.3835 246.265 54.0847 245.293 54.886 244.419C55.7876 243.544 56.6891 242.864 57.6908 242.184C59.6942 240.824 61.7978 239.464 62.7995 237.229C63.9014 235.092 63.9014 232.566 63.3004 230.137C62.0983 225.279 58.5924 221.49 56.3886 217.215C55.2867 215.078 54.3852 212.843 54.285 210.512C54.1848 208.18 54.6857 205.945 55.5872 203.905C57.3903 199.824 60.3954 196.715 63.4006 194.092C66.4057 191.469 69.3107 189.332 71.7148 187C74.1189 184.765 76.0221 182.337 77.2242 180.005C78.4262 177.673 79.0273 175.438 79.1274 173.69C79.2276 171.844 79.0272 170.484 78.7267 169.512C78.4262 168.54 78.2259 168.152 78.2259 168.152C78.2259 168.152 78.5264 168.638 78.8269 169.512C79.1274 170.386 79.4279 171.844 79.3278 173.69C79.2276 175.536 78.7267 177.77 77.5247 180.199C76.3226 182.531 74.4194 184.96 72.0153 187.291C69.6112 189.623 66.7062 191.858 63.7011 194.481C60.7961 197.007 57.8912 200.116 56.0881 204.099C55.1865 206.042 54.6857 208.277 54.886 210.512C54.9862 212.746 55.7876 214.981 56.8894 217.021C57.9913 219.061 59.3937 221.101 60.6959 223.142C61.9982 225.182 63.2002 227.514 63.8012 229.943C64.4023 232.371 64.5024 235.092 63.3004 237.326C62.0983 239.658 59.8946 241.018 57.9913 242.476C56.9896 243.156 56.0881 243.836 55.1865 244.71C54.3852 245.487 53.684 246.459 53.2833 247.431C52.3818 249.471 52.3818 251.803 52.7824 253.843C53.1831 255.98 53.9845 257.923 55.0864 259.672C56.0881 261.421 57.3903 263.073 58.5924 264.53C60.9965 267.542 63.3004 270.456 64.7028 273.565C66.1052 276.577 66.4057 279.686 66.3055 282.309C66.2054 284.932 65.6043 287.167 64.9031 288.916C64.2019 290.665 63.4006 291.831 62.8997 292.705C62.5992 293.094 62.3989 293.385 62.1985 293.579C61.898 293.871 61.7978 293.968 61.7978 293.968Z" fill="white" fill-opacity="0.25"/>
<path d="M184.608 312.33L146.643 376.647L92.8516 378.493V384.225H249.92L292.693 316.314C294.296 313.788 292.392 310.484 289.287 310.484H188.014C186.612 310.387 185.309 311.067 184.608 312.33Z" fill="#734815"/>
<path d="M223.958 350.747C226.099 352.081 229.774 350.235 232.167 346.624C234.56 343.013 234.764 339.003 232.623 337.669C230.482 336.335 226.807 338.181 224.414 341.792C222.021 345.403 221.817 349.412 223.958 350.747Z" fill="#E0E0E0" fill-opacity="0.5"/>
</g>
<defs>
<linearGradient id="paint0_linear_3053_12830" x1="198.634" y1="164.212" x2="204.569" y2="178.942" gradientUnits="userSpaceOnUse">
<stop stop-color="#FFCA00"/>
<stop offset="0.791667" stop-color="#FF9000"/>
</linearGradient>
<linearGradient id="paint1_linear_3053_12830" x1="198.634" y1="206.261" x2="204.569" y2="220.992" gradientUnits="userSpaceOnUse">
<stop stop-color="#FFCA00"/>
<stop offset="0.791667" stop-color="#FF9000"/>
</linearGradient>
<linearGradient id="paint2_linear_3053_12830" x1="197.786" y1="248.245" x2="203.658" y2="262.909" gradientUnits="userSpaceOnUse">
<stop stop-color="#FFCA00"/>
<stop offset="0.791667" stop-color="#FF9000"/>
</linearGradient>
<linearGradient id="paint3_linear_3053_12830" x1="199.579" y1="122.04" x2="205.451" y2="136.705" gradientUnits="userSpaceOnUse">
<stop stop-color="#FFCA00"/>
<stop offset="0.791667" stop-color="#FF9000"/>
</linearGradient>
<linearGradient id="paint4_linear_3053_12830" x1="199.579" y1="80.4161" x2="205.451" y2="95.0805" gradientUnits="userSpaceOnUse">
<stop stop-color="#FFCA00"/>
<stop offset="0.791667" stop-color="#FF9000"/>
</linearGradient>
<linearGradient id="paint5_linear_3053_12830" x1="57.8677" y1="256.609" x2="118.53" y2="375.96" gradientUnits="userSpaceOnUse">
<stop stop-color="#FFCA00"/>
<stop offset="0.791667" stop-color="#FF9000"/>
</linearGradient>
<linearGradient id="paint6_linear_3053_12830" x1="129.905" y1="262.3" x2="156.692" y2="297.008" gradientUnits="userSpaceOnUse">
<stop stop-color="#FFCA00"/>
<stop offset="0.791667" stop-color="#FF9000"/>
</linearGradient>
<linearGradient id="paint7_linear_3053_12830" x1="32.5729" y1="259.738" x2="66.8533" y2="316.174" gradientUnits="userSpaceOnUse">
<stop stop-color="#FFCA00"/>
<stop offset="0.791667" stop-color="#FF9000"/>
</linearGradient>
<clipPath id="clip0_3053_12830">
<rect width="76" height="70" fill="white" transform="translate(52.2031 71.8584)"/>
</clipPath>
<clipPath id="clip1_3053_12830">
<rect width="50" height="46" fill="white" transform="matrix(-0.258819 -0.965926 -0.965926 0.258819 408.375 357.296)"/>
</clipPath>
</defs>
</svg>
