<svg width="120" height="141" viewBox="0 0 120 141" fill="none" xmlns="http://www.w3.org/2000/svg">
<path d="M25.2291 123.251L13.7485 114.34C6.2398 108.525 4.86634 97.6153 10.6997 90.1293L64.5585 20.7075C70.3736 13.1988 81.283 11.8254 88.769 17.6588L100.25 26.5704C107.758 32.3855 109.132 43.2949 103.298 50.7809L49.4396 120.203C43.6267 127.691 32.7173 129.064 25.2291 123.251Z" fill="#5F5A55"/>
<path d="M69.8974 43.0739L66.8598 40.7194C66.1716 40.1901 66.0521 39.1839 66.5813 38.4957L67.7801 36.9689C68.3094 36.2807 69.3156 36.1611 70.0038 36.6904L73.0415 39.0449C73.7297 39.5742 73.8492 40.5804 73.3199 41.2686L72.1211 42.7955C71.5714 43.4815 70.5856 43.6032 69.8974 43.0739Z" fill="#BFA79A"/>
<path d="M77.0239 48.5999L73.9862 46.2453C73.2981 45.7161 73.1785 44.7098 73.7078 44.0217L74.9066 42.4948C75.4358 41.8066 76.4421 41.6871 77.1303 42.2163L80.1679 44.5709C80.8561 45.1001 80.9756 46.1064 80.4464 46.7945L79.2476 48.3214C78.7183 49.0096 77.7121 49.1291 77.0239 48.5999Z" fill="#BFA79A"/>
<path d="M84.1504 54.126L81.1127 51.7714C80.4245 51.2422 80.305 50.236 80.8342 49.5478L82.0331 48.0209C82.5623 47.3327 83.5686 47.2132 84.2567 47.7424L87.2944 50.097C87.9826 50.6262 88.1021 51.6325 87.5729 52.3207L86.374 53.8475C85.8448 54.5357 84.8385 54.6553 84.1504 54.126Z" fill="#BFA79A"/>
<path d="M64.9941 49.3977L61.9565 47.0431C61.2683 46.5139 61.1487 45.5076 61.678 44.8194L62.8768 43.2926C63.4061 42.6044 64.4123 42.4849 65.1005 43.0141L68.1381 45.3687C68.8263 45.8979 68.9459 46.9042 68.4166 47.5923L67.2178 49.1192C66.6681 49.8052 65.6823 49.9269 64.9941 49.3977Z" fill="#BFA79A"/>
<path d="M72.1191 54.9225L69.0815 52.568C68.3933 52.0387 68.2737 51.0325 68.803 50.3443L70.0018 48.8174C70.5311 48.1292 71.5373 48.0097 72.2255 48.539L75.2631 50.8935C75.9513 51.4228 76.0709 52.429 75.5416 53.1172L74.3428 54.644C73.7931 55.33 72.8073 55.4518 72.1191 54.9225Z" fill="#BFA79A"/>
<path d="M79.247 60.4512L76.2094 58.0966C75.5212 57.5674 75.4017 56.5612 75.9309 55.873L77.1297 54.3461C77.659 53.6579 78.6652 53.5384 79.3534 54.0676L82.3911 56.4222C83.0793 56.9514 83.1988 57.9577 82.6695 58.6459L81.4707 60.1727C80.9415 60.8609 79.9352 60.9805 79.247 60.4512Z" fill="#BFA79A"/>
<path d="M59.7658 54.5271L58.2754 53.3736C57.1679 52.5095 56.9689 50.8945 57.8329 49.787C58.697 48.6795 60.3119 48.4805 61.4195 49.3445L62.9098 50.4981C64.0173 51.3621 64.2163 52.9771 63.3523 54.0846C62.4883 55.1921 60.8733 55.3911 59.7658 54.5271Z" fill="#BFA79A"/>
<path d="M67.6753 60.6521L64.6376 58.2975C63.9494 57.7683 63.8299 56.762 64.3591 56.0738L65.558 54.547C66.0872 53.8588 67.0935 53.7393 67.7816 54.2685L70.8193 56.6231C71.5075 57.1523 71.627 58.1585 71.0978 58.8467L69.8989 60.3736C69.3492 61.0596 68.343 61.1791 67.6753 60.6521Z" fill="#BFA79A"/>
<path d="M74.8003 66.1977L71.7626 63.8432C71.0744 63.3139 70.9549 62.3077 71.4841 61.6195L72.683 60.0926C73.2122 59.4045 74.2185 59.2849 74.9066 59.8142L77.9443 62.1687C78.6325 62.698 78.752 63.7042 78.2228 64.3924L77.0239 65.9192C76.4742 66.6052 75.4884 66.727 74.8003 66.1977Z" fill="#BFA79A"/>
<path d="M28.5412 108.789L26.1143 106.914C25.2917 106.287 25.1488 105.113 25.7753 104.29L26.2073 103.737C26.8338 102.914 28.0081 102.771 28.8307 103.398L31.2576 105.273C32.0802 105.899 32.2231 107.073 31.5966 107.896L31.1646 108.45C30.5177 109.27 29.3434 109.413 28.5412 108.789Z" fill="#A1C59F"/>
<path d="M18.7205 101.38L16.2936 99.5049C15.4915 98.8806 15.3281 97.7041 15.9546 96.8815L16.3866 96.3277C17.0131 95.5051 18.1874 95.3623 19.01 95.9887L21.4369 97.8637C22.2595 98.4902 22.4024 99.6645 21.7759 100.487L21.3439 101.041C20.7174 101.863 19.5431 102.006 18.7205 101.38Z" fill="#A1C59F"/>
<path d="M38.0345 116.369L36.1636 114.905C35.2087 114.161 35.0286 112.755 35.7728 111.8C36.517 110.846 37.9229 110.666 38.8778 111.41L40.7487 112.873C41.7036 113.617 41.8836 115.023 41.1395 115.978C40.4158 116.935 39.0098 117.115 38.0345 116.369Z" fill="#A1C59F"/>
<path d="M52.0428 80.5394L47.9181 77.323C47.0955 76.6966 46.9526 75.5222 47.5791 74.6996L50.7955 70.5749C51.4198 69.7728 52.5963 69.6094 53.4189 70.2359L57.5436 73.4523C58.3662 74.0788 58.5091 75.2531 57.8826 76.0757L54.6662 80.2004C54.0398 81.023 52.8654 81.1659 52.0428 80.5394Z" fill="#A1C59F"/>
<path d="M42.2075 72.8811L38.0827 69.6647C37.2806 69.0404 37.1173 67.8639 37.7437 67.0413L40.9601 62.9166C41.5866 62.094 42.7609 61.9511 43.5835 62.5776L47.7082 65.794C48.5309 66.4205 48.6737 67.5948 48.0473 68.4174L44.8309 72.5421C44.1839 73.3625 43.0096 73.5054 42.2075 72.8811Z" fill="#BFA79A"/>
<path d="M61.5169 87.8908L57.3922 84.6744C56.5696 84.0479 56.4267 82.8736 57.0532 82.051L60.2696 77.9263C60.8961 77.1037 62.0704 76.9608 62.893 77.5872L67.0177 80.8036C67.8403 81.4301 67.9832 82.6044 67.3567 83.427L64.1403 87.5518C63.516 88.3539 62.3395 88.5172 61.5169 87.8908Z" fill="#BFA79A"/>
<path d="M59.536 70.8933L55.4113 67.6769C54.5887 67.0504 54.4458 65.8761 55.0723 65.0535L58.2887 60.9288C58.9129 60.1266 60.0895 59.9633 60.9121 60.5898L65.0368 63.8062C65.8389 64.4305 66.0023 65.607 65.3758 66.4296L62.1594 70.5543C61.5351 71.3564 60.3586 71.5198 59.536 70.8933Z" fill="#BFA79A"/>
<path d="M44.5712 90.1886L40.4464 86.9722C39.6238 86.3457 39.481 85.1714 40.1074 84.3488L43.3238 80.2241C43.9481 79.4219 45.1246 79.2586 45.9472 79.8851L50.0719 83.1015C50.8741 83.7257 51.0374 84.9023 50.4109 85.7249L47.1945 89.8496C46.5476 90.67 45.3733 90.8129 44.5712 90.1886Z" fill="#BFA79A"/>
<path d="M57.9079 65.8337L60.8316 68.0932C61.1187 68.3103 61.5112 68.1248 61.5281 67.7748L61.6869 64.5633C61.6994 64.2542 61.4123 64.0371 61.1331 64.1313L58.0529 65.0628C57.7079 65.1913 57.6413 65.6188 57.9079 65.8337Z" fill="white"/>
<path d="M47.6659 85.0559L44.7422 82.7964C44.4551 82.5793 44.0626 82.7648 44.0457 83.1148L43.8869 86.3263C43.8744 86.6354 44.1615 86.8525 44.4407 86.7583L47.521 85.8268C47.8637 85.7188 47.953 85.273 47.6659 85.0559Z" fill="white"/>
<path d="M42.8413 70.0512L45.1008 67.1275C45.3179 66.8404 45.1324 66.4479 44.7824 66.431L41.5709 66.2722C41.2618 66.2597 41.0447 66.5468 41.1389 66.826L42.0704 69.9063C42.1785 70.249 42.6264 70.3178 42.8413 70.0512Z" fill="white"/>
<path d="M62.4309 80.559L60.1714 83.4827C59.9543 83.7698 60.1398 84.1622 60.4898 84.1792L63.7012 84.3379C64.0103 84.3505 64.2274 84.0633 64.1333 83.7842L63.2018 80.7039C63.0733 80.359 62.6458 80.2923 62.4309 80.559Z" fill="white"/>
<path d="M71.4068 22.2707C74.121 18.775 79.0609 18.064 82.4222 20.681C85.8039 23.3002 86.3264 28.2612 83.6122 31.7569C80.898 35.2526 75.9581 35.9636 72.5968 33.3467C69.215 30.7275 68.6926 25.7664 71.4068 22.2707Z" fill="#9CC09C"/>
</svg>
