<svg width="120" height="141" viewBox="0 0 120 141" fill="none" xmlns="http://www.w3.org/2000/svg">
<g clip-path="url(#clip0_1612_7063)">
<g opacity="0.9">
<path d="M77.4301 134.477L103.488 101.562L77.1259 128.893L77.4301 134.477Z" fill="#838383"/>
<path d="M87.4755 138.142L103.49 101.562L62.3886 115.72L87.4755 138.142Z" fill="#E5E5E5"/>
<path d="M87.473 138.142L92.8529 110.853L62.3861 115.72L87.473 138.142Z" fill="#E5E5E5"/>
<path d="M77.1257 128.893L71.5228 123.885L103.487 101.562L77.1257 128.893Z" fill="#BCBDBF"/>
<path d="M77.1254 128.893L77.4296 134.477L71.5225 123.885L77.1254 128.893Z" fill="#BCBDBF"/>
<path d="M14.7224 107.242L35.7964 80.5753L14.4371 102.72L14.7224 107.242Z" fill="#838383"/>
<path d="M22.8605 110.211L35.7969 80.5753L2.49527 92.0464L22.8605 110.211Z" fill="#E5E5E5"/>
<path d="M22.8597 110.212L27.182 88.1419L2.49451 92.0465L22.8597 110.212Z" fill="#E5E5E5"/>
<path d="M14.4363 102.72L9.89661 98.6625L35.7956 80.5753L14.4363 102.72Z" fill="#BCBDBF"/>
<path d="M14.4372 102.721L14.7224 107.242L9.89746 98.6631L14.4372 102.721Z" fill="#BCBDBF"/>
<path d="M12.0126 38.4662L41.8173 8.85098L12.3805 32.8385L12.0126 38.4662Z" fill="#838383"/>
<path d="M21.5495 43.2565L41.817 8.851L-0.680487 17.9993L21.5495 43.2565Z" fill="#E5E5E5"/>
<path d="M21.5496 43.2565L30.0986 16.85L-0.680346 17.9994L21.5496 43.2565Z" fill="#E5E5E5"/>
<path d="M12.3798 32.8384L7.36711 27.1944L41.8166 8.85089L12.3798 32.8384Z" fill="#BCBDBF"/>
<path d="M12.3799 32.8382L12.012 38.4658L7.36719 27.1941L12.3799 32.8382Z" fill="#BCBDBF"/>
</g>
<path d="M57.2958 88.834L113.516 17.7382L56.6371 76.7445L57.2958 88.834Z" fill="#A3CCA3"/>
<path d="M78.9965 96.7273L113.517 17.7378L24.7893 48.3475L78.9965 96.7273Z" fill="#ADD6AD"/>
<path d="M56.6401 76.744L44.4695 65.9352L113.519 17.7376L56.6401 76.744Z" fill="#8FB88F"/>
<path d="M56.6398 76.7449L57.2985 88.8344L44.4692 65.9361L56.6398 76.7449Z" fill="#8FB88F"/>
</g>
<defs>
<clipPath id="clip0_1612_7063">
<rect width="120" height="141" fill="white"/>
</clipPath>
</defs>
</svg>
