<svg width="120" height="141" viewBox="0 0 120 141" fill="none" xmlns="http://www.w3.org/2000/svg">
<g clip-path="url(#clip0_1612_6720)">
<path d="M72.6742 67.8103L69.8242 66.3857V58.1231H52.7242V66.3857L50.1592 67.5253L50.7292 91.7432H52.7242V95.1622H69.8242V91.7432H71.8192L72.6742 67.8103Z" fill="#FFD3B3"/>
<path d="M69.8241 58.9778V65.8158L52.7241 62.1119V58.9778H69.8241Z" fill="#DEB4A0"/>
<path d="M25.08 80.6314C28.215 73.7934 37.05 72.0839 49.59 67.8101C50.16 67.5252 50.445 67.5252 51.015 67.2403C51.87 71.799 54.15 78.0671 61.56 78.6369C68.97 78.0671 71.25 71.799 72.105 67.2403C72.675 67.5252 72.96 67.5252 73.53 67.8101C86.07 72.0839 94.905 73.7934 98.04 80.6314C102.03 89.4638 90.63 98.2962 90.63 98.2962C90.63 98.2962 89.49 153 87.78 153H61.56H35.34C33.63 153 32.49 98.2962 32.49 98.2962C32.49 98.2962 21.09 89.1788 25.08 80.6314Z" fill="#EAF1F8"/>
<path d="M57.2842 77.2123L58.9942 80.3464H63.8392L65.5492 77.2123L61.2742 73.7933L57.2842 77.2123Z" fill="#FF9011"/>
<path d="M61.2744 73.7934L66.4044 79.2068L76.6644 68.6649L69.8244 65.5308L67.8294 67.5252L61.2744 73.7934Z" fill="#D3DAE0"/>
<path d="M61.2748 73.7934L56.1448 79.2068L45.8848 68.6649L52.7248 65.5308L54.7198 67.5252L61.2748 73.7934Z" fill="#D3DAE0"/>
<path d="M58.9944 81.2013L56.7144 146.447L61.2744 151.576L65.8344 146.447L63.8394 81.2013H58.9944Z" fill="#FF9011"/>
<path d="M89.7743 61.542L94.9043 41.5979C95.7593 38.7487 94.0493 35.8996 91.1993 35.0448C88.3493 34.1901 85.4993 35.8996 84.6443 38.7487L79.5143 58.6929C78.6593 61.542 80.3693 64.3912 83.2193 65.2459C86.3543 66.1007 89.2043 64.3912 89.7743 61.542Z" fill="#4F4C4D"/>
<path d="M79.2299 59.8326L84.9299 38.179C85.4999 35.8996 88.0649 34.4751 90.3449 35.0449L92.0549 35.6147C93.1949 35.8996 93.7649 36.4695 94.3349 37.3242C93.7649 37.0393 93.4799 36.7544 92.9099 36.4695L91.1999 35.8997C88.9199 35.3298 86.3549 36.7544 85.7849 39.0337L80.0849 60.6874C79.7999 62.1119 80.0849 63.5365 80.9399 64.3913C79.5149 63.5365 78.9449 61.5421 79.2299 59.8326Z" fill="#C8C8C8"/>
<path d="M90.9146 39.6035L91.1996 38.4638C91.1996 37.894 90.9146 37.6091 90.6296 37.3242C90.0596 37.3242 89.7746 37.6091 89.4896 37.894L89.2046 39.0337C89.2046 39.6035 89.4896 39.8884 89.7746 40.1733C90.3446 40.4582 90.9146 40.1733 90.9146 39.6035Z" fill="#EAF1F8" fill-opacity="0.3"/>
<path d="M80.37 53.2794L86.925 62.1118L96.9001 58.4079L94.0501 46.7263C93.1951 44.447 88.92 43.3073 86.07 44.447C82.935 45.3017 79.515 50.7151 80.37 53.2794Z" fill="#FFD3B3"/>
<path d="M107.73 108.838C109.155 108.838 110.58 108.268 111.72 107.414C113.715 105.704 114.57 102.855 113.715 100.291L96.6145 54.4192L84.6445 58.9778L95.1895 87.4695L91.7695 85.4751L85.2145 98.5812L104.595 108.268C105.165 108.553 106.305 108.838 107.73 108.838Z" fill="#EAF1F8"/>
<path d="M37.3341 137.615L26.2191 129.067L19.6641 137.615L30.7791 146.162C33.0591 147.872 34.1991 147.302 35.9091 145.023C37.9041 142.458 39.6141 139.324 37.3341 137.615Z" fill="#FFD3B3"/>
<path d="M37.0491 133.626C33.0591 130.777 28.4991 131.062 28.2141 131.347C27.3591 131.632 26.7891 132.486 27.0741 133.626C27.3591 134.481 28.2141 135.051 29.0691 134.766C29.0691 134.766 29.3541 134.766 29.6391 134.766C29.9241 134.766 30.4941 134.766 31.0641 135.051C32.2041 135.335 33.6291 135.905 35.0541 136.76C35.9091 137.33 36.7641 137.045 37.3341 136.475C37.9041 135.335 37.9041 134.196 37.0491 133.626Z" fill="#FFD3B3"/>
<path d="M25.0793 143.313L32.4893 131.062L16.2443 112.827L33.3443 97.7265L26.5043 78.0673L1.42435 109.408C-0.570654 111.972 -0.285653 115.391 1.70935 117.671L25.0793 143.313Z" fill="#EAF1F8"/>
<path d="M80.9399 34.475L81.7949 27.0672C82.0799 17.38 72.9599 8.83256 63.2699 8.54764C53.5799 8.26273 43.8899 15.9555 43.3199 25.6426L43.6049 33.0504C43.0349 33.0504 42.4649 33.3354 42.1799 33.6203C41.3249 34.1901 40.7549 35.3298 40.7549 36.1845V39.8884C40.7549 41.8828 42.1799 43.5923 44.1749 43.5923C43.8899 52.9946 54.7199 62.1119 61.2749 62.3968C67.8299 62.6817 79.5149 54.1342 79.7999 45.0169C81.7949 45.0169 83.5049 43.5923 83.5049 41.5979V37.894C83.7899 36.4694 82.6499 35.0449 80.9399 34.475Z" fill="#FFD3B3"/>
<path d="M82.65 33.6202C82.08 36.1845 81.225 37.0392 80.085 39.6035L80.37 32.7655L76.95 20.5141C76.95 20.5141 70.68 21.6537 63.27 21.6537C55.86 21.0839 49.59 19.3744 49.59 19.3744L44.745 31.3409L44.46 38.1789C44.175 37.0392 42.75 33.3353 42.465 32.1956C41.04 24.5029 41.325 16.8102 43.89 10.8269C43.89 10.8269 48.735 -0.569723 63.555 0.000109185C63.84 0.000109185 64.125 0.000109185 64.41 0.000109185C68.4 0.000109185 71.25 1.13977 73.815 2.56435C73.815 2.56435 78.09 4.84368 82.08 3.13419C82.08 3.13419 82.365 3.13419 82.365 3.4191C82.365 3.98894 82.08 4.84368 81.225 5.98335C82.08 5.98335 83.22 5.98335 84.645 5.69843C84.645 8.26268 83.79 10.542 82.365 12.2515C84.93 18.2347 84.645 25.9275 82.65 33.6202Z" fill="#4A4743"/>
</g>
<defs>
<clipPath id="clip0_1612_6720">
<rect width="120" height="141" fill="white"/>
</clipPath>
</defs>
</svg>
