<svg width="120" height="141" viewBox="0 0 120 141" fill="none" xmlns="http://www.w3.org/2000/svg">
<g clip-path="url(#clip0_1612_6835)">
<path d="M69.4151 60.1896H50.2222V68.2149H69.4151V60.1896Z" fill="#32303A"/>
<path d="M70.1958 62.6587L67.6992 61.5012V53.7846H52.0171V61.5012L49.5205 62.5815L50.1447 84.4195H52.0171V87.7377H67.6992V84.4195H69.4937L70.1958 62.6587Z" fill="#FFD3B3"/>
<path d="M52.0166 53.7846V59.0319L67.6987 60.961V53.7846H52.0166Z" fill="#EBBF9F"/>
<path d="M49.2858 62.6586L49.8319 64.8193C50.8462 67.6744 53.4209 72.3816 59.5845 72.3816C66.5283 72.3816 69.1809 66.4398 70.0392 63.8161L70.3512 62.6586C83.1466 67.4429 79.2455 107.029 79.2455 107.029L79.3236 139.979H59.8185H39.2212L39.7673 107.029C39.7673 107.029 36.4905 67.4429 49.2858 62.6586Z" fill="white"/>
<path d="M56.0742 71.3012L57.5566 74.1563H62.1598L63.6422 71.3012L59.8192 68.2917L56.0742 71.3012Z" fill="#FF9011"/>
<path d="M59.8184 68.2918L64.6556 73.3076L72.9257 63.5846L67.7764 61.0381L65.8259 62.813L59.8184 68.2918Z" fill="#E6E7E8"/>
<path d="M51.8603 61.0381L59.8183 68.2918L54.9811 73.3076L46.7109 63.5075L51.8603 61.0381Z" fill="#E6E7E8"/>
<path d="M57.5556 74.8513L55.6831 134.423L59.8182 138.976L63.9532 134.423L62.1588 74.8513H57.5556Z" fill="#FF9011"/>
<path d="M27.1278 74.1567C28.3761 66.9031 36.4902 66.9031 49.2855 62.1188L59.8182 104.329L70.3509 62.1188C83.1462 66.9031 91.2603 66.9031 92.5086 74.1567C94.5371 85.886 87.7494 91.0561 87.6714 90.9789C87.6714 90.9789 87.1252 143.066 87.9835 155.644H61.7687L59.8182 146.539L57.8677 155.644H31.6529C32.5111 143.066 31.965 90.9789 31.965 90.9789C31.887 90.9789 25.0992 85.886 27.1278 74.1567Z" fill="#5E5B57"/>
<path d="M76.0458 63.5849L75.8117 70.9929L72.0668 74.0795L74.9535 78.015L59.9736 104.329L69.4141 60.1896L76.0458 63.5849Z" fill="#636061"/>
<path d="M43.5894 63.5849L43.9014 70.9929L47.6464 74.0795L44.6816 78.015L59.7395 104.329L50.2211 60.1896L43.5894 63.5849Z" fill="#636061"/>
<path d="M82.1321 113.511V93.8337C82.1321 91.6731 80.4157 89.9754 78.2311 89.9754H70.2731C68.0885 89.9754 66.3721 91.6731 66.3721 93.8337V113.511C66.3721 115.672 68.0885 117.369 70.2731 117.369H78.2311C80.3377 117.369 82.1321 115.595 82.1321 113.511Z" fill="#727071"/>
<path d="M70.5106 89.9754H78.0785C79.4049 89.9754 80.5752 90.5927 81.3554 91.5959C80.6532 91.0557 79.795 90.7471 78.9367 90.7471H71.3688C69.1062 90.7471 67.2337 92.5991 67.2337 94.8369V114.128C67.2337 115.054 67.5458 115.903 68.0919 116.521C67.0777 115.749 66.4535 114.591 66.4535 113.28V93.988C66.3755 91.8274 68.248 89.9754 70.5106 89.9754Z" fill="#C8C8C8"/>
<path d="M75.5001 93.5251V93.3708C75.5001 92.7535 74.9539 92.2133 74.3298 92.2133H74.1737C73.5496 92.2133 73.0034 92.7535 73.0034 93.3708V93.5251C73.0034 94.1425 73.5496 94.6826 74.1737 94.6826H74.3298C74.9539 94.6826 75.5001 94.1425 75.5001 93.5251Z" fill="#383643"/>
<path d="M41.8741 64.5879C31.8875 67.6745 24.7877 68.5234 23.6954 74.6966C21.6669 86.4259 19.3263 99.7756 18.078 113.974C17.6098 132.571 19.3263 155.798 19.3263 155.798H29.6249C29.703 155.721 29.859 140.905 30.2491 124.469C32.1216 112.431 33.0578 107.106 33.0578 107.106L44.1367 72.3045C43.9806 71.9187 42.8103 66.6714 41.8741 64.5879Z" fill="#5E5B57"/>
<path d="M78.7772 101.396C78.7772 101.396 81.898 101.705 84.2386 101.936C84.8628 101.936 85.4089 102.013 85.955 102.013C86.5012 102.013 87.0473 102.013 87.4374 102.09C88.2956 102.09 88.9198 102.09 88.9198 102.09L89.1539 111.813C89.1539 111.813 88.4517 111.813 87.3594 111.813C86.8133 111.813 86.1891 111.813 85.5649 111.736C84.9408 111.659 84.2386 111.659 83.5364 111.582C80.8057 111.35 77.4508 111.042 77.4508 111.042C75.3443 110.733 74.0179 108.341 74.4861 105.717C74.9542 103.016 76.9047 101.087 78.7772 101.396Z" fill="#FFD3B3"/>
<path d="M82.0534 98.8494C83.6918 99.0038 84.9401 100.161 85.8763 101.319C86.8126 102.399 87.4367 103.557 87.4367 103.634C87.8268 104.328 87.7488 105.331 87.2027 105.872C86.6565 106.412 85.8763 106.257 85.4862 105.486C85.4862 105.486 85.3302 105.254 85.1742 104.946C85.0181 104.637 84.706 104.251 84.394 103.788C83.6918 102.939 82.7555 102.09 81.6633 102.013C81.0391 101.936 80.571 101.164 80.727 100.238C80.8831 99.4668 81.4292 98.7723 82.0534 98.8494Z" fill="#FFD3B3"/>
<path d="M87.7502 113.897C91.8072 113.897 103.12 114.514 106.553 111.736C108.972 109.807 113.965 103.557 108.66 92.9849C104.29 84.188 97.1906 76.2399 90.4809 69.9894L78.7778 82.9534C84.9414 88.7408 90.3248 91.7503 96.0983 98.0779C97.8928 100.007 97.1906 100.702 97.1126 100.702C96.1763 101.473 90.5589 101.01 86.8919 100.779L85.9557 113.743C87.204 113.82 86.5018 113.897 87.7502 113.897Z" fill="#5E5B57"/>
<path d="M77.1395 30.5576L77.6856 23.6898C77.6856 14.7386 69.0254 7.48495 59.975 7.48495C50.9247 7.48495 42.2645 14.7386 42.2645 23.6898L42.8106 30.5576C42.3425 30.7119 41.8744 30.9434 41.4843 31.2521C40.7821 31.8694 40.314 32.7183 40.314 33.7214V37.1167C40.314 38.8916 41.7963 40.3577 43.5908 40.3577C43.5908 48.846 53.8895 56.7941 59.975 56.7941C66.1386 56.7941 76.3593 48.7688 76.3593 40.3577C78.1537 40.3577 79.6361 38.8916 79.6361 37.1167V33.7214C79.6361 32.1781 78.5438 30.9434 77.1395 30.5576Z" fill="#FFD3B3"/>
<path d="M60.1308 4.24447C33.682 0.771995 39.1434 30.4809 40.9379 36.114C41.2499 37.1172 42.6543 38.7377 42.6543 38.7377C43.2004 39.7409 41.2499 58.8009 60.2088 58.8009C79.1677 58.8009 77.2172 39.7409 77.7634 38.7377C77.7634 38.7377 79.1677 37.1944 79.4798 36.114C81.1183 30.4809 85.0193 7.56261 60.1308 4.24447ZM75.5788 38.1204C75.5788 40.281 74.2525 43.3677 72.38 44.7566C71.5998 45.374 70.5075 45.4511 69.5713 45.0653C68.0109 44.3708 64.5 43.8307 60.2088 43.8307C55.9177 43.8307 52.4068 44.448 50.8464 45.0653C49.9102 45.4511 48.8179 45.374 48.0377 44.7566C46.1652 43.3677 44.8389 40.2038 44.8389 38.1204C44.8389 38.1204 42.2642 28.7833 44.2147 21.9927C45.151 18.5974 49.364 16.6682 52.875 17.517C55.3716 18.1344 57.9463 18.3659 60.2869 18.3659C62.6275 18.3659 65.2021 18.1344 67.6988 17.517C71.1317 16.6682 75.3448 18.5974 76.359 21.9927C78.1535 28.7833 75.5788 38.1204 75.5788 38.1204Z" fill="#4A4743"/>
<path d="M68.1668 3.16428C74.1743 7.25408 75.6567 9.56906 78.3094 7.63991C79.0896 7.02258 80.2599 7.40841 80.4159 8.41157C82.2104 22.4558 64.8119 28.0118 48.3497 16.3597C40.6257 10.958 52.7188 -7.25314 68.1668 3.16428Z" fill="#4A4743"/>
<path d="M55.6841 47.3803H64.2663C64.5003 47.3803 64.6564 47.689 64.5003 47.9205C63.8762 48.4606 62.5498 49.2323 59.9752 49.2323C57.4005 49.2323 56.0742 48.4606 55.45 47.9205C55.294 47.689 55.45 47.3803 55.6841 47.3803Z" fill="#FFD3B3"/>
</g>
<defs>
<clipPath id="clip0_1612_6835">
<rect width="120" height="141" fill="white"/>
</clipPath>
</defs>
</svg>
