<svg width="120" height="141" viewBox="0 0 120 141" fill="none" xmlns="http://www.w3.org/2000/svg">
<g clip-path="url(#clip0_1612_7110)">
<path d="M16.387 9.37092L19.0629 13.2895C19.2301 13.5397 19.481 13.7064 19.8154 13.7064H24.5818C25.3343 13.7064 25.7524 14.5402 25.3343 15.2072L22.4076 18.959C22.2404 19.2092 22.1568 19.5427 22.2404 19.7928L23.6619 24.295C23.9128 25.0454 23.2438 25.7124 22.4913 25.4623L17.9758 23.8782C17.725 23.7948 17.3905 23.7948 17.1396 23.9615L13.2931 26.7129C12.7078 27.1298 11.788 26.7129 11.8716 25.9625L12.0388 21.2102C12.0388 20.8767 11.8716 20.6265 11.7044 20.4598L7.85785 17.7084C7.27252 17.2915 7.43976 16.291 8.10871 16.1243L12.6242 14.7903C12.875 14.7069 13.1259 14.4568 13.2095 14.2067L14.7147 9.70442C14.9655 8.87067 15.8853 8.70392 16.387 9.37092Z" fill="#FF9123"/>
<path d="M16.387 9.37092L19.0629 13.2895C19.2301 13.5397 19.481 13.7064 19.8154 13.7064H24.5818C25.3343 13.7064 25.7524 14.5402 25.3343 15.2072L22.4076 18.959C22.2404 19.2092 22.1568 19.5427 22.2404 19.7928L23.6619 24.295C23.9128 25.0454 23.2438 25.7124 22.4913 25.4623L17.9758 23.8782C17.725 23.7948 17.3905 23.7948 17.1396 23.9615L13.2931 26.7129C12.7078 27.1298 11.788 26.7129 11.8716 25.9625L12.0388 21.2102C12.0388 20.8767 11.8716 20.6265 11.7044 20.4598L7.85785 17.7084C7.27252 17.2915 7.43976 16.291 8.10871 16.1243L12.6242 14.7903C12.875 14.7069 13.1259 14.4568 13.2095 14.2067L14.7147 9.70442C14.9655 8.87067 15.8853 8.70392 16.387 9.37092Z" fill="#F3ECE4"/>
<path d="M102.599 83.7584L107.4 86.0094C107.76 86.1166 108.12 86.1166 108.36 86.0094L113.161 83.7584C113.881 83.4368 114.841 83.9728 114.721 84.7231L113.881 89.5468C113.881 89.8683 113.881 90.1899 114.241 90.4043L118.202 93.7272C118.802 94.2632 118.442 95.2279 117.602 95.3351L112.201 96.0854C111.841 96.0854 111.601 96.2998 111.361 96.6214L108.96 101.016C108.6 101.659 107.52 101.767 107.04 101.016L104.639 96.6214C104.519 96.2998 104.159 96.1926 103.799 96.0854L98.3981 95.4423C97.558 95.3351 97.1979 94.3704 97.798 93.8344L101.639 90.4043C101.879 90.1899 101.999 89.8683 101.879 89.5468L100.919 84.7231C100.919 83.9728 101.879 83.3297 102.599 83.7584Z" fill="#FF9123"/>
<path d="M102.599 83.7584L107.4 86.0094C107.76 86.1166 108.12 86.1166 108.36 86.0094L113.161 83.7584C113.881 83.4368 114.841 83.9728 114.721 84.7231L113.881 89.5468C113.881 89.8683 113.881 90.1899 114.241 90.4043L118.202 93.7272C118.802 94.2632 118.442 95.2279 117.602 95.3351L112.201 96.0854C111.841 96.0854 111.601 96.2998 111.361 96.6214L108.96 101.016C108.6 101.659 107.52 101.767 107.04 101.016L104.639 96.6214C104.519 96.2998 104.159 96.1926 103.799 96.0854L98.3981 95.4423C97.558 95.3351 97.1979 94.3704 97.798 93.8344L101.639 90.4043C101.879 90.1899 101.999 89.8683 101.879 89.5468L100.919 84.7231C100.919 83.9728 101.879 83.3297 102.599 83.7584Z" fill="#F3ECE4"/>
<path d="M38.1485 0.21934L38.6102 1.7424C38.6679 1.85956 38.7257 1.91814 38.7834 1.91814L40.2839 2.38677C40.5148 2.44535 40.5725 2.79683 40.3993 2.91398L39.1296 3.85125C39.0719 3.90983 39.0142 4.02699 39.0142 4.08557L39.0719 5.66721C39.0719 5.90153 38.7834 6.07726 38.6102 5.90152L37.3406 4.96426C37.2828 4.90568 37.1674 4.90568 37.052 4.90568L35.5515 5.43289C35.3206 5.49147 35.0898 5.31573 35.1475 5.08142L35.6092 3.55835C35.6669 3.4412 35.6092 3.38262 35.5515 3.26546L34.5703 1.97672C34.3972 1.80098 34.5703 1.50808 34.8012 1.50808H36.3594C36.4749 1.50808 36.5326 1.4495 36.5903 1.39093L37.456 0.102182C37.7445 -0.0735561 38.0908 -0.0149765 38.1485 0.21934Z" fill="#FF9123"/>
<path d="M38.1485 0.21934L38.6102 1.7424C38.6679 1.85956 38.7257 1.91814 38.7834 1.91814L40.2839 2.38677C40.5148 2.44535 40.5725 2.79683 40.3993 2.91398L39.1296 3.85125C39.0719 3.90983 39.0142 4.02699 39.0142 4.08557L39.0719 5.66721C39.0719 5.90153 38.7834 6.07726 38.6102 5.90152L37.3406 4.96426C37.2828 4.90568 37.1674 4.90568 37.052 4.90568L35.5515 5.43289C35.3206 5.49147 35.0898 5.31573 35.1475 5.08142L35.6092 3.55835C35.6669 3.4412 35.6092 3.38262 35.5515 3.26546L34.5703 1.97672C34.3972 1.80098 34.5703 1.50808 34.8012 1.50808H36.3594C36.4749 1.50808 36.5326 1.4495 36.5903 1.39093L37.456 0.102182C37.7445 -0.0735561 38.0908 -0.0149765 38.1485 0.21934Z" fill="#F3ECE4"/>
<path d="M52.9432 9.21665L41.5846 32.163C40.8517 33.622 39.486 34.6168 37.8872 34.8489L12.4718 38.5296C8.44131 39.1265 6.80913 44.0672 9.74039 46.8858L28.1274 64.7256C29.2932 65.853 29.8262 67.4778 29.5597 69.0694L22.1982 95.8291C21.9984 99.3109 27.4945 101.665 32.3577 99.4435L55.1083 87.5393C56.5407 86.7766 58.2395 86.7766 59.7051 87.5393L82.4557 99.4435C86.0531 101.334 90.2835 98.2829 89.584 94.2706L85.2537 69.0694C84.9872 67.4778 85.5202 65.853 86.6527 64.7256L105.006 46.8858C107.938 44.0672 106.305 39.1265 102.275 38.5296L76.8596 34.8489C75.2608 34.6168 73.8617 33.622 73.1622 32.163L62.1034 9.87984C60.7377 7.09444 59.0389 6.00018 53.7759 6.00018C52.0105 6.00018 53.8426 7.39288 52.9432 9.21665Z" fill="#C77C48"/>
<path d="M49.3774 8.71954L38.0187 31.6659C37.2859 33.1249 35.9202 34.1197 34.3214 34.3518L8.90598 38.0325C4.8755 38.6294 3.24332 43.5701 6.17458 46.3887L24.5616 64.2285C25.7274 65.3559 26.2604 66.9807 25.9606 68.5723L21.6303 93.7735C20.9308 97.7858 25.1612 100.836 28.7586 98.9464L51.5092 87.0422C52.9415 86.2795 54.6403 86.2795 56.106 87.0422L78.8232 98.9464C82.4207 100.836 86.6511 97.7858 85.9515 93.7735L81.6213 68.5723C81.3548 66.9807 81.8877 65.3559 83.0203 64.2285L101.407 46.3887C104.339 43.5701 102.706 38.6294 98.6759 38.0325L73.2605 34.3518C71.6616 34.1197 70.2626 33.1249 69.5631 31.6659L58.2045 8.71954C56.3724 5.072 51.1761 5.072 49.3774 8.71954Z" fill="#EFA470"/>
<path d="M57.0392 10.2118C57.0058 10.245 59.604 15.4178 62.8351 21.7844C66.0994 28.151 68.7642 33.2907 68.7975 33.2576C68.8308 33.2244 66.2327 28.0515 63.0016 21.6849C59.7706 15.3515 57.1058 10.2118 57.0392 10.2118Z" fill="white"/>
<path d="M74.2932 36.6401C74.2932 36.6401 74.3932 36.6733 74.5597 36.6733C74.7596 36.7065 75.0261 36.7396 75.3592 36.7728C76.092 36.8723 77.0913 36.9717 78.357 37.1375C80.8886 37.436 84.3528 37.8007 88.2167 38.2318C90.1487 38.4307 91.9807 38.6297 93.6462 38.8287C94.479 38.9281 95.2784 38.9944 96.0112 39.1271C96.744 39.2597 97.4102 39.4587 97.9765 39.724C99.109 40.2545 99.8085 41.0835 100.108 41.7135C100.408 42.3435 100.408 42.7415 100.441 42.7415C100.441 42.7415 100.441 42.7083 100.441 42.6751C100.441 42.642 100.441 42.5425 100.408 42.4762C100.375 42.2772 100.308 42.0119 100.175 41.6804C99.8751 41.0503 99.2089 40.1882 98.0431 39.6245C97.4768 39.3592 96.7773 39.1271 96.0445 38.9944C95.3117 38.8618 94.5123 38.7623 93.6795 38.6629C92.014 38.4639 90.182 38.2649 88.25 38.066C84.4194 37.6681 80.9219 37.2702 78.3903 37.0049C77.1246 36.8723 76.1253 36.7728 75.3925 36.7065C75.0594 36.6733 74.7929 36.6401 74.593 36.6401C74.3932 36.6401 74.2932 36.6401 74.2932 36.6401Z" fill="white"/>
<path d="M38.456 92.3347C34.4831 94.5679 31.2405 96.3394 31.2133 96.2916C31.1862 96.2437 34.3849 94.3946 38.3577 92.1614C42.3306 89.9283 45.5733 88.1567 45.6004 88.2045C45.6275 88.2524 42.4289 90.1015 38.456 92.3347Z" fill="white"/>
<path d="M50.2138 85.683C50.2138 85.7161 50.8134 85.3514 51.8793 85.1524C52.9452 84.9203 54.4775 84.9535 56.0764 85.4177C57.6752 85.8819 59.0076 86.6114 59.9403 87.142C60.4066 87.4072 60.773 87.6062 61.0728 87.772C61.3393 87.9046 61.5059 88.0041 61.5059 88.0041C61.5059 88.0041 61.3726 87.9046 61.1061 87.7388C60.8397 87.573 60.4733 87.3409 60.0069 87.0425C59.0742 86.4788 57.7418 85.7493 56.1097 85.2519C54.4775 84.7877 52.9119 84.7877 51.846 85.0198C51.313 85.1524 50.88 85.3182 50.6135 85.4508C50.4803 85.5172 50.3804 85.5835 50.3137 85.6166C50.2471 85.6498 50.2138 85.683 50.2138 85.683Z" fill="white"/>
<path d="M78.636 116.622L80.9253 118.819C81.0889 118.976 81.2933 119.015 81.4977 118.976L84.6865 118.427C85.1771 118.348 85.5859 118.858 85.3406 119.29L83.8688 122.076C83.7871 122.233 83.7871 122.469 83.8688 122.626L85.4223 125.372C85.6676 125.804 85.2997 126.314 84.7682 126.236L81.5386 125.765C81.3342 125.726 81.1298 125.804 81.0071 125.961L78.7586 128.237C78.3907 128.59 77.7774 128.394 77.6957 127.923L77.1642 124.862C77.1233 124.666 77.0007 124.509 76.7963 124.431L73.8528 123.096C73.4031 122.9 73.3622 122.233 73.8528 122.037L76.7554 120.624C76.9189 120.546 77.0416 120.35 77.0824 120.153L77.4913 117.053C77.6548 116.504 78.268 116.308 78.636 116.622Z" fill="#F3ECE4"/>
<path d="M31.7956 121.133L29.8137 125.894C29.6721 126.234 29.7367 126.559 29.9221 126.835L32.7177 131.176C33.1385 131.848 32.6034 132.772 31.7891 132.685L26.6012 132.288C26.3096 132.267 25.9473 132.417 25.7557 132.637L22.4783 136.663C21.964 137.298 20.9539 137.08 20.7496 136.249L19.4992 131.201C19.4346 130.875 19.1888 130.624 18.8723 130.544L13.9944 128.681C13.2259 128.364 13.1528 127.337 13.8275 126.918L18.2131 124.196C18.4901 124.011 18.6567 123.731 18.6524 123.381L18.9057 118.206C18.9326 117.42 19.9343 116.937 20.5363 117.534L24.4855 120.906C24.7063 121.097 25.0832 121.153 25.4102 121.089L30.4312 119.724C31.3767 119.616 32.0537 120.393 31.7956 121.133Z" fill="#F3ECE4"/>
</g>
<defs>
<clipPath id="clip0_1612_7110">
<rect width="120" height="141" fill="white"/>
</clipPath>
</defs>
</svg>
