<svg width="120" height="141" viewBox="0 0 120 141" fill="none" xmlns="http://www.w3.org/2000/svg">
<g clip-path="url(#clip0_1612_6803)">
<g clip-path="url(#clip1_1612_6803)">
<path d="M94.4779 77.8788L90.3737 76.5274L75.5357 71.8132L60.3819 120.212L45.2281 71.8132L30.3901 76.5274L26.2859 77.8788C21.3925 79.513 18.0776 84.0701 18.0776 89.2242V132.783H102.686V89.2242C102.686 84.0701 99.3713 79.513 94.4779 77.8788Z" fill="#5E5B57"/>
<path d="M45.2271 71.8132L60.3808 120.212L75.5346 71.8132L69.2205 67.099H51.5411L45.2271 71.8132Z" fill="#EDEFF1"/>
<path d="M69.2205 67.099L60.3808 75.8988L51.5411 67.099L45.2271 71.8132L46.553 76.0245L53.4353 86.2071L59.3706 77.8159L60.4124 77.2816L61.4542 77.8159L67.3894 86.2071L74.2718 76.0245L75.5346 71.8132L69.2205 67.099Z" fill="#D3D3D3"/>
<path d="M62.9068 86.5847H60.3812H57.8556L56.5928 108.144L60.3812 120.212L64.1696 108.144L62.9068 86.5847Z" fill="#FF9123"/>
<path d="M62.9068 86.5847H60.3812H57.8556L56.5928 108.144L60.3812 120.212L64.1696 108.144L62.9068 86.5847Z" fill="url(#paint0_linear_1612_6803)" fill-opacity="0.5"/>
<path d="M60.3805 86.5844H62.9062L66.3158 82.5617L62.2748 76.8418L60.3805 75.899L58.4863 76.8418L54.4453 82.5617L57.8549 86.5844H60.3805Z" fill="#FF9123"/>
<path d="M60.3805 86.5844H62.9062L66.3158 82.5617L62.2748 76.8418L60.3805 75.899L58.4863 76.8418L54.4453 82.5617L57.8549 86.5844H60.3805Z" fill="url(#paint1_linear_1612_6803)" fill-opacity="0.5"/>
<path d="M61.4546 84.6986H59.3394C58.4238 84.6986 57.5399 84.2901 56.94 83.5987L55.2037 81.5558L54.4775 82.593L57.8556 86.5843H62.9068L66.3164 82.5615L65.5903 81.5244L63.8539 83.5672C63.2541 84.2901 62.3701 84.6986 61.4546 84.6986Z" fill="black" fill-opacity="0.1"/>
<path d="M60.3817 58.6139H51.542V67.0994L60.3817 75.8992L69.2214 67.0994V58.6139H60.3817Z" fill="#FFD3B3"/>
<path d="M51.542 63.0138C54.1623 64.1766 57.3194 64.8995 60.3817 64.8995C63.444 64.8995 66.6011 64.1766 69.2214 63.0138V58.6139H51.542V63.0138Z" fill="#FCB98B"/>
<path d="M41.4391 30.6431H39.2608C37.3981 30.6431 35.9459 32.2459 36.1353 34.1001L36.7667 40.3857C36.9245 41.9885 38.2821 43.2142 39.8922 43.2142H41.4391V30.6431Z" fill="#FFD3B3"/>
<path d="M79.3228 30.6431H81.5327C83.3953 30.6431 84.8476 32.2459 84.6897 34.1001L84.0583 40.3857C83.9005 41.9885 82.5429 43.2142 80.9013 43.2142H79.3228V30.6431Z" fill="#FFD3B3"/>
<path d="M37.7139 82.9387L45.2276 71.8132L60.3814 120.212L43.2387 96.7355L44.8488 89.7271L37.7139 82.9387Z" fill="#4A4743"/>
<path d="M86.269 113.298H88.1633V117.698H86.269V113.298Z" fill="#4A4743"/>
<path d="M83.0484 82.9387L75.5347 71.8132L60.3809 120.212L77.5236 96.7355L75.9135 89.7271L83.0484 82.9387Z" fill="#4A4743"/>
<path d="M51.5411 67.099L45.2271 71.8132L53.4354 83.9758L58.4866 76.8416L60.3808 75.8988L51.5411 67.099Z" fill="#EDEFF1"/>
<path d="M69.2206 67.099L75.5346 71.8132L67.3263 83.9758L62.2751 76.8416L60.3809 75.8988L69.2206 67.099Z" fill="#EDEFF1"/>
<path d="M60.3812 22.4714H41.439V43.5281C41.439 53.9307 49.9314 62.3848 60.3812 62.3848C70.8309 62.3848 79.3233 53.9307 79.3233 43.5281V22.4714H60.3812Z" fill="#FFD3B3"/>
<path d="M32.5986 113.298H34.4929V117.698H32.5986V113.298Z" fill="#4A4743"/>
<path d="M60.3806 2.98645H55.6451C50.0571 2.98645 45.5426 7.48063 45.5426 13.0434C42.0698 13.0434 39.2285 15.8719 39.2285 19.3289V30.6429H41.4384V36.9285L44.5955 30.6429C49.552 27.4373 49.0153 22.4717 49.0153 22.4717C49.0153 22.4717 51.9514 25.9288 60.3806 25.9288C68.8099 25.9288 71.746 22.4717 71.746 22.4717C71.746 22.4717 71.2093 27.4373 76.1658 30.6429L79.3229 36.9285V30.6429H81.5328V19.3289C81.5328 15.8719 78.6914 13.0434 75.2187 13.0434C75.2187 7.48063 70.7041 2.98645 65.1162 2.98645H60.3806Z" fill="#4A4743"/>
<path d="M10.5 117.698H110.262V132.783H10.5V117.698Z" fill="#EFA470"/>
<path d="M16.1821 132.784H104.579V160.754H16.1821V132.784Z" fill="#EFA470"/>
<path d="M16.1821 132.784H104.579V135.926H16.1821V132.784Z" fill="black" fill-opacity="0.15"/>
<path d="M75.5347 117.698H43.9644L46.2374 113.141C46.7741 112.072 47.8791 111.412 49.0472 111.412H70.3887C71.5884 111.412 72.6934 112.072 73.1985 113.141L75.5347 117.698Z" fill="#4A4743"/>
<path d="M59.4346 65.2134H61.3288V111.412H59.4346V65.2134Z" fill="#4A4743"/>
<path d="M60.3812 69.9279C58.6448 69.9279 57.2241 68.5136 57.2241 66.7851V63.6423C57.2241 61.9138 58.6448 60.4995 60.3812 60.4995C62.1175 60.4995 63.5382 61.9138 63.5382 63.6423V66.7851C63.5382 68.5136 62.1175 69.9279 60.3812 69.9279Z" fill="#5E5B57"/>
</g>
</g>
<defs>
<linearGradient id="paint0_linear_1612_6803" x1="58.7357" y1="88.9624" x2="74.1146" y2="97.3517" gradientUnits="userSpaceOnUse">
<stop stop-color="#FFCA00"/>
<stop offset="0.791667" stop-color="#FF9000"/>
</linearGradient>
<linearGradient id="paint1_linear_1612_6803" x1="57.8026" y1="76.6545" x2="61.5996" y2="86.8668" gradientUnits="userSpaceOnUse">
<stop stop-color="#FFCA00"/>
<stop offset="0.791667" stop-color="#FF9000"/>
</linearGradient>
<clipPath id="clip0_1612_6803">
<rect width="120" height="141" fill="white"/>
</clipPath>
<clipPath id="clip1_1612_6803">
<rect width="99.7623" height="157.768" fill="white" transform="translate(10.5 2.98645)"/>
</clipPath>
</defs>
</svg>
