<svg width="120" height="141" viewBox="0 0 120 141" fill="none" xmlns="http://www.w3.org/2000/svg">
<g clip-path="url(#clip0_1612_6876)">
<g clip-path="url(#clip1_1612_6876)">
<path d="M107.16 53.8564L104.708 62.5391L105.351 67.3758L113.814 70.1146L117.024 66.4434L120 57.9355L107.16 53.8564Z" fill="#FCB98B"/>
<path d="M103.774 72.0959L105.291 67.3759L113.754 70.1147L112.237 74.8348L103.774 72.0959Z" fill="#FFD3B3"/>
<path d="M111.77 57.9358L107.918 56.712C106.459 56.2459 104.883 57.0617 104.416 58.5185C104.299 58.9264 104.241 59.3343 104.299 59.7422L105.291 67.376L109.786 68.8328L110.603 66.7932C111.128 65.453 110.953 63.9961 110.253 62.7724L108.91 60.6163L110.778 61.199C111.653 61.4904 112.646 60.9659 112.937 60.0919C113.229 59.1595 112.704 58.2271 111.77 57.9358Z" fill="#FFD3B3"/>
<path d="M115.681 72.4455L102.899 68.5412L98.5803 82.5267L96.0122 76.2332C94.2613 71.5131 90.4091 67.8419 85.5648 66.4434L73.0161 62.4225L67.6465 103.563V138.061H85.5648V90.7432L91.1095 104.321C94.0862 111.663 104.825 110.672 106.401 102.922L106.576 102.106L115.681 72.4455Z" fill="white"/>
<path d="M115.681 72.4455L102.899 68.5412L98.5803 82.5267L96.0122 76.2332C94.2613 71.5131 90.4091 67.8419 85.5648 66.4434L73.0161 62.4225L67.6465 103.563V138.061H85.5648V90.7432L91.1095 104.321C94.0862 111.663 104.825 110.672 106.401 102.922L106.576 102.106L115.681 72.4455Z" fill="url(#paint0_linear_1612_6876)"/>
<path d="M97.7045 80.1958L94.8446 89.4612C93.9108 92.4914 93.4438 95.6964 93.4438 98.8431V99.659L98.6968 82.585L97.7045 80.1958Z" fill="black" fill-opacity="0.15"/>
<path d="M47.335 62.4225L52.7046 103.563V138.002H67.7046V103.563L73.0743 62.4225L67.7046 61.0822H52.7046L47.335 62.4225Z" fill="#FFD3AA"/>
<path d="M57.2563 133.69H63.1513V137.944H57.2563V133.69Z" fill="#F89942"/>
<path d="M52.7036 133.69H57.2561V137.944H52.7036V133.69Z" fill="#686561"/>
<path d="M63.1523 133.69H67.7049V137.944H63.1523V133.69Z" fill="#686561"/>
<path d="M67.7036 61.0822H52.7036L50.0771 61.7232C50.4273 67.026 54.8631 71.2217 60.2328 71.2217C62.976 71.2217 65.5441 70.1728 67.4702 68.2498C69.2211 66.5016 70.2717 64.229 70.3884 61.7815L67.7036 61.0822Z" fill="black" fill-opacity="0.1"/>
<path d="M60.1744 51.1758H52.7036V61.024C52.7036 65.1613 56.0888 68.5412 60.2328 68.5412C64.3768 68.5412 67.762 65.1613 67.762 61.024L67.7036 51.1758H60.1744Z" fill="#FFD3B3"/>
<path d="M52.7036 54.9052C54.9215 55.8958 57.6063 56.4785 60.1744 56.4785C62.7425 56.4785 65.4273 55.8958 67.6452 54.9052V50.8843H52.7036V54.9052Z" fill="#FCB98B"/>
<path d="M44.1242 27.401H42.2565C40.6806 27.401 39.4549 28.7413 39.5717 30.3146L40.0969 35.6757C40.2137 37.016 41.381 38.0649 42.7818 38.0649H44.1242V27.401Z" fill="#FFD3B3"/>
<path d="M76.2261 27.401H78.0938C79.6697 27.401 80.8953 28.7413 80.7786 30.3146L80.2533 35.6757C80.1366 37.016 78.9693 38.0649 77.5685 38.0649H76.2261V27.401Z" fill="#FFD3B3"/>
<path d="M80.5453 64.8117L73.0161 62.4225L67.6465 103.563L78.8527 82.4684L75.6426 73.3778L80.5453 64.8117Z" fill="black" fill-opacity="0.15"/>
<path d="M15.1162 67.3758L15.8166 63.2384C15.6415 61.8398 15.3496 60.4413 14.9411 59.101L13.2485 53.8564L0.23291 58.0521L1.92552 63.2967C2.33408 64.6369 2.91773 65.9772 3.61812 67.2009L6.59478 70.1146L8.11229 74.8347L16.5753 72.0959L15.1162 67.3758Z" fill="#FFD3B3"/>
<path d="M11.1473 58.5185L14.4158 57.4696L14.9411 59.1012C15.0578 59.5091 15.1745 59.9171 15.2913 60.3832C15.1745 60.4415 14.9994 60.5581 14.8243 60.5581L11.264 61.7235C10.3885 62.0149 9.39633 61.7818 8.75431 61.2573C8.63758 61.1991 8.52085 61.1991 8.40411 61.1408C8.05392 61.6652 7.58699 62.0732 6.94497 62.248C6.30295 62.4228 5.66092 62.4228 5.13563 62.1897C4.78544 62.7142 4.31851 63.1221 3.67649 63.2969C3.03447 63.4717 2.39244 63.4717 1.86715 63.2386L0.23291 58.1106L9.97999 54.9639L11.1473 58.5185Z" fill="#FCB98B"/>
<path d="M9.9801 54.9055L13.2486 53.8566L10.1552 44.3581C9.86337 43.484 8.92952 42.9595 7.99567 43.2509C7.12018 43.5423 6.59489 44.4746 6.88672 45.407L9.9801 54.9055Z" fill="#FFD3B3"/>
<path d="M9.92248 60.2666C10.8563 59.9752 11.3233 59.0429 11.0314 58.1105L9.2221 52.458C8.93027 51.5839 7.99641 51.0595 7.06256 51.3508C6.18708 51.6422 5.66178 52.5746 5.95361 53.5069L7.76295 59.1594C8.05478 60.0918 8.98863 60.558 9.92248 60.2666Z" fill="#FFD3B3"/>
<path d="M15.6418 57.4692C15.35 56.5951 14.4161 56.0707 13.4823 56.3621L9.92194 57.5275C9.04645 57.8189 8.52116 58.7512 8.81299 59.6836C9.10482 60.5577 10.0387 61.0821 10.9725 60.7908L14.5328 59.6253C15.4083 59.334 15.9336 58.4016 15.6418 57.4692Z" fill="#FFD3B3"/>
<path d="M6.65386 61.3152C7.58772 61.0239 8.05464 60.0915 7.76281 59.1591L6.18694 54.2059C5.89511 53.3318 4.96126 52.8074 4.02741 53.0987C3.15192 53.3901 2.62663 54.3225 2.91846 55.2548L4.49433 60.2081C4.78616 61.0821 5.72001 61.6066 6.65386 61.3152Z" fill="#FFD3B3"/>
<path d="M3.38447 62.3642C4.31832 62.0728 4.78524 61.1404 4.49341 60.2081L3.3261 56.5952C3.03427 55.7211 2.10042 55.1966 1.16657 55.488C0.29108 55.7793 -0.234212 56.7117 0.0576168 57.6441L1.22493 61.257C1.51676 62.1311 2.50898 62.6555 3.38447 62.3642Z" fill="#FFD3B3"/>
<path d="M10.4469 68.8323C10.4469 68.774 9.39628 65.1028 6.59473 64.4036L6.76982 63.646C10.0383 64.4618 11.1473 68.4827 11.1473 68.6575L10.4469 68.8323Z" fill="#FCB98B"/>
<path d="M47.3924 62.4225L34.8438 66.4434C29.9994 67.9002 26.1473 71.5131 24.3963 76.2332L21.8282 82.5267L17.5092 68.5412L4.72705 72.4455L13.8321 101.99L14.0072 102.806C15.5831 110.556 26.3224 111.547 29.299 104.204L34.8438 90.6266V137.944H52.7621V103.447L47.3924 62.4225Z" fill="white"/>
<path d="M47.3924 62.4225L34.8438 66.4434C29.9994 67.9002 26.1473 71.5131 24.3963 76.2332L21.8282 82.5267L17.5092 68.5412L4.72705 72.4455L13.8321 101.99L14.0072 102.806C15.5831 110.556 26.3224 111.547 29.299 104.204L34.8438 90.6266V137.944H52.7621V103.447L47.3924 62.4225Z" fill="url(#paint1_linear_1612_6876)"/>
<path d="M22.7041 80.1958L25.5641 89.4612C26.4979 92.4914 26.9648 95.6964 26.9648 98.8431V99.659L21.7119 82.585L22.7041 80.1958Z" fill="black" fill-opacity="0.15"/>
<path d="M39.8643 64.8117L47.3934 62.4225L52.7631 103.563L41.4401 82.4101L44.6502 73.3196L39.8643 64.8117Z" fill="black" fill-opacity="0.15"/>
<path d="M44.124 20.4664V38.3562C44.124 47.2137 51.303 54.3812 60.1746 54.3812C69.0462 54.3812 76.2252 47.2137 76.2252 38.3562V20.4664H44.124Z" fill="#FFD3B3"/>
<path d="M72.7816 12.4827C72.7816 7.76264 68.9295 3.91663 64.2019 3.91663H55.9139C48.4431 3.91663 42.4314 9.86046 42.2563 17.2611V27.4006H44.124V32.7617L46.8089 27.4006V22.797C49.2019 23.3798 52.4704 23.3798 56.4392 23.3798C65.1941 23.3798 69.805 20.4661 69.805 20.4661C69.805 20.4661 73.5404 20.7575 73.5404 27.4006L76.2252 32.7617V27.4006H78.0929V17.7856C78.0929 14.8719 75.6999 12.4827 72.7816 12.4827Z" fill="#4A4743"/>
</g>
<g clip-path="url(#clip2_1612_6876)">
<path d="M94.4268 27.4167H120.001V60.7084H94.4268V27.4167Z" fill="#F5F5F5"/>
<path d="M116.753 52.6656H96.9639V31.901H98.3339V51.3008H116.753V52.6656Z" fill="#686561"/>
<path d="M100.008 45.3054H104.169V49.9848H100.008V45.3054Z" fill="#FF9123"/>
<path d="M100.008 45.3054H104.169V49.9848H100.008V45.3054Z" fill="#686561"/>
<path d="M106.301 42.1377H110.462V49.9366H106.301V42.1377Z" fill="#FF9123"/>
<path d="M106.301 42.1377H110.462V49.9366H106.301V42.1377Z" fill="#686561"/>
<path d="M112.541 39.7003H116.753V49.9851H112.592V39.7003H112.541Z" fill="#FF9123"/>
<path d="M112.541 39.7003H116.753V49.9851H112.592V39.7003H112.541Z" fill="#686561"/>
<path d="M108.381 39.4079L105.133 37.2145L102.546 39.3104L101.632 38.2868L105.083 35.5084L108.381 37.7506L111.984 35.1672L112.795 36.2396L108.381 39.4079Z" fill="#686561"/>
<path d="M113.1 37.5561L114.673 34.144L110.817 34.5827L113.1 37.5561Z" fill="#686561"/>
</g>
<g clip-path="url(#clip3_1612_6876)">
<path d="M13.8554 32.8488C21.5075 32.8488 27.7108 26.645 27.7108 18.9921C27.7108 11.3393 21.5075 5.13541 13.8554 5.13541C6.20327 5.13541 0 11.3393 0 18.9921C0 26.645 6.20327 32.8488 13.8554 32.8488Z" fill="#FF9123"/>
<path d="M13.8554 32.8488C21.5075 32.8488 27.7108 26.645 27.7108 18.9921C27.7108 11.3393 21.5075 5.13541 13.8554 5.13541C6.20327 5.13541 0 11.3393 0 18.9921C0 26.645 6.20327 32.8488 13.8554 32.8488Z" fill="#686561"/>
<path d="M13.8554 30.5545C20.2406 30.5545 25.4169 25.3778 25.4169 18.9919C25.4169 12.6061 20.2406 7.42938 13.8554 7.42938C7.47019 7.42938 2.29395 12.6061 2.29395 18.9919C2.29395 25.3778 7.47019 30.5545 13.8554 30.5545Z" fill="#F5F5F5"/>
<path d="M13.2583 8.16327H14.497V10.6868H13.2583V8.16327Z" fill="#FF9123"/>
<path d="M13.2583 8.16327H14.497V10.6868H13.2583V8.16327Z" fill="#686561"/>
<path d="M22.2056 18.3959H24.7289V19.6347H22.2056V18.3959Z" fill="#FF9123"/>
<path d="M22.2056 18.3959H24.7289V19.6347H22.2056V18.3959Z" fill="#686561"/>
<path d="M13.2583 27.3432H14.497V29.8668H13.2583V27.3432Z" fill="#FF9123"/>
<path d="M13.2583 27.3432H14.497V29.8668H13.2583V27.3432Z" fill="#686561"/>
<path d="M3.02783 18.3959H5.55117V19.6347H3.02783V18.3959Z" fill="#FF9123"/>
<path d="M3.02783 18.3959H5.55117V19.6347H3.02783V18.3959Z" fill="#686561"/>
<path d="M16.7451 22.7549L13.2583 19.2678V12.5229H14.497V18.7172L17.6168 21.8372L16.7451 22.7549Z" fill="#FF9123"/>
<path d="M16.7451 22.7549L13.2583 19.2678V12.5229H14.497V18.7172L17.6168 21.8372L16.7451 22.7549Z" fill="#686561"/>
<path d="M13.8549 20.3228C14.5897 20.3228 15.1854 19.7271 15.1854 18.9922C15.1854 18.2574 14.5897 17.6616 13.8549 17.6616C13.1201 17.6616 12.5244 18.2574 12.5244 18.9922C12.5244 19.7271 13.1201 20.3228 13.8549 20.3228Z" fill="#686561"/>
<path d="M32.9865 31.6102C32.9865 30.9678 32.8947 30.3713 32.7571 29.8207L35.5098 28.2148L33.6288 24.9571L30.8761 26.563C30.0044 25.7371 28.9492 25.0948 27.7563 24.7736V21.5618H23.9942V24.7736C22.8014 25.0948 21.7003 25.7371 20.8745 26.563L18.1218 24.9571L16.2407 28.2148L18.9935 29.8207C18.8558 30.4172 18.7641 31.0137 18.7641 31.6102C18.7641 32.2525 18.8558 32.849 18.9935 33.3996L16.2407 35.0055L18.1218 38.2632L20.8745 36.6573C21.7462 37.4832 22.8014 38.1256 23.9942 38.4468V41.6586H27.7563V38.4468C28.9492 38.1256 30.0502 37.4832 30.8761 36.6573L33.6288 38.2632L35.5098 35.0055L32.7571 33.3996C32.8947 32.849 32.9865 32.2525 32.9865 31.6102ZM25.8294 34.1337C24.453 34.1337 23.3061 32.9867 23.3061 31.6102C23.3061 30.2337 24.453 29.0866 25.8294 29.0866C27.2058 29.0866 28.3527 30.2337 28.3527 31.6102C28.3527 33.0325 27.2516 34.1337 25.8294 34.1337Z" fill="#D3D3D3"/>
<path d="M25.8293 36.8869C22.9389 36.8869 20.5532 34.5468 20.5532 31.6103C20.5532 28.6738 22.9389 26.3796 25.8293 26.3796C28.7197 26.3796 31.1054 28.7197 31.1054 31.6562C31.1054 34.5927 28.7655 36.8869 25.8293 36.8869ZM25.8293 27.6185C23.6271 27.6185 21.8378 29.4079 21.8378 31.6103C21.8378 33.8127 23.6271 35.6021 25.8293 35.6021C28.0315 35.6021 29.8207 33.8127 29.8207 31.6103C29.8207 29.4079 28.0315 27.6185 25.8293 27.6185Z" fill="#EDEFF1"/>
</g>
</g>
<defs>
<linearGradient id="paint0_linear_1612_6876" x1="91.664" y1="62.4225" x2="91.664" y2="138.061" gradientUnits="userSpaceOnUse">
<stop stop-color="#A8CED7"/>
<stop offset="0.0001" stop-color="#87B6C1"/>
<stop offset="1" stop-color="#A8CED7"/>
</linearGradient>
<linearGradient id="paint1_linear_1612_6876" x1="28.7446" y1="62.4225" x2="28.7446" y2="137.944" gradientUnits="userSpaceOnUse">
<stop stop-color="#A8CED7"/>
<stop offset="0.0001" stop-color="#87B6C1"/>
<stop offset="1" stop-color="#A8CED7"/>
</linearGradient>
<clipPath id="clip0_1612_6876">
<rect width="120" height="141" fill="white"/>
</clipPath>
<clipPath id="clip1_1612_6876">
<rect width="120" height="134.086" fill="white" transform="translate(0 3.91663)"/>
</clipPath>
<clipPath id="clip2_1612_6876">
<rect width="25.5738" height="33.2917" fill="white" transform="translate(94.4268 27.4167)"/>
</clipPath>
<clipPath id="clip3_1612_6876">
<rect width="35.5102" height="36.5689" fill="white" transform="translate(0 5.13541)"/>
</clipPath>
</defs>
</svg>
