<svg width="120" height="141" viewBox="0 0 120 141" fill="none" xmlns="http://www.w3.org/2000/svg">
<path d="M102.872 54.6101H97.2642V71.3854H108.596V60.1633C108.479 57.0396 105.909 54.6101 102.872 54.6101Z" fill="#FFA436"/>
<path d="M102.873 60.1636L85.933 82.492H14.9033V48.9415C14.9033 45.8178 17.4735 43.3883 20.5109 43.3883H47.9648C49.4836 43.3883 50.8855 43.9668 51.9369 45.008L61.6334 54.6104H97.1482C100.302 54.6104 102.873 57.0399 102.873 60.1636Z" fill="#F9CD6E"/>
<path d="M75.3003 65.7167H20.5093V82.492H75.3003V65.7167Z" fill="white"/>
<path d="M102.872 65.7167L97.2642 71.2699V127.612H102.872C106.026 127.612 108.479 125.066 108.479 122.059V71.3856C108.479 68.2619 105.909 65.7167 102.872 65.7167Z" fill="#FFBC2B"/>
<path d="M102.873 65.7167V122.059C102.873 125.182 100.302 127.612 97.265 127.612H20.5109C17.3566 127.612 14.9033 125.066 14.9033 122.059V82.492C14.9033 79.3683 17.4735 76.9388 20.5109 76.9388H61.6334L71.3299 67.3364C72.3813 66.2952 73.7832 65.7167 75.3019 65.7167H102.873Z" fill="#F9CD6E"/>
<path d="M102.871 53.2221H62.3329L53.1037 44.0824C51.7018 42.6941 49.9494 42 48.0802 42H20.5095C16.6543 42 13.5 45.1237 13.5 48.9415V122.059C13.5 125.876 16.6543 129 20.5095 129H102.754C106.61 129 109.764 125.876 109.764 122.059V60.1636C109.881 56.3457 106.726 53.2221 102.871 53.2221ZM20.5095 44.7766H47.9634C49.1317 44.7766 50.1831 45.2394 51.0009 46.0492L60.6974 55.6516C60.931 55.883 61.2815 56.1144 61.7488 56.1144H102.871C105.208 56.1144 107.077 57.9654 107.077 60.2793V65.8324C106.259 65.254 105.325 64.7912 104.273 64.5598V60.2793C104.273 59.4694 103.689 58.891 102.871 58.891H20.5095C19.6917 58.891 19.1076 59.4694 19.1076 60.2793V75.7819C18.0562 76.0133 17.1216 76.4761 16.3038 77.0545V48.9415C16.3038 46.6277 18.173 44.7766 20.5095 44.7766ZM31.8415 64.3285C31.0238 64.3285 30.4396 64.9069 30.4396 65.7168C30.4396 66.5266 31.0238 67.1051 31.8415 67.1051H69.5761L61.1646 75.5505H22.0282V67.1051H26.2339C27.0517 67.1051 27.6358 66.5266 27.6358 65.7168C27.6358 64.9069 27.0517 64.3285 26.2339 64.3285H22.0282V61.5519H61.7488H101.469V64.3285H31.8415ZM107.077 122.059C107.077 124.372 105.208 126.223 102.871 126.223H20.5095C18.173 126.223 16.3038 124.372 16.3038 122.059V82.492C16.3038 80.1782 18.173 78.3271 20.5095 78.3271H61.632C61.9824 78.3271 62.3329 78.2114 62.6834 77.8644L72.3799 68.262C73.1976 67.4521 74.2491 66.9894 75.4173 66.9894H102.871C105.208 66.9894 107.077 68.8404 107.077 71.1543V122.059Z" fill="#6E6B67"/>
<path d="M101.283 23.4288L90.6614 20.7861L88.775 18.0652C88.4909 17.6521 88.0664 17.3752 87.5745 17.2529L80.3601 15.4578C79.349 15.2062 78.3395 15.7256 78.1188 16.6124L73.9005 33.5665C73.6798 34.4533 74.3282 35.3851 75.3394 35.6367L96.8826 40.9969C97.8937 41.2484 98.9031 40.7291 99.1238 39.8423L102.696 25.4841C102.933 24.6099 102.294 23.6803 101.283 23.4288Z" fill="#F3ECE4"/>
<path d="M41.1228 13.4501L33.1875 10.9527L31.8825 8.801C31.6861 8.4744 31.3769 8.2447 31.0094 8.12903L25.6194 6.43266C24.8639 6.19491 24.074 6.54209 23.8655 7.20464L19.879 19.8714C19.6705 20.534 20.1192 21.2709 20.8746 21.5087L36.97 26.5743C37.7254 26.812 38.5153 26.4648 38.7238 25.8023L42.0999 15.075C42.3202 14.4227 41.8783 13.6879 41.1228 13.4501Z" fill="#F3ECE4"/>
<path d="M66.2631 2.55789L57.5755 5.06545L55.1005 3.90111C54.7264 3.72337 54.3083 3.70116 53.906 3.81729L48.005 5.52054C47.178 5.75925 46.6713 6.54842 46.8807 7.27377L50.8833 21.1411C51.0927 21.8665 51.942 22.2642 52.769 22.0255L70.3899 16.9394C71.2169 16.7007 71.7237 15.9115 71.5143 15.1862L68.1245 3.44215C67.9319 2.71909 67.0901 2.31918 66.2631 2.55789Z" fill="#F3ECE4"/>
</svg>
