<svg width="120" height="141" viewBox="0 0 120 141" fill="none" xmlns="http://www.w3.org/2000/svg">
<g clip-path="url(#clip0_1612_6748)">
<path d="M70.75 65.0335L68.1667 63.7666V55.4052H51.3333V63.7666L48.75 64.9491L49.4167 88.8511H51.3333V92.5673H68.1667V88.8511H70.0833L70.75 65.0335Z" fill="#F7CDB9"/>
<path d="M68.1673 56.2496V63.0909L51.334 59.5436V56.2496H68.1673Z" fill="#F7CDB9"/>
<path d="M95.5004 77.7875C92.4171 70.9462 83.7504 69.3415 71.4171 64.9496C71.0004 64.7807 70.5004 64.6118 70.0837 64.4429V64.5273C69.2504 69.1726 66.9171 75.2537 59.7504 75.9294C52.5838 75.2537 50.2504 69.1726 49.4171 64.5273V64.4429C49.0004 64.6118 48.5004 64.7807 48.0838 64.9496C35.6671 69.2571 27.0838 70.9462 24.0004 77.7875C20.1671 86.4868 31.2504 95.4395 31.2504 95.4395C31.2504 95.4395 32.2504 149.916 33.9171 149.916H59.8337H85.7504C87.4171 149.916 88.4171 95.4395 88.4171 95.4395C88.4171 95.4395 99.3337 86.4868 95.5004 77.7875Z" fill="#B1C3DE"/>
<path d="M63.7504 74.5782L62.167 77.7032H57.2503L55.667 74.5782L59.7503 71.1998L63.7504 74.5782Z" fill="#4F4C4D"/>
<path d="M59.7505 71.1998L54.5838 76.6897L44.5005 66.2167L51.2505 63.1761L53.3338 65.1187L59.7505 71.1998Z" fill="#EEF3F8"/>
<path d="M59.751 71.1998L64.9176 76.6897L75.001 66.2167L68.251 63.1761L66.1676 65.1187L59.751 71.1998Z" fill="#EEF3F8"/>
<path d="M76.7505 124.239H43.2505C40.5838 124.239 38.3338 122.043 38.3338 119.256L36.2505 90.8779C36.2505 88.1752 38.4172 85.8948 41.1672 85.8948H78.9171C81.5838 85.8948 83.8338 88.0907 83.8338 90.8779L81.7505 119.256C81.6671 121.959 79.5005 124.239 76.7505 124.239Z" fill="#4A4743"/>
<path d="M79.0006 85.8948H41.084C39.4173 85.8948 37.9173 86.7394 37.084 88.0907C37.834 87.584 38.7507 87.2461 39.7506 87.2461H77.6673C80.3339 87.2461 82.5006 89.4421 82.5006 92.1448L80.4173 120.692C80.4173 121.706 80.084 122.635 79.584 123.395C80.9173 122.55 81.7506 121.03 81.7506 119.341L83.8339 90.7934C83.7506 88.0907 81.6673 85.8948 79.0006 85.8948Z" fill="#C8C8C8"/>
<path d="M42.3341 107.094H42.1675C41.0841 107.094 40.1675 106.165 40.1675 105.067V104.898C40.1675 103.8 41.0841 102.871 42.1675 102.871H42.3341C43.4175 102.871 44.3341 103.8 44.3341 104.898V105.067C44.2508 106.249 43.4175 107.094 42.3341 107.094Z" fill="#E6E7E8" fill-opacity="0.5"/>
<path d="M39.7503 107.939C39.7503 107.939 36.417 108.277 33.917 108.53C33.2503 108.53 32.667 108.615 32.0837 108.615C31.5003 108.615 30.917 108.615 30.5003 108.699C29.5837 108.699 28.917 108.699 28.917 108.699L28.667 119.341C28.667 119.341 29.417 119.341 30.5837 119.341C31.167 119.341 31.8337 119.341 32.5003 119.257C33.167 119.172 33.917 119.172 34.667 119.088C37.5837 118.834 41.167 118.496 41.167 118.496C43.417 118.159 44.8337 115.54 44.3337 112.669C43.8337 109.713 41.7503 107.686 39.7503 107.939Z" fill="#FFD3B3"/>
<path d="M36.2507 105.151C34.5007 105.32 33.1673 106.587 32.1673 107.854C31.1673 109.037 30.5007 110.303 30.5007 110.388C30.084 111.148 30.1673 112.246 30.7507 112.837C31.334 113.429 32.1673 113.26 32.584 112.415C32.584 112.415 32.7507 112.162 32.9173 111.824C33.084 111.486 33.4173 111.064 33.7507 110.557C34.5007 109.628 35.5007 108.699 36.6673 108.614C37.334 108.53 37.834 107.685 37.6673 106.672C37.584 105.827 36.9173 105.067 36.2507 105.151Z" fill="#FFD3B3"/>
<path d="M30.1672 121.706C25.8338 121.706 13.7505 122.381 10.0838 119.341C7.50049 117.229 3.08383 110.388 8.66716 98.8172C13.3338 89.1888 20.0838 80.4895 27.1672 73.6483L35.5838 91.4693C29.0005 97.8037 27.4172 97.3814 21.1672 104.392C19.2505 106.503 20.0005 107.263 20.0838 107.263C21.0838 108.108 27.0838 107.601 31.0005 107.348L32.0005 121.537C30.8338 121.621 31.5838 121.706 30.1672 121.706Z" fill="#B1C3DE"/>
<path d="M80.2506 107.94C80.2506 107.94 83.5839 108.278 86.0839 108.531C86.7506 108.531 87.334 108.616 87.9173 108.616C88.5006 108.616 89.0839 108.616 89.5006 108.7C90.4173 108.7 91.084 108.7 91.084 108.7L91.334 119.342C91.334 119.342 90.584 119.342 89.4173 119.342C88.8339 119.342 88.1673 119.342 87.5006 119.258C86.8339 119.173 86.0839 119.173 85.3339 119.089C82.4173 118.835 78.8339 118.497 78.8339 118.497C76.5839 118.16 75.1673 115.541 75.6673 112.67C76.1673 109.714 78.1673 107.687 80.2506 107.94Z" fill="#FFD3B3"/>
<path d="M83.7512 105.153C85.5012 105.321 86.8346 106.588 87.8346 107.855C88.8346 109.038 89.5012 110.305 89.5012 110.389C89.9179 111.149 89.8346 112.247 89.2512 112.838C88.6679 113.43 87.8346 113.261 87.4179 112.416C87.4179 112.416 87.2512 112.163 87.0846 111.825C86.9179 111.487 86.5846 111.065 86.2512 110.558C85.5012 109.629 84.5012 108.7 83.3346 108.615C82.6679 108.531 82.1679 107.686 82.3345 106.673C82.4179 105.828 83.0846 105.068 83.7512 105.153Z" fill="#FFD3B3"/>
<path d="M89.8346 121.707C94.168 121.707 106.251 122.382 109.918 119.342C112.501 117.23 116.918 110.389 111.335 98.818C106.668 89.1897 100.001 80.9971 92.918 74.1559L84.668 91.7234C91.2513 98.0579 92.668 97.4667 98.8346 104.477C100.751 106.588 100.001 107.348 99.918 107.348C98.918 108.193 92.918 107.686 89.0013 107.433L88.0013 121.622C89.168 121.622 88.418 121.707 89.8346 121.707Z" fill="#B1C3DE"/>
<path d="M78.0843 31.334L78.6677 23.8171C78.6677 14.0198 69.4177 6.0806 59.751 6.0806C50.0843 6.0806 40.8343 14.0198 40.8343 23.8171L41.4176 31.334C40.9176 31.5029 40.4176 31.7563 40.001 32.0941C39.251 32.7698 38.751 33.6988 38.751 34.7968V38.513C38.751 40.4556 40.3343 42.0603 42.251 42.0603C42.251 51.3508 53.251 60.0502 59.751 60.0502C66.3343 60.0502 77.251 51.2664 77.251 42.0603C79.1677 42.0603 80.751 40.4556 80.751 38.513V34.7968C80.751 33.1076 79.5843 31.7563 78.0843 31.334Z" fill="#FFD3B3"/>
<path d="M78.3342 12.3315C78.5008 9.96661 77.7508 6.58823 75.9175 1.77404C75.5008 0.676066 74.0008 0.422688 73.2508 1.35174C71.0842 4.05444 68.3342 3.54769 63.6675 1.60512C56.0008 -1.60434 50.2508 0.338228 47.0008 3.88553C32.9175 11.149 41.5008 36.6558 41.5008 36.6558C41.5008 36.6558 41.8341 23.3957 46.6675 17.3146C49.3341 17.9058 56.7508 19.0038 59.7508 19.0038C62.7508 19.0038 70.5008 17.9903 73.2508 17.3146C76.8342 21.1997 78.0008 36.6558 78.0008 36.6558C78.0008 36.6558 83.5008 22.4666 78.3342 12.3315Z" fill="#4A4743"/>
</g>
<defs>
<clipPath id="clip0_1612_6748">
<rect width="120" height="141" fill="white"/>
</clipPath>
</defs>
</svg>
