<svg width="120" height="141" viewBox="0 0 120 141" fill="none" xmlns="http://www.w3.org/2000/svg">
<g clip-path="url(#clip0_1612_7133)">
<g opacity="0.6">
<g opacity="0.25">
<g opacity="0.25">
<path opacity="0.25" d="M31.1817 81.1298C25.7575 80.2414 20.0084 84.5559 19.3442 90.026C19.0925 92.1704 19.4988 94.5251 18.4695 96.4092C16.8706 99.3147 12.8013 99.6812 10.1762 101.76C7.09195 104.185 6.63756 109.258 9.20727 112.204C10.3626 113.548 12.0867 114.645 12.2543 116.383C12.4812 118.599 9.99606 120.37 9.96369 122.584C9.94149 124.62 12.044 126.155 14.0784 126.23C16.1228 126.255 17.9988 125.188 19.6357 124.02C21.2825 122.803 22.8497 121.466 24.7354 120.737C26.8405 119.948 29.1341 120.023 31.3286 119.563C36.6054 118.484 40.8684 114.335 43.1974 109.485C45.5264 104.635 46.1907 99.1645 46.3661 93.8023" fill="#DB8977"/>
</g>
</g>
<g opacity="0.8">
<g opacity="0.8">
<g opacity="0.8">
<path opacity="0.8" d="M31.1817 81.1298C25.7575 80.2414 20.0084 84.5559 19.3442 90.026C19.0925 92.1704 19.4988 94.5251 18.4695 96.4092C16.8706 99.3147 12.8013 99.6812 10.1762 101.76C7.09195 104.185 6.63756 109.258 9.20727 112.204C10.3626 113.548 12.0867 114.645 12.2543 116.383C12.4812 118.599 9.99606 120.37 9.96369 122.584C9.94149 124.62 12.044 126.155 14.0784 126.23C16.1228 126.255 17.9988 125.188 19.6357 124.02C21.2825 122.803 22.8497 121.466 24.7354 120.737C26.8405 119.948 29.1341 120.023 31.3286 119.563C36.6054 118.484 40.8684 114.335 43.1974 109.485C45.5264 104.635 46.1907 99.1645 46.3661 93.8023" fill="#DB8977"/>
</g>
</g>
</g>
</g>
<g opacity="0.6">
<g opacity="0.6">
<g opacity="0.6">
<g opacity="0.6">
<g opacity="0.6">
<path opacity="0.6" d="M106.19 52.0183C106.14 52.267 106.3 52.5063 106.55 52.5567C106.799 52.6071 107.039 52.4485 107.089 52.1998C107.14 51.9511 106.94 51.652 106.71 51.6315C106.481 51.611 106.181 51.8093 106.18 52.068" fill="white"/>
</g>
</g>
</g>
</g>
</g>
<path d="M75.3075 42.2633L97.8781 52.2416L101.167 44.1789L77.1256 30.0568" fill="#4A4743"/>
<path d="M73.6746 37.8925C73.7543 37.8828 73.8828 38.7863 74.32 39.8296C74.7572 40.8729 75.3642 41.5891 75.3043 41.6287C75.2744 41.6485 74.6076 40.9718 74.1505 39.8987C73.6934 38.8255 73.6248 37.8824 73.6746 37.8925Z" fill="black" fill-opacity="0.25"/>
<path d="M72.5766 38.703C72.6364 38.6634 73.0739 39.4486 73.8102 40.2942C74.5465 41.1397 75.2633 41.6974 75.2035 41.7369C75.1934 41.7865 74.387 41.2881 73.6307 40.4128C72.9243 39.5475 72.5268 38.6929 72.5766 38.703Z" fill="black" fill-opacity="0.25"/>
<path d="M32.2294 70.6447L23.1043 73.3207C21.699 90.9287 30.7975 103.273 50.5096 101.082L52.5793 86.6032L32.2294 70.6447Z" fill="#726F6B"/>
<path d="M31.736 68.2984C28.7766 74.3393 30.3438 81.8619 34.8059 87.2567C39.7063 93.179 48.0906 96.6275 56.9517 93.2241L102.087 48.4789C109.946 40.6631 109.432 27.7998 100.943 20.6365C93.1803 14.1107 81.6493 14.8057 74.7585 22.197L31.736 68.2984Z" fill="#F3ECE4"/>
<path d="M31.736 68.3002C31.736 68.3002 31.8658 68.1715 32.1354 67.8643C32.4051 67.5571 32.8045 67.1211 33.3038 66.5762C34.3623 65.4467 35.8902 63.792 37.8875 61.6122C41.8719 57.3022 47.6638 51.1099 54.7939 43.4313C58.3689 39.6069 62.2834 35.3861 66.4875 30.888C68.6045 28.629 70.7615 26.3006 72.9885 23.8831C73.5477 23.2985 74.1169 22.6644 74.6761 22.0799C74.9657 21.8025 75.2852 21.5054 75.5548 21.1982C75.7145 21.0497 75.8743 20.9011 76.0041 20.7723L76.5033 20.3565C76.8427 20.0892 77.1821 19.8219 77.4916 19.5745C77.8509 19.337 78.2102 19.0996 78.5696 18.8622C78.9289 18.6248 79.3082 18.4172 79.7073 18.2395L80.2862 17.9431L80.5756 17.7948L80.8849 17.6765C81.2841 17.4988 81.7031 17.3509 82.1023 17.1732C82.5214 17.0253 82.9304 16.9271 83.3495 16.7792C83.569 16.7202 83.7686 16.6313 83.9881 16.5723L84.6365 16.4449L85.285 16.3175C85.5045 16.2585 85.7439 16.2294 85.9534 16.22C86.4022 16.1814 86.8312 16.1131 87.2801 16.0745C87.729 16.036 88.1678 16.0471 88.6366 16.0384C88.8461 16.029 89.1054 16.0297 89.3149 16.0204L90.003 16.0818L90.6912 16.1432L91.0203 16.1838L91.3693 16.2543C94.9993 16.7804 98.5184 18.3691 101.378 20.9095C104.218 23.42 106.329 26.8424 107.212 30.6886C108.106 34.4851 107.842 38.6163 106.282 42.3567C105.651 43.9343 104.762 45.382 103.743 46.7003C102.744 48.0485 101.486 49.1377 100.338 50.3265C98.0016 52.6445 95.695 54.9427 93.3984 57.1912C88.8552 61.6984 84.4118 66.0965 80.1881 70.3065C71.6608 78.7363 63.8425 86.4826 56.9627 93.3078C55.3363 93.9093 53.7001 94.3022 52.074 94.5164C50.4281 94.7008 48.8223 94.6865 47.2865 94.454C45.7508 94.2215 44.275 93.8202 42.8992 93.31C41.5333 92.7502 40.2674 92.0813 39.1511 91.3136C38.8521 91.124 38.583 90.9147 38.314 90.7054C38.0449 90.4961 37.7758 90.2868 37.5068 90.0775C37.2377 89.8682 36.9986 89.6392 36.7794 89.4399C36.5402 89.2109 36.3011 88.9818 36.0819 88.7825C35.8428 88.5535 35.6236 88.3542 35.4144 88.1053C35.2052 87.8565 35.0159 87.6375 34.8068 87.3886C34.5976 87.1397 34.4383 86.9009 34.249 86.6819C34.0597 86.4629 33.8805 86.1942 33.7212 85.9554C32.3768 84.0051 31.4814 82.0162 30.9249 80.1474C30.3684 78.2787 30.1708 76.5598 30.1925 75.0402C30.1842 73.5404 30.385 72.2895 30.6654 71.287C30.7156 71.0389 30.7657 70.7907 30.8557 70.6022C30.9258 70.3839 31.0157 70.1954 31.0559 69.9969C31.1159 69.8282 31.1759 69.6595 31.2359 69.4908C31.3159 69.3519 31.346 69.203 31.396 69.084C31.636 68.5383 31.736 68.3002 31.736 68.3002C31.736 68.3002 31.636 68.5383 31.406 69.0343C31.356 69.1534 31.2761 69.2922 31.246 69.4412C31.1859 69.6098 31.1259 69.7785 31.0659 69.9472C31.0059 70.1159 30.9358 70.3342 30.8657 70.5526C30.7957 70.7709 30.7455 71.0191 30.6954 71.2673C30.4449 72.2499 30.264 73.5307 30.2723 75.0305C30.2806 76.5303 30.4782 78.2492 31.0346 80.1179C31.5911 81.9867 32.4866 83.9756 33.811 85.8961C33.9703 86.1349 34.1296 86.3737 34.3388 86.6226C34.5281 86.8416 34.7073 87.1102 34.8966 87.3292C35.0859 87.5483 35.295 87.7971 35.5342 88.0262C35.7433 88.2751 35.9626 88.4743 36.2017 88.7034C36.4408 88.9325 36.66 89.1317 36.8991 89.3608C37.1383 89.5899 37.3874 89.7693 37.6265 89.9984C37.8657 90.2275 38.1347 90.4368 38.4138 90.5964C38.6829 90.8057 38.952 91.015 39.251 91.2046C40.3972 91.9525 41.6332 92.6412 42.999 93.201C44.3749 93.7112 45.8207 94.1323 47.3564 94.3648C48.9022 94.5477 50.4781 94.5817 52.124 94.3974C53.7501 94.1832 55.3663 93.7604 56.9629 93.1786L56.9329 93.1984C63.8127 86.3733 71.631 78.627 80.1384 70.1674C84.3921 65.9375 88.8055 61.5592 93.3487 57.052C95.6254 54.7736 97.9519 52.5053 100.288 50.1873C101.457 49.0284 102.695 47.9093 103.664 46.5809C104.682 45.2626 105.542 43.8347 106.172 42.2571C107.692 38.5861 107.976 34.4848 107.102 30.7181C106.229 26.9514 104.118 23.529 101.298 21.0483C98.5082 18.5478 94.9891 16.9592 91.409 16.4431L91.0799 16.4025L90.7508 16.3619L90.0626 16.3005L89.3745 16.239C89.1451 16.2186 88.9356 16.2279 88.6962 16.2571C88.2274 16.2658 87.7886 16.2547 87.3397 16.2932C86.8908 16.3317 86.4619 16.4001 86.013 16.4386C85.8035 16.448 85.584 16.507 85.3446 16.5362L84.6961 16.6636L84.0477 16.791C83.8282 16.85 83.6087 16.909 83.439 16.9781C83.02 17.1259 82.6109 17.2242 82.1918 17.3721C81.7927 17.5498 81.3736 17.6976 81.0044 17.8556L80.6951 17.9739L80.4056 18.1222L79.8268 18.4186C79.4476 18.6262 79.0484 18.8039 78.6891 19.0413C78.3297 19.2787 77.9704 19.5161 77.641 19.7338C77.3016 20.001 76.9921 20.2485 76.6527 20.5158L76.1835 20.9119C76.0237 21.0604 75.8939 21.1892 75.7342 21.3378C75.4446 21.6151 75.1251 21.9122 74.8356 22.1895C74.2464 22.7939 73.7071 23.4082 73.1479 23.9928C70.9011 26.3805 68.7441 28.7089 66.6271 30.9678C62.423 35.4659 58.5084 39.6867 54.9334 43.5111C47.7834 51.1599 41.9916 57.3522 37.9872 61.6324C36 63.7625 34.4422 65.437 33.3836 66.5664C32.8544 67.1312 32.4549 67.5671 32.1654 67.8445C31.8957 68.1517 31.736 68.3002 31.736 68.3002Z" fill="black" fill-opacity="0.25"/>
<path d="M56.9211 93.209L60.4394 113.29C60.4394 113.29 90.7656 88.7803 77.8583 72.4086L56.9211 93.209Z" fill="#DB8977"/>
<path d="M52.342 46.2441C52.342 46.2441 26.7124 41.4577 11.1601 60.8952L31.7695 68.3105L52.342 46.2441Z" fill="#DB8977"/>
<path d="M76.3618 20.7994C86.3227 21.3125 103.186 37.7313 103.995 45.9253C119.261 27.8844 112.402 9.06952 112.402 9.06952C90.2392 5.39602 76.3618 20.7994 76.3618 20.7994Z" fill="#DB8977"/>
<path d="M41.9749 96.8669C42.2921 94.4956 42.5011 92.5669 42.4417 92.559C42.3823 92.5512 42.077 94.4671 41.7599 96.8384C41.4427 99.2096 41.2337 101.138 41.2931 101.146C41.3524 101.154 41.6577 99.2382 41.9749 96.8669Z" fill="black" fill-opacity="0.25"/>
<path d="M81.3632 69.0373C81.3632 69.0373 81.3134 69.0272 81.2636 69.0172C81.1939 68.9773 81.0943 68.9572 80.9946 68.937C80.7256 68.8569 80.3869 68.7369 79.9287 68.567C79.7095 68.497 79.4406 68.4168 79.1816 68.2871C78.8927 68.1772 78.6038 68.0673 78.295 67.9275C77.6775 67.648 76.9304 67.3681 76.1535 66.979C75.775 66.7993 75.3766 66.5898 74.9284 66.3703C74.5001 66.1806 74.0918 65.8917 73.6436 65.6722C72.7572 65.1835 71.841 64.5856 70.875 63.9776C68.983 62.6923 66.9916 61.1288 65.0802 59.2976C63.1689 57.4663 61.5367 55.5366 60.1435 53.7067C59.4769 52.772 58.85 51.897 58.3029 51.0122C58.0542 50.5749 57.7458 50.1771 57.5469 49.7498C57.3182 49.3422 57.0894 48.9347 56.8806 48.557C56.4628 47.8016 56.1148 47.0861 55.8265 46.4601C55.6774 46.1719 55.5582 45.8639 55.4289 45.6055C55.3295 45.3273 55.2202 45.0988 55.1407 44.8505C54.9718 44.4034 54.8327 44.0656 54.7532 43.8172C54.7235 43.708 54.6638 43.6185 54.6539 43.5391C54.6141 43.4794 54.6241 43.4298 54.6241 43.4298C54.6241 43.4298 54.644 43.4597 54.6838 43.5193C54.7236 43.579 54.7534 43.6882 54.8131 43.7777C54.9224 44.0063 55.0815 44.3739 55.2305 44.7911C55.3399 45.0197 55.4193 45.268 55.5486 45.5264C55.6778 45.7848 55.827 46.073 55.9462 46.381C56.2645 46.9873 56.5626 47.6927 57.0103 48.4284C57.2191 48.806 57.4479 49.2136 57.6766 49.6211C57.9054 50.0286 58.1839 50.4462 58.4625 50.8638C58.9897 51.7187 59.6166 52.5938 60.2832 53.5285C61.6565 55.3285 63.2887 57.2582 65.2001 59.0895C67.1114 60.9207 69.0829 62.4544 70.9749 63.7397C71.9409 64.3476 72.8272 64.9653 73.7136 65.454C74.1518 65.7231 74.5701 65.9624 74.9685 66.1719C75.3669 66.3814 75.7952 66.5711 76.1936 66.7806C76.9405 67.1895 77.6876 67.4693 78.3052 67.7489C78.614 67.8886 78.9228 68.0284 79.1618 68.1283C79.4507 68.2382 79.6898 68.3381 79.909 68.4082C80.3672 68.5781 80.7059 68.6981 80.9449 68.798C81.0645 68.8479 81.1342 68.8878 81.2338 68.9079C81.3433 69.0074 81.3932 69.0175 81.3632 69.0373Z" fill="#4A4743"/>
<path d="M83.8593 50.3332C88.1785 47.4881 89.5273 41.9454 86.8719 37.9532C84.2165 33.961 78.5624 33.031 74.2431 35.8761C69.9238 38.7212 68.575 44.2639 71.2304 48.2561C73.8859 52.2483 79.54 53.1782 83.8593 50.3332Z" fill="white"/>
<path d="M86.8829 37.9704C86.8829 37.9704 86.863 37.9406 86.8033 37.851C86.7436 37.7615 86.634 37.6619 86.5344 37.5127C86.4747 37.4232 86.415 37.3336 86.3253 37.2639C86.2357 37.1942 86.156 37.0748 86.0663 37.005C85.9568 36.9055 85.8771 36.7861 85.7675 36.6865C85.658 36.5869 85.5285 36.4575 85.3691 36.3478C85.1101 36.089 84.7613 35.8894 84.4225 35.6403C84.0538 35.4109 83.6353 35.1715 83.1768 35.0015C82.2399 34.6316 81.1034 34.3505 79.8371 34.3273C78.5707 34.304 77.1445 34.5584 75.7777 35.1604C75.4584 35.3284 75.0893 35.4863 74.76 35.7039C74.6103 35.8028 74.4108 35.8916 74.2611 35.9905C74.1114 36.0894 73.9517 36.2379 73.7721 36.3566L73.5326 36.5148L73.313 36.7029C73.1533 36.8514 73.0235 36.9801 72.8439 37.0988C72.6842 37.2473 72.5743 37.4059 72.4146 37.5544L72.215 37.7723L72.0352 38.0201C70.9967 39.3082 70.237 41.0141 70.0555 42.8108C69.8441 44.6274 70.3107 46.555 71.3559 48.1863C72.461 49.778 74.0651 50.9539 75.8295 51.4651C77.5839 52.0258 79.4087 51.981 81.0346 51.5087L81.3338 51.44L81.6132 51.3415C81.8127 51.2527 82.0022 51.2134 82.2017 51.1246C82.4013 51.0358 82.5708 50.9667 82.7505 50.848L83.0099 50.7197L83.2494 50.5614C83.429 50.4427 83.5986 50.3737 83.7782 50.255C83.9279 50.1561 84.1075 50.0374 84.2373 49.9087C84.5666 49.6911 84.8261 49.4336 85.1355 49.1862C86.2434 48.1962 87.0126 46.9571 87.5025 45.8165C87.9725 44.646 88.1831 43.4749 88.1743 42.4918C88.1947 42.0053 88.1354 41.5286 88.0661 41.1014C87.9668 40.694 87.9174 40.2967 87.7782 39.9587C87.7086 39.7897 87.6888 39.6308 87.6192 39.4618C87.5695 39.3227 87.4899 39.2033 87.4401 39.0641C87.3904 38.925 87.3307 38.8355 87.3009 38.7262C87.2412 38.6366 87.1814 38.5471 87.1517 38.4378C87.0521 38.2886 87.0024 38.1495 86.9427 38.0599C86.8729 38.02 86.8829 37.9704 86.8829 37.9704C86.8829 37.9704 86.9029 38.0002 86.9626 38.0898C87.0223 38.1793 87.102 38.2987 87.2015 38.4479C87.2612 38.5374 87.321 38.6269 87.3807 38.7165C87.4404 38.806 87.4901 38.9451 87.5398 39.0843C87.5895 39.2234 87.6692 39.3428 87.7189 39.4819C87.7686 39.6211 87.8382 39.7901 87.8779 39.9788C88.0171 40.3168 88.0665 40.7141 88.1857 41.1514C88.255 41.5785 88.3143 42.0553 88.3138 42.5716C88.3126 43.6043 88.1319 44.7557 87.6519 45.9757C87.152 47.166 86.4128 48.3853 85.2948 49.425C85.0153 49.6526 84.7258 49.9299 84.3965 50.1474C84.2469 50.2463 84.0872 50.3948 83.9075 50.5135C83.7279 50.6322 83.5583 50.7013 83.3787 50.8199L83.1392 50.9782L82.8798 51.1066C82.6803 51.1954 82.5107 51.2645 82.3311 51.3831C82.1315 51.472 81.942 51.5112 81.7425 51.6L81.4332 51.7183L81.134 51.787C79.4882 52.2295 77.6334 52.294 75.8292 51.7232C74.015 51.202 72.3909 49.9962 71.2659 48.3747C70.2008 46.7136 69.7244 44.7065 69.9358 42.89C70.1273 41.0436 70.887 39.3377 71.9554 38.0298L72.1352 37.7821L72.3648 37.5444C72.5245 37.3959 72.6344 37.2373 72.7941 37.0888C72.9538 36.9402 73.0835 36.8115 73.2632 36.6928L73.4827 36.5047L73.7222 36.3465C73.9019 36.2278 74.0515 36.1289 74.2113 35.9804C74.3909 35.8617 74.5405 35.7628 74.7401 35.674C75.0694 35.4564 75.4385 35.2986 75.7777 35.1604C77.1744 34.5386 78.6205 34.3141 79.8869 34.3373C81.1832 34.3408 82.3396 34.6517 83.2964 35.0514C83.7748 35.2513 84.1934 35.4907 84.562 35.7201C84.9008 35.9692 85.2695 36.1986 85.5285 36.4575C85.658 36.5869 85.7975 36.6667 85.927 36.7961C86.0365 36.8957 86.1162 37.0151 86.2258 37.1147C86.3353 37.2143 86.3951 37.3038 86.5046 37.4034C86.5644 37.4929 86.6241 37.5825 86.6838 37.672C86.7834 37.8212 86.863 37.9406 86.9228 38.0301C86.8431 37.9107 86.8829 37.9704 86.8829 37.9704Z" fill="#4A4743"/>
</g>
<defs>
<clipPath id="clip0_1612_7133">
<rect width="120" height="141" fill="white"/>
</clipPath>
</defs>
</svg>
