<svg width="120" height="141" viewBox="0 0 120 141" fill="none" xmlns="http://www.w3.org/2000/svg">
<path d="M13.4136 6.0943C13.4136 6.0943 11.0977 27.4252 14.1262 39.1573L42.7194 37.913C42.7194 37.913 36.5732 16.8486 40.3144 7.51636L13.4136 6.0943Z" fill="#EBEBEB"/>
<path d="M9.39844 5.9729C9.39844 5.9729 9.57659 28.9926 10.7346 36.014L39.6841 34.6808C39.6841 34.6808 37.1009 12.0167 38.0807 5.9729H9.39844Z" fill="#9CC09C"/>
<path d="M24.1118 16.5523C29.4645 16.231 33.7965 15.8509 33.7876 15.7032C33.7787 15.5556 29.4323 15.6963 24.0796 16.0176C18.7269 16.3388 14.3949 16.7189 14.4038 16.8666C14.4127 17.0143 18.7591 16.8735 24.1118 16.5523Z" fill="white"/>
<path d="M24.1118 21.4392C29.4645 21.118 33.7965 20.7379 33.7876 20.5902C33.7787 20.4426 29.4323 20.5833 24.0796 20.9045C18.7269 21.2257 14.3949 21.6058 14.4038 21.7535C14.4127 21.9012 18.7591 21.7605 24.1118 21.4392Z" fill="white"/>
<path d="M23.4086 25.975C26.4532 25.7915 28.9141 25.523 28.9052 25.3753C28.8964 25.2276 26.4211 25.2567 23.3765 25.4403C20.3319 25.6238 17.871 25.8923 17.8798 26.04C17.8887 26.1877 20.364 26.1586 23.4086 25.975Z" fill="white"/>
<path d="M4.5 45.7549C4.5 45.7549 4.67815 68.7746 5.83613 75.796L34.7856 74.4628C34.7856 74.4628 32.2024 51.7987 33.1822 45.7549H4.5Z" fill="#D39183"/>
<path d="M19.2251 56.3362C24.5778 56.0149 28.9098 55.6348 28.9009 55.4871C28.892 55.3394 24.5455 55.4802 19.1929 55.8014C13.8402 56.1227 9.50819 56.5028 9.51709 56.6505C9.52599 56.7981 13.8724 56.6574 19.2251 56.3362Z" fill="white"/>
<path d="M19.2163 61.1359C24.569 60.8147 28.901 60.4345 28.8921 60.2869C28.8832 60.1392 24.5368 60.2799 19.1841 60.6012C13.8314 60.9224 9.4994 61.3026 9.5083 61.4502C9.51721 61.5979 13.8636 61.4572 19.2163 61.1359Z" fill="white"/>
<path d="M18.5074 65.7551C21.5521 65.5724 24.013 65.3046 24.0041 65.1569C23.9952 65.0093 21.5199 65.0377 18.4752 65.2204C15.4306 65.4031 12.9696 65.6709 12.9785 65.8186C12.9874 65.9662 15.4628 65.9378 18.5074 65.7551Z" fill="white"/>
<path d="M4.50146 89.1539C4.50146 89.1539 4.67962 112.174 5.83759 119.195L34.7871 117.862C34.7871 117.862 32.2039 95.1976 33.1837 89.1539H4.50146Z" fill="#87ACCE"/>
<path d="M19.2265 99.7348C24.5792 99.4135 28.9112 99.0334 28.9023 98.8857C28.8934 98.7381 24.547 98.8788 19.1943 99.2001C13.8416 99.5213 9.50966 99.9014 9.51856 100.049C9.52746 100.197 13.8739 100.056 19.2265 99.7348Z" fill="white"/>
<path d="M19.2265 104.624C24.5792 104.303 28.9112 103.923 28.9023 103.775C28.8934 103.628 24.547 103.768 19.1943 104.09C13.8416 104.411 9.50966 104.791 9.51856 104.939C9.52746 105.086 13.8739 104.946 19.2265 104.624Z" fill="white"/>
<path d="M18.5087 109.157C21.5532 108.974 24.0142 108.705 24.0053 108.558C23.9965 108.41 21.5212 108.439 18.4766 108.623C15.432 108.806 12.9711 109.075 12.9799 109.222C12.9888 109.37 15.4641 109.341 18.5087 109.157Z" fill="white"/>
<path d="M46.5 50.7698C46.5 50.7698 46.6782 73.7895 47.8361 80.8109L76.7856 79.4777C76.7856 79.4777 74.2024 56.8136 75.1822 50.7698H46.5Z" fill="#BFA79A"/>
<path d="M61.2119 61.2582C66.5646 60.9369 70.8966 60.5568 70.8877 60.4091C70.8788 60.2615 66.5324 60.4022 61.1797 60.7235C55.827 61.0447 51.495 61.4249 51.5039 61.5725C51.5128 61.7202 55.8593 61.5795 61.2119 61.2582Z" fill="white"/>
<path d="M61.212 66.1457C66.5646 65.8245 70.8966 65.4443 70.8877 65.2967C70.8788 65.149 66.5324 65.2898 61.1797 65.611C55.827 65.9323 51.495 66.3124 51.5039 66.46C51.5128 66.6077 55.8593 66.467 61.212 66.1457Z" fill="white"/>
<path d="M60.4137 70.6852C63.4583 70.5025 65.9193 70.2347 65.9104 70.087C65.9015 69.9393 63.4261 69.9678 60.3815 70.1505C57.3368 70.3332 54.8759 70.6011 54.8848 70.7488C54.8937 70.8964 57.369 70.868 60.4137 70.6852Z" fill="white"/>
<path d="M47.6792 93.3549C47.6792 93.3549 47.8573 116.375 49.0153 123.396L77.9648 122.063C77.9648 122.063 75.3816 99.3987 76.3614 93.3549H47.6792Z" fill="#C29CC1"/>
<path d="M62.4014 103.934C67.754 103.613 72.086 103.233 72.0771 103.085C72.0682 102.938 67.7218 103.079 62.3691 103.4C57.0164 103.721 52.6845 104.101 52.6934 104.249C52.7023 104.396 57.0487 104.256 62.4014 103.934Z" fill="white"/>
<path d="M62.4013 108.823C67.754 108.502 72.086 108.122 72.0771 107.974C72.0682 107.827 67.7218 107.967 62.3691 108.289C57.0164 108.61 52.6845 108.99 52.6934 109.138C52.7023 109.285 57.0487 109.145 62.4013 108.823Z" fill="white"/>
<path d="M61.6881 113.354C64.7328 113.172 67.1937 112.904 67.1848 112.756C67.1759 112.608 64.7005 112.637 61.6559 112.82C58.6112 113.002 56.1503 113.27 56.1592 113.418C56.1681 113.565 58.6435 113.537 61.6881 113.354Z" fill="white"/>
<path d="M48.3472 0C48.3472 0 48.5253 23.0197 49.6833 30.0411L78.6328 28.7079C78.6328 28.7079 76.0496 6.04377 77.0294 0H48.3472Z" fill="#A5A4CF"/>
<path d="M63.0606 10.5797C68.4133 10.2585 72.7452 9.87837 72.7363 9.73071C72.7274 9.58305 68.381 9.72378 63.0283 10.045C57.6756 10.3663 53.3436 10.7464 53.3525 10.8941C53.3614 11.0417 57.7079 10.901 63.0606 10.5797Z" fill="white"/>
<path d="M63.0606 15.4667C68.4132 15.1455 72.7452 14.7654 72.7363 14.6177C72.7274 14.47 68.381 14.6107 63.0283 14.932C57.6756 15.2532 53.3436 15.6333 53.3525 15.781C53.3614 15.9286 57.7079 15.7879 63.0606 15.4667Z" fill="white"/>
<path d="M62.3458 20.0005C65.3905 19.8177 67.8514 19.5499 67.8425 19.4023C67.8336 19.2546 65.3582 19.283 62.3136 19.4658C59.2689 19.6485 56.808 19.9163 56.8169 20.064C56.8258 20.2116 59.3012 20.1832 62.3458 20.0005Z" fill="white"/>
<path d="M88.0605 13.2065C88.0605 13.2065 88.2387 36.2261 89.3967 43.2476L118.346 41.9144C118.346 41.9144 115.763 19.2503 116.743 13.2065H88.0605Z" fill="#D59385"/>
<path d="M102.778 23.7871C108.131 23.4659 112.463 23.0858 112.454 22.9381C112.445 22.7904 108.099 22.9312 102.746 23.2524C97.3934 23.5737 93.0614 23.9538 93.0703 24.1015C93.0792 24.2491 97.4256 24.1084 102.778 23.7871Z" fill="white"/>
<path d="M102.778 28.6759C108.131 28.3547 112.462 27.9746 112.454 27.8269C112.445 27.6793 108.098 27.82 102.746 28.1412C97.3929 28.4624 93.0609 28.8425 93.0698 28.9902C93.0787 29.1379 97.4252 28.9971 102.778 28.6759Z" fill="white"/>
<path d="M102.069 33.2061C105.114 33.0234 107.575 32.7555 107.566 32.6079C107.557 32.4602 105.082 32.4887 102.037 32.6714C98.9926 32.8541 96.5316 33.122 96.5405 33.2696C96.5494 33.4173 99.0248 33.3888 102.069 33.2061Z" fill="white"/>
<path d="M115.283 66.3602C115.283 66.3602 117.599 87.6911 114.571 99.4231L85.9775 98.1788C85.9775 98.1788 92.1237 77.1145 88.3826 67.7822L115.283 66.3602Z" fill="#EBEBEB"/>
<path d="M85.8849 62.7156C85.8849 62.7156 84.1034 86.8907 82.5 91.7791L108.51 94.5343L112.429 90.8014C112.429 90.8014 115.191 69.4704 114.834 63.4267L85.8849 62.7156Z" fill="#A1C59F"/>
<path d="M109.135 90.6246L108.601 94.5352L112.52 90.8023L109.135 90.6246Z" fill="#263238" fill-opacity="0.25"/>
<path d="M109.491 74.9815C109.491 75.0704 108.333 74.8926 106.552 74.626C104.592 74.3593 102.187 74.0038 99.515 73.6483C96.8427 73.2928 94.4377 73.0262 92.4781 72.7595C90.6966 72.5818 89.5386 72.404 89.5386 72.3151C89.5386 72.2263 90.6966 72.3151 92.4781 72.404C94.2596 72.4929 96.7537 72.7595 99.515 73.115C102.276 73.4706 104.77 73.915 106.552 74.2705C108.423 74.626 109.491 74.8926 109.491 74.9815Z" fill="white"/>
<path d="M108.335 80.3148C108.335 80.4037 107.266 80.3148 105.484 80.2259C103.792 80.137 101.387 79.8704 98.7145 79.5149C96.0422 79.1594 93.7262 78.8038 92.0338 78.5372C90.3414 78.2706 89.2725 78.0039 89.2725 77.9151C89.2725 77.8262 90.3414 78.0039 92.0338 78.1817C93.9044 78.4483 96.2203 78.715 98.8035 79.0705C101.387 79.426 103.703 79.6926 105.573 79.8704C107.266 80.0481 108.335 80.2259 108.335 80.3148Z" fill="white"/>
<path d="M97.9511 84.3307C102.778 84.9799 106.707 85.3874 106.727 85.2408C106.746 85.0942 102.849 84.449 98.0223 83.7997C93.1953 83.1505 89.2663 82.743 89.2466 82.8896C89.227 83.0362 93.1241 83.6814 97.9511 84.3307Z" fill="white"/>
</svg>
