<svg width="120" height="141" viewBox="0 0 120 141" fill="none" xmlns="http://www.w3.org/2000/svg">
<g clip-path="url(#clip0_1612_6654)">
<path d="M48.6313 61.3767L62.1792 104.537L75.727 61.3767L70.0821 57.1729H54.2763L48.6313 61.3767Z" fill="#EDEFF1"/>
<path d="M55.9689 81.5552C55.6302 81.5552 55.3197 81.6112 55.0093 81.7233L57.239 88.8419H67.0894L69.3192 81.7233C69.0087 81.6112 68.6983 81.5552 68.3596 81.5552H55.9689Z" fill="#D3D3D3"/>
<path d="M70.0821 57.1729L62.1792 65.0201L54.2763 57.1729L48.6313 61.3767L49.8168 65.1322L55.9698 74.2126L61.276 66.7297L62.2074 66.2532L63.1388 66.7297L68.445 74.2126L74.598 65.1322L75.7834 61.3767L70.0821 57.1729Z" fill="#D3D3D3"/>
<path d="M64.4364 74.5477H62.1785H59.9205L58.7915 93.7735L62.1785 104.535L65.5654 93.7735L64.4364 74.5477Z" fill="#4A4743"/>
<path d="M59.0742 88.8419H65.2555L64.8321 81.5552H59.4976L59.0742 88.8419Z" fill="#4A4743"/>
<path d="M62.1788 74.5492H64.4368L67.4851 70.9619L63.8723 65.8612L62.1788 65.0204L60.4853 65.8612L56.8726 70.9619L59.9208 74.5492H62.1788Z" fill="#4A4743"/>
<path d="M63.1102 72.8672H61.2192C60.4006 72.8672 59.6104 72.5028 59.0741 71.8863L57.5217 70.0646L56.8726 70.9894L59.9208 74.5767H64.4368L67.4851 70.9894L66.8359 70.0646L65.2835 71.8863C64.7473 72.5028 63.957 72.8672 63.1102 72.8672Z" fill="#4A4743"/>
<path d="M62.1783 49.6058H54.2754V57.1728L62.1783 65.0201L70.0812 57.1728V49.6058H62.1783Z" fill="#FFD3B3"/>
<path d="M54.2754 53.5299C56.618 54.5669 59.4405 55.2115 62.1783 55.2115C64.9161 55.2115 67.7386 54.5669 70.0812 53.5299V49.326H54.2754V53.5299Z" fill="#FCB98B"/>
<path d="M45.2449 24.6625H43.2974C41.6321 24.6625 40.3338 26.0918 40.5032 27.7453L41.0676 33.3505C41.2088 34.7798 42.4224 35.8728 43.8619 35.8728H45.2449V24.6625Z" fill="#FFD3B3"/>
<path d="M79.1133 24.6625H81.089C82.7543 24.6625 84.0526 26.0918 83.9115 27.7453L83.347 33.3505C83.2059 34.7798 81.9922 35.8728 80.5245 35.8728H79.1133V24.6625Z" fill="#FFD3B3"/>
<path d="M92.6618 66.7867L75.727 61.3777L62.1792 104.538L48.6313 61.3777L35.3657 65.5816V140.691H62.1792H100V76.904C100 72.3078 97.0366 68.244 92.6618 66.7867Z" fill="#B1C3DE"/>
<path d="M92.6618 66.7867L75.727 61.3777L62.1792 104.538L48.6313 61.3777L35.3657 65.5816V140.691H62.1792H100V76.904C100 72.3078 97.0366 68.244 92.6618 66.7867Z" fill="url(#paint0_linear_1612_6654)" fill-opacity="0.5"/>
<path d="M41.9136 71.2988L48.6311 61.3777L62.1789 104.538L46.8529 83.6022L48.2924 77.3524L41.9136 71.2988Z" fill="#8CACAA"/>
<path d="M85.3228 98.3712H87.0162V140.69H85.3228V98.3712Z" fill="black" fill-opacity="0.2"/>
<path d="M82.4435 71.2988L75.726 61.3777L62.1782 104.538L77.5042 83.6022L76.0647 77.3524L82.4435 71.2988Z" fill="#8CACAA"/>
<path d="M54.2763 57.1729L48.6313 61.3767L55.9698 72.2228L60.4857 65.8609L62.1792 65.0201L54.2763 57.1729Z" fill="#EDEFF1"/>
<path d="M70.0811 57.1729L75.7261 61.3767L68.3876 72.2228L63.8717 65.8609L62.1782 65.0201L70.0811 57.1729Z" fill="#EDEFF1"/>
<path d="M62.1795 17.3756H45.2446V36.153C45.2446 45.4295 52.8371 52.9685 62.1795 52.9685C71.5218 52.9685 79.1143 45.4295 79.1143 36.153V17.3756H62.1795Z" fill="#FFD3B3"/>
<path d="M75.4448 8.96829C75.4448 4.0077 71.4087 0 66.4129 0H54.2763C47.7282 0 46.6557 5.32492 46.6557 5.32492C40.7567 5.32492 40.7285 10.3696 40.7285 10.3696C40.7285 12.4155 41.6599 14.2372 43.2687 15.7225V24.6628H45.2445V30.268L48.0669 24.6628C50.3813 23.1774 51.341 21.2717 51.7643 19.7583C53.7965 20.2067 55.998 20.4589 58.2278 20.4589C67.4573 20.4589 72.3401 17.3761 72.3401 17.3761C72.3401 17.3761 71.8603 21.8041 76.2916 24.6628L79.114 30.268V24.6628H81.0898V14.5735C81.0898 11.4906 78.5495 8.96829 75.4448 8.96829Z" fill="#4A4743"/>
<path d="M74.88 124.435H49.4777C47.9254 124.435 46.6553 123.174 46.6553 121.633V88.0016C46.6553 86.4601 47.9254 85.199 49.4777 85.199H74.88C76.4323 85.199 77.7024 86.4601 77.7024 88.0016V121.633C77.7024 123.174 76.4323 124.435 74.88 124.435Z" fill="#EDEFF1"/>
<path d="M38.2734 109.161L42.5071 107.759L42.9305 105.91C43.1845 104.789 44.003 103.892 45.1038 103.527L46.7408 102.995V107.759V121.492L42.7894 122.613L38.2734 109.161Z" fill="#FFD3B3"/>
<path d="M60.6832 111.964L60.655 111.768C60.5421 110.815 59.8929 110.03 59.0462 109.722C59.3284 109.274 59.4413 108.741 59.3848 108.152C59.2437 106.751 57.9736 105.742 56.5624 105.882L46.0628 107.031C44.6516 107.172 43.6355 108.433 43.7766 109.834C43.8331 110.451 44.1153 110.983 44.5387 111.403C43.8895 111.908 43.5226 112.721 43.6073 113.59L43.6355 113.786C43.7202 114.514 44.0871 115.103 44.6516 115.495C44.3129 115.972 44.1153 116.588 44.2 117.233C44.3129 118.27 45.0185 119.083 45.9499 119.391C45.837 119.727 45.7806 120.092 45.837 120.456C45.9781 121.857 47.2482 122.866 48.6595 122.726L57.014 121.801C58.4252 121.661 59.4413 120.4 59.3002 118.999C59.2437 118.55 59.1026 118.158 58.8486 117.793C59.4977 117.261 59.8929 116.42 59.8082 115.523C59.7518 115.075 59.6106 114.683 59.3566 114.346C60.2316 113.926 60.7961 112.973 60.6832 111.964Z" fill="#FFD3B3"/>
<path d="M24.3579 73.7362L1.41127 114.066C-3.10468 121.997 3.83859 131.526 12.8423 129.76L44.1152 123.594L40.1637 107.62L24.0757 111.263L35.3655 93.3263V65.5807L34.293 65.889C30.0875 67.1221 26.5312 69.9527 24.3579 73.7362Z" fill="#B1C3DE"/>
<path d="M24.3579 73.7362L1.41127 114.066C-3.10468 121.997 3.83859 131.526 12.8423 129.76L44.1152 123.594L40.1637 107.62L24.0757 111.263L35.3655 93.3263V65.5807L34.293 65.889C30.0875 67.1221 26.5312 69.9527 24.3579 73.7362Z" fill="url(#paint1_linear_1612_6654)" fill-opacity="0.5"/>
<path d="M17.7524 115.243L19.1072 116.252C21.5345 113.085 24.0748 111.263 24.0748 111.263L24.978 109.806C24.5546 109.497 22.2119 108.18 18.9943 108.18V109.862C20.4902 109.862 21.8732 110.03 22.7482 110.45C21.4499 111.263 19.4459 113.029 17.7524 115.243Z" fill="black" fill-opacity="0.2"/>
<path d="M37.0593 108.321L35.3658 108.713V91.6451C35.4787 87.6374 35.1965 76.6793 32.5151 74.0168L33.7006 72.8397C37.3698 76.4831 37.0875 90.1317 37.0593 91.6731V108.321Z" fill="black" fill-opacity="0.2"/>
<path d="M44.1154 123.594L45.0468 126.564L35.3657 128.498V125.331L44.1154 123.594Z" fill="black" fill-opacity="0.2"/>
<path d="M70.0812 88.2824H54.2754V84.3588C54.2754 83.4339 55.0375 82.6772 55.9689 82.6772H68.3878C69.3192 82.6772 70.0812 83.4339 70.0812 84.3588V88.2824Z" fill="#EDEFF1"/>
<path d="M56.5342 85.199H67.8241V86.8789H56.5342V85.199Z" fill="#D3D3D3"/>
<path d="M61.3315 124.435H63.025V140.69H61.3315V124.435Z" fill="black" fill-opacity="0.2"/>
</g>
<defs>
<linearGradient id="paint0_linear_1612_6654" x1="53.6462" y1="66.9857" x2="88.4389" y2="135.631" gradientUnits="userSpaceOnUse">
<stop stop-color="#CCF9DB"/>
<stop offset="0.791667" stop-color="#CCF9DB"/>
</linearGradient>
<linearGradient id="paint1_linear_1612_6654" x1="12.4728" y1="70.1337" x2="43.4448" y2="121.512" gradientUnits="userSpaceOnUse">
<stop stop-color="#CCF9DB"/>
<stop offset="0.791667" stop-color="#CCF9DB"/>
</linearGradient>
<clipPath id="clip0_1612_6654">
<rect width="120" height="141" fill="white"/>
</clipPath>
</defs>
</svg>
