<svg width="120" height="141" viewBox="0 0 120 141" fill="none" xmlns="http://www.w3.org/2000/svg">
<g clip-path="url(#clip0_1612_6689)">
<path d="M78.8095 66.7559C78.8095 66.8976 78.8095 67.0394 78.6686 67.1811C78.2459 68.7402 77.9641 70.1575 77.5414 71.4331C76.8369 73.7008 75.9915 75.5433 75.0052 76.8189C74.5825 77.5275 74.0189 77.9527 73.4553 78.5197C72.3281 79.3701 70.9191 79.7953 69.2283 79.7953H43.3026C41.4709 79.7953 40.0619 79.3701 38.9347 78.3779C38.3711 77.9527 37.9484 77.3858 37.5257 76.8189C36.5394 75.4016 35.694 73.559 34.9895 71.4331C34.5668 70.1575 34.1441 68.7402 33.8623 67.1811C33.8623 67.0394 33.8623 66.8976 33.7214 66.7559C29.6353 48.7559 30.9034 17.0079 40.0619 7.37008C43.8662 3.40157 48.5159 0 56.2654 0C62.4651 0 66.5512 2.12598 69.9328 5.10236C70.7782 5.81102 71.6236 6.66142 72.469 7.51181C72.7508 7.65354 73.0326 8.07874 73.3144 8.50394C81.6275 19.1339 82.6138 49.4646 78.8095 66.7559Z" fill="#4F3C30"/>
<path d="M63.3107 65.2029V56.2737H49.3616V65.2029L45.98 66.0533L49.3616 87.88H63.3107L66.6923 66.0533L63.3107 65.2029Z" fill="#FFD3B3"/>
<path d="M49.3623 56.2694V59.5292L63.3114 65.1985V56.2694H49.3623Z" fill="#DEB4A0"/>
<path d="M80.9234 154.063C81.3461 134.788 76.4146 127.418 76.4146 127.418H36.2581C36.2581 127.418 31.4675 134.929 31.7493 154.063H80.9234Z" fill="#36332F"/>
<path d="M39.3588 103.467C36.1181 100.065 30.7639 93.262 37.5271 83.3408C41.895 76.9628 28.7913 66.6164 48.2355 65.4825L56.4078 87.5927L64.4391 65.3408C83.8833 66.3329 70.7796 76.8211 75.1475 83.199C82.0516 93.1203 76.6974 99.9234 73.3158 103.325C73.3158 103.325 74.3021 118.49 80.7835 137.908H58.6622L56.4078 129.545L54.1534 137.908H31.8911C38.3725 118.49 39.3588 103.467 39.3588 103.467Z" fill="#4A4743"/>
<path d="M72.3285 70.8673L64.7198 73.8437L67.8196 77.9539L56.4067 87.5917L64.438 65.198L72.3285 70.8673Z" fill="white"/>
<path d="M40.3447 70.8687L48.2351 65.3412L56.4073 87.5931L44.9944 77.9554L47.9533 73.8451L40.3447 70.8687Z" fill="white"/>
<path d="M68.3839 102.899V92.2688C68.3839 88.442 65.2841 85.3239 61.4798 85.3239C57.6755 85.3239 54.5757 88.442 54.5757 92.2688V102.899C54.5757 106.725 57.6755 109.844 61.4798 109.844C65.2841 109.844 68.3839 106.725 68.3839 102.899Z" fill="#E6E7E8"/>
<path d="M62.6074 88.0149C62.6074 87.448 62.0438 86.8811 61.4802 86.8811C60.9166 86.8811 60.353 87.448 60.353 88.0149C60.353 88.5819 60.9166 89.1488 61.4802 89.1488C62.0438 89.1488 62.6074 88.5819 62.6074 88.0149Z" fill="#686671"/>
<path d="M65.706 98.0796C65.706 98.0796 68.3831 98.3631 70.3557 98.5048C70.9193 98.5048 71.342 98.5048 71.9056 98.6465C72.3283 98.6465 72.751 98.6465 73.1737 98.6465C73.8782 98.6465 74.4418 98.6465 74.4418 98.6465L74.5827 107.009C74.5827 107.009 74.0191 107.009 73.0328 107.009C72.6101 107.009 72.0465 107.009 71.4829 107.009C70.9193 107.009 70.3557 107.009 69.7921 106.867C67.3968 106.725 64.7197 106.442 64.7197 106.442C62.888 106.158 61.7608 104.174 62.1835 101.906C62.4653 99.3552 64.1561 97.7961 65.706 98.0796Z" fill="#FFD3B3"/>
<path d="M68.5247 95.8126C69.9337 95.9543 70.92 96.9464 71.7654 97.9385C72.6108 98.9307 73.0335 99.9228 73.1744 99.9228C73.4562 100.49 73.4562 101.482 72.8926 101.907C72.4699 102.332 71.7654 102.191 71.4836 101.624C71.4836 101.624 71.3427 101.482 71.2018 101.198C71.0609 100.915 70.7791 100.631 70.4973 100.206C69.9337 99.4976 69.0883 98.7889 68.2429 98.6472C67.6793 98.6472 67.3975 97.9385 67.3975 97.0882C67.3975 96.3795 67.9611 95.8126 68.5247 95.8126Z" fill="#FFD3B3"/>
<path d="M77.4011 108.85C98.2543 107.008 98.3952 98.3622 93.041 88.7244C88.9549 81.3543 79.2328 69.4488 72.8923 67.1811L72.7514 73.4173L69.7925 80.0787C77.8238 84.7559 80.0782 88.1575 83.7416 93.8267C85.0097 95.6693 84.587 96.0945 84.587 96.0945C83.7416 96.8031 75.5694 97.7953 72.4696 97.5118L71.6242 108.567C72.7514 108.709 76.4148 108.85 77.4011 108.85Z" fill="#4A4743"/>
<path d="M33.2994 149.103H24C24 149.103 23.8591 97.6543 24.7045 90.4259C25.8317 74.2685 35.9765 65.6228 44.9942 65.6228C44.9942 65.6228 37.3855 70.0165 39.9217 73.985C38.7945 77.8118 40.2035 81.6385 39.0763 82.6307C35.9765 85.7488 35.272 86.3157 34.5675 91.5598C33.863 98.363 33.2994 149.103 33.2994 149.103Z" fill="#4A4743"/>
<path d="M72.1877 32.3153V25.0869C72.1877 17.4334 63.311 7.65387 56.266 7.65387C49.221 7.65387 40.3443 17.4334 40.3443 25.0869V32.3153C38.3717 32.3153 36.8218 33.8743 36.8218 35.8586V39.5436C36.8218 41.5279 38.3717 43.0869 40.3443 43.0869C40.3443 50.7405 49.221 60.8035 56.266 60.8035C63.311 60.8035 72.1877 50.7405 72.1877 43.0869C74.1603 43.0869 75.7102 41.5279 75.7102 39.5436V35.8586C75.7102 33.8743 74.1603 32.3153 72.1877 32.3153Z" fill="#FFD3B3"/>
<path d="M65.5656 26.0796C65.9883 27.7804 66.9746 30.0481 68.5245 31.3237C63.8748 30.0481 59.7886 27.3552 56.8297 23.9536C57.1115 25.6544 58.2387 27.4969 59.9295 29.1977C58.6614 28.6308 57.3933 27.9221 56.2661 27.0717C53.589 25.2292 51.3346 22.8198 49.5029 20.4103C46.8258 25.9379 42.317 33.8749 38.9354 33.8749C34.1448 24.3788 33.7221 3.54416 56.2661 3.54416C78.8102 3.54416 75.4286 27.2135 73.5969 33.8749C69.6517 30.8985 66.5519 27.6386 65.5656 26.0796Z" fill="#4F3C30"/>
</g>
<defs>
<clipPath id="clip0_1612_6689">
<rect width="120" height="141" fill="white"/>
</clipPath>
</defs>
</svg>
