<svg width="120" height="141" viewBox="0 0 120 141" fill="none" xmlns="http://www.w3.org/2000/svg">
<g clip-path="url(#clip0_1612_7519)">
<path d="M119.689 114.114V114.123L119.689 114.132C119.786 116.828 117.658 118.958 114.912 118.958H5.9413C3.30664 118.958 1.16504 116.827 1.16504 114.221V20.1699C1.16504 17.5634 3.30664 15.4323 5.9413 15.4323H114.912C117.547 15.4323 119.689 17.5634 119.689 20.1699V114.114Z" fill="white" stroke="#ECE5DD"/>
<path d="M27.9002 60.3481H21.4395V108.663H27.9002V60.3481Z" fill="#9CC09C"/>
<path d="M57.1942 56.4998H50.7334V108.769H57.1942V56.4998Z" fill="#C29CC1"/>
<path d="M87.6643 49.7654H81.2036V108.662H87.6643V49.7654Z" fill="#87ACCE"/>
<path d="M73.3469 85.1461H66.8862V108.662H73.3469V85.1461Z" fill="#BFA79A"/>
<g opacity="0.2">
<path opacity="0.2" d="M73.3469 85.1461H66.8862V108.662H73.3469V85.1461Z" fill="#BFA79A"/>
</g>
<path d="M35.4442 55.2167H28.9834V108.769H35.4442V55.2167Z" fill="#A5A4CF"/>
<g opacity="0.1">
<path opacity="0.1" d="M35.4442 55.2167H28.9834V108.769H35.4442V55.2167Z" fill="#A5A4CF"/>
</g>
<path d="M65.2698 43.9929H58.8091V108.769H65.2698V43.9929Z" fill="#9CC09C"/>
<g opacity="0.1">
<path opacity="0.1" d="M65.2698 43.9929H58.8091V108.769H65.2698V43.9929Z" fill="#9CC09C"/>
</g>
<path d="M104.245 43.9929H97.7842V108.769H104.245V43.9929Z" fill="#9CC09C"/>
<g opacity="0.2">
<path opacity="0.2" d="M104.245 43.9929H97.7842V108.769H104.245V43.9929Z" fill="#9CC09C"/>
</g>
<path d="M95.8484 31.1664H89.3877V108.662H95.8484V31.1664Z" fill="#BFA79A"/>
<g opacity="0.1">
<path opacity="0.1" d="M95.8484 31.1664H89.3877V108.662H95.8484V31.1664Z" fill="#BFA79A"/>
</g>
<path d="M43.3001 74.7773H36.8394V108.769H43.3001V74.7773Z" fill="#D59385"/>
<g opacity="0.2">
<path opacity="0.2" d="M43.3001 74.7773H36.8394V108.769H43.3001V74.7773Z" fill="#D59385"/>
</g>
<path d="M113.51 111.656C113.51 111.764 90.4665 111.978 62.147 111.978C33.7198 111.978 10.7842 111.871 10.7842 111.656C10.7842 111.549 33.8275 111.334 62.147 111.334C90.4665 111.334 113.51 111.549 113.51 111.656Z" fill="#42382B"/>
<path d="M11.6453 100.111H7.66113V101.394H11.6453V100.111Z" fill="#42382B"/>
<path d="M11.6453 82.9023H7.66113V84.185H11.6453V82.9023Z" fill="#42382B"/>
<path d="M11.6453 50.5139H7.66113V51.7965H11.6453V50.5139Z" fill="#42382B"/>
<path d="M11.6453 34.2654H7.66113V35.5481H11.6453V34.2654Z" fill="#42382B"/>
<path d="M11.8576 66.7604H7.87354V68.0431H11.8576V66.7604Z" fill="#42382B"/>
</g>
<defs>
<clipPath id="clip0_1612_7519">
<rect width="120" height="141" fill="white"/>
</clipPath>
</defs>
</svg>
