<svg width="329" height="300" viewBox="0 0 329 300" fill="none" xmlns="http://www.w3.org/2000/svg">
<path d="M294.003 33.8271H29.4844V250.675H294.003V33.8271Z" fill="white"/>
<path d="M293.995 250.666C293.995 249.035 293.909 164.725 293.823 33.8184L293.995 33.9997C218.701 33.9997 127.66 33.9997 29.5628 33.9997L29.821 33.7277C29.821 111.873 29.821 185.757 29.821 250.576L29.6489 250.395C186.518 250.576 292.188 250.666 293.995 250.666C292.188 250.666 186.518 250.757 29.4768 250.848H29.3047V250.666C29.3047 185.938 29.3047 111.963 29.3047 33.8184V33.5464H29.5628C127.66 33.5464 218.787 33.5464 293.995 33.5464H294.167V33.7277C294.081 164.725 293.995 249.035 293.995 250.666Z" fill="#42382B"/>
<path d="M102.188 232.444C102.102 232.444 101.93 208.874 101.93 179.773C101.93 150.673 102.016 127.102 102.188 127.102C102.274 127.102 102.446 150.673 102.446 179.773C102.446 208.874 102.36 232.444 102.188 232.444Z" fill="#42382B"/>
<path d="M216.985 232.444C216.899 232.444 216.727 208.874 216.727 179.773C216.727 150.673 216.813 127.102 216.985 127.102C217.157 127.102 217.243 150.673 217.243 179.773C217.243 208.874 217.157 232.444 216.985 232.444Z" fill="#42382B"/>
<path d="M141.43 232.444C141.344 232.444 141.172 202.346 141.172 165.177C141.172 128.009 141.258 97.9109 141.43 97.9109C141.602 97.9109 141.688 128.009 141.688 165.177C141.602 202.346 141.516 232.444 141.43 232.444Z" fill="#42382B"/>
<path d="M62.0003 232.444C61.9143 232.444 61.7422 202.346 61.7422 165.177C61.7422 128.009 61.8282 97.9109 62.0003 97.9109C62.1724 97.9109 62.2585 128.009 62.2585 165.177C62.1724 202.346 62.0864 232.444 62.0003 232.444Z" fill="#42382B"/>
<path d="M262.071 232.444C261.985 232.444 261.812 202.346 261.812 165.177C261.812 128.009 261.899 97.9109 262.071 97.9109C262.157 97.9109 262.329 128.009 262.329 165.177C262.329 202.346 262.157 232.444 262.071 232.444Z" fill="#42382B"/>
<path d="M175.766 232.445C175.68 232.445 175.508 197.633 175.508 154.753C175.508 111.873 175.594 77.061 175.766 77.061C175.938 77.061 176.024 111.873 176.024 154.753C176.024 197.633 175.938 232.445 175.766 232.445Z" fill="#42382B"/>
<path d="M102.189 128.19C102.712 128.19 103.135 127.744 103.135 127.193C103.135 126.643 102.712 126.196 102.189 126.196C101.666 126.196 101.242 126.643 101.242 127.193C101.242 127.744 101.666 128.19 102.189 128.19Z" fill="#42382B"/>
<path d="M141.431 98.8184C141.954 98.8184 142.377 98.3719 142.377 97.8212C142.377 97.2704 141.954 96.824 141.431 96.824C140.908 96.824 140.484 97.2704 140.484 97.8212C140.484 98.3719 140.908 98.8184 141.431 98.8184Z" fill="#42382B"/>
<path d="M141.426 101.356C139.619 101.356 138.156 99.8152 138.156 97.9115C138.156 96.0077 139.619 94.4666 141.426 94.4666C143.233 94.4666 144.696 96.0077 144.696 97.9115C144.696 99.7246 143.233 101.356 141.426 101.356ZM141.426 94.6479C139.705 94.6479 138.328 96.0983 138.328 97.9115C138.328 99.7246 139.705 101.175 141.426 101.175C143.147 101.175 144.524 99.7246 144.524 97.9115C144.524 96.0983 143.147 94.6479 141.426 94.6479Z" fill="#42382B"/>
<path d="M175.759 78.0584C176.282 78.0584 176.706 77.6119 176.706 77.0612C176.706 76.5104 176.282 76.064 175.759 76.064C175.236 76.064 174.812 76.5104 174.812 77.0612C174.812 77.6119 175.236 78.0584 175.759 78.0584Z" fill="#42382B"/>
<path d="M216.978 129.188C217.501 129.188 217.924 128.741 217.924 128.19C217.924 127.64 217.501 127.193 216.978 127.193C216.455 127.193 216.031 127.64 216.031 128.19C216.031 128.741 216.455 129.188 216.978 129.188Z" fill="#42382B"/>
<path d="M262.072 98.8184C262.594 98.8184 263.018 98.3719 263.018 97.8212C263.018 97.2704 262.594 96.824 262.072 96.824C261.549 96.824 261.125 97.2704 261.125 97.8212C261.125 98.3719 261.549 98.8184 262.072 98.8184Z" fill="#42382B"/>
<path d="M62.0012 99.815C62.524 99.815 62.9478 99.3685 62.9478 98.8178C62.9478 98.267 62.524 97.8206 62.0012 97.8206C61.4785 97.8206 61.0547 98.267 61.0547 98.8178C61.0547 99.3685 61.4785 99.815 62.0012 99.815Z" fill="#42382B"/>
<path d="M270.93 145.506C270.93 145.506 270.671 145.596 270.155 145.778C269.639 145.868 268.95 146.14 268.004 146.503C266.197 147.319 263.701 149.041 261.206 151.942C258.624 154.843 256.129 158.923 252.859 163.456C251.224 165.722 249.417 168.17 247.18 170.345C246.061 171.524 244.856 172.521 243.48 173.518C242.103 174.516 240.64 175.331 239.091 176.057C235.907 177.417 232.207 178.142 228.507 177.96C226.614 177.87 224.721 177.688 222.828 177.235C220.934 176.782 218.955 175.966 217.32 174.697C215.599 173.428 214.222 171.796 213.018 169.983C211.813 168.17 210.78 166.266 209.748 164.271C207.683 160.373 205.531 156.384 203.122 152.396C200.713 148.407 198.561 144.146 196.066 139.976C193.57 135.806 190.903 131.635 187.375 128.191C185.654 126.468 183.675 124.927 181.523 123.839C179.372 122.661 177.049 121.935 174.639 121.663C172.23 121.391 169.735 121.573 167.325 122.117C164.916 122.661 162.506 123.567 160.355 124.927C155.966 127.556 152.438 131.454 149.427 135.624C146.415 139.794 144.006 144.327 141.596 148.86C139.273 153.393 136.777 157.744 134.024 161.824C131.27 165.903 128.344 169.62 124.902 172.793C124.042 173.609 123.181 174.334 122.235 175.059C121.374 175.785 120.342 176.419 119.395 176.963C117.416 178.051 115.437 179.048 113.286 179.592C112.253 179.955 111.134 180.046 110.102 180.227C109.585 180.317 109.069 180.317 108.467 180.317C107.95 180.317 107.434 180.317 106.918 180.317C104.767 180.227 102.787 179.774 100.808 179.139C96.936 177.779 93.5801 175.694 90.4823 173.428C87.3845 171.161 84.6309 168.895 81.8773 166.81C79.1236 164.725 76.4561 162.912 73.7025 161.552C70.9489 160.283 68.1953 159.376 65.5277 159.104C62.8602 158.832 60.4508 159.013 58.2135 159.557C57.6111 159.648 57.1809 159.92 56.6646 160.101C56.1483 160.283 55.6319 160.464 55.2017 160.736C54.2551 161.28 53.3946 161.642 52.6202 162.277C50.9852 163.274 49.7805 164.543 48.7479 165.541C48.2316 166.085 47.8014 166.628 47.3711 167.082C46.9409 167.535 46.5967 167.988 46.2525 168.442C45.6501 169.258 45.2199 169.892 44.8757 170.345C44.5315 170.799 44.3594 170.98 44.3594 170.98C44.3594 170.98 44.4454 170.708 44.7896 170.255C45.0478 169.801 45.478 169.167 46.0804 168.26C46.3385 167.807 46.6827 167.354 47.113 166.9C47.5432 166.447 47.9735 165.903 48.4037 165.269C49.4363 164.181 50.641 162.912 52.276 161.824C53.0504 161.189 53.997 160.736 54.8575 160.192C55.2877 159.92 55.8901 159.739 56.4064 159.557C56.9227 159.376 57.439 159.104 58.0414 159.013C60.2787 158.288 62.8602 158.107 65.6138 158.379C68.3674 158.651 71.207 159.467 74.0467 160.736C76.8864 162.005 79.64 163.909 82.3936 165.994C85.1472 168.079 87.9868 170.345 90.9986 172.521C94.0103 174.697 97.3663 176.691 101.066 177.96C102.96 178.595 104.853 178.958 106.918 179.048C107.434 179.048 107.95 179.048 108.381 179.048C108.897 179.048 109.413 179.048 109.93 178.958C110.962 178.776 111.995 178.686 112.941 178.323C116.986 177.235 120.686 174.788 123.956 171.705C127.312 168.623 130.151 164.906 132.905 160.917C135.573 156.928 137.982 152.577 140.391 148.135C142.801 143.693 145.21 139.069 148.308 134.718C151.32 130.457 155.02 126.377 159.667 123.567C161.99 122.207 164.485 121.21 167.067 120.666C169.648 120.122 172.23 119.941 174.811 120.213C177.393 120.485 179.888 121.301 182.212 122.479C184.535 123.658 186.514 125.29 188.321 127.103C191.935 130.729 194.689 134.99 197.185 139.16C199.68 143.421 201.831 147.591 204.241 151.58C206.65 155.569 208.801 159.557 210.867 163.546C212.932 167.444 214.911 171.252 218.095 173.609C219.644 174.787 221.365 175.603 223.258 176.057C225.065 176.601 226.958 176.691 228.765 176.782C232.379 176.963 235.907 176.329 239.005 175.059C240.554 174.425 241.931 173.518 243.307 172.612C244.598 171.615 245.803 170.617 246.922 169.529C249.159 167.354 250.966 164.997 252.601 162.821C255.871 158.288 258.452 154.299 261.12 151.398C263.701 148.497 266.369 146.775 268.262 146.05C269.209 145.687 269.983 145.506 270.499 145.415C270.671 145.506 270.93 145.506 270.93 145.506Z" fill="#F1A34F"/>
<path d="M107.178 58.2043H61.0547V60.924H107.178V58.2043Z" fill="#42382B"/>
<path d="M83.858 64.459H61.0547V67.1786H83.858V64.459Z" fill="#42382B"/>
<path d="M290.123 16.1401H33.091C30.9398 16.1401 29.2188 17.9532 29.2188 20.2196V33.818H293.995V20.2196C293.995 17.9532 292.274 16.1401 290.123 16.1401Z" fill="#734815"/>
<path d="M41.0961 27.1999C42.0941 27.1999 42.9032 26.3475 42.9032 25.2961C42.9032 24.2447 42.0941 23.3923 41.0961 23.3923C40.0981 23.3923 39.2891 24.2447 39.2891 25.2961C39.2891 26.3475 40.0981 27.1999 41.0961 27.1999Z" fill="white"/>
<path d="M49.0102 27.1999C50.0082 27.1999 50.8172 26.3475 50.8172 25.2961C50.8172 24.2447 50.0082 23.3923 49.0102 23.3923C48.0122 23.3923 47.2031 24.2447 47.2031 25.2961C47.2031 26.3475 48.0122 27.1999 49.0102 27.1999Z" fill="white"/>
<path d="M56.8383 27.1999C57.8363 27.1999 58.6454 26.3475 58.6454 25.2961C58.6454 24.2447 57.8363 23.3923 56.8383 23.3923C55.8403 23.3923 55.0312 24.2447 55.0312 25.2961C55.0312 26.3475 55.8403 27.1999 56.8383 27.1999Z" fill="white"/>
<g filter="url(#filter0_d_1101_12203)">
<path d="M137.841 278.274H6.44201C4.5489 278.274 3 276.642 3 274.648V219.982C3 217.988 4.5489 216.356 6.44201 216.356H137.755C139.648 216.356 141.197 217.988 141.197 219.982V274.648C141.197 276.642 139.648 278.274 137.841 278.274Z" fill="white"/>
<path d="M28.3812 246.364L28.2952 233.762C24.7671 233.762 21.239 235.213 18.4854 237.842C15.2155 240.834 13.1503 245.366 13.7527 250.806C13.8387 251.44 13.9248 251.984 14.0108 252.619L28.3812 249.174V246.364Z" fill="#F1A34F"/>
<path d="M43.0954 242.465C41.1162 238.023 37.1579 234.487 31.4786 233.943C31.3065 233.943 31.1344 233.943 31.0483 233.943C30.9623 233.943 30.8762 233.943 30.7902 233.943C30.532 233.943 30.1878 233.943 29.9297 233.943L30.0157 246.454V249.445L44.3861 252.709C44.6443 251.621 44.7303 250.533 44.7303 249.445C44.6443 246.998 44.128 244.64 43.0954 242.465Z" fill="#F1A34F"/>
<g opacity="0.2">
<path opacity="0.2" d="M43.0954 242.465C41.1162 238.023 37.1579 234.487 31.4786 233.943C31.3065 233.943 31.1344 233.943 31.0483 233.943C30.9623 233.943 30.8762 233.943 30.7902 233.943C30.532 233.943 30.1878 233.943 29.9297 233.943L30.0157 246.454V249.445L44.3861 252.709C44.6443 251.621 44.7303 250.533 44.7303 249.445C44.6443 246.998 44.128 244.64 43.0954 242.465Z" fill="black"/>
</g>
<path d="M29.0735 250.805L14.7031 254.25C16.166 261.14 22.0174 266.308 29.0735 266.308C36.1296 266.308 41.981 261.049 43.4439 254.069L29.0735 250.805Z" fill="#F1A34F"/>
<g opacity="0.1">
<path opacity="0.1" d="M29.0735 250.805L14.7031 254.25C16.166 261.14 22.0174 266.308 29.0735 266.308C36.1296 266.308 41.981 261.049 43.4439 254.069L29.0735 250.805Z" fill="black"/>
</g>
<path d="M127.166 237.57H54.2812V241.014H127.166V237.57Z" fill="#F9DAB9"/>
<path d="M127.166 246.726H54.2812V250.171H127.166V246.726Z" fill="#F9DAB9"/>
<path d="M93.6922 256.879H54.2812V260.324H93.6922V256.879Z" fill="#F9DAB9"/>
</g>
<g filter="url(#filter1_d_1101_12203)">
<path d="M306.82 295.934H177.228C173.27 295.934 170 292.489 170 288.319V157.412C170 153.242 173.27 149.797 177.228 149.797H306.82C310.778 149.797 314.048 153.242 314.048 157.412V288.228C314.048 292.489 310.778 295.934 306.82 295.934Z" fill="white"/>
<path d="M184.803 249.88H180.07V251.33H184.803V249.88Z" fill="#42382B"/>
<path d="M196.766 257.586H190.742V259.036H196.766V257.586Z" fill="#42382B"/>
<path d="M217.844 257.586H211.82V259.036H217.844V257.586Z" fill="#42382B"/>
<path d="M238.93 257.586H232.906V259.036H238.93V257.586Z" fill="#42382B"/>
<path d="M259.922 257.586H253.898V259.036H259.922V257.586Z" fill="#42382B"/>
<path d="M281.008 257.586H274.984V259.036H281.008V257.586Z" fill="#42382B"/>
<path d="M302.008 257.586H295.984V259.036H302.008V257.586Z" fill="#42382B"/>
<path d="M184.803 230.752H180.07V232.202H184.803V230.752Z" fill="#42382B"/>
<path d="M184.803 194.669H180.07V196.12H184.803V194.669Z" fill="#42382B"/>
<path d="M184.803 176.54H180.07V177.99H184.803V176.54Z" fill="#42382B"/>
<path d="M185.061 212.711H180.328V214.162H185.061V212.711Z" fill="#42382B"/>
<path d="M301.916 251.33C301.916 251.33 301.744 251.33 301.4 251.33C301.055 251.33 300.539 251.33 299.937 251.33C298.646 251.33 296.667 251.33 294.258 251.33C289.267 251.33 282.124 251.33 273.261 251.421C255.449 251.421 230.925 251.421 203.819 251.512C198.225 251.512 192.632 251.512 187.383 251.512H187.125V251.24C187.125 226.763 187.211 205.277 187.211 189.866C187.211 182.16 187.297 175.996 187.297 171.735C187.297 169.65 187.297 168.018 187.297 166.839C187.297 166.295 187.297 165.842 187.297 165.57C187.297 165.298 187.297 165.117 187.297 165.117C187.297 165.117 187.297 165.298 187.297 165.57C187.297 165.842 187.297 166.295 187.297 166.839C187.297 167.927 187.297 169.65 187.297 171.735C187.297 175.996 187.297 182.16 187.383 189.866C187.383 205.277 187.469 226.763 187.469 251.24L187.211 250.968C192.46 250.968 198.053 250.968 203.647 250.968C230.752 250.968 255.277 251.058 273.089 251.058C281.952 251.058 289.181 251.149 294.085 251.149C296.581 251.149 298.474 251.149 299.765 251.149C300.367 251.149 300.883 251.149 301.228 251.149C301.744 251.33 301.916 251.33 301.916 251.33Z" fill="#42382B"/>
<path d="M303.208 213.437C303.208 213.527 278.254 213.709 247.534 213.709C216.814 213.709 191.859 213.618 191.859 213.437C191.859 213.255 216.814 213.164 247.534 213.164C278.254 213.164 303.208 213.255 303.208 213.437Z" fill="#42382B"/>
<path d="M303.208 195.396C303.208 195.487 278.254 195.669 247.534 195.669C216.814 195.669 191.859 195.578 191.859 195.396C191.859 195.306 216.814 195.124 247.534 195.124C278.254 195.124 303.208 195.215 303.208 195.396Z" fill="#42382B"/>
<path d="M303.208 177.265C303.208 177.356 278.254 177.537 247.534 177.537C216.814 177.537 191.859 177.446 191.859 177.265C191.859 177.174 216.814 176.992 247.534 176.992C278.254 176.992 303.208 177.083 303.208 177.265Z" fill="#42382B"/>
<path d="M303.208 231.477C303.208 231.568 278.254 231.749 247.534 231.749C216.814 231.749 191.859 231.659 191.859 231.477C191.859 231.386 216.814 231.205 247.534 231.205C278.254 231.205 303.208 231.296 303.208 231.477Z" fill="#42382B"/>
<path d="M192.977 247.432C192.977 244.44 192.977 231.386 192.977 231.386L202.442 215.884L208.896 221.051L222.062 199.475L229.806 205.277L240.648 185.333L249.425 192.857L262.677 166.567L276.875 196.121L288.406 181.344L301.916 177.265V247.432H192.977Z" fill="#F1A34F"/>
<path d="M303.207 171.553C303.207 171.553 303.121 171.553 302.949 171.553C302.777 171.553 302.519 171.553 302.26 171.553C301.658 171.553 300.712 171.553 299.507 171.553C297.097 171.553 293.569 171.553 289.095 171.644L289.181 171.553C286.169 175.724 282.383 180.891 278.08 186.874L277.994 186.965H277.908C269.82 186.965 260.354 186.965 250.028 186.965L250.2 186.874C246.5 193.311 242.542 200.201 238.497 207.453C234.539 214.434 230.667 221.233 226.967 227.579L226.794 227.851L226.622 227.579C221.115 219.601 216.038 212.258 211.564 205.731H211.908C206.142 215.159 201.41 222.865 198.14 228.304C196.505 231.024 195.214 233.109 194.267 234.559C193.837 235.284 193.493 235.828 193.235 236.191C192.977 236.553 192.891 236.735 192.891 236.735C192.891 236.735 192.977 236.553 193.235 236.191C193.493 235.828 193.751 235.284 194.181 234.559C195.042 233.109 196.333 230.933 197.968 228.304C201.237 222.865 205.884 215.068 211.564 205.64L211.736 205.368L211.908 205.64C216.382 212.167 221.545 219.51 227.053 227.488H226.708C230.322 221.142 234.195 214.343 238.153 207.362C242.283 200.201 246.242 193.22 249.856 186.874L249.942 186.784H250.028C260.354 186.784 269.82 186.784 277.908 186.784L277.736 186.874C282.125 180.891 285.911 175.814 288.923 171.644V171.553H289.009C293.483 171.553 296.925 171.644 299.421 171.644C300.625 171.644 301.486 171.644 302.174 171.644C302.433 171.644 302.691 171.644 302.863 171.644C303.121 171.553 303.207 171.553 303.207 171.553Z" fill="#42382B"/>
<path d="M215.353 211.895C215.923 211.895 216.386 211.408 216.386 210.807C216.386 210.207 215.923 209.719 215.353 209.719C214.783 209.719 214.32 210.207 214.32 210.807C214.32 211.408 214.783 211.895 215.353 211.895Z" fill="#42382B"/>
<path d="M247.447 192.676C248.017 192.676 248.479 192.189 248.479 191.589C248.479 190.988 248.017 190.501 247.447 190.501C246.876 190.501 246.414 190.988 246.414 191.589C246.414 192.189 246.876 192.676 247.447 192.676Z" fill="#42382B"/>
<path d="M272.4 187.962C272.97 187.962 273.432 187.475 273.432 186.874C273.432 186.273 272.97 185.786 272.4 185.786C271.829 185.786 271.367 186.273 271.367 186.874C271.367 187.475 271.829 187.962 272.4 187.962Z" fill="#42382B"/>
<path d="M197.712 283.695C201.514 283.695 204.596 280.57 204.596 276.715C204.596 272.859 201.514 269.734 197.712 269.734C193.91 269.734 190.828 272.859 190.828 276.715C190.828 280.57 193.91 283.695 197.712 283.695Z" fill="#42382B" fill-opacity="0.25"/>
<path d="M295.981 272H214.836V274.629H295.981V272Z" fill="#42382B" fill-opacity="0.25"/>
<path d="M248.568 278.618H214.836V281.247H248.568V278.618Z" fill="#42382B" fill-opacity="0.25"/>
</g>
<g filter="url(#filter2_d_1101_12203)">
<path d="M222.32 72.1655H129.816C128.267 72.1655 127.062 70.8963 127.062 69.2645V46.1473C127.062 44.5155 128.267 43.2463 129.816 43.2463H222.32C223.869 43.2463 225.074 44.5155 225.074 46.1473V69.2645C225.074 70.8056 223.869 72.1655 222.32 72.1655Z" fill="#F1A34F"/>
<path d="M142.984 64.8227C146.264 64.8227 148.922 62.0222 148.922 58.5675C148.922 55.1128 146.264 52.3123 142.984 52.3123C139.705 52.3123 137.047 55.1128 137.047 58.5675C137.047 62.0222 139.705 64.8227 142.984 64.8227Z" fill="white"/>
<path d="M142.982 64.9136C141.605 64.9136 140.315 64.4603 139.282 63.5538C137.991 62.4659 137.217 61.0154 137.045 59.293C136.873 57.5705 137.303 55.9387 138.335 54.6695C139.368 53.3097 140.745 52.4938 142.38 52.3125C142.638 52.3125 142.81 52.3125 143.068 52.3125C144.445 52.3125 145.736 52.7658 146.768 53.6723C148.059 54.7602 148.834 56.2107 149.006 57.9331C149.178 59.6556 148.748 61.2874 147.715 62.5566C146.682 63.9164 145.306 64.7323 143.671 64.9136C143.498 64.823 143.24 64.9136 142.982 64.9136ZM143.068 52.3125C142.81 52.3125 142.638 52.3125 142.38 52.3125C140.831 52.4938 139.368 53.3097 138.422 54.5789C137.389 55.8481 136.959 57.4799 137.131 59.2023C137.303 60.8341 138.077 62.3753 139.282 63.3725C140.487 64.4603 142.036 64.9136 143.671 64.7323C145.219 64.551 146.682 63.7351 147.629 62.4659C148.661 61.1967 149.092 59.5649 148.92 57.8425C148.748 56.2107 147.973 54.6695 146.768 53.6723C145.65 52.7658 144.359 52.3125 143.068 52.3125Z" fill="#42382B"/>
<path d="M146.42 56.3913C146.506 56.4819 145.043 58.1137 143.236 60.0175C142.978 60.2894 142.72 60.5614 142.462 60.8334L142.29 61.0147L142.118 60.8334C140.655 59.2922 139.622 58.0231 139.708 57.9324C139.794 57.8417 140.913 58.9296 142.462 60.4708H142.118C142.376 60.1988 142.634 59.9268 142.892 59.6549C144.699 57.8417 146.334 56.3006 146.42 56.3913Z" fill="#F1A34F"/>
<path d="M215.518 55.5758C215.518 55.6666 203.041 55.8481 187.638 55.8481C172.235 55.8481 159.758 55.7573 159.758 55.5758C159.758 55.485 172.235 55.3035 187.638 55.3035C203.041 55.3035 215.518 55.3942 215.518 55.5758Z" fill="white"/>
<path d="M176.63 61.5595C185.517 61.5595 192.722 61.4376 192.722 61.2872C192.722 61.1368 185.517 61.0149 176.63 61.0149C167.743 61.0149 160.539 61.1368 160.539 61.2872C160.539 61.4376 167.743 61.5595 176.63 61.5595Z" fill="white"/>
</g>
<g filter="url(#filter3_d_1101_12203)">
<path d="M318.287 103.909H214.196C211.419 103.909 209.156 101.525 209.156 98.5992V9.30969C209.156 6.38394 211.419 4 214.196 4H318.287C321.064 4 323.327 6.38394 323.327 9.30969V98.4908C323.43 101.525 321.167 103.909 318.287 103.909Z" fill="white"/>
<path d="M235.179 43.9854H229.008V92.9645H235.179V43.9854Z" fill="#F1A34F"/>
<path d="M263.156 40.0837H256.984V93.0723H263.156V40.0837Z" fill="#F1A34F"/>
<path d="M292.265 33.2576H286.094V92.9645H292.265V33.2576Z" fill="#F1A34F"/>
<path d="M278.585 69.1257H272.414V92.9651H278.585V69.1257Z" fill="#F1A34F"/>
<g opacity="0.2">
<path opacity="0.2" d="M278.585 69.1257H272.414V92.9651H278.585V69.1257Z" fill="black"/>
</g>
<path d="M242.382 38.7839H236.211V93.0728H242.382V38.7839Z" fill="#F1A34F"/>
<g opacity="0.1">
<path opacity="0.1" d="M242.382 38.7839H236.211V93.0728H242.382V38.7839Z" fill="black"/>
</g>
<path d="M270.867 27.4058H264.695V93.0726H270.867V27.4058Z" fill="#F1A34F"/>
<g opacity="0.1">
<path opacity="0.1" d="M270.867 27.4058H264.695V93.0726H270.867V27.4058Z" fill="black"/>
</g>
<path d="M308.101 27.4058H301.93V93.0726H308.101V27.4058Z" fill="#F1A34F"/>
<g opacity="0.2">
<path opacity="0.2" d="M308.101 27.4058H301.93V93.0726H308.101V27.4058Z" fill="black"/>
</g>
<path d="M300.085 14.4028H293.914V92.9645H300.085V14.4028Z" fill="#F1A34F"/>
<g opacity="0.1">
<path opacity="0.1" d="M300.085 14.4028H293.914V92.9645H300.085V14.4028Z" fill="black"/>
</g>
<path d="M249.89 58.6135H243.719V93.0723H249.89V58.6135Z" fill="#F1A34F"/>
<g opacity="0.2">
<path opacity="0.2" d="M249.89 58.6135H243.719V93.0723H249.89V58.6135Z" fill="black"/>
</g>
<path d="M316.953 95.9988C316.953 96.1074 294.942 96.3244 267.891 96.3244C240.737 96.3244 218.828 96.2159 218.828 95.9988C218.828 95.8903 240.839 95.6733 267.891 95.6733C294.942 95.6733 316.953 95.8903 316.953 95.9988Z" fill="#42382B"/>
<path d="M219.649 84.2952H215.844V85.5955H219.649V84.2952Z" fill="#42382B"/>
<path d="M219.649 66.8503H215.844V68.1507H219.649V66.8503Z" fill="#42382B"/>
<path d="M219.649 34.0164H215.844V35.3167H219.649V34.0164Z" fill="#42382B"/>
<path d="M219.649 17.5449H215.844V18.8453H219.649V17.5449Z" fill="#42382B"/>
<path d="M219.853 50.4868H216.047V51.7872H219.853V50.4868Z" fill="#42382B"/>
</g>
<defs>
<filter id="filter0_d_1101_12203" x="0" y="212.356" width="146.195" height="69.9177" filterUnits="userSpaceOnUse" color-interpolation-filters="sRGB">
<feFlood flood-opacity="0" result="BackgroundImageFix"/>
<feColorMatrix in="SourceAlpha" type="matrix" values="0 0 0 0 0 0 0 0 0 0 0 0 0 0 0 0 0 0 127 0" result="hardAlpha"/>
<feOffset dx="1"/>
<feGaussianBlur stdDeviation="2"/>
<feColorMatrix type="matrix" values="0 0 0 0 0 0 0 0 0 0 0 0 0 0 0 0 0 0 0.13 0"/>
<feBlend mode="normal" in2="BackgroundImageFix" result="effect1_dropShadow_1101_12203"/>
<feBlend mode="normal" in="SourceGraphic" in2="effect1_dropShadow_1101_12203" result="shape"/>
</filter>
<filter id="filter1_d_1101_12203" x="167" y="145.797" width="152.047" height="154.137" filterUnits="userSpaceOnUse" color-interpolation-filters="sRGB">
<feFlood flood-opacity="0" result="BackgroundImageFix"/>
<feColorMatrix in="SourceAlpha" type="matrix" values="0 0 0 0 0 0 0 0 0 0 0 0 0 0 0 0 0 0 127 0" result="hardAlpha"/>
<feOffset dx="1"/>
<feGaussianBlur stdDeviation="2"/>
<feColorMatrix type="matrix" values="0 0 0 0 0 0 0 0 0 0 0 0 0 0 0 0 0 0 0.13 0"/>
<feBlend mode="normal" in2="BackgroundImageFix" result="effect1_dropShadow_1101_12203"/>
<feBlend mode="normal" in="SourceGraphic" in2="effect1_dropShadow_1101_12203" result="shape"/>
</filter>
<filter id="filter2_d_1101_12203" x="124.062" y="43.2463" width="106.008" height="36.9192" filterUnits="userSpaceOnUse" color-interpolation-filters="sRGB">
<feFlood flood-opacity="0" result="BackgroundImageFix"/>
<feColorMatrix in="SourceAlpha" type="matrix" values="0 0 0 0 0 0 0 0 0 0 0 0 0 0 0 0 0 0 127 0" result="hardAlpha"/>
<feOffset dx="1" dy="4"/>
<feGaussianBlur stdDeviation="2"/>
<feColorMatrix type="matrix" values="0 0 0 0 0 0 0 0 0 0 0 0 0 0 0 0 0 0 0.1 0"/>
<feBlend mode="normal" in2="BackgroundImageFix" result="effect1_dropShadow_1101_12203"/>
<feBlend mode="normal" in="SourceGraphic" in2="effect1_dropShadow_1101_12203" result="shape"/>
</filter>
<filter id="filter3_d_1101_12203" x="206.156" y="0" width="122.172" height="107.909" filterUnits="userSpaceOnUse" color-interpolation-filters="sRGB">
<feFlood flood-opacity="0" result="BackgroundImageFix"/>
<feColorMatrix in="SourceAlpha" type="matrix" values="0 0 0 0 0 0 0 0 0 0 0 0 0 0 0 0 0 0 127 0" result="hardAlpha"/>
<feOffset dx="1"/>
<feGaussianBlur stdDeviation="2"/>
<feColorMatrix type="matrix" values="0 0 0 0 0 0 0 0 0 0 0 0 0 0 0 0 0 0 0.13 0"/>
<feBlend mode="normal" in2="BackgroundImageFix" result="effect1_dropShadow_1101_12203"/>
<feBlend mode="normal" in="SourceGraphic" in2="effect1_dropShadow_1101_12203" result="shape"/>
</filter>
</defs>
</svg>
