<svg width="560" height="500" viewBox="0 0 560 500" fill="none" xmlns="http://www.w3.org/2000/svg">
<path d="M19.1239 184.247C20.1268 184.082 20.8595 184.002 21.5923 183.922C23.8698 182.463 20.5196 180.083 24.1078 178.81C27.1521 179.795 25.4921 180.911 28.729 181.985C30.9254 182.788 26.6441 183.533 31.2691 184.619C33.0821 184.201 31.8886 183.232 32.4684 182.454C34.3965 182.298 36.7875 182.146 34.9783 180.476C33.745 180.116 31.1634 179.136 29.5449 178.599C29.6261 176.337 29.9378 174.599 30.0568 172.772C31.0596 172.608 31.985 172.616 32.7951 172.362C32.797 171.318 32.9916 170.363 33.0331 168.709C32.763 168.794 29.1012 168.151 31.0294 167.995C31.7621 167.915 32.6875 167.923 33.4977 167.669C33.7716 165.496 34.0454 163.323 34.3193 161.15C35.5147 161.074 36.7102 160.998 37.983 160.748C38.2947 159.01 38.4136 157.184 38.8027 155.273C38.8027 155.273 40.1908 155.286 41.8867 155.649C41.7299 157.04 41.2653 158.08 41.3786 159.387C41.5694 160.52 39.7167 161.547 42.2586 163.137C43.7619 163.412 45.3426 163.513 47.5012 163.881C48.0093 160.143 48.4399 156.579 49.0631 153.104C49.1405 152.93 50.1434 152.766 51.0687 152.774C52.4946 153.222 53.9979 153.497 55.4237 153.945C55.5748 155.687 55.7258 157.429 55.9544 158.997C55.9544 158.997 56.7249 159.353 56.9175 159.441C58.113 159.365 59.231 159.462 60.4264 159.386C60.619 159.475 63.8541 161.593 63.8541 161.593C64.9721 161.69 65.9749 161.526 67.5556 161.627C67.8993 163.458 70.0938 165.305 73.021 167.072C75.3742 166.485 74.9908 165.263 74.3373 164.126C73.3742 163.682 72.6037 163.327 71.8332 162.971C72.0277 162.016 70.989 160.701 72.802 160.282C73.7274 160.291 74.4602 160.21 75.3855 160.219C75.8143 157.699 76.243 155.179 76.479 152.571C77.6745 152.494 79.0626 152.507 79.7953 152.427C80.6055 152.173 79.0267 151.027 83.3816 152.198C83.1097 153.327 82.8377 154.456 82.8358 155.5C83.0266 156.634 81.0587 157.399 83.6007 158.988C87.8801 159.289 84.1049 157.34 87.4212 157.196C89.542 157.128 89.814 155.999 90.9716 155.488C93.0528 156.029 94.4787 156.477 96.2898 157.103C94.9017 157.09 93.7063 157.166 92.7034 157.331C92.6241 158.549 92.3522 159.677 92.2728 160.895C94.5466 161.525 96.2425 161.889 94.0443 162.13C93.4664 161.863 92.6959 161.508 91.8101 160.891C90.9622 160.709 89.8442 160.612 89.5741 160.696C88.5713 160.861 88.1464 161.293 87.6063 161.462C85.255 161.005 83.867 160.992 81.5157 160.536C83.5572 161.686 85.2909 162.485 86.8319 163.195C92.152 163.766 96.2387 163.977 100.864 165.064C102.522 164.992 103.987 164.831 105.105 164.928C105.8 164.413 104.222 163.267 104.492 163.182C109.619 163.664 112.586 164.822 114.899 164.844C117.175 164.429 113.4 162.48 118.219 162.611C118.565 163.398 118.911 164.184 119.334 164.797L120.607 164.548C121.919 163.689 123.925 163.359 124.429 161.71C124.933 160.062 126.013 159.723 128.402 160.615C129.366 161.059 130.176 160.806 130.716 160.636C131.449 160.556 131.758 159.863 132.684 159.871C134.805 159.804 137.118 159.825 139.432 159.846L141.09 159.774C140.665 160.205 140.432 160.725 140.2 161.245C141.088 160.818 142.053 160.218 142.94 159.791C143.288 159.533 143.828 159.364 144.176 159.106C144.138 158.67 144.563 158.239 145.373 157.985C144.872 157.546 144.102 157.19 143.601 156.751C142.831 156.396 142.06 156.041 141.29 155.685L140.752 154.81L142.489 153.521C139.26 148.27 139.84 147.492 144.808 150.409C146.465 151.381 148.351 152.878 149.968 154.459C150.661 154.988 151.276 155.689 151.777 156.129C153.127 155.706 154.4 155.457 155.75 155.034C152.402 151.609 148.821 148.705 145.201 146.409L151.8 143.598L150.221 142.452C150.955 141.327 153.579 140.655 155.582 141.369C155.968 141.547 156.123 141.2 156.585 141.204C160.477 142.371 164.366 145.627 167.983 150.011L170.985 152.649L173.877 152.937L169.068 146.54C166.761 143.386 166.377 142.164 169.652 143.673L171.578 144.561C172.508 142.481 173.359 140.574 174.288 138.494C174.443 138.147 174.29 137.45 173.982 137.099C170.866 133.154 173.025 133.522 174.183 133.01C175.88 132.33 177.771 131.738 179.546 130.884L178.815 129.92C177.852 129.476 176.889 129.032 175.233 128.059C179.167 127.573 172.929 122.817 172.702 120.204L179.595 125.053C181.675 126.639 183.831 128.051 185.718 129.547C185.95 129.027 186.298 128.77 186.685 127.903C184.22 126.14 182.334 124.643 180.562 123.409C182.415 122.381 184.268 121.354 185.928 120.238C186.352 119.806 186.547 118.851 186.009 117.976C184.049 114.564 185.284 113.879 186.596 113.02C187.561 112.42 187.833 111.291 188.413 110.513C189.418 109.304 190.615 108.184 191.272 107.232C193.119 109.338 194.621 110.657 195.852 112.061L199.202 114.441C200.354 117.062 201.55 116.986 201.551 115.942C201.363 113.764 200.751 110.974 200.254 108.446C200.639 108.623 201.295 108.716 201.603 109.067C205.759 113.282 206.724 112.682 207.153 110.162C207.31 108.771 210.739 109.934 212.783 110.039C211.589 109.071 210.396 108.103 209.009 107.046C213.948 105.35 213.948 105.35 220.76 112.462C221.876 113.603 222.375 115.087 223.143 116.487C221.795 115.865 220.176 115.328 219.445 114.364C216.675 111.206 214.671 110.492 212.59 109.951L218.361 116.791L221.13 120.994C223.02 120.402 225.026 120.072 226.801 119.218C227.149 118.96 226.573 117.649 226.497 116.778C225.574 115.726 224.38 114.757 223.457 113.705L214.224 102.133C214.996 101.444 215.961 100.843 216.734 100.154C217.583 99.2918 218.701 99.389 221.241 102.023C222.05 102.814 223.013 103.257 223.899 103.875C223.63 102.915 223.362 101.955 222.824 101.08C222.286 100.205 221.285 99.3256 220.669 98.6237C222.212 98.2897 224.021 99.9597 225.791 102.239C228.526 103.917 231.145 105.333 233.802 107.185C236.652 109.126 239.617 111.328 240.699 109.946C241.201 109.341 241.128 107.426 240.512 106.724C238.55 104.356 236.048 102.158 233.66 100.222C232.159 98.9026 223.038 89.6816 222.847 88.5485C222.694 87.8509 223.234 87.6818 223.581 87.4239L229.553 90.1762C230.633 89.8379 232.792 90.2057 232.601 89.0726C232.488 87.7662 230.603 85.2252 229.296 82.9506C229.104 82.8618 228.371 82.9422 227.715 82.8492L226.832 81.1876C227.95 81.2848 229.068 81.3821 230.186 81.4793C229.036 77.8137 230.618 76.8708 233.394 76.8961C234.784 75.8645 237.523 75.4543 231.595 70.0046C231.402 69.9159 231.444 68.2627 231.829 68.4403C233.948 69.4169 235.912 70.7402 238.146 71.979C239.266 71.0319 240.694 70.4357 243.16 71.1544C244.201 71.425 244.627 69.9494 244.437 68.8164C243.864 65.4171 243.908 62.7197 247.762 63.451C247.955 63.5398 248.032 63.3665 248.11 63.1931C247.649 62.1446 247.188 61.0961 246.497 59.5233C249.192 61.8106 251.194 63.5694 254.081 65.9454C252.775 63.6708 252.314 62.6223 251.853 61.5738C252.856 61.4089 253.781 61.4173 254.707 61.4257C253.745 59.9375 252.977 58.5381 252.208 57.1386C256.1 58.3055 259.607 59.2948 263.114 60.284L264.078 60.728C266.703 59.0114 269.25 57.4681 271.953 55.5782C271.415 54.703 270.338 52.9527 268.801 50.1538C272.189 52.9695 274.576 54.9059 276.77 56.7535C277.311 56.5843 277.928 56.2419 278.468 56.0727C277.237 54.6691 276.313 53.6163 275.275 52.3015C276.315 52.572 277.741 53.0202 277.549 52.9314C275.936 49.2616 279.594 51.9928 280.904 52.1788L283.639 53.8572C284.257 53.5147 284.989 53.4344 285.607 53.0919C285.877 53.0073 285.954 52.834 286.032 52.6607C287.384 51.1935 291.276 52.3604 288.702 47.2023C288.472 46.6781 288.974 46.0735 289.167 46.1623C292.902 48.7201 292.946 46.0227 295.22 46.6526L293.752 47.8576C293.52 48.3776 293.018 48.9822 292.785 49.5023C293.018 48.9822 293.327 48.2888 293.752 47.8576L295.22 46.6526L301.237 45.6631L304.71 44.1283C305.448 40.9151 308.419 39.9849 313.389 41.8578C311.928 39.9299 310.388 38.1753 309.042 36.5095L310.313 37.3044C310.742 34.7845 311.248 32.0913 311.522 29.9181C313.641 30.8947 315.644 31.6092 317.378 32.4083C317.92 31.1948 316.689 29.7912 314.725 28.4679C313.338 27.4109 311.875 26.5273 310.566 25.297C309.565 24.4176 308.604 22.9294 308.336 21.9697C308.22 21.7075 309.609 21.7202 310.379 22.0753C312.728 23.5762 315.115 25.5126 318.774 28.2437C315.965 24.65 313.773 21.7582 311.35 18.342C312.506 18.8747 313.276 19.2299 314.047 19.585L319.325 21.8088L321.365 24.0031C322.947 23.0602 324.677 25.9479 326.486 27.6179L328.413 28.5057C334.15 32.8223 338.082 33.3803 341.591 33.3253C341.708 32.5431 341.632 31.6722 341.789 30.2812C345.179 32.0526 348.684 34.0862 352.267 35.9464C355.237 35.0162 351.158 30.6277 349.081 27.998C352.087 28.5475 354.439 29.0041 357.06 29.3761C356.833 26.7633 360.454 29.059 361.689 28.374C363.889 27.0887 367.12 31.2954 369.855 32.9739C368.935 29.8325 369.517 28.0103 372.678 28.2131C374.259 28.3146 375.109 27.4521 375.843 26.3274C377.235 24.2515 378.011 21.4737 382.867 23.0845C384.336 20.8352 382.068 17.0724 378.028 12.075C378.992 12.5189 379.647 12.6119 380.225 12.8783C383.962 14.3918 384.117 14.0451 381.349 9.84262C380.079 8.00349 378.618 6.07558 377.772 4.8495C380.469 6.09246 383.243 7.16207 385.94 8.40503C384.247 5.95286 382.633 3.32734 380.402 0C384.446 2.90874 388.1 7.72852 391.146 7.66928C394.802 11.4448 390.449 9.22939 390.948 10.7134L395.988 16.5901C396.298 15.8967 396.145 15.1991 395.8 14.4128C394.532 11.5293 395.843 11.7153 398.615 13.8292C399.501 14.4465 400.617 15.588 401.273 15.681C402.313 15.9516 403.008 15.4358 403.934 15.4442C402.817 14.3027 401.586 12.899 400.508 12.193C397.773 10.5146 395.616 9.10246 395.968 6.75595C395.93 6.32047 394.198 4.47713 394.123 3.60618C393.817 2.21096 394.089 1.0821 394.668 0.304151C394.746 0.130804 396.903 1.5429 397.981 2.24894C400.33 3.74982 404.489 6.9207 404.914 6.48944C406.266 5.02232 409.578 6.9671 412.738 8.21428C413.894 8.74698 415.32 9.19512 415.667 8.93721C416.942 7.64344 419.329 9.57979 422.024 11.8671C422.91 12.4843 423.603 13.0128 424.488 13.6301L424.103 13.4525L414.177 1.35233L414.91 1.27197C416.604 2.67984 418.413 4.34984 419.992 5.49558C422.148 6.90768 424.19 8.05765 424.764 10.4126C424.879 10.6747 425.995 11.8162 426.188 11.905C426.766 12.1714 427.306 12.0023 427.461 11.6556C427.616 11.3089 427.27 10.5225 427.04 9.99822C426.275 6.51018 427.586 6.69618 432.398 11.0044L439.255 14.3739C441.104 15.4351 442.875 16.6696 444.686 17.2953C446.805 18.2719 448.579 18.4621 450.582 19.1766L452.743 18.5001C453.206 18.5043 453.591 18.6819 454.786 18.6058C454.973 21.8275 455.007 24.3515 455.041 26.8756C455.077 28.3554 456.348 29.1502 457.889 29.8605L459.043 31.4375L460.353 31.6235L461.162 32.4141C462.238 34.1644 463.315 35.9148 464.661 37.5806C465.777 38.7221 467.279 40.0412 468.55 40.836C469.128 41.1024 469.437 40.409 469.862 39.9777C470.48 39.6352 470.982 39.0306 471.407 38.5994C473.792 41.58 475.484 44.0322 477.717 46.3152C480.565 49.3001 483.875 52.2892 487.071 55.0162C490.959 58.2716 494.77 61.7004 498.813 64.6091C501.586 66.723 504.513 68.4903 507.941 70.6972C506.938 70.8621 506.128 71.1158 505.202 71.1073C504.084 71.0101 502.658 70.562 501.425 70.2026L502.041 70.9045C503.234 71.8726 504.428 72.8408 505.506 73.5469C509.397 75.758 513.361 79.8844 514.513 82.5057C513.162 82.9285 511.389 82.7383 511.387 83.7826C511.306 86.0445 512.11 88.9237 512.53 91.6254C506.097 87.8246 505.672 88.2558 508.632 93.5914C509.939 95.866 510.59 98.0476 511.627 100.407L510.894 100.487C513.204 102.597 515.706 104.795 518.516 107.345C518.977 108.393 519.746 109.793 520.437 111.365C521.243 113.2 522.127 114.862 523.164 117.221C521.47 115.813 520.739 114.849 518.737 113.09C519.544 114.925 519.619 115.796 520.273 116.934C522.618 120.523 525.234 124.028 527.579 127.618L527.458 130.488C528.344 131.106 529.268 132.158 530.038 132.513C534.352 135.338 539.698 142.61 537.806 144.246C536.261 145.624 537.105 147.895 537.987 150.6L537.794 150.512L535.894 156.325L540.329 156.278L536.434 156.156L538.334 150.342L538.527 150.431C538.871 152.262 539.87 154.186 542.449 156.211C542.025 156.642 541.715 157.335 541.29 157.767C540.402 158.194 539.014 158.181 538.434 158.959C537.585 159.822 537.428 161.212 537.078 162.515C541.12 166.468 545.084 170.594 549.934 175.338C547.616 177.405 545.299 179.473 542.982 181.54L541.324 181.612C540.242 182.995 539.39 184.902 537.807 185.844C536.34 187.049 534.142 187.29 532.174 188.056C531.632 189.269 530.397 189.954 530.432 191.434C530.351 193.696 528.81 192.986 526.383 191.658L520.861 196.22L519.551 196.034L519.819 196.994C520.274 201.175 515.305 198.258 511.876 197.095L507.135 195.747C504.32 196.33 501.734 197.438 499.111 198.11C495.948 198.952 492.669 199.531 490.93 201.865C490.813 202.647 490.696 203.429 490.386 204.123L489.691 204.638L489.489 209.771C489.292 211.771 487.243 214.798 491.022 214.659C490.171 216.565 489.666 218.214 488.969 219.774C488.892 219.948 488.737 220.295 488.66 220.468C489.005 221.254 489.158 221.952 489.311 222.65L492.59 222.07C490.193 225.355 488.067 228.556 491.727 230.243C492.305 230.509 491.415 231.98 491.298 232.763L489.564 231.964C487.676 231.511 485.787 231.059 484.091 230.695C485.98 231.148 487.868 231.6 489.564 231.964L491.298 232.763L490.678 234.149C492.22 234.86 495.923 233.849 495.109 236.191C495.109 236.191 496.112 236.027 496.845 235.946L502.399 234.953C504.327 234.796 506.14 234.377 507.991 234.394C510.382 234.242 512.773 234.09 514.971 233.849L526.306 234.474L527.501 234.398C530.933 234.517 534.867 234.03 537.448 235.011C541.726 236.355 545.153 238.562 548.929 240.511C552.086 242.803 554.974 245.179 551.803 250.198L550.902 257.935C553.37 257.609 555.954 257.546 559 257.486C556.22 259.55 553.518 261.44 550.815 263.33L550.116 265.934C553.472 265.181 553.2 266.31 551.771 267.951C550.031 270.285 547.367 272.61 547.825 274.703C547.863 275.138 544.853 276.677 543.193 277.793L538.062 279.4L529.529 285.501C531.187 285.429 533.038 285.446 534.696 285.374C535.622 285.383 536.47 285.565 537.318 285.746C536.275 286.52 535.078 287.64 533.997 287.979C530.679 289.167 527.939 290.621 526.932 292.875C522.069 295.441 516.936 298.092 516.351 302.003C516.196 302.35 514.883 303.208 514.189 303.724C512.836 305.191 511.484 306.658 510.247 308.387C512.406 308.755 514.372 309.034 515.952 309.136C514.098 311.207 512.861 312.937 511.431 314.577C509.229 316.907 507.605 319.503 504.555 321.651C499.265 325.693 493.397 329.468 487.607 333.07C484.635 335.045 481.162 336.58 477.804 338.377L464.837 344.524L456.186 352.452L453.211 355.471C450.896 356.494 448.58 357.517 446.458 358.629C440.282 362.054 434.029 365.652 428.046 369.165C426.69 372.721 424.683 374.095 421.366 374.239C419.436 375.44 418.046 376.472 416.464 377.414C410.673 381.017 404.883 384.619 398.978 387.959C394.307 390.614 389.137 392.83 384.351 395.223L353.67 410.347L346.299 413.848L341.356 417.632C340.236 418.579 338.306 419.78 338.267 420.389C338.185 422.65 335.64 423.149 333.132 424.084C330.624 425.018 327.961 426.299 325.375 427.407L325.683 427.758L331.545 427.115L331.621 427.986C328.958 429.267 326.218 430.722 323.13 432.434C325.136 432.104 326.679 431.77 328.221 431.436C328.067 431.783 328.259 431.872 328.067 431.783C327.449 432.125 327.024 432.557 326.484 432.726L309.814 439.884C305.298 442.193 300.668 444.239 296.46 446.898C291.172 449.896 286.311 451.418 282.532 451.558C277.514 454.471 273.306 457.13 268.984 459.528L268.406 459.261L269.603 458.141C261.348 459.98 260.461 460.407 256.867 464.813C255.941 464.804 254.901 464.534 253.82 464.872C249.229 466.31 244.368 467.832 239.892 469.532C236.304 470.804 233.836 471.13 232.605 469.726L229.906 469.528L223.849 471.126L219.494 469.955C218.339 469.422 216.565 469.232 216.49 468.361C216.223 466.357 214.99 465.998 211.092 467.964C206.114 470.268 201.021 472.31 196.12 474.441L194.033 477.033L187.008 481.32C185.695 482.178 186.692 485.146 182.607 483.891L181.178 485.531C181.869 487.104 180.979 488.575 177.121 489.933C176.505 489.231 176.082 488.618 175.582 488.178C173.807 489.032 171.916 489.624 170.334 490.567C169.021 491.425 167.901 492.372 166.589 493.231C164.313 493.645 161.922 493.797 159.684 494.647C154.206 496.512 148.493 499.941 142.825 499.628L135.923 500L133.613 497.89L135.662 494.863L138.871 490.28L139.758 489.853C138.795 489.409 137.677 489.312 136.984 488.783C136.484 488.344 136.871 487.477 136.91 486.868L135.492 482.243L135.184 481.892C136.074 480.42 136.963 478.949 138.008 477.131C137.352 477.038 136.697 476.945 135.849 476.763L129.213 479.14L123.506 479.436C125.09 477.448 126.482 475.372 128.066 473.385C127.528 472.51 126.99 471.635 126.259 470.671C125.449 470.925 124.561 471.352 123.751 471.605L123.366 471.428C123.288 471.601 123.096 471.512 123.018 471.686C123.557 472.561 124.095 473.436 124.633 474.311C123.281 475.778 122.161 476.725 121.234 477.761C120.231 477.926 119.421 478.18 117.608 478.599L114.941 481.968C115.751 481.715 116.484 481.634 117.487 481.469C116.867 482.856 115.978 484.327 115.358 485.714C114.008 486.137 113.005 486.302 111.925 486.64C109.028 489.486 109.028 489.486 105.517 490.585C106.097 489.807 106.677 489.029 107.372 488.513C106.099 488.763 105.096 488.928 104.171 488.919C103.71 487.871 102.747 487.427 104.871 485.27C106.224 483.803 106.033 482.67 106.73 481.11C106.577 480.413 104.881 480.049 106.04 478.493C107.391 478.07 108.818 477.474 110.516 476.793C110.558 475.14 110.097 474.092 107.746 473.635C107.126 475.022 106.469 475.973 105.927 477.187C104.191 477.432 102.726 477.593 101.183 477.927C101.685 477.322 102.188 476.717 102.96 476.028C102.845 475.766 102.615 475.242 102.499 474.98L100.107 476.176C94.626 479.085 89.1096 480.514 83.9425 480.641C81.6669 481.056 79.2363 481.817 77.3081 481.973C73.1816 482.371 66.9683 485.36 65.0458 482.383L63.8541 480.371L67.6011 476.663C68.1034 476.058 68.8758 475.369 68.9155 474.76C69.0723 473.369 69.9636 470.854 68.7682 470.93C68.3055 470.926 67.8428 470.922 67.4575 470.744C67.1875 470.829 66.9949 470.74 66.7248 470.824C66.5322 470.736 66.6096 470.562 66.417 470.473C65.8391 470.207 65.6087 469.683 65.5709 469.247C64.6871 467.586 63.7258 466.098 62.842 464.436C63.5766 463.311 67.4368 460.91 63.503 461.396C62.2679 462.081 61.148 463.028 59.9129 463.713C57.8317 463.172 57.7184 461.865 57.2973 460.208C58.6098 459.35 60.6948 457.802 62.4322 456.513C62.317 456.251 62.1244 456.162 62.0092 455.9L60.8515 456.411L57.1084 458.031C55.4106 458.711 53.6354 459.566 51.9376 460.246C47.2295 462.466 42.9085 463.819 38.7065 463.346C37.3958 463.16 35.8548 462.449 34.9672 462.876C30.8766 464.754 28.3327 464.208 25.364 464.094C23.9797 461.993 22.7502 459.545 26.6123 456.099L21.6813 453.617C18.2121 453.064 19.604 450.988 21.4585 448.916C20.1875 448.121 19.1866 447.242 17.5682 446.705C14.2538 445.804 14.3728 443.978 17.1924 441.306C15.2264 441.027 13.5305 440.663 11.3719 440.295C11.9139 439.082 12.6108 437.522 13.3077 435.962L17.3964 435.129C18.7467 434.706 20.1744 434.11 21.3321 433.598C19.9818 434.021 18.554 434.617 17.3964 435.129L13.3077 435.962C15.4701 434.241 17.1301 433.125 16.4011 431.116C15.404 428.148 16.9149 424.246 17.3455 420.682C17.3851 420.073 17.8101 419.642 17.8497 419.033C18.2388 417.122 18.6278 415.211 19.0169 413.3L11.9651 410.886L8.87922 411.554L7.72152 412.066C7.72531 409.977 7.53647 407.8 7.73289 405.8C7.81032 405.626 8.77538 405.026 9.663 404.599C9.81786 404.252 9.97271 403.906 10.205 403.386L9.36083 401.115L10.2862 401.124L15.1152 396.033L15.3079 396.122L24.0329 390.11C23.8025 389.585 23.4947 389.234 22.3767 389.137C21.7214 389.044 20.796 389.036 20.0633 389.116C18.3749 384.575 18.3749 384.575 14.9435 384.457C15.0171 386.372 16.7111 387.78 15.8594 389.687C14.0086 389.67 12.8906 389.573 11.6951 389.649C10.7301 390.249 9.76503 390.85 8.18243 391.793C7.18151 390.913 6.10319 390.207 6.91527 388.909C7.61025 388.393 8.22779 388.051 8.84534 387.708C8.65461 386.575 8.27125 385.353 8.19571 384.482C9.43082 383.798 10.1258 383.282 10.7433 382.939C10.5904 382.242 10.1673 381.629 10.0144 380.931C9.93884 380.06 8.32036 379.523 9.28541 378.923C11.1381 377.895 12.1031 377.295 13.4157 376.437C15.2664 376.454 17.1172 376.47 18.4278 376.656C16.5733 378.728 14.951 380.28 13.8689 381.662C13.714 382.009 14.562 382.191 15.3325 382.546C16.9529 382.039 18.7659 381.62 19.5761 381.366C21.1209 379.988 18.4996 379.616 20.6998 378.331C23.0529 377.743 25.4834 376.982 27.8365 376.394C29.1491 375.536 30.4616 374.677 31.6967 373.993C31.2737 373.379 25.8045 370.023 25.1492 369.93L22.0633 370.598C19.5931 371.968 20.8244 373.371 16.426 374.898C14.6527 374.707 12.9945 374.779 11.4138 374.678C10.9153 373.194 10.5319 371.972 10.1485 370.75C11.1136 370.15 12.0786 369.549 12.9662 369.122C13.1608 368.167 11.2722 367.714 13.395 366.602C15.0153 366.095 16.3656 365.672 18.4487 365.169C18.0257 364.556 17.5252 364.116 17.2174 363.765C14.749 364.091 13.2835 364.252 11.4705 364.67C10.972 363.186 10.5886 361.965 10.2052 360.743C13.7557 359.034 12.1769 357.889 13.259 356.506C13.4139 356.159 14.4941 355.821 15.3818 355.394C14.6925 352.777 13.7331 350.245 13.0438 347.628C14.0088 347.027 14.9739 346.427 16.1316 345.915C16.0164 345.653 15.9786 345.218 15.7482 344.693C16.9059 344.182 18.3336 343.586 19.7614 342.989C19.2231 342.114 18.8775 341.328 18.1467 340.364C17.7236 339.751 17.6481 338.88 17.2251 338.267C15.9598 334.339 14.6945 330.411 13.6218 326.572C13.4688 325.875 13.1232 325.088 13.0477 324.217C12.7776 324.302 12.4301 324.56 12.0827 324.818C9.654 324.535 9.50102 323.837 11.5463 322.898C12.009 322.903 12.3943 323.08 12.7795 323.258C12.6266 322.56 12.6662 321.951 12.7059 321.342C12.4358 321.427 12.0884 321.685 11.8183 321.769C11.0855 321.85 10.2376 321.668 9.50483 321.748C9.77489 321.664 10.1224 321.406 10.6625 321.237C11.3178 321.33 12.0506 321.249 12.7059 321.342L12.7833 321.169C14.0997 318.222 12.7192 314.032 9.10453 308.604L10.9534 309.665C11.2612 310.016 11.299 310.451 11.5294 310.976C11.299 310.451 11.1838 310.189 10.9534 309.665L9.10453 308.604C8.7986 307.209 8.30003 305.725 8.30192 304.68C7.8506 298.41 7.85061 298.41 0.653431 291.121C0.4608 291.033 0.423029 290.597 0 289.984C0.732753 289.904 1.65812 289.912 2.58351 289.921L4.16233 291.066C4.58726 290.635 5.39744 290.381 5.3219 289.51C4.86489 286.373 4.10004 282.885 3.72047 279.575C3.64493 278.704 3.56939 277.833 4.10952 277.664C6.3871 276.205 7.97161 274.218 6.82341 269.508C6.28708 267.589 7.33142 265.771 9.02733 266.134C13.0745 266.954 16.0829 266.46 18.7458 265.178C21.1347 266.07 22.9081 266.261 24.451 265.927C22.5266 263.995 23.1442 263.652 26.1149 262.722C26.1904 263.593 26.3434 264.29 26.3037 264.899C26.6512 264.641 26.8835 264.121 27.0383 263.775C27.9675 261.694 28.6266 259.699 31.365 259.289L31.8693 257.64C29.3651 256.486 27.3236 255.336 25.7825 254.625C25.4804 251.142 25.1782 247.658 24.8761 244.174C24.8402 242.694 24.7269 241.388 24.691 239.908C24.691 239.908 24.4984 239.819 24.421 239.993C24.421 239.993 23.9205 239.553 23.1122 238.762C23.4597 238.504 23.5768 237.722 24.1547 237.988L24.3473 238.077C24.234 236.771 24.1981 235.291 24.0848 233.985C25.1651 233.646 25.8978 233.566 27.1707 233.317C26.4795 231.744 27.6391 230.188 26.37 228.349C24.0188 227.892 22.0528 227.613 20.2795 227.423C20.2814 226.379 20.2058 225.508 20.2077 224.463C19.0519 223.931 18.0114 223.66 17.0482 223.216C18.1285 222.878 19.1313 222.713 20.4041 222.464C20.3305 220.548 20.2569 218.633 20.1832 216.718C20.1096 214.803 20.2286 212.976 20.1549 211.061C21.1578 210.896 21.8905 210.816 23.2408 210.393C23.2049 208.913 23.2465 207.26 23.2106 205.78C24.831 205.273 25.8338 205.108 26.9141 204.77C25.1426 203.535 23.2937 202.474 20.8292 200.711C18.6668 202.432 21.5166 204.372 18.7385 205.391C18.7385 205.391 18.0832 205.298 17.6205 205.294C17.2353 205.116 16.58 205.023 16.6574 204.85C16.6631 201.717 16.7462 198.411 16.9445 195.367C18.2174 195.117 19.2202 194.952 20.4931 194.703C18.8425 190.598 18.8482 187.465 19.1239 184.247ZM6.72133 283.257C6.10568 282.555 5.60521 282.116 5.10475 281.676C5.41258 282.027 6.10568 282.555 6.72133 283.257ZM135.247 468.751C135.362 469.013 135.362 469.013 135.477 469.276C135.362 469.013 135.439 468.84 135.247 468.751C135.054 468.663 135.131 468.489 134.939 468.4C135.131 468.489 135.131 468.489 135.247 468.751ZM167.95 486.542C167.68 486.626 167.333 486.884 167.063 486.969C167.525 486.973 167.873 486.715 167.95 486.542ZM356.27 39.464C356.231 40.0728 356.269 40.5083 356.229 41.1171C356.191 40.6816 356.231 40.0728 356.27 39.464ZM45.137 446.869C45.2145 446.696 45.1767 446.26 45.2542 446.087C45.1767 446.26 45.0218 446.607 45.137 446.869ZM154.51 477.63C155.783 477.38 157.326 477.046 159.061 476.801C157.326 477.046 155.975 477.469 154.51 477.63C154.859 476.327 154.861 475.283 153.975 474.666C153.667 474.315 153.012 474.222 152.357 474.129C153.012 474.222 153.59 474.488 153.975 474.666C154.861 475.283 155.052 476.416 154.51 477.63ZM210.22 438.715C208.099 438.782 206.441 438.854 204.783 438.926C206.441 438.854 208.292 438.871 210.22 438.715ZM195.946 123.81C196.755 124.601 197.293 125.476 197.986 126.004C197.293 125.476 196.484 124.685 195.946 123.81ZM350.763 56.9931C350.801 57.4286 350.954 58.1262 350.992 58.5617C350.761 58.0374 350.724 57.6019 350.763 56.9931C351.303 56.824 351.651 56.5661 351.998 56.3082C351.381 56.6506 351.033 56.9085 350.763 56.9931ZM492.202 286.901C492.859 285.95 493.787 284.914 494.599 283.616C493.594 284.825 492.859 285.95 492.202 286.901ZM397.699 29.9208C398.585 30.538 399.586 31.4174 400.549 31.8613C399.663 31.2441 398.585 30.538 397.699 29.9208ZM87.1477 435.504C86.685 435.5 86.1448 435.669 85.4895 435.576C85.9522 435.58 86.6075 435.673 87.1477 435.504ZM382.019 65.5456L382.096 65.3723C382.096 65.3723 382.096 65.3723 382.019 65.5456ZM376.305 175.582C375.805 175.142 375.227 174.876 374.726 174.436C375.227 174.876 375.727 175.316 376.305 175.582ZM359.252 160.197C358.02 158.793 356.789 157.39 355.288 156.07C356.712 157.563 358.02 158.793 359.252 160.197ZM330.259 94.5756C332.49 97.9029 334.797 101.057 337.028 104.384L330.259 94.5756ZM382.247 67.1142C382.017 66.5899 381.594 65.9769 381.363 65.4526C381.516 66.1502 381.939 66.7633 382.247 67.1142ZM68.8346 413.058C68.6835 411.316 67.5674 410.175 65.7563 409.549C67.7601 410.263 68.8762 411.405 68.8346 413.058ZM393.83 37.5438C394.795 36.9434 395.49 36.4276 396.532 35.6539C395.49 36.4276 394.602 36.8546 393.83 37.5438ZM437.566 52.4761C437.644 52.3027 437.451 52.2139 437.529 52.0406C437.644 52.3027 437.644 52.3027 437.566 52.4761ZM438.796 54.924C439.181 55.1016 439.759 55.3679 440.337 55.6343C439.951 55.4567 439.374 55.1904 438.796 54.924ZM495.596 265.263C495.789 265.352 496.059 265.267 496.251 265.356C496.251 265.356 495.789 265.352 495.596 265.263ZM298.107 410.449C297.106 409.57 296.298 408.779 296.76 408.784C297.531 409.139 297.916 409.316 298.494 409.583C299.344 408.72 300.194 407.858 301.121 406.822C300.116 408.031 299.267 408.893 296.953 408.872C296.76 408.784 296.49 408.868 296.298 408.779C296.991 409.308 297.607 410.01 298.107 410.449ZM435.498 44.6248C434.497 43.7455 433.689 42.9548 433.344 42.1685C433.767 42.7815 434.575 43.5721 435.498 44.6248ZM222.843 133.28C222.535 132.929 222.227 132.578 222.034 132.489C222.227 132.578 222.612 132.756 222.843 133.28ZM357.845 64.0198C359.541 64.3834 361.315 64.5736 363.473 64.9414C361.315 64.5736 359.619 64.21 357.845 64.0198ZM419.52 32.0343C417.631 31.582 415.435 30.7787 413.238 29.9755C415.242 30.6899 417.438 31.4932 419.52 32.0343ZM500.773 259.914C501.275 259.31 501.932 258.358 502.435 257.754C502.319 257.492 502.319 257.492 502.127 257.403C502.319 257.492 502.242 257.665 502.435 257.754C502.125 258.447 501.352 259.136 500.773 259.914ZM203.487 132.93C202.063 131.437 201.062 130.558 200.254 129.767C201.14 130.384 202.063 131.437 203.487 132.93ZM198.906 129.146C198.713 129.057 198.443 129.141 198.25 129.053C198.52 128.968 198.713 129.057 198.906 129.146ZM201.797 129.433C202.297 129.873 202.875 130.139 203.453 130.405C202.875 130.139 202.375 129.699 201.797 129.433C200.911 128.816 200.025 128.199 199.102 127.146C199.91 127.936 200.911 128.816 201.797 129.433ZM244.557 108.589C244.673 108.851 244.71 109.286 244.825 109.548C244.903 109.375 244.865 108.939 244.557 108.589ZM413.744 27.2823C413.707 26.8468 413.554 26.1492 413.401 25.4516C413.361 26.0604 413.514 26.758 413.744 27.2823ZM430.324 27.6075C430.288 26.1277 429.982 24.7325 429.871 22.3818C430.175 24.8213 430.288 26.1277 430.324 27.6075ZM453.094 37.4751C453.094 37.4751 452.979 37.213 452.786 37.1242C452.979 37.213 452.979 37.213 453.094 37.4751ZM453.169 38.346L453.092 38.5194C453.169 38.346 453.169 38.346 453.169 38.346ZM453.324 37.9993C453.402 37.826 453.402 37.826 453.287 37.5639C453.209 37.7372 453.324 37.9993 453.324 37.9993ZM497.999 88.2729C498.192 88.3617 498.5 88.7126 498.615 88.9747C498.5 88.7126 498.115 88.535 497.999 88.2729ZM514.938 272.923C515.671 272.843 516.134 272.847 516.674 272.678C516.211 272.674 515.671 272.843 514.938 272.923ZM501.773 282.115C501.426 282.373 501.271 282.72 501.001 282.804C501.078 282.631 501.426 282.373 501.773 282.115ZM70.4244 471.902C70.347 472.076 70.3848 472.511 70.2299 472.858C70.3848 472.511 70.5396 472.164 70.4244 471.902ZM35.2015 439.991C35.1618 440.599 35.007 440.946 35.0447 441.382C35.1996 441.035 35.1618 440.599 35.2015 439.991ZM33.2396 394.98C34.5899 394.557 35.9402 394.134 37.2131 393.885C35.8627 394.308 34.5124 394.731 33.2396 394.98ZM187.555 136.874C188.632 138.625 189.708 140.375 190.785 142.126C189.901 140.464 188.632 138.625 187.555 136.874L192.095 142.311C193.172 144.062 193.44 145.022 193.208 145.542C193.44 145.022 192.979 143.973 192.095 142.311L187.555 136.874C186.825 135.91 186.209 135.209 185.478 134.245C186.209 135.209 186.94 136.173 187.555 136.874ZM233.436 117.886C233.398 117.451 233.553 117.104 233.515 116.668C233.36 117.015 233.398 117.451 233.436 117.886C232.933 118.491 232.431 119.095 231.813 119.438C232.431 119.095 232.741 118.402 233.436 117.886ZM243.394 112.233C243.974 111.455 244.669 110.939 244.863 109.984C244.861 111.028 244.089 111.717 243.394 112.233ZM267.373 72.0714C267.025 72.3294 266.601 72.7606 266.331 72.8452C265.983 73.1031 265.52 73.0989 264.98 73.268C265.443 73.2722 265.983 73.1031 266.331 72.8452C266.793 72.8494 267.141 72.5915 267.373 72.0714ZM286.37 57.6242C286.87 58.0639 287.448 58.3303 287.833 58.5079C287.448 58.3303 286.948 57.8906 286.37 57.6242ZM304.383 54.2204C304.538 53.8737 304.77 53.3537 305.117 53.0958C304.77 53.3537 304.615 53.7004 304.383 54.2204ZM306.507 52.0641C306.16 52.3221 305.62 52.4912 305.272 52.7491C305.812 52.58 306.16 52.3221 306.507 52.0641ZM483.056 57.7644C482.825 57.2401 482.402 56.6271 481.709 56.0986C482.132 56.7117 482.632 57.1514 483.056 57.7644ZM500.785 83.0767L494.432 78.0583C494.277 78.405 494.237 79.0138 494.083 79.3605C494.315 78.8404 494.277 78.405 494.432 78.0583L500.785 83.0767C502.328 82.7427 503.793 82.582 505.144 82.1592C503.871 82.4086 502.328 82.7427 500.785 83.0767ZM135.59 470.582C135.513 470.755 135.628 471.018 135.473 471.364C135.551 471.191 135.435 470.929 135.59 470.582ZM28.5522 385.712C28.8223 385.628 28.9772 385.281 29.2472 385.197C27.9347 386.055 26.6996 386.74 25.387 387.598C25.1548 388.118 25.27 388.38 25.3077 388.816C26.3124 387.607 27.4323 386.66 28.5522 385.712ZM131.403 164.298L132.637 164.657C132.752 164.919 132.982 165.444 133.097 165.706C133.097 165.706 132.365 165.786 131.979 165.609C131.787 165.52 131.594 165.431 131.594 165.431C131.632 165.866 131.747 166.129 131.785 166.564C131.785 166.564 131.785 166.564 131.977 166.653C133.29 165.795 134.873 164.852 136.185 163.993C134.45 164.239 132.869 164.137 131.403 164.298ZM239.247 102.796C238.631 102.095 238.208 101.481 237.592 100.78C238.286 101.308 238.824 102.183 239.247 102.796ZM278.58 58.4235C279.042 58.4277 279.505 58.4319 279.853 58.174C279.582 58.2586 279.042 58.4277 278.58 58.4235ZM374.212 33.1006C374.867 33.1936 375.445 33.46 375.908 33.4642C375.252 33.3712 374.674 33.1048 374.212 33.1006ZM410.283 22.5513C409.55 22.6316 408.625 22.6232 407.969 22.5302C408.817 22.712 409.55 22.6316 410.283 22.5513L410.898 23.2531C410.088 23.5068 409.355 23.5871 408.353 23.752C407.542 24.0057 406.81 24.0861 406 24.3398C406.617 23.9973 407.427 23.7436 408.353 23.752C409.163 23.4983 409.896 23.418 410.898 23.2531L410.283 22.5513ZM473.209 44.4466C474.557 45.0681 475.828 45.8629 476.636 46.6535C475.558 45.9475 474.48 45.2414 473.209 44.4466ZM483.135 56.5467C481.749 55.4898 481.095 54.3525 480.674 52.6951C480.33 50.8645 479.639 49.2917 478.138 47.9726C479.562 49.465 480.33 50.8645 480.674 52.6951C480.903 54.2637 481.826 55.3164 483.135 56.5467C483.635 56.9864 484.328 57.5149 484.906 57.7813C484.213 57.2528 483.635 56.9864 483.135 56.5467ZM531.878 138.796C531.609 137.836 531.341 136.877 530.803 136.001C531.341 136.877 531.339 137.921 531.878 138.796C532.378 139.236 533.071 139.764 533.572 140.204C532.878 139.675 532.185 139.147 531.878 138.796ZM530.168 188.386C530.208 187.777 530.17 187.341 530.132 186.906C530.093 187.515 530.13 187.95 530.168 188.386ZM528.546 189.937C528.623 189.764 528.431 189.675 528.508 189.502C528.508 189.502 528.431 189.675 528.546 189.937ZM527.626 186.796C527.857 187.32 528.087 187.844 528.317 188.369C527.894 187.756 527.664 187.231 527.626 186.796ZM486.888 240.555C489.049 239.878 491.402 239.291 493.562 238.614C491.402 239.291 489.241 239.967 486.888 240.555ZM523.847 250.9C526.664 249.272 529.56 247.471 532.107 245.928C529.56 247.471 526.742 249.099 523.847 250.9ZM533.471 280.838C532.12 281.261 530.963 281.772 529.998 282.373C531.155 281.861 532.313 281.349 533.471 280.838ZM524.513 287.37C523.782 286.406 522.859 285.353 521.82 284.039C522.859 285.353 523.59 286.317 524.513 287.37ZM167.831 488.368C169.259 487.772 170.879 487.265 172.23 486.842C170.879 487.265 169.452 487.861 167.831 488.368C167.754 488.542 167.406 488.8 167.329 488.973C167.677 488.715 167.754 488.542 167.831 488.368ZM15.1114 398.122C13.4514 399.238 11.5988 400.265 11.0567 401.479C11.7914 400.354 13.644 399.327 15.1114 398.122C15.6516 397.953 16.3466 397.437 16.9641 397.094C16.5392 397.526 15.729 397.779 15.1114 398.122ZM30.0971 384.334C32.3369 382.44 34.4993 380.719 36.7391 378.825C36.2764 378.821 36.0063 378.905 35.6211 378.728C34.5805 378.457 36.0479 377.252 32.6145 378.178C31.4172 379.299 32.8431 379.747 32.6485 380.702C30.6807 381.468 28.6354 382.406 26.05 383.514C27.5532 383.789 28.8639 383.975 30.0971 384.334ZM43.1953 178.201C43.267 181.161 43.0687 184.205 42.8704 187.249C43.0687 184.205 43.4596 181.249 43.5805 178.379C43.3501 177.854 43.7751 177.423 43.1972 177.157C43.5824 177.334 43.1575 177.765 43.1953 178.201Z" fill="#FEE3B3"/>
<path d="M315.289 391.701H293.542V413.567H315.289V391.701ZM292.75 413.567V391.701H271.003V413.567H292.75ZM270.211 413.567V391.701H248.462V413.567H270.211ZM247.67 413.567V391.701H225.923V413.567H247.67ZM292.75 369.04H271.003V390.905H292.75V369.04ZM270.211 369.04H248.462V390.905H270.211V369.04ZM247.67 369.04H225.923V390.905H247.67V369.04ZM225.131 391.701H203.383V413.567H225.131V391.701ZM202.592 391.701H180.806V413.567H202.592V391.701ZM180.014 391.701H158.267V413.567H180.014V391.701ZM157.475 391.701H135.726V413.567H157.475V391.701ZM225.131 369.04H203.383V390.905H225.131V369.04ZM202.592 369.04H180.806V390.905H202.592V369.04ZM180.014 369.04H158.267V390.905H180.014V369.04ZM157.475 369.04H135.726V390.905H157.475V369.04ZM315.289 346.377H293.542V368.244H315.289V346.377ZM292.75 346.377H271.003V368.244H292.75V346.377ZM270.211 346.377H248.462V368.244H270.211V346.377ZM247.67 346.377H225.923V368.244H247.67V346.377ZM315.289 323.716H293.542V345.581H315.289V323.716ZM292.75 323.716H271.003V345.581H292.75V323.716ZM270.211 323.716H248.462V345.581H270.211V323.716ZM247.67 323.716H225.923V345.581H247.67V323.716ZM315.289 301.055H293.542V322.92H315.289V301.055ZM292.75 301.055H271.003V322.92H292.75V301.055ZM270.211 301.055H248.462V322.92H270.211V301.055ZM247.67 301.055H225.923V322.92H247.67V301.055ZM315.289 278.392H293.542V300.259H315.289V278.392ZM292.75 278.392H271.003V300.259H292.75V278.392ZM270.211 278.392H248.462V300.259H270.211V278.392ZM247.67 278.392H225.923V300.259H247.67V278.392ZM315.289 255.694H293.542V277.596H315.289V255.694ZM292.75 255.694H271.003V277.596H292.75V255.694ZM270.211 255.694H248.462V277.596H270.211V255.694ZM247.67 255.694H225.923V277.596H247.67V255.694ZM315.289 233.031H293.542V254.898H315.289V233.031ZM292.75 233.031H271.003V254.898H292.75V233.031ZM270.211 233.031H248.462V254.898H270.211V233.031ZM247.67 233.031H225.923V254.898H247.67V233.031ZM225.131 346.377H203.383V368.244H225.131V346.377ZM202.592 346.377H180.806V368.244H202.592V346.377ZM180.014 346.377H158.267V368.244H180.014V346.377ZM157.475 346.377H135.726V368.244H157.475V346.377ZM225.131 323.716H203.383V345.581H225.131V323.716ZM202.592 323.716H180.806V345.581H202.592V323.716ZM180.014 323.716H158.267V345.581H180.014V323.716ZM157.475 323.716H135.726V345.581H157.475V323.716ZM225.131 301.055H203.383V322.92H225.131V301.055ZM202.592 301.055H180.806V322.92H202.592V301.055ZM180.014 301.055H158.267V322.92H180.014V301.055ZM157.475 301.055H135.726V322.92H157.475V301.055ZM225.131 278.392H203.383V300.259H225.131V278.392ZM202.592 278.392H180.806V300.259H202.592V278.392ZM180.014 278.392H158.267V300.259H180.014V278.392ZM225.131 255.694H203.383V277.596H225.131V255.694ZM202.592 255.694H180.806V277.596H202.592V255.694ZM180.014 255.694H158.267V277.596H180.014V255.694ZM225.131 233.031H203.383V254.898H225.131V233.031ZM202.592 233.031H180.806V254.898H202.592V233.031ZM180.014 233.031H158.267V254.898H180.014V233.031ZM135.726 233.031V254.898H157.475V233.031H135.726ZM135.726 277.559V277.596H157.475V255.694H135.726V277.559ZM135.726 300.259H157.475V278.392H135.726V300.259ZM134.936 391.701H114.469V390.905H134.936V369.04H114.469V368.244H134.936V346.377H114.469V345.581H134.936V323.716H114.469V322.92H134.936V301.055H114.469V300.259H134.936V278.392H114.469V277.559H134.936V255.694H114.469V254.898H134.936V233.031H114.469V232.235H134.936V211.659H135.726V232.235H157.475V211.659H158.267V232.235H180.014V211.659H180.806V232.235H202.592V211.659H203.383V232.235H225.131V211.659H225.923V232.235H247.67V211.659H248.462V232.235H270.211V211.659H271.003V232.235H292.75V211.659H293.542V232.235H315.289V211.659H316.081V232.235H336.548V233.031H316.081V254.898H336.548V255.694H316.081V277.559H336.548V278.392H316.081V300.259H336.548V301.055H316.081V322.92H336.548V323.716H316.081V345.581H336.548V346.377H316.081V368.244H336.548V369.04H316.081V390.905H336.548V391.701H316.081V413.567H336.548V414.362H316.081V434.94H315.289V414.362H293.542V434.94H292.75V414.362H271.003V434.94H270.211V414.362H248.462V434.94H247.67V414.362H225.923V434.94H225.131V414.362H203.383V434.94H202.592V414.362H180.806V434.94H180.014V414.362H158.267V434.94H157.475V414.362H135.726V434.94H134.936V414.362H114.469V413.567H134.936V391.701ZM293.542 390.905H315.289V369.04H293.542V390.905Z" fill="#AC835A" fill-opacity="0.3"/>
<path d="M230.527 359.162C230.338 359.162 230.188 359.01 230.188 358.781C230.188 358.591 230.338 358.439 230.527 358.439H317.091C317.317 358.439 317.469 358.591 317.469 358.781C317.469 359.01 317.317 359.162 317.091 359.162H230.527Z" fill="#92571D"/>
<path d="M317.088 386.386C317.844 386.386 318.448 386.994 318.448 387.754C318.448 388.515 317.844 389.124 317.088 389.124C316.482 389.124 315.953 388.705 315.801 388.135H243.647C243.458 388.135 243.307 387.944 243.307 387.754C243.307 387.527 243.458 387.374 243.647 387.374H315.801C315.953 386.804 316.482 386.386 317.088 386.386ZM317.088 401.443C317.844 401.443 318.448 402.05 318.448 402.811C318.448 403.534 317.844 404.142 317.088 404.142C316.482 404.142 315.953 403.724 315.801 403.154H205.339C205.112 403.154 204.961 403.001 204.961 402.811C204.961 402.584 205.112 402.431 205.339 402.431H315.801C315.953 401.86 316.482 401.443 317.088 401.443ZM217.44 377.032C217.214 377.032 217.061 376.842 217.061 376.652C217.061 376.462 217.214 376.272 217.44 376.272H315.801C315.953 375.703 316.482 375.284 317.088 375.284C317.844 375.284 318.448 375.893 318.448 376.652C318.448 377.412 317.844 378.021 317.088 378.021C316.482 378.021 315.953 377.602 315.801 377.032H217.44Z" fill="#92571D"/>
<path d="M283 358.931H274V418.117H283V358.931Z" fill="#FF9123"/>
<path d="M283 358.931H274V418.117H283V358.931Z" fill="url(#paint0_linear_1101_11769)" fill-opacity="0.5"/>
<path d="M270 376.687H261V418.117H270V376.687Z" fill="#FF9123"/>
<path d="M270 376.687H261V418.117H270V376.687Z" fill="url(#paint1_linear_1101_11769)" fill-opacity="0.5"/>
<path d="M257 387.537H248V418.117H257V387.537Z" fill="#FF9123"/>
<path d="M257 387.537H248V418.117H257V387.537Z" fill="url(#paint2_linear_1101_11769)" fill-opacity="0.5"/>
<path d="M244 358.931H235V418.117H244V358.931Z" fill="#FF9123"/>
<path d="M244 358.931H235V418.117H244V358.931Z" fill="url(#paint3_linear_1101_11769)" fill-opacity="0.5"/>
<path d="M231 376.687H222V418.117H231V376.687Z" fill="#FF9123"/>
<path d="M231 376.687H222V418.117H231V376.687Z" fill="url(#paint4_linear_1101_11769)" fill-opacity="0.5"/>
<path d="M218 402.334H208V418.117H218V402.334Z" fill="#FF9123"/>
<path d="M218 402.334H208V418.117H218V402.334Z" fill="url(#paint5_linear_1101_11769)" fill-opacity="0.5"/>
<path d="M213.13 402.888C213.091 402.964 212.979 403.001 212.902 402.964C212.827 402.925 212.79 402.81 212.827 402.698L225.95 376.766V376.729L239.073 358.706C239.11 358.592 239.223 358.592 239.299 358.667C239.337 358.667 239.376 358.706 239.376 358.743L252.383 387.451L265.317 376.539L278.401 358.706C278.478 358.592 278.59 358.592 278.667 358.667C278.743 358.706 278.743 358.821 278.704 358.896L265.581 376.766C265.581 376.766 265.581 376.804 265.544 376.804L252.46 387.868C252.421 387.907 252.422 387.907 252.383 387.907C252.308 387.944 252.196 387.907 252.157 387.83L239.186 359.162L226.253 376.956L213.13 402.888Z" fill="#A36C37"/>
<path fill-rule="evenodd" clip-rule="evenodd" d="M212.979 401.443C213.736 401.443 214.34 402.05 214.34 402.811C214.34 403.534 213.736 404.142 212.979 404.142C212.223 404.142 211.617 403.534 211.617 402.811C211.617 402.05 212.223 401.443 212.979 401.443Z" fill="#92571D"/>
<path fill-rule="evenodd" clip-rule="evenodd" d="M226.103 375.474C226.859 375.474 227.465 376.081 227.465 376.842C227.465 377.602 226.859 378.211 226.103 378.211C225.346 378.211 224.742 377.602 224.742 376.842C224.742 376.081 225.346 375.474 226.103 375.474Z" fill="#92571D"/>
<path fill-rule="evenodd" clip-rule="evenodd" d="M239.228 357.451C239.947 357.451 240.551 358.06 240.551 358.782C240.551 359.542 239.947 360.151 239.228 360.151C238.471 360.151 237.867 359.542 237.867 358.782C237.867 358.06 238.471 357.451 239.228 357.451Z" fill="#92571D"/>
<path fill-rule="evenodd" clip-rule="evenodd" d="M252.308 386.386C253.064 386.386 253.67 386.993 253.67 387.754C253.67 388.514 253.064 389.123 252.308 389.123C251.59 389.123 250.984 388.514 250.984 387.754C250.984 386.993 251.59 386.386 252.308 386.386Z" fill="#92571D"/>
<path fill-rule="evenodd" clip-rule="evenodd" d="M265.433 375.283C266.189 375.283 266.795 375.892 266.795 376.651C266.795 377.411 266.189 378.021 265.433 378.021C264.715 378.021 264.109 377.411 264.109 376.651C264.109 375.892 264.715 375.283 265.433 375.283Z" fill="#92571D"/>
<path fill-rule="evenodd" clip-rule="evenodd" d="M278.557 357.451C279.314 357.451 279.918 358.06 279.918 358.782C279.918 359.542 279.314 360.151 278.557 360.151C277.801 360.151 277.195 359.542 277.195 358.782C277.195 358.06 277.801 357.451 278.557 357.451Z" fill="#92571D"/>
<path fill-rule="evenodd" clip-rule="evenodd" d="M317.089 357.451C317.846 357.451 318.45 358.06 318.45 358.782C318.45 359.542 317.846 360.151 317.089 360.151C316.333 360.151 315.766 359.542 315.766 358.782C315.766 358.06 316.333 357.451 317.089 357.451Z" fill="#79AAD9"/>
<path fill-rule="evenodd" clip-rule="evenodd" d="M320.606 365.663C318.034 371.33 312.322 375.284 305.706 375.284C302.074 375.284 298.746 374.104 296.023 372.127L305.706 358.782L320.606 365.663Z" fill="#FF9123"/>
<path fill-rule="evenodd" clip-rule="evenodd" d="M304.647 375.245C301.432 375.055 298.482 373.914 296.023 372.127L305.706 358.782L304.647 375.245Z" fill="#92571D"/>
<path fill-rule="evenodd" clip-rule="evenodd" d="M305.711 342.319C314.749 342.319 322.122 349.695 322.122 358.782C322.122 361.253 321.555 363.573 320.611 365.663L305.711 358.782V342.319Z" fill="#DA7F25"/>
<path d="M394.311 229.889C393.14 230.763 391.475 230.573 390.568 229.395C389.661 228.254 389.887 226.58 391.021 225.668L540.323 108.637C541.494 107.725 543.159 107.954 544.066 109.093C544.975 110.273 544.747 111.945 543.613 112.858L394.311 229.889Z" fill="#131E2F"/>
<path d="M389.811 223.16C408.115 254.984 445.44 271.332 476.298 258.329C511.203 243.615 524.515 197.837 501.635 157.989C478.719 118.105 432.734 106.927 402.669 130.082C376.084 150.576 371.545 191.297 389.811 223.16Z" fill="#D76900"/>
<path d="M384.818 224.262C402.479 255.021 438.442 270.8 468.167 258.291C501.823 244.108 514.606 199.965 492.52 161.487C470.398 122.972 426.076 112.174 397.109 134.492C371.506 154.188 367.158 193.503 384.818 224.262Z" fill="#FF9123"/>
<path d="M407.359 152.363C428.008 137.648 458.601 146.05 473.729 172.438C488.855 198.787 480.876 229.699 457.92 240.383C436.893 250.192 410.536 239.279 397.602 216.81C384.706 194.3 388.451 165.86 407.359 152.363ZM461.665 246.96C488.438 234.945 498.082 199.205 480.459 168.521C462.836 137.799 427.288 128.41 403.616 145.784C382.173 161.526 378.165 194.034 392.838 219.584C407.51 245.136 437.461 257.835 461.665 246.96Z" fill="white"/>
<path d="M417.569 170.157C429.934 161.982 447.595 167.381 456.294 182.59C465.029 197.761 460.869 215.896 447.709 222.626C435.192 229.014 419.044 222.741 411.102 208.939C403.198 195.099 405.845 177.876 417.569 170.157ZM451.491 229.166C468.168 220.915 473.65 198.141 462.609 178.902C451.566 159.7 429.216 153.123 413.787 163.578C399.341 173.389 396.24 194.795 406.035 211.904C415.829 228.976 435.835 236.922 451.491 229.166Z" fill="white"/>
<path d="M421.2 203.046C425.436 210.422 433.982 213.578 440.486 210.041C447.143 206.392 449.109 197.113 444.646 189.357C440.222 181.64 431.259 178.712 424.793 182.742C418.516 186.62 416.965 195.707 421.2 203.046Z" fill="white"/>
<path d="M427.777 199.205C429.631 202.476 433.412 203.844 436.248 202.286C439.198 200.689 440.069 196.582 438.102 193.199C436.134 189.777 432.202 188.521 429.365 190.271C426.568 191.982 425.886 195.975 427.777 199.205Z" fill="#A05916"/>
<path d="M404.523 241.904C405.998 243.311 407.511 244.641 409.062 245.934L435.495 197.001L431.298 194.11L404.523 241.904Z" fill="#8F1A1E"/>
<path d="M402.484 245.516L402.56 245.553L407.287 249.241L435.497 197L431.301 194.11L402.484 245.516Z" fill="#D76900"/>
<path d="M407.281 236.961C408.794 238.253 410.344 239.432 411.97 240.534L414.768 235.401C413.18 234.299 411.63 233.12 410.118 231.866L407.281 236.961Z" fill="#8FC3EB"/>
<path d="M415.148 222.931C416.586 224.186 418.099 225.288 419.648 226.314L422.598 220.84C421.049 219.889 419.573 218.787 418.174 217.571L415.148 222.931Z" fill="#8FC3EB"/>
<path d="M424.148 206.885C425.434 208.179 426.908 209.205 428.459 209.966L435.493 197.001L431.296 194.11L424.148 206.885Z" fill="#8FC3EB"/>
<path d="M428.125 199.775C429.183 201.335 430.734 202.4 432.36 202.78L435.498 197.001L431.301 194.11L428.125 199.775Z" fill="#8F1A1E"/>
<path fill-rule="evenodd" clip-rule="evenodd" d="M433.833 193.693L417.609 195.707L422.337 202.02L433.833 193.693Z" fill="#D76900"/>
<path fill-rule="evenodd" clip-rule="evenodd" d="M433.831 193.692L420.633 190.422L421.692 196.24L433.831 193.692Z" fill="#F59C42"/>
<path d="M244.788 347.072C243.616 347.984 241.951 347.793 241.044 346.616C240.137 345.436 240.363 343.764 241.498 342.85L333.733 270.61L431.301 194.11C432.473 193.198 434.137 193.388 435.045 194.566C435.953 195.707 435.726 197.418 434.591 198.331L336.986 274.793L244.788 347.072Z" fill="#131E2F"/>
<path d="M443.741 419.312L443.477 419.236C444.951 413.876 444.119 405.852 441.132 396.538L441.094 396.499C441.169 396.424 441.244 396.309 441.321 396.195C441.321 396.271 441.358 396.348 441.397 396.461C444.384 405.815 445.215 413.913 443.741 419.312Z" fill="white"/>
<path d="M439.048 434.444L438.82 434.293C441.506 429.996 448.123 428.552 450.317 428.172C450.317 428.248 450.355 428.362 450.355 428.438C448.161 428.818 441.657 430.263 439.048 434.444Z" fill="white"/>
<path fill-rule="evenodd" clip-rule="evenodd" d="M258.133 443.418C392.157 443.418 501.486 440.642 501.486 437.22C501.486 433.798 392.157 431.024 258.133 431.024C124.111 431.024 14.8203 433.798 14.8203 437.22C14.8203 440.642 124.111 443.418 258.133 443.418Z" fill="#171717"/>
<path fill-rule="evenodd" clip-rule="evenodd" d="M301.885 294.639C301.885 294.639 298.331 291.407 296.893 291.103C295.494 290.761 291.94 289.279 291.94 289.279C291.94 289.279 289.746 289.164 291.184 290.647C292.619 292.092 293.414 291.902 294.171 292.701C294.889 293.499 295.873 295.21 295.873 295.21C295.873 295.21 303.55 295.666 301.885 294.639Z" fill="#F5AD74"/>
<path fill-rule="evenodd" clip-rule="evenodd" d="M306.808 296.312C306.808 296.312 301.362 292.662 299.319 292.624C298.072 292.587 297.127 292.662 296.068 292.891C295.386 293.042 294.63 293.233 293.76 293.537C291.605 294.222 282.869 293.308 282.869 293.308C282.869 293.308 281.696 293.879 282.642 294.488C283.626 295.095 288.579 298.327 291.794 298.327C294.971 298.327 305.748 300.418 305.748 300.418L306.808 296.312Z" fill="#F5AD74"/>
<path fill-rule="evenodd" clip-rule="evenodd" d="M306.235 295.134L305.289 301.028L328.357 303.042C334.748 303.575 337.85 294.944 327.564 295.02L306.235 295.134Z" fill="#BE6B18"/>
<path fill-rule="evenodd" clip-rule="evenodd" d="M334.375 300.685L347.989 283.271C349.767 280.99 350.07 276.39 348.065 274.983C346.06 273.575 343.868 273.348 342.052 275.591L325.942 295.856C321.821 300.989 330.064 306.198 334.375 300.685Z" fill="#BE6B18"/>
<path fill-rule="evenodd" clip-rule="evenodd" d="M362.544 313.993C362.697 314.639 364.701 322.509 363.945 327.109C361.298 342.889 353.506 350.38 352.107 364.105L345.717 426.917L333.881 427.183L333.35 366.918C332.292 363.04 342.502 329.468 344.015 313.993H362.544Z" fill="#603A0D"/>
<path fill-rule="evenodd" clip-rule="evenodd" d="M333.881 427.183L333.351 366.918C332.293 363.079 342.427 329.544 344.015 313.993H356.874C354.68 322.205 344.847 352.318 343.826 362.243L339.818 427.031L333.881 427.183Z" fill="#603A0D"/>
<path fill-rule="evenodd" clip-rule="evenodd" d="M325.112 435.244H345.268L344.209 426.917L336.305 427.146L323.939 434.179C323.372 434.483 324.469 435.244 325.112 435.244Z" fill="#4F300C"/>
<path fill-rule="evenodd" clip-rule="evenodd" d="M370.64 313.993C370.905 314.639 374.27 322.509 374.308 327.109C374.421 342.889 367.916 350.38 368.9 364.105L373.475 426.917L361.677 427.183L350.635 366.918C348.933 363.04 353.282 329.468 352.109 313.993H370.64Z" fill="#603A0D"/>
<path fill-rule="evenodd" clip-rule="evenodd" d="M361.68 427.183L350.637 366.918C348.935 363.079 353.246 329.544 352.112 313.993C354.078 314.563 364.061 317.262 364.214 320.95C364.818 335.057 359.714 353.573 360.318 362.243L367.579 427.031L361.68 427.183Z" fill="#734815"/>
<path fill-rule="evenodd" clip-rule="evenodd" d="M354.264 435.244H374.459L371.925 426.917L364.097 427.146L352.904 434.179C352.412 434.483 353.622 435.244 354.264 435.244Z" fill="#4F300C"/>
<path fill-rule="evenodd" clip-rule="evenodd" d="M347.799 273.004H367.01C369.392 272.777 371.737 274.108 372.682 276.465L377.749 288.86L370.641 291.787V313.079C370.641 313.574 370.224 313.993 369.732 313.993H344.017C343.525 313.993 343.11 313.574 343.11 313.079V291.787C341.975 291.636 340.954 291.027 340.273 290.191L342.089 276.465C342.353 274.906 343.828 273.955 345.19 273.385C345.643 273.157 346.172 273.004 346.74 273.004C347.081 272.967 347.421 272.967 347.799 273.004Z" fill="#FF9123"/>
<path fill-rule="evenodd" clip-rule="evenodd" d="M363.57 291.787L366.897 290.229L370.642 291.787V313.993H363.57V291.787Z" fill="#BE6B18"/>
<path fill-rule="evenodd" clip-rule="evenodd" d="M366.898 290.23C366.672 293.462 363.986 296.046 360.696 296.046H346.516C343.226 296.046 340.502 293.462 340.312 290.23C341.107 291.18 342.317 291.826 343.641 291.826H363.571C364.895 291.826 366.105 291.18 366.898 290.23Z" fill="#BE6B18"/>
<path fill-rule="evenodd" clip-rule="evenodd" d="M366.516 330.57C366.516 330.57 369.806 335.209 369.806 334.828C369.806 334.41 382.778 318.897 384.214 317.415C385.651 315.97 386.371 314.183 385.5 310.836C384.593 307.49 377.748 288.86 377.748 288.86L374.874 281.789L366.894 290.229L377.066 312.357L366.516 330.57Z" fill="#FF9123"/>
<path fill-rule="evenodd" clip-rule="evenodd" d="M369.354 334.373C369.354 334.373 368.182 339.962 368.144 342.205C368.069 344.447 367.652 345.627 366.216 346.197C364.779 346.806 362.509 347.87 362.509 347.87L358.803 346.995C358.803 346.995 359.445 345.703 360.202 345.931C360.958 346.159 361.715 343.231 361.715 341.9C361.715 340.608 362.925 336.425 362.925 336.425C362.925 336.425 361.336 339.506 360.619 339.999C359.862 340.532 358.5 340.228 358.5 340.228C358.5 340.228 360.013 337.605 360.808 336.007C361.602 334.449 366.859 331.026 366.859 331.026L369.354 334.373Z" fill="#F5AD74"/>
<path d="M346.284 253.234C348.515 253.197 355.625 253.653 357.553 255.326C362.697 259.698 360.806 266.238 357.667 270.002C356.457 271.523 355.475 273.348 352.789 273.538C349.159 273.804 339.931 270.268 340.764 264.566C341.52 260.078 345.075 260.953 346.284 253.234Z" fill="#734815"/>
<path d="M356.571 255.554C358.159 255.096 359.899 255.135 361.601 255.934C366.026 258.101 365.874 263.006 364.361 266.199C363.34 268.405 360.617 270.8 357.478 270.762C353.584 270.686 351.238 266.428 350.973 263.576C350.634 260.117 352.714 256.656 356.571 255.554Z" fill="#131E34"/>
<path d="M362.544 258.138C364.512 257.531 367.16 253.69 369.238 254.716C369.238 258.367 375.554 264.831 373.965 270.801C372.869 274.83 368.634 278.747 359.746 273.575C357.63 272.359 355.586 270.725 355.436 268.746C355.096 264.185 357.705 259.659 362.544 258.138Z" fill="#734815"/>
<path d="M361.639 247.455C361.79 247.608 362.017 247.608 362.131 247.455C362.245 247.34 362.245 247.113 362.092 246.96C362.092 246.923 356.08 240.878 349.728 244.566C345.151 247.189 343.109 252.588 345.415 257.911C345.076 254.794 344.923 252.512 345.718 250.155C346.361 248.291 347.495 246.39 349.992 244.946C355.929 241.524 361.639 247.455 361.639 247.455Z" fill="#734815"/>
<path fill-rule="evenodd" clip-rule="evenodd" d="M357.778 243.425C362.656 244.756 365.568 249.775 364.244 254.716C362.92 259.622 357.929 262.55 353.014 261.219C348.134 259.888 345.222 254.869 346.546 249.926C347.87 245.022 352.862 242.094 357.778 243.425Z" fill="#734815"/>
<path fill-rule="evenodd" clip-rule="evenodd" d="M356.763 252.74C359.108 252.74 361.037 254.679 361.037 257.037V272.435L352.414 284.412C352.414 284.451 352.831 272.473 352.831 272.435L352.489 257.037C352.453 254.679 354.419 252.74 356.763 252.74Z" fill="#F2815A"/>
<path fill-rule="evenodd" clip-rule="evenodd" d="M360.2 246.923C364.891 247.53 368.181 249.584 366.554 255.629L365.344 260.192C364.21 264.488 358.159 269.316 353.053 269.316L349.121 268.404C348.781 266.389 348.061 245.326 360.2 246.923Z" fill="#F5AD74"/>
<path fill-rule="evenodd" clip-rule="evenodd" d="M369.243 254.716C368.979 259.356 366.976 263.157 363.495 263.157C362.852 263.157 362.663 263.157 362.059 262.815C361.075 266.047 359.337 269.811 358.088 269.507C359.373 266.389 360.016 263.766 359.638 260.497C354.987 257.797 354.571 246.657 358.92 243.918C364.365 243.728 369.698 247.683 369.243 254.716Z" fill="#734815"/>
<path d="M362.626 261.066C362.965 260.23 364.403 259.203 365.84 260.002C367.351 260.8 366.786 264.375 362.549 263.537C361.945 263.424 361.831 262.74 362.626 261.066Z" fill="#F5AD74"/>
<path fill-rule="evenodd" clip-rule="evenodd" d="M259.378 221.295L276.208 216.771C281.767 215.289 287.515 218.634 289.028 224.186L301.128 269.66C302.641 275.249 299.313 281.065 293.753 282.549L276.926 287.073C271.367 288.594 265.58 285.248 264.106 279.659L251.967 234.185C250.492 228.596 253.819 222.816 259.378 221.295Z" fill="#131E2F"/>
<path fill-rule="evenodd" clip-rule="evenodd" d="M245.916 208.977L281.539 204.871C289.935 203.882 298.973 207.38 300.335 215.745L306.762 256.086C308.125 264.451 304.078 272.778 295.947 274.983L271.253 281.636C263.085 283.803 255.635 278.594 252.458 270.725L235.1 227.835C231.886 220.004 237.558 209.927 245.916 208.977Z" fill="#52310A"/>
<path fill-rule="evenodd" clip-rule="evenodd" d="M239.266 111.908C276.742 101.794 315.277 124.188 325.336 161.867C335.396 199.585 313.122 238.328 275.646 248.443C238.131 258.518 199.596 236.161 189.535 198.444C179.515 160.765 201.751 122.021 239.266 111.908Z" fill="#F68812"/>
<path fill-rule="evenodd" clip-rule="evenodd" d="M239.266 111.908C242.631 110.995 246.035 110.349 249.438 109.968C272.923 114.075 293.079 131.489 299.659 156.166C308.697 190.081 288.692 224.947 254.922 234.071C236.694 238.977 218.201 235.365 203.604 225.631C197.174 217.951 192.296 208.787 189.535 198.444C179.515 160.765 201.751 122.022 239.266 111.908Z" fill="#FBC528"/>
<path fill-rule="evenodd" clip-rule="evenodd" d="M216.386 132.21C221.755 130.767 227.276 133.96 228.714 139.359C230.149 144.758 226.973 150.31 221.603 151.754C216.233 153.199 210.713 150.006 209.275 144.607C207.838 139.208 211.016 133.656 216.386 132.21Z" fill="white"/>
<path fill-rule="evenodd" clip-rule="evenodd" d="M205.001 153.998C208.329 153.085 211.808 155.1 212.715 158.484C213.624 161.83 211.619 165.328 208.254 166.24C204.888 167.153 201.408 165.138 200.539 161.754C199.631 158.369 201.635 154.871 205.001 153.998Z" fill="white"/>
<path fill-rule="evenodd" clip-rule="evenodd" d="M306.197 252.512C308.543 252.778 309.639 252.169 310.206 254.337C310.773 256.504 298.181 264.07 281.087 268.67C263.993 273.272 249.093 273.043 248.526 270.876C247.922 268.746 249.207 268.67 251.061 267.302C256.695 267.91 267.549 266.503 279.65 263.234C291.752 259.964 301.66 255.857 306.197 252.512Z" fill="#734815"/>
<path fill-rule="evenodd" clip-rule="evenodd" d="M304.305 240.459C306.612 240.725 307.708 240.117 308.314 242.285C308.881 244.452 295.041 252.322 277.947 256.961C260.891 261.561 244.479 261.751 243.911 259.584C243.344 257.417 244.592 257.341 246.483 255.971C252.081 256.58 264.409 254.755 276.509 251.523C288.611 248.254 299.729 243.805 304.305 240.459Z" fill="#734815"/>
<path fill-rule="evenodd" clip-rule="evenodd" d="M404.792 331.901C404.792 331.901 405.775 336.615 405.359 338.022C404.905 339.391 404.452 343.231 404.452 343.231C404.452 343.231 403.393 345.208 402.864 343.231C402.333 341.215 402.901 340.646 402.598 339.618C402.258 338.555 401.312 336.844 401.312 336.844C401.312 336.844 404.716 329.961 404.792 331.901Z" fill="#F2815A"/>
<path fill-rule="evenodd" clip-rule="evenodd" d="M405.318 327.985C405.318 327.985 406.225 333.347 405.204 335.134C404.637 336.236 404.07 337.035 403.35 337.832C402.897 338.366 402.368 338.897 401.687 339.543C399.985 341.064 396.392 349.125 396.392 349.125C396.392 349.125 395.334 349.885 395.258 348.706C395.221 347.565 394.956 341.635 396.544 338.859C398.169 336.084 400.628 328.479 400.628 328.479L405.318 327.985Z" fill="#F2815A"/>
<path fill-rule="evenodd" clip-rule="evenodd" d="M399.758 329.01L405.884 331.901L419.082 307.148C422.295 301.103 414.127 292.511 410.043 302.89L399.758 329.01Z" fill="#BE6B18"/>
<path fill-rule="evenodd" clip-rule="evenodd" d="M420.031 302.966L419.427 274.905C419.351 271.217 416.476 266.086 413.904 266.009C411.296 265.896 409.329 267.188 409.368 270.837L409.783 303.689C409.897 312.016 420.22 311.826 420.031 302.966Z" fill="#BE6B18"/>
<path fill-rule="evenodd" clip-rule="evenodd" d="M438.143 308.06C438.143 308.06 440.412 316.844 439.58 321.9C436.858 338.441 428.651 346.311 427.214 360.683L420.52 426.498L408.117 426.802L407.511 363.649C406.453 359.581 417.117 324.372 418.743 308.138L438.143 308.06Z" fill="#603A0D"/>
<path fill-rule="evenodd" clip-rule="evenodd" d="M398.89 435.244H420.028L418.895 426.537L410.651 426.727L397.68 434.103C397.074 434.445 398.209 435.244 398.89 435.244Z" fill="#4F300C"/>
<path fill-rule="evenodd" clip-rule="evenodd" d="M444.914 306.617C444.914 306.617 448.281 316.844 447.789 321.9C446.238 338.441 441.927 346.843 441.927 362.204L456.298 426.498L443.932 426.802L422.981 364.295C421.62 360.227 423.208 325.057 423.208 308.099L444.914 306.617Z" fill="#603A0D"/>
<path fill-rule="evenodd" clip-rule="evenodd" d="M443.893 426.688L422.981 364.295C421.62 360.227 423.208 325.057 423.208 308.099L433.873 314.373C438.977 330.494 433.607 345.398 433.607 363.193L451.532 426.498L443.893 426.688Z" fill="#734815"/>
<path fill-rule="evenodd" clip-rule="evenodd" d="M435.082 435.244H456.259L454.519 426.537L446.276 426.727L433.796 434.103C433.228 434.445 434.44 435.244 435.082 435.244Z" fill="#131E2F"/>
<path fill-rule="evenodd" clip-rule="evenodd" d="M459.169 322.434H419.915C419.537 322.434 419.234 322.775 419.234 323.155V346.957C419.234 347.338 419.537 347.642 419.915 347.642H459.169C459.585 347.642 459.887 347.338 459.887 346.957V323.155C459.887 322.775 459.585 322.434 459.169 322.434Z" fill="#A56A2B"/>
<path fill-rule="evenodd" clip-rule="evenodd" d="M420.214 329.544H418.248C417.984 329.544 417.758 329.771 417.758 330.037V340.038C417.758 340.342 417.984 340.532 418.248 340.532H420.214C420.48 340.532 420.706 340.342 420.706 340.038V330.037C420.706 329.771 420.48 329.544 420.214 329.544Z" fill="#FBC528"/>
<path fill-rule="evenodd" clip-rule="evenodd" d="M414.774 265.706H429.599C431.679 265.706 434.78 266.237 435.575 268.899L449.038 313.878C449.188 314.373 448.848 314.829 448.393 314.753L417.574 313.917C417.119 313.839 416.629 313.537 416.59 313.079L410.161 268.899C409.783 266.579 412.468 265.477 414.774 265.706Z" fill="#BE6B18"/>
<path fill-rule="evenodd" clip-rule="evenodd" d="M414.774 265.706H429.599C431.679 265.706 434.78 266.238 435.575 268.899L433.873 314.373L417.574 313.917C417.119 313.84 416.629 313.537 416.59 313.079L410.161 268.899C409.783 266.579 412.468 265.477 414.774 265.706Z" fill="#FF9123"/>
<path fill-rule="evenodd" clip-rule="evenodd" d="M444.158 329.468C444.158 329.468 443.137 337.605 443.401 340.076C443.667 342.509 443.401 344.905 442.116 345.703C440.792 346.539 437.086 349.734 436.028 348.896C435.044 348.135 437.502 347.033 436.331 340.684C436.065 339.277 436.86 334.524 436.86 334.524C436.86 334.524 435.575 338.098 434.855 338.783C434.137 339.467 432.586 339.316 432.586 339.316C432.586 339.316 433.873 336.235 434.477 334.41C435.119 332.586 440.339 328.06 440.339 328.06L444.158 329.468Z" fill="#F5AD74"/>
<path fill-rule="evenodd" clip-rule="evenodd" d="M437.766 329.696L444.422 331.558L453.573 304.487C455.805 297.872 446.161 290.61 443.778 301.75L437.766 329.696Z" fill="#FF9123"/>
<path fill-rule="evenodd" clip-rule="evenodd" d="M453.193 298.327L441.091 272.473C439.503 269.051 434.737 265.477 432.279 266.503C429.784 267.493 428.499 269.47 430.048 272.892L443.964 303.27C447.52 310.99 457.05 306.502 453.193 298.327Z" fill="#FF9123"/>
<path fill-rule="evenodd" clip-rule="evenodd" d="M428.578 242.056C424.758 235.136 416.93 235.859 413.149 240.878C410.803 243.995 412.015 247.72 413.337 250.421C416.173 252.208 418.217 253.082 420.183 252.436C425.25 250.762 423.548 246.238 428.578 242.056Z" fill="#4F300C"/>
<path fill-rule="evenodd" clip-rule="evenodd" d="M427.972 263.157C420.144 262.549 417.535 255.096 420.485 249.546C422.338 246.123 426.195 245.629 429.221 245.743C431.982 247.569 433.645 249.09 433.873 251.142C434.477 256.466 429.674 256.807 427.972 263.157Z" fill="#4F300C"/>
<path fill-rule="evenodd" clip-rule="evenodd" d="M423.391 241.941C425.925 241.941 427.966 243.995 427.966 246.543V263.157L422.596 273.804C422.596 273.842 419.156 264.032 419.156 263.995L418.814 246.543C418.739 243.995 420.858 241.941 423.391 241.941Z" fill="#F2815A"/>
<path fill-rule="evenodd" clip-rule="evenodd" d="M419.161 263.995L422.602 273.804L418.33 271.522L415.266 271.256L419.161 263.995Z" fill="#BE6B18"/>
<path fill-rule="evenodd" clip-rule="evenodd" d="M425.322 239.128C429.86 239.737 433.075 241.714 431.487 247.607L430.314 252.056C429.218 256.237 423.319 260.914 418.327 260.914L414.545 260.039C414.204 258.101 413.486 237.568 425.322 239.128Z" fill="#4F300C"/>
<path fill-rule="evenodd" clip-rule="evenodd" d="M425.319 239.128C429.743 239.698 432.882 241.599 431.634 247.113C430.916 249.317 428.572 249.317 425.961 250.952C425.735 251.827 423.806 252.207 422.634 253.043C421.159 254.108 420.29 255.515 418.928 255.476L415.109 254.603C415.032 254.337 414.654 253.614 414.617 252.739C415.26 246.276 417.68 238.138 425.319 239.128Z" fill="#F5AD74"/>
<path fill-rule="evenodd" clip-rule="evenodd" d="M433.679 245.173L433.869 251.142C432.545 251.751 430.729 253.348 427.325 253.272C425.813 253.234 425.699 249.241 425.851 247.037C426.152 242.589 422.22 240.61 418.363 241.714C416.964 242.131 419.573 238.101 424.074 236.086C429.255 236.39 433.566 240.42 433.679 245.173Z" fill="#4F300C"/>
<path fill-rule="evenodd" clip-rule="evenodd" d="M427.966 263.157L422.596 273.804L421.008 294.981L423.883 274.145L427.588 270.876L432.543 270.952L427.966 263.157Z" fill="#BE6B18"/>
<path fill-rule="evenodd" clip-rule="evenodd" d="M431.03 250.231C429.933 249.926 428.458 250.725 427.702 252.017C426.984 253.273 427.285 254.528 428.383 254.831C429.479 255.135 430.992 254.338 431.71 253.082C432.429 251.789 432.127 250.535 431.03 250.231Z" fill="#F5AD74"/>
<path fill-rule="evenodd" clip-rule="evenodd" d="M427.972 263.157L422.602 273.804L426.8 268.595L430.505 269.47L427.972 263.157Z" fill="#FF9123"/>
<path fill-rule="evenodd" clip-rule="evenodd" d="M419.161 263.995L418.102 269.85L415.266 271.256L419.161 263.995Z" fill="#FF9123"/>
<path fill-rule="evenodd" clip-rule="evenodd" d="M221.602 228.976C221.602 228.976 225.649 226.39 226.33 225.098C227.011 223.806 229.431 220.801 229.431 220.801C229.431 220.801 230.112 218.673 228.296 219.699C226.519 220.688 226.519 221.524 225.535 222.019C224.589 222.512 222.662 223.007 222.662 223.007C222.662 223.007 220.203 230.307 221.602 228.976Z" fill="#F2815A"/>
<path fill-rule="evenodd" clip-rule="evenodd" d="M219.222 232.094C219.222 232.094 223.647 229.015 224.214 227.038C224.592 225.82 224.781 224.871 224.82 223.806C224.895 223.082 224.895 222.322 224.858 221.41C224.781 219.129 227.996 210.878 227.996 210.878C227.996 210.878 227.77 209.586 226.9 210.383C226.068 211.144 221.643 215.099 220.773 218.217C219.942 221.296 216.273 228.406 216.273 228.406L219.222 232.094Z" fill="#F2815A"/>
<path fill-rule="evenodd" clip-rule="evenodd" d="M216.646 227.645L222.167 229.699L214.036 256.58C212.07 263.12 199.969 263.157 204.697 253.044L216.646 227.645Z" fill="#F2815A"/>
<path fill-rule="evenodd" clip-rule="evenodd" d="M211.73 260.193L191.384 279.432C188.699 281.94 183.064 283.461 181.173 281.674C179.282 279.849 178.829 277.568 181.438 275.02L205.074 252.322C211.087 246.543 218.159 254.109 211.73 260.193Z" fill="#BE6B18"/>
<path fill-rule="evenodd" clip-rule="evenodd" d="M169.756 436.118H159.13L148.844 428.399L153.571 419.921L160.946 423.495L162.951 430.415L170.968 434.977C171.535 435.282 170.437 436.118 169.756 436.118Z" fill="#4F300C"/>
<path fill-rule="evenodd" clip-rule="evenodd" d="M184.016 310.571C184.886 310.761 198.802 351.787 201.185 359.201L162.687 425.586L151.758 418.932L183.449 358.365L157.961 308.936L175.999 310.571H184.016Z" fill="#603A0D"/>
<path fill-rule="evenodd" clip-rule="evenodd" d="M157.959 308.935C157.959 308.935 156.181 319.049 157.467 324.03C161.589 340.418 165.9 346.197 166.92 360.493L171.648 427.448L183.901 427.753L184.279 358.06C184.279 351.14 180.006 327.034 180.006 310.571L157.959 308.935Z" fill="#603A0D"/>
<path fill-rule="evenodd" clip-rule="evenodd" d="M183.902 427.753L184.281 358.06C184.281 351.14 180.008 331.368 180.008 314.905L169.344 317.909C169.344 322.053 173.504 343.915 174.714 360.493L179.742 427.639L183.902 427.753Z" fill="#734815"/>
<path fill-rule="evenodd" clip-rule="evenodd" d="M194.149 436.118H173.234L173.613 427.487L181.782 427.677L195.282 434.977C195.849 435.282 194.828 436.118 194.149 436.118Z" fill="#4F300C"/>
<path fill-rule="evenodd" clip-rule="evenodd" d="M188.439 266.542H173.614C171.536 266.579 168.433 267.074 167.64 269.736L154.177 314.754C154.025 315.21 154.366 315.704 154.82 315.59L185.602 314.791C186.094 314.678 186.586 314.373 186.623 313.917L193.052 269.736C193.431 267.454 190.746 266.352 188.439 266.542Z" fill="#BE6B18"/>
<path fill-rule="evenodd" clip-rule="evenodd" d="M188.439 266.542H173.615C171.536 266.579 168.434 267.074 167.641 269.736L169.342 315.209L185.603 314.791C186.095 314.678 186.587 314.373 186.624 313.917L193.053 269.736C193.431 267.454 190.747 266.352 188.439 266.542Z" fill="#FF9123"/>
<path fill-rule="evenodd" clip-rule="evenodd" d="M176.908 265.477C184.734 264.831 186.135 257.378 183.185 251.866C180.877 247.569 172.823 246.808 170.025 250.648C166.016 256.124 175.432 259.888 176.908 265.477Z" fill="#4F300C"/>
<path fill-rule="evenodd" clip-rule="evenodd" d="M181.481 244.071C178.985 244.071 176.906 246.124 176.906 248.671V266.542L184.733 279.127C184.733 279.164 185.566 266.58 185.566 266.542L186.095 248.671C186.17 246.124 184.015 244.071 181.481 244.071Z" fill="#F2815A"/>
<path fill-rule="evenodd" clip-rule="evenodd" d="M178.341 241.448C173.766 242.055 170.59 244.032 172.139 249.926L173.312 254.375C174.447 258.557 180.346 263.234 185.299 263.234L189.119 262.359C189.459 260.383 190.179 239.888 178.341 241.448Z" fill="#F5AD74"/>
<path fill-rule="evenodd" clip-rule="evenodd" d="M170.023 250.648C171.347 251.257 172.935 255.667 176.339 255.591C177.85 255.515 177.321 252.549 177.171 250.382C176.943 247.037 182.427 244.298 186.284 245.439C186.284 237.568 166.884 238.862 170.023 250.648Z" fill="#4F300C"/>
<path fill-rule="evenodd" clip-rule="evenodd" d="M172.627 252.549C173.723 252.247 175.199 253.044 175.917 254.299C176.673 255.591 176.371 256.846 175.236 257.151C174.14 257.456 172.664 256.656 171.946 255.401C171.228 254.109 171.493 252.854 172.627 252.549Z" fill="#F5AD74"/>
<path fill-rule="evenodd" clip-rule="evenodd" d="M174.789 321.635C174.789 321.635 180.045 327.909 181.143 330.114C182.239 332.318 183.752 334.182 185.265 334.182C186.814 334.144 191.655 334.829 192.109 333.536C192.526 332.357 189.84 332.737 187.42 326.806C186.891 325.476 184.962 323.421 184.962 323.421C184.962 323.421 187.458 323.612 188.516 323.231C189.537 322.89 188.404 321.788 188.404 321.788C188.404 321.788 187.08 321.71 185.567 320.494C184.055 319.316 177.247 318.366 177.247 318.366L174.789 321.635Z" fill="#F5AD74"/>
<path fill-rule="evenodd" clip-rule="evenodd" d="M150.012 299.164L162.113 273.309C163.703 269.887 168.467 266.352 170.925 267.34C173.383 268.329 174.707 270.344 173.156 273.728L159.24 304.107C155.685 311.863 146.155 307.377 150.012 299.164Z" fill="#FF9123"/>
<path fill-rule="evenodd" clip-rule="evenodd" d="M180.569 319.277L177.43 324.145L152.508 310.266C146.42 306.882 149.104 294.753 158.067 301.711L180.569 319.277Z" fill="#F5AD74"/>
<path fill-rule="evenodd" clip-rule="evenodd" d="M352.149 188.826C352.149 178.825 360.28 170.689 370.186 170.689C360.28 170.689 352.149 162.515 352.149 152.553C352.149 162.515 344.018 170.689 334.109 170.689C344.018 170.689 352.149 178.825 352.149 188.826Z" fill="#F68812"/>
<path fill-rule="evenodd" clip-rule="evenodd" d="M338.082 156.658C338.082 149.625 343.793 143.883 350.788 143.883C343.793 143.883 338.082 138.143 338.082 131.108C338.082 138.143 332.372 143.883 325.414 143.883C332.372 143.883 338.082 149.625 338.082 156.658Z" fill="#F68812"/>
<path d="M90.7975 258.482C90.7975 250.536 97.2264 244.071 105.13 244.071C113.033 244.071 119.426 250.536 119.426 258.482C119.426 266.389 113.033 272.854 105.13 272.854C97.2264 272.854 90.7975 266.389 90.7975 258.482ZM129.598 264.108H143.362V253.083H129.674C129.031 250.155 127.897 247.455 126.384 245.022L136.026 235.289L128.275 227.494H121.354L118.631 237.189C116.211 235.631 113.488 234.451 110.614 233.805V220.118H99.6467V233.805C96.7348 234.451 94.012 235.631 91.5917 237.189L81.9483 227.494H74.9901L74.1959 235.289L83.8771 245.022C82.3265 247.455 81.1921 250.155 80.587 253.083H66.8594V264.108H80.6248C81.2676 266.96 82.4022 269.66 83.9528 272.054L74.1959 281.865L74.9901 289.66H81.9483L91.743 279.849C94.1254 281.37 96.7726 282.474 99.6467 283.12V297.036H110.614V283.12C113.45 282.474 116.097 281.37 118.517 279.849L121.354 289.66H128.275L136.026 281.865L126.27 272.054C127.82 269.66 128.954 266.96 129.598 264.108Z" fill="#D76900"/>
<path d="M54.035 198.824C54.035 193.388 58.4595 188.939 63.8675 188.939C69.3131 188.939 73.6997 193.388 73.6997 198.824C73.6997 204.3 69.3131 208.749 63.8675 208.749C58.4595 208.749 54.035 204.3 54.035 198.824ZM80.7338 202.702H90.1879V195.136H80.7716C80.3178 193.122 79.5614 191.258 78.5024 189.586L85.1583 182.894L79.8261 177.532H72.8677L73.1703 184.225C71.5064 183.121 69.6534 182.324 67.649 181.905V172.475H60.0857V181.905C58.1193 182.324 56.2283 183.121 54.5645 184.225L47.9465 177.532H40.9882L42.6143 182.894L49.2701 189.586C48.2112 191.258 47.417 193.122 47.001 195.136H37.5469V202.702H47.0388C47.4926 204.681 48.249 206.543 49.3079 208.216L42.6143 214.945L40.9882 220.307H47.9465L54.6779 213.539C56.304 214.604 58.1571 215.364 60.0857 215.782V225.363H67.649V215.782C69.6156 215.364 71.4308 214.604 73.0947 213.539L72.8677 220.307H79.8261L85.1583 214.945L78.4268 208.216C79.4857 206.543 80.2799 204.681 80.7338 202.702Z" fill="#D76900"/>
<path d="M83.8744 258.482C83.8744 250.536 90.2653 244.071 98.1692 244.071C106.073 244.071 112.463 250.536 112.463 258.482C112.463 266.389 106.073 272.854 98.1692 272.854C90.2653 272.854 83.8744 266.389 83.8744 258.482ZM122.674 264.108H136.44V253.083H122.713C122.069 250.155 120.973 247.455 119.423 245.022L129.104 235.289L121.351 227.494L111.707 237.189C109.287 235.631 106.565 234.451 103.653 233.805V220.118H92.6856V233.805C89.7738 234.451 87.0887 235.631 84.6306 237.189L74.9874 227.494L67.2348 235.289L76.916 245.022C75.4033 247.455 74.2689 250.155 73.6259 253.083H59.8984V264.108H73.7016C74.3445 266.96 75.4789 269.66 76.9917 272.054L67.2348 281.865L74.9874 289.66L84.7819 279.849C87.1643 281.37 89.8495 282.474 92.6856 283.12V297.036H103.653V283.12C106.489 282.474 109.174 281.37 111.556 279.849L121.351 289.66L129.104 281.865L119.346 272.054C120.859 269.66 121.993 266.96 122.674 264.108Z" fill="#FFA211"/>
<path d="M47.0753 198.826C47.0753 193.39 51.5 188.942 56.9456 188.942C62.3534 188.942 66.7779 193.39 66.7779 198.826C66.7779 204.302 62.3534 208.75 56.9456 208.75C51.5 208.75 47.0753 204.302 47.0753 198.826ZM73.7741 202.704H83.2283V195.138H73.8119C73.3959 193.125 72.6017 191.261 71.5429 189.588L78.1987 182.898L72.8664 177.536L66.2486 184.228C64.5467 183.125 62.6937 182.327 60.6895 181.909V172.479H53.1638V181.909C51.1596 182.327 49.3066 183.125 47.6426 184.228L40.9869 177.536L35.6546 182.898L42.3104 189.588C41.2515 191.261 40.4953 193.125 40.0414 195.138H30.625V202.704H40.0793C40.5331 204.682 41.3271 206.545 42.3861 208.217L35.6546 214.946L40.9869 220.308L47.7182 213.54C49.3823 214.605 51.1974 215.365 53.1638 215.782V225.363H60.6895V215.782C62.6559 215.365 64.5089 214.605 66.1351 213.54L72.8664 220.308L78.1987 214.946L71.5051 208.217C72.5639 206.545 73.3202 204.682 73.7741 202.704Z" fill="#FFA211"/>
<path fill-rule="evenodd" clip-rule="evenodd" d="M256.355 334.6L235.595 334.753L207.383 356.083L231.927 353.763L256.355 334.6Z" fill="#FFA211"/>
<path fill-rule="evenodd" clip-rule="evenodd" d="M231.929 353.763L224.516 374.942L252.728 353.612L256.357 334.6L231.929 353.763Z" fill="#D76900"/>
<path fill-rule="evenodd" clip-rule="evenodd" d="M529.699 120.386L508.219 110.614L559.763 94.9117L532.95 142.211L529.699 120.386Z" fill="#FFA211"/>
<path fill-rule="evenodd" clip-rule="evenodd" d="M529.695 120.386L559.76 94.9117L532.947 142.211L529.695 120.386Z" fill="#D76900"/>
<path fill-rule="evenodd" clip-rule="evenodd" d="M435.039 194.566L431.031 211.677L438.632 214.261L435.039 194.566Z" fill="#D76900"/>
<path fill-rule="evenodd" clip-rule="evenodd" d="M435.042 194.566L425.664 207.609L432.47 209.015L435.042 194.566Z" fill="#F59C42"/>
<defs>
<linearGradient id="paint0_linear_1101_11769" x1="276.545" y1="363.116" x2="297.42" y2="370.8" gradientUnits="userSpaceOnUse">
<stop stop-color="#FFCA00"/>
<stop offset="0.791667" stop-color="#FF9000"/>
</linearGradient>
<linearGradient id="paint1_linear_1101_11769" x1="263.545" y1="379.616" x2="282.113" y2="389.381" gradientUnits="userSpaceOnUse">
<stop stop-color="#FFCA00"/>
<stop offset="0.791667" stop-color="#FF9000"/>
</linearGradient>
<linearGradient id="paint2_linear_1101_11769" x1="250.545" y1="389.699" x2="266.267" y2="400.901" gradientUnits="userSpaceOnUse">
<stop stop-color="#FFCA00"/>
<stop offset="0.791667" stop-color="#FF9000"/>
</linearGradient>
<linearGradient id="paint3_linear_1101_11769" x1="237.545" y1="363.116" x2="258.42" y2="370.8" gradientUnits="userSpaceOnUse">
<stop stop-color="#FFCA00"/>
<stop offset="0.791667" stop-color="#FF9000"/>
</linearGradient>
<linearGradient id="paint4_linear_1101_11769" x1="224.545" y1="379.616" x2="243.113" y2="389.381" gradientUnits="userSpaceOnUse">
<stop stop-color="#FFCA00"/>
<stop offset="0.791667" stop-color="#FF9000"/>
</linearGradient>
<linearGradient id="paint5_linear_1101_11769" x1="210.828" y1="403.45" x2="218.683" y2="415.499" gradientUnits="userSpaceOnUse">
<stop stop-color="#FFCA00"/>
<stop offset="0.791667" stop-color="#FF9000"/>
</linearGradient>
</defs>
</svg>
