<svg width="40" height="40" viewBox="0 0 40 40" fill="none" xmlns="http://www.w3.org/2000/svg">
<path d="M0 8.75418C0 3.91937 3.91937 0 8.75418 0H31.2458C36.0806 0 40 3.91937 40 8.75418V31.2458C40 36.0806 36.0806 40 31.2458 40H8.75418C3.91937 40 0 36.0806 0 31.2458V8.75418Z" fill="url(#paint0_linear_22_299)"/>
<path d="M0 8.75418C0 3.91937 3.91937 0 8.75418 0H31.2458C36.0806 0 40 3.91937 40 8.75418V31.2458C40 36.0806 36.0806 40 31.2458 40H8.75418C3.91937 40 0 36.0806 0 31.2458V8.75418Z" fill="url(#paint1_linear_22_299)"/>
<path fill-rule="evenodd" clip-rule="evenodd" d="M20.1092 3.97455C19.0695 3.97455 18.2267 4.81736 18.2267 5.85704C18.2267 6.89668 19.0695 7.73954 20.1092 7.73954C21.1488 7.73954 21.9916 6.89668 21.9916 5.85704C21.9916 4.81736 21.1488 3.97455 20.1092 3.97455ZM20.1092 32.8843C19.0695 32.8843 18.2267 33.7271 18.2267 34.7668C18.2267 35.8065 19.0695 36.6493 20.1092 36.6493C21.1488 36.6493 21.9916 35.8065 21.9916 34.7668C21.9916 33.7271 21.1488 32.8843 20.1092 32.8843ZM32.6143 20.2447C32.6143 19.205 33.4572 18.3622 34.4969 18.3622C35.5365 18.3622 36.3793 19.205 36.3793 20.2447C36.3793 21.2843 35.5365 22.1272 34.4969 22.1272C33.4572 22.1272 32.6143 21.2843 32.6143 20.2447ZM5.58708 18.3622C4.5474 18.3622 3.70459 19.205 3.70459 20.2447C3.70459 21.2843 4.5474 22.1272 5.58708 22.1272C6.62672 22.1272 7.46958 21.2843 7.46958 20.2447C7.46958 19.205 6.62672 18.3622 5.58708 18.3622Z" fill="#472A02" fill-opacity="0.35"/>
<path fill-rule="evenodd" clip-rule="evenodd" d="M19.7952 3.54272C18.7556 3.54272 17.9127 4.38553 17.9127 5.42522C17.9127 6.4649 18.7556 7.30771 19.7952 7.30771C20.8349 7.30771 21.6777 6.4649 21.6777 5.42522C21.6777 4.38553 20.8349 3.54272 19.7952 3.54272ZM19.7952 32.4525C18.7556 32.4525 17.9127 33.2953 17.9127 34.335C17.9127 35.3747 18.7556 36.2175 19.7952 36.2175C20.8349 36.2175 21.6777 35.3747 21.6777 34.335C21.6777 33.2953 20.8349 32.4525 19.7952 32.4525ZM32.3004 19.8129C32.3004 18.7732 33.1432 17.9304 34.1829 17.9304C35.2225 17.9304 36.0654 18.7732 36.0654 19.8129C36.0654 20.8526 35.2225 21.6954 34.1829 21.6954C33.1432 21.6954 32.3004 20.8526 32.3004 19.8129ZM5.27312 17.9304C4.23343 17.9304 3.39062 18.7732 3.39062 19.8129C3.39062 20.8526 4.23343 21.6954 5.27312 21.6954C6.3128 21.6954 7.15561 20.8526 7.15561 19.8129C7.15561 18.7732 6.3128 17.9304 5.27312 17.9304Z" fill="white"/>
<path fill-rule="evenodd" clip-rule="evenodd" d="M31.796 8.71118C31.0609 7.97604 29.869 7.97604 29.1338 8.71118C28.3986 9.44633 28.3986 10.6383 29.1338 11.3735C29.869 12.1086 31.0609 12.1086 31.796 11.3735C32.5312 10.6383 32.5312 9.44633 31.796 8.71118ZM11.3538 29.1535C10.6186 28.4183 9.42664 28.4183 8.6915 29.1535C7.95635 29.8886 7.95635 31.0806 8.6915 31.8157C9.42664 32.5509 10.6186 32.5509 11.3537 31.8157C12.0889 31.0806 12.0889 29.8886 11.3538 29.1535ZM29.1338 29.0584C29.869 28.3232 31.0609 28.3232 31.796 29.0584C32.5312 29.7936 32.5312 30.9855 31.796 31.7207C31.0609 32.4558 29.869 32.4558 29.1338 31.7207C28.3986 30.9855 28.3986 29.7936 29.1338 29.0584ZM11.3538 8.61612C10.6186 7.88093 9.42664 7.88093 8.6915 8.61612C7.95635 9.35127 7.95635 10.5432 8.6915 11.2783C9.42664 12.0135 10.6186 12.0135 11.3538 11.2783C12.0889 10.5432 12.0889 9.35127 11.3538 8.61612Z" fill="#472A02" fill-opacity="0.35"/>
<path fill-rule="evenodd" clip-rule="evenodd" d="M31.4816 8.35719C30.7465 7.62199 29.5545 7.62199 28.8193 8.35719C28.0842 9.09233 28.0842 10.2843 28.8193 11.0194C29.5545 11.7546 30.7465 11.7546 31.4816 11.0194C32.2168 10.2843 32.2168 9.09233 31.4816 8.35719ZM11.0393 28.7995C10.3042 28.0643 9.11222 28.0643 8.37708 28.7995C7.64189 29.5346 7.64189 30.7266 8.37708 31.4617C9.11222 32.1969 10.3042 32.1969 11.0393 31.4617C11.7745 30.7266 11.7745 29.5346 11.0393 28.7995ZM28.8193 28.7044C29.5545 27.9693 30.7465 27.9693 31.4816 28.7044C32.2168 29.4395 32.2168 30.6315 31.4816 31.3667C30.7465 32.1018 29.5545 32.1018 28.8193 31.3667C28.0842 30.6315 28.0842 29.4395 28.8193 28.7044ZM11.0393 8.26208C10.3042 7.52694 9.11222 7.52694 8.37708 8.26208C7.64193 8.99728 7.64193 10.1892 8.37708 10.9244C9.11222 11.6595 10.3042 11.6595 11.0393 10.9244C11.7745 10.1892 11.7745 8.99728 11.0393 8.26208Z" fill="white"/>
<path d="M12.0594 20.4042L18.6409 26.8255C18.8119 26.9957 19.0683 26.9957 19.2392 26.8255L30.9373 15.2319C31.1083 15.0618 31.1083 14.8067 30.9373 14.6366L28.3304 12.085C28.1594 11.9149 27.903 11.9149 27.732 12.085L19.0256 20.7019C18.7264 20.4042 15.3501 17.1723 15.3501 17.1723C15.1792 17.0022 14.9228 17.0022 14.7518 17.1723L12.0594 19.8514C11.8884 19.979 11.8884 20.2341 12.0594 20.4042Z" fill="#472A02" fill-opacity="0.35"/>
<path d="M11.8362 19.5796L18.4178 26.001C18.5888 26.171 18.8452 26.171 19.0161 26.001L30.7142 14.4073C30.8852 14.2372 30.8852 13.9821 30.7142 13.812L28.1072 11.2605C27.9363 11.0903 27.6799 11.0903 27.5089 11.2605L18.8025 19.8773C18.5033 19.5796 15.127 16.3477 15.127 16.3477C14.9561 16.1776 14.6997 16.1776 14.5287 16.3477L11.8362 19.0268C11.6653 19.1543 11.6653 19.4095 11.8362 19.5796Z" fill="white"/>
<defs>
<linearGradient id="paint0_linear_22_299" x1="2.15488" y1="4.17508" x2="36.633" y2="40" gradientUnits="userSpaceOnUse">
<stop stop-color="#DBDBDB"/>
<stop offset="1" stop-color="#F2F2F2"/>
</linearGradient>
<linearGradient id="paint1_linear_22_299" x1="11.3131" y1="2.82829" x2="26.6667" y2="40" gradientUnits="userSpaceOnUse">
<stop stop-color="#FFCA00"/>
<stop offset="1" stop-color="#FF9000"/>
</linearGradient>
</defs>
</svg>
