<svg width="147" height="61" viewBox="0 0 147 61" fill="none" xmlns="http://www.w3.org/2000/svg">
<path d="M67.0815 2.27064C66.6323 2.80967 66.1083 3.49095 65.5093 4.31447C64.9254 5.138 64.3265 6.00644 63.7126 6.9198C63.1136 7.83317 62.5372 8.73904 61.9832 9.63743C61.4292 10.5358 60.95 11.3294 60.5457 12.0182H59.1757V0.40648H60.6131V9.70481C60.9725 9.06097 61.4142 8.3198 61.9382 7.4813C62.4773 6.62783 63.0463 5.77436 63.6452 4.92089C64.2441 4.05244 64.843 3.22143 65.442 2.42786C66.0559 1.63428 66.6248 0.960487 67.1489 0.40648H68.5189V12.0182H67.0815V2.27064Z" fill="#000200"/>
<path d="M80.5998 12.0182H79.1399V6.60537H72.8288V12.0182H71.3689V0.40648H72.8288V5.37008H79.1399V0.40648H80.5998V12.0182Z" fill="#000200"/>
<path d="M90.9315 0.40648V1.64177H87.1133V12.0182H85.6534V1.64177H81.8577V0.40648H90.9315Z" fill="#000200"/>
<path d="M91.4838 6.20109C91.4838 5.18292 91.6261 4.2995 91.9106 3.55084C92.21 2.78721 92.5919 2.15085 93.056 1.64177C93.5352 1.13268 94.0742 0.758349 94.6731 0.518779C95.287 0.264235 95.9159 0.136963 96.5597 0.136963C97.9822 0.136963 99.1127 0.601131 99.9512 1.52947C100.805 2.4578 101.231 3.88774 101.231 5.81928C101.231 5.93906 101.224 6.05885 101.209 6.17863C101.209 6.29842 101.201 6.41072 101.186 6.51553H93.0336C93.0785 7.93798 93.4304 9.03102 94.0892 9.79465C94.748 10.5583 95.7961 10.9401 97.2335 10.9401C98.0271 10.9401 98.656 10.8652 99.1202 10.7155C99.5843 10.5658 99.9212 10.4385 100.131 10.3337L100.4 11.5914C100.191 11.7112 99.794 11.8535 99.21 12.0182C98.641 12.1829 97.9672 12.2652 97.1886 12.2652C96.1704 12.2652 95.302 12.1155 94.5833 11.816C93.8646 11.5166 93.2731 11.0973 92.809 10.5583C92.3448 10.0192 92.0079 9.38289 91.7983 8.64921C91.5887 7.90055 91.4838 7.08451 91.4838 6.20109ZM99.7266 5.28024C99.6966 4.06742 99.4121 3.12411 98.8731 2.45032C98.3341 1.77652 97.5704 1.43963 96.5822 1.43963C96.0581 1.43963 95.5865 1.54444 95.1672 1.75406C94.763 1.96369 94.4036 2.24818 94.0892 2.60753C93.7897 2.95192 93.5501 3.35619 93.3705 3.82036C93.2058 4.28453 93.1084 4.77116 93.0785 5.28024H99.7266Z" fill="#000200"/>
<path d="M104.934 9.92941C105.069 10.0342 105.233 10.1465 105.428 10.2663C105.638 10.3861 105.877 10.4984 106.147 10.6032C106.416 10.708 106.708 10.7979 107.023 10.8727C107.337 10.9326 107.667 10.9626 108.011 10.9626C108.73 10.9626 109.329 10.8428 109.808 10.6032C110.302 10.3487 110.699 10.0118 110.998 9.59251C111.297 9.15829 111.515 8.65669 111.649 8.08771C111.784 7.50376 111.852 6.88986 111.852 6.24601C111.852 4.71875 111.47 3.55084 110.706 2.74229C109.942 1.91877 108.932 1.50701 107.674 1.50701C106.955 1.50701 106.371 1.54444 105.922 1.61931C105.488 1.6792 105.158 1.74658 104.934 1.82144V9.92941ZM104.934 16.1732H103.474V0.810756C103.908 0.661024 104.462 0.518779 105.136 0.384021C105.81 0.249262 106.663 0.181883 107.696 0.181883C108.55 0.181883 109.321 0.324128 110.01 0.608618C110.714 0.878135 111.312 1.27492 111.807 1.79898C112.316 2.32304 112.705 2.9594 112.974 3.70806C113.259 4.45672 113.401 5.3027 113.401 6.24601C113.401 7.12943 113.281 7.94547 113.042 8.69412C112.817 9.42781 112.48 10.0642 112.031 10.6032C111.582 11.1273 111.028 11.539 110.369 11.8385C109.725 12.138 108.984 12.2877 108.146 12.2877C107.382 12.2877 106.716 12.1829 106.147 11.9732C105.593 11.7486 105.188 11.539 104.934 11.3444V16.1732Z" fill="#000200"/>
<path d="M124.788 12.0182H123.329V6.60537H117.017V12.0182H115.558V0.40648H117.017V5.37008H123.329V0.40648H124.788V12.0182Z" fill="#000200"/>
<path d="M126.945 6.20109C126.945 5.18292 127.087 4.2995 127.372 3.55084C127.671 2.78721 128.053 2.15085 128.517 1.64177C128.996 1.13268 129.535 0.758349 130.134 0.518779C130.748 0.264235 131.377 0.136963 132.021 0.136963C133.443 0.136963 134.574 0.601131 135.412 1.52947C136.266 2.4578 136.692 3.88774 136.692 5.81928C136.692 5.93906 136.685 6.05885 136.67 6.17863C136.67 6.29842 136.662 6.41072 136.647 6.51553H128.495C128.539 7.93798 128.891 9.03102 129.55 9.79465C130.209 10.5583 131.257 10.9401 132.694 10.9401C133.488 10.9401 134.117 10.8652 134.581 10.7155C135.045 10.5658 135.382 10.4385 135.592 10.3337L135.861 11.5914C135.652 11.7112 135.255 11.8535 134.671 12.0182C134.102 12.1829 133.428 12.2652 132.65 12.2652C131.631 12.2652 130.763 12.1155 130.044 11.816C129.326 11.5166 128.734 11.0973 128.27 10.5583C127.806 10.0192 127.469 9.38289 127.259 8.64921C127.05 7.90055 126.945 7.08451 126.945 6.20109ZM135.188 5.28024C135.158 4.06742 134.873 3.12411 134.334 2.45032C133.795 1.77652 133.031 1.43963 132.043 1.43963C131.519 1.43963 131.047 1.54444 130.628 1.75406C130.224 1.96369 129.865 2.24818 129.55 2.60753C129.251 2.95192 129.011 3.35619 128.831 3.82036C128.667 4.28453 128.569 4.77116 128.539 5.28024H135.188Z" fill="#000200"/>
<path d="M146.414 0.40648V1.64177H142.596V12.0182H141.136V1.64177H137.34V0.40648H146.414Z" fill="#000200"/>
<path d="M63.5104 25.7798L65.8462 22.1862H69.305L65.2623 27.8685C66.1607 28.9915 66.9767 30.0846 67.7104 31.1477C68.4441 32.2107 69.028 33.1615 69.4623 34H65.8687C65.7489 33.7754 65.5992 33.4984 65.4195 33.169C65.2398 32.8246 65.0377 32.4728 64.8131 32.1134C64.5885 31.7391 64.3489 31.3722 64.0944 31.0129C63.8548 30.6386 63.6152 30.3017 63.3757 30.0022C63.1511 30.2867 62.919 30.6011 62.6794 30.9455C62.4548 31.2899 62.2377 31.6418 62.0281 32.0011C61.8185 32.3455 61.6088 32.6899 61.3992 33.0343C61.2046 33.3787 61.0324 33.7006 60.8826 34H57.4688C57.6484 33.6257 57.8955 33.184 58.2099 32.6749C58.5244 32.1658 58.8613 31.6418 59.2206 31.1027C59.5949 30.5487 59.9842 30.0022 60.3885 29.4632C60.7928 28.9092 61.1896 28.3926 61.5789 27.9134C60.9051 26.9701 60.2313 26.0193 59.5575 25.0611C58.8837 24.0878 58.2174 23.1295 57.5586 22.1862H61.1746L63.5104 25.7798Z" fill="#000200"/>
<path d="M81.0806 28.0707C81.0806 28.999 80.9458 29.8525 80.6763 30.6311C80.4068 31.3947 80.0175 32.0535 79.5084 32.6075C78.9993 33.1466 78.3854 33.5658 77.6667 33.8653C76.963 34.1647 76.1694 34.3145 75.286 34.3145C74.4175 34.3145 73.624 34.1647 72.9053 33.8653C72.2015 33.5658 71.5951 33.1466 71.086 32.6075C70.5769 32.0535 70.1801 31.3947 69.8957 30.6311C69.6112 29.8525 69.4689 28.999 69.4689 28.0707C69.4689 27.1423 69.6112 26.2963 69.8957 25.5327C70.1951 24.7691 70.5994 24.1178 71.1085 23.5787C71.6325 23.0397 72.2464 22.6204 72.9502 22.321C73.6689 22.0215 74.4475 21.8718 75.286 21.8718C76.1395 21.8718 76.9181 22.0215 77.6218 22.321C78.3405 22.6204 78.9544 23.0397 79.4635 23.5787C79.9726 24.1178 80.3694 24.7691 80.6539 25.5327C80.9384 26.2963 81.0806 27.1423 81.0806 28.0707ZM77.6667 28.0707C77.6667 27.0375 77.4571 26.229 77.0379 25.645C76.6336 25.0461 76.0496 24.7466 75.286 24.7466C74.5224 24.7466 73.9309 25.0461 73.5117 25.645C73.0924 26.229 72.8828 27.0375 72.8828 28.0707C72.8828 29.1038 73.0924 29.9273 73.5117 30.5412C73.9309 31.1402 74.5224 31.4396 75.286 31.4396C76.0496 31.4396 76.6336 31.1402 77.0379 30.5412C77.4571 29.9273 77.6667 29.1038 77.6667 28.0707Z" fill="#000200"/>
<path d="M82.4377 28.0931C82.4377 27.2397 82.5724 26.4386 82.8419 25.6899C83.1264 24.9263 83.5307 24.2675 84.0548 23.7135C84.5788 23.1445 85.2152 22.6953 85.9638 22.3659C86.7125 22.0365 87.566 21.8718 88.5243 21.8718C89.1531 21.8718 89.7296 21.9317 90.2537 22.0515C90.7777 22.1563 91.2868 22.3135 91.7809 22.5231L91.0847 25.1958C90.7702 25.076 90.4258 24.9712 90.0515 24.8814C89.6772 24.7915 89.2579 24.7466 88.7938 24.7466C87.8055 24.7466 87.0644 25.0536 86.5703 25.6675C86.0911 26.2814 85.8515 27.0899 85.8515 28.0931C85.8515 29.1562 86.0761 29.9797 86.5253 30.5637C86.9895 31.1477 87.7906 31.4396 88.9285 31.4396C89.3328 31.4396 89.767 31.4022 90.2312 31.3273C90.6954 31.2525 91.1221 31.1327 91.5114 30.968L91.9831 33.7081C91.5938 33.8728 91.1071 34.015 90.5232 34.1348C89.9392 34.2546 89.2954 34.3145 88.5916 34.3145C87.5136 34.3145 86.5852 34.1573 85.8066 33.8428C85.028 33.5134 84.3842 33.0717 83.8751 32.5177C83.381 31.9637 83.0141 31.3124 82.7746 30.5637C82.55 29.8001 82.4377 28.9765 82.4377 28.0931Z" fill="#000200"/>
<path d="M103.325 24.9263H99.552V34H96.2055V24.9263H92.4322V22.1862H103.325V24.9263Z" fill="#000200"/>
<path d="M115.44 22.1862V34H112.071C112.071 33.2514 112.078 32.5102 112.093 31.7765C112.108 31.0279 112.123 30.3391 112.138 29.7102C112.153 29.0814 112.168 28.5348 112.183 28.0707C112.213 27.5915 112.228 27.2397 112.228 27.0151C111.794 27.629 111.36 28.2503 110.925 28.8792C110.491 29.5081 110.072 30.1295 109.668 30.7434C109.278 31.3423 108.904 31.9188 108.545 32.4728C108.2 33.0268 107.893 33.5359 107.624 34H104.682V22.1862H108.028C108.028 22.9349 108.021 23.6536 108.006 24.3424C108.006 25.0161 107.998 25.63 107.983 26.184C107.968 26.7381 107.953 27.2247 107.938 27.6439C107.923 28.0482 107.916 28.3626 107.916 28.5872C108.814 27.2696 109.638 26.0867 110.386 25.0386C111.15 23.9905 111.891 23.0397 112.61 22.1862H115.44Z" fill="#000200"/>
<path d="M128.088 34H124.741V29.3284H121.26V34H117.914V22.1862H121.26V26.5883H124.741V22.1862H128.088V34Z" fill="#000200"/>
<path d="M138.931 24.9263H133.9V34H130.553V22.1862H138.931V24.9263Z" fill="#000200"/>
<path d="M68.1371 44.3702V54.7466H69.4623V59.1937H68.0473V55.9819H59.1757V44.3702H60.6356V54.7466H66.6772V44.3702H68.1371Z" fill="#000200"/>
<path d="M69.826 50.1648C69.826 49.1467 69.9682 48.2632 70.2527 47.5146C70.5522 46.751 70.934 46.1146 71.3982 45.6055C71.8773 45.0964 72.4164 44.7221 73.0153 44.4825C73.6292 44.228 74.258 44.1007 74.9019 44.1007C76.3243 44.1007 77.4548 44.5649 78.2933 45.4932C79.1468 46.4215 79.5735 47.8515 79.5735 49.783C79.5735 49.9028 79.566 50.0226 79.5511 50.1424C79.5511 50.2622 79.5436 50.3745 79.5286 50.4793H71.3757C71.4206 51.9017 71.7725 52.9948 72.4313 53.7584C73.0901 54.522 74.1383 54.9038 75.5757 54.9038C76.3693 54.9038 76.9981 54.829 77.4623 54.6792C77.9265 54.5295 78.2634 54.4022 78.473 54.2974L78.7425 55.5552C78.5329 55.675 78.1361 55.8172 77.5521 55.9819C76.9832 56.1466 76.3094 56.229 75.5308 56.229C74.5126 56.229 73.6441 56.0792 72.9254 55.7798C72.2067 55.4803 71.6153 55.0611 71.1511 54.522C70.6869 53.983 70.3501 53.3466 70.1404 52.613C69.9308 51.8643 69.826 51.0483 69.826 50.1648ZM78.0687 49.244C78.0388 48.0312 77.7543 47.0879 77.2152 46.4141C76.6762 45.7403 75.9126 45.4034 74.9244 45.4034C74.4003 45.4034 73.9286 45.5082 73.5094 45.7178C73.1051 45.9274 72.7458 46.2119 72.4313 46.5713C72.1319 46.9157 71.8923 47.3199 71.7126 47.7841C71.5479 48.2483 71.4506 48.7349 71.4206 49.244H78.0687Z" fill="#000200"/>
<path d="M90.4856 55.9819H89.0257V50.5691H82.7145V55.9819H81.2547V44.3702H82.7145V49.3338H89.0257V44.3702H90.4856V55.9819Z" fill="#000200"/>
<path d="M100.256 44.3702V45.6055H96.4376V55.9819H94.9777V45.6055H91.182V44.3702H100.256Z" fill="#000200"/>
<path d="M102.403 53.8932C102.538 53.998 102.702 54.1103 102.897 54.23C103.107 54.3498 103.346 54.4621 103.616 54.5669C103.885 54.6718 104.177 54.7616 104.492 54.8365C104.806 54.8964 105.135 54.9263 105.48 54.9263C106.198 54.9263 106.797 54.8065 107.277 54.5669C107.771 54.3124 108.167 53.9755 108.467 53.5563C108.766 53.122 108.983 52.6204 109.118 52.0515C109.253 51.4675 109.32 50.8536 109.32 50.2098C109.32 48.6825 108.939 47.5146 108.175 46.706C107.411 45.8825 106.401 45.4708 105.143 45.4708C104.424 45.4708 103.84 45.5082 103.391 45.583C102.957 45.6429 102.627 45.7103 102.403 45.7852V53.8932ZM102.403 60.137H100.943V44.7745C101.377 44.6248 101.931 44.4825 102.605 44.3478C103.279 44.213 104.132 44.1456 105.165 44.1456C106.019 44.1456 106.79 44.2879 107.479 44.5724C108.182 44.8419 108.781 45.2387 109.275 45.7627C109.785 46.2868 110.174 46.9231 110.443 47.6718C110.728 48.4205 110.87 49.2664 110.87 50.2098C110.87 51.0932 110.75 51.9092 110.511 52.6579C110.286 53.3916 109.949 54.0279 109.5 54.5669C109.051 55.091 108.497 55.5028 107.838 55.8022C107.194 56.1017 106.453 56.2514 105.615 56.2514C104.851 56.2514 104.185 56.1466 103.616 55.937C103.062 55.7124 102.657 55.5028 102.403 55.3081V60.137Z" fill="#000200"/>
<rect x="11.5156" y="11.2863" width="10.0777" height="10.0777" fill="#FDEE3A"/>
<rect x="23.0352" y="11.2863" width="10.0777" height="10.0777" fill="#E9438C"/>
<rect x="23.0352" y="0.248657" width="10.0777" height="9.59785" fill="black"/>
<rect x="34.5547" y="11.2863" width="10.0777" height="10.0777" fill="#FBB149"/>
<rect x="34.5547" y="0.248657" width="10.0777" height="9.59785" fill="#631E76"/>
<rect y="22.8036" width="10.0777" height="9.59785" fill="#8CBB33"/>
<rect x="11.5156" y="33.8412" width="10.0777" height="10.0777" fill="black"/>
<rect x="11.5156" y="22.8036" width="10.0777" height="9.59785" fill="#0097E2"/>
<rect x="23.0352" y="33.8412" width="10.0777" height="10.0777" fill="#E42110"/>
<rect x="23.0352" y="22.8036" width="10.0777" height="9.59785" fill="black"/>
<rect x="34.5547" y="33.8412" width="10.0777" height="10.0777" fill="black"/>
<rect y="45.3586" width="10.0777" height="10.0777" fill="black"/>
<rect x="23.0352" y="45.3586" width="10.0777" height="10.0777" fill="#FDEE3A"/>
<rect x="34.5547" y="45.3586" width="10.0777" height="10.0777" fill="#E42110"/>
<rect x="34.5547" y="22.8036" width="10.0777" height="9.59785" fill="black"/>
</svg>
