<svg width="64" height="64" viewBox="0 0 64 64" fill="none" xmlns="http://www.w3.org/2000/svg">
<path d="M0 14.0067C0 6.27103 6.27103 0 14.0067 0H49.9933C57.729 0 64 6.27103 64 14.0067V49.9933C64 57.729 57.729 64 49.9933 64H14.0067C6.27103 64 0 57.729 0 49.9933V14.0067Z" fill="url(#paint0_linear_407_435)"/>
<path d="M0 14.0067C0 6.27103 6.27103 0 14.0067 0H49.9933C57.729 0 64 6.27103 64 14.0067V49.9933C64 57.729 57.729 64 49.9933 64H14.0067C6.27103 64 0 57.729 0 49.9933V14.0067Z" fill="url(#paint1_linear_407_435)"/>
<path fill-rule="evenodd" clip-rule="evenodd" d="M32.1746 6.3595C30.5111 6.3595 29.1626 7.70801 29.1626 9.37149C29.1626 11.035 30.5111 12.3835 32.1746 12.3835C33.8381 12.3835 35.1866 11.035 35.1866 9.37149C35.1866 7.70801 33.8381 6.3595 32.1746 6.3595ZM32.1746 52.6152C30.5111 52.6152 29.1626 53.9637 29.1626 55.6272C29.1626 57.2906 30.5111 58.6392 32.1746 58.6392C33.8381 58.6392 35.1866 57.2906 35.1866 55.6272C35.1866 53.9637 33.8381 52.6152 32.1746 52.6152ZM52.1829 32.3918C52.1829 30.7283 53.5314 29.3798 55.1949 29.3798C56.8583 29.3798 58.2069 30.7283 58.2069 32.3918C58.2069 34.0552 56.8583 35.4037 55.1949 35.4037C53.5314 35.4037 52.1829 34.0552 52.1829 32.3918ZM8.93923 29.3797C7.27575 29.3797 5.92723 30.7283 5.92723 32.3917C5.92723 34.0552 7.27575 35.4037 8.93923 35.4037C10.6027 35.4037 11.9512 34.0552 11.9512 32.3917C11.9512 30.7283 10.6027 29.3797 8.93923 29.3797Z" fill="#472A02" fill-opacity="0.35"/>
<path fill-rule="evenodd" clip-rule="evenodd" d="M31.6725 5.66821C30.0091 5.66821 28.6605 7.01673 28.6605 8.68021C28.6605 10.3437 30.0091 11.6922 31.6725 11.6922C33.336 11.6922 34.6845 10.3437 34.6845 8.68021C34.6845 7.01673 33.336 5.66821 31.6725 5.66821ZM31.6725 51.9239C30.0091 51.9239 28.6605 53.2724 28.6605 54.9359C28.6605 56.5993 30.0091 57.9479 31.6725 57.9479C33.336 57.9479 34.6845 56.5993 34.6845 54.9359C34.6845 53.2724 33.336 51.9239 31.6725 51.9239ZM51.6808 31.7005C51.6808 30.037 53.0293 28.6885 54.6928 28.6885C56.3563 28.6885 57.7048 30.037 57.7048 31.7005C57.7048 33.3639 56.3563 34.7125 54.6928 34.7125C53.0293 34.7125 51.6808 33.3639 51.6808 31.7005ZM8.43715 28.6885C6.77367 28.6885 5.42516 30.037 5.42516 31.7005C5.42516 33.3639 6.77367 34.7125 8.43715 34.7125C10.1006 34.7125 11.4491 33.3639 11.4491 31.7005C11.4491 30.037 10.1006 28.6885 8.43715 28.6885Z" fill="white"/>
<path fill-rule="evenodd" clip-rule="evenodd" d="M50.8734 13.9375C49.6972 12.7612 47.7901 12.7612 46.6138 13.9375C45.4376 15.1138 45.4376 17.0209 46.6138 18.1971C47.7901 19.3734 49.6972 19.3734 50.8734 18.1971C52.0497 17.0209 52.0497 15.1138 50.8734 13.9375ZM18.1657 46.6452C16.9895 45.4689 15.0824 45.4689 13.9061 46.6452C12.7299 47.8215 12.7299 49.7285 13.9061 50.9048C15.0824 52.0811 16.9895 52.0811 18.1657 50.9048C19.342 49.7285 19.342 47.8215 18.1657 46.6452ZM46.6138 46.4931C47.7901 45.3168 49.6972 45.3168 50.8734 46.4931C52.0497 47.6693 52.0497 49.5764 50.8734 50.7527C49.6972 51.9289 47.7901 51.9289 46.6138 50.7527C45.4376 49.5764 45.4376 47.6693 46.6138 46.4931ZM18.1658 13.7854C16.9895 12.6091 15.0824 12.6091 13.9061 13.7854C12.7299 14.9616 12.7299 16.8687 13.9061 18.045C15.0824 19.2212 16.9895 19.2212 18.1658 18.045C19.342 16.8687 19.342 14.9616 18.1658 13.7854Z" fill="#472A02" fill-opacity="0.35"/>
<path fill-rule="evenodd" clip-rule="evenodd" d="M50.3709 13.3722C49.1947 12.1959 47.2876 12.1959 46.1113 13.3722C44.935 14.5485 44.9351 16.4555 46.1113 17.6318C47.2876 18.8081 49.1947 18.8081 50.3709 17.6318C51.5472 16.4555 51.5472 14.5485 50.3709 13.3722ZM17.6632 46.0799C16.487 44.9036 14.5799 44.9036 13.4036 46.0799C12.2274 47.2561 12.2274 49.1632 13.4036 50.3395C14.5799 51.5157 16.487 51.5157 17.6632 50.3395C18.8395 49.1632 18.8395 47.2561 17.6632 46.0799ZM46.1113 45.9278C47.2876 44.7515 49.1947 44.7515 50.3709 45.9278C51.5472 47.104 51.5472 49.0111 50.3709 50.1874C49.1947 51.3636 47.2876 51.3636 46.1113 50.1874C44.9351 49.0111 44.9351 47.104 46.1113 45.9278ZM17.6633 13.2201C16.487 12.0438 14.5799 12.0438 13.4036 13.2201C12.2274 14.3963 12.2274 16.3034 13.4036 17.4797C14.5799 18.6559 16.487 18.6559 17.6633 17.4797C18.8395 16.3034 18.8395 14.3963 17.6633 13.2201Z" fill="white"/>
<path d="M19.295 32.6467L29.8256 42.9209C30.0991 43.193 30.5094 43.193 30.7829 42.9209L49.4998 24.3711C49.7734 24.0989 49.7734 23.6907 49.4998 23.4185L45.3287 19.3361C45.0551 19.0639 44.6449 19.0639 44.3713 19.3361L30.441 33.123C29.9623 32.6467 24.5603 27.4757 24.5603 27.4757C24.2868 27.2035 23.8765 27.2035 23.603 27.4757L19.295 31.7622C19.0215 31.9663 19.0215 32.3746 19.295 32.6467Z" fill="#472A02" fill-opacity="0.35"/>
<path d="M18.9377 31.3273L29.4683 41.6014C29.7418 41.8736 30.1521 41.8736 30.4256 41.6014L49.1425 23.0516C49.4161 22.7795 49.4161 22.3712 49.1425 22.0991L44.9714 18.0166C44.6978 17.7445 44.2876 17.7445 44.014 18.0166L30.0837 31.8036C29.605 31.3273 24.203 26.1562 24.203 26.1562C23.9295 25.8841 23.5192 25.8841 23.2457 26.1562L18.9377 30.4428C18.6642 30.6469 18.6642 31.0551 18.9377 31.3273Z" fill="white"/>
<defs>
<linearGradient id="paint0_linear_407_435" x1="3.44781" y1="6.68013" x2="58.6128" y2="64" gradientUnits="userSpaceOnUse">
<stop stop-color="#DBDBDB"/>
<stop offset="1" stop-color="#F2F2F2"/>
</linearGradient>
<linearGradient id="paint1_linear_407_435" x1="18.101" y1="4.52525" x2="42.6667" y2="64" gradientUnits="userSpaceOnUse">
<stop stop-color="#FFCA00"/>
<stop offset="1" stop-color="#FF9000"/>
</linearGradient>
</defs>
</svg>
