<svg width="52" height="52" viewBox="0 0 52 52" fill="none" xmlns="http://www.w3.org/2000/svg">
<circle cx="26" cy="26" r="26" fill="#EAF6FC"/>
<path d="M35.3485 31.1373L35.3482 31.1378C35.651 31.3415 35.9644 31.6533 36.0712 31.9765C36.0737 31.9841 36.075 31.992 36.075 32V32.0088C36.075 32.3022 36.0751 32.719 35.867 33.0374L35.5717 33.6333L35.5676 33.6417L35.5671 33.6413C35.1537 34.267 34.3203 34.5881 33.586 34.166L33.3896 34.067L33.3812 34.0627L33.3816 34.0622C33.1243 33.8892 32.8658 33.9672 32.6749 34.0617C32.6537 34.0823 32.6313 34.1016 32.6088 34.1209C32.5092 34.2065 32.4083 34.2933 32.4083 34.5V34.7C32.4083 35.4444 31.7771 36.075 30.9459 36.075H30.1532C29.322 36.075 28.6908 35.4444 28.6908 34.7V34.5C28.6908 34.2933 28.5899 34.2065 28.4903 34.1209C28.4678 34.1016 28.4454 34.0823 28.4242 34.0617C28.2333 33.9672 27.9748 33.8892 27.7175 34.0622L27.7097 34.0675L27.7095 34.067L27.5131 34.166C26.7868 34.5836 25.9508 34.3752 25.532 33.7413L25.5292 33.737L25.5293 33.737L25.1342 33.0391C24.9249 32.7205 24.925 32.3027 24.925 32.0088L24.925 32C24.925 31.992 24.9263 31.9841 24.9288 31.9765C25.0348 31.6555 25.3448 31.3457 25.6456 31.142L25.8386 30.9472C25.8443 30.9415 25.8509 30.9367 25.8581 30.933C26.0273 30.8477 26.1142 30.6761 26.1142 30.5C26.1142 30.3239 26.0273 30.1523 25.8581 30.067L25.6599 29.967C25.243 29.7566 25.0331 29.4392 24.9288 29.1235C24.9263 29.1159 24.925 29.108 24.925 29.1L24.925 29.0912C24.925 28.7973 24.9249 28.3795 25.1342 28.0608L25.5293 27.363L25.5319 27.3586L25.532 27.3587C25.9508 26.7248 26.7869 26.5164 27.5131 26.934L27.7046 27.0306C27.9903 27.1256 28.2485 27.1155 28.4152 26.9472C28.4187 26.9437 28.4225 26.9405 28.4266 26.9378M35.3485 31.1373L28.4685 27M35.3485 31.1373L35.3401 31.133M35.3485 31.1373L35.3401 31.133M28.4266 26.9378L28.4685 27M28.4266 26.9378L28.4266 26.9378L28.4685 27M28.4266 26.9378L28.4268 26.9377L28.4285 26.9364L28.4364 26.9307C28.4435 26.9254 28.454 26.9173 28.4667 26.9067C28.4921 26.8852 28.5261 26.8538 28.56 26.8139C28.6286 26.7331 28.6908 26.6249 28.6908 26.5V26.3C28.6908 25.5592 29.3183 24.925 30.0541 24.925H30.9459C31.6817 24.925 32.3092 25.5592 32.3092 26.3V26.6C32.3092 26.6317 32.3212 26.6683 32.3452 26.7085C32.3688 26.7484 32.4015 26.7873 32.4362 26.8222C32.4705 26.8569 32.5052 26.8861 32.5314 26.9066C32.5444 26.9169 32.5552 26.9248 32.5626 26.9302L32.571 26.9361L32.573 26.9375L32.5734 26.9378M28.4685 27C28.4685 27 28.7658 26.8 28.7658 26.5V26.3C28.7658 25.6 29.3604 25 30.0541 25H30.9459C31.6396 25 32.2342 25.6 32.2342 26.3V26.6C32.2342 26.8 32.5315 27 32.5315 27M32.5734 26.9378L32.5315 27M32.5734 26.9378C32.5734 26.9378 32.5734 26.9378 32.5734 26.9378M32.5734 26.9378L32.5734 26.9378L32.5734 26.9378M32.5315 27L32.5734 26.9378M32.5315 27L32.5734 26.9378M35.3401 31.133L35.1419 31.033C35.0509 30.9872 34.96 30.9182 34.8927 30.8389C34.8248 30.7589 34.7867 30.6756 34.7867 30.6C34.7867 30.4239 34.8736 30.2523 35.0428 30.167L35.241 30.067L35.2413 30.0675M35.3401 31.133L35.2413 30.0675M35.2413 30.0675L35.2491 30.0622M35.2413 30.0675L35.2491 30.0622M35.2491 30.0622C35.5519 29.8585 35.8653 29.5467 35.9721 29.2235M35.2491 30.0622L35.9721 29.2235M26.1651 28.7989C26.1651 28.7989 26.1651 28.799 26.1651 28.799L26.1656 28.8034C26.1664 28.8079 26.1677 28.8128 26.1697 28.8167C26.1715 28.8204 26.173 28.8216 26.1738 28.8221L26.1738 28.8222C26.1742 28.8224 26.1779 28.825 26.1892 28.825C26.2041 28.825 26.2187 28.8294 26.2311 28.8378L26.5245 29.0352C27.1453 29.3505 27.4534 29.9775 27.4534 30.6C27.4534 31.2332 27.0373 31.7524 26.4321 32.0614L26.2425 32.2528C26.2284 32.2669 26.2094 32.2749 26.1895 32.275M26.1651 28.7989L26.1895 32.275M26.1651 28.7989V28.7198L26.5466 28.0461C26.6355 27.9608 26.7951 27.8897 26.9482 27.967L27.1464 28.067C27.76 28.3765 28.4816 28.3797 29.0028 28.0642C29.5221 27.7497 29.8318 27.1246 29.8318 26.6V26.3C29.8318 26.2595 29.8766 26.175 30.0541 26.175H30.9459C31.1234 26.175 31.1682 26.2595 31.1682 26.3V26.5C31.1682 27.1271 31.48 27.651 31.9972 27.9642L31.9971 27.9643L32.0023 27.967C32.6035 28.2703 33.3307 28.3856 33.8606 27.9634L34.0518 27.867C34.059 27.8633 34.0656 27.8585 34.0713 27.8528C34.0904 27.8336 34.1276 27.8243 34.1923 27.8461C34.2515 27.866 34.3131 27.9063 34.3554 27.9471L34.8349 28.7213V28.8C34.8349 28.8119 34.8322 28.8159 34.8319 28.8165L34.8318 28.8165C34.8313 28.8173 34.83 28.8188 34.8266 28.8205C34.8228 28.8224 34.8182 28.8237 34.8139 28.8245L34.8097 28.825C34.8093 28.825 34.8092 28.825 34.8094 28.825L34.8099 28.825L34.8103 28.825L34.8105 28.825M26.1651 28.7989L34.8105 28.825M26.1895 32.275L26.1897 32.275L26.1901 32.275L26.1906 32.275C26.1908 32.275 26.1907 32.275 26.1903 32.275L26.1861 32.2755C26.1818 32.2763 26.1772 32.2776 26.1734 32.2795C26.17 32.2812 26.1687 32.2827 26.1682 32.2835L26.1681 32.2835C26.1678 32.2841 26.1651 32.2881 26.1651 32.3V32.3761L26.643 33.0514C26.6854 33.0927 26.7478 33.1338 26.8077 33.1539C26.8649 33.1732 26.9007 33.1682 26.9213 33.1535L27.0139 32.9667C27.0227 32.9489 27.0383 32.9353 27.0572 32.9289L27.0634 32.9268C27.3563 32.8283 27.6634 32.725 27.973 32.725C28.3841 32.725 28.6956 32.8294 29.0043 33.0368C29.2622 33.1932 29.4925 33.4263 29.6588 33.6844C29.825 33.9424 29.9309 34.2314 29.9309 34.5V34.8C29.9309 34.8258 29.9444 34.8578 29.9711 34.8847C29.9978 34.9117 30.0291 34.925 30.0541 34.925H30.9459C30.9845 34.925 31.0691 34.8807 31.0691 34.7V34.5C31.0691 34.2314 31.175 33.9424 31.3412 33.6844C31.5078 33.4258 31.7387 33.1923 31.9972 33.0358C32.5184 32.7203 33.24 32.7235 33.8536 33.033L34.0518 33.133C34.2049 33.2103 34.3645 33.1392 34.4534 33.0539L34.8316 32.3861C34.8312 32.3852 34.8308 32.3842 34.8303 32.3833C34.8285 32.3796 34.827 32.3784 34.8262 32.3779C34.826 32.3777 34.8223 32.375 34.8108 32.375C34.7909 32.375 34.7718 32.3671 34.7578 32.353C34.7438 32.3391 34.7359 32.3202 34.7358 32.3004M26.1895 32.275L34.8105 28.825M26.1895 32.275H26.1895H26.1895ZM34.7358 32.3004C34.7358 32.3003 34.7358 32.3002 34.7358 32.3001V32.3001V32.3003L34.7358 32.3004ZM34.7358 32.3004L34.7358 32.3005L34.7358 32.3009L34.7358 32.3014C34.7358 32.3015 34.7358 32.3014 34.7358 32.301L34.7353 32.2966C34.7345 32.2921 34.7332 32.2872 34.7312 32.2833C34.7294 32.2796 34.7279 32.2784 34.7271 32.2779C34.7269 32.2777 34.7232 32.275 34.7117 32.275C34.7 32.275 34.6884 32.2722 34.6779 32.267L34.4797 32.167C33.8561 31.8523 33.5466 31.2239 33.5466 30.6C33.5466 29.8699 33.96 29.349 34.5679 29.0386L34.7575 28.8472C34.7716 28.8331 34.7906 28.8251 34.8105 28.825M34.8105 28.825H34.8105H34.8105ZM35.9721 29.2235C36.0806 28.895 35.9716 28.4721 35.7667 28.1608M35.9721 29.2235L35.7667 28.1608M35.7667 28.1608L35.3736 27.4667C35.0544 26.7213 34.2102 26.5181 33.4869 26.934L35.7667 28.1608ZM33.2954 27.0306L33.2905 27.033L33.3243 27.1L33.3004 27.0289C33.2987 27.0295 33.2971 27.03 33.2954 27.0306ZM26.1893 32.275H26.1893C26.1893 32.275 26.1894 32.275 26.1895 32.275L26.1893 32.275ZM30.5 31.675C31.1489 31.675 31.675 31.1489 31.675 30.5C31.675 29.8511 31.1489 29.325 30.5 29.325C29.8511 29.325 29.325 29.8511 29.325 30.5C29.325 31.1489 29.8511 31.675 30.5 31.675Z" fill="#24A1DE" stroke="#24A1DE" stroke-width="0.15" stroke-miterlimit="10" stroke-linecap="round" stroke-linejoin="round"/>
<path d="M28.9015 19.0208C28.4091 16.9559 26.4394 15.6776 24.2727 16.0709C22.5 16.4642 21.1212 17.8408 21.0227 19.5124V21.4789C21.0227 22.7572 21.6136 23.8388 22.7955 24.6254V25.3137C22.2045 25.412 21.5152 25.707 20.9242 25.9037C20.2348 26.1003 19.5455 26.3953 18.8561 26.592C17.4773 26.887 16.5909 27.8702 16.197 29.2468C16 29.8368 16 30.3284 16 30.8201V31.3117C16 31.5084 16.0985 31.8033 16.3939 31.9017C16.4924 32 16.6894 32 16.7879 32C16.8864 32 16.9848 32 17.0833 31.9017C17.2803 31.8033 17.4773 31.5084 17.4773 31.2134V29.7385C17.6742 28.7552 18.1667 28.0669 19.053 27.7719C19.447 27.6736 19.8409 27.4769 20.2348 27.3786C20.6288 27.2803 21.0227 27.0836 21.4167 26.9853C21.6136 26.9853 21.8106 26.887 21.9091 26.7886C22.1061 26.6903 22.2045 26.6903 22.4015 26.592C22.697 26.4937 22.8939 26.3953 23.0909 26.3953C23.2879 26.297 23.5833 26.1987 23.8788 26.1003L24.0758 26.002V25.2154C24.4697 25.3137 24.9621 25.3137 25.4545 25.2154C27.3258 24.9204 28.7045 23.4455 28.803 21.7739V20.2007L29 19.709C29 19.5124 29 19.2174 28.9015 19.0208ZM27.5227 21.5773C27.5227 22.6589 26.5379 23.7405 25.3561 23.9371C23.9773 23.9371 22.8939 23.1505 22.5985 21.9706C22.5985 21.7739 22.5985 21.6756 22.5985 21.4789V20.299C22.5985 20.004 22.5985 19.709 22.697 19.4141C22.7955 18.3325 23.8788 17.5458 24.9621 17.5458C25.0606 17.5458 25.1591 17.5458 25.2576 17.5458C26.6364 17.7425 27.5227 18.6274 27.5227 19.9057V21.5773Z" fill="#24A1DE"/>
</svg>
