<svg width="52" height="52" viewBox="0 0 52 52" fill="none" xmlns="http://www.w3.org/2000/svg">
<circle cx="26" cy="26" r="26" fill="#F5EEFC"/>
<path d="M34.2174 25.8592H31.2826C30.7935 25.8592 30.5 26.1549 30.5 26.6479C30.5 26.8451 30.5978 27.0423 30.6957 27.1408C30.7935 27.338 31.087 27.338 31.2826 27.338H32.3587L27.663 32.169C27.0761 31.5775 26.4891 30.9859 25.9022 30.3944L24.8261 29.2113C24.6304 29.0141 24.4348 28.9155 24.2391 28.9155C24.0435 28.9155 23.8478 29.0141 23.6522 29.2113C21.5978 31.3803 19.4457 33.5493 17.3913 35.7183L17.2935 35.8169C17 36.0141 17 36.2113 17 36.507C17.0978 36.7042 17.1957 36.9014 17.4891 37C17.587 37 17.6848 37 17.7826 37C18.0761 37 18.2717 36.8028 18.3696 36.7042C20.3261 34.7324 22.2826 32.7606 24.1413 30.7887C24.1413 30.7887 24.1413 30.7887 24.2391 30.6901C24.2391 30.6901 24.2391 30.6901 24.337 30.7887L27.1739 33.7465C27.5652 34.2394 27.9565 34.2394 28.4457 33.7465L33.5326 28.5211V28.7183C33.5326 29.0141 33.5326 29.4085 33.5326 29.7042C33.5326 30.1972 33.8261 30.493 34.2174 30.493C34.6087 30.493 35 30.1972 35 29.7042C35 28.7183 35 27.7324 35 26.7465C34.9022 26.1549 34.6087 25.8592 34.2174 25.8592Z" fill="#9A50DF"/>
<path d="M23.5543 23C23.2609 23 22.9674 23 22.6739 23C22.4783 23 22.1848 23.0986 22.087 23.2958C21.9891 23.3944 21.8913 23.5915 21.8913 23.7887C21.8913 24.1831 22.2826 24.5775 22.6739 24.5775C22.8696 24.5775 22.9674 24.5775 23.163 24.5775H23.8478V26.2535C23.8478 26.7465 24.2391 27.0423 24.6304 27.0423C25.1196 27.0423 25.413 26.6479 25.413 26.1549V24.5775H26.587C27.2717 24.5775 27.9565 24.5775 28.6413 24.5775C29.1304 24.5775 29.3261 24.2817 29.4239 24.0845C29.5217 23.8873 29.5217 23.5915 29.4239 23.3944C29.2283 23.1972 29.0326 23 28.6413 23C27.9565 23 27.2717 23 26.587 23H25.5109V22.0141H26.0978C26.6848 22.0141 27.2717 22.0141 27.8587 22.0141C29.5217 22.0141 30.8913 20.6338 30.9891 19.0563C30.9891 18.2676 30.6957 17.5775 30.2065 16.9859C29.6196 16.3944 28.7391 16 27.8587 16C27.4674 16 27.0761 16 26.587 16C26 16 25.413 16 24.8261 16C24.2391 16 23.9457 16.2958 23.9457 16.8873V20.4366H23.6522C23.3587 20.4366 23.0652 20.4366 22.7717 20.4366C22.2826 20.4366 21.8913 20.831 21.8913 21.2254C21.8913 21.6197 22.2826 22.0141 22.7717 22.0141H23.9457V23H23.5543ZM25.6087 17.5775H27.7609C28.25 17.5775 28.6413 17.7746 28.9348 18.0704C29.2283 18.3662 29.3261 18.662 29.3261 19.0563C29.3261 19.8451 28.6413 20.5352 27.7609 20.5352H25.6087C25.6087 19.4507 25.6087 18.5634 25.6087 17.5775Z" fill="#9A50DF"/>
</svg>
