<svg width="52" height="52" viewBox="0 0 52 52" fill="none" xmlns="http://www.w3.org/2000/svg">
<circle cx="26" cy="26" r="26" fill="#FAF5F0"/>
<path d="M34.0355 18.4564C30.5624 15.2661 25.1046 15.1664 21.6314 18.257C17.7614 21.6467 17.3644 27.5288 20.6391 31.417L20.5399 31.5167C20.4407 31.6164 20.3414 31.7161 20.2422 31.7161H20.143C19.0514 31.2176 18.0591 31.5167 17.166 32.3142C17.0668 32.4139 16.9675 32.5136 16.9675 32.5136C16.8683 32.6133 16.7691 32.713 16.6698 32.8127C15.7767 33.8097 15.7767 35.3052 16.6698 36.3021C17.166 36.8006 17.7614 37 18.3568 37C18.9522 37 19.5476 36.8006 20.0437 36.3021C20.3414 36.1027 20.5399 35.8036 20.8376 35.5045C21.5322 34.707 21.6314 33.8097 21.3338 32.9124C21.2345 32.713 21.2345 32.6133 21.433 32.5136C21.5322 32.4139 21.5322 32.4139 21.6314 32.3142C23.9138 34.2085 26.4938 34.9064 29.3716 34.4079C31.7532 34.0091 33.6386 32.8127 35.1271 30.9185C38.0048 27.13 37.5087 21.7464 34.0355 18.4564ZM30.8601 27.3294H31.3562C31.7532 27.3294 32.1501 27.3294 32.547 27.3294C32.944 27.3294 33.1424 27.5288 33.1424 27.9276C33.1424 28.9246 33.1424 29.9215 33.1424 30.9185C33.1424 31.0182 33.1424 31.1179 33.0432 31.1179C32.4478 31.7161 31.6539 32.2145 30.8601 32.6133V27.3294ZM32.4478 25.8339C32.0509 25.8339 31.6539 25.8339 31.257 25.8339H30.7608V21.7464C30.7608 20.55 29.967 19.7524 28.7762 19.7524C27.9823 19.7524 27.1885 19.7524 26.3946 19.7524C25.7992 19.7524 25.2038 19.9518 24.9061 20.55C24.6084 20.8491 24.5092 21.2479 24.5092 21.7464V23.3415H22.9215C21.6314 23.3415 20.8376 24.1391 20.8376 25.4352V29.1239C19.1506 26.3324 19.3491 21.9458 22.6238 19.2539C24.1123 17.9579 25.8985 17.3597 27.6846 17.3597C29.8678 17.3597 32.1501 18.257 33.6386 20.1512C36.2186 23.2418 35.7225 27.2297 34.5317 29.1239V27.9276C34.5317 26.7312 33.6386 25.8339 32.4478 25.8339ZM22.2268 26.6315C22.2268 26.2327 22.2268 25.7342 22.2268 25.3355C22.2268 25.0364 22.4253 24.837 22.6238 24.837C22.9215 24.837 23.1199 24.837 23.4176 24.837C23.6161 24.837 23.8146 24.837 24.013 24.837C24.2115 24.837 24.3107 24.837 24.5092 24.837V32.5136C23.7153 32.1149 23.0207 31.7161 22.4253 31.1179C22.3261 31.0182 22.3261 30.9185 22.2268 30.8188C22.2268 29.9215 22.2268 29.0242 22.2268 28.127V26.6315ZM26.0969 33.1118C25.8985 33.1118 25.8985 33.0121 25.8985 32.8127C25.8985 31.6164 25.8985 30.3203 25.8985 29.1239V21.7464C25.8985 21.2479 26.0969 21.1482 26.4938 21.1482C26.8908 21.1482 27.2877 21.1482 27.5854 21.1482C27.8831 21.1482 28.3793 21.1482 28.677 21.1482C29.0739 21.1482 29.2724 21.3476 29.2724 21.7464C29.2724 25.4352 29.2724 29.1239 29.2724 32.9124C29.2724 33.0121 29.2724 33.1118 29.0739 33.1118C28.28 33.3112 27.1885 33.3112 26.0969 33.1118ZM19.8453 34.6073C19.5476 34.9064 19.3491 35.2055 19.0514 35.4049C18.7537 35.7039 18.3568 35.7039 17.9598 35.5045C17.5629 35.3052 17.3644 35.0061 17.3644 34.6073C17.3644 34.5076 17.3644 34.5076 17.4637 34.4079C17.5629 34.2085 17.5629 34.1088 17.6621 34.0091C17.9598 33.71 18.2575 33.4109 18.5552 33.1118C18.9522 32.8127 19.5476 32.8127 19.8453 33.2115C20.143 33.6103 20.2422 34.2085 19.8453 34.6073Z" fill="#CC9963"/>
</svg>
