<svg width="52" height="52" viewBox="0 0 52 52" fill="none" xmlns="http://www.w3.org/2000/svg">
<circle cx="26" cy="26" r="26" fill="#FCEFEE"/>
<path fill-rule="evenodd" clip-rule="evenodd" d="M16 17.7958C16 17.3563 16.3436 17 16.7674 17H35.2326C35.6564 17 36 17.3563 36 17.7958V30.8521C36 31.294 35.8307 31.7178 35.5294 32.0303C35.2281 32.3428 34.8194 32.5183 34.3933 32.5183H30.1966C29.7705 32.5183 29.3618 32.3428 29.0605 32.0303C28.7592 31.7178 28.5899 31.294 28.5899 30.8521V29.0366H23.4101V34.3338C23.4101 34.7757 23.2408 35.1995 22.9395 35.512C22.6382 35.8245 22.2295 36 21.8034 36H17.6067C17.1806 36 16.7719 35.8245 16.4706 35.512C16.1693 35.1995 16 34.7757 16 34.3338V17.7958ZM17.5348 18.5916V34.3338C17.5348 34.3536 17.5424 34.3725 17.5558 34.3865C17.5693 34.4005 17.5876 34.4084 17.6067 34.4084H21.8034C21.8224 34.4084 21.8407 34.4005 21.8542 34.3865C21.8677 34.3725 21.8753 34.3536 21.8753 34.3338V28.2408C21.8753 27.8013 22.2189 27.445 22.6427 27.445H29.3573C29.7811 27.445 30.1247 27.8013 30.1247 28.2408V30.8521C30.1247 30.8719 30.1323 30.8909 30.1458 30.9049C30.1593 30.9188 30.1776 30.9267 30.1966 30.9267H34.3933C34.4124 30.9267 34.4307 30.9188 34.4442 30.9049C34.4576 30.8909 34.4652 30.8719 34.4652 30.8521V18.5916H17.5348Z" fill="#D85D54"/>
<path fill-rule="evenodd" clip-rule="evenodd" d="M16 24.7592C16 24.3196 16.3436 23.9633 16.7674 23.9633H22.6427C23.0665 23.9633 23.4101 24.3196 23.4101 24.7592C23.4101 25.1987 23.0665 25.555 22.6427 25.555H16.7674C16.3436 25.555 16 25.1987 16 24.7592Z" fill="#D85D54"/>
<path fill-rule="evenodd" clip-rule="evenodd" d="M22.6427 17C23.0665 17 23.4101 17.3563 23.4101 17.7958V28.2408C23.4101 28.6804 23.0665 29.0366 22.6427 29.0366C22.2189 29.0366 21.8753 28.6804 21.8753 28.2408V17.7958C21.8753 17.3563 22.2189 17 22.6427 17Z" fill="#D85D54"/>
<path fill-rule="evenodd" clip-rule="evenodd" d="M28.5899 24.7592C28.5899 24.3196 28.9335 23.9633 29.3573 23.9633H35.2326C35.6564 23.9633 36 24.3196 36 24.7592C36 25.1987 35.6564 25.555 35.2326 25.555H29.3573C28.9335 25.555 28.5899 25.1987 28.5899 24.7592Z" fill="#D85D54"/>
<path fill-rule="evenodd" clip-rule="evenodd" d="M29.3573 17C29.7811 17 30.1247 17.3563 30.1247 17.7958L30.1247 28.2408C30.1247 28.6804 29.7811 29.0366 29.3573 29.0366C28.9335 29.0366 28.5899 28.6804 28.5899 28.2408V17.7958C28.5899 17.3563 28.9335 17 29.3573 17Z" fill="#D85D54"/>
</svg>
