<svg width="449" height="322" viewBox="0 0 449 322" fill="none" xmlns="http://www.w3.org/2000/svg">
<g clip-path="url(#clip0_608_2)">
<path d="M173.166 312.183C173.166 312.183 173.8 319.517 172.244 320.267L152.414 320.21C152.414 320.21 152.414 317.9 155.585 317.38C158.755 316.86 164.347 315.012 165.327 310.855C166.307 306.755 173.166 312.183 173.166 312.183Z" fill="#494743"/>
<path d="M230.119 309.353C230.119 309.353 230.695 319.517 229.139 320.325L209.309 320.268C209.309 320.268 209.309 317.958 212.479 317.438C215.65 316.918 221.241 315.07 222.221 310.913C223.143 306.755 230.119 309.353 230.119 309.353Z" fill="#494743"/>
<path d="M230.755 310.624C230.755 310.624 226.835 312.645 225.106 313.049C223.261 313.454 219.687 313.223 219.687 313.223C212.943 295.09 192.018 221.462 192.018 221.462C191.095 241.847 187.464 262.116 183.601 278.459C183.486 278.921 183.371 279.325 183.313 279.787C183.198 280.191 183.14 280.595 183.025 280.942V280.999C178.413 300.287 173.744 313.396 173.744 313.396C173.744 313.396 172.533 314.897 169.19 314.204C165.385 313.396 164.117 311.721 164.117 311.721C166.596 233.242 167.979 189.008 167.979 189.008C167.979 189.008 201.068 171.106 210.118 186.409C219.169 201.654 230.755 310.624 230.755 310.624Z" fill="#494743"/>
<path d="M217.435 196.919C213.169 181.558 212.419 166.948 212.477 154.878C212.535 137.67 214.091 125.543 208.903 123.522C208.903 123.522 192.935 118.844 181.925 116.823C180.196 115.841 178.236 114.859 176.737 114.224C173.278 112.838 159.732 93.0886 157.426 88.4111C155.12 83.6758 151.315 63.1177 151.315 63.1177L146.07 64.7923C146.07 64.7923 144.513 87.8336 145.263 93.8971C146.012 99.9028 162.787 125.774 164.17 128.026C170.108 149.854 164.17 185.427 166.88 193.338C168.263 197.438 194.261 204.888 208.5 203.964C209.191 203.906 209.883 203.848 210.517 203.733C213.861 203.271 216.339 202.174 217.204 200.326C217.723 199.344 217.781 198.247 217.435 196.919Z" fill="#FF9123"/>
<path d="M217.435 196.919C213.169 181.558 212.419 166.948 212.477 154.878C212.535 137.67 214.091 125.543 208.903 123.522C208.903 123.522 192.935 118.844 181.925 116.823C180.196 115.841 178.236 114.859 176.737 114.224C173.278 112.838 159.732 93.0886 157.426 88.4111C155.12 83.6758 151.315 63.1177 151.315 63.1177L146.07 64.7923C146.07 64.7923 144.513 87.8336 145.263 93.8971C146.012 99.9028 162.787 125.774 164.17 128.026C170.108 149.854 164.17 185.427 166.88 193.338C168.263 197.438 194.261 204.888 208.5 203.964C209.191 203.906 209.883 203.848 210.517 203.733C213.861 203.271 216.339 202.174 217.204 200.326C217.723 199.344 217.781 198.247 217.435 196.919Z" fill="url(#paint0_linear_608_2)" fill-opacity="0.5"/>
<path d="M151.377 63.1177C151.377 63.1177 154.374 54.4556 152.184 54.1668C149.993 53.9359 144.517 53.9359 143.883 55.3795C143.191 56.8232 146.131 64.7346 146.131 64.7346L151.377 63.1177Z" fill="#FFB27D"/>
<path d="M94.6522 84.7153L77.0703 74.0898C77.8773 72.8193 79.0879 71.9531 80.4137 71.6066C81.7972 71.2601 83.2384 71.4334 84.5642 72.2418C85.7171 72.9348 87.1583 72.5883 87.85 71.4334L92.6346 63.522L96.7274 66.0051L91.9428 73.9165C91.597 74.494 91.5393 75.1292 91.6546 75.7644C91.8275 76.3419 92.1734 76.9194 92.7499 77.2659C94.0181 78.0743 94.8827 79.287 95.2286 80.6152C95.6321 81.9434 95.4592 83.4449 94.6522 84.7153Z" fill="#FF9123"/>
<path d="M94.6522 84.7153L77.0703 74.0898C77.8773 72.8193 79.0879 71.9531 80.4137 71.6066C81.7972 71.2601 83.2384 71.4334 84.5642 72.2418C85.7171 72.9348 87.1583 72.5883 87.85 71.4334L92.6346 63.522L96.7274 66.0051L91.9428 73.9165C91.597 74.494 91.5393 75.1292 91.6546 75.7644C91.8275 76.3419 92.1734 76.9194 92.7499 77.2659C94.0181 78.0743 94.8827 79.287 95.2286 80.6152C95.6321 81.9434 95.4592 83.4449 94.6522 84.7153Z" fill="url(#paint1_linear_608_2)" fill-opacity="0.5"/>
<path d="M94.6502 84.7155L82.9482 77.6125C80.2388 75.3604 81.5647 73.397 82.9482 73.0505C84.3317 72.704 85.7728 72.8772 87.0987 73.6857C88.2516 74.3787 89.6927 74.0322 90.3844 72.8772L95.169 64.9658L96.7831 65.9475L91.9985 73.8589C91.6526 74.4364 91.595 75.0716 91.7103 75.7069C91.8832 76.2843 92.2291 76.8618 92.8055 77.2083C94.0737 78.0168 94.9384 79.2295 95.2843 80.5576C95.6302 81.9436 95.4572 83.445 94.6502 84.7155Z" fill="#FF9123"/>
<path d="M94.6502 84.7155L82.9482 77.6125C80.2388 75.3604 81.5647 73.397 82.9482 73.0505C84.3317 72.704 85.7728 72.8772 87.0987 73.6857C88.2516 74.3787 89.6927 74.0322 90.3844 72.8772L95.169 64.9658L96.7831 65.9475L91.9985 73.8589C91.6526 74.4364 91.595 75.0716 91.7103 75.7069C91.8832 76.2843 92.2291 76.8618 92.8055 77.2083C94.0737 78.0168 94.9384 79.2295 95.2843 80.5576C95.6302 81.9436 95.4572 83.445 94.6502 84.7155Z" fill="url(#paint2_linear_608_2)" fill-opacity="0.5"/>
<path d="M146.073 33.3779L131.835 51.3374C126.877 59.5375 118.346 63.4644 110.16 63.8108C107.393 63.9263 104.626 63.6376 102.09 62.9446C99.9569 62.3671 97.5358 63.5221 96.2099 65.7165L95.9217 66.1785C95.1147 67.5644 94.4229 68.7194 94.4229 68.7194L91.4254 66.9292C91.4254 66.9292 92.1171 65.7743 92.9818 64.3883C94.4229 61.9629 94.3653 59.0178 92.7512 57.2276C85.8914 49.5472 83.355 36.8428 89.8689 25.9862L99.4957 5.25488L146.073 33.3779Z" fill="#FF9123"/>
<path d="M146.073 33.3779L131.835 51.3374C126.877 59.5375 118.346 63.4644 110.16 63.8108C107.393 63.9263 104.626 63.6376 102.09 62.9446C99.9569 62.3671 97.5358 63.5221 96.2099 65.7165L95.9217 66.1785C95.1147 67.5644 94.4229 68.7194 94.4229 68.7194L91.4254 66.9292C91.4254 66.9292 92.1171 65.7743 92.9818 64.3883C94.4229 61.9629 94.3653 59.0178 92.7512 57.2276C85.8914 49.5472 83.355 36.8428 89.8689 25.9862L99.4957 5.25488L146.073 33.3779Z" fill="url(#paint3_linear_608_2)" fill-opacity="0.5"/>
<path d="M86.5817 40.4808C87.7346 33.7244 84.5064 30.0863 81.0477 26.2172C78.2807 23.0989 75.4561 19.9227 74.822 15.1297C74.1303 9.81693 76.609 4.38866 80.9324 1.67453C84.2182 -0.404378 87.9075 -0.462126 90.9627 1.50129C95.3438 4.33092 96.9578 9.70143 95.632 17.2086C94.7097 22.5214 92.6344 27.0834 92.5191 27.2567L89.8098 25.9862C89.9251 25.6975 97.419 9.1817 89.3486 3.98443C86.5817 2.19426 83.8723 3.34921 82.5465 4.21542C79.2031 6.29433 77.2431 10.6254 77.8196 14.7255C78.3384 18.5945 80.7595 21.3087 83.2959 24.1961C86.8699 28.2384 90.9627 32.8582 89.5216 41.0006L86.5817 40.4808Z" fill="#FF9123"/>
<path d="M86.5817 40.4808C87.7346 33.7244 84.5064 30.0863 81.0477 26.2172C78.2807 23.0989 75.4561 19.9227 74.822 15.1297C74.1303 9.81693 76.609 4.38866 80.9324 1.67453C84.2182 -0.404378 87.9075 -0.462126 90.9627 1.50129C95.3438 4.33092 96.9578 9.70143 95.632 17.2086C94.7097 22.5214 92.6344 27.0834 92.5191 27.2567L89.8098 25.9862C89.9251 25.6975 97.419 9.1817 89.3486 3.98443C86.5817 2.19426 83.8723 3.34921 82.5465 4.21542C79.2031 6.29433 77.2431 10.6254 77.8196 14.7255C78.3384 18.5945 80.7595 21.3087 83.2959 24.1961C86.8699 28.2384 90.9627 32.8582 89.5216 41.0006L86.5817 40.4808Z" fill="url(#paint4_linear_608_2)" fill-opacity="0.5"/>
<path d="M120.478 61.0389C125.897 56.8811 130.624 58.036 135.697 59.3065C139.732 60.2882 143.882 61.3276 148.379 59.653C153.394 57.805 157.026 53.0697 157.429 47.988C157.717 44.0611 156.103 40.8273 152.933 38.9794C148.436 36.4385 142.902 37.4779 136.907 42.0977C132.642 45.3893 129.586 49.3162 129.471 49.4894L131.835 51.3373C131.95 51.1641 143.075 36.8427 151.434 41.578C154.316 43.1949 154.547 46.14 154.432 47.6992C154.143 51.6261 151.203 55.3797 147.341 56.8233C143.709 58.1515 140.193 57.2853 136.446 56.3614C131.2 55.0332 125.263 53.5895 118.691 58.6135L120.478 61.0389Z" fill="#FF9123"/>
<path d="M120.478 61.0389C125.897 56.8811 130.624 58.036 135.697 59.3065C139.732 60.2882 143.882 61.3276 148.379 59.653C153.394 57.805 157.026 53.0697 157.429 47.988C157.717 44.0611 156.103 40.8273 152.933 38.9794C148.436 36.4385 142.902 37.4779 136.907 42.0977C132.642 45.3893 129.586 49.3162 129.471 49.4894L131.835 51.3373C131.95 51.1641 143.075 36.8427 151.434 41.578C154.316 43.1949 154.547 46.14 154.432 47.6992C154.143 51.6261 151.203 55.3797 147.341 56.8233C143.709 58.1515 140.193 57.2853 136.446 56.3614C131.2 55.0332 125.263 53.5895 118.691 58.6135L120.478 61.0389Z" fill="url(#paint5_linear_608_2)" fill-opacity="0.5"/>
<path d="M110.16 63.811C107.393 63.9265 104.626 63.6377 102.09 62.9448C99.9569 62.3673 97.5358 63.5222 96.2099 65.7166L95.9217 66.1786C94.8841 66.6983 94.077 67.3913 93.7312 68.2575L91.4254 66.8716C91.4254 66.8716 92.1171 65.7166 92.9818 64.3307C94.4229 61.9053 94.3653 58.9602 92.7512 57.17C85.8914 49.4896 83.355 36.7851 89.8689 25.9286L99.4957 5.19727L107.22 9.87481C107.163 9.81707 75.9187 52.2615 110.16 63.811Z" fill="#FF9123"/>
<path d="M110.16 63.811C107.393 63.9265 104.626 63.6377 102.09 62.9448C99.9569 62.3673 97.5358 63.5222 96.2099 65.7166L95.9217 66.1786C94.8841 66.6983 94.077 67.3913 93.7312 68.2575L91.4254 66.8716C91.4254 66.8716 92.1171 65.7166 92.9818 64.3307C94.4229 61.9053 94.3653 58.9602 92.7512 57.17C85.8914 49.4896 83.355 36.7851 89.8689 25.9286L99.4957 5.19727L107.22 9.87481C107.163 9.81707 75.9187 52.2615 110.16 63.811Z" fill="url(#paint6_linear_608_2)" fill-opacity="0.5"/>
<path d="M96.2657 70.4517L88.5989 65.7742C87.5613 65.139 87.2154 63.753 87.8495 62.7136C88.4836 61.6741 89.8671 61.3276 90.9047 61.9629L98.5716 66.6404C99.6092 67.2756 99.955 68.6616 99.3209 69.701C98.6868 70.7405 97.361 71.087 96.2657 70.4517Z" fill="#FF9123"/>
<path d="M96.2657 70.4517L88.5989 65.7742C87.5613 65.139 87.2154 63.753 87.8495 62.7136C88.4836 61.6741 89.8671 61.3276 90.9047 61.9629L98.5716 66.6404C99.6092 67.2756 99.955 68.6616 99.3209 69.701C98.6868 70.7405 97.361 71.087 96.2657 70.4517Z" fill="url(#paint7_linear_608_2)" fill-opacity="0.5"/>
<path d="M143.825 55.4374C143.825 55.4374 143.536 58.4403 144.516 58.96C145.496 59.5375 145.785 55.4374 145.785 55.4374C145.785 55.4374 145.842 58.7868 146.592 59.0178C147.341 59.2488 147.745 55.1487 147.745 55.1487C147.745 55.1487 147.802 58.4403 148.321 58.3248C148.84 58.2093 149.128 55.1487 149.128 55.1487C149.128 55.1487 149.359 57.5163 150.05 57.1121C150.742 56.7079 151.376 54.167 151.376 54.167L143.825 55.4374Z" fill="#FFB27D"/>
<path d="M151.375 63.118C151.375 63.118 153.393 61.5011 153.854 60.0574C154.315 58.6137 155.641 56.1305 154.949 55.8418C154.257 55.5531 152.182 58.7292 152.182 58.7292L151.375 63.118Z" fill="#FFB27D"/>
<path d="M186.71 114.455L186.48 115.783C186.48 115.783 185.269 119.884 190.284 121.5C195.3 123.117 199.508 123.868 200.027 120.634C200.084 118.036 199.969 114.051 200.372 111.972C200.488 111.221 200.718 110.413 201.064 109.489L191.149 107.352L188.152 107.237L186.71 114.455Z" fill="#FFB27D"/>
<path d="M188.094 107.237L187.172 112.088C196.568 114.571 200.661 110.355 201.007 109.489L191.092 107.352L188.094 107.237Z" fill="#E2915A"/>
<path d="M202.448 107.468C199.508 113.416 191.553 110.933 188.152 109.547C187.23 109.143 186.596 108.854 186.596 108.854C185.558 108.219 185.443 106.313 185.789 103.945C186.48 99.2677 189.074 92.8 190.285 91.3563C192.13 89.1041 195.069 86.9675 202.621 91.2408C210.23 95.5719 206.137 99.8452 202.448 107.468Z" fill="#FFB27D"/>
<path d="M189.48 84.7153C189.48 84.7153 193.112 85.466 197.839 84.773C201.701 84.2533 205.505 87.0829 206.716 88.2379C206.716 88.0069 206.716 87.6604 206.601 87.3139C206.601 87.3139 207.119 87.9491 207.004 88.5844C207.062 88.6421 207.062 88.6999 207.062 88.6999C207.062 88.6999 207.811 88.7576 208.215 89.1041C208.215 89.1041 207.926 88.9886 207.754 89.1618L207.696 89.2196C212.308 93.3197 210.463 101.866 208.157 103.368C205.448 105.158 200.778 110.009 200.778 110.009C200.778 110.009 200.951 108.219 201.874 106.255C202.854 104.292 201.067 103.772 199.049 102.213C197.032 100.654 199.683 98.5169 198.127 96.3803C196.628 94.2436 189.134 93.1464 189.538 91.9337C187.232 90.2013 189.422 85.004 189.48 84.7153Z" fill="#494743"/>
<path d="M188.499 125.312C188.499 125.312 184.002 155.283 150.28 176.13L147.109 185.312H159.273C159.273 185.312 189.479 159.903 191.496 126.236L188.499 125.312Z" fill="#ED7D2B"/>
<path d="M188.5 125.312V120.808L194.092 122.367L191.555 126.178L188.5 125.312Z" fill="#DB6516"/>
<path d="M186.714 114.456L183.486 117.227C183.486 117.227 182.563 121.097 184.754 125.312L191.326 121.559C191.268 121.559 187.406 119.711 186.714 114.456Z" fill="#F58719"/>
<path d="M191.266 121.558C191.266 121.558 191.9 125.081 193.629 126.813C193.629 126.813 201.008 125.543 203.083 121.963L199.97 117.112C199.97 117.17 199.221 120.461 191.266 121.558Z" fill="#F58719"/>
<path d="M235.537 199.287C235.537 199.287 235.537 205.985 234.96 207.314C234.326 208.642 231.559 212.973 230.291 213.954C229.023 214.878 230.579 208.584 230.176 207.429C229.772 206.274 229.311 209.681 228.677 209.854C228.1 209.97 227.928 206.967 227.812 205.87C227.697 204.773 230.349 201.77 231.098 199.344C231.905 196.861 235.537 199.287 235.537 199.287Z" fill="#FFB27D"/>
<path d="M208.789 123.521C208.789 123.521 215.303 125.312 219.684 135.013C224.296 145.177 236.632 167.814 237.093 170.932C237.554 174.051 236.286 203.213 236.286 203.213C236.286 203.213 230.867 203.444 229.196 200.845C229.196 200.845 227.293 175.263 226.486 173.877C225.679 172.491 204.351 147.082 206.138 140.615C207.982 134.089 208.789 123.521 208.789 123.521Z" fill="#FF9123"/>
<path d="M208.789 123.521C208.789 123.521 215.303 125.312 219.684 135.013C224.296 145.177 236.632 167.814 237.093 170.932C237.554 174.051 236.286 203.213 236.286 203.213C236.286 203.213 230.867 203.444 229.196 200.845C229.196 200.845 227.293 175.263 226.486 173.877C225.679 172.491 204.351 147.082 206.138 140.615C207.982 134.089 208.789 123.521 208.789 123.521Z" fill="url(#paint8_linear_608_2)" fill-opacity="0.5"/>
<path d="M217.266 200.268C215.652 201.654 213.461 202.867 210.579 203.675C209.887 203.906 209.195 203.964 208.561 203.906C196.686 202.693 198.473 156.38 204.238 152.973C210.291 149.392 212.481 154.821 212.481 154.821C212.423 166.89 213.173 181.5 217.439 196.861C217.784 198.247 217.727 199.344 217.266 200.268Z" fill="#FF9123"/>
<path d="M217.266 200.268C215.652 201.654 213.461 202.867 210.579 203.675C209.887 203.906 209.195 203.964 208.561 203.906C196.686 202.693 198.473 156.38 204.238 152.973C210.291 149.392 212.481 154.821 212.481 154.821C212.423 166.89 213.173 181.5 217.439 196.861C217.784 198.247 217.727 199.344 217.266 200.268Z" fill="url(#paint9_linear_608_2)" fill-opacity="0.5"/>
<path d="M183.137 280.883C183.194 280.537 183.31 280.133 183.425 279.729C183.31 280.075 183.194 280.479 183.137 280.883Z" fill="#233862"/>
<path d="M183.715 278.401C187.347 261.134 183.427 214.936 185.156 214.012C186.943 213.088 192.073 221.346 192.073 221.346C191.209 241.789 187.519 262.058 183.715 278.401Z" fill="#5D5B57"/>
<path d="M94.7095 313.626L93.6719 306.062L98.0529 302.366L99.4941 312.414L94.7095 313.626Z" fill="#FFB27D"/>
<path d="M109.351 320.383H91.3652C91.3652 320.383 90.9617 317.669 91.884 315.532C92.8064 313.511 94.1899 312.298 94.3051 310.797C95.458 311.952 96.8415 312.76 99.4356 312.356C99.7815 312.876 101.511 315.648 102.548 316.398C103.759 317.322 109.005 316.976 109.351 320.383Z" fill="#494743"/>
<path d="M105.72 211.471C104.567 220.942 103.587 229.835 102.78 238.151C98.5723 282.443 99.437 309.526 99.437 309.526C99.437 309.526 99.1488 310.335 96.5547 310.335C95.1136 310.335 93.6725 310.046 93.6725 310.046C93.6725 310.046 84.3339 281.115 85.0256 264.657C85.0833 262.693 85.3715 260.903 85.775 259.344C88.0232 250.913 77.4741 218.69 88.9455 206.678C100.417 194.667 106.297 207.082 105.72 211.471Z" fill="#FF9123"/>
<path d="M105.72 211.471C104.567 220.942 103.587 229.835 102.78 238.151C98.5723 282.443 99.437 309.526 99.437 309.526C99.437 309.526 99.1488 310.335 96.5547 310.335C95.1136 310.335 93.6725 310.046 93.6725 310.046C93.6725 310.046 84.3339 281.115 85.0256 264.657C85.0833 262.693 85.3715 260.903 85.775 259.344C88.0232 250.913 77.4741 218.69 88.9455 206.678C100.417 194.667 106.297 207.082 105.72 211.471Z" fill="#494743"/>
<path d="M105.723 211.471C104.57 220.942 103.59 229.835 102.783 238.151L84.971 264.657C85.0286 262.693 85.3168 260.903 85.7204 259.344C87.9685 250.913 77.4194 218.69 88.8909 206.678C100.42 194.667 106.3 207.082 105.723 211.471Z" fill="#5D5B57"/>
<path d="M119.903 121.154C119.903 121.154 119.442 119.017 118.981 117.343C118.75 116.592 120.249 111.799 121.287 111.222C122.324 110.644 125.034 113.878 124.284 116.361C123.881 117.632 123.247 121.789 123.247 121.789L119.903 121.154Z" fill="#FFB27D"/>
<path d="M119.904 121.154C119.904 121.154 119.327 119.884 118.808 119.711C118.29 119.48 117.771 117.458 117.367 116.65C117.367 116.65 117.713 116.13 118.347 116.823C118.751 117.227 119.615 118.44 119.615 118.44L119.904 121.154Z" fill="#FFB27D"/>
<path d="M45.7125 128.43C45.5972 128.661 45.4242 129.066 45.3089 129.47C45.3089 129.354 45.3089 129.239 45.3089 129.181C45.3089 128.43 42.4843 124.273 41.2738 124.042C40.1209 123.811 38.4491 127.68 39.8903 129.816C40.6397 130.914 42.4843 134.667 42.4843 134.667L45.4819 133.108C45.4819 133.108 45.6548 131.722 46.0583 131.376C46.4618 131.029 46.4042 128.892 46.5195 128.026C46.6348 128.026 46.116 127.622 45.7125 128.43Z" fill="#FFB27D"/>
<path d="M64.6203 311.374C64.3897 308.949 64.332 302.539 64.332 302.539C64.332 302.539 70.846 300.46 70.5577 301.904C69.4048 308.891 69.6931 312.414 69.6931 312.414L67.0414 313.973L64.6203 311.374Z" fill="#FFB27D"/>
<path d="M100.301 211.009C100.301 211.009 75.2255 279.844 70.268 309.757C70.268 309.757 69.1151 310.566 66.9822 310.277C64.5611 309.988 63.927 308.314 63.927 308.314C63.927 308.314 59.373 272.51 68.4233 260.094C74.5914 251.548 65.7716 214.07 80.183 211.067C94.5943 208.006 100.301 211.009 100.301 211.009Z" fill="#FF9123"/>
<path d="M100.301 211.009C100.301 211.009 75.2255 279.844 70.268 309.757C70.268 309.757 69.1151 310.566 66.9822 310.277C64.5611 309.988 63.927 308.314 63.927 308.314C63.927 308.314 59.373 272.51 68.4233 260.094C74.5914 251.548 65.7716 214.07 80.183 211.067C94.5943 208.006 100.301 211.009 100.301 211.009Z" fill="#494743"/>
<path d="M95.8659 144.773C95.8659 144.715 95.8659 144.715 95.8659 144.657C95.693 144.08 95.5777 143.445 95.4048 142.867C94.886 141.077 94.2519 139.345 93.5601 137.785C93.1566 136.919 92.7531 136.111 92.3496 135.36C92.2919 135.245 92.2343 135.129 92.1766 135.014C91.1966 133.397 90.2167 132.242 89.2943 131.895C87.6803 131.26 85.8356 131.433 84.5674 131.722C84.8556 131.318 85.4898 131.145 85.4898 131.145C84.6827 131.145 83.0686 132.184 83.0686 132.184C71.5396 129.585 72.1737 145.986 72.9807 149.681C73.7877 153.377 70.0408 155.167 64.7951 158.979C54.7648 166.197 54.9377 173.878 54.9377 173.878C55.053 173.935 55.1106 173.935 55.2259 173.993C55.6294 173.011 56.4941 171.106 57.3588 170.702C57.3588 170.817 56.6094 173.242 56.3788 174.571C57.8776 175.437 60.0105 176.707 62.3163 178.209C65.3715 180.172 68.7726 182.424 71.4819 184.272C71.3666 183.522 71.2513 182.482 71.4243 181.847L72.289 184.503L72.4042 184.85C74.1336 186.005 75.5171 186.986 76.2088 187.448C76.2665 187.506 76.3241 187.564 76.3818 187.564C76.6124 187.679 76.67 187.795 76.67 187.795C76.4394 186.871 77.477 184.388 79.1488 181.269C79.264 181.038 79.3793 180.807 79.4946 180.634C80.0134 179.652 80.6475 178.613 81.2816 177.516C81.5122 177.112 81.7428 176.765 82.031 176.361C82.204 176.072 82.4345 175.726 82.6651 175.437C83.1839 174.686 83.6451 173.935 84.1639 173.127C85.4897 171.164 86.9309 169.142 88.3144 167.352C90.332 164.696 92.3496 162.444 94.0213 160.942C94.0789 160.827 94.1366 160.711 94.1942 160.596C94.4824 159.961 94.6554 159.325 94.8283 158.632C94.886 158.401 94.9436 158.228 94.9436 157.997C95.3471 155.803 95.3471 153.608 95.3471 153.089C95.4624 155.225 95.4048 156.842 95.2895 158.055C95.2318 158.344 95.2318 158.575 95.1742 158.806C95.0589 159.325 95.0012 159.73 94.886 160.134C95.1742 159.787 95.4048 159.441 95.6353 159.037C95.7506 158.748 95.9236 158.517 96.0389 158.17C97.4224 154.763 97.0188 149.624 95.8659 144.773Z" fill="#494743"/>
<path d="M93.7299 161.346C93.7875 161.346 90.5017 163.714 87.7347 163.425C85.1407 163.137 83.0078 160.076 83.0078 160.076C84.0454 159.73 84.1031 158.17 83.1808 151.934H83.6996L92.0005 152.338C92.0005 152.338 92.1734 154.936 92.5193 157.304C92.8075 159.325 93.2111 161.173 93.7299 161.346Z" fill="#FFB27D"/>
<path d="M91.9445 152.338C91.9445 152.338 92.1175 154.936 92.4633 157.304C87.9093 157.824 84.9118 154.07 83.5859 151.934L91.9445 152.338Z" fill="#ED975D"/>
<path d="M82.6617 151.183C82.6617 151.183 79.7218 147.776 78.6842 144.657C77.9348 142.405 77.8195 133.801 86.524 133.743C86.524 133.743 89.0604 133.628 91.5968 134.84C93.6144 135.822 96.6696 138.132 94.8249 145.986L94.4214 148.584L82.6617 151.183Z" fill="#494743"/>
<path d="M106.817 209.681C106.817 209.681 95.9799 216.149 82.4332 212.799C82.2603 212.742 71.25 211.009 71.25 211.009C71.4229 210.489 72.8641 201.943 73.037 201.481C75.4581 195.244 79.8392 161.462 83.5285 159.787C84.4508 160.827 87.1601 161.52 89.4659 161.289C92.1176 161.058 92.9823 159.903 92.7517 158.69C95.6916 160.076 97.9398 161.346 97.9398 161.346C100.591 165.389 106.817 209.681 106.817 209.681Z" fill="white"/>
<path d="M93.7871 154.359C93.7871 154.359 83.1227 156.149 82.1427 149.45C81.1627 142.752 79.0875 138.536 85.8897 137.092C92.6342 135.706 94.3635 138.016 95.2282 140.153C96.0929 142.347 96.5541 153.724 93.7871 154.359Z" fill="#FFB27D"/>
<path d="M90.7346 136.226C90.7346 136.226 88.9476 144.484 84.6242 146.332C80.3008 148.18 78.168 147.256 78.168 147.256C78.168 147.256 81.2232 144.022 81.2232 139.114C81.2232 139.056 87.9677 132.819 90.7346 136.226Z" fill="#494743"/>
<path d="M90.0977 136.977C90.0977 136.977 92.5188 138.421 93.3258 140.038C94.1328 141.655 94.8822 145.12 95.8622 144.831C95.8622 144.831 97.3033 139.172 94.3634 136.515C91.2506 133.743 90.0977 136.977 90.0977 136.977Z" fill="#494743"/>
<path d="M123.302 121.327C122.841 121.154 122.207 120.808 121.4 120.75C120.65 120.692 119.728 120.923 119.728 120.923C119.728 120.923 116.73 139.691 116.5 140.673C116.269 141.655 103.587 155.976 100.186 155.918C97.0734 155.86 93.4417 158.228 92.75 158.69C92.75 158.69 99.9557 173.935 100.302 176.765C100.705 179.883 104.394 227.814 104.394 227.814C104.394 227.814 104.164 230.066 108.314 228.853C112.465 227.641 113.502 226.659 113.502 226.659C113.502 226.659 109.698 188.892 108.891 177.169C108.775 175.61 108.545 174.109 108.141 172.78C107.795 171.51 108.084 170.124 108.833 169.027C114.079 161.808 122.38 150.086 122.841 147.603C123.59 143.964 123.302 121.327 123.302 121.327Z" fill="#FF9123"/>
<path d="M123.302 121.327C122.841 121.154 122.207 120.808 121.4 120.75C120.65 120.692 119.728 120.923 119.728 120.923C119.728 120.923 116.73 139.691 116.5 140.673C116.269 141.655 103.587 155.976 100.186 155.918C97.0734 155.86 93.4417 158.228 92.75 158.69C92.75 158.69 99.9557 173.935 100.302 176.765C100.705 179.883 104.394 227.814 104.394 227.814C104.394 227.814 104.164 230.066 108.314 228.853C112.465 227.641 113.502 226.659 113.502 226.659C113.502 226.659 109.698 188.892 108.891 177.169C108.775 175.61 108.545 174.109 108.141 172.78C107.795 171.51 108.084 170.124 108.833 169.027C114.079 161.808 122.38 150.086 122.841 147.603C123.59 143.964 123.302 121.327 123.302 121.327Z" fill="url(#paint10_linear_608_2)" fill-opacity="0.5"/>
<path d="M79.5498 320.383H61.5644C61.5644 320.383 61.1609 317.669 62.0832 315.532C63.0056 313.511 64.3891 312.298 64.5044 310.797C65.6573 311.952 67.0408 312.76 69.6348 312.356C69.9807 312.876 71.71 315.648 72.7476 316.398C73.9582 317.322 79.2039 316.976 79.5498 320.383Z" fill="#494743"/>
<path d="M91.8865 178.266C91.31 174.513 83.5279 159.556 83.5279 159.556C83.5279 159.556 78.628 158.112 75.3999 159.267C72.1718 160.422 55.5699 151.01 54.9934 150.143C54.4746 149.277 45.5396 132.646 45.5396 132.646C45.5396 132.646 44.7902 132.242 43.6373 132.819C42.4844 133.454 42.4844 134.609 42.4844 134.609C42.4844 134.609 49.3442 155.572 51.1888 158.805C52.2841 160.769 61.565 167.583 68.7707 172.665C70.1542 173.647 70.8459 175.321 70.6153 176.938C69.6354 184.099 69.4048 188.141 68.3095 200.441C67.3872 210.663 67.0413 230.355 67.0413 230.355C67.0413 230.355 75.1117 233.126 80.6456 233.531C86.1796 233.877 87.3902 228.045 87.3902 228.045C87.3902 228.045 92.5206 182.078 91.8865 178.266Z" fill="#FF9123"/>
<path d="M91.8865 178.266C91.31 174.513 83.5279 159.556 83.5279 159.556C83.5279 159.556 78.628 158.112 75.3999 159.267C72.1718 160.422 55.5699 151.01 54.9934 150.143C54.4746 149.277 45.5396 132.646 45.5396 132.646C45.5396 132.646 44.7902 132.242 43.6373 132.819C42.4844 133.454 42.4844 134.609 42.4844 134.609C42.4844 134.609 49.3442 155.572 51.1888 158.805C52.2841 160.769 61.565 167.583 68.7707 172.665C70.1542 173.647 70.8459 175.321 70.6153 176.938C69.6354 184.099 69.4048 188.141 68.3095 200.441C67.3872 210.663 67.0413 230.355 67.0413 230.355C67.0413 230.355 75.1117 233.126 80.6456 233.531C86.1796 233.877 87.3902 228.045 87.3902 228.045C87.3902 228.045 92.5206 182.078 91.8865 178.266Z" fill="url(#paint11_linear_608_2)" fill-opacity="0.5"/>
<path d="M298.083 149.681C298.083 149.681 301.369 155.167 295.143 158.575C295.143 158.575 299.927 160.307 301.599 159.672C301.599 159.672 301.196 160.076 300.85 160.249C300.85 160.249 305.346 161.693 307.594 160.884C309.842 160.076 314.685 138.247 301.369 137.15C301.369 137.15 290.877 133.397 288.687 145.119C286.496 156.842 282.461 155.687 282.461 155.687C282.461 155.687 283.441 156.496 283.96 156.669C283.96 156.669 284.824 156.611 285.113 156.265C285.113 156.265 284.767 156.842 284.536 157.015C284.536 157.015 288.802 158.632 291.396 157.708C293.99 156.784 298.025 152.222 298.083 149.681Z" fill="#494743"/>
<path d="M284.77 322H301.717C301.717 322 302.121 319.401 301.256 317.438C300.391 315.532 299.066 314.377 298.95 312.934C297.855 314.031 296.529 314.781 294.108 314.435C293.82 314.897 292.148 317.553 291.168 318.246C290.015 319.055 285.115 318.766 284.77 322Z" fill="#494743"/>
<path d="M298.779 315.532C298.779 315.532 297.337 315.994 295.839 316.11C293.187 316.34 292.783 315.532 292.783 315.532C292.783 315.532 290.132 291.856 281.543 246.639C280.332 240.114 279.813 236.476 279.352 230.701C279.237 228.969 279.064 227.005 278.949 224.753C278.545 218.632 279.467 208.41 284.021 205.696C286.097 204.484 288.921 204.83 292.726 207.833C293.014 208.064 293.36 208.295 293.648 208.584C304.774 218.228 300.22 245.889 300.681 258.939C300.738 261.076 300.969 262.866 301.43 264.079C302.007 265.638 303.217 267.775 303.505 269.796C305.811 286.716 298.779 315.532 298.779 315.532Z" fill="#494743"/>
<path d="M300.681 258.997L279.352 230.759C279.237 229.026 279.064 227.063 278.949 224.811C278.545 218.689 279.467 208.468 284.021 205.754L292.726 207.891C293.014 208.122 293.36 208.353 293.648 208.641C304.774 218.285 300.22 245.946 300.681 258.997Z" fill="#5D5B57"/>
<path d="M360.918 286.254L353.885 270.835C353.885 270.835 351.349 271.528 349.966 273.145C348.582 274.705 347.602 274.416 344.547 272.279C345.7 274.069 345.873 275.167 346.564 277.534C347.141 277.592 350.369 280.71 353.655 281.577C354.981 281.923 357.863 287.294 360.918 286.254Z" fill="#494743"/>
<path d="M287.017 212.511C287.017 212.511 302.177 265.407 307.769 268.814C313.361 272.221 342.587 276.899 348.524 279.44C348.524 279.44 349.274 278.4 348.812 276.206C348.697 275.686 347.89 273.954 347.89 273.954C347.89 273.954 329.732 260.268 317.742 258.882C314.802 258.535 323.794 213.146 303.734 211.356C285.403 209.681 287.017 212.511 287.017 212.511Z" fill="#494743"/>
<path d="M265.343 125.774C265.343 125.774 265.746 123.753 266.207 122.193C266.438 121.501 264.997 116.996 264.017 116.419C263.037 115.841 260.5 118.902 261.192 121.27C261.538 122.482 262.172 126.409 262.172 126.409L265.343 125.774Z" fill="#FFB27D"/>
<path d="M265.344 125.774C265.344 125.774 265.863 124.619 266.381 124.388C266.843 124.215 267.361 122.251 267.707 121.501C267.707 121.501 267.361 120.981 266.785 121.616C266.439 122.02 265.632 123.175 265.632 123.175L265.344 125.774Z" fill="#FFB27D"/>
<path d="M335.267 132.646C335.382 132.877 335.498 133.223 335.671 133.628C335.671 133.512 335.671 133.454 335.671 133.339C335.671 132.646 338.38 128.719 339.475 128.488C340.57 128.257 342.127 131.895 340.743 133.916C340.052 134.956 338.322 138.536 338.322 138.536L335.44 137.035C335.44 137.035 335.267 135.764 334.864 135.418C334.46 135.071 334.518 133.108 334.402 132.242C334.46 132.242 334.921 131.837 335.267 132.646Z" fill="#FFB27D"/>
<path d="M290.016 163.656C289.959 163.656 293.072 165.909 295.666 165.562C298.144 165.273 300.104 162.444 300.104 162.386C299.124 162.04 299.067 160.596 299.931 154.706H299.47L291.63 155.11C291.63 155.11 291.458 157.535 291.112 159.787C290.881 161.751 290.478 163.541 290.016 163.656Z" fill="#FFB27D"/>
<path d="M291.687 155.167C291.687 155.167 291.514 157.593 291.168 159.845C295.434 160.365 298.258 156.784 299.527 154.763L291.687 155.167Z" fill="#ED975D"/>
<path d="M300.448 154.07C300.448 154.07 303.215 150.894 304.195 147.949C304.887 145.87 305.002 137.67 296.817 137.612C296.817 137.612 294.453 137.497 292.032 138.652C290.13 139.576 287.247 141.77 288.977 149.162L289.38 151.645L300.448 154.07Z" fill="#494743"/>
<path d="M280.215 210.489C280.215 210.489 287.882 215.34 300.737 212.222C300.91 212.164 308 211.067 308 211.067C307.827 210.605 300.333 198.189 300.16 197.727C297.912 191.837 303.158 163.771 299.699 162.212C298.834 163.194 296.298 163.829 294.107 163.656C291.629 163.425 290.764 162.328 290.995 161.173C288.228 162.501 286.095 163.714 286.095 163.714C283.558 167.467 280.215 210.489 280.215 210.489Z" fill="#FFB27D"/>
<path d="M289.956 157.073C289.956 157.073 300.044 158.748 300.967 152.453C301.889 146.159 303.849 142.116 297.45 140.788C291.052 139.46 289.438 141.654 288.631 143.676C287.766 145.755 287.362 156.496 289.956 157.073Z" fill="#FFB27D"/>
<path d="M292.84 139.98C292.84 139.98 294.512 147.776 298.604 149.508C302.697 151.241 304.715 150.375 304.715 150.375C304.715 150.375 301.833 147.314 301.833 142.694C301.833 142.694 295.434 136.746 292.84 139.98Z" fill="#494743"/>
<path d="M293.474 140.673C293.474 140.673 291.168 142.001 290.418 143.56C289.669 145.061 288.977 148.353 287.997 148.122C287.997 148.122 286.671 142.809 289.438 140.326C292.378 137.612 293.474 140.673 293.474 140.673Z" fill="#494743"/>
<path d="M337.629 138.478C337.629 138.478 331.115 158.228 329.386 161.289C328.348 163.137 316.646 170.413 309.844 175.206C309.786 175.264 309.671 175.379 309.556 175.495C307.884 178.093 302.581 194.378 303.849 197.265C309.152 209.508 312.784 214.243 314.11 217.708C314.744 219.44 313.879 221.346 312.15 221.981C309.959 222.732 306.789 223.714 302.984 224.407C302.235 224.522 301.543 224.638 300.736 224.753C290.302 226.081 283.269 223.656 279.638 221.808C277.966 220.942 276.928 219.152 277.044 217.246C277.274 213.377 279.177 209.508 280.041 200.211C280.675 193.165 274.623 182.367 274.853 178.613C274.969 177.112 276.121 175.321 276.756 174.166C277.851 172.145 278.485 170.297 277.736 169.258C272.778 162.444 262.056 153.031 261.595 150.663C260.961 147.198 261.249 125.889 261.249 125.889C261.652 125.774 262.287 125.427 263.036 125.312C263.728 125.254 264.592 125.485 264.592 125.485C264.592 125.485 267.417 143.156 267.648 144.08C267.878 145.004 279.811 158.517 283.039 158.459C285.979 158.401 290.072 160.653 290.706 161.115C290.706 161.115 288.112 165.735 287.42 172.03C286.959 176.419 289.899 174.455 291.743 171.452C294.222 167.41 299.237 161.577 299.237 161.577C299.237 161.577 303.33 160.538 306.328 161.635C309.383 162.732 325.062 153.839 325.581 153.031C326.1 152.222 334.516 136.515 334.516 136.515C334.516 136.515 335.208 136.111 336.303 136.688C337.629 137.323 337.629 138.478 337.629 138.478Z" fill="#FF9123"/>
<path d="M337.629 138.478C337.629 138.478 331.115 158.228 329.386 161.289C328.348 163.137 316.646 170.413 309.844 175.206C309.786 175.264 309.671 175.379 309.556 175.495C307.884 178.093 302.581 194.378 303.849 197.265C309.152 209.508 312.784 214.243 314.11 217.708C314.744 219.44 313.879 221.346 312.15 221.981C309.959 222.732 306.789 223.714 302.984 224.407C302.235 224.522 301.543 224.638 300.736 224.753C290.302 226.081 283.269 223.656 279.638 221.808C277.966 220.942 276.928 219.152 277.044 217.246C277.274 213.377 279.177 209.508 280.041 200.211C280.675 193.165 274.623 182.367 274.853 178.613C274.969 177.112 276.121 175.321 276.756 174.166C277.851 172.145 278.485 170.297 277.736 169.258C272.778 162.444 262.056 153.031 261.595 150.663C260.961 147.198 261.249 125.889 261.249 125.889C261.652 125.774 262.287 125.427 263.036 125.312C263.728 125.254 264.592 125.485 264.592 125.485C264.592 125.485 267.417 143.156 267.648 144.08C267.878 145.004 279.811 158.517 283.039 158.459C285.979 158.401 290.072 160.653 290.706 161.115C290.706 161.115 288.112 165.735 287.42 172.03C286.959 176.419 289.899 174.455 291.743 171.452C294.222 167.41 299.237 161.577 299.237 161.577C299.237 161.577 303.33 160.538 306.328 161.635C309.383 162.732 325.062 153.839 325.581 153.031C326.1 152.222 334.516 136.515 334.516 136.515C334.516 136.515 335.208 136.111 336.303 136.688C337.629 137.323 337.629 138.478 337.629 138.478Z" fill="url(#paint12_linear_608_2)" fill-opacity="0.5"/>
<path d="M312.265 221.981C310.075 222.732 306.904 223.714 303.1 224.407C299.526 219.44 293.415 213.204 294.972 201.654C296.586 189.758 308.23 177.227 309.671 175.552C307.999 178.151 302.696 194.436 303.964 197.323C309.268 209.566 312.899 214.301 314.225 217.766C314.859 219.44 313.995 221.404 312.265 221.981Z" fill="#FF9123"/>
<path d="M312.265 221.981C310.075 222.732 306.904 223.714 303.1 224.407C299.526 219.44 293.415 213.204 294.972 201.654C296.586 189.758 308.23 177.227 309.671 175.552C307.999 178.151 302.696 194.436 303.964 197.323C309.268 209.566 312.899 214.301 314.225 217.766C314.859 219.44 313.995 221.404 312.265 221.981Z" fill="url(#paint13_linear_608_2)" fill-opacity="0.5"/>
<path d="M276.93 174.224C278.026 172.203 278.66 170.355 277.91 169.315C272.953 162.501 262.231 153.088 261.77 150.721C262.807 153.262 275.835 160.884 279.467 164.176C283.098 167.41 277.103 174.051 276.93 174.224Z" fill="#ED7D2B"/>
<g opacity="0.5">
<path d="M59.0863 80.0957C59.0863 80.0957 61.5074 83.4451 61.2768 87.2564C61.1039 90.0861 58.5675 92.9157 58.3945 93.0312L62.3721 95.1678C62.3721 95.1678 65.312 89.9128 64.332 85.5818C64.0438 84.2536 62.6026 82.1169 61.565 81.1352C60.4121 80.038 59.0863 80.0957 59.0863 80.0957Z" fill="#6BB7BF"/>
<path d="M50.9583 80.4422L48.4219 74.8984C48.4219 74.8984 60.1239 75.3027 64.0438 84.8888C64.1014 84.831 55.8581 78.9985 50.9583 80.4422Z" fill="#86D1CD"/>
<path d="M6.6872 222.039C6.6872 222.039 3.92022 219.902 3.17083 216.784C2.65202 214.416 3.97786 211.471 4.09316 211.356L0.346205 210.605C0.346205 210.605 -0.749058 215.571 1.09559 218.921C1.67205 219.96 3.34377 221.346 4.43903 221.866C5.59194 222.385 6.6872 222.039 6.6872 222.039Z" fill="#6BB7BF"/>
<path d="M13.2011 219.729L16.6021 223.656C16.6021 223.656 6.97536 226.197 1.44141 219.382C1.44141 219.382 9.56941 222.154 13.2011 219.729Z" fill="#86D1CD"/>
<path d="M435.337 240.229C435.337 240.229 435.106 236.534 441.966 234.801C445.021 233.993 451.939 235.436 447.558 242.193C443.004 249.238 439.026 246.697 439.026 246.697C439.026 246.697 448.48 239.306 444.675 235.898C440.525 232.145 438.911 239.537 438.911 239.537C438.911 239.537 437.239 239.479 435.337 240.229Z" fill="#F1A34F"/>
<path d="M437.817 247.101C437.817 247.101 435.223 245.716 436.261 242.597L439.95 243.232C439.95 243.232 438.509 246.582 442.025 246.986C442.025 246.986 438.682 247.794 437.817 247.101Z" fill="#DB7714"/>
<path d="M196.628 50.2404C196.628 50.2404 200.49 44.6967 206.37 48.6235L209.944 45.1587C209.944 45.1587 206.601 42.6178 198.876 47.1798C193.803 50.1827 196.628 50.2404 196.628 50.2404Z" fill="#5685D8"/>
<path d="M192.824 55.6688C192.824 55.6688 192.075 49.3166 202.681 45.332C202.681 45.332 198.819 47.1799 197.666 53.5322L192.824 55.6688Z" fill="#739AF0"/>
<path d="M235.539 21.944C235.539 21.944 238.71 19.9806 238.998 17.5552C238.998 17.5552 242.053 17.7284 242.745 18.7101C242.745 18.7101 241.361 22.6947 239.69 23.4454C239.69 23.4454 235.943 23.6764 235.539 21.944Z" fill="#F99746"/>
<path d="M272.027 84.5999C272.027 84.5999 275.371 82.4633 275.774 79.9224C275.774 79.9224 279.06 80.0956 279.752 81.1928C279.752 81.1928 278.253 85.4661 276.466 86.2746C276.466 86.1591 272.489 86.4478 272.027 84.5999Z" fill="#86D1CD"/>
</g>
<path d="M337.571 182.251C337.571 182.251 335.611 179.883 334.573 179.537C333.536 179.19 331.518 177.631 331.23 178.266C330.942 178.901 332.613 179.883 332.498 180.634C332.44 181.385 327.31 182.54 327.368 183.348C327.425 184.156 328.578 186.004 330.481 185.831C332.44 185.6 337.34 184.445 338.32 184.965C339.358 185.485 337.571 182.251 337.571 182.251Z" fill="#FFB27D"/>
<path d="M389.971 170.702C387.089 174.571 383.746 177.631 380.287 179.999C369.334 187.679 357.402 188.834 357.402 188.834C354.577 187.91 345.757 186.986 340.627 186.12C338.379 185.774 336.822 185.427 336.707 185.138L336.822 180.634C336.822 180.634 355.845 179.652 358.958 178.151C363.916 173.878 368.297 168.334 371.179 163.945C373.6 160.249 376.309 157.593 380.748 155.976C387.204 153.666 398.906 158.748 389.971 170.702Z" fill="#FF9123"/>
<path d="M389.971 170.702C387.089 174.571 383.746 177.631 380.287 179.999C369.334 187.679 357.402 188.834 357.402 188.834C354.577 187.91 345.757 186.986 340.627 186.12C338.379 185.774 336.822 185.427 336.707 185.138L336.822 180.634C336.822 180.634 355.845 179.652 358.958 178.151C363.916 173.878 368.297 168.334 371.179 163.945C373.6 160.249 376.309 157.593 380.748 155.976C387.204 153.666 398.906 158.748 389.971 170.702Z" fill="url(#paint14_linear_608_2)" fill-opacity="0.5"/>
<path d="M381.265 177.227L380.285 180.056C369.332 187.679 357.4 188.834 357.4 188.834C355.094 188.834 345.755 186.986 340.625 186.12C340.856 186.12 354.748 187.217 357.803 186.928C360.916 186.582 375.328 174.108 375.328 174.108L381.265 177.227Z" fill="#FF9123"/>
<path d="M381.265 177.227L380.285 180.056C369.332 187.679 357.4 188.834 357.4 188.834C355.094 188.834 345.755 186.986 340.625 186.12C340.856 186.12 354.748 187.217 357.803 186.928C360.916 186.582 375.328 174.108 375.328 174.108L381.265 177.227Z" fill="url(#paint15_linear_608_2)" fill-opacity="0.5"/>
<path d="M368.871 320.383H389.854C391.353 319.344 389.45 309.353 389.45 309.353C389.45 309.353 383.744 307.159 382.706 311.606C381.726 316.052 375.385 317.438 372.042 317.958C369.793 318.362 369.102 319.633 368.871 320.383Z" fill="#494743"/>
<path d="M400 320.383H420.983C422.482 319.344 420.579 309.353 420.579 309.353C420.579 309.353 414.872 307.159 413.835 311.606C412.855 316.052 406.514 317.438 403.17 317.958C400.98 318.362 400.231 319.633 400 320.383Z" fill="#494743"/>
<path d="M374.523 218.401C374.523 218.401 375.446 230.182 376.599 244.387C378.097 263.675 382.19 311.432 382.19 311.432C382.19 311.432 384.842 313.684 390.779 312.472C390.779 312.472 395.795 296.014 397.293 277.188C397.293 276.899 397.351 276.553 397.351 276.264C398.734 257.092 400.925 216.784 400.925 216.784L374.523 218.401Z" fill="#494743"/>
<path d="M374.176 214.359C374.176 214.359 375.444 230.239 376.539 244.445L397.234 277.246C397.234 276.957 397.292 276.611 397.292 276.322C398.675 257.15 400.866 216.842 400.866 216.842L374.176 214.359Z" fill="#5D5B57"/>
<path d="M380.23 214.358C380.23 214.358 395.218 251.779 400.003 265.927C403.404 276.033 413.031 311.432 413.031 311.432C413.031 311.432 417.239 312.702 420.755 310.219C420.755 310.219 424.329 274.012 417.124 263.79C413.261 258.362 416.144 207.487 400.579 207.082C385.015 206.678 380.23 214.358 380.23 214.358Z" fill="#494743"/>
<path d="M386.915 159.21C389.221 160.422 391.411 160.48 393.371 160.076C395.158 159.729 396.657 158.921 397.752 158.228C398.847 157.535 399.539 156.9 399.539 156.9C399.539 156.9 399.481 156.784 399.308 156.553C398.617 155.398 396.599 151.24 397.521 144.542C397.521 144.426 396.887 144.599 395.85 144.83C392.852 145.523 386.915 147.256 386.626 147.314C386.626 147.314 386.569 148.699 386.281 151.24C386.281 151.471 386.223 151.702 386.223 151.933C386.165 152.222 386.165 152.569 386.108 152.857C385.877 155.456 386.915 159.21 386.915 159.21Z" fill="#FFB27D"/>
<path d="M386.281 151.241C390.72 152.28 397.349 145.697 397.349 145.697C396.888 145.35 396.369 145.062 395.85 144.831C392.853 145.524 386.915 147.256 386.627 147.314C386.627 147.314 386.569 148.7 386.281 151.241Z" fill="#ED975D"/>
<path d="M384.783 146.909C384.783 146.909 386.628 147.545 388.934 147.891C392.335 148.353 396.831 148.064 398.215 143.964C400.578 137.035 403.633 132.877 396.658 129.989C392.911 128.488 390.548 128.372 388.934 128.95C387.55 129.47 386.686 130.451 386.052 131.433C384.668 133.627 381.959 145.697 384.783 146.909Z" fill="#FFB27D"/>
<path d="M380.574 132.011C384.609 134.898 390.201 132.068 391.93 132.819C393.66 133.57 393.948 136.515 394.006 137.439C394.063 138.363 394.179 139.171 396.542 138.594C396.945 138.478 397.234 138.536 397.407 138.652C398.387 139.229 397.118 142.059 396.773 142.636C396.773 142.636 396.254 144.657 397.407 145.639C397.58 145.755 399.943 146.794 405.592 138.074C406.515 136.688 407.322 133.628 405.938 130.625C404.555 127.68 398.79 124.792 393.89 123.233C392.046 122.656 390.72 122.656 389.625 123.06C387.838 123.695 386.915 125.37 385.993 127.102C384.379 129.989 380.574 132.011 380.574 132.011Z" fill="#A9453D"/>
<path d="M406.516 216.957C406.516 216.957 404.556 217.361 402.077 217.823C399.656 218.228 396.774 218.632 394.698 218.632C384.149 218.574 375.329 215.456 375.329 215.456C373.369 215.456 372.447 212.395 372.101 208.122C371.871 205.234 371.928 201.769 372.101 198.305C372.159 197.207 372.217 196.052 372.274 194.955C372.39 192.761 372.562 190.682 372.735 188.892C372.851 187.159 373.024 185.658 373.081 184.503C373.081 184.503 372.793 176.303 372.908 169.084C372.966 163.887 375.906 159.152 376.598 158.401C378.731 156.149 384.841 154.763 386.051 154.532C386.167 154.532 386.167 154.532 386.167 154.532C391.182 157.362 397.926 153.55 397.926 153.55C398.099 153.55 398.215 153.608 398.388 153.666C398.906 153.55 403.979 154.301 405.132 154.936C408.072 156.553 409.744 174.224 409.744 174.224C410.205 186.235 409.628 205.465 410.551 212.857C411.012 215.167 408.648 216.495 406.516 216.957Z" fill="#FF9123"/>
<path d="M406.516 216.957C406.516 216.957 404.556 217.361 402.077 217.823C399.656 218.228 396.774 218.632 394.698 218.632C384.149 218.574 375.329 215.456 375.329 215.456C373.369 215.456 372.447 212.395 372.101 208.122C371.871 205.234 371.928 201.769 372.101 198.305C372.159 197.207 372.217 196.052 372.274 194.955C372.39 192.761 372.562 190.682 372.735 188.892C372.851 187.159 373.024 185.658 373.081 184.503C373.081 184.503 372.793 176.303 372.908 169.084C372.966 163.887 375.906 159.152 376.598 158.401C378.731 156.149 384.841 154.763 386.051 154.532C386.167 154.532 386.167 154.532 386.167 154.532C391.182 157.362 397.926 153.55 397.926 153.55C398.099 153.55 398.215 153.608 398.388 153.666C398.906 153.55 403.979 154.301 405.132 154.936C408.072 156.553 409.744 174.224 409.744 174.224C410.205 186.235 409.628 205.465 410.551 212.857C411.012 215.167 408.648 216.495 406.516 216.957Z" fill="url(#paint16_linear_608_2)" fill-opacity="0.5"/>
<path d="M398.445 153.55C398.445 153.55 390.951 161.288 385.59 159.672C385.59 159.672 384.899 158.632 387.262 158.286C389.741 157.997 392.335 158.112 398.445 153.55Z" fill="#FF9123"/>
<path d="M398.445 153.55C398.445 153.55 390.951 161.288 385.59 159.672C385.59 159.672 384.899 158.632 387.262 158.286C389.741 157.997 392.335 158.112 398.445 153.55Z" fill="url(#paint17_linear_608_2)" fill-opacity="0.5"/>
<path d="M402.538 182.828C402.538 182.828 391.643 201.019 385.475 204.252C381.325 206.447 375.445 207.544 372.101 208.064C371.871 205.176 371.928 201.712 372.101 198.247C376.54 197.727 383.227 196.861 383.227 196.861L402.538 182.828Z" fill="#FF9123"/>
<path d="M402.538 182.828C402.538 182.828 391.643 201.019 385.475 204.252C381.325 206.447 375.445 207.544 372.101 208.064C371.871 205.176 371.928 201.712 372.101 198.247C376.54 197.727 383.227 196.861 383.227 196.861L402.538 182.828Z" fill="url(#paint18_linear_608_2)" fill-opacity="0.5"/>
<path d="M388.242 173.646L382.42 194.609C382.42 194.609 375.618 195.013 372.332 194.898C372.447 192.703 372.447 192.645 372.62 190.797C372.62 190.855 380.46 186.755 388.242 173.646Z" fill="#FF9123"/>
<path d="M388.242 173.646L382.42 194.609C382.42 194.609 375.618 195.013 372.332 194.898C372.447 192.703 372.447 192.645 372.62 190.797C372.62 190.855 380.46 186.755 388.242 173.646Z" fill="url(#paint19_linear_608_2)" fill-opacity="0.5"/>
<path d="M353.368 196.168C353.368 196.168 351.408 193.801 350.37 193.454C349.333 193.108 347.315 191.548 347.027 192.184C346.739 192.819 348.41 193.801 348.295 194.551C348.237 195.302 343.107 196.457 343.165 197.266C343.222 198.074 344.375 199.922 346.277 199.749C348.237 199.518 353.137 198.363 354.117 198.882C355.155 199.402 353.368 196.168 353.368 196.168Z" fill="#FFB27D"/>
<path d="M410.433 167.121C410.433 167.121 410.779 178.209 385.53 200.499L380.458 191.375C379.535 190.855 396.771 153.666 401.729 153.955C411.355 154.532 410.433 167.121 410.433 167.121Z" fill="#FF9123"/>
<path d="M410.433 167.121C410.433 167.121 410.779 178.209 385.53 200.499L380.458 191.375C379.535 190.855 396.771 153.666 401.729 153.955C411.355 154.532 410.433 167.121 410.433 167.121Z" fill="url(#paint20_linear_608_2)" fill-opacity="0.5"/>
<path d="M383.514 190.278C383.514 190.278 354.806 193.569 353.768 194.147C352.731 194.724 350.425 196.919 351.174 199.748C351.174 199.748 366.047 201.596 374.233 201.596C381.265 201.539 385.877 200.441 385.877 200.441L383.514 190.278Z" fill="#FF9123"/>
<path d="M383.514 190.278C383.514 190.278 354.806 193.569 353.768 194.147C352.731 194.724 350.425 196.919 351.174 199.748C351.174 199.748 366.047 201.596 374.233 201.596C381.265 201.539 385.877 200.441 385.877 200.441L383.514 190.278Z" fill="url(#paint21_linear_608_2)" fill-opacity="0.5"/>
<g opacity="0.8">
<path fill-rule="evenodd" clip-rule="evenodd" d="M116.87 27.5208C116.203 27.1285 115.347 27.3463 114.96 28.0074C114.573 28.6685 114.801 29.5224 115.468 29.9148C116.136 30.3072 116.991 30.0893 117.378 29.4282C117.765 28.7672 117.538 27.9132 116.87 27.5208ZM106.105 45.903C105.437 45.5106 104.582 45.7285 104.195 46.3895C103.808 47.0506 104.035 47.9046 104.703 48.2969C105.37 48.6893 106.226 48.4714 106.613 47.8104C107 47.1493 106.772 46.2953 106.105 45.903ZM118.842 42.5853C119.229 41.9243 120.084 41.7064 120.752 42.0988C121.419 42.4911 121.647 43.3451 121.259 44.0062C120.872 44.6672 120.017 44.8851 119.35 44.4927C118.682 44.1004 118.455 43.2464 118.842 42.5853ZM102.187 31.1888C101.52 30.7964 100.664 31.0143 100.277 31.6754C99.8902 32.3364 100.118 33.1904 100.785 33.5828C101.453 33.9751 102.308 33.7573 102.695 33.0962C103.082 32.4351 102.855 31.5812 102.187 31.1888Z" fill="#472A02" fill-opacity="0.35"/>
<path fill-rule="evenodd" clip-rule="evenodd" d="M116.831 27.1278C116.163 26.7354 115.308 26.9533 114.921 27.6143C114.534 28.2754 114.761 29.1294 115.429 29.5217C116.097 29.9141 116.952 29.6962 117.339 29.0352C117.726 28.3741 117.499 27.5201 116.831 27.1278ZM106.066 45.5099C105.398 45.1175 104.543 45.3354 104.156 45.9965C103.769 46.6575 103.996 47.5115 104.664 47.9038C105.331 48.2962 106.186 48.0784 106.574 47.4173C106.961 46.7562 106.733 45.9022 106.066 45.5099ZM118.803 42.1923C119.19 41.5312 120.045 41.3133 120.713 41.7057C121.38 42.0981 121.608 42.952 121.22 43.6131C120.833 44.2742 119.978 44.492 119.311 44.0997C118.643 43.7073 118.416 42.8533 118.803 42.1923ZM102.148 30.7957C101.48 30.4034 100.625 30.6212 100.238 31.2823C99.8511 31.9434 100.078 32.7973 100.746 33.1897C101.414 33.582 102.269 33.3642 102.656 32.7031C103.043 32.0421 102.816 31.1881 102.148 30.7957Z" fill="white"/>
<path fill-rule="evenodd" clip-rule="evenodd" d="M122.614 34.9428C122.416 34.1979 121.65 33.7481 120.904 33.9381C120.159 34.1281 119.715 34.886 119.913 35.6309C120.111 36.3758 120.877 36.8256 121.623 36.6356C122.369 36.4456 122.812 35.6877 122.614 34.9428ZM101.875 40.2264C101.676 39.4815 100.911 39.0317 100.165 39.2217C99.4193 39.4117 98.9755 40.1696 99.1738 40.9145C99.3721 41.6594 100.138 42.1092 100.883 41.9192C101.629 41.7292 102.073 40.9713 101.875 40.2264ZM113.328 46.8758C114.073 46.6858 114.839 47.1356 115.037 47.8805C115.236 48.6253 114.792 49.3832 114.046 49.5732C113.3 49.7633 112.535 49.3134 112.336 48.5686C112.138 47.8237 112.582 47.0658 113.328 46.8758ZM109.522 27.1678C109.324 26.423 108.559 25.9731 107.813 26.1632C107.067 26.3532 106.623 27.1111 106.821 27.8559C107.02 28.6008 107.785 29.0506 108.531 28.8606C109.277 28.6706 109.721 27.9127 109.522 27.1678Z" fill="#472A02" fill-opacity="0.35"/>
<path fill-rule="evenodd" clip-rule="evenodd" d="M122.544 34.5995C122.345 33.8547 121.58 33.4048 120.834 33.5949C120.088 33.7849 119.644 34.5428 119.843 35.2876C120.041 36.0325 120.807 36.4823 121.552 36.2923C122.298 36.1023 122.742 35.3444 122.544 34.5995ZM101.804 39.8831C101.606 39.1383 100.841 38.6884 100.095 38.8785C99.349 39.0685 98.9052 39.8264 99.1035 40.5712C99.3018 41.3161 100.067 41.7659 100.813 41.5759C101.559 41.3859 102.003 40.628 101.804 39.8831ZM113.257 46.5325C114.003 46.3425 114.769 46.7923 114.967 47.5372C115.165 48.2821 114.721 49.04 113.976 49.23C113.23 49.42 112.464 48.9702 112.266 48.2253C112.068 47.4804 112.511 46.7225 113.257 46.5325ZM109.452 26.8246C109.254 26.0797 108.488 25.6299 107.743 25.8199C106.997 26.0099 106.553 26.7678 106.751 27.5127C106.949 28.2576 107.715 28.7074 108.461 28.5174C109.207 28.3273 109.65 27.5695 109.452 26.8246Z" fill="white"/>
<path d="M105.585 34.9299L107.421 41.4967C107.467 41.6693 107.632 41.7661 107.805 41.7224L119.634 38.7653C119.807 38.7217 119.902 38.5595 119.856 38.3868L119.132 35.7806C119.085 35.6079 118.921 35.5112 118.748 35.5548L109.948 37.7481C109.867 37.4459 108.902 34.1168 108.902 34.1168C108.856 33.9441 108.691 33.8474 108.518 33.891L105.791 34.5784C105.634 34.595 105.539 34.7573 105.585 34.9299Z" fill="#472A02" fill-opacity="0.35"/>
<path d="M105.749 34.3215L107.585 40.8882C107.631 41.0609 107.796 41.1577 107.969 41.114L119.798 38.1569C119.971 38.1133 120.066 37.9511 120.02 37.7784L119.296 35.1722C119.249 34.9995 119.085 34.9028 118.912 34.9464L110.112 37.1397C110.031 36.8375 109.066 33.5084 109.066 33.5084C109.02 33.3357 108.855 33.239 108.682 33.2826L105.955 33.97C105.798 33.9866 105.703 34.1489 105.749 34.3215Z" fill="white"/>
</g>
</g>
<defs>
<linearGradient id="paint0_linear_608_2" x1="165.59" y1="73.082" x2="240.409" y2="166.393" gradientUnits="userSpaceOnUse">
<stop stop-color="#FFCA00"/>
<stop offset="0.791667" stop-color="#FF9000"/>
</linearGradient>
<linearGradient id="paint1_linear_608_2" x1="82.6299" y1="65.0205" x2="91.1977" y2="84.2599" gradientUnits="userSpaceOnUse">
<stop stop-color="#FFCA00"/>
<stop offset="0.791667" stop-color="#FF9000"/>
</linearGradient>
<linearGradient id="paint2_linear_608_2" x1="85.7328" y1="66.3623" x2="94.6171" y2="83.1431" gradientUnits="userSpaceOnUse">
<stop stop-color="#FFCA00"/>
<stop offset="0.791667" stop-color="#FF9000"/>
</linearGradient>
<linearGradient id="paint3_linear_608_2" x1="103.058" y1="9.74227" x2="128.392" y2="67.7091" gradientUnits="userSpaceOnUse">
<stop stop-color="#FFCA00"/>
<stop offset="0.791667" stop-color="#FF9000"/>
</linearGradient>
<linearGradient id="paint4_linear_608_2" x1="80.7526" y1="2.96483" x2="102.416" y2="30.356" gradientUnits="userSpaceOnUse">
<stop stop-color="#FFCA00"/>
<stop offset="0.791667" stop-color="#FF9000"/>
</linearGradient>
<linearGradient id="paint5_linear_608_2" x1="129.657" y1="39.2823" x2="135.637" y2="63.2591" gradientUnits="userSpaceOnUse">
<stop stop-color="#FFCA00"/>
<stop offset="0.791667" stop-color="#FF9000"/>
</linearGradient>
<linearGradient id="paint6_linear_608_2" x1="92.9004" y1="9.65607" x2="127.093" y2="41.2491" gradientUnits="userSpaceOnUse">
<stop stop-color="#FFCA00"/>
<stop offset="0.791667" stop-color="#FF9000"/>
</linearGradient>
<linearGradient id="paint7_linear_608_2" x1="90.9557" y1="62.2894" x2="93.7736" y2="71.3402" gradientUnits="userSpaceOnUse">
<stop stop-color="#FFCA00"/>
<stop offset="0.791667" stop-color="#FF9000"/>
</linearGradient>
<linearGradient id="paint8_linear_608_2" x1="214.845" y1="129.157" x2="258.128" y2="170.132" gradientUnits="userSpaceOnUse">
<stop stop-color="#FFCA00"/>
<stop offset="0.791667" stop-color="#FF9000"/>
</linearGradient>
<linearGradient id="paint9_linear_608_2" x1="204.816" y1="155.44" x2="232.716" y2="178.628" gradientUnits="userSpaceOnUse">
<stop stop-color="#FFCA00"/>
<stop offset="0.791667" stop-color="#FF9000"/>
</linearGradient>
<linearGradient id="paint10_linear_608_2" x1="101.406" y1="128.41" x2="156.367" y2="165.956" gradientUnits="userSpaceOnUse">
<stop stop-color="#FFCA00"/>
<stop offset="0.791667" stop-color="#FF9000"/>
</linearGradient>
<linearGradient id="paint11_linear_608_2" x1="56.472" y1="139.652" x2="110.645" y2="203.851" gradientUnits="userSpaceOnUse">
<stop stop-color="#FFCA00"/>
<stop offset="0.791667" stop-color="#FF9000"/>
</linearGradient>
<linearGradient id="paint12_linear_608_2" x1="282.805" y1="132.362" x2="328.181" y2="216.486" gradientUnits="userSpaceOnUse">
<stop stop-color="#FFCA00"/>
<stop offset="0.791667" stop-color="#FF9000"/>
</linearGradient>
<linearGradient id="paint13_linear_608_2" x1="300.297" y1="179.007" x2="326.863" y2="204.955" gradientUnits="userSpaceOnUse">
<stop stop-color="#FFCA00"/>
<stop offset="0.791667" stop-color="#FF9000"/>
</linearGradient>
<linearGradient id="paint14_linear_608_2" x1="352.688" y1="157.794" x2="361.061" y2="192.086" gradientUnits="userSpaceOnUse">
<stop stop-color="#FFCA00"/>
<stop offset="0.791667" stop-color="#FF9000"/>
</linearGradient>
<linearGradient id="paint15_linear_608_2" x1="352.119" y1="175.15" x2="354.464" y2="190.818" gradientUnits="userSpaceOnUse">
<stop stop-color="#FFCA00"/>
<stop offset="0.791667" stop-color="#FF9000"/>
</linearGradient>
<linearGradient id="paint16_linear_608_2" x1="382.883" y1="158.152" x2="416.067" y2="205.876" gradientUnits="userSpaceOnUse">
<stop stop-color="#FFCA00"/>
<stop offset="0.791667" stop-color="#FF9000"/>
</linearGradient>
<linearGradient id="paint17_linear_608_2" x1="389.159" y1="153.999" x2="390.5" y2="160.628" gradientUnits="userSpaceOnUse">
<stop stop-color="#FFCA00"/>
<stop offset="0.791667" stop-color="#FF9000"/>
</linearGradient>
<linearGradient id="paint18_linear_608_2" x1="380.601" y1="184.612" x2="388.982" y2="209.209" gradientUnits="userSpaceOnUse">
<stop stop-color="#FFCA00"/>
<stop offset="0.791667" stop-color="#FF9000"/>
</linearGradient>
<linearGradient id="paint19_linear_608_2" x1="376.832" y1="175.151" x2="386.624" y2="192.883" gradientUnits="userSpaceOnUse">
<stop stop-color="#FFCA00"/>
<stop offset="0.791667" stop-color="#FF9000"/>
</linearGradient>
<linearGradient id="paint20_linear_608_2" x1="388.917" y1="157.244" x2="411.908" y2="193.162" gradientUnits="userSpaceOnUse">
<stop stop-color="#FFCA00"/>
<stop offset="0.791667" stop-color="#FF9000"/>
</linearGradient>
<linearGradient id="paint21_linear_608_2" x1="360.884" y1="191.078" x2="362.506" y2="203.173" gradientUnits="userSpaceOnUse">
<stop stop-color="#FFCA00"/>
<stop offset="0.791667" stop-color="#FF9000"/>
</linearGradient>
<clipPath id="clip0_608_2">
<rect width="449" height="322" fill="white"/>
</clipPath>
</defs>
</svg>
