<svg width="410" height="196" viewBox="0 0 410 196" fill="none" xmlns="http://www.w3.org/2000/svg">
<path d="M16.514 195.327H319.829C320.767 195.327 321.529 194.721 321.529 193.976C321.529 193.231 320.767 192.626 319.829 192.626H16.514C15.5759 192.626 14.8137 193.231 14.8137 193.976C14.8137 194.721 15.5759 195.327 16.514 195.327Z" fill="#231600" fill-opacity="0.65"/>
<path d="M1.70073 195.327H8.52139C9.45947 195.327 10.2217 194.721 10.2217 193.976C10.2217 193.231 9.45947 192.626 8.52139 192.626H1.70073C0.76265 192.626 0.0004673 193.231 0.0004673 193.976C0.0004673 194.721 0.76265 195.327 1.70073 195.327Z" fill="#231600" fill-opacity="0.65"/>
<path d="M329.483 195.327H378.908C379.846 195.327 380.608 194.721 380.608 193.976C380.608 193.231 379.846 192.626 378.908 192.626H329.483C328.545 192.626 327.782 193.231 327.782 193.976C327.782 194.721 328.545 195.327 329.483 195.327Z" fill="#231600" fill-opacity="0.65"/>
<g opacity="0.95" clip-path="url(#clip0_464_5222)">
<path opacity="0.5" d="M329.48 175.517C330.413 175.362 331.425 175.051 332.358 174.741C333.291 174.43 334.225 174.042 335.158 173.576C336.947 172.721 338.736 171.712 340.448 170.547C343.792 168.294 346.904 165.653 349.859 162.857C355.693 157.188 360.671 150.741 365.494 143.984C367.905 140.644 370.239 137.305 372.806 133.965C375.372 130.703 378.25 127.519 381.673 125.111C383.384 123.868 385.329 122.936 387.351 122.237C389.374 121.538 391.474 121.15 393.574 121.072C397.774 120.839 401.897 121.616 405.942 122.703C406.097 122.781 406.175 122.859 406.097 123.014C406.019 123.169 405.941 123.247 405.786 123.169C401.819 122.315 397.696 121.694 393.652 122.082C391.629 122.315 389.685 122.703 387.818 123.402C385.951 124.101 384.162 125.111 382.606 126.276C379.339 128.606 376.773 131.79 374.284 134.975C371.794 138.237 369.539 141.654 367.127 144.994C364.716 148.334 362.305 151.673 359.738 154.935C359.116 155.712 358.416 156.489 357.716 157.343C357.016 158.12 356.393 158.896 355.615 159.673L353.515 161.925L351.26 164.1C348.226 166.974 344.959 169.537 341.381 171.712C339.592 172.799 337.725 173.731 335.781 174.508C333.836 175.284 331.814 175.906 329.636 176.061C329.48 176.061 329.247 175.906 329.247 175.75C329.091 175.673 329.247 175.517 329.48 175.517Z" fill="white"/>
<path d="M188.478 126.903C188.478 126.903 185.211 118.422 181.509 119.22C177.734 120.017 173.597 122.916 173.597 122.916L167.499 131.107C167.499 131.107 184.485 137.775 190.511 133.934C190.511 133.934 207.86 136.905 229.855 133.354C226.661 126.685 224.774 119.944 223.685 114.726C212.506 120.959 200.528 125.671 188.478 126.903Z" fill="#FDB39B"/>
<path d="M280.524 65.292C280.524 65.292 255.625 96.6048 223.612 114.653C224.701 119.872 226.589 126.54 229.783 133.281C246.406 130.527 265.57 124.076 281.903 109.652L280.524 65.292Z" fill="white"/>
<path d="M280.524 65.292C280.524 65.292 255.625 96.6048 223.612 114.653C224.701 119.872 226.589 126.54 229.783 133.281C246.406 130.527 265.57 124.076 281.903 109.652L280.524 65.292Z" fill="url(#paint0_linear_464_5222)"/>
<path d="M94.0361 69.4233L95.5605 110.884C99.916 112.406 104.126 113.566 108.119 114.435C110.587 106.462 116.104 96.6046 120.605 89.2838C104.054 83.4851 94.0361 69.4233 94.0361 69.4233Z" fill="#EB7D0F"/>
<path d="M94.0361 69.4233L95.5605 110.884C99.916 112.406 104.126 113.566 108.119 114.435C110.587 106.462 116.104 96.6046 120.605 89.2838C104.054 83.4851 94.0361 69.4233 94.0361 69.4233Z" fill="url(#paint1_linear_464_5222)" fill-opacity="0.5"/>
<path d="M176.355 68.771C153.707 93.1254 135.414 94.575 120.605 89.3562C116.104 96.677 110.66 106.462 108.119 114.508C168.515 127.772 182.743 72.3952 182.743 72.3952L176.355 68.771Z" fill="#FFBE9D"/>
<path d="M180.928 66.1615C180.928 66.1615 183.542 63.3347 188.333 64.277C193.124 65.1468 197.479 66.8139 200.455 64.277C203.432 61.7401 204.52 65.1468 204.52 65.1468L195.519 71.9602L180.928 66.1615Z" fill="#F5B493"/>
<path d="M175.557 70.9452C175.557 70.9452 177.371 63.4795 182.743 64.4942C188.115 65.509 200.31 72.1775 203.504 70.9452C206.626 69.713 210.691 66.8137 212.724 67.8285L209.094 72.3224C209.094 72.3224 218.458 66.9587 220.055 70.2204L204.521 78.9909C204.448 78.9909 181.654 76.7439 175.557 70.9452Z" fill="#FFBE9D"/>
<path d="M15.71 194.602C15.71 194.602 8.01528 96.0246 64.2737 61.8125C64.2737 61.8125 80.0261 51.4474 99.6258 71.5252C119.226 91.6031 112.91 112.478 96.4318 131.976C79.9535 151.547 63.2574 176.046 67.25 195.544C62.6041 197.791 53.5302 200.4 41.6252 200.4C29.575 200.545 20.4284 196.849 15.71 194.602Z" fill="#FF9123"/>
<path d="M15.71 194.602C15.71 194.602 8.01528 96.0246 64.2737 61.8125C64.2737 61.8125 80.0261 51.4474 99.6258 71.5252C119.226 91.6031 112.91 112.478 96.4318 131.976C79.9535 151.547 63.2574 176.046 67.25 195.544C62.6041 197.791 53.5302 200.4 41.6252 200.4C29.575 200.545 20.4284 196.849 15.71 194.602Z" fill="url(#paint2_linear_464_5222)" fill-opacity="0.5"/>
<path d="M92.6568 31.877C92.6568 33.1817 73.9282 59.783 73.9282 59.783C73.9282 59.783 77.2674 66.379 93.3102 71.7427L107.175 43.3293L92.6568 31.877Z" fill="#F5B493"/>
<path d="M85.2524 123.061C85.2524 123.061 120.822 152.779 159.151 139.805C161.546 139.007 164.159 139.152 166.337 140.312L177.371 146.111C182.017 148.575 187.752 146.98 190.438 142.486C191.962 139.95 193.269 136.978 193.559 134.223L171.999 125.525L173.596 122.916C173.596 122.916 163.071 122.046 160.312 129.584C160.312 129.584 140.204 137.92 106.377 100.736C106.304 100.664 90.9872 113.711 85.2524 123.061Z" fill="#FFBE9D"/>
<path d="M83.3653 122.916C83.2201 122.916 83.0749 122.844 82.9297 122.771C67.9033 112.623 60.8619 96.3147 60.7893 96.1697C60.6441 95.7348 60.7893 95.2999 61.2249 95.1549C61.6604 95.01 62.096 95.155 62.2411 95.5899C62.3137 95.7348 69.2099 111.681 83.8008 121.539C84.1638 121.756 84.2364 122.264 84.0186 122.626C83.8734 122.844 83.583 122.916 83.3653 122.916Z" fill="black" fill-opacity="0.1"/>
<path d="M105.651 100.374C105.36 100.374 105.143 100.229 104.997 100.011C104.925 99.9386 100.352 92.8353 91.6405 77.2514C88.9547 72.54 85.5429 69.4957 81.26 68.3359C74.2912 66.3789 67.5402 70.148 67.4676 70.148C67.1046 70.3655 66.5965 70.2205 66.3787 69.8581C66.1609 69.4957 66.3061 68.9883 66.6691 68.7708C66.9594 68.6259 73.4201 64.7118 81.0422 66.8138C85.688 68.1185 90.1161 71.3077 92.9472 76.4541C101.658 91.9655 106.159 99.0688 106.231 99.1413C106.449 99.5037 106.377 100.011 106.014 100.229C105.941 100.301 105.796 100.374 105.651 100.374Z" fill="black" fill-opacity="0.1"/>
<path d="M107.393 16.6558C107.393 16.6558 114.071 31.9497 114.507 39.9954C114.943 48.041 116.685 53.2598 107.393 54.8545C98.1013 56.4491 90.2615 51.8826 86.0511 43.837C86.0511 43.837 79.3727 31.5148 80.8971 26.441C82.349 21.3672 107.393 16.6558 107.393 16.6558Z" fill="#FFBE9D"/>
<path d="M89.1726 38.0381L89.6807 37.8206C90.3341 37.5307 90.6244 36.7334 90.3341 36.081C89.0274 33.5441 86.4867 27.7455 89.7533 26.4408C94.0362 24.7012 110.877 21.2945 114.507 15.2784C117.991 9.55218 114.87 2.15889 110.224 0.0568709C109.934 -0.0880956 109.571 0.056872 109.353 0.346805L108.99 1.07164C108.7 1.57902 107.974 1.50653 107.829 0.926668C107.683 0.419285 106.958 0.274321 106.667 0.781703C105.578 2.59378 102.529 5.49311 94.4718 6.94278C83.0023 9.04479 75.4528 13.6837 75.235 21.5844C75.235 22.0918 74.6543 22.3817 74.2913 22.0918C73.4202 21.5844 72.1136 21.3669 70.2988 22.8891C67.1774 25.4985 68.4114 32.3844 75.3076 38.0381C75.6706 38.328 75.598 38.8354 75.3076 39.0529C74.0736 39.8502 72.1862 41.8072 77.0498 44.4166C82.0586 47.0985 85.7608 46.881 87.2126 46.6636C87.5756 46.5911 87.7934 46.2287 87.7208 45.9388L86.1963 38.9804C86.1237 38.618 86.4141 38.1831 86.7771 38.1831H89.1726V38.0381Z" fill="#413E3A"/>
<path d="M89.463 39.4879C89.463 39.4879 86.9223 29.7027 82.5668 32.457C78.2114 35.2114 84.8172 43.402 88.3742 43.7644L89.463 39.4879Z" fill="#FFBE9D"/>
<path d="M309.706 197.574C309.706 197.574 308.617 164.739 285.533 123.858C278.346 111.029 275.733 96.1695 277.983 81.6729L280.524 65.3642C280.524 65.3642 312.174 54.6366 347.308 64.9292C347.308 64.9292 396.017 95.0098 363.424 197.646C358.342 199.966 349.05 203.445 336.855 203.517C324.442 203.517 314.787 199.893 309.706 197.574Z" fill="white"/>
<path d="M309.706 197.574C309.706 197.574 308.617 164.739 285.533 123.858C278.346 111.029 275.733 96.1695 277.983 81.6729L280.524 65.3642C280.524 65.3642 312.174 54.6366 347.308 64.9292C347.308 64.9292 396.017 95.0098 363.424 197.646C358.342 199.966 349.05 203.445 336.855 203.517C324.442 203.517 314.787 199.893 309.706 197.574Z" fill="url(#paint3_linear_464_5222)"/>
<path d="M285.968 44.4891L294.171 64.2045C294.679 65.4367 295.841 66.3065 297.147 66.5965C301.866 67.3938 313.335 68.6985 320.885 63.7696C321.756 63.1898 321.974 61.9575 321.393 61.0877L306.221 39.3428L285.968 44.4891Z" fill="#FDB39B"/>
<path d="M306.221 137.05C305.059 137.34 304.551 138.645 305.059 139.659L328.797 185.179C329.232 185.976 330.104 186.339 330.902 186.121L408.648 163.724C409.591 163.434 410.172 162.419 409.882 161.477L396.525 115.233C396.234 114.29 395.291 113.71 394.275 114L306.221 137.05Z" fill="white" fill-opacity="0.25"/>
<path d="M311.23 131.759C310.141 132.049 309.487 133.208 309.85 134.296L328.869 185.904C329.232 186.846 330.249 187.353 331.192 187.063L408.647 164.739C409.591 164.449 410.172 163.506 409.954 162.492L399.211 112.841C398.993 111.826 397.976 111.173 396.888 111.391L311.23 131.759Z" fill="white" fill-opacity="0.25"/>
<path d="M317.981 126.54C316.601 126.757 315.73 128.062 316.021 129.367L328.942 185.034C329.232 186.338 330.612 187.136 331.918 186.773L408.212 164.811C409.446 164.449 410.172 163.216 409.809 161.984L398.049 116.537C397.759 115.377 396.597 114.58 395.436 114.798L317.981 126.54Z" fill="#7F787F"/>
<path d="M379.684 147.778C385.637 103.128 351.156 68.771 351.156 68.771L330.612 92.618C346.219 111.971 353.624 129.729 356.963 143.719C361.464 142.414 372.28 140.384 379.684 147.778Z" fill="white"/>
<path d="M379.684 147.778C385.637 103.128 351.156 68.771 351.156 68.771L330.612 92.618C346.219 111.971 353.624 129.729 356.963 143.719C361.464 142.414 372.28 140.384 379.684 147.778Z" fill="url(#paint4_linear_464_5222)"/>
<path d="M357.035 144.226C356.818 144.226 356.6 144.081 356.527 143.791C352.317 126.468 343.533 109.362 330.249 92.9079C330.104 92.6904 330.104 92.328 330.322 92.1831C330.539 91.9656 330.902 92.0381 331.048 92.2555C344.404 108.854 353.261 126.105 357.471 143.574C357.544 143.864 357.398 144.153 357.108 144.226H357.035Z" fill="black" fill-opacity="0.2"/>
<path d="M357.036 143.719C360.157 156.693 359.867 166.334 359.359 170.973C359.213 172.712 357.762 174.089 356.019 174.162C354.059 174.307 351.301 174.452 348.905 174.597C346.219 174.742 343.316 173.075 341.356 171.697C340.34 170.973 339.033 172.06 339.614 173.219C341.065 176.119 344.84 178.656 347.381 180.178C348.325 180.758 348.107 182.135 347.091 182.425L336.057 185.542C354.132 202.575 366.11 183.512 366.11 183.512C374.095 171.19 378.232 159.158 379.757 147.778C372.28 140.385 361.464 142.414 357.036 143.719Z" fill="#FDB39B"/>
<path d="M294.462 14.3358C294.099 14.6257 279.871 42.5318 279.871 42.5318L295.986 50.2875L313.408 25.8606C313.408 25.9331 300.197 8.97202 294.462 14.3358Z" fill="#FDB39B"/>
<path d="M306.076 28.8326L298.019 42.1695C297.873 42.3869 297.728 42.5319 297.583 42.7493C296.639 43.6191 293.373 46.2285 290.832 42.6769C288.654 39.705 286.622 36.9507 284.517 35.7909C283.283 35.1386 281.686 35.646 281.032 36.9507C279.726 39.5601 277.112 44.9238 275.515 49.9977C275.08 51.3023 275.733 52.6071 277.04 53.1144C280.306 54.4191 286.767 56.8111 292.502 57.6084C293.445 57.7534 294.389 57.3185 294.897 56.5936C297.365 53.2594 304.262 43.8366 306.657 41.4446C308.835 39.2701 312.9 40.0675 314.715 40.5748C315.441 40.7923 316.167 40.6473 316.747 40.2849C318.635 39.1977 321.829 36.3708 318.852 31.6594C318.126 30.4997 318.489 28.905 319.651 28.1802C321.756 26.803 324.006 24.2661 321.829 20.1346C319.651 15.9305 315.804 15.5681 313.118 15.8581C311.956 16.003 310.795 15.4232 310.287 14.3359C310.069 13.8285 309.706 13.4661 308.98 13.3211C307.601 13.0312 306.657 11.799 306.947 10.4218C307.383 8.02987 307.093 4.98557 303.245 2.88355C296.276 -0.958058 290.179 5.2755 288.654 10.5668C287.13 15.7856 294.897 19.5547 299.761 20.1346C303.318 20.5695 305.35 24.4836 306.076 26.5131C306.512 27.3104 306.439 28.1802 306.076 28.8326Z" fill="#413E3A"/>
<path d="M303.608 46.3736C303.608 46.3736 306.73 37.3132 310.65 37.6756C314.57 38.038 317.691 41.9521 312.828 46.3736C306.73 51.8823 303.608 46.3736 303.608 46.3736Z" fill="#FDB39B"/>
<g opacity="0.8">
<path fill-rule="evenodd" clip-rule="evenodd" d="M71.7345 78.1452C71.1873 78.4925 71.023 79.2125 71.3674 79.7532C71.7119 80.294 72.4346 80.4508 72.9817 80.1035C73.5289 79.7561 73.6932 79.0362 73.3488 78.4955C73.0043 77.9547 72.2816 77.7979 71.7345 78.1452ZM81.3118 93.1816C80.7646 93.5289 80.6003 94.2489 80.9448 94.7896C81.2892 95.3304 82.0119 95.4872 82.559 95.1399C83.1062 94.7925 83.2705 94.0726 82.9261 93.5319C82.5816 92.9911 81.8589 92.8343 81.3118 93.1816ZM83.7053 82.43C83.3609 81.8892 83.5252 81.1693 84.0723 80.822C84.6195 80.4747 85.3422 80.6315 85.6866 81.1722C86.0311 81.713 85.8667 82.4329 85.3196 82.7802C84.7725 83.1275 84.0497 82.9707 83.7053 82.43ZM68.8586 90.4798C68.3115 90.8272 68.1472 91.5471 68.4916 92.0878C68.836 92.6286 69.5588 92.7854 70.1059 92.4381C70.653 92.0907 70.8173 91.3708 70.4729 90.8301C70.1285 90.2893 69.4057 90.1325 68.8586 90.4798Z" fill="#472A02" fill-opacity="0.35"/>
<path fill-rule="evenodd" clip-rule="evenodd" d="M71.4264 78.0251C70.8792 78.3724 70.7149 79.0924 71.0593 79.6331C71.4038 80.1739 72.1265 80.3307 72.6736 79.9833C73.2208 79.636 73.3851 78.9161 73.0407 78.3753C72.6962 77.8346 71.9735 77.6778 71.4264 78.0251ZM81.0037 93.0615C80.4565 93.4088 80.2922 94.1288 80.6366 94.6695C80.9811 95.2102 81.7038 95.3671 82.2509 95.0197C82.7981 94.6724 82.9624 93.9525 82.618 93.4117C82.2735 92.871 81.5508 92.7142 81.0037 93.0615ZM83.3972 82.3099C83.0528 81.7691 83.2171 81.0492 83.7642 80.7019C84.3114 80.3545 85.0341 80.5113 85.3785 81.0521C85.723 81.5928 85.5586 82.3128 85.0115 82.6601C84.4644 83.0074 83.7416 82.8506 83.3972 82.3099ZM68.5505 90.3597C68.0034 90.707 67.839 91.427 68.1835 91.9677C68.5279 92.5085 69.2506 92.6653 69.7978 92.3179C70.3449 91.9706 70.5092 91.2507 70.1648 90.7099C69.8204 90.1692 69.0976 90.0124 68.5505 90.3597Z" fill="white"/>
<path fill-rule="evenodd" clip-rule="evenodd" d="M79.4541 76.704C78.8237 76.5673 78.1964 76.9654 78.0531 77.5934C77.9097 78.2214 78.3046 78.8413 78.935 78.9781C79.5654 79.1149 80.1927 78.7167 80.336 78.0887C80.4794 77.4607 80.0845 76.8408 79.4541 76.704ZM75.4685 94.1655C74.8381 94.0287 74.2108 94.4269 74.0675 95.0549C73.9242 95.6828 74.319 96.3028 74.9495 96.4395C75.5799 96.5763 76.2071 96.1781 76.3505 95.5502C76.4938 94.9222 76.0989 94.3023 75.4685 94.1655ZM84.7937 88.1763C84.9371 87.5483 85.5643 87.1501 86.1948 87.2869C86.8252 87.4237 87.22 88.0436 87.0767 88.6716C86.9334 89.2995 86.3061 89.6977 85.6757 89.561C85.0453 89.4242 84.6504 88.8042 84.7937 88.1763ZM68.6648 83.4837C68.0344 83.3469 67.4072 83.7451 67.2638 84.3731C67.1205 85.001 67.5154 85.621 68.1458 85.7578C68.7762 85.8945 69.4035 85.4963 69.5468 84.8684C69.6901 84.2404 69.2953 83.6205 68.6648 83.4837Z" fill="#472A02" fill-opacity="0.35"/>
<path fill-rule="evenodd" clip-rule="evenodd" d="M79.1714 76.6254C78.5409 76.4886 77.9137 76.8868 77.7703 77.5148C77.627 78.1428 78.0219 78.7627 78.6523 78.8995C79.2827 79.0362 79.91 78.6381 80.0533 78.0101C80.1966 77.3821 79.8018 76.7622 79.1714 76.6254ZM75.1858 94.0869C74.5554 93.9501 73.9281 94.3483 73.7848 94.9763C73.6415 95.6042 74.0363 96.2242 74.6667 96.3609C75.2972 96.4977 75.9244 96.0995 76.0678 95.4716C76.2111 94.8436 75.8162 94.2237 75.1858 94.0869ZM84.511 88.0977C84.6544 87.4697 85.2816 87.0715 85.912 87.2083C86.5425 87.3451 86.9373 87.965 86.794 88.593C86.6507 89.2209 86.0234 89.6191 85.393 89.4823C84.7626 89.3456 84.3677 88.7256 84.511 88.0977ZM68.3821 83.4051C67.7517 83.2683 67.1245 83.6665 66.9811 84.2945C66.8378 84.9224 67.2327 85.5424 67.8631 85.6791C68.4935 85.8159 69.1208 85.4177 69.2641 84.7898C69.4074 84.1618 69.0126 83.5419 68.3821 83.4051Z" fill="white"/>
<path d="M72.9414 89.3797L78.5322 90.5209C78.6785 90.5522 78.8135 90.4666 78.8471 90.321L81.1624 80.383C81.1961 80.2374 81.1115 80.1047 80.9652 80.0734L78.748 79.6172C78.6017 79.5858 78.4668 79.6715 78.4332 79.8171L76.706 87.2074C76.4499 87.1525 73.6025 86.5994 73.6025 86.5994C73.4562 86.5681 73.3212 86.6537 73.2876 86.7993L72.7583 89.0922C72.7106 89.2157 72.7951 89.3484 72.9414 89.3797Z" fill="#472A02" fill-opacity="0.35"/>
<path d="M72.5508 89.0252L78.1416 90.1664C78.2879 90.1977 78.4229 90.1121 78.4565 89.9665L80.7718 80.0285C80.8054 79.8829 80.7209 79.7502 80.5746 79.7189L78.3574 79.2627C78.2111 79.2313 78.0761 79.317 78.0425 79.4626L76.3154 86.8529C76.0593 86.798 73.2119 86.2449 73.2119 86.2449C73.0656 86.2136 72.9306 86.2992 72.897 86.4448L72.3676 88.7377C72.3199 88.8612 72.4045 88.9939 72.5508 89.0252Z" fill="white"/>
</g>
</g>
<defs>
<linearGradient id="paint0_linear_464_5222" x1="252.758" y1="65.292" x2="252.758" y2="133.281" gradientUnits="userSpaceOnUse">
<stop stop-color="#A8D7A8"/>
<stop offset="1" stop-color="#95B895"/>
</linearGradient>
<linearGradient id="paint1_linear_464_5222" x1="101.55" y1="72.606" x2="124.552" y2="105.476" gradientUnits="userSpaceOnUse">
<stop stop-color="#FFCA00"/>
<stop offset="0.791667" stop-color="#FF9000"/>
</linearGradient>
<linearGradient id="paint2_linear_464_5222" x1="42.6292" y1="69.1263" x2="110.694" y2="181.617" gradientUnits="userSpaceOnUse">
<stop stop-color="#FFCA00"/>
<stop offset="0.791667" stop-color="#FF9000"/>
</linearGradient>
<linearGradient id="paint3_linear_464_5222" x1="325.927" y1="60.4648" x2="325.927" y2="203.517" gradientUnits="userSpaceOnUse">
<stop stop-color="#A8D7A8"/>
<stop offset="1" stop-color="#95B895"/>
</linearGradient>
<linearGradient id="paint4_linear_464_5222" x1="355.494" y1="68.771" x2="355.494" y2="147.778" gradientUnits="userSpaceOnUse">
<stop stop-color="#A8D7A8"/>
<stop offset="1" stop-color="#95B895"/>
</linearGradient>
<clipPath id="clip0_464_5222">
<rect width="395.159" height="192.681" fill="white" transform="translate(14.8418)"/>
</clipPath>
</defs>
</svg>
