<svg width="480" height="460" viewBox="0 0 480 460" fill="none" xmlns="http://www.w3.org/2000/svg">
<path d="M280.52 268.28C281.924 268.28 282.205 266.875 283.048 266.033C283.89 265.471 285.014 265.191 285.575 264.348C287.822 261.54 290.911 260.978 293.439 259.013C293.72 259.013 294.001 259.013 294.001 259.013C295.686 257.047 297.371 255.081 298.775 253.116C301.303 253.116 301.303 253.116 302.988 254.239C303.549 253.677 303.83 253.396 304.392 252.835C304.953 253.677 305.515 254.239 306.077 255.081C305.515 255.362 304.673 255.924 303.83 256.485C302.426 257.328 302.707 259.013 301.864 260.136C301.303 261.259 299.898 261.821 299.898 262.944C299.898 264.348 298.775 264.91 298.775 266.033C299.056 266.314 299.617 266.595 299.898 266.595C301.583 265.752 303.549 264.067 305.234 263.787C307.2 263.506 308.604 261.821 310.29 261.259C311.132 260.978 311.975 260.136 312.817 259.574C313.66 259.013 313.94 257.328 315.345 257.328C316.187 257.889 317.03 258.451 317.872 259.013C318.434 258.451 319.276 257.889 319.838 257.328C320.962 258.451 320.119 259.855 320.4 260.698C320.119 261.821 318.996 262.102 319.276 263.225C318.434 263.506 317.591 263.506 318.434 264.629C318.715 264.348 318.996 263.787 319.276 263.225C320.681 263.225 322.085 263.225 323.208 263.225C324.613 262.102 326.017 261.259 327.702 260.136H329.949C330.51 260.698 330.791 261.259 331.353 261.54H335.285C335.846 260.978 336.127 260.417 336.689 260.136H339.216C340.059 260.978 340.621 261.821 341.463 262.944C342.867 263.506 343.991 263.225 345.395 262.102C347.08 260.978 348.765 259.013 351.012 260.417C351.854 261.259 351.293 262.382 351.573 263.225C350.731 263.506 349.888 263.506 350.731 264.629C351.012 264.348 351.293 263.787 351.573 263.225C352.135 263.225 352.697 263.225 353.259 263.225C353.82 262.663 354.101 262.102 354.663 261.821C355.224 262.382 355.224 262.382 355.224 265.752C354.382 266.595 353.259 267.437 352.416 268.28C352.978 268.841 352.978 269.122 353.259 269.122C354.663 269.122 355.505 268.841 358.595 266.314C358.875 266.595 359.156 266.875 359.437 267.437C359.718 267.718 359.718 267.718 359.999 267.999C360.56 267.156 361.122 266.595 361.684 266.033C361.684 265.191 361.965 264.629 361.965 264.067C363.088 263.506 363.65 263.506 364.211 264.348C364.773 265.191 365.616 265.191 366.458 265.191C367.582 265.191 367.862 266.033 368.705 266.595C369.267 267.156 370.39 266.314 370.671 267.718C370.39 268.28 369.828 268.841 369.547 269.122C369.828 269.403 369.828 269.684 370.109 269.684C370.952 269.684 371.794 269.684 372.637 269.684C373.479 268.841 374.041 267.999 375.164 266.875C375.726 267.437 376.288 267.999 376.849 268.28C377.692 268.56 378.534 268.28 379.377 268.56C380.219 269.122 380.5 269.964 381.905 269.684C382.466 268.841 383.309 267.718 383.87 266.595C385.275 267.999 384.713 269.403 384.432 271.088C383.87 271.088 383.309 271.368 382.747 271.649C381.343 273.053 380.219 274.738 378.815 276.423C378.254 277.827 377.692 278.95 377.13 280.355C377.692 280.355 378.254 280.916 378.815 280.635C379.658 280.355 379.939 279.231 380.781 279.231C382.747 279.231 382.747 276.423 384.713 276.142C386.117 275.861 387.521 274.457 389.206 273.334H393.419C392.577 275.3 392.577 276.985 391.172 278.389C389.768 279.512 388.083 279.793 386.96 281.759C387.521 282.039 388.083 282.039 388.645 282.32C389.206 282.601 389.768 283.163 390.33 283.724C390.611 283.443 391.172 282.882 391.734 282.32C392.015 282.882 392.577 283.163 393.419 284.005C394.262 283.443 395.104 282.882 395.947 282.32C396.228 282.601 396.508 282.882 397.07 283.724H402.406C403.249 284.848 403.249 285.69 402.687 286.532C401.844 287.936 401.283 289.341 400.44 291.025C401.564 291.306 402.968 291.587 404.091 291.587C404.091 291.868 404.372 292.149 404.372 292.149C403.249 293.553 401.844 294.957 400.721 296.361C401.002 296.642 401.283 297.203 401.564 297.203C403.81 297.203 405.776 297.203 408.023 297.203C408.865 298.607 407.461 299.169 407.18 299.45C405.495 300.573 403.81 301.977 401.564 301.696C401.283 301.696 401.283 302.258 401.002 302.539C401.283 302.82 401.283 303.1 401.564 303.1C403.249 303.1 404.934 303.1 406.9 303.1C407.18 302.82 407.461 302.258 407.742 301.977C409.146 301.135 410.551 301.696 412.236 301.416C413.078 300.573 413.64 299.731 414.482 298.607C415.044 299.169 415.606 299.45 416.448 300.011C417.01 299.45 417.572 299.169 418.414 298.607C419.538 299.169 418.695 300.573 418.976 301.696C418.976 303.1 416.729 303.662 418.695 306.189C418.133 305.628 418.414 305.909 418.414 305.909C422.065 305.909 425.716 305.909 429.367 305.909C429.367 307.593 430.771 307.593 431.052 308.997H436.388C436.669 308.717 437.231 308.155 437.792 307.593H440.32C440.882 308.155 441.162 308.436 441.724 308.997C442.286 308.436 442.567 307.874 443.128 307.593C443.69 307.593 443.971 307.593 444.533 307.874C444.813 308.436 444.813 309.278 445.094 310.121C444.252 310.402 443.409 310.682 442.847 310.963C442.005 312.086 442.567 313.49 442.286 314.614C442.567 314.895 443.128 315.175 443.128 314.895C443.69 313.49 445.094 314.052 445.937 313.21C446.779 312.367 447.341 311.244 448.184 310.121C448.464 311.525 448.745 312.367 449.026 313.21C450.149 314.333 450.992 313.21 451.834 312.086H456.047C456.89 313.21 456.328 314.614 456.609 315.737C455.485 317.141 454.081 318.545 452.677 320.23C453.239 320.511 453.52 320.792 454.081 321.072C455.485 321.915 456.89 323.319 458.575 322.476C459.136 321.915 459.698 321.634 460.26 320.792C460.821 321.353 461.664 321.634 462.787 322.476C463.63 322.476 465.315 322.476 466.438 322.757C466.719 323.6 466.719 323.6 464.192 326.689C463.911 326.97 463.911 326.97 463.63 327.25C463.349 327.25 462.787 327.25 462.506 327.25C462.226 327.531 462.226 327.531 461.945 327.812C461.945 328.374 461.945 329.216 461.945 329.778C463.349 331.182 464.192 330.058 464.753 328.935C465.877 329.216 466.157 330.339 467 331.182C466.719 331.743 466.719 332.586 466.438 333.147C465.596 334.271 464.753 335.394 463.911 336.236H461.664C459.979 337.36 458.013 338.202 456.609 339.887C455.766 341.01 454.081 342.133 452.958 342.133C451.273 342.133 450.43 343.537 449.026 343.818C447.341 344.099 447.06 346.065 445.375 346.907H442.847C442.567 347.75 442.567 348.311 442.567 348.873C443.409 349.996 444.252 351.119 445.375 352.243C444.533 352.524 443.409 352.804 443.128 353.366C442.005 355.332 440.039 356.174 438.635 357.017C436.95 357.859 435.826 358.982 434.703 360.386H431.895C430.771 361.79 429.648 363.756 428.524 365.16C425.997 364.037 424.593 366.003 422.908 366.845C421.223 367.687 419.537 368.53 418.133 369.653C416.448 370.776 415.325 372.742 413.921 374.146H411.393C410.551 374.989 409.708 376.112 408.865 376.954C406.9 376.393 405.495 378.078 403.81 378.639C402.687 379.201 401.844 380.605 401.002 381.728H398.474C395.947 383.694 394.542 384.536 392.296 384.817C390.611 385.379 390.33 388.187 388.083 387.906C386.96 389.31 385.555 389.591 384.151 389.31C383.309 390.995 381.062 390.714 379.939 392.399C378.254 392.118 377.692 394.645 376.007 394.084C374.883 395.769 373.198 396.611 371.794 396.611C370.109 396.892 368.986 397.734 367.862 398.296C364.211 399.981 360.841 402.789 357.19 404.474C356.067 405.036 355.224 406.44 354.101 407.563H351.012C350.169 408.686 349.046 409.529 348.203 410.652C347.08 410.652 345.957 410.371 345.676 410.933C344.272 412.618 341.463 412.337 340.901 415.145C338.936 414.583 337.531 415.987 335.846 416.549C334.442 417.111 333.599 418.795 332.476 419.638C331.353 419.638 330.229 419.638 329.106 419.638C326.017 421.042 323.489 424.131 319.838 424.131C319.557 424.131 319.276 424.693 318.996 424.973C317.872 425.816 316.468 425.535 315.906 426.939C313.379 426.097 311.694 429.466 309.447 428.624C308.604 429.466 308.043 430.309 307.2 431.432H304.392C303.83 432.555 302.988 433.959 302.707 434.521H298.775C296.528 435.644 295.124 437.048 293.439 437.329C291.473 437.61 290.069 439.014 288.384 439.856C286.699 440.699 285.014 441.541 283.329 442.665C283.609 443.507 284.171 444.63 284.452 445.192C284.171 446.877 283.048 446.315 282.486 446.596C281.924 446.877 281.643 447.438 281.082 448C280.239 446.877 279.397 446.034 278.554 445.192H270.691C270.129 444.069 269.286 442.945 268.725 442.103H263.108C262.546 442.665 262.265 443.226 261.704 443.788H255.244C254.963 444.069 254.683 444.63 254.121 445.192H246.538C245.134 443.788 244.011 442.665 242.887 441.541C243.449 440.98 243.73 440.699 244.011 440.137C244.011 439.014 244.291 437.891 244.291 437.048C244.572 435.644 246.538 437.048 246.538 434.802H241.764C239.236 433.117 237.551 432.274 235.304 430.87C235.024 429.466 234.462 427.781 233.058 426.939H229.126C228.845 427.501 228.283 427.781 227.722 428.343H214.803C214.522 428.624 214.241 429.186 213.96 429.466C213.679 429.747 213.679 430.028 213.399 430.028C209.467 430.028 205.535 430.028 202.446 430.028C198.795 432.274 195.986 433.959 192.335 436.206H188.965C187.561 434.521 185.314 434.24 183.91 431.713H179.978C178.855 432.555 177.451 433.398 175.485 434.521H168.183C167.621 435.083 167.34 435.644 166.779 436.206H157.511C156.949 435.644 156.668 434.802 155.826 433.679V430.59C154.983 429.747 153.86 428.905 153.017 428.062C153.579 427.22 154.141 426.658 154.422 426.097C152.175 424.973 150.209 423.569 147.962 422.446C147.4 422.165 146.558 422.446 145.996 422.446C144.873 421.042 143.75 419.919 142.907 418.515V415.426C142.345 414.864 142.064 414.302 141.503 413.741C142.345 412.898 142.907 412.056 144.03 410.933C143.469 408.686 145.154 406.72 145.435 404.193C143.75 404.474 143.188 406.159 142.345 406.72C141.503 407.282 140.379 407.282 139.818 408.405C138.414 407.844 137.852 410.09 136.448 410.09C135.043 410.09 134.763 411.494 133.92 412.056C133.077 412.618 132.235 413.179 131.392 413.741C127.741 415.987 124.091 417.672 120.72 420.2C119.597 421.042 118.193 419.919 117.069 421.042C116.508 421.884 115.104 421.884 114.542 422.727C113.418 424.131 112.014 423.008 110.891 423.85C110.61 424.131 110.329 424.412 109.768 424.973H98.5338C97.4104 426.377 96.0062 426.939 94.3211 426.658C93.7595 427.22 93.4786 427.501 92.9169 428.062H83.9299C83.0874 426.939 81.964 425.535 80.8407 424.131C80.8407 423.85 80.8407 423.288 80.8407 422.727C78.3131 420.761 74.943 420.199 73.2579 415.706C73.2579 415.706 73.2579 414.864 73.2579 413.179C74.1004 412.618 75.2238 411.775 76.0663 410.933C75.2238 410.09 74.943 409.529 74.3813 408.967V405.878C74.943 405.316 75.2238 404.755 75.7855 404.193C75.7855 403.632 75.7855 403.07 75.7855 402.508C75.2238 402.227 74.6621 402.227 73.2579 401.666C72.6962 400.823 71.292 398.858 70.1686 397.173C68.4836 398.015 67.0794 398.577 65.956 399.419C64.8326 400.262 64.2709 401.666 62.5859 402.227C62.0242 401.947 61.4625 401.385 60.9008 400.543C60.62 400.823 60.0583 401.385 59.4966 401.947H56.969C56.4073 402.508 55.8456 403.07 55.5648 403.351H49.1054C46.8586 402.227 47.4203 399.139 45.7353 398.015C45.7353 395.207 43.4885 394.645 42.3652 392.68H39.2759C38.4334 391.557 37.5908 390.714 37.31 389.029C37.0291 387.906 35.9058 386.783 35.9058 385.098H31.4123C31.1314 385.379 30.5697 385.94 30.0081 386.502C28.323 386.502 26.3571 386.783 24.3912 386.502C24.1104 385.098 24.3912 383.694 23.8295 382.571C23.5487 383.132 22.4253 381.447 21.5828 379.762H17.3701C16.2467 378.358 15.4042 376.954 14 375.269V372.742C14.5617 372.18 14.8425 371.619 15.1234 371.057V367.126C16.2467 365.16 17.3701 363.194 17.651 360.667C17.651 360.105 17.651 359.263 17.3701 358.421C15.9659 358.701 15.4042 360.105 14.5617 360.948C14 360.948 14 360.948 14 357.859C14.2808 357.297 14.8425 356.455 15.4042 355.612C15.4042 354.489 15.4042 353.647 14 353.647C14.2808 353.085 14.2808 352.524 14.5617 352.524C15.9659 352.524 16.8084 351.4 17.651 350.277C17.651 348.311 18.4935 346.346 19.336 344.38C19.0552 343.818 18.4935 343.257 18.2126 342.695C18.4935 341.01 20.4594 340.729 20.4594 338.764C20.4594 337.079 22.1445 336.517 22.7061 335.394C23.2678 333.709 23.8295 332.305 24.9529 331.182C25.7954 331.182 26.6379 331.182 27.4805 331.182C27.7613 331.182 27.7613 331.463 28.0422 331.743C27.7613 332.305 27.4805 332.867 26.9188 333.428C27.1996 333.99 27.7613 334.551 28.0422 335.113C27.1996 335.675 26.3571 335.956 25.5146 336.517C25.5146 337.36 25.5146 338.202 25.7954 338.764C24.9529 339.044 24.1104 338.764 24.9529 340.168C25.2337 339.325 25.5146 339.044 25.7954 338.202C27.4805 337.36 29.1655 336.236 30.8506 335.113C31.6931 335.675 32.2548 335.956 32.8165 336.517C33.9399 333.709 33.9399 333.709 37.31 331.182C36.4675 330.901 35.6249 330.62 35.0632 330.339C35.9058 328.374 36.1866 327.812 35.3441 325.846C33.659 326.97 31.974 327.812 30.2889 328.935C29.4464 327.812 30.2889 326.408 29.7272 325.285C30.5697 324.442 31.4123 323.319 32.2548 323.038C32.8165 323.038 33.659 322.476 33.9399 321.634C35.9058 316.86 39.2759 313.771 42.9268 310.963C43.4885 310.682 43.7694 309.84 44.3311 309.278H46.8586C48.2629 307.593 49.9479 305.628 51.3521 303.943C51.0713 303.381 50.5096 302.82 50.2288 302.539C50.7905 301.696 51.3521 301.135 52.1947 300.292C52.4755 301.135 52.7564 301.977 53.0372 302.82C53.318 303.381 53.5989 303.381 53.8797 302.82C55.5648 301.135 58.0924 300.854 59.4966 298.888C61.1816 296.922 63.7092 296.361 64.8326 294.114C66.5177 294.114 67.641 292.71 69.3261 291.868C71.0112 291.025 71.8537 288.779 73.8196 287.936C75.2238 287.375 76.3472 285.409 77.4706 284.005C77.7514 283.724 77.7514 283.443 78.0322 283.443C80.5598 284.005 80.8407 279.793 83.3683 280.074C83.9299 278.95 85.3342 278.67 85.0533 277.266H88.1426C88.7043 276.704 88.9851 276.142 89.5468 275.581H92.0744C92.6361 274.738 93.1978 274.177 94.0403 273.334C94.0403 272.773 94.0403 272.211 94.0403 271.649C94.602 271.368 95.4445 271.088 95.4445 271.088C98.2529 269.122 99.3763 265.471 102.466 264.91C104.151 262.102 107.24 261.821 108.644 259.013C111.172 258.732 112.295 255.643 114.261 254.239H116.508C118.754 252.273 119.878 249.465 122.405 248.342C124.652 247.219 125.776 244.691 127.741 243.006C128.022 242.726 128.022 242.445 128.303 242.445C129.988 241.883 131.673 240.76 133.077 239.637C134.763 238.794 135.324 235.986 137.571 235.986C138.414 234.301 140.379 233.74 140.66 231.493C142.626 231.774 144.03 230.931 144.592 228.404C145.435 228.685 145.996 228.123 145.996 227C146.558 227 147.4 227 147.962 227C149.928 228.123 149.928 231.493 151.894 232.897C152.175 232.616 152.737 232.055 153.017 231.774C153.298 231.493 153.86 231.493 154.702 231.493C155.545 232.616 156.387 234.02 157.511 235.705C157.511 235.705 157.23 236.267 156.668 236.828C156.668 236.828 156.668 237.39 156.949 237.39C158.915 237.671 160.6 237.671 162.285 237.952C162.847 237.39 163.128 237.109 163.409 236.548H166.498C166.498 237.39 166.779 237.952 166.779 238.513C165.655 241.321 162.566 240.76 161.443 243.849C161.723 244.41 162.004 244.972 162.285 245.534C164.532 244.691 166.779 243.287 168.464 241.041C169.587 239.356 174.081 237.109 176.608 236.267C176.889 237.109 177.17 237.952 177.451 239.075C178.855 238.794 179.136 237.39 180.259 236.548C181.383 237.952 181.383 237.952 179.978 240.198V246.376C180.259 247.219 180.54 247.219 181.102 246.657C182.787 244.691 184.191 242.726 186.438 241.602C187.28 241.321 187.561 240.198 188.404 239.356C189.527 239.356 190.369 239.075 191.493 239.637C190.65 242.164 189.808 244.691 187.842 245.814V247.499C188.404 248.342 188.404 248.342 194.02 248.061C194.301 247.78 194.582 247.219 194.863 246.938H199.076C200.199 249.465 196.548 250.307 197.952 252.554C198.233 252.835 198.795 253.116 199.076 253.116C199.637 253.116 200.48 253.116 201.042 253.116C201.603 253.677 201.884 254.239 202.446 254.52C202.727 254.239 203.007 253.677 203.569 253.116H210.309C210.59 253.396 210.871 253.958 211.433 254.239C211.714 253.958 212.275 253.396 212.837 252.835H218.454C219.296 254.239 220.701 255.924 221.543 257.328H224.632C225.194 256.766 225.475 256.485 226.037 255.924C226.598 256.485 227.16 257.047 227.722 257.889C228.283 258.732 227.722 260.136 228.002 261.259C228.002 262.382 228.002 263.225 228.002 264.067C227.441 264.629 227.16 265.191 226.598 265.752C226.598 266.314 226.598 266.875 226.598 267.437C227.16 267.718 227.722 267.718 228.283 267.999C228.845 267.437 229.407 266.875 229.688 266.314H235.866C236.428 267.156 237.551 267.999 238.113 269.403C237.832 269.964 237.27 270.807 236.709 271.649C236.989 271.93 237.27 272.211 237.551 272.492C239.798 271.368 242.045 270.245 243.73 267.999C245.134 268.28 246.819 267.437 248.504 268.841C247.381 269.684 246.257 270.526 244.853 271.649C245.976 272.211 246.538 272.492 247.661 273.053C248.223 271.649 248.785 270.526 249.908 268.56C250.751 270.807 251.032 271.649 251.874 273.334C252.155 271.368 252.436 269.964 252.717 268.56C253.278 268.56 253.84 268.28 254.402 268.28C254.683 268.841 254.963 269.122 255.525 269.403C255.806 269.403 256.087 269.122 256.368 269.122C258.334 268.28 259.738 266.314 262.265 266.875C262.827 265.752 263.67 264.629 263.95 263.787H267.882V266.314C267.04 267.156 266.197 267.999 265.635 268.841C264.793 269.964 263.95 269.964 262.827 270.245C263.389 271.93 263.95 273.334 264.793 275.019C265.635 273.896 266.478 272.492 267.04 271.649H269.848C270.691 270.807 271.252 269.964 272.095 268.841C274.903 268.841 277.15 266.595 279.678 265.471C281.082 265.752 280.239 267.156 280.52 268.28C279.958 268.28 279.397 267.999 278.835 268.28C278.273 268.56 277.993 269.122 277.993 269.684C277.15 269.964 276.307 269.684 277.15 271.088C277.431 270.807 277.712 270.245 277.993 269.684C278.273 269.684 279.116 269.964 279.678 269.684C279.958 269.403 280.239 268.841 280.52 268.28ZM38.1525 321.915C39.2759 321.353 40.1184 321.634 39.2759 320.23C38.995 320.511 38.7142 321.072 38.995 321.353C37.8717 321.634 37.0291 321.634 37.8717 323.038C38.1525 322.476 38.4334 322.196 38.1525 321.915ZM47.1395 314.052C48.2629 313.771 49.1054 313.771 48.2629 312.367C47.982 312.648 47.7012 313.21 47.982 313.49C46.8586 313.771 46.0161 313.771 46.8586 315.175C47.1395 314.895 47.4203 314.614 47.1395 314.052ZM207.782 260.698C208.905 260.417 209.748 260.417 208.905 259.013C208.624 259.294 208.343 259.855 208.624 260.136C207.501 260.417 206.658 260.417 207.501 261.821C207.501 261.54 207.782 261.259 207.782 260.698ZM55.2839 307.874C56.1265 307.593 57.2498 308.717 57.8115 307.032C56.1265 306.47 56.1265 306.47 55.5648 307.874C54.4414 308.155 53.5989 308.155 54.4414 309.559C55.0031 308.997 55.2839 308.436 55.2839 307.874ZM426.559 310.963C425.716 311.244 424.593 310.121 424.031 311.806C425.716 312.648 425.716 312.648 426.559 310.963C427.401 310.682 428.524 311.806 429.086 310.121C427.401 309.278 427.401 309.278 426.559 310.963ZM293.439 269.684C294.001 269.684 294.562 269.964 295.124 269.684C295.405 269.403 295.686 268.841 295.686 268.28C296.809 267.999 297.652 267.999 296.809 266.595C296.528 266.875 296.247 267.437 295.967 267.999C295.405 267.999 294.843 267.718 294.281 267.999C294.001 268.28 293.72 268.841 293.72 269.403C292.596 269.684 291.754 269.684 292.596 271.088C292.877 270.807 293.158 270.245 293.439 269.684ZM220.981 266.595C222.105 266.314 222.947 265.191 223.509 264.067C222.666 263.225 221.824 263.225 220.981 264.348C220.981 265.191 220.981 265.752 221.262 266.314C220.139 266.595 219.296 266.595 220.139 267.999C220.42 267.718 220.701 267.156 220.981 266.595ZM249.347 280.355C251.312 280.635 252.717 279.793 252.998 277.546C254.121 277.266 254.963 277.266 254.121 275.861C253.84 276.142 253.559 276.704 253.278 277.266C251.312 277.266 249.908 278.108 249.347 280.355C248.504 280.635 247.381 279.512 246.819 281.197C248.504 282.039 248.504 282.039 249.347 280.355ZM334.723 265.191C334.161 265.191 333.319 265.191 332.757 265.191C332.195 266.033 331.072 266.595 331.072 267.999C331.634 267.999 332.195 267.999 332.757 268.28C333.319 267.156 334.723 266.875 334.161 265.471C335.285 265.191 336.127 265.191 335.285 263.787C335.285 264.067 335.004 264.629 334.723 265.191ZM37.31 341.572C35.6249 341.853 33.9399 341.291 32.2548 341.853C32.2548 343.537 31.4123 344.942 32.8165 346.065C33.9399 344.099 37.0291 344.661 37.0291 341.572C38.1525 341.291 38.995 341.291 38.1525 339.887C37.8717 340.449 37.5908 341.01 37.31 341.572ZM49.6671 330.339C50.7905 330.62 51.3521 330.901 51.9138 330.901C53.318 329.497 54.1606 327.531 56.1265 327.531C56.6882 327.531 56.6882 326.97 56.1265 326.408H54.4414C52.4755 327.812 51.3521 328.935 49.6671 330.339ZM217.05 258.451V256.766C216.769 257.047 216.769 257.328 216.488 257.328C215.926 256.205 215.645 255.362 215.365 254.239C214.522 255.362 213.96 255.924 213.679 256.205C214.241 257.328 214.803 258.17 215.365 259.294C215.926 259.013 216.488 258.732 217.05 258.451ZM62.0242 299.731C62.305 301.696 61.1816 303.381 62.5859 305.066C63.1475 305.066 63.7092 304.785 64.2709 304.785V302.539C63.7092 301.696 63.1475 300.854 62.0242 299.731ZM274.903 271.368C273.78 271.649 273.218 272.773 272.657 273.615C273.499 274.738 274.342 274.738 275.184 273.615C275.184 272.773 275.184 272.211 274.903 271.368ZM24.1104 348.873C24.3912 350.558 24.3912 351.119 24.672 352.524C25.5146 351.4 26.3571 350.558 27.1996 349.435C26.3571 349.435 25.5146 349.154 24.1104 348.873ZM94.3211 276.704C95.1637 277.827 96.0062 277.827 96.8487 276.704C96.0062 275.581 95.1637 275.581 94.3211 276.704ZM245.696 284.286C244.572 283.163 243.73 282.882 243.168 284.567C243.73 285.409 244.572 285.128 245.696 284.286ZM45.1736 333.147C46.0161 334.271 46.8586 334.271 47.7012 333.147C46.8586 332.024 46.0161 332.024 45.1736 333.147ZM123.529 254.239C123.81 253.958 123.81 253.958 124.091 253.677C123.81 253.396 123.529 253.396 123.248 253.116C123.248 253.116 122.967 253.396 122.686 253.677C122.967 253.958 123.248 253.958 123.529 254.239ZM256.648 274.457C256.368 274.738 256.087 274.738 256.368 275.019C256.368 275.3 256.648 275.581 256.648 276.142C256.929 275.861 257.21 275.861 256.929 275.581C256.929 275.019 256.648 274.738 256.648 274.457ZM84.4916 285.128C84.2108 285.409 83.9299 285.409 84.2108 285.69C84.2108 285.971 84.4916 286.252 84.4916 286.813C84.7725 286.532 85.0533 286.532 84.7725 286.252C84.7725 285.69 84.7725 285.409 84.4916 285.128ZM415.044 307.032C414.763 306.751 414.763 306.47 414.482 306.47C414.201 306.47 413.921 306.751 413.64 307.032C413.921 307.313 413.921 307.593 414.201 307.593C414.482 307.593 414.763 307.313 415.044 307.032ZM44.0502 316.579C44.3311 316.86 44.3311 316.86 44.6119 317.141C44.6119 316.86 44.8927 316.579 44.8927 316.018C44.8927 316.018 44.6119 315.737 44.6119 315.456C44.3311 315.737 44.0502 316.299 44.0502 316.579ZM49.3862 316.86C49.6671 316.579 49.9479 316.579 50.2288 316.299C49.9479 316.018 49.9479 315.737 49.6671 315.737C49.3862 315.737 49.1054 316.018 48.8245 316.299C49.1054 316.579 49.1054 316.579 49.3862 316.86Z" fill="#FEE3B3"/>
<path d="M387.188 198.1C387.457 197.831 387.793 197.495 388.062 197.227C387.793 197.495 387.457 197.764 387.188 198.1C388.668 198.1 390.149 198.1 391.629 198.1C392.504 198.1 393.446 198.1 394.321 198.1C396.811 198.973 398.224 197.898 397.955 195.481C397.686 193.063 395.869 193.735 394.321 194.406C394.119 194.272 393.917 194.272 393.715 194.406C391.831 192.324 389.947 193.869 388.062 194.406C386.851 194.07 385.707 193.936 384.563 194.608C384.294 194.608 383.957 194.608 383.688 194.608C377.834 194.272 372.114 194.809 366.663 197.16C364.038 195.884 361.347 196.622 358.722 197.16C357.242 195.951 356.703 197.294 356.03 198.167C353.675 198.368 353.944 199.443 355.155 200.853C356.03 202.398 357.443 201.659 358.722 201.659C368.143 200.383 377.632 199.241 387.188 198.1ZM358.52 197.965C359.597 198.368 360.606 198.771 361.683 199.174C360.606 198.839 359.53 198.436 358.52 197.965ZM358.049 200.249C358.184 200.45 358.386 200.652 358.587 200.786C358.318 200.585 358.184 200.45 358.049 200.249Z" fill="#F3907A"/>
<path d="M433.755 136.921C428.237 137.324 422.719 136.854 417.268 138.197C416.192 138.264 415.048 138.331 413.971 138.398C410.068 138.465 406.097 137.458 402.329 139.137C398.426 139.406 394.455 138.6 390.687 139.943C389.005 139.876 387.188 138.801 385.909 140.816L385.64 140.749L385.438 140.95C384.9 140.95 384.294 140.95 383.756 140.883C380.795 139.338 377.968 140.144 375.277 141.689C373.056 140.413 371.239 142.092 369.287 142.562C368.143 142.562 366.999 142.562 365.788 142.495C363.163 143.502 359.799 141.555 357.578 144.375C355.694 143.972 354.079 145.181 352.329 145.45C350.983 144.979 349.772 145.248 348.762 146.188C347.618 145.718 346.946 146.793 346.071 147.128C344.321 147.128 342.369 146.591 341.427 148.875C340.014 149.009 338.534 149.143 339.139 151.091C339.61 152.434 340.822 153.173 342.302 152.635C344.523 151.829 346.676 150.956 348.83 150.083C352.464 149.815 356.03 149.345 359.462 148.069C359.731 148.002 360.068 148.002 360.337 147.934C361.683 148.069 362.962 148.069 364.173 147.33L364.509 147.397L364.779 147.196C365.048 147.196 365.384 147.196 365.653 147.128C368.682 146.658 371.71 146.188 374.671 145.651L375.075 145.718L375.411 145.45C377.295 145.517 379.247 145.785 380.929 144.644C380.256 144.308 379.651 144.039 378.978 143.704C379.045 143.099 379.045 142.562 379.112 141.957C380.054 141.152 381.131 141.084 382.275 141.017C381.131 141.084 380.054 141.219 379.112 141.957C379.045 142.562 379.045 143.099 378.978 143.704C379.651 144.039 380.256 144.308 380.929 144.644C381.737 144.577 382.612 144.509 383.419 144.509C386.178 144.577 389.005 144.845 391.696 143.838C390.754 143.771 389.812 143.636 388.937 143.569C388.062 143.099 387.793 142.696 387.928 142.226C387.793 142.696 388.062 143.166 388.937 143.569C389.879 143.636 390.822 143.771 391.696 143.838C392.84 143.771 393.917 143.704 395.061 143.636C398.157 143.771 401.319 143.838 404.348 142.965L404.617 143.032L404.819 142.83C405.088 142.83 405.424 142.763 405.694 142.763C409.597 142.428 413.634 143.301 417.47 141.957C418.009 141.89 418.547 141.823 419.085 141.756C423.93 141.42 428.843 141.152 433.688 140.883C434.832 140.816 435.909 140.48 435.707 139.137C435.842 138.062 435.438 136.854 433.755 136.921ZM365.721 143.636C366.461 143.905 366.797 144.241 366.865 144.509C366.797 144.174 366.461 143.905 365.721 143.636ZM397.887 140.144C395.465 140.077 393.042 140.01 390.687 140.01C393.11 140.01 395.465 140.077 397.887 140.144Z" fill="#F3907A"/>
<path d="M441.629 145.785C440.956 151.897 440.418 158.008 439.812 164.119C439.072 164.32 438.87 164.656 439.543 165.193C438.937 166.805 438.601 168.484 438.87 170.23C438.331 173.454 437.726 176.677 437.255 179.901C436.986 181.579 436.447 183.46 437.524 185.004C438.601 186.616 440.014 188.228 440.889 184.803C442.033 183.393 441.831 181.848 441.562 180.236C441.696 180.035 441.763 179.766 441.763 179.498C443.109 177.819 442.235 175.804 442.571 173.991C442.033 169.424 444.792 165.328 444.455 160.761C445.667 159.015 445.196 157.135 444.926 155.321C444.994 154.717 445.128 154.113 445.196 153.508C445.465 151.426 445.734 149.345 446.003 147.263C446.34 145.785 446.474 144.308 446.003 142.83C442.706 141.152 441.898 143.233 441.629 145.785ZM439.879 178.49C440.418 178.49 441.023 178.557 441.562 178.557C441.023 178.49 440.418 178.49 439.879 178.49Z" fill="#F3907A"/>
<path d="M412.087 173.924C407.04 172.849 402.06 172.446 397.013 173.924C394.994 174.595 392.571 172.446 390.687 174.662C387.726 173.655 384.765 174.259 381.804 174.998C375.546 174.394 369.624 176.274 363.567 177.483C361.481 179.43 358.386 177.013 356.232 179.229C355.357 180.102 353.608 180.505 354.281 182.117C354.886 183.594 356.367 184.131 357.982 183.594C360.001 182.923 361.952 182.05 363.904 181.311C368.143 181.177 372.316 180.572 376.488 179.565C384.832 178.625 393.244 179.162 401.589 177.684C403.944 177.752 406.299 178.155 408.587 177.483C409.731 177.953 410.404 177.013 411.212 176.61C412.221 176.744 413.433 177.013 413.702 175.603C413.971 174.528 412.894 174.125 412.087 173.924ZM365.721 178.49C365.788 178.49 365.923 178.423 366.057 178.423C365.923 178.423 365.855 178.49 365.721 178.49ZM378.237 178.49C378.036 178.49 377.901 178.49 377.699 178.557C377.901 178.49 378.103 178.49 378.237 178.49ZM378.305 176.207C378.439 176.073 378.574 175.938 378.776 175.871C378.574 175.938 378.372 176.073 378.305 176.207ZM396.071 175.737C396.34 175.468 396.676 175.2 396.945 174.864C396.676 175.2 396.407 175.468 396.071 175.737ZM399.57 175.132C399.031 175.67 398.493 176.14 397.955 176.677C398.493 176.207 399.031 175.67 399.57 175.132C401.723 174.058 403.944 173.655 406.097 173.924C403.877 173.722 401.723 174.058 399.57 175.132Z" fill="#F3907A"/>
<path d="M417.807 159.485C417.336 156.463 414.98 157.269 413.029 157.806C412.356 158.008 411.75 158.344 411.077 158.679C410 158.679 408.856 158.746 407.78 158.746C406.905 158.814 406.03 158.948 405.155 159.015C403.944 159.217 402.598 158.746 401.521 159.687C399.435 159.754 397.349 159.821 395.263 159.888C390.687 159.418 386.111 159.485 381.602 160.493C379.651 160.493 377.699 160.493 375.748 160.493C373.19 159.955 370.566 159.418 368.278 161.366C368.009 161.231 367.807 161.298 367.538 161.433C367.268 161.433 366.932 161.433 366.663 161.433C366.394 161.433 366.057 161.433 365.788 161.433C363.163 160.828 360.741 161.768 358.251 162.171C357.309 162.507 356.367 162.843 355.357 163.112C354.079 163.447 352.396 163.582 353.069 165.462C353.473 166.671 354.752 167.611 356.299 167.275C357.443 167.007 358.453 166.469 359.53 165.999C362.221 165.731 364.913 165.395 367.605 165.126C372.383 164.455 377.363 165.731 382.073 164.253C383.554 165.731 384.967 165.059 386.313 163.985C393.513 164.522 400.579 163.716 407.712 163.044C409.529 162.709 411.279 162.44 413.096 162.104C413.365 162.104 413.702 162.104 413.971 162.104C415.653 161.836 418.278 162.373 417.807 159.485ZM387.188 163.649C387.457 163.515 387.793 163.447 388.062 163.38C387.726 163.447 387.457 163.515 387.188 163.649ZM389.139 163.246C390.552 163.179 392.1 163.515 393.513 163.246C392.1 163.515 390.62 163.179 389.139 163.246ZM388.534 163.313C388.735 163.313 388.937 163.246 389.139 163.246C388.937 163.246 388.735 163.246 388.534 163.313ZM408.52 162.239C409.462 162.104 410.337 161.567 411.279 161.5C410.337 161.567 409.395 162.104 408.52 162.239ZM411.279 161.5C411.616 161.5 411.885 161.5 412.221 161.634C411.952 161.5 411.616 161.5 411.279 161.5Z" fill="#F3907A"/>
<path d="M469.354 127.049C466.932 126.713 465.451 128.123 465.788 130.81C465.855 131.28 465.788 131.683 465.788 132.153C462.827 140.279 460.741 148.673 458.52 157.068C457.51 158.411 457.107 159.955 457.039 161.567C456.972 162.104 456.905 162.641 456.77 163.179C456.03 164.32 454.751 165.328 455.828 166.872C455.559 167.141 455.29 167.477 455.088 167.745C453.069 169.021 453.473 171.17 453.271 173.118C451.521 175.334 453.271 176.341 454.886 176.811C457.174 177.483 457.376 175.535 457.645 173.991C458.453 172.648 458.654 171.103 458.654 169.626C459.866 165.999 461.077 162.306 462.221 158.679C463.634 157.873 463.432 156.665 463.163 155.389C463.769 153.575 464.374 151.829 464.98 150.016C465.249 148.539 465.451 146.994 465.72 145.517C468.008 142.36 468.547 138.533 469.354 134.906C470.027 133.832 470.566 132.69 470.498 131.347C470.431 129.735 472.248 127.452 469.354 127.049ZM464.913 141.017C464.913 141.89 464.913 142.763 464.913 143.704C464.913 142.83 464.913 141.957 464.913 141.017Z" fill="#F3907A"/>
<path d="M396.205 209.516C395.196 209.315 394.186 209.583 393.379 210.389C391.293 209.516 389.139 210.054 387.053 210.524C384.092 210.591 381.131 210.591 378.17 210.658C374.065 209.583 369.826 210.054 365.653 209.852C363.298 209.449 360.943 209.046 359.328 211.464C357.915 212.807 357.847 213.814 360.001 214.284C369.018 215.359 378.103 215.09 387.12 214.352C389.812 214.62 392.571 215.157 395.263 214.217L395.667 214.284L396.003 214.15C398.426 214.083 402.06 214.687 402.06 211.665C402.194 207.972 398.359 210.054 396.205 209.516ZM365.721 210.524C368.076 211.665 370.7 211.262 373.123 211.598C370.7 211.195 368.076 211.665 365.721 210.524ZM375.546 213.277C374.065 213.411 372.585 213.546 371.104 213.68C372.585 213.546 374.065 213.344 375.546 213.277ZM387.188 213.21C385.034 213.546 382.813 214.016 380.66 214.083C382.813 214.016 384.967 213.546 387.188 213.21C387.322 212.74 387.659 212.27 387.793 211.867C387.659 212.337 387.322 212.807 387.188 213.21Z" fill="#F3907A"/>
<path d="M422.181 185.81C422.854 184.534 423.998 182.855 421.71 182.385C420.229 182.05 417.874 182.52 418.009 184.534C418.21 188.161 416.192 191.72 417.537 195.346C415.653 197.831 416.865 200.652 416.663 203.338C415.451 204.547 416.663 205.823 416.73 207.032C416.797 208.173 416.595 209.986 418.48 209.919C420.027 209.852 420.431 208.442 420.297 206.964C421.575 202.398 421.575 197.764 421.373 193.13C423.258 191.451 421.912 189.302 422.113 187.355C422.113 186.885 422.113 186.348 422.181 185.81Z" fill="#F3907A"/>
<path d="M188.169 381.151C188.169 381.151 188.803 388.486 187.247 389.237L167.414 389.179C167.414 389.179 167.414 386.869 170.585 386.349C173.756 385.83 179.348 383.981 180.328 379.823C181.308 375.723 188.169 381.151 188.169 381.151Z" fill="#583B18"/>
<path d="M245.125 378.321C245.125 378.321 245.702 388.486 244.145 389.295L224.312 389.237C224.312 389.237 224.312 386.927 227.483 386.407C230.654 385.887 236.247 384.039 237.227 379.881C238.149 375.722 245.125 378.321 245.125 378.321Z" fill="#583B18"/>
<path d="M245.764 379.592C245.764 379.592 241.843 381.614 240.114 382.018C238.269 382.422 234.694 382.191 234.694 382.191C227.949 364.056 207.021 290.419 207.021 290.419C206.099 310.806 202.466 331.078 198.604 347.423C198.488 347.885 198.373 348.289 198.315 348.751C198.2 349.156 198.143 349.56 198.027 349.906V349.964C193.415 369.254 188.745 382.365 188.745 382.365C188.745 382.365 187.534 383.866 184.191 383.173C180.386 382.365 179.117 380.69 179.117 380.69C181.596 302.201 182.98 257.961 182.98 257.961C182.98 257.961 216.072 240.057 225.124 255.362C234.175 270.609 245.764 379.592 245.764 379.592Z" fill="#583B18"/>
<path d="M232.44 265.873C228.173 250.51 227.424 235.898 227.482 223.827C227.539 206.616 229.096 194.488 223.907 192.467C223.907 192.467 207.937 187.788 196.926 185.767C195.196 184.785 193.236 183.803 191.737 183.168C188.278 181.782 174.73 162.03 172.423 157.352C170.117 152.616 166.312 132.055 166.312 132.055L161.066 133.73C161.066 133.73 159.509 156.774 160.259 162.838C161.008 168.845 177.785 194.719 179.169 196.971C185.107 218.803 179.169 254.38 181.878 262.292C183.262 266.393 209.263 273.843 223.504 272.919C224.195 272.861 224.887 272.803 225.521 272.688C228.865 272.226 231.344 271.128 232.209 269.28C232.728 268.298 232.786 267.201 232.44 265.873Z" fill="#FF9123"/>
<path d="M232.44 265.873C228.173 250.51 227.424 235.898 227.482 223.827C227.539 206.616 229.096 194.488 223.907 192.467C223.907 192.467 207.937 187.788 196.926 185.767C195.196 184.785 193.236 183.803 191.737 183.168C188.278 181.782 174.73 162.03 172.423 157.352C170.117 152.616 166.312 132.055 166.312 132.055L161.066 133.73C161.066 133.73 159.509 156.774 160.259 162.838C161.008 168.845 177.785 194.719 179.169 196.971C185.107 218.803 179.169 254.38 181.878 262.292C183.262 266.393 209.263 273.843 223.504 272.919C224.195 272.861 224.887 272.803 225.521 272.688C228.865 272.226 231.344 271.128 232.209 269.28C232.728 268.298 232.786 267.201 232.44 265.873Z" fill="url(#paint0_linear_3053_15409)" fill-opacity="0.5"/>
<path d="M166.374 132.055C166.374 132.055 169.372 123.392 167.181 123.103C164.99 122.872 159.513 122.872 158.879 124.316C158.187 125.76 161.127 133.672 161.127 133.672L166.374 132.055Z" fill="#FFB27D"/>
<path d="M109.647 153.655L92.0625 143.028C92.8696 141.757 94.0803 140.891 95.4064 140.545C96.79 140.198 98.2313 140.371 99.5573 141.18C100.71 141.873 102.152 141.526 102.844 140.371L107.629 132.459L111.722 134.942L106.937 142.855C106.591 143.432 106.533 144.068 106.649 144.703C106.822 145.281 107.167 145.858 107.744 146.205C109.012 147.013 109.877 148.226 110.223 149.554C110.627 150.883 110.454 152.384 109.647 153.655Z" fill="#FF9123"/>
<path d="M109.647 153.655L92.0625 143.028C92.8696 141.757 94.0803 140.891 95.4064 140.545C96.79 140.198 98.2313 140.371 99.5573 141.18C100.71 141.873 102.152 141.526 102.844 140.371L107.629 132.459L111.722 134.942L106.937 142.855C106.591 143.432 106.533 144.068 106.649 144.703C106.822 145.281 107.167 145.858 107.744 146.205C109.012 147.013 109.877 148.226 110.223 149.554C110.627 150.883 110.454 152.384 109.647 153.655Z" fill="url(#paint1_linear_3053_15409)" fill-opacity="0.5"/>
<path d="M109.644 153.655L97.9406 146.552C95.2309 144.299 96.5569 142.336 97.9406 141.989C99.3242 141.642 100.766 141.816 102.092 142.624C103.245 143.317 104.686 142.971 105.378 141.816L110.163 133.903L111.777 134.885L106.992 142.798C106.646 143.375 106.588 144.01 106.704 144.646C106.877 145.223 107.223 145.801 107.799 146.147C109.068 146.956 109.932 148.169 110.278 149.497C110.624 150.883 110.451 152.385 109.644 153.655Z" fill="#FF9123"/>
<path d="M109.644 153.655L97.9406 146.552C95.2309 144.299 96.5569 142.336 97.9406 141.989C99.3242 141.642 100.766 141.816 102.092 142.624C103.245 143.317 104.686 142.971 105.378 141.816L110.163 133.903L111.777 134.885L106.992 142.798C106.646 143.375 106.588 144.01 106.704 144.646C106.877 145.223 107.223 145.801 107.799 146.147C109.068 146.956 109.932 148.169 110.278 149.497C110.624 150.883 110.451 152.385 109.644 153.655Z" fill="url(#paint2_linear_3053_15409)" fill-opacity="0.5"/>
<path d="M161.073 102.311L146.833 120.273C141.875 128.474 133.342 132.401 125.155 132.748C122.388 132.863 119.621 132.575 117.084 131.882C114.951 131.304 112.529 132.459 111.203 134.654L110.915 135.116C110.108 136.502 109.416 137.657 109.416 137.657L106.418 135.867C106.418 135.867 107.11 134.711 107.975 133.325C109.416 130.9 109.358 127.954 107.744 126.164C100.884 118.482 98.3468 105.776 104.862 94.9185L114.49 74.1846L161.073 102.311Z" fill="#FF9123"/>
<path d="M161.073 102.311L146.833 120.273C141.875 128.474 133.342 132.401 125.155 132.748C122.388 132.863 119.621 132.575 117.084 131.882C114.951 131.304 112.529 132.459 111.203 134.654L110.915 135.116C110.108 136.502 109.416 137.657 109.416 137.657L106.418 135.867C106.418 135.867 107.11 134.711 107.975 133.325C109.416 130.9 109.358 127.954 107.744 126.164C100.884 118.482 98.3468 105.776 104.862 94.9185L114.49 74.1846L161.073 102.311Z" fill="url(#paint3_linear_3053_15409)" fill-opacity="0.5"/>
<path d="M101.575 109.415C102.728 102.658 99.4998 99.0192 96.0407 95.1497C93.2734 92.0309 90.4484 88.8544 89.8142 84.0608C89.1224 78.7473 91.6014 73.3184 95.9254 70.6039C99.2116 68.5248 102.901 68.467 105.957 70.4307C110.339 73.2606 111.953 78.6318 110.627 86.1399C109.704 91.4534 107.629 96.016 107.514 96.1893L104.804 94.9187C104.919 94.6299 112.414 78.112 104.343 72.9141C101.575 71.1237 98.8657 72.2788 97.5397 73.1451C94.1958 75.2243 92.2356 79.5559 92.8121 83.6565C93.331 87.5261 95.7524 90.2405 98.2891 93.1283C101.864 97.1711 105.957 101.791 104.516 109.935L101.575 109.415Z" fill="#FF9123"/>
<path d="M101.575 109.415C102.728 102.658 99.4998 99.0192 96.0407 95.1497C93.2734 92.0309 90.4484 88.8544 89.8142 84.0608C89.1224 78.7473 91.6014 73.3184 95.9254 70.6039C99.2116 68.5248 102.901 68.467 105.957 70.4307C110.339 73.2606 111.953 78.6318 110.627 86.1399C109.704 91.4534 107.629 96.016 107.514 96.1893L104.804 94.9187C104.919 94.6299 112.414 78.112 104.343 72.9141C101.575 71.1237 98.8657 72.2788 97.5397 73.1451C94.1958 75.2243 92.2356 79.5559 92.8121 83.6565C93.331 87.5261 95.7524 90.2405 98.2891 93.1283C101.864 97.1711 105.957 101.791 104.516 109.935L101.575 109.415Z" fill="url(#paint4_linear_3053_15409)" fill-opacity="0.5"/>
<path d="M135.475 129.976C140.894 125.818 145.622 126.973 150.695 128.243C154.731 129.225 158.882 130.265 163.379 128.59C168.394 126.742 172.026 122.006 172.43 116.923C172.718 112.996 171.104 109.762 167.933 107.914C163.436 105.372 157.902 106.412 151.906 111.032C147.639 114.324 144.584 118.252 144.469 118.425L146.832 120.273C146.948 120.1 158.075 105.777 166.434 110.513C169.317 112.13 169.547 115.075 169.432 116.635C169.144 120.562 166.204 124.316 162.341 125.76C158.709 127.088 155.192 126.222 151.444 125.298C146.198 123.969 140.26 122.526 133.688 127.55L135.475 129.976Z" fill="#FF9123"/>
<path d="M135.475 129.976C140.894 125.818 145.622 126.973 150.695 128.243C154.731 129.225 158.882 130.265 163.379 128.59C168.394 126.742 172.026 122.006 172.43 116.923C172.718 112.996 171.104 109.762 167.933 107.914C163.436 105.372 157.902 106.412 151.906 111.032C147.639 114.324 144.584 118.252 144.469 118.425L146.832 120.273C146.948 120.1 158.075 105.777 166.434 110.513C169.317 112.13 169.547 115.075 169.432 116.635C169.144 120.562 166.204 124.316 162.341 125.76C158.709 127.088 155.192 126.222 151.444 125.298C146.198 123.969 140.26 122.526 133.688 127.55L135.475 129.976Z" fill="url(#paint5_linear_3053_15409)" fill-opacity="0.5"/>
<path d="M125.155 132.748C122.388 132.863 119.621 132.575 117.084 131.882C114.951 131.304 112.529 132.459 111.203 134.654L110.915 135.116C109.877 135.636 109.07 136.329 108.724 137.195L106.418 135.809C106.418 135.809 107.11 134.654 107.975 133.268C109.416 130.842 109.358 127.897 107.744 126.106C100.884 118.425 98.3468 105.719 104.862 94.8609L114.49 74.127L122.215 78.8051C122.157 78.7473 90.9097 121.197 125.155 132.748Z" fill="#FF9123"/>
<path d="M125.155 132.748C122.388 132.863 119.621 132.575 117.084 131.882C114.951 131.304 112.529 132.459 111.203 134.654L110.915 135.116C109.877 135.636 109.07 136.329 108.724 137.195L106.418 135.809C106.418 135.809 107.11 134.654 107.975 133.268C109.416 130.842 109.358 127.897 107.744 126.106C100.884 118.425 98.3468 105.719 104.862 94.8609L114.49 74.127L122.215 78.8051C122.157 78.7473 90.9097 121.197 125.155 132.748Z" fill="url(#paint6_linear_3053_15409)" fill-opacity="0.5"/>
<path d="M111.259 139.39L103.591 134.712C102.553 134.076 102.208 132.69 102.842 131.651C103.476 130.611 104.86 130.265 105.897 130.9L113.565 135.578C114.603 136.213 114.949 137.599 114.315 138.639C113.68 139.679 112.354 140.025 111.259 139.39Z" fill="#FF9123"/>
<path d="M111.259 139.39L103.591 134.712C102.553 134.076 102.208 132.69 102.842 131.651C103.476 130.611 104.86 130.265 105.897 130.9L113.565 135.578C114.603 136.213 114.949 137.599 114.315 138.639C113.68 139.679 112.354 140.025 111.259 139.39Z" fill="url(#paint7_linear_3053_15409)" fill-opacity="0.5"/>
<path d="M158.821 124.374C158.821 124.374 158.533 127.377 159.513 127.897C160.493 128.474 160.781 124.374 160.781 124.374C160.781 124.374 160.839 127.723 161.588 127.954C162.338 128.185 162.741 124.085 162.741 124.085C162.741 124.085 162.799 127.377 163.318 127.261C163.837 127.146 164.125 124.085 164.125 124.085C164.125 124.085 164.355 126.453 165.047 126.049C165.739 125.644 166.373 123.103 166.373 123.103L158.821 124.374Z" fill="#FFB27D"/>
<path d="M166.375 132.055C166.375 132.055 168.393 130.438 168.854 128.994C169.315 127.551 170.641 125.067 169.949 124.778C169.258 124.49 167.182 127.666 167.182 127.666L166.375 132.055Z" fill="#FFB27D"/>
<path d="M201.714 183.399L201.484 184.727C201.484 184.727 200.273 188.828 205.289 190.445C210.305 192.062 214.513 192.813 215.032 189.579C215.09 186.98 214.975 182.995 215.378 180.916C215.493 180.165 215.724 179.356 216.07 178.432L206.154 176.295L203.156 176.18L201.714 183.399Z" fill="#FFB27D"/>
<path d="M203.098 176.18L202.176 181.031C211.573 183.515 215.666 179.298 216.012 178.432L206.096 176.295L203.098 176.18Z" fill="#E2915A"/>
<path d="M217.454 176.411C214.514 182.359 206.558 179.876 203.156 178.49C202.234 178.085 201.6 177.797 201.6 177.797C200.562 177.161 200.447 175.256 200.792 172.888C201.484 168.209 204.079 161.741 205.289 160.297C207.134 158.045 210.075 155.908 217.627 160.182C225.237 164.513 221.144 168.787 217.454 176.411Z" fill="#FFB27D"/>
<path d="M204.484 153.655C204.484 153.655 208.116 154.406 212.844 153.713C216.706 153.193 220.511 156.023 221.722 157.178C221.722 156.947 221.722 156.601 221.607 156.254C221.607 156.254 222.126 156.889 222.01 157.525C222.068 157.583 222.068 157.64 222.068 157.64C222.068 157.64 222.818 157.698 223.221 158.045C223.221 158.045 222.933 157.929 222.76 158.102L222.702 158.16C227.314 162.261 225.47 170.808 223.163 172.31C220.454 174.1 215.784 178.952 215.784 178.952C215.784 178.952 215.957 177.161 216.879 175.198C217.859 173.234 216.072 172.714 214.054 171.155C212.036 169.596 214.689 167.459 213.132 165.322C211.633 163.185 204.138 162.087 204.542 160.875C202.236 159.142 204.426 153.944 204.484 153.655Z" fill="#583B18"/>
<path d="M203.5 194.257C203.5 194.257 199.003 224.232 165.276 245.081L162.105 254.264H174.27C174.27 254.264 204.48 228.852 206.498 195.181L203.5 194.257Z" fill="#ED7D2B"/>
<path d="M203.504 194.257V189.752L209.096 191.311L206.559 195.123L203.504 194.257Z" fill="#DB6516"/>
<path d="M201.718 183.399L198.49 186.172C198.49 186.172 197.567 190.041 199.758 194.257L206.33 190.503C206.273 190.503 202.41 188.655 201.718 183.399Z" fill="#F58719"/>
<path d="M206.27 190.503C206.27 190.503 206.904 194.026 208.633 195.758C208.633 195.758 216.013 194.488 218.088 190.907L214.975 186.056C214.975 186.113 214.226 189.405 206.27 190.503Z" fill="#F58719"/>
<path d="M250.546 268.241C250.546 268.241 250.546 274.94 249.969 276.269C249.335 277.597 246.567 281.929 245.299 282.911C244.031 283.835 245.587 277.539 245.184 276.384C244.78 275.229 244.319 278.637 243.685 278.81C243.108 278.925 242.935 275.922 242.82 274.825C242.705 273.728 245.357 270.724 246.106 268.299C246.913 265.815 250.546 268.241 250.546 268.241Z" fill="#FFB27D"/>
<path d="M223.793 192.466C223.793 192.466 230.308 194.257 234.69 203.96C239.302 214.124 251.64 236.764 252.101 239.883C252.562 243.002 251.294 272.168 251.294 272.168C251.294 272.168 245.874 272.399 244.203 269.8C244.203 269.8 242.3 244.215 241.493 242.828C240.686 241.442 219.354 216.03 221.141 209.562C222.986 203.035 223.793 192.466 223.793 192.466Z" fill="#FF9123"/>
<path d="M223.793 192.466C223.793 192.466 230.308 194.257 234.69 203.96C239.302 214.124 251.64 236.764 252.101 239.883C252.562 243.002 251.294 272.168 251.294 272.168C251.294 272.168 245.874 272.399 244.203 269.8C244.203 269.8 242.3 244.215 241.493 242.828C240.686 241.442 219.354 216.03 221.141 209.562C222.986 203.035 223.793 192.466 223.793 192.466Z" fill="url(#paint8_linear_3053_15409)" fill-opacity="0.5"/>
<path d="M232.272 269.222C230.657 270.608 228.467 271.821 225.584 272.63C224.892 272.861 224.2 272.919 223.566 272.861C211.69 271.648 213.477 225.329 219.242 221.921C225.296 218.34 227.487 223.769 227.487 223.769C227.429 235.84 228.178 250.452 232.445 265.815C232.791 267.201 232.733 268.298 232.272 269.222Z" fill="#FF9123"/>
<path d="M232.272 269.222C230.657 270.608 228.467 271.821 225.584 272.63C224.892 272.861 224.2 272.919 223.566 272.861C211.69 271.648 213.477 225.329 219.242 221.921C225.296 218.34 227.487 223.769 227.487 223.769C227.429 235.84 228.178 250.452 232.445 265.815C232.791 267.201 232.733 268.298 232.272 269.222Z" fill="url(#paint9_linear_3053_15409)" fill-opacity="0.5"/>
<path d="M198.141 349.848C198.198 349.501 198.314 349.097 198.429 348.693C198.314 349.039 198.198 349.444 198.141 349.848Z" fill="#233862"/>
<path d="M198.719 347.365C202.351 330.096 198.43 283.892 200.16 282.968C201.947 282.044 207.078 290.303 207.078 290.303C206.214 310.748 202.524 331.02 198.719 347.365Z" fill="#4F300C"/>
<path d="M109.702 382.595L108.664 375.029L113.046 371.333L114.487 381.382L109.702 382.595Z" fill="#FFB27D"/>
<path d="M124.345 389.352H106.357C106.357 389.352 105.954 386.638 106.876 384.501C107.799 382.48 109.182 381.267 109.298 379.765C110.451 380.92 111.834 381.729 114.429 381.325C114.775 381.844 116.504 384.617 117.542 385.367C118.753 386.291 123.999 385.945 124.345 389.352Z" fill="#583B18"/>
<path d="M120.711 280.427C119.558 289.899 118.578 298.793 117.771 307.11C113.562 351.408 114.427 378.494 114.427 378.494C114.427 378.494 114.139 379.303 111.545 379.303C110.103 379.303 108.662 379.014 108.662 379.014C108.662 379.014 99.3223 350.079 100.014 333.619C100.072 331.655 100.36 329.865 100.764 328.306C103.012 319.873 92.4616 287.646 103.935 275.633C115.407 263.62 121.288 276.038 120.711 280.427Z" fill="#FF9123"/>
<path d="M120.711 280.427C119.558 289.899 118.578 298.793 117.771 307.11C113.562 351.408 114.427 378.494 114.427 378.494C114.427 378.494 114.139 379.303 111.545 379.303C110.103 379.303 108.662 379.014 108.662 379.014C108.662 379.014 99.3223 350.079 100.014 333.619C100.072 331.655 100.36 329.865 100.764 328.306C103.012 319.873 92.4616 287.646 103.935 275.633C115.407 263.62 121.288 276.038 120.711 280.427Z" fill="#583B18"/>
<path d="M120.714 280.427C119.561 289.899 118.581 298.793 117.774 307.11L99.9594 333.619C100.017 331.655 100.305 329.865 100.709 328.306C102.957 319.874 92.4069 287.646 103.88 275.633C115.41 263.62 121.291 276.038 120.714 280.427Z" fill="#4F300C"/>
<path d="M134.899 190.099C134.899 190.099 134.438 187.962 133.977 186.287C133.746 185.536 135.245 180.742 136.283 180.165C137.321 179.587 140.03 182.822 139.281 185.305C138.877 186.576 138.243 190.734 138.243 190.734L134.899 190.099Z" fill="#FFB27D"/>
<path d="M134.896 190.099C134.896 190.099 134.32 188.828 133.801 188.655C133.282 188.424 132.763 186.402 132.359 185.594C132.359 185.594 132.705 185.074 133.339 185.767C133.743 186.171 134.608 187.384 134.608 187.384L134.896 190.099Z" fill="#FFB27D"/>
<path d="M60.6976 197.376C60.5823 197.607 60.4094 198.011 60.2941 198.415C60.2941 198.3 60.2941 198.184 60.2941 198.127C60.2941 197.376 57.4691 193.217 56.2584 192.986C55.1053 192.755 53.4334 196.625 54.8747 198.762C55.6242 199.859 57.4691 203.613 57.4691 203.613L60.467 202.054C60.467 202.054 60.64 200.668 61.0435 200.321C61.4471 199.975 61.3895 197.838 61.5048 196.972C61.6201 196.972 61.1012 196.567 60.6976 197.376Z" fill="#FFB27D"/>
<path d="M79.6086 380.343C79.378 377.917 79.3203 371.506 79.3203 371.506C79.3203 371.506 85.8351 369.427 85.5468 370.871C84.3938 377.859 84.682 381.382 84.682 381.382L82.03 382.942L79.6086 380.343Z" fill="#FFB27D"/>
<path d="M115.294 279.965C115.294 279.965 90.2153 348.808 85.2572 378.725C85.2572 378.725 84.1041 379.534 81.971 379.245C79.5496 378.956 78.9154 377.281 78.9154 377.281C78.9154 377.281 74.3609 341.474 83.4123 329.056C89.5811 320.509 80.7603 283.026 95.1734 280.023C109.587 276.962 115.294 279.965 115.294 279.965Z" fill="#FF9123"/>
<path d="M115.294 279.965C115.294 279.965 90.2153 348.808 85.2572 378.725C85.2572 378.725 84.1041 379.534 81.971 379.245C79.5496 378.956 78.9154 377.281 78.9154 377.281C78.9154 377.281 74.3609 341.474 83.4123 329.056C89.5811 320.509 80.7603 283.026 95.1734 280.023C109.587 276.962 115.294 279.965 115.294 279.965Z" fill="#583B18"/>
<path d="M110.855 213.72C110.855 213.663 110.855 213.663 110.855 213.605C110.682 213.027 110.567 212.392 110.394 211.815C109.875 210.024 109.241 208.292 108.549 206.732C108.146 205.866 107.742 205.057 107.339 204.306C107.281 204.191 107.223 204.075 107.166 203.96C106.186 202.343 105.205 201.188 104.283 200.841C102.669 200.206 100.824 200.379 99.5555 200.668C99.8438 200.264 100.478 200.09 100.478 200.09C99.6708 200.09 98.0565 201.13 98.0565 201.13C86.526 198.531 87.1602 214.933 87.9673 218.63C88.7745 222.326 85.027 224.116 79.7807 227.928C69.7491 235.147 69.9221 242.829 69.9221 242.829C70.0374 242.887 70.095 242.887 70.2103 242.944C70.6139 241.962 71.4787 240.057 72.3435 239.652C72.3435 239.768 71.594 242.194 71.3634 243.522C72.8623 244.388 74.9955 245.659 77.3016 247.16C80.3572 249.124 83.7587 251.377 86.4684 253.225C86.3531 252.474 86.2377 251.434 86.4107 250.799L87.2755 253.456L87.3908 253.802C89.1204 254.957 90.504 255.939 91.1959 256.401C91.2535 256.459 91.3112 256.517 91.3688 256.517C91.5994 256.632 91.6571 256.748 91.6571 256.748C91.4265 255.824 92.4642 253.34 94.1362 250.221C94.2515 249.99 94.3668 249.759 94.4821 249.586C95.0009 248.604 95.6351 247.565 96.2693 246.467C96.4999 246.063 96.7305 245.717 97.0188 245.312C97.1917 245.023 97.4223 244.677 97.653 244.388C98.1718 243.637 98.6331 242.887 99.1519 242.078C100.478 240.114 101.919 238.093 103.303 236.303C105.321 233.646 107.339 231.393 109.011 229.892C109.068 229.776 109.126 229.661 109.183 229.545C109.472 228.91 109.645 228.275 109.818 227.582C109.875 227.351 109.933 227.177 109.933 226.946C110.337 224.752 110.337 222.557 110.337 222.037C110.452 224.174 110.394 225.791 110.279 227.004C110.221 227.293 110.221 227.524 110.164 227.755C110.048 228.275 109.991 228.679 109.875 229.083C110.164 228.737 110.394 228.39 110.625 227.986C110.74 227.697 110.913 227.466 111.028 227.12C112.412 223.712 112.008 218.572 110.855 213.72Z" fill="#583B18"/>
<path d="M108.719 230.296C108.777 230.296 105.491 232.664 102.724 232.375C100.129 232.086 97.9961 229.025 97.9961 229.025C99.0338 228.679 99.0915 227.119 98.1691 220.882H98.6879L106.99 221.286C106.99 221.286 107.163 223.885 107.509 226.253C107.797 228.274 108.201 230.123 108.719 230.296Z" fill="#FFB27D"/>
<path d="M106.934 221.286C106.934 221.286 107.107 223.885 107.453 226.253C102.898 226.773 99.9002 223.019 98.5742 220.882L106.934 221.286Z" fill="#ED975D"/>
<path d="M97.6506 220.131C97.6506 220.131 94.7103 216.724 93.6725 213.605C92.9231 211.353 92.8078 202.747 101.513 202.689C101.513 202.689 104.05 202.574 106.587 203.787C108.605 204.769 111.66 207.079 109.815 214.933L109.412 217.532L97.6506 220.131Z" fill="#583B18"/>
<path d="M121.81 278.637C121.81 278.637 110.971 285.105 97.4229 281.755C97.2499 281.698 86.2383 279.965 86.2383 279.965C86.4112 279.445 87.8526 270.897 88.0255 270.435C90.4469 264.198 94.8285 230.411 98.5183 228.737C99.4407 229.776 102.15 230.469 104.456 230.238C107.109 230.007 107.973 228.852 107.743 227.639C110.683 229.025 112.931 230.296 112.931 230.296C115.583 234.339 121.81 278.637 121.81 278.637Z" fill="white"/>
<path d="M108.777 223.308C108.777 223.308 98.1112 225.098 97.1311 218.399C96.151 211.699 94.0755 207.483 100.879 206.039C107.624 204.653 109.353 206.963 110.218 209.1C111.083 211.295 111.544 222.673 108.777 223.308Z" fill="#FFB27D"/>
<path d="M105.724 205.173C105.724 205.173 103.937 213.432 99.6133 215.28C95.2894 217.128 93.1562 216.204 93.1562 216.204C93.1562 216.204 96.2118 212.97 96.2118 208.061C96.2118 208.003 102.957 201.765 105.724 205.173Z" fill="#583B18"/>
<path d="M105.09 205.924C105.09 205.924 107.511 207.368 108.318 208.985C109.126 210.602 109.875 214.067 110.855 213.778C110.855 213.778 112.296 208.118 109.356 205.462C106.243 202.689 105.09 205.924 105.09 205.924Z" fill="#583B18"/>
<path d="M138.298 190.272C137.837 190.099 137.203 189.752 136.396 189.694C135.646 189.637 134.724 189.868 134.724 189.868C134.724 189.868 131.726 208.638 131.495 209.62C131.264 210.602 118.581 224.925 115.179 224.867C112.066 224.809 108.434 227.177 107.742 227.639C107.742 227.639 114.949 242.886 115.295 245.716C115.698 248.835 119.388 296.772 119.388 296.772C119.388 296.772 119.157 299.024 123.308 297.811C127.459 296.598 128.497 295.616 128.497 295.616C128.497 295.616 124.692 257.845 123.885 246.121C123.77 244.561 123.539 243.06 123.135 241.731C122.79 240.461 123.078 239.075 123.827 237.977C129.074 230.758 137.376 219.034 137.837 216.55C138.586 212.912 138.298 190.272 138.298 190.272Z" fill="#FF9123"/>
<path d="M138.298 190.272C137.837 190.099 137.203 189.752 136.396 189.694C135.646 189.637 134.724 189.868 134.724 189.868C134.724 189.868 131.726 208.638 131.495 209.62C131.264 210.602 118.581 224.925 115.179 224.867C112.066 224.809 108.434 227.177 107.742 227.639C107.742 227.639 114.949 242.886 115.295 245.716C115.698 248.835 119.388 296.772 119.388 296.772C119.388 296.772 119.157 299.024 123.308 297.811C127.459 296.598 128.497 295.616 128.497 295.616C128.497 295.616 124.692 257.845 123.885 246.121C123.77 244.561 123.539 243.06 123.135 241.731C122.79 240.461 123.078 239.075 123.827 237.977C129.074 230.758 137.376 219.034 137.837 216.55C138.586 212.912 138.298 190.272 138.298 190.272Z" fill="url(#paint10_linear_3053_15409)" fill-opacity="0.5"/>
<path d="M94.5403 389.352H76.5527C76.5527 389.352 76.1492 386.638 77.0716 384.501C77.994 382.48 79.3777 381.267 79.493 379.765C80.6461 380.92 82.0297 381.729 84.6241 381.325C84.97 381.844 86.6996 384.617 87.7373 385.367C88.948 386.291 94.1944 385.945 94.5403 389.352Z" fill="#583B18"/>
<path d="M106.877 247.218C106.3 243.464 98.5174 228.505 98.5174 228.505C98.5174 228.505 93.6169 227.061 90.3884 228.217C87.1598 229.372 70.5559 219.958 69.9794 219.091C69.4605 218.225 60.5243 201.592 60.5243 201.592C60.5243 201.592 59.7749 201.187 58.6218 201.765C57.4688 202.4 57.4688 203.555 57.4688 203.555C57.4688 203.555 64.3294 224.52 66.1743 227.755C67.2697 229.718 76.5518 236.533 83.7583 241.616C85.142 242.598 85.8338 244.272 85.6032 245.89C84.6231 253.051 84.3925 257.094 83.2971 269.396C82.3747 279.618 82.0288 299.313 82.0288 299.313C82.0288 299.313 90.1001 302.085 95.6348 302.489C101.169 302.836 102.38 297.002 102.38 297.002C102.38 297.002 107.511 251.03 106.877 247.218Z" fill="#FF9123"/>
<path d="M106.877 247.218C106.3 243.464 98.5174 228.505 98.5174 228.505C98.5174 228.505 93.6169 227.061 90.3884 228.217C87.1598 229.372 70.5559 219.958 69.9794 219.091C69.4605 218.225 60.5243 201.592 60.5243 201.592C60.5243 201.592 59.7749 201.187 58.6218 201.765C57.4688 202.4 57.4688 203.555 57.4688 203.555C57.4688 203.555 64.3294 224.52 66.1743 227.755C67.2697 229.718 76.5518 236.533 83.7583 241.616C85.142 242.598 85.8338 244.272 85.6032 245.89C84.6231 253.051 84.3925 257.094 83.2971 269.396C82.3747 279.618 82.0288 299.313 82.0288 299.313C82.0288 299.313 90.1001 302.085 95.6348 302.489C101.169 302.836 102.38 297.002 102.38 297.002C102.38 297.002 107.511 251.03 106.877 247.218Z" fill="url(#paint11_linear_3053_15409)" fill-opacity="0.5"/>
<path d="M313.1 218.629C313.1 218.629 316.387 224.116 310.16 227.524C310.16 227.524 314.945 229.256 316.617 228.621C316.617 228.621 316.214 229.025 315.868 229.198C315.868 229.198 320.365 230.642 322.613 229.834C324.862 229.025 329.704 207.194 316.387 206.097C316.387 206.097 305.894 202.342 303.703 214.067C301.512 225.791 297.477 224.636 297.477 224.636C297.477 224.636 298.457 225.444 298.976 225.618C298.976 225.618 299.84 225.56 300.129 225.213C300.129 225.213 299.783 225.791 299.552 225.964C299.552 225.964 303.818 227.581 306.413 226.657C309.007 225.733 313.043 221.171 313.1 218.629Z" fill="#583B18"/>
<path d="M299.785 390.969H316.735C316.735 390.969 317.139 388.37 316.274 386.407C315.409 384.501 314.083 383.346 313.968 381.902C312.872 382.999 311.546 383.75 309.125 383.403C308.837 383.865 307.165 386.522 306.185 387.215C305.032 388.024 300.131 387.735 299.785 390.969Z" fill="#583B18"/>
<path d="M313.797 384.501C313.797 384.501 312.355 384.963 310.856 385.078C308.204 385.309 307.801 384.501 307.801 384.501C307.801 384.501 305.149 360.821 296.559 315.6C295.348 309.073 294.829 305.435 294.368 299.659C294.252 297.927 294.079 295.963 293.964 293.711C293.561 287.589 294.483 277.366 299.038 274.651C301.113 273.439 303.938 273.785 307.743 276.788C308.031 277.019 308.377 277.25 308.666 277.539C319.793 287.184 315.238 314.849 315.699 327.901C315.757 330.038 315.987 331.829 316.449 333.041C317.025 334.601 318.236 336.738 318.524 338.759C320.83 355.681 313.797 384.501 313.797 384.501Z" fill="#583B18"/>
<path d="M315.699 327.959L294.368 299.717C294.252 297.984 294.079 296.02 293.964 293.768C293.561 287.646 294.483 277.423 299.038 274.709L307.743 276.846C308.031 277.077 308.377 277.308 308.666 277.597C319.793 287.242 315.238 314.906 315.699 327.959Z" fill="#4F300C"/>
<path d="M375.944 355.219L368.91 339.799C368.91 339.799 366.373 340.492 364.99 342.109C363.606 343.668 362.626 343.38 359.57 341.243C360.723 343.033 360.896 344.13 361.588 346.498C362.165 346.556 365.393 349.675 368.679 350.541C370.005 350.888 372.888 356.259 375.944 355.219Z" fill="#583B18"/>
<path d="M302.032 281.466C302.032 281.466 317.195 334.37 322.787 337.777C328.38 341.185 357.609 345.863 363.548 348.404C363.548 348.404 364.297 347.364 363.836 345.17C363.721 344.65 362.913 342.917 362.913 342.917C362.913 342.917 344.753 329.229 332.761 327.843C329.821 327.497 338.815 282.102 318.752 280.311C300.418 278.636 302.032 281.466 302.032 281.466Z" fill="#583B18"/>
<path d="M280.355 194.719C280.355 194.719 280.758 192.697 281.22 191.138C281.45 190.445 280.009 185.94 279.029 185.363C278.049 184.785 275.512 187.846 276.204 190.214C276.55 191.427 277.184 195.354 277.184 195.354L280.355 194.719Z" fill="#FFB27D"/>
<path d="M280.355 194.719C280.355 194.719 280.874 193.564 281.393 193.333C281.854 193.159 282.373 191.196 282.719 190.445C282.719 190.445 282.373 189.925 281.797 190.56C281.451 190.965 280.644 192.12 280.644 192.12L280.355 194.719Z" fill="#FFB27D"/>
<path d="M350.287 201.592C350.402 201.823 350.517 202.169 350.69 202.574C350.69 202.458 350.69 202.4 350.69 202.285C350.69 201.592 353.4 197.664 354.495 197.433C355.591 197.202 357.147 200.841 355.764 202.862C355.072 203.902 353.342 207.483 353.342 207.483L350.46 205.981C350.46 205.981 350.287 204.71 349.883 204.364C349.48 204.017 349.537 202.054 349.422 201.187C349.48 201.187 349.941 200.783 350.287 201.592Z" fill="#FFB27D"/>
<path d="M305.032 232.606C304.974 232.606 308.088 234.859 310.682 234.512C313.161 234.223 315.121 231.393 315.121 231.336C314.141 230.989 314.083 229.545 314.948 223.654H314.487L306.646 224.059C306.646 224.059 306.473 226.484 306.127 228.737C305.897 230.7 305.493 232.491 305.032 232.606Z" fill="#FFB27D"/>
<path d="M306.702 224.116C306.702 224.116 306.53 226.542 306.184 228.794C310.45 229.314 313.275 225.733 314.543 223.712L306.702 224.116Z" fill="#ED975D"/>
<path d="M315.465 223.018C315.465 223.018 318.233 219.842 319.213 216.896C319.905 214.817 320.02 206.616 311.833 206.558C311.833 206.558 309.469 206.443 307.048 207.598C305.146 208.522 302.263 210.717 303.992 218.109L304.396 220.593L315.465 223.018Z" fill="#583B18"/>
<path d="M295.23 279.445C295.23 279.445 302.898 284.296 315.755 281.177C315.928 281.119 323.019 280.022 323.019 280.022C322.846 279.56 315.351 267.143 315.178 266.681C312.93 260.79 318.176 232.721 314.717 231.162C313.852 232.143 311.316 232.779 309.125 232.606C306.646 232.374 305.781 231.277 306.011 230.122C303.244 231.45 301.111 232.663 301.111 232.663C298.574 236.417 295.23 279.445 295.23 279.445Z" fill="#FFB27D"/>
<path d="M304.972 226.022C304.972 226.022 315.061 227.697 315.984 221.402C316.906 215.106 318.867 211.063 312.467 209.735C306.068 208.407 304.453 210.601 303.646 212.623C302.782 214.702 302.378 225.444 304.972 226.022Z" fill="#FFB27D"/>
<path d="M307.855 208.927C307.855 208.927 309.527 216.724 313.621 218.456C317.714 220.189 319.732 219.323 319.732 219.323C319.732 219.323 316.849 216.262 316.849 211.641C316.849 211.641 310.45 205.693 307.855 208.927Z" fill="#583B18"/>
<path d="M308.49 209.62C308.49 209.62 306.184 210.948 305.434 212.507C304.685 214.009 303.993 217.301 303.013 217.07C303.013 217.07 301.687 211.757 304.454 209.273C307.394 206.559 308.49 209.62 308.49 209.62Z" fill="#583B18"/>
<path d="M352.65 207.425C352.65 207.425 346.136 227.177 344.406 230.238C343.368 232.086 331.665 239.363 324.862 244.157C324.804 244.215 324.689 244.33 324.574 244.446C322.902 247.045 317.598 263.331 318.866 266.219C324.17 278.463 327.802 283.199 329.128 286.664C329.762 288.397 328.897 290.303 327.168 290.938C324.977 291.689 321.806 292.671 318.001 293.364C317.252 293.479 316.56 293.595 315.753 293.71C305.318 295.039 298.284 292.613 294.652 290.765C292.98 289.899 291.942 288.108 292.057 286.202C292.288 282.333 294.191 278.463 295.055 269.165C295.69 262.119 289.636 251.318 289.867 247.564C289.982 246.063 291.135 244.272 291.769 243.117C292.865 241.096 293.499 239.248 292.749 238.208C287.791 231.393 277.068 221.979 276.607 219.611C275.972 216.146 276.261 194.834 276.261 194.834C276.664 194.719 277.298 194.372 278.048 194.257C278.74 194.199 279.605 194.43 279.605 194.43C279.605 194.43 282.429 212.103 282.66 213.027C282.891 213.951 294.825 227.466 298.053 227.408C300.994 227.35 305.087 229.603 305.721 230.065C305.721 230.065 303.127 234.685 302.435 240.98C301.974 245.37 304.914 243.406 306.759 240.403C309.238 236.36 314.254 230.527 314.254 230.527C314.254 230.527 318.347 229.487 321.345 230.585C324.401 231.682 340.082 222.788 340.601 221.979C341.12 221.171 349.537 205.461 349.537 205.461C349.537 205.461 350.229 205.057 351.324 205.635C352.65 206.27 352.65 207.425 352.65 207.425Z" fill="#FF9123"/>
<path d="M352.65 207.425C352.65 207.425 346.136 227.177 344.406 230.238C343.368 232.086 331.665 239.363 324.862 244.157C324.804 244.215 324.689 244.33 324.574 244.446C322.902 247.045 317.598 263.331 318.866 266.219C324.17 278.463 327.802 283.199 329.128 286.664C329.762 288.397 328.897 290.303 327.168 290.938C324.977 291.689 321.806 292.671 318.001 293.364C317.252 293.479 316.56 293.595 315.753 293.71C305.318 295.039 298.284 292.613 294.652 290.765C292.98 289.899 291.942 288.108 292.057 286.202C292.288 282.333 294.191 278.463 295.055 269.165C295.69 262.119 289.636 251.318 289.867 247.564C289.982 246.063 291.135 244.272 291.769 243.117C292.865 241.096 293.499 239.248 292.749 238.208C287.791 231.393 277.068 221.979 276.607 219.611C275.972 216.146 276.261 194.834 276.261 194.834C276.664 194.719 277.298 194.372 278.048 194.257C278.74 194.199 279.605 194.43 279.605 194.43C279.605 194.43 282.429 212.103 282.66 213.027C282.891 213.951 294.825 227.466 298.053 227.408C300.994 227.35 305.087 229.603 305.721 230.065C305.721 230.065 303.127 234.685 302.435 240.98C301.974 245.37 304.914 243.406 306.759 240.403C309.238 236.36 314.254 230.527 314.254 230.527C314.254 230.527 318.347 229.487 321.345 230.585C324.401 231.682 340.082 222.788 340.601 221.979C341.12 221.171 349.537 205.461 349.537 205.461C349.537 205.461 350.229 205.057 351.324 205.635C352.65 206.27 352.65 207.425 352.65 207.425Z" fill="url(#paint12_linear_3053_15409)" fill-opacity="0.5"/>
<path d="M327.283 290.938C325.092 291.689 321.921 292.671 318.116 293.364C314.542 288.397 308.431 282.159 309.987 270.609C311.601 258.711 323.247 246.178 324.689 244.503C323.017 247.102 317.713 263.389 318.981 266.277C324.285 278.521 327.917 283.257 329.243 286.722C329.877 288.397 329.013 290.361 327.283 290.938Z" fill="#FF9123"/>
<path d="M327.283 290.938C325.092 291.689 321.921 292.671 318.116 293.364C314.542 288.397 308.431 282.159 309.987 270.609C311.601 258.711 323.247 246.178 324.689 244.503C323.017 247.102 317.713 263.389 318.981 266.277C324.285 278.521 327.917 283.257 329.243 286.722C329.877 288.397 329.013 290.361 327.283 290.938Z" fill="url(#paint13_linear_3053_15409)" fill-opacity="0.5"/>
<path d="M291.944 243.175C293.039 241.154 293.673 239.306 292.924 238.266C287.966 231.451 277.242 222.037 276.781 219.669C277.819 222.21 290.848 229.834 294.481 233.126C298.113 236.36 292.117 243.002 291.944 243.175Z" fill="#ED7D2B"/>
<g opacity="0.5">
<path d="M74.0707 149.036C74.0707 149.036 76.4921 152.385 76.2615 156.197C76.0886 159.027 73.5519 161.857 73.3789 161.973L77.3569 164.11C77.3569 164.11 80.2972 158.854 79.3171 154.522C79.0289 153.194 77.5875 151.057 76.5498 150.075C75.3967 148.978 74.0707 149.036 74.0707 149.036Z" fill="#6BB7BF"/>
<path d="M65.943 149.382L63.4062 143.838C63.4062 143.838 75.1097 144.242 79.0301 153.829C79.0878 153.772 70.8434 147.938 65.943 149.382Z" fill="#86D1CD"/>
<path d="M21.6646 290.996C21.6646 290.996 18.8973 288.86 18.1478 285.741C17.6289 283.373 18.9549 280.427 19.0702 280.312L15.3228 279.561C15.3228 279.561 14.2274 284.528 16.0723 287.878C16.6488 288.917 18.3207 290.303 19.4161 290.823C20.5692 291.343 21.6646 290.996 21.6646 290.996Z" fill="#6BB7BF"/>
<path d="M28.1791 288.686L31.5806 292.613C31.5806 292.613 21.9526 295.154 16.418 288.339C16.418 288.339 24.547 291.112 28.1791 288.686Z" fill="#86D1CD"/>
<path d="M450.368 261.632C450.368 261.632 450.137 257.935 456.998 256.203C460.054 255.394 466.972 256.838 462.59 263.595C458.036 270.641 454.058 268.1 454.058 268.1C454.058 268.1 463.513 260.707 459.708 257.3C455.557 253.546 453.943 260.938 453.943 260.938C453.943 260.938 452.271 260.881 450.368 261.632Z" fill="#F1A34F"/>
<path d="M211.628 119.177C211.628 119.177 215.491 113.632 221.371 117.56L224.946 114.094C224.946 114.094 221.602 111.553 213.876 116.116C208.803 119.119 211.628 119.177 211.628 119.177Z" fill="#5685D8"/>
<path d="M207.824 124.606C207.824 124.606 207.075 118.253 217.683 114.268C217.683 114.268 213.82 116.116 212.667 122.469L207.824 124.606Z" fill="#739AF0"/>
<path d="M250.547 90.8767C250.547 90.8767 253.718 88.913 254.006 86.4873C254.006 86.4873 257.062 86.6606 257.753 87.6424C257.753 87.6424 256.37 91.6275 254.698 92.3783C254.698 92.3783 250.95 92.6093 250.547 90.8767Z" fill="#F99746"/>
<path d="M287.039 153.54C287.039 153.54 290.383 151.404 290.786 148.862C290.786 148.862 294.073 149.036 294.765 150.133C294.765 150.133 293.266 154.407 291.478 155.215C291.478 155.1 287.5 155.389 287.039 153.54Z" fill="#86D1CD"/>
</g>
<path d="M352.592 251.203C352.592 251.203 350.632 248.835 349.594 248.489C348.556 248.142 346.538 246.583 346.25 247.218C345.962 247.853 347.634 248.835 347.518 249.586C347.461 250.337 342.33 251.492 342.387 252.3C342.445 253.109 343.598 254.957 345.5 254.784C347.461 254.553 352.361 253.398 353.341 253.917C354.379 254.437 352.592 251.203 352.592 251.203Z" fill="#FFB27D"/>
<path d="M404.998 239.652C402.115 243.522 398.771 246.583 395.312 248.951C384.358 256.632 372.424 257.787 372.424 257.787C369.599 256.863 360.778 255.939 355.647 255.073C353.399 254.726 351.842 254.38 351.727 254.091L351.842 249.586C351.842 249.586 370.867 248.604 373.98 247.103C378.939 242.829 383.32 237.284 386.203 232.895C388.624 229.199 391.334 226.542 395.773 224.925C402.23 222.615 413.934 227.697 404.998 239.652Z" fill="#FF9123"/>
<path d="M404.998 239.652C402.115 243.522 398.771 246.583 395.312 248.951C384.358 256.632 372.424 257.787 372.424 257.787C369.599 256.863 360.778 255.939 355.647 255.073C353.399 254.726 351.842 254.38 351.727 254.091L351.842 249.586C351.842 249.586 370.867 248.604 373.98 247.103C378.939 242.829 383.32 237.284 386.203 232.895C388.624 229.199 391.334 226.542 395.773 224.925C402.23 222.615 413.934 227.697 404.998 239.652Z" fill="url(#paint14_linear_3053_15409)" fill-opacity="0.5"/>
<path d="M396.29 246.178L395.31 249.008C384.356 256.632 372.421 257.787 372.421 257.787C370.115 257.787 360.776 255.939 355.645 255.073C355.875 255.073 369.769 256.17 372.825 255.881C375.938 255.535 390.351 243.06 390.351 243.06L396.29 246.178Z" fill="#FF9123"/>
<path d="M396.29 246.178L395.31 249.008C384.356 256.632 372.421 257.787 372.421 257.787C370.115 257.787 360.776 255.939 355.645 255.073C355.875 255.073 369.769 256.17 372.825 255.881C375.938 255.535 390.351 243.06 390.351 243.06L396.29 246.178Z" fill="url(#paint15_linear_3053_15409)" fill-opacity="0.5"/>
<path d="M383.895 389.353H404.88C406.379 388.313 404.476 378.322 404.476 378.322C404.476 378.322 398.769 376.127 397.731 380.574C396.751 385.021 390.409 386.407 387.065 386.927C384.817 387.332 384.125 388.602 383.895 389.353Z" fill="#583B18"/>
<path d="M415.027 389.353H436.013C437.512 388.313 435.609 378.322 435.609 378.322C435.609 378.322 429.902 376.127 428.864 380.574C427.884 385.021 421.542 386.407 418.198 386.927C416.007 387.332 415.258 388.602 415.027 389.353Z" fill="#583B18"/>
<path d="M389.551 287.358C389.551 287.358 390.473 299.14 391.626 313.347C393.125 332.638 397.219 380.401 397.219 380.401C397.219 380.401 399.871 382.653 405.809 381.44C405.809 381.44 410.825 364.98 412.324 346.152C412.324 345.863 412.381 345.517 412.381 345.228C413.765 326.054 415.956 285.741 415.956 285.741L389.551 287.358Z" fill="#583B18"/>
<path d="M389.199 283.315C389.199 283.315 390.468 299.197 391.563 313.405L412.26 346.21C412.26 345.921 412.318 345.575 412.318 345.286C413.702 326.111 415.892 285.798 415.892 285.798L389.199 283.315Z" fill="#4F300C"/>
<path d="M395.258 283.315C395.258 283.315 410.248 320.74 415.033 334.89C418.434 344.997 428.062 380.401 428.062 380.401C428.062 380.401 432.271 381.671 435.788 379.188C435.788 379.188 439.362 342.976 432.155 332.753C428.293 327.324 431.175 276.442 415.609 276.038C400.043 275.634 395.258 283.315 395.258 283.315Z" fill="#583B18"/>
<path d="M401.942 228.159C404.248 229.372 406.439 229.43 408.399 229.025C410.186 228.679 411.685 227.87 412.781 227.177C413.876 226.484 414.568 225.849 414.568 225.849C414.568 225.849 414.51 225.733 414.337 225.502C413.646 224.347 411.628 220.189 412.55 213.489C412.55 213.374 411.916 213.547 410.878 213.778C407.88 214.471 401.942 216.204 401.654 216.262C401.654 216.262 401.596 217.648 401.308 220.189C401.308 220.42 401.25 220.651 401.25 220.882C401.193 221.171 401.193 221.517 401.135 221.806C400.904 224.405 401.942 228.159 401.942 228.159Z" fill="#FFB27D"/>
<path d="M401.309 220.189C405.748 221.229 412.378 214.645 412.378 214.645C411.917 214.298 411.398 214.009 410.879 213.778C407.881 214.471 401.943 216.204 401.655 216.262C401.655 216.262 401.597 217.648 401.309 220.189Z" fill="#ED975D"/>
<path d="M399.811 215.857C399.811 215.857 401.656 216.492 403.962 216.839C407.363 217.301 411.86 217.012 413.244 212.912C415.608 205.981 418.663 201.823 411.687 198.935C407.94 197.433 405.576 197.318 403.962 197.895C402.578 198.415 401.713 199.397 401.079 200.379C399.696 202.573 396.986 214.644 399.811 215.857Z" fill="#FFB27D"/>
<path d="M395.602 200.957C399.637 203.844 405.23 201.014 406.959 201.765C408.689 202.516 408.977 205.461 409.035 206.386C409.092 207.31 409.208 208.118 411.571 207.541C411.975 207.425 412.263 207.483 412.436 207.598C413.416 208.176 412.148 211.006 411.802 211.583C411.802 211.583 411.283 213.605 412.436 214.587C412.609 214.702 414.973 215.742 420.623 207.021C421.545 205.635 422.352 202.574 420.969 199.571C419.585 196.625 413.82 193.737 408.919 192.178C407.074 191.6 405.748 191.6 404.653 192.005C402.866 192.64 401.943 194.315 401.021 196.047C399.407 198.935 395.602 200.957 395.602 200.957Z" fill="#A9453D"/>
<path d="M421.543 285.914C421.543 285.914 419.583 286.318 417.104 286.78C414.683 287.184 411.8 287.589 409.725 287.589C399.174 287.531 390.353 284.412 390.353 284.412C388.393 284.412 387.471 281.351 387.125 277.077C386.894 274.189 386.952 270.724 387.125 267.259C387.182 266.162 387.24 265.006 387.298 263.909C387.413 261.714 387.586 259.635 387.759 257.845C387.874 256.112 388.047 254.611 388.105 253.456C388.105 253.456 387.817 245.254 387.932 238.035C387.99 232.837 390.93 228.101 391.622 227.35C393.755 225.098 399.866 223.712 401.077 223.481C401.192 223.481 401.192 223.481 401.192 223.481C406.208 226.311 412.953 222.499 412.953 222.499C413.126 222.499 413.241 222.557 413.414 222.615C413.933 222.499 419.007 223.25 420.16 223.885C423.1 225.502 424.772 243.175 424.772 243.175C425.233 255.188 424.657 274.421 425.579 281.813C426.04 284.123 423.677 285.452 421.543 285.914Z" fill="#FF9123"/>
<path d="M421.543 285.914C421.543 285.914 419.583 286.318 417.104 286.78C414.683 287.184 411.8 287.589 409.725 287.589C399.174 287.531 390.353 284.412 390.353 284.412C388.393 284.412 387.471 281.351 387.125 277.077C386.894 274.189 386.952 270.724 387.125 267.259C387.182 266.162 387.24 265.006 387.298 263.909C387.413 261.714 387.586 259.635 387.759 257.845C387.874 256.112 388.047 254.611 388.105 253.456C388.105 253.456 387.817 245.254 387.932 238.035C387.99 232.837 390.93 228.101 391.622 227.35C393.755 225.098 399.866 223.712 401.077 223.481C401.192 223.481 401.192 223.481 401.192 223.481C406.208 226.311 412.953 222.499 412.953 222.499C413.126 222.499 413.241 222.557 413.414 222.615C413.933 222.499 419.007 223.25 420.16 223.885C423.1 225.502 424.772 243.175 424.772 243.175C425.233 255.188 424.657 274.421 425.579 281.813C426.04 284.123 423.677 285.452 421.543 285.914Z" fill="url(#paint16_linear_3053_15409)" fill-opacity="0.5"/>
<path d="M413.474 222.499C413.474 222.499 405.979 230.238 400.618 228.621C400.618 228.621 399.926 227.581 402.29 227.235C404.769 226.946 407.363 227.062 413.474 222.499Z" fill="#FF9123"/>
<path d="M413.474 222.499C413.474 222.499 405.979 230.238 400.618 228.621C400.618 228.621 399.926 227.581 402.29 227.235C404.769 226.946 407.363 227.062 413.474 222.499Z" fill="url(#paint17_linear_3053_15409)" fill-opacity="0.5"/>
<path d="M417.565 251.78C417.565 251.78 406.669 269.973 400.5 273.207C396.349 275.402 390.469 276.499 387.125 277.019C386.894 274.131 386.952 270.666 387.125 267.201C391.564 266.681 398.252 265.815 398.252 265.815L417.565 251.78Z" fill="#FF9123"/>
<path d="M417.565 251.78C417.565 251.78 406.669 269.973 400.5 273.207C396.349 275.402 390.469 276.499 387.125 277.019C386.894 274.131 386.952 270.666 387.125 267.201C391.564 266.681 398.252 265.815 398.252 265.815L417.565 251.78Z" fill="url(#paint18_linear_3053_15409)" fill-opacity="0.5"/>
<path d="M403.268 242.598L397.445 263.563C397.445 263.563 390.642 263.967 387.355 263.851C387.471 261.657 387.471 261.599 387.644 259.751C387.644 259.809 395.484 255.708 403.268 242.598Z" fill="#FF9123"/>
<path d="M403.268 242.598L397.445 263.563C397.445 263.563 390.642 263.967 387.355 263.851C387.471 261.657 387.471 261.599 387.644 259.751C387.644 259.809 395.484 255.708 403.268 242.598Z" fill="url(#paint19_linear_3053_15409)" fill-opacity="0.5"/>
<path d="M368.392 265.122C368.392 265.122 366.432 262.754 365.395 262.408C364.357 262.061 362.339 260.502 362.051 261.137C361.762 261.773 363.434 262.754 363.319 263.505C363.261 264.256 358.13 265.411 358.188 266.22C358.246 267.028 359.399 268.877 361.301 268.703C363.261 268.472 368.162 267.317 369.142 267.837C370.18 268.357 368.392 265.122 368.392 265.122Z" fill="#FFB27D"/>
<path d="M425.464 236.072C425.464 236.072 425.81 247.161 400.558 269.454L395.485 260.329C394.562 259.809 411.801 222.615 416.759 222.904C426.387 223.481 425.464 236.072 425.464 236.072Z" fill="#FF9123"/>
<path d="M425.464 236.072C425.464 236.072 425.81 247.161 400.558 269.454L395.485 260.329C394.562 259.809 411.801 222.615 416.759 222.904C426.387 223.481 425.464 236.072 425.464 236.072Z" fill="url(#paint20_linear_3053_15409)" fill-opacity="0.5"/>
<path d="M398.541 259.231C398.541 259.231 369.83 262.523 368.792 263.101C367.755 263.678 365.448 265.873 366.198 268.703C366.198 268.703 381.072 270.551 389.259 270.551C396.293 270.493 400.905 269.396 400.905 269.396L398.541 259.231Z" fill="#FF9123"/>
<path d="M398.541 259.231C398.541 259.231 369.83 262.523 368.792 263.101C367.755 263.678 365.448 265.873 366.198 268.703C366.198 268.703 381.072 270.551 389.259 270.551C396.293 270.493 400.905 269.396 400.905 269.396L398.541 259.231Z" fill="url(#paint21_linear_3053_15409)" fill-opacity="0.5"/>
<g opacity="0.8">
<path fill-rule="evenodd" clip-rule="evenodd" d="M131.864 96.4542C131.196 96.0618 130.341 96.2797 129.954 96.9409C129.566 97.602 129.794 98.4561 130.462 98.8485C131.129 99.2409 131.984 99.023 132.372 98.3619C132.759 97.7007 132.531 96.8466 131.864 96.4542ZM121.097 114.839C120.429 114.446 119.574 114.664 119.187 115.325C118.8 115.986 119.027 116.841 119.695 117.233C120.363 117.625 121.218 117.407 121.605 116.746C121.992 116.085 121.765 115.231 121.097 114.839ZM133.836 111.521C134.223 110.859 135.078 110.642 135.746 111.034C136.413 111.426 136.641 112.28 136.254 112.942C135.866 113.603 135.011 113.821 134.343 113.428C133.676 113.036 133.448 112.182 133.836 111.521ZM117.179 100.123C116.511 99.7302 115.656 99.9481 115.269 100.609C114.882 101.27 115.109 102.124 115.777 102.517C116.444 102.909 117.3 102.691 117.687 102.03C118.074 101.369 117.847 100.515 117.179 100.123Z" fill="#472A02" fill-opacity="0.35"/>
<path fill-rule="evenodd" clip-rule="evenodd" d="M131.825 96.0612C131.157 95.6688 130.302 95.8866 129.915 96.5478C129.527 97.2089 129.755 98.063 130.422 98.4554C131.09 98.8478 131.945 98.63 132.333 97.9688C132.72 97.3076 132.492 96.4536 131.825 96.0612ZM121.058 114.446C120.39 114.053 119.535 114.271 119.148 114.932C118.761 115.593 118.988 116.447 119.656 116.84C120.323 117.232 121.179 117.014 121.566 116.353C121.953 115.692 121.726 114.838 121.058 114.446ZM133.796 111.128C134.184 110.466 135.039 110.249 135.707 110.641C136.374 111.033 136.602 111.887 136.214 112.549C135.827 113.21 134.972 113.428 134.304 113.035C133.637 112.643 133.409 111.789 133.796 111.128ZM117.14 99.7296C116.472 99.3372 115.617 99.555 115.23 100.216C114.842 100.877 115.07 101.731 115.738 102.124C116.405 102.516 117.26 102.298 117.648 101.637C118.035 100.976 117.807 100.122 117.14 99.7296Z" fill="white"/>
<path fill-rule="evenodd" clip-rule="evenodd" d="M137.608 103.877C137.41 103.132 136.644 102.682 135.898 102.872C135.152 103.062 134.708 103.82 134.907 104.565C135.105 105.31 135.871 105.76 136.617 105.57C137.363 105.38 137.806 104.622 137.608 103.877ZM116.866 109.161C116.668 108.416 115.902 107.966 115.156 108.157C114.41 108.347 113.967 109.105 114.165 109.85C114.363 110.594 115.129 111.044 115.875 110.854C116.621 110.664 117.065 109.906 116.866 109.161ZM128.321 115.812C129.066 115.622 129.832 116.071 130.03 116.816C130.229 117.561 129.785 118.319 129.039 118.509C128.293 118.699 127.527 118.25 127.329 117.505C127.131 116.76 127.575 116.002 128.321 115.812ZM124.515 96.1011C124.316 95.3562 123.551 94.9063 122.805 95.0963C122.059 95.2864 121.615 96.0443 121.814 96.7893C122.012 97.5343 122.777 97.9842 123.523 97.7941C124.269 97.6041 124.713 96.8461 124.515 96.1011Z" fill="#472A02" fill-opacity="0.35"/>
<path fill-rule="evenodd" clip-rule="evenodd" d="M137.538 103.534C137.339 102.789 136.574 102.339 135.828 102.529C135.082 102.719 134.638 103.477 134.836 104.222C135.035 104.967 135.8 105.417 136.546 105.227C137.292 105.037 137.736 104.279 137.538 103.534ZM116.796 108.818C116.598 108.073 115.832 107.623 115.086 107.813C114.34 108.003 113.896 108.761 114.095 109.506C114.293 110.251 115.058 110.701 115.804 110.511C116.55 110.321 116.994 109.563 116.796 108.818ZM128.25 115.468C128.996 115.278 129.762 115.728 129.96 116.473C130.158 117.218 129.714 117.976 128.969 118.166C128.223 118.356 127.457 117.906 127.259 117.161C127.06 116.416 127.504 115.658 128.25 115.468ZM124.444 95.7579C124.246 95.0129 123.481 94.563 122.735 94.7531C121.989 94.9431 121.545 95.7011 121.743 96.4461C121.942 97.191 122.707 97.6409 123.453 97.4509C124.199 97.2608 124.643 96.5029 124.444 95.7579Z" fill="white"/>
<path d="M120.577 103.864L122.413 110.432C122.459 110.604 122.624 110.701 122.797 110.658L134.628 107.7C134.801 107.656 134.896 107.494 134.849 107.321L134.125 104.715C134.079 104.542 133.914 104.446 133.741 104.489L124.94 106.683C124.859 106.381 123.894 103.051 123.894 103.051C123.848 102.878 123.683 102.782 123.51 102.825L120.783 103.513C120.626 103.529 120.531 103.692 120.577 103.864Z" fill="#472A02" fill-opacity="0.35"/>
<path d="M120.741 103.255L122.577 109.823C122.623 109.996 122.788 110.092 122.961 110.049L134.792 107.091C134.965 107.048 135.06 106.885 135.013 106.713L134.289 104.106C134.243 103.933 134.078 103.837 133.905 103.88L125.104 106.074C125.023 105.772 124.058 102.442 124.058 102.442C124.012 102.269 123.847 102.173 123.674 102.216L120.947 102.904C120.79 102.92 120.695 103.083 120.741 103.255Z" fill="white"/>
</g>
<defs>
<linearGradient id="paint0_linear_3053_15409" x1="180.589" y1="142.021" x2="255.417" y2="235.343" gradientUnits="userSpaceOnUse">
<stop stop-color="#FFCA00"/>
<stop offset="0.791667" stop-color="#FF9000"/>
</linearGradient>
<linearGradient id="paint1_linear_3053_15409" x1="97.6228" y1="133.958" x2="106.192" y2="153.2" gradientUnits="userSpaceOnUse">
<stop stop-color="#FFCA00"/>
<stop offset="0.791667" stop-color="#FF9000"/>
</linearGradient>
<linearGradient id="paint2_linear_3053_15409" x1="100.726" y1="135.3" x2="109.611" y2="152.083" gradientUnits="userSpaceOnUse">
<stop stop-color="#FFCA00"/>
<stop offset="0.791667" stop-color="#FF9000"/>
</linearGradient>
<linearGradient id="paint3_linear_3053_15409" x1="118.052" y1="78.6725" x2="143.389" y2="136.647" gradientUnits="userSpaceOnUse">
<stop stop-color="#FFCA00"/>
<stop offset="0.791667" stop-color="#FF9000"/>
</linearGradient>
<linearGradient id="paint4_linear_3053_15409" x1="95.7455" y1="71.8944" x2="117.412" y2="99.2889" gradientUnits="userSpaceOnUse">
<stop stop-color="#FFCA00"/>
<stop offset="0.791667" stop-color="#FF9000"/>
</linearGradient>
<linearGradient id="paint5_linear_3053_15409" x1="144.654" y1="108.217" x2="150.635" y2="132.196" gradientUnits="userSpaceOnUse">
<stop stop-color="#FFCA00"/>
<stop offset="0.791667" stop-color="#FF9000"/>
</linearGradient>
<linearGradient id="paint6_linear_3053_15409" x1="107.893" y1="78.5863" x2="142.09" y2="110.183" gradientUnits="userSpaceOnUse">
<stop stop-color="#FFCA00"/>
<stop offset="0.791667" stop-color="#FF9000"/>
</linearGradient>
<linearGradient id="paint7_linear_3053_15409" x1="105.948" y1="131.226" x2="108.767" y2="140.278" gradientUnits="userSpaceOnUse">
<stop stop-color="#FFCA00"/>
<stop offset="0.791667" stop-color="#FF9000"/>
</linearGradient>
<linearGradient id="paint8_linear_3053_15409" x1="229.85" y1="198.102" x2="273.139" y2="239.083" gradientUnits="userSpaceOnUse">
<stop stop-color="#FFCA00"/>
<stop offset="0.791667" stop-color="#FF9000"/>
</linearGradient>
<linearGradient id="paint9_linear_3053_15409" x1="219.82" y1="224.389" x2="247.724" y2="247.58" gradientUnits="userSpaceOnUse">
<stop stop-color="#FFCA00"/>
<stop offset="0.791667" stop-color="#FF9000"/>
</linearGradient>
<linearGradient id="paint10_linear_3053_15409" x1="116.4" y1="197.356" x2="171.367" y2="234.906" gradientUnits="userSpaceOnUse">
<stop stop-color="#FFCA00"/>
<stop offset="0.791667" stop-color="#FF9000"/>
</linearGradient>
<linearGradient id="paint11_linear_3053_15409" x1="71.4582" y1="208.599" x2="125.638" y2="272.806" gradientUnits="userSpaceOnUse">
<stop stop-color="#FFCA00"/>
<stop offset="0.791667" stop-color="#FF9000"/>
</linearGradient>
<linearGradient id="paint12_linear_3053_15409" x1="297.819" y1="201.307" x2="343.201" y2="285.442" gradientUnits="userSpaceOnUse">
<stop stop-color="#FFCA00"/>
<stop offset="0.791667" stop-color="#FF9000"/>
</linearGradient>
<linearGradient id="paint13_linear_3053_15409" x1="315.314" y1="247.958" x2="341.882" y2="273.91" gradientUnits="userSpaceOnUse">
<stop stop-color="#FFCA00"/>
<stop offset="0.791667" stop-color="#FF9000"/>
</linearGradient>
<linearGradient id="paint14_linear_3053_15409" x1="367.709" y1="226.743" x2="376.083" y2="261.039" gradientUnits="userSpaceOnUse">
<stop stop-color="#FFCA00"/>
<stop offset="0.791667" stop-color="#FF9000"/>
</linearGradient>
<linearGradient id="paint15_linear_3053_15409" x1="367.14" y1="244.101" x2="369.485" y2="259.771" gradientUnits="userSpaceOnUse">
<stop stop-color="#FFCA00"/>
<stop offset="0.791667" stop-color="#FF9000"/>
</linearGradient>
<linearGradient id="paint16_linear_3053_15409" x1="397.908" y1="227.101" x2="431.096" y2="274.831" gradientUnits="userSpaceOnUse">
<stop stop-color="#FFCA00"/>
<stop offset="0.791667" stop-color="#FF9000"/>
</linearGradient>
<linearGradient id="paint17_linear_3053_15409" x1="404.186" y1="222.948" x2="405.528" y2="229.578" gradientUnits="userSpaceOnUse">
<stop stop-color="#FFCA00"/>
<stop offset="0.791667" stop-color="#FF9000"/>
</linearGradient>
<linearGradient id="paint18_linear_3053_15409" x1="395.625" y1="253.565" x2="404.008" y2="278.164" gradientUnits="userSpaceOnUse">
<stop stop-color="#FFCA00"/>
<stop offset="0.791667" stop-color="#FF9000"/>
</linearGradient>
<linearGradient id="paint19_linear_3053_15409" x1="391.856" y1="244.102" x2="401.65" y2="261.837" gradientUnits="userSpaceOnUse">
<stop stop-color="#FFCA00"/>
<stop offset="0.791667" stop-color="#FF9000"/>
</linearGradient>
<linearGradient id="paint20_linear_3053_15409" x1="403.945" y1="226.193" x2="426.939" y2="262.116" gradientUnits="userSpaceOnUse">
<stop stop-color="#FFCA00"/>
<stop offset="0.791667" stop-color="#FF9000"/>
</linearGradient>
<linearGradient id="paint21_linear_3053_15409" x1="375.908" y1="260.031" x2="377.531" y2="272.128" gradientUnits="userSpaceOnUse">
<stop stop-color="#FFCA00"/>
<stop offset="0.791667" stop-color="#FF9000"/>
</linearGradient>
</defs>
</svg>
