<svg width="52" height="52" viewBox="0 0 52 52" fill="none" xmlns="http://www.w3.org/2000/svg">
<circle cx="26" cy="26" r="26" fill="#E6F8F3"/>
<path d="M35 18.0415C35 17.4332 34.7978 17.129 34.0899 17.129H27.3146C27.2135 17.129 27.1124 17.129 27.0112 17.0276C26.9101 16.6221 26.809 16.318 26.7079 16.1152C26.809 16.0138 26.7079 15.9124 26.7079 15.8111C26.7079 15.7097 26.7079 15.7097 26.7079 15.6083C26.6067 15.2028 26.3034 15 26 15C25.6966 15 25.3933 15.2028 25.2921 15.5069L25.191 15.9124C25.0899 16.2166 24.9888 16.5207 24.8876 16.9263C24.8876 17.0276 24.8876 17.129 24.6854 17.129H17.809C17.2022 17.129 17 17.3318 17 17.9401V29.3963C17 29.9032 17.2022 30.2074 17.809 30.2074H20.8427L19.8315 33.553C19.7303 33.9585 19.5281 34.4654 19.427 34.871C19.2247 35.2765 19.1236 35.682 19.0225 36.0876C18.9213 36.1889 19.0225 36.4931 19.1236 36.6959C19.2247 36.8986 19.427 37 19.6292 37C19.8315 37 19.9326 37 20.1348 36.8986C20.3371 36.7972 20.4382 36.5945 20.5393 36.3917L21.0449 34.3641C21.4494 33.0461 21.8539 31.7281 22.2584 30.4101C22.2584 30.2074 22.4607 30.2074 22.5618 30.2074H29.5393V30.3088C29.6404 30.8157 29.8427 31.424 30.0449 31.9309C30.2472 32.4378 30.3483 33.0461 30.5506 33.553L30.6517 33.8571C30.6517 34.0599 30.7528 34.1613 30.8539 34.3641C30.9551 34.5668 31.0562 34.871 31.0562 35.1751C31.0562 35.3779 31.1573 35.5806 31.2584 35.7834C31.3596 35.9862 31.3596 36.1889 31.4607 36.3917C31.5618 36.5945 31.6629 36.7972 31.8652 36.8986C31.9663 36.8986 31.9663 36.8986 32.0674 37H32.1685C32.2697 37 32.4719 37 32.4719 36.8986C32.7753 36.6959 32.8764 36.3917 32.7753 35.8848C32.573 35.1751 32.3708 34.4654 32.1685 33.7558C32.0674 33.2488 31.8652 32.7419 31.6629 32.1336L31.4607 31.3226C31.3596 30.9171 31.2584 30.5115 31.0562 30.106V30.2074H34.0899C34.6966 30.2074 35 29.9032 35 29.2949V18.0415ZM18.5169 28.6866V18.447H33.5843V28.6866H18.5169Z" fill="#00B884"/>
<path d="M26.999 22.8057C27.7493 22.8057 28.4714 22.7916 29.1982 22.8151C29.3857 22.8198 29.5921 22.9089 29.7515 23.012C29.9484 23.1433 30 23.3731 30 23.6123C29.9906 25.3754 28.6167 26.9745 26.8771 27.2512C24.5091 27.6263 22.4225 25.7834 22.5022 23.3919C22.5679 21.5208 24.3028 19.8186 26.1737 19.7999C26.6802 19.7952 26.999 20.1 27.0037 20.6064C27.0037 21.3286 26.999 22.0507 26.999 22.8057ZM25.4985 21.4833C24.5654 21.7834 23.8808 22.8713 24.0121 23.8139C24.1621 24.9065 25.0531 25.7506 26.1175 25.8022C27.1209 25.8537 28.1478 25.1644 28.3448 24.3063C27.6789 24.3063 27.0178 24.3063 26.3519 24.3063C25.7939 24.3063 25.5032 24.0108 25.5032 23.4481C25.4985 22.801 25.4985 22.1539 25.4985 21.4833Z" fill="#00B884"/>
</svg>
