<svg width="52" height="52" viewBox="0 0 52 52" fill="none" xmlns="http://www.w3.org/2000/svg">
<circle cx="26" cy="26" r="26" fill="#FAF5E8"/>
<path d="M34.2732 29.6997C32.5082 29.0739 30.6393 28.4482 28.8743 27.8224C28.3552 27.6139 28.0437 27.7181 27.8361 28.3439L25.3443 33.8713L22.9563 28.3439C22.7486 27.8224 22.4372 27.7181 21.918 27.8224C21.6066 27.9267 21.3989 28.031 21.0874 28.1353L20.5683 28.3439C19.8415 28.5525 19.2186 28.8653 18.4918 29.0739C17.765 29.2825 17.1421 29.5954 16.4153 29.804C16.2077 29.9082 16 30.1168 16 30.534V32.6198C16 33.767 16 35.0185 16 36.1657C16 36.4785 16.1038 36.7914 16.4153 36.8957C16.5191 36.8957 16.623 37 16.7268 37C16.8306 37 16.9344 37 17.0383 36.8957C17.2459 36.7914 17.3497 36.4785 17.3497 36.1657C17.3497 34.3927 17.3497 32.7241 17.3497 30.9512C17.3497 30.8469 17.3497 30.8469 17.4536 30.8469C17.8689 30.7426 18.388 30.534 18.8033 30.4297L19.0109 30.3254C19.6339 30.1168 20.153 29.9082 20.776 29.6997L21.918 29.2825C21.918 29.3868 22.0219 29.3868 22.0219 29.3868L24.7213 35.6442C24.8251 35.8528 24.929 36.0614 25.1366 36.1657C25.3443 36.27 25.4481 36.27 25.6557 36.1657C25.8634 36.0614 25.9672 35.9571 26.1749 35.6442C27.0055 33.767 27.8361 31.7855 28.7705 29.9082L28.9781 29.3868C28.9781 29.3868 28.9781 29.2825 29.082 29.2825L30.1202 29.5954C31.2623 30.0125 32.3005 30.3254 33.4426 30.7426C33.5464 30.7426 33.5464 30.8469 33.5464 30.9512C33.5464 32.6198 33.5464 34.2884 33.5464 36.0614C33.5464 36.27 33.6503 36.4785 33.6503 36.5828C33.7541 36.8957 34.1694 37 34.4809 36.8957C34.7923 36.7914 35 36.4785 35 36.1657V30.4297C34.8962 30.1168 34.6885 29.9082 34.2732 29.6997Z" fill="#FF9C11"/>
<path d="M23.1639 27.0924C23.8907 27.7181 24.6175 28.031 25.4481 28.031C26.1749 28.031 26.9016 27.8224 27.5246 27.301C28.0437 26.8838 28.459 26.4667 28.7705 25.8409C29.4973 24.5894 29.9126 23.1294 30.0164 21.2521C30.0164 21.0436 30.0164 20.9393 29.9126 20.7307C29.9126 20.3135 29.8087 19.8964 29.7049 19.5835C29.3934 18.0191 28.5628 16.8719 27.1093 16.4548C26.4863 16.0376 25.6557 15.9333 24.6175 16.0376C22.9563 16.2462 21.6066 17.3934 21.1913 19.1663C20.8798 20.7307 20.8798 22.3993 21.3989 24.068C21.8142 25.3195 22.3333 26.3624 23.1639 27.0924ZM26.4863 26.0495C25.7596 26.571 25.0328 26.571 24.306 26.0495C23.6831 25.6323 23.2678 24.9023 22.8525 23.9637C22.6448 23.2337 22.4372 22.1908 22.4372 21.1478V21.0436C22.4372 20.9393 22.4372 20.7307 22.4372 20.6264C22.4372 20.3135 22.541 19.8964 22.6448 19.5835C22.9563 18.4363 23.5792 17.7063 24.8251 17.602C25.3443 17.4977 25.8634 17.4977 26.3825 17.602C27.4208 17.8106 28.1475 18.5406 28.3552 19.5835C28.7705 21.4607 28.459 23.2337 27.5246 24.9023C27.2131 25.4238 26.9016 25.8409 26.4863 26.0495Z" fill="#FF9C11"/>
<path d="M31.0546 34.2884C30.4317 34.2884 29.8087 34.2884 29.1858 34.2884C28.7705 34.2884 28.459 34.6013 28.459 35.0185C28.459 35.4356 28.7705 35.7485 29.1858 35.7485C29.2896 35.7485 29.3934 35.7485 29.4973 35.7485C29.6011 35.7485 29.7049 35.7485 29.8087 35.7485H30.4317C30.6393 35.7485 30.847 35.7485 31.0546 35.7485C31.4699 35.7485 31.7814 35.4356 31.7814 35.0185C31.7814 34.6013 31.4699 34.2884 31.0546 34.2884Z" fill="#FF9C11"/>
</svg>
