<svg width="153" height="42" viewBox="0 0 153 42" fill="none" xmlns="http://www.w3.org/2000/svg">
<path fill-rule="evenodd" clip-rule="evenodd" d="M146.558 0.807692H6.4421C3.53584 0.807692 0.980769 3.03608 0.980769 6.00002V36C0.980769 38.9639 3.53584 41.1923 6.4421 41.1923H146.558C149.464 41.1923 152.019 38.9639 152.019 36V6.00002C152.019 3.03608 149.464 0.807692 146.558 0.807692ZM6.4421 0C2.88423 0 0 2.68629 0 6.00002V36C0 39.3137 2.88423 42 6.4421 42H146.558C150.116 42 153 39.3137 153 36V6.00002C153 2.68629 150.116 0 146.558 0H6.4421Z" fill="#382F39"/>
<path d="M12.8979 33.102C14.7958 35 17.8506 35 23.96 35H25.04C31.1494 35 34.2042 35 36.1021 33.102C38 31.2042 38 28.1494 38 22.0399V20.96C38 14.8505 38 11.7958 36.1021 9.89788C34.2042 8 31.1494 8 25.04 8H23.96C17.8506 8 14.7958 8 12.8979 9.89788C11 11.7958 11 14.8505 11 20.96V22.0399C11 28.1494 11 31.2042 12.8979 33.102Z" fill="#0077FF"/>
<path fill-rule="evenodd" clip-rule="evenodd" d="M32.3678 25.928L30.538 25.4742C30.3176 25.4114 30.162 25.2146 30.1542 24.9858L29.9258 18.2989C29.8598 17.4139 29.1981 16.7099 28.5066 16.5026C28.4678 16.491 28.4263 16.5067 28.4033 16.5398C28.3799 16.5736 28.389 16.6202 28.4216 16.6452C28.5924 16.7765 29.0623 17.2048 29.0623 17.9435L29.0609 26.6864C29.0609 27.5306 28.2575 28.1497 27.4288 27.9442L25.5706 27.4833C25.3646 27.4118 25.2215 27.2213 25.214 27.0015L24.9857 20.3142C24.9196 19.4291 24.2579 18.7253 23.5664 18.5179C23.5276 18.5063 23.4861 18.522 23.4631 18.5551C23.4398 18.5889 23.4488 18.6355 23.4814 18.6606C23.6522 18.7918 24.1221 19.22 24.1221 19.9588L24.1208 27.2464L24.1218 27.2466V28.7025C24.1218 29.5467 23.3183 30.1659 22.4896 29.9603L17.2412 28.6586C16.5116 28.4776 16 27.8296 16 27.0863V18.3298C16 17.4856 16.8034 16.8664 17.6322 17.072L20.9392 17.8922V16.3137C20.9392 15.4695 21.7427 14.8503 22.5714 15.0559L25.8782 15.876V14.2975C25.8782 13.4533 26.6816 12.8341 27.5104 13.0397L32.7588 14.3414C33.4884 14.5224 34 15.1704 34 15.9137V24.6702C34 25.5144 33.1966 26.1336 32.3678 25.928Z" fill="white"/>
<path d="M61 34H58.8936L55.5513 29.4383H53.793V34H52V22H56.3172C57.1528 22 57.9014 22.1589 58.5629 22.4766C59.2244 22.7943 59.735 23.2369 60.0948 23.8043C60.4662 24.3603 60.6519 25.0014 60.6519 25.7277C60.6519 26.6355 60.3675 27.4128 59.7989 28.0596C59.2302 28.695 58.47 29.1149 57.5184 29.3192L61 34ZM53.793 23.6171V27.8383H56.3172C57.0599 27.8383 57.6577 27.6454 58.1103 27.2596C58.5745 26.8624 58.8066 26.3518 58.8066 25.7277C58.8066 25.1035 58.5745 24.5986 58.1103 24.2128C57.6577 23.8156 57.0599 23.6171 56.3172 23.6171H53.793Z" fill="white"/>
<path d="M66.0705 34C65.4871 34 64.9621 33.8634 64.4955 33.5901C64.0288 33.3068 63.6628 32.9222 63.3977 32.4365C63.1325 31.9406 63 31.3839 63 30.7666V26H64.5591V30.6452C64.5591 31.2422 64.7341 31.728 65.084 32.1025C65.4341 32.4769 65.8848 32.6642 66.4363 32.6642C67.0091 32.6642 67.4863 32.4719 67.8682 32.0873C68.2499 31.7027 68.4409 31.222 68.4409 30.6452V26H70V33.8482H68.8863L68.5204 32.6642C68.2553 33.0892 67.9053 33.4181 67.4704 33.6508C67.0462 33.8836 66.5795 34 66.0705 34Z" fill="white"/>
<path d="M76.7406 34C75.5881 34 74.5842 33.7242 73.7287 33.1724C72.8852 32.6096 72.3089 31.8483 72 30.8883L73.7643 30.6234C74.1089 31.2414 74.5189 31.6993 74.9941 31.9972C75.4693 32.2841 76.0515 32.4276 76.7406 32.4276C77.4416 32.4276 78.0118 32.2841 78.4515 31.9972C78.8911 31.6993 79.1108 31.2965 79.1108 30.789C79.1108 30.4138 78.9861 30.0993 78.7366 29.8455C78.499 29.5917 78.196 29.3876 77.8277 29.2331C77.4594 29.0786 76.9782 28.9076 76.3841 28.72C75.5881 28.4772 74.9346 28.2344 74.4238 27.9917C73.9129 27.7489 73.4792 27.4069 73.1228 26.9655C72.7783 26.5131 72.606 25.9393 72.606 25.2441C72.606 24.5931 72.7783 24.0248 73.1228 23.5393C73.4792 23.0428 73.9664 22.6621 74.5842 22.3972C75.202 22.1324 75.8911 22 76.6515 22C77.7089 22 78.6178 22.2593 79.3782 22.7779C80.1386 23.2855 80.6792 23.9861 81 24.88L79.2713 25.1448C79.0336 24.6372 78.6951 24.251 78.2554 23.9861C77.8158 23.7103 77.299 23.5724 76.705 23.5724C76.0634 23.5724 75.5347 23.7158 75.1188 24.0027C74.703 24.2786 74.4951 24.6593 74.4951 25.1448C74.4951 25.5089 74.6139 25.8179 74.8515 26.0717C75.101 26.3255 75.404 26.5296 75.7604 26.6841C76.1287 26.8386 76.6159 27.0151 77.2218 27.2138C77.994 27.4565 78.6356 27.7048 79.1465 27.9586C79.6693 28.2014 80.1088 28.549 80.4653 29.0014C80.8217 29.4538 81 30.0221 81 30.7062C81 31.3683 80.8099 31.9476 80.4297 32.4441C80.0614 32.9407 79.5505 33.3269 78.897 33.6027C78.2554 33.8676 77.5366 34 76.7406 34Z" fill="white"/>
<path d="M89 32.7107L88.8478 34H87.3052C86.3896 34 85.6952 33.8001 85.2205 33.4003C84.7458 33.0005 84.5085 32.4258 84.5085 31.6762V27.5532H83V26.2488H84.5085L84.9663 24H86.1691V26.2488H88.8478V27.5532H86.1691V31.6762C86.1691 32.3658 86.5478 32.7107 87.3052 32.7107H89Z" fill="white"/>
<path d="M95.0003 34C94.2283 34 93.5398 33.8311 92.9344 33.4935C92.3289 33.1558 91.855 32.684 91.5128 32.0782C91.1711 31.4724 91 30.7821 91 30.0074C91 29.2328 91.1711 28.5425 91.5128 27.9367C91.855 27.3308 92.3289 26.8591 92.9344 26.5214C93.5398 26.1738 94.2283 26 95.0003 26C95.7717 26 96.4602 26.1738 97.0656 26.5214C97.6717 26.8591 98.145 27.3308 98.4872 27.9367C98.8289 28.5425 99 29.2328 99 30.0074C99 30.7821 98.8289 31.4724 98.4872 32.0782C98.145 32.684 97.6717 33.1558 97.0656 33.4935C96.4602 33.8311 95.7717 34 95.0003 34ZM95.0003 32.6592C95.7426 32.6592 96.3428 32.4159 96.8024 31.9292C97.2711 31.4426 97.5058 30.802 97.5058 30.0074C97.5058 29.2129 97.2711 28.5723 96.8024 28.0857C96.3428 27.5891 95.7426 27.3408 95.0003 27.3408C94.2574 27.3408 93.6572 27.5891 93.1982 28.0857C92.7386 28.5723 92.5091 29.2129 92.5091 30.0074C92.5091 30.792 92.7386 31.4326 93.1982 31.9292C93.6572 32.4159 94.2574 32.6592 95.0003 32.6592Z" fill="white"/>
<path d="M101.104 34.1136V26.1136H102.333L102.73 27.1136C103 27 103.481 26.6753 104 26.5C104.519 26.3143 105.604 26.1136 105.604 26.1136L105.5 27.5C105.5 27.5 103.911 27.6803 103.5 28C103.089 28.3197 102.73 28.7222 102.73 29.1136V34.1136H101.104Z" fill="white"/>
<path d="M114 29.9479C114 30.1465 113.995 30.3004 113.985 30.4096H107.539C107.62 31.095 107.892 31.6412 108.355 32.0484C108.818 32.4556 109.407 32.6592 110.121 32.6592C110.614 32.6592 111.052 32.5648 111.434 32.3762C111.826 32.1775 112.123 31.9193 112.324 31.6015L113.713 31.825C113.412 32.5202 112.923 33.0565 112.249 33.4339C111.585 33.8113 110.845 34 110.03 34C109.256 34 108.561 33.8311 107.947 33.4935C107.334 33.1459 106.856 32.6691 106.514 32.0633C106.171 31.4575 106 30.7722 106 30.0074C106 29.2328 106.171 28.5425 106.514 27.9367C106.856 27.3308 107.328 26.8591 107.932 26.5214C108.536 26.1738 109.225 26 110 26C110.765 26 111.449 26.1738 112.053 26.5214C112.667 26.8591 113.145 27.3308 113.487 27.9367C113.829 28.5325 114 29.203 114 29.9479ZM110 27.2961C109.407 27.2961 108.893 27.4699 108.46 27.8175C108.038 28.1651 107.756 28.6319 107.615 29.2179H112.385C112.254 28.6418 111.972 28.18 111.54 27.8324C111.117 27.4749 110.604 27.2961 110 27.2961Z" fill="white"/>
<path d="M55.6697 16C54.9697 16 54.3404 15.8308 53.7818 15.4924C53.2232 15.1467 52.7848 14.6685 52.4667 14.0579C52.1556 13.4474 52 12.7595 52 11.9945C52 11.2294 52.1556 10.5453 52.4667 9.94207C52.7848 9.33149 53.2197 8.85701 53.7712 8.51862C54.3298 8.17287 54.9591 8 55.6591 8C56.4157 8 57.0874 8.19862 57.6742 8.59586C58.2682 8.98575 58.6924 9.5154 58.947 10.1848L57.8652 10.3614C57.6672 9.94943 57.3737 9.62943 56.9848 9.40138C56.603 9.16598 56.1717 9.04828 55.6909 9.04828C55.196 9.04828 54.754 9.17333 54.3652 9.42345C53.9833 9.67356 53.6828 10.023 53.4636 10.4717C53.2515 10.9131 53.1455 11.4207 53.1455 11.9945C53.1455 12.5756 53.2515 13.0906 53.4636 13.5393C53.6828 13.9807 53.9869 14.3264 54.3758 14.5766C54.7646 14.8267 55.2101 14.9517 55.7121 14.9517C56.2071 14.9517 56.6455 14.834 57.0273 14.5986C57.4162 14.3559 57.7131 14.0175 57.9182 13.5834L59 13.76C58.7313 14.4441 58.2965 14.9885 57.6955 15.3931C57.0944 15.7977 56.4192 16 55.6697 16Z" fill="white"/>
<path d="M64 16H62.8508L61.1492 13.9304H60.8731V16H60V11H60.8731V13.0213H61.1403L62.7706 11H63.8218L61.8441 13.4178L64 16Z" fill="white"/>
<path d="M67.1224 11C67.7029 11 68.1595 11.1955 68.4921 11.5866C68.8307 11.9714 69 12.5115 69 13.2067V15.9069H68.3651L68.1565 15.1527C68.0053 15.3948 67.8027 15.5965 67.5488 15.7579C67.2948 15.9193 66.9894 16 66.6327 16C66.3182 16 66.037 15.9348 65.7891 15.8045C65.5412 15.6741 65.3477 15.4941 65.2086 15.2644C65.0695 15.0286 65 14.7647 65 14.473C65 14.0199 65.1754 13.6567 65.5261 13.3836C65.8768 13.1105 66.3847 12.9739 67.0499 12.9739H68.1111C68.0869 12.5953 67.9841 12.3035 67.8027 12.0987C67.6213 11.8876 67.3794 11.7821 67.0771 11.7821C66.8473 11.7821 66.6447 11.838 66.4694 11.9497C66.294 12.0615 66.161 12.2073 66.0703 12.3873L65.2449 12.2477C65.3658 11.8628 65.5986 11.5587 65.9433 11.3352C66.288 11.1117 66.681 11 67.1224 11ZM66.8231 15.2272C67.2041 15.2272 67.5125 15.0999 67.7483 14.8454C67.9902 14.5847 68.1111 14.2278 68.1111 13.7747V13.7188H67.0771C66.291 13.7188 65.898 13.9609 65.898 14.4451C65.898 14.6809 65.9826 14.8703 66.1519 15.013C66.3212 15.1558 66.545 15.2272 66.8231 15.2272Z" fill="white"/>
<path d="M77.1224 11C77.7029 11 78.1595 11.1955 78.4921 11.5866C78.8307 11.9714 79 12.5115 79 13.2067V15.9069H78.3651L78.1565 15.1527C78.0053 15.3948 77.8027 15.5965 77.5488 15.7579C77.2948 15.9193 76.9894 16 76.6327 16C76.3182 16 76.037 15.9348 75.7891 15.8045C75.5412 15.6741 75.3477 15.4941 75.2086 15.2644C75.0695 15.0286 75 14.7647 75 14.473C75 14.0199 75.1754 13.6567 75.5261 13.3836C75.8768 13.1105 76.3847 12.9739 77.0499 12.9739H78.1111C78.0869 12.5953 77.9841 12.3035 77.8027 12.0987C77.6213 11.8876 77.3794 11.7821 77.0771 11.7821C76.8473 11.7821 76.6447 11.838 76.4694 11.9497C76.294 12.0615 76.161 12.2073 76.0703 12.3873L75.2449 12.2477C75.3658 11.8628 75.5986 11.5587 75.9433 11.3352C76.288 11.1117 76.681 11 77.1224 11ZM76.8231 15.2272C77.2041 15.2272 77.5125 15.0999 77.7483 14.8454C77.9902 14.5847 78.1111 14.2278 78.1111 13.7747V13.7188H77.0771C76.291 13.7188 75.898 13.9609 75.898 14.4451C75.898 14.6809 75.9826 14.8703 76.1519 15.013C76.3212 15.1558 76.545 15.2272 76.8231 15.2272Z" fill="white"/>
<path d="M73.0508 14.1818C72.8959 14.2527 72.7119 14.3075 72.4988 14.3462C72.2857 14.3849 72.0759 14.4043 71.8693 14.4043C71.2688 14.4043 70.8071 14.2366 70.4843 13.9014C70.1614 13.5661 70 13.0922 70 12.4797V11H70.9492V12.4797C70.9492 13.1954 71.2946 13.5532 71.9855 13.5532C72.4052 13.5532 72.7603 13.479 73.0508 13.3308V11H74V16H73.0508V14.1818Z" fill="white"/>
<path d="M81.25 16H80V10.9875H80.819V14.9335H80.9483L82.75 10.9875H84V16H83.181V12.0637H83.0517L81.25 16ZM82.0086 10.338C81.6351 10.338 81.3218 10.2281 81.069 10.0083C80.8218 9.78209 80.6753 9.44598 80.6293 9H81.319C81.3477 9.20683 81.4195 9.36519 81.5345 9.47507C81.6552 9.57849 81.8132 9.63019 82.0086 9.63019C82.204 9.63019 82.3592 9.57849 82.4741 9.47507C82.5948 9.36519 82.6667 9.20683 82.6897 9H83.3879C83.3362 9.44598 83.1839 9.78209 82.931 10.0083C82.6839 10.2281 82.3764 10.338 82.0086 10.338Z" fill="white"/>
<path d="M87.4298 16H86.5702V11.8704H85V11H89V11.8704H87.4298V16Z" fill="white"/>
<path d="M95 13.4674C95 13.5916 94.9969 13.6878 94.9906 13.7561H90.9623C91.0126 14.1844 91.1824 14.5258 91.4717 14.7803C91.761 15.0348 92.1289 15.162 92.5755 15.162C92.8836 15.162 93.1572 15.103 93.3962 14.9851C93.6415 14.861 93.827 14.6996 93.9528 14.5009L94.8208 14.6406C94.6321 15.0751 94.327 15.4103 93.9057 15.6462C93.4906 15.8821 93.0283 16 92.5189 16C92.0346 16 91.6006 15.8945 91.217 15.6834C90.8333 15.4662 90.5346 15.1682 90.3208 14.7896C90.1069 14.4109 90 13.9826 90 13.5047C90 13.0205 90.1069 12.5891 90.3208 12.2104C90.5346 11.8318 90.8302 11.5369 91.2075 11.3259C91.5849 11.1086 92.0157 11 92.5 11C92.978 11 93.4057 11.1086 93.783 11.3259C94.1667 11.5369 94.4654 11.8318 94.6792 12.2104C94.8931 12.5829 95 13.0019 95 13.4674ZM92.5 11.8101C92.1289 11.8101 91.8082 11.9187 91.5377 12.1359C91.2736 12.3532 91.0975 12.6449 91.0094 13.0112H93.9906C93.9088 12.6511 93.7327 12.3625 93.4623 12.1453C93.1981 11.9218 92.8774 11.8101 92.5 11.8101Z" fill="white"/>
<path d="M99.25 16H98V11H98.819V14.9362H98.9483L100.75 11H102V16H101.181V12.0735H101.052L99.25 16Z" fill="white"/>
<path d="M106.102 13.4488C106.36 13.5233 106.574 13.6598 106.745 13.8585C106.915 14.0509 107 14.2899 107 14.5754C107 14.8423 106.921 15.0844 106.764 15.3017C106.606 15.5127 106.379 15.6834 106.083 15.8138C105.793 15.9379 105.455 16 105.071 16C104.554 16 104.11 15.8821 103.738 15.6462C103.366 15.4041 103.12 15.0813 103 14.6778L103.861 14.5382C104.069 14.9851 104.469 15.2086 105.061 15.2086C105.389 15.2086 105.638 15.1496 105.809 15.0317C105.985 14.9075 106.073 14.7368 106.073 14.5196C106.073 14.3271 105.991 14.1719 105.827 14.054C105.67 13.9361 105.414 13.8771 105.061 13.8771H104.418V13.0764H105.061C105.364 13.0764 105.594 13.0205 105.752 12.9088C105.916 12.797 105.998 12.648 105.998 12.4618C105.998 12.2632 105.909 12.1018 105.733 11.9777C105.563 11.8535 105.351 11.7914 105.099 11.7914C104.853 11.7914 104.633 11.8504 104.437 11.9683C104.242 12.0863 104.094 12.2477 103.993 12.4525L103.132 12.3035C103.277 11.8876 103.526 11.568 103.879 11.3445C104.239 11.1148 104.655 11 105.128 11C105.468 11 105.774 11.059 106.045 11.1769C106.322 11.2948 106.537 11.4593 106.688 11.6704C106.846 11.8814 106.924 12.1173 106.924 12.378C106.924 12.6449 106.849 12.8715 106.697 13.0577C106.546 13.2439 106.348 13.3743 106.102 13.4488Z" fill="white"/>
</svg>
