<svg width="52" height="52" viewBox="0 0 52 52" fill="none" xmlns="http://www.w3.org/2000/svg">
<circle cx="26" cy="26" r="26" fill="#FEF4F2"/>
<path d="M35.901 22.8352C35.604 21.5495 34.6139 20.7582 33.4257 20.7582C32.6337 20.7582 31.7426 20.7582 30.9505 20.7582H29.8614V20.1648C29.8614 19.7692 29.8614 19.3736 29.8614 18.978C29.8614 17.8901 28.9703 17 27.9802 17C26.8911 17 25.703 17 24.7129 17H24.1188C23.8218 17 23.4257 17.0989 23.1287 17.2967C22.5347 17.6923 22.1386 18.2857 22.1386 18.978C22.1386 19.3736 22.1386 19.8681 22.1386 20.3626C22.1386 20.5604 22.1386 20.6593 22.1386 20.8571H21.3465C20.4554 20.8571 19.5644 20.8571 18.6733 20.8571C18.4752 20.8571 18.2772 20.8571 17.9802 20.956C16.7921 21.1538 16 22.1429 16 23.5275C16 26.4945 16 29.3626 16 32.3297C16 33.9121 17.0891 35 18.6733 35C21.1485 35 23.6238 35 26 35C28.3762 35 30.9505 35 33.3267 35C34.8119 35 36 33.9121 36 32.3297C36 29.3626 36 26.4945 36 23.5275C36 23.2308 36 23.033 35.901 22.8352ZM23.6238 20.3626C23.6238 19.8681 23.6238 19.4725 23.6238 18.978C23.6238 18.6813 23.8218 18.4835 24.1188 18.4835C25.4059 18.4835 26.5941 18.4835 27.8812 18.4835C28.1782 18.4835 28.3762 18.6813 28.3762 18.978V20.7582H23.6238V20.3626ZM34.5149 29.7582C34.5149 30.6484 34.5149 31.4396 34.5149 32.3297C34.5149 32.9231 34.2178 33.3187 33.7228 33.5165C33.5248 33.5165 33.4257 33.5165 33.2277 33.5165H33.1287C32.9307 33.5165 32.7327 33.5165 32.5347 33.5165H32.3366V22.3407C32.4356 22.3407 32.5347 22.3407 32.6337 22.3407C32.9307 22.3407 33.2277 22.3407 33.5248 22.3407C34.1188 22.4396 34.5149 22.8352 34.5149 23.5275C34.5149 24.6154 34.5149 25.7033 34.5149 26.8901V29.7582ZM21.1485 22.3407H30.8515V33.6154H21.1485V22.3407ZM19.3663 33.5165C19.0693 33.5165 18.7723 33.5165 18.4752 33.5165C17.8812 33.4176 17.4851 33.022 17.4851 32.3297V23.6264C17.4851 22.8352 17.8812 22.3407 18.7723 22.3407H19.7624V33.5165C19.5644 33.5165 19.4653 33.5165 19.3663 33.5165Z" fill="#F3907A"/>
</svg>
