<svg width="52" height="52" viewBox="0 0 52 52" fill="none" xmlns="http://www.w3.org/2000/svg">
<circle cx="26" cy="26" r="26" fill="#EFF3F4"/>
<path d="M26.8388 34.5233H24.6906C22.8353 34.5233 20.98 34.5233 19.2224 34.5233C18.7341 34.5233 18.2459 34.3264 17.9529 34.0311C17.66 33.7358 17.4647 33.342 17.4647 32.8497C17.4647 30.487 17.4647 28.0259 17.4647 25.7617C17.4647 24.7772 17.4647 23.8912 17.4647 22.9067V22.8083H18.9294C20.6871 22.8083 22.0541 21.5285 22.0541 19.8549V18.3782H24.4953C26.0576 18.3782 27.62 18.3782 29.28 18.3782C30.2565 18.3782 30.94 18.9689 30.94 19.9534C30.94 20.3472 30.94 20.7409 30.94 21.1347V22.513C30.94 23.1036 30.94 23.5959 30.94 24.1865C30.94 24.5803 31.1353 24.7772 31.4282 24.8756C31.6235 25.0725 31.9165 24.9741 32.0141 24.8756C32.2094 24.7772 32.3071 24.4819 32.3071 24.1865V20.0518C32.3071 18.1813 31.0376 17 29.0847 17C26.5459 17 24.0071 17 21.3706 17C21.1753 17 20.8824 17.0984 20.6871 17.2953C19.2224 18.6736 17.7576 20.0518 16.3906 21.4301C16.0976 21.7254 16 21.9223 16 22.3161C16 24.0881 16 25.8601 16 27.6321C16 29.4041 16 31.1762 16 32.9482C16 33.2435 16 33.4404 16.0976 33.7358C16.3906 35.114 17.66 36 19.1247 36C20.0035 36 20.8824 36 21.7612 36C22.64 36 23.5188 36 24.3976 36H27.0341C27.4247 36 27.62 35.9016 27.8153 35.8031C27.9129 35.7047 28.0106 35.5078 28.0106 35.3109C27.8153 34.9171 27.62 34.5233 26.8388 34.5233ZM18.4412 21.4301C18.8318 21.0363 19.2224 20.6425 19.6129 20.3472L20.5894 19.3627C20.6871 20.0518 20.4918 20.544 20.1988 20.9378C19.8082 21.2332 19.2224 21.4301 18.4412 21.4301Z" fill="#59828C"/>
<path d="M35.5294 29.2073C35.7247 29.0104 35.8223 28.8135 35.8223 28.6166C35.8223 28.4197 35.7247 28.3212 35.6271 28.1244C35.3341 27.829 34.9435 27.829 34.5529 28.2228C34.3576 28.4197 34.26 28.5181 34.1623 28.6166L33.5765 28.4197C33.1859 28.2228 32.7953 28.1244 32.4047 27.9275V27.6321C32.5023 27.6321 32.6 27.6321 32.7953 27.6321C33.2835 27.6321 33.5765 27.3368 33.5765 26.943C33.5765 26.5492 33.2835 26.2539 32.8929 26.2539C32.1118 26.2539 31.3306 26.2539 30.6471 26.2539C30.2565 26.2539 29.9635 26.5492 29.9635 26.943C29.9635 27.3368 30.2565 27.6321 30.7447 27.6321C30.8423 27.6321 30.94 27.6321 31.1353 27.6321V27.9275C29.1823 28.3212 27.8153 29.7979 27.7176 31.6684C27.62 33.342 28.6941 34.9171 30.2565 35.6062C30.7447 35.8031 31.3306 35.9016 31.8188 35.9016C32.9906 35.9016 34.1623 35.4093 35.0412 34.4249C36.0176 33.2435 36.5059 31.3731 35.2365 29.601C35.2365 29.5026 35.4318 29.4041 35.5294 29.2073ZM31.6235 34.5233C30.1588 34.5233 28.8894 33.342 28.8894 31.8653C28.8894 31.1762 29.1823 30.5855 29.6706 30.0933C30.1588 29.601 30.8423 29.3057 31.6235 29.3057C33.0882 29.3057 34.3576 30.487 34.3576 31.8653C34.3576 32.5544 34.0647 33.1451 33.5765 33.6373C33.0882 34.228 32.4047 34.5233 31.6235 34.5233Z" fill="#59828C"/>
<path d="M26.7412 29.1088C27.0341 29.0104 27.2294 28.715 27.2294 28.4197C27.2294 28.1244 27.0341 27.829 26.7412 27.7306C26.6435 27.7306 26.4482 27.7306 26.3506 27.7306H21.3706C20.7847 27.7306 20.2965 27.7306 19.7106 27.7306C19.4176 27.7306 19.2224 27.829 19.0271 28.0259C18.9294 28.1244 18.9294 28.3212 18.9294 28.5181C18.9294 28.9119 19.32 29.1088 19.8082 29.1088H26.3506C26.4482 29.1088 26.6435 29.1088 26.7412 29.1088Z" fill="#59828C"/>
<path d="M19.6129 30.6839C19.6129 30.6839 19.5153 30.6839 19.4176 30.6839C19.1247 30.7824 18.8318 31.0777 18.9294 31.4715C18.9294 31.8653 19.2224 32.0622 19.6129 32.0622C20.2965 32.0622 20.8824 32.0622 21.4682 32.0622H22.4447C22.7376 32.0622 23.0306 32.0622 23.4212 32.0622C23.8118 32.0622 24.0071 32.0622 24.3976 32.0622H25.3741C25.5694 32.0622 25.8624 32.0622 26.0576 31.7668C26.1553 31.5699 26.1553 31.2746 26.0576 31.0777C25.96 30.8808 25.6671 30.6839 25.3741 30.6839H19.6129Z" fill="#59828C"/>
<path d="M29.4753 24.0881C29.5729 23.9896 29.6706 23.7927 29.6706 23.5959C29.6706 23.2021 29.3776 22.9067 28.8894 22.9067C28.4988 22.9067 28.2059 22.9067 27.8153 22.9067H26.7412C26.3506 22.9067 26.0576 22.9067 25.6671 22.9067C25.2765 22.9067 25.0812 23.0052 24.8859 23.2021C24.7882 23.3005 24.6906 23.399 24.6906 23.5959C24.6906 23.9896 25.0812 24.285 25.4718 24.285C26.0576 24.285 26.5459 24.285 27.1318 24.285C27.7176 24.285 28.2059 24.285 28.7918 24.285C29.0847 24.285 29.28 24.1865 29.4753 24.0881Z" fill="#59828C"/>
<path d="M26.9365 21.2332C27.0341 21.2332 27.1318 21.2332 27.3271 21.2332H28.1082C28.4012 21.2332 28.5965 21.2332 28.7918 21.2332C29.28 21.2332 29.5729 20.9378 29.5729 20.544C29.5729 20.3472 29.4753 20.2487 29.3776 20.0518C29.28 19.8549 28.9871 19.8549 28.7918 19.8549C28.0106 19.8549 27.3271 19.8549 26.5459 19.8549C26.0576 19.8549 25.7647 20.1503 25.7647 20.544C25.7647 20.7409 25.8623 20.9378 25.96 21.0363C26.0576 21.1347 26.3506 21.2332 26.5459 21.2332C26.7412 21.2332 26.8388 21.2332 26.9365 21.2332Z" fill="#59828C"/>
<path d="M31.6235 29.601C31.2329 29.601 30.94 29.8964 30.94 30.2902C30.94 30.8808 30.94 31.3731 30.94 31.8653C30.94 32.2591 31.2329 32.5544 31.6235 32.5544C32.0141 32.5544 32.3071 32.2591 32.3071 31.8653C32.3071 31.6684 32.3071 31.4715 32.3071 31.3731V31.0777C32.3071 30.7824 32.3071 30.5855 32.3071 30.2902V30.1917C32.4047 29.8964 32.1118 29.601 31.6235 29.601Z" fill="#59828C"/>
</svg>
