<svg width="52" height="52" viewBox="0 0 52 52" fill="none" xmlns="http://www.w3.org/2000/svg">
<circle cx="26" cy="26" r="26" fill="#EEF2FA"/>
<path d="M35.7005 21.9169C33.3246 20.1565 30.9486 18.4939 28.5727 16.7335C27.2857 15.7555 25.8008 15.7555 24.4148 16.7335C22.1379 18.4939 19.7619 20.2543 17.386 21.9169C16.495 22.6015 16 23.4817 16 24.6553V33.2616C16 33.555 16 33.7506 16.099 34.044C16.396 35.2176 17.386 36 18.6729 36C20.4549 36 22.1379 36 23.9198 36H29.1667C30.0577 36 30.9486 36 31.7406 36C32.6316 36 33.5226 36 34.3146 36C35.8985 36 36.9875 34.9242 36.9875 33.3594V24.5575C37.0865 23.4817 36.5915 22.6015 35.7005 21.9169ZM26.5928 34.4352C25.2068 34.4352 23.8208 34.4352 22.4348 34.4352C22.2369 34.4352 22.2369 34.4352 22.2369 34.2396C22.0389 33.2616 21.7419 32.3814 21.5439 31.4034L21.4449 31.11H22.8308C24.1178 31.11 25.5038 31.11 26.7907 31.11C26.9887 31.11 27.0877 31.2078 27.1867 31.4034C27.3847 31.9902 27.4837 32.6748 27.6817 33.2616C27.7807 33.6528 27.8797 33.9462 27.9787 34.3374C27.9787 34.3374 27.9787 34.3374 27.9787 34.4352H26.5928ZM30.6517 33.6528C30.6517 33.9462 30.6517 34.1418 30.6517 34.4352H30.4537C30.1567 34.4352 29.8597 34.4352 29.6617 34.4352L29.5627 34.3374C29.3647 33.555 29.1667 32.6748 28.9687 31.8924L28.7707 31.11C28.5727 30.132 27.9787 29.7408 26.9887 29.7408H25.7018C26.0978 29.2518 26.5928 29.0562 27.2857 28.9584C28.1767 28.7628 29.0677 29.0562 29.6617 29.5452C30.3547 30.0342 30.6517 30.8166 30.6517 31.6968C30.6517 32.2836 30.6517 32.9682 30.6517 33.6528ZM26.0978 25.6333C26.0978 24.7531 26.8897 23.9707 27.7807 23.9707C28.2757 23.9707 28.6717 24.1663 28.9687 24.4597C29.2657 24.7531 29.4637 25.1443 29.4637 25.6333C29.4637 26.5134 28.6717 27.198 27.7807 27.198C27.2857 27.198 26.8897 27.0024 26.5928 26.709C26.2958 26.5134 26.0978 26.1223 26.0978 25.6333ZM35.6015 33.1638C35.6015 34.044 35.2055 34.4352 34.3146 34.4352H32.2356C32.2356 34.044 32.2356 33.6528 32.2356 33.1638C32.2356 32.6748 32.2356 32.2836 32.2356 31.7946C32.2356 31.3056 32.1366 30.9144 32.1366 30.621C31.8396 29.4474 31.1466 28.5672 30.0577 27.8826C30.8497 27.1002 31.1466 26.22 30.9486 25.1443C30.8497 24.3619 30.4537 23.6773 29.7607 23.1883C28.4737 22.2103 26.6917 22.3081 25.5038 23.4817C24.9098 23.9707 24.6128 24.8509 24.6128 25.7311C24.6128 26.3178 24.8108 27.1002 25.6028 27.8826C25.5038 27.9804 25.4048 27.9804 25.4048 28.0782C25.1078 28.2738 24.9098 28.4694 24.6128 28.7628C24.4148 28.9584 24.2168 29.3496 24.0188 29.5452C23.9198 29.643 23.9198 29.643 23.7218 29.643C23.0288 29.643 22.2369 29.643 21.4449 29.643C20.9499 29.643 20.4549 29.8386 20.1579 30.132C19.8609 30.4254 19.8609 30.9144 19.9599 31.4034L20.6529 34.2396V34.3374H20.2569C19.8609 34.3374 19.5639 34.3374 19.2669 34.3374H19.0689C18.8709 34.3374 18.6729 34.3374 18.3759 34.3374C17.881 34.2396 17.485 33.8484 17.485 33.3594C17.485 32.8704 17.485 32.3814 17.485 31.8924V29.7408C17.485 28.0782 17.485 26.3178 17.485 24.6553C17.485 23.9707 17.782 23.4817 18.2769 23.0905C19.9599 21.9169 21.6429 20.6455 23.3258 19.3741L25.3058 18.0049C26.0978 17.4181 26.7907 17.4181 27.6817 18.0049L29.6617 19.3741C31.3446 20.6455 33.0276 21.8191 34.7106 23.0905C35.3045 23.4817 35.5025 23.9707 35.5025 24.7531C35.5025 26.9046 35.5025 28.9584 35.5025 31.11L35.6015 33.1638Z" fill="#557CC6"/>
</svg>
