<svg width="52" height="52" viewBox="0 0 52 52" fill="none" xmlns="http://www.w3.org/2000/svg">
<circle cx="26" cy="26" r="26" fill="white"/>
<mask id="mask0_839_17312" style="mask-type:alpha" maskUnits="userSpaceOnUse" x="0" y="0" width="52" height="52">
<circle cx="26" cy="26" r="26" fill="white"/>
</mask>
<g mask="url(#mask0_839_17312)">
<path d="M26.1279 55.0251C26.3073 55.9229 26.3969 56.3718 26.666 56.5514C27.0248 56.731 27.4733 56.6412 28.3702 56.2821C29.895 55.7434 30.6126 54.7558 30.792 53.1397C30.792 52.8703 30.792 52.5112 30.8817 52.2419C30.9714 51.4338 30.9714 50.536 30.9714 49.6382C30.9714 45.2388 30.9714 40.8395 30.9714 36.4402C30.9714 34.465 30.1641 32.7591 28.5496 31.4124L28.4599 31.3226C27.3836 30.4248 26.2176 29.4372 25.1412 28.5393C24.7824 28.27 24.4237 28.0006 24.0649 27.8211C23.8855 27.6415 23.6164 27.5517 23.437 27.3722L23.3473 27.2824L23.2576 27.3722C23.1679 27.4619 23.0782 27.4619 22.9885 27.5517L22.8989 27.6415L22.9885 27.7313C22.9885 27.8211 23.0782 27.9109 23.0782 28.0006C23.1679 28.27 23.2576 28.4495 23.437 28.6291C24.5134 29.5269 25.5897 30.4248 26.666 31.2328C28.9981 33.0284 29.9847 34.9139 29.895 37.338C29.8053 40.5702 29.7156 43.8023 29.7156 46.9447C29.7156 48.8301 29.626 50.8053 29.626 52.6908C29.626 54.1273 28.8187 54.8455 27.2939 55.0251C27.2939 54.666 27.2042 54.3966 27.2042 54.0375C27.1145 53.0499 27.0248 52.0623 26.9351 51.1645C26.8454 49.0995 26.8454 47.0345 26.7557 44.9695C26.7557 43.2636 26.666 41.5578 26.666 39.8519C26.666 39.5826 26.4866 39.403 26.3969 39.1336C26.3073 39.0439 26.3073 38.9541 26.2176 38.8643L26.1279 38.5949L26.0382 38.7745C25.9485 38.9541 25.8588 39.0439 25.7691 39.2234C25.6794 39.403 25.5897 39.4928 25.5 39.6723C25.5 39.7621 25.5 39.7621 25.5 39.8519C25.4103 41.1986 25.3206 42.5454 25.2309 43.8023C25.1412 45.2388 25.0515 46.5856 24.9618 48.0221C24.7824 50.2666 24.6927 52.601 24.5134 54.9353L24.4237 56.3718C24.1546 59.9631 23.7958 63.734 23.437 67.4151C23.1679 69.6596 22.8092 71.9042 22.4504 74.059L22.3607 74.5079C22.0916 76.3933 21.6431 78.3685 21.1947 80.7028C21.0153 81.6007 20.7462 82.4985 20.3874 83.3963C20.2977 83.5759 20.1183 83.7554 19.9389 83.7554C19.7595 83.7554 19.4905 83.6657 19.4008 83.4861C19.1317 83.127 18.9523 82.7678 18.9523 82.5883C18.8626 81.4211 18.8626 80.3437 18.8626 79.2663C18.8626 78.2787 18.8626 77.2013 18.8626 76.2137C18.8626 74.059 18.8626 71.8144 18.7729 69.6596C18.6832 68.2231 18.5038 66.7866 18.3244 65.3501C18.2347 64.542 18.145 63.734 18.0553 62.9259C17.9656 61.7588 17.876 60.6814 17.7863 59.5142C17.6966 58.0777 17.5172 65.6539 17.4275 64.2174C17.4275 63.8583 17.0687 63.4992 16.7099 63.4094C16.5305 63.4094 16.3511 63.4094 16.1718 63.4992C15.9924 63.6787 15.9027 63.9481 15.813 64.2174C15.7233 65.1153 15.7233 66.0131 15.6336 66.9109C15.5439 68.0781 15.3645 60.2325 15.2748 61.3997C15.0954 63.4646 14.8263 65.6194 14.6469 67.7742C14.3779 70.737 14.2882 73.6998 14.2882 76.3035C14.2882 77.4707 14.2882 78.6378 14.2882 79.7152C14.2882 80.7028 14.2882 81.6905 14.2882 82.5883C14.2882 82.9474 14.1088 83.3963 13.8397 83.6657C13.6603 84.0248 13.4809 84.1146 13.3015 84.1146C12.7634 84.0248 12.584 83.5759 12.4046 83.0372L12.3149 82.8576V82.7678C12.0458 81.1518 11.687 79.5357 11.4179 77.9196C11.2385 77.1116 11.1489 76.3933 10.9695 75.675C10.6107 74.0589 10.3416 72.3531 10.0725 70.6472C9.98282 69.929 9.89313 69.1209 9.89313 68.4027C9.89313 67.864 9.80344 67.4151 9.80344 66.8764C9.62405 65.5296 9.53435 64.0931 9.35496 62.7464C9.08588 60.3223 8.81679 57.8084 8.6374 55.2945C8.36832 51.9725 8.18893 48.6506 8.00954 45.4184C7.91985 43.9819 7.83015 42.4556 7.74046 41.0191C7.74046 40.5702 7.65076 40.1212 7.56107 39.6723C7.56107 39.4928 7.38168 39.403 7.20229 39.2234C7.1126 39.2234 7.1126 39.1336 7.0229 39.1336L6.93321 39.0439L6.84351 39.1336C6.84351 39.1336 6.75382 39.2234 6.66412 39.2234C6.66412 39.3132 6.48473 39.403 6.48473 39.5826C6.39504 39.7621 6.39504 39.9417 6.39504 40.1212V40.211C6.39504 41.0191 6.39504 41.8271 6.30534 42.6351C6.30534 44.2512 6.21565 45.8673 6.12595 47.4834C6.03626 49.6382 5.94656 51.9725 5.76718 54.9353C5.76718 55.1149 5.58779 55.2945 5.58779 55.3842C4.69084 55.474 3.6145 54.5762 3.52481 53.5886V53.2295C3.43511 52.601 3.34542 51.9725 3.34542 51.2542C3.25573 48.2914 3.25573 45.3286 3.25573 42.4556C3.25573 41.0191 3.25573 39.4928 3.16603 38.0563C3.16603 35.3628 3.97328 33.3876 5.85687 31.9511C7.29199 30.8737 8.6374 29.7963 9.89313 28.6291L10.521 28.0904C10.7004 28.0006 10.7004 27.7313 10.7901 27.5517C10.7901 27.4619 10.8798 27.3722 10.8798 27.2824L10.9695 27.013H10.7004C10.6107 27.013 10.521 27.013 10.4313 27.013C10.2519 27.013 10.0725 27.013 9.89313 27.1926C9.62405 27.3722 9.26527 27.6415 8.99618 27.8211C7.65076 28.8087 6.30534 29.8861 4.95992 30.9634C4.06298 31.6817 3.34542 32.6693 2.71756 33.6569C2 35.0934 2 36.7095 2 38.146V38.3256C2 43.1738 2.08969 48.0221 2.17939 52.5112C2.17939 53.1397 2.35878 53.8579 2.53817 54.4864C2.98664 55.8331 4.15267 56.2821 5.22901 56.5514C5.76718 56.731 6.21565 56.8208 6.48473 56.5514C6.75382 56.3718 6.84351 56.0127 6.93321 55.3842C7.0229 54.3068 7.20229 53.1397 7.29199 51.8827C7.38168 52.7805 7.38168 53.7682 7.47137 54.666C7.65076 56.9105 7.83015 59.1551 8.00954 61.3099L8.27863 63.5544C8.45802 65.5296 8.6374 67.5048 8.81679 69.4801C8.99618 71.0064 9.17557 72.2633 9.35496 73.3407C9.62405 75.0466 9.98282 76.6626 10.3416 78.2787L10.6107 79.4459C10.7004 79.805 10.7901 80.2539 10.8798 80.6131C11.0592 81.5109 11.2386 82.4985 11.5076 83.4861C11.7767 84.4737 12.6737 85.3715 13.4809 85.4613C14.1985 85.4613 15.1851 84.6533 15.4542 83.7554C15.6336 83.127 15.813 82.5883 15.813 82.1394C15.813 81.1518 15.7233 80.1642 15.7233 79.1765C15.7233 78.3685 15.6336 77.4707 15.6336 76.6626C15.5439 72.8918 15.9924 69.2107 16.3511 65.5296C16.4408 64.4522 16.6202 63.3749 16.7099 62.3873V62.2975C16.7099 62.3873 16.7099 62.477 16.7099 62.5668C16.7996 63.3749 16.8893 64.2727 16.979 65.0807C17.1584 66.8764 17.4275 68.672 17.5172 70.4677C17.6069 72.1735 17.6069 73.9692 17.6069 75.675C17.6069 76.6626 17.6069 77.74 17.6069 78.7276V79.4459C17.6069 80.7028 17.6069 82.0496 17.7863 83.3963C17.876 84.3839 18.5935 85.1022 19.5802 85.4613C19.6698 85.4613 19.8492 85.5511 19.9389 85.5511C20.3874 85.5511 20.9256 85.2817 21.2844 84.743C21.5534 84.2941 21.8225 83.8452 21.9122 83.4861C22.271 81.7802 22.6298 79.9846 22.8989 78.2787L23.1679 77.0218C23.5267 75.4057 23.7958 73.6998 24.0649 71.994C24.2443 70.9166 24.334 69.7494 24.4237 68.672C24.4237 68.1333 24.5134 67.6844 24.5134 67.1457C24.9618 62.5668 25.3206 57.9879 25.7691 53.4988C25.8588 52.9601 25.8588 52.4214 25.9485 51.8827C25.8588 52.9601 25.9485 53.9477 26.1279 55.0251Z" fill="#5CB8CC"/>
<path d="M43.6183 52.5112H43.4389C42.7214 52.601 42.4523 52.8703 42.3626 53.5886C42.0935 57.1799 41.8244 60.3223 41.5553 63.2851C41.4656 64.4522 41.2863 65.6194 41.1966 66.7866L41.1069 67.6844C41.0172 68.2231 41.0172 68.7618 40.9275 69.2107C40.7481 70.737 40.5687 72.2633 40.3893 73.7896C40.2099 75.2261 39.8511 76.7524 39.5821 78.0992C39.4924 78.7276 39.313 79.2663 39.2233 79.8948C39.1336 80.1642 39.1336 80.4335 39.0439 80.7028C38.8645 81.7802 38.6851 82.8576 38.3263 83.8452C38.2366 84.2043 37.8779 84.6533 37.5191 84.6533C37.4294 84.6533 37.0706 84.3839 36.7118 83.935C36.5324 83.7554 36.4427 83.3963 36.4427 83.0372C36.4427 82.7678 36.4427 82.4985 36.4427 82.1394C36.4427 81.062 36.4427 79.9846 36.5324 78.9072C36.8912 75.9444 36.6221 72.9816 36.4427 70.1085V69.4801C36.2634 67.5048 36.084 65.5296 35.8149 63.6442C35.7252 62.477 35.5458 61.2201 35.4561 60.0529C35.3664 59.4244 35.3664 67.8087 35.2767 67.1802C35.2767 66.462 35.187 65.7437 35.0973 65.0255C35.0973 64.6663 34.6489 64.2174 34.3798 64.1277C34.2004 64.1277 34.021 64.1277 33.9313 64.2174C33.7519 64.397 33.6622 64.5766 33.5725 65.0255C33.5725 65.6539 33.4828 66.2824 33.3931 66.9109C33.3034 67.8985 33.2137 59.8733 33.124 60.861C32.9447 62.2975 32.855 63.8238 32.6756 65.3501C32.5859 66.1581 32.4962 66.9662 32.4962 67.6844C32.3168 70.0188 32.0477 72.3531 31.958 74.7772C31.8683 76.0342 31.958 77.2911 32.0477 78.5481C32.1374 79.3561 32.1374 80.2539 32.1374 81.062C32.1374 81.9598 32.0477 82.9474 31.8683 83.8452C31.7786 84.2043 31.4198 84.5635 31.0611 84.6533C30.9714 84.6533 30.6126 84.2941 30.3435 83.935C30.1641 83.6657 30.0744 83.3963 30.0744 83.0372V82.9474C29.7156 80.9722 29.3569 79.0868 28.9981 77.3809C28.9084 76.8422 28.8187 76.2137 28.6393 75.675C28.3702 74.3283 28.1011 72.8918 27.9218 71.4553C27.7424 70.3779 27.6527 69.3005 27.6527 68.3129C27.6527 67.7742 27.563 67.1457 27.4733 66.607C27.3836 65.2603 27.2042 63.9136 27.0248 62.477C26.8454 61.1303 26.7557 59.7836 26.5763 58.347C26.4866 57.8981 26.4866 57.6288 26.3073 57.539C26.1279 57.4492 25.9485 57.539 25.5 57.7186H25.4103V57.8981C25.4103 57.9879 25.4103 58.0777 25.4103 58.0777C25.5 58.9755 25.5897 59.9631 25.6794 60.861C25.8588 63.1953 26.1279 65.5296 26.3969 67.9538C26.666 70.737 27.0248 73.5203 27.4733 76.2137C27.7424 78.2787 28.1908 80.3437 28.5496 82.0496C28.729 83.127 28.9981 84.0248 29.3569 84.8328C29.626 85.5511 30.1641 86 30.8817 86C30.9714 86 30.9714 86 31.0611 86C31.5992 86 32.2271 85.6409 32.5859 85.1022C32.855 84.743 33.2137 84.1146 33.3034 83.3065C33.3931 81.6904 33.3931 80.3437 33.3034 79.1765C33.0344 75.7648 33.3034 72.3531 33.5725 69.3005C33.7519 67.5946 33.9313 65.8888 34.1107 64.1829C34.2004 63.734 34.2004 63.3749 34.2901 62.9259C34.3798 63.3749 34.3798 63.8238 34.4695 64.3625C34.4695 64.6318 34.5592 64.8114 34.5592 65.0807C35.0076 68.8516 35.5458 73.3407 35.3664 77.9196C35.3664 78.3685 35.2767 78.8174 35.2767 79.2663C35.187 80.0744 35.187 80.8824 35.187 81.6904V81.7802C35.187 82.9474 35.2767 84.2044 36.1737 85.192C36.6221 85.6409 37.1603 85.9102 37.6985 85.8204C38.1469 85.7307 38.5954 85.4613 38.8645 84.9226C39.2233 84.2044 39.5821 83.4861 39.6718 82.6781C40.2099 80.2539 40.6584 77.74 41.0172 75.3159V75.0466C41.2863 73.5203 41.5553 71.994 41.7347 70.3779C41.9141 69.2107 42.0038 67.9538 42.0935 66.6968C42.1832 65.8888 42.1832 65.0807 42.2729 64.2727C42.542 60.861 42.9008 57.539 43.1698 54.1273L43.2595 53.1397C43.2595 52.9601 43.2595 52.7806 43.2595 52.601C43.2595 52.5112 43.2595 52.4214 43.2595 52.3316V52.5112H43.6183Z" fill="#5CB8CC"/>
<path d="M46.3092 32.1306C44.5153 30.6941 42.7214 29.3474 41.0172 28.0006C40.8378 27.9109 40.6584 27.9109 40.479 27.9109C40.3893 27.9109 40.2996 27.9109 40.2996 27.9109H40.1202L40.2099 28.0904C40.2099 28.1802 40.2099 28.27 40.2996 28.27C40.3893 28.4495 40.3893 28.6291 40.5687 28.8087C40.8378 29.078 41.1069 29.2576 41.376 29.5269C42.4523 30.4248 43.5286 31.4124 44.6947 32.2204C46.937 33.8365 48.0134 36.081 47.9237 38.9541C47.9237 40.1212 47.9237 41.3782 47.9237 42.5454C47.9237 43.533 47.9237 44.5206 47.9237 45.5082C47.9237 48.1119 47.7443 50.7156 47.6546 53.2295C47.5649 54.3966 47.3855 55.474 45.9504 55.9229C45.6813 56.0127 45.4122 56.1025 45.3225 56.0127C45.2328 55.9229 45.2328 55.6536 45.2328 55.474C45.1431 52.8703 44.9637 50.1769 44.874 47.4834C44.874 46.5856 44.7844 45.7775 44.7844 44.8797C44.7844 43.4432 44.6947 42.0067 44.605 40.5702C44.605 40.3906 44.4256 40.211 44.2462 40.0315C44.1565 39.9417 44.0668 39.8519 44.0668 39.7621L43.9771 39.5825L43.8874 39.7621C43.8874 39.8519 43.7977 39.9417 43.708 39.9417C43.6183 40.1212 43.4389 40.3008 43.4389 40.4804C43.2595 41.2884 43.2595 42.0965 43.2595 42.8147C43.2595 43.2636 43.1698 43.7125 43.1698 44.1614C43.0802 45.2388 42.9905 46.2264 42.9905 47.3038C42.9008 48.3812 42.8111 49.3688 42.8111 50.4462C42.8111 50.7156 42.8111 51.0747 42.7214 51.344C42.7214 51.6134 42.7214 51.9725 42.6317 52.2419V52.3316H42.8111C42.9008 52.3316 42.9008 52.3316 42.9905 52.3316H43.0802L43.1698 52.2419C43.2595 52.0623 43.4389 51.7929 43.5286 51.6134C43.6183 51.4338 43.708 51.2542 43.7977 51.0747C43.7977 51.0747 43.8874 51.0747 43.8874 51.1645V51.2542C43.8874 51.4338 43.7977 51.6134 43.8874 51.7929C43.9771 53.409 44.1565 55.0251 44.3359 56.6412C44.3359 56.9105 44.4256 57.0901 44.605 57.2697C44.6947 57.3594 44.874 57.4492 45.0534 57.4492C45.1431 57.4492 45.2328 57.4492 45.3225 57.4492C47.6546 57.0003 48.8206 55.8331 48.8206 53.5886C48.9103 48.8301 49 43.7125 49 38.0562C48.9103 35.5423 48.0134 33.5671 46.3092 32.1306Z" fill="#5CB8CC"/>
<path d="M34.2004 30.0656C34.2901 30.1554 34.2901 30.1554 34.2004 30.0656V30.335L34.3798 30.2452C34.7385 30.1554 35.0076 30.0656 35.3664 29.9758C36.084 29.7963 36.8015 29.5269 37.5191 29.2576C39.2233 28.4495 40.479 26.8335 40.9275 24.8583C41.376 22.7933 40.9275 20.7283 39.7615 19.202C38.6851 17.8552 37.1603 17.2268 35.5458 16.7778C33.3931 16.0596 29.8053 17.7655 28.6393 19.4713C27.563 21.1772 27.6527 23.0626 27.8321 24.4991C28.1908 27.5517 31.2405 30.0656 34.2004 30.0656ZM33.4828 18.2144C35.7252 17.945 38.5954 19.1122 39.4924 21.4465C40.3893 23.9604 39.2233 26.9232 36.7118 28.1802C35.187 28.9882 33.3931 28.9882 31.958 28.1802C30.4332 27.3722 29.3569 25.7561 29.1775 23.9604C29.1775 23.6911 29.0878 23.5115 28.9981 23.332C28.9981 23.2422 28.9084 23.1524 28.9084 23.1524V22.9728C28.9981 22.7933 29.0878 22.6137 29.1775 22.4341C29.2672 22.1648 29.3569 21.8954 29.4466 21.6261C29.626 21.1772 29.8053 20.6385 29.9847 20.1896C30.7023 18.7531 32.2271 18.3939 33.4828 18.2144Z" fill="#5CB8CC"/>
<path d="M16.3511 29.3474C17.2481 29.3474 18.2347 29.1678 19.2214 28.7189C20.2977 28.1802 21.1947 27.5517 21.8225 26.6539C22.0019 26.3846 22.0916 26.205 22.1813 25.9356C22.271 25.8459 22.271 25.7561 22.3607 25.6663L22.4504 25.5765C22.5401 25.4867 22.6298 25.4867 22.7195 25.3072C23.437 23.7809 23.5267 22.1648 22.9885 20.5487C22.271 18.3939 20.8359 17.0472 18.5038 16.3289C16.0821 15.6107 13.9294 16.0596 11.9561 17.7655C9.80344 19.6509 9.26527 22.9728 10.7004 25.6663C11.687 28.0006 13.9294 29.3474 16.3511 29.3474ZM11.1489 22.5239C11.3282 19.202 13.0324 17.4961 16.1718 17.4063C16.1718 17.4063 16.1718 17.4063 16.2615 17.4063C17.876 17.4063 19.4008 17.945 20.4771 19.0224C21.374 19.9202 21.9122 21.1772 21.9122 22.4341C21.9122 25.3969 19.3111 27.9109 16.3511 27.9109C13.4809 28.0006 11.1489 25.4867 11.1489 22.5239Z" fill="#5CB8CC"/>
<path d="M26.9351 29.4372C27.0248 29.5269 27.1145 29.6167 27.2042 29.7065L27.2939 29.7963L27.3836 29.7065C27.563 29.5269 27.7424 29.4372 27.9218 29.3474C28.1908 29.1678 28.4599 28.8985 28.729 28.6291C28.8187 28.5393 28.8187 28.3598 28.8187 28.1802C28.8187 28.0904 28.8187 28.0904 28.8187 28.0006V27.9109H28.6393C28.4599 27.9109 28.3702 27.8211 28.1908 27.9109C27.8321 28.1802 27.4733 28.4495 27.0248 28.7189L26.4866 29.078L26.5763 29.1678C26.7557 29.2576 26.8454 29.3474 26.9351 29.4372Z" fill="#5CB8CC"/>
<path d="M4 18C10.7347 8.18989 29.1633 -5.54425 49 18" stroke="#5CB8CC" stroke-width="1.5" stroke-linecap="round" stroke-dasharray="4 4"/>
<path d="M19.2369 35.1249C19.1734 34.9788 18.9655 34.9212 18.7609 34.9012C18.6099 34.9144 18.4622 34.9652 18.321 35.0913C18.0388 35.3434 17.7565 35.5956 17.424 35.8521C16.9065 36.3143 16.389 36.7766 15.8213 37.2433C15.7742 37.2853 15.7239 37.2897 15.6703 37.2565C15.2949 37.024 14.9195 36.7914 14.5978 36.5921C14.4872 36.4881 14.3296 36.4261 14.2191 36.322C14.0615 36.26 13.9576 36.2312 13.7562 36.2488C13.6052 36.262 13.4105 36.3549 13.323 36.5141C13.2355 36.6734 13.3023 36.8571 13.4631 36.9568L14.053 37.3221C14.482 37.5879 14.911 37.8536 15.34 38.1193C15.5512 38.2146 15.7055 38.239 15.8565 38.2258C16.0075 38.2126 16.1552 38.1617 16.2963 38.0357L17.5664 36.901C17.9461 36.6025 18.2721 36.2707 18.6517 35.9721L19.1724 35.5475C19.3136 35.4214 19.3507 35.2665 19.2369 35.1249Z" fill="#5CB8CC"/>
<path d="M40.2994 35.1249C40.2359 34.9788 40.028 34.9212 39.8234 34.9012C39.6724 34.9144 39.5247 34.9652 39.3835 35.0913C39.1013 35.3434 38.819 35.5956 38.4865 35.8521C37.969 36.3143 37.4515 36.7766 36.8838 37.2433C36.8367 37.2853 36.7864 37.2897 36.7328 37.2565C36.3574 37.024 35.982 36.7914 35.6603 36.5921C35.5497 36.4881 35.3921 36.4261 35.2816 36.322C35.124 36.26 35.0201 36.2312 34.8187 36.2488C34.6677 36.262 34.473 36.3549 34.3855 36.5141C34.298 36.6734 34.3648 36.8571 34.5256 36.9568L35.1155 37.3221C35.5445 37.5879 35.9735 37.8536 36.4025 38.1193C36.6137 38.2146 36.768 38.239 36.919 38.2258C37.07 38.2126 37.2177 38.1617 37.3588 38.0357L38.6289 36.901C39.0086 36.6025 39.3346 36.2707 39.7142 35.9721L40.2349 35.5475C40.3761 35.4214 40.4132 35.2665 40.2994 35.1249Z" fill="#5CB8CC"/>
</g>
</svg>
