<svg width="52" height="52" viewBox="0 0 52 52" fill="none" xmlns="http://www.w3.org/2000/svg">
<circle cx="26" cy="26" r="26" fill="white"/>
<mask id="mask0_839_17327" style="mask-type:alpha" maskUnits="userSpaceOnUse" x="0" y="0" width="52" height="52">
<circle cx="26" cy="26" r="26" fill="white"/>
</mask>
<g mask="url(#mask0_839_17327)">
<path d="M14.6724 58.5334C14.7941 57.0318 14.9613 55.5758 15.007 54.1198C15.1286 50.1763 15.2198 46.2328 15.3111 42.3046C15.3111 42.1226 15.2655 41.9254 15.3415 41.7889C15.4631 41.5917 15.6608 41.44 15.8281 41.2732C15.9801 41.44 16.2234 41.6069 16.2386 41.7889C16.3907 43.2146 16.5275 44.6555 16.634 46.0963C17.0445 51.7689 17.4247 57.4414 17.8808 63.0987C18.0785 65.5861 18.5499 68.0584 18.6411 70.5458C18.7932 74.9139 19.8576 79.1152 20.7243 83.3468C21.0436 84.9242 21.3173 86.5168 21.6974 88.079C21.7887 88.443 22.26 88.9738 22.549 88.9587C22.9139 88.9435 23.3853 88.534 23.5677 88.17C23.8262 87.6543 23.9631 87.0173 23.9479 86.4258C23.9023 84.1507 23.6133 81.8756 23.6894 79.6157C23.7958 76.3093 24.0999 73.018 24.3736 69.7267C24.6777 66.0563 25.0275 62.3859 25.3468 58.7154C25.3924 58.1846 25.5445 57.8054 26.1223 57.8205C26.5328 57.8205 26.7001 58.0935 26.7305 58.5182C27.2171 63.7509 27.7341 68.9684 28.2206 74.2011C28.54 77.6592 28.6312 81.1021 28.175 84.5602C28.023 85.7736 27.9774 87.0021 28.5248 88.1245C28.7072 88.5037 29.133 88.9435 29.4979 88.989C29.7564 89.0193 30.2734 88.5188 30.3798 88.1548C30.7296 87.0325 30.9881 85.8798 31.2162 84.7119C31.6571 82.5582 32.0829 80.4196 32.4478 78.2507C32.8279 76.0666 33.2537 73.8825 33.4666 71.6681C33.9836 66.3293 34.4093 60.9753 34.8351 55.6213C35.048 52.9519 35.1848 50.2825 35.3673 47.6131C35.4889 45.7475 35.6258 43.8819 35.8082 42.0164C35.8387 41.7585 36.0972 41.531 36.2492 41.2884C36.4165 41.531 36.7054 41.7737 36.7054 42.0315C36.827 44.7313 36.9183 47.4311 37.0095 50.1308C37.0855 52.2997 37.1159 54.4686 37.192 56.6527C37.2224 57.2745 37.3744 57.8812 37.4657 58.4879C39.0927 58.4424 40.005 57.7295 40.1418 56.228C40.3091 54.1956 40.3699 52.148 40.4003 50.1005C40.4308 46.5362 40.3395 42.9719 40.4308 39.4228C40.5068 36.8292 39.3512 34.9637 37.4048 33.4318C35.7778 32.1426 34.166 30.823 32.5695 29.4883C32.3718 29.3215 32.3414 28.9878 32.2349 28.7148C32.4782 28.7603 32.7975 28.7148 32.9648 28.8513C35.2 30.6259 37.4505 32.3701 39.6097 34.2508C40.7957 35.2822 41.2823 36.7686 41.2823 38.3308C41.2975 44.0184 41.2975 49.691 41.2519 55.3786C41.2366 56.8953 40.8869 58.3666 39.3359 59.1249C38.7581 59.4131 38.1043 59.5799 37.4809 59.7619C37.0399 59.8833 36.7358 59.7316 36.675 59.2311C36.4925 57.8357 36.2796 56.4403 36.1124 55.045C36.0363 54.4231 36.0211 53.7861 35.9603 52.9367C35.7474 55.4848 35.5802 57.8054 35.3673 60.1108C35.0936 63.0835 34.8047 66.0411 34.5158 69.0139C34.3333 70.8946 34.2269 72.7753 33.9988 74.6561C33.8163 76.2638 33.5426 77.8563 33.2537 79.4337C32.7671 82.1031 32.2501 84.7877 31.7027 87.442C31.5963 88.0032 31.3834 88.5643 31.1249 89.0648C30.7752 89.7322 30.2126 90.2934 29.4067 90.2024C28.5096 90.1114 27.9317 89.4895 27.5972 88.6705C26.8673 86.896 27.0498 85.0152 27.2323 83.2103C27.5516 79.9646 27.3083 76.7491 27.065 73.5337C26.8521 70.7733 26.4568 68.0129 26.1223 65.0553C25.9854 65.4799 25.8638 65.7378 25.8334 66.0108C25.438 70.7126 24.9971 75.4144 24.7234 80.1314C24.5865 82.4671 24.845 84.8181 24.8298 87.169C24.8298 87.7908 24.6017 88.4733 24.2976 89.0345C23.9479 89.7019 23.3396 90.2782 22.5033 90.2327C21.6214 90.1721 21.0132 89.5502 20.7699 88.7463C20.405 87.5785 20.1313 86.3651 19.888 85.1669C19.447 83.0132 19.0212 80.8746 18.6563 78.7057C18.337 76.825 18.0633 74.9139 17.8656 73.018C17.4703 69.2262 17.1205 65.4344 16.7708 61.6427C16.5123 58.7761 16.3146 55.9095 16.0866 52.8761C15.9649 54.4383 15.8889 55.864 15.7368 57.2745C15.6608 57.9722 15.5088 58.6699 15.3111 59.3373C15.2503 59.5344 14.8549 59.8074 14.6876 59.7771C13.4408 59.5041 12.1027 59.2159 11.4641 57.957C11.0687 57.1684 10.8102 56.228 10.795 55.3635C10.719 49.9033 10.7494 44.4583 10.7038 38.9981C10.6734 36.5107 11.7073 34.5845 13.5928 33.0678C15.3415 31.6572 17.1205 30.3225 18.8996 28.9878C19.1429 28.8058 19.7055 28.639 19.7815 28.73C20.1617 29.2153 19.6295 29.4277 19.3558 29.6552C17.3486 31.3539 15.2807 32.9919 13.3191 34.721C12.1787 35.722 11.6465 37.1022 11.6465 38.6341C11.6465 43.9123 11.6617 49.1904 11.6769 54.4686C11.6769 54.9691 11.7682 55.4696 11.829 55.9701C12.0419 57.6537 12.7413 58.3211 14.6724 58.5334Z" fill="#67B00A"/>
<path d="M18.9452 23.649C18.8844 19.2808 22.26 16.7934 25.7421 16.8238C29.8476 16.8693 33.0256 19.4325 33.0712 23.7096C33.1169 27.6683 29.8781 30.732 25.8638 30.7775C22.1384 30.8382 18.7628 27.1222 18.9452 23.649ZM25.7117 18.1736C22.0928 18.2343 20.2985 20.2515 20.1921 23.6793C20.0856 26.9554 22.701 29.6097 25.8334 29.6248C29.1178 29.64 31.9156 26.9251 31.9156 23.6945C31.9156 20.5549 29.2546 18.1888 25.7117 18.1736Z" fill="#67B00A"/>
<path d="M29.5792 36.0175C29.4966 35.7972 29.235 35.7064 28.9784 35.672C28.7897 35.6885 28.6059 35.7614 28.4319 35.9472C28.0841 36.3188 27.7362 36.6904 27.3254 37.0676C26.6876 37.7488 26.0499 38.4301 25.3492 39.1169C25.2912 39.1788 25.2283 39.1843 25.1604 39.1334C24.6854 38.7769 24.2105 38.4204 23.8034 38.1149C23.6627 37.9566 23.4641 37.8603 23.3234 37.702C23.1248 37.6056 22.994 37.5602 22.7424 37.5822C22.5536 37.5988 22.3118 37.7336 22.2058 37.9704C22.0997 38.2071 22.1873 38.4837 22.3908 38.6365L23.1372 39.1967C23.68 39.6041 24.2229 40.0115 24.7657 40.4189C25.0322 40.5661 25.2259 40.6061 25.4146 40.5895C25.6034 40.573 25.7872 40.5001 25.9611 40.3143L27.5265 38.6421C27.9953 38.203 28.3962 37.7131 28.865 37.274L29.5077 36.6492C29.6817 36.4634 29.7248 36.2322 29.5792 36.0175Z" fill="#67B00A"/>
<path d="M9.90384 15.3318C9.26975 15.207 8.66326 15.0983 8.06399 14.9707C7.5715 14.8684 7.08064 14.7485 6.59537 14.6274C6.22378 14.5355 6.0565 14.3594 6.0301 14.0576C6.00798 13.7491 6.20564 13.4439 6.53839 13.3284C7.48769 12.9994 8.43831 12.6758 9.39025 12.3576C9.84322 12.2013 10.2975 12.0503 10.763 11.8967C10.684 10.7743 11.1272 9.72984 11.3189 8.64978C11.3612 8.41111 11.5149 8.26511 11.756 8.23474C12.0028 8.20301 12.057 8.40095 12.1451 8.5678C12.4637 9.16927 12.7681 9.78559 13.1274 10.36C13.4091 10.8106 13.8481 10.9602 14.422 10.9114C15.4194 10.8275 16.424 10.8218 17.426 10.8054C17.5442 10.805 17.7433 10.8934 17.7631 10.9742C17.7933 11.0981 17.7474 11.2977 17.6515 11.3896C16.9941 12.0411 16.2995 12.6618 15.6433 13.3187C14.9491 14.0135 15.0805 13.873 15.6162 14.467C16.2574 15.178 16.8986 15.889 17.5299 16.6082C17.7189 16.8246 17.767 17.0697 17.6159 17.3235C17.4735 17.5638 17.2274 17.6468 16.8903 17.575C15.7973 17.3397 14.6986 17.1058 13.6085 16.8584C13.4199 16.8132 13.3121 16.8566 13.1765 17.0039C12.4094 17.8364 11.6285 18.6608 10.8311 19.4664C10.6843 19.6164 10.4475 19.7371 10.2356 19.766C9.68506 19.8377 9.26833 19.3915 9.34961 18.8522C9.51774 17.7722 9.69146 16.6909 9.86517 15.6095C9.87336 15.5219 9.88844 15.4383 9.90384 15.3318ZM11.2791 16.4799C11.2985 16.4866 11.3179 16.4933 11.3386 16.5054C11.4447 16.3824 11.5396 16.2622 11.6525 16.1432C12.6653 15.0567 13.2005 15.0915 14.2552 15.4845C14.6136 15.6196 14.9793 15.7357 15.342 15.864C15.0942 15.4793 14.8053 15.1446 14.522 14.8086C13.9445 14.1162 13.9719 13.6472 14.6541 13.0238C15.0797 12.6344 15.5368 12.2773 15.9845 11.9053C16.0436 11.8566 16.0958 11.8039 16.2029 11.7093C15.5853 11.7974 15.0446 11.861 14.5075 11.9636C13.6314 12.132 12.9503 11.8874 12.4792 11.1463C12.3444 10.9337 12.2054 10.728 12.0664 10.5222C12.0213 10.459 11.9763 10.3958 11.9681 10.3864C11.7784 10.9179 11.5871 11.467 11.3957 12.0161C11.3741 12.0727 11.3731 12.1415 11.3932 12.1993C11.5784 12.7877 11.4438 13.0604 10.8522 13.2791C10.7165 13.3294 10.5795 13.3743 10.4426 13.4191C10.0596 13.547 9.68345 13.6788 9.30044 13.8066C9.77881 13.9238 10.2496 13.9857 10.7148 14.049C11.2661 14.1256 11.4876 14.4025 11.43 14.9418C11.3839 15.4554 11.3322 15.9703 11.2791 16.4799Z" fill="#67B00A"/>
<path d="M41.2307 20.4835C41.1053 20.3405 40.967 20.2094 40.8672 20.055C40.3837 19.3037 39.9078 18.5503 39.4422 17.7898C39.3475 17.6381 39.2564 17.5891 39.075 17.5986C38.2604 17.6326 37.4457 17.6666 36.629 17.668C36.2768 17.6674 35.9023 17.6234 35.5672 17.5061C34.9961 17.3058 34.8249 16.6533 35.2121 16.2005C35.646 15.6972 36.1203 15.2282 36.5718 14.7407C37.0883 14.1811 37.0909 14.1762 36.7442 13.486C36.4519 12.9131 36.1569 12.3451 35.8491 11.7766C35.6679 11.4461 35.6498 11.1278 35.8637 10.8273C36.0749 10.5317 36.3979 10.441 36.7459 10.5463C37.1879 10.6833 37.6267 10.8627 38.0578 11.0442C38.7197 11.3185 39.3788 11.6101 40.0328 11.8989C40.1899 11.9709 40.2623 11.9091 40.3685 11.8088C41.0339 11.1907 41.7017 10.5803 42.3821 9.98293C42.5658 9.82356 42.7757 9.61536 43.0592 9.76787C43.3326 9.91493 43.3818 10.1996 43.3903 10.4749C43.4264 11.4514 43.4547 12.4301 43.473 13.4033C43.4776 13.601 43.5526 13.7043 43.7015 13.8159C44.3348 14.2888 44.9706 14.7693 45.5883 15.2591C45.8128 15.4365 46.0827 15.6384 45.983 15.9815C45.8832 16.337 45.5701 16.4457 45.2429 16.4837C44.4451 16.5834 43.6474 16.6707 42.8474 16.7503C42.6327 16.7733 42.5702 16.8531 42.5467 17.0545C42.4402 18.0047 42.3236 18.9495 42.2121 19.897C42.1525 20.4568 41.707 20.7146 41.2307 20.4835ZM41.0772 17.3471C41.1468 16.9752 41.1977 16.6499 41.2741 16.3259C41.3806 15.8731 41.6629 15.6031 42.1509 15.5697C42.409 15.5511 42.6618 15.5422 42.9172 15.5285C43.2262 15.5122 43.5302 15.4931 43.9211 15.4704C43.4008 15.1149 42.9641 14.7982 42.5066 14.508C42.2968 14.3762 42.1999 14.2045 42.1933 13.9742C42.1875 13.8515 42.1918 13.7342 42.1988 13.612C42.2202 12.8805 42.2417 12.149 42.2687 11.3828C41.7754 11.7659 41.3106 12.1204 40.866 12.4857C40.8092 12.5307 40.7997 12.6453 40.801 12.7278C40.8185 13.2535 40.4399 13.6418 39.8972 13.5828C39.6195 13.553 39.3455 13.4434 39.0791 13.3441C38.7822 13.2285 38.5012 13.0836 38.1438 12.9229C38.6667 13.9409 39.0834 14.8892 38.0157 15.7819C38.6079 15.7731 39.1083 15.7652 39.6088 15.7448C39.9484 15.7323 40.2325 15.8474 40.4299 16.1236C40.5799 16.3302 40.7015 16.553 40.8231 16.7759C40.9123 16.9498 40.9835 17.1329 41.0772 17.3471Z" fill="#67B00A"/>
</g>
</svg>
