<svg width="52" height="52" viewBox="0 0 52 52" fill="none" xmlns="http://www.w3.org/2000/svg">
<circle cx="26" cy="26" r="26" fill="#F6F9F2"/>
<path d="M34.9032 16H18.1888C16.8954 16 16 16.8911 16 18.1782V33.7228C16 35.1089 16.8954 36 18.1888 36H26.546C29.3317 36 32.1174 36 34.9032 36C35.1021 36 35.3011 36 35.5001 35.901C36.3955 35.604 36.9925 34.8119 36.9925 33.8218V18.1782C37.092 16.8911 36.1965 16 34.9032 16ZM35.5996 21.4455V33.8218C35.5996 34.3168 35.4006 34.5149 34.9032 34.5149H18.1888C17.6913 34.5149 17.4924 34.3168 17.4924 33.8218V21.4455H35.5996ZM35.5996 19.9604H17.4924V19.3663C17.4924 18.9703 17.4924 18.5743 17.4924 18.1782C17.4924 17.7822 17.6913 17.5842 18.0893 17.5842H35.0027C35.4006 17.5842 35.5996 17.7822 35.5996 18.1782C35.5996 18.5743 35.5996 19.0693 35.5996 19.4653V19.9604Z" fill="#9EBE74"/>
<path d="M20.676 29.3663C21.074 29.3663 21.5715 29.3663 21.9694 29.3663H22.5664C22.8648 29.3663 23.1633 29.1683 23.2628 28.8713C23.3623 28.7723 23.3623 28.6733 23.4618 28.4752L24.3572 26.297C24.3572 26.396 24.3572 26.396 24.3572 26.495C24.6557 27.4851 24.8546 28.4752 25.1531 29.5644C25.3521 30.3564 25.5511 31.1485 25.7501 32.0396C25.8495 32.3366 25.949 32.5347 26.2475 32.6337C26.347 32.6337 26.4465 32.7327 26.546 32.7327C26.6455 32.7327 26.745 32.7327 26.8444 32.6337C27.0434 32.5347 27.2424 32.3366 27.3419 32.1386C27.9388 30.6535 28.5358 29.0693 29.1327 27.5842V27.3861C29.3317 27.8812 29.5307 28.3762 29.7297 28.8713C29.8292 29.2673 30.1276 29.3663 30.5256 29.3663H31.1225C31.5205 29.3663 31.9185 29.3663 32.3164 29.3663C32.8139 29.3663 33.1123 29.0693 33.1123 28.5743C33.1123 28.3762 33.0128 28.1782 32.9134 28.0792C32.8139 27.8812 32.5154 27.8812 32.3164 27.8812C31.9185 27.8812 31.421 27.8812 31.023 27.8812C30.9236 27.8812 30.9236 27.8812 30.8241 27.7822C30.6251 27.1881 30.4261 26.6931 30.1276 26.099C30.0281 25.802 29.9286 25.5049 29.7297 25.1089C29.6302 24.7129 29.3317 24.5149 29.0332 24.5149C28.8343 24.5149 28.5358 24.6139 28.3368 25.1089C27.7399 26.5941 27.2424 27.9802 26.6455 29.4653L26.546 28.8713C26.4465 28.4752 26.347 28.0792 26.2475 27.6832L25.949 26.5941C25.7501 25.703 25.5511 24.8119 25.3521 23.9208C25.2526 23.6238 25.1531 23.4257 24.8546 23.3267C24.6557 23.2277 24.4567 23.2277 24.2577 23.3267C24.1582 23.3267 23.9592 23.5248 23.8597 23.7228C23.2628 25.0099 22.7653 26.396 22.1684 27.6832C22.1684 27.8812 22.0689 27.8812 21.9694 27.8812C21.5715 27.8812 21.074 27.8812 20.676 27.8812C20.1786 27.8812 19.8801 28.1782 19.8801 28.6733C19.8801 29.0693 20.2781 29.3663 20.676 29.3663Z" fill="#9EBE74"/>
<path d="M29.8292 17.9802C29.1327 17.9802 29.0332 18.0792 29.0332 18.7723C29.0332 19.4653 29.1327 19.5644 29.8292 19.5644C30.5256 19.5644 30.6251 19.4653 30.6251 18.7723C30.5256 18.0792 30.5256 17.9802 29.8292 17.9802Z" fill="#9EBE74"/>
<path d="M31.7195 17.9802C31.023 17.9802 31.023 18.0792 31.023 18.7723C31.023 19.4653 31.1225 19.5644 31.819 19.5644C32.5154 19.5644 32.5154 19.4653 32.5154 18.7723C32.5154 18.0792 32.4159 17.9802 31.7195 17.9802Z" fill="#9EBE74"/>
<path d="M33.7093 17.9802C33.0128 17.9802 32.9134 18.0792 32.9134 18.7723C32.9134 19.4653 33.0128 19.5644 33.7093 19.5644C34.4057 19.5644 34.5052 19.4653 34.5052 18.7723C34.5052 18.4752 34.5052 18.2772 34.4057 18.1782C34.2067 17.9802 34.0078 17.9802 33.7093 17.9802Z" fill="#9EBE74"/>
</svg>
