<svg width="185" height="185" viewBox="0 0 185 185" fill="none" xmlns="http://www.w3.org/2000/svg">
<rect width="185" height="185" rx="92.5" fill="white"/>
<g clip-path="url(#clip0_671_13)">
<path d="M98.1798 55H60.8202C57.5955 55 55 57.5913 55 60.8109V98.1891C55 101.409 57.5955 104 60.8202 104H98.1798C101.404 104 104 101.409 104 98.1891V60.8109C104 57.5913 101.404 55 98.1798 55ZM76.0787 90.258C76.0787 91.3574 75.2135 92.2212 74.1124 92.2212H65.9326C64.8315 92.2212 63.9663 91.3574 63.9663 90.258V65.9936C63.9663 64.8942 64.8315 64.0304 65.9326 64.0304H74.1124C75.2135 64.0304 76.0787 64.8942 76.0787 65.9936V90.258ZM94.9551 79.1074C94.9551 80.2067 94.0899 81.0705 93.0674 81.0705H84.809C83.7079 81.0705 82.8427 80.2067 82.8427 79.1074V65.9936C82.8427 64.8942 83.7079 64.0304 84.809 64.0304H92.9888C94.0899 64.0304 94.9551 64.8942 94.9551 65.9936V79.1074Z" fill="#878787"/>
<path d="M111.373 76.1231L81.3794 78.3297C78.9598 78.5372 78.1177 80.1142 78.1177 82.0014V114.758C78.1177 116.23 78.6417 117.488 79.9067 119.168L86.9578 128.303C88.1143 129.773 89.1678 130.089 91.3797 129.981L126.211 127.882C129.156 127.673 130 126.307 130 123.998V87.1472C130 85.9528 129.527 85.6082 128.132 84.5924L127.893 84.4173L118.319 77.6982C116.004 76.0203 115.054 75.8074 111.373 76.1231Z" fill="white"/>
<path fill-rule="evenodd" clip-rule="evenodd" d="M111.373 76.1231L81.3794 78.3297C78.9598 78.5372 78.1177 80.1142 78.1177 82.0014V114.758C78.1177 116.23 78.6417 117.488 79.9067 119.168L86.9578 128.303C88.1143 129.773 89.1678 130.089 91.3797 129.981L126.211 127.882C129.156 127.673 130 126.307 130 123.998V87.1472C130 85.9528 129.527 85.6082 128.132 84.5924C128.052 84.5341 127.972 84.4758 127.893 84.4173L118.319 77.6982C116.004 76.0203 115.054 75.8074 111.373 76.1231ZM92.1693 86.5428C89.325 86.734 88.6799 86.7773 87.0644 85.4674L82.957 82.2125C82.5377 81.7921 82.7492 81.2671 83.8009 81.1642L112.636 79.0641C115.056 78.853 116.319 79.6956 117.266 80.4281L122.212 83.9987C122.421 84.1034 122.947 84.7331 122.316 84.7331L92.5362 86.5193L92.1693 86.5428ZM88.8516 123.682V92.3958C88.8516 91.0318 89.2726 90.4021 90.5358 90.2957L124.736 88.3019C125.896 88.1973 126.422 88.9334 126.422 90.2957V121.371C126.422 122.738 126.211 123.893 124.315 123.998L91.5893 125.889C89.6919 125.993 88.8516 125.365 88.8516 123.682ZM121.162 94.0738C121.371 95.021 121.162 95.9665 120.211 96.0729L118.635 96.3869V119.482C117.266 120.218 116.003 120.636 114.951 120.636C113.267 120.636 112.846 120.113 111.583 118.538L101.27 102.372V118.015L104.533 118.749C104.533 118.749 104.533 120.638 101.899 120.638L94.6396 121.058C94.4282 120.638 94.6396 119.588 95.3769 119.379L97.2707 118.855V98.1695L94.6396 97.9584C94.43 97.013 94.954 95.6489 96.4286 95.5443L104.217 95.021L114.951 111.398V96.9101L112.215 96.5962C112.004 95.4396 112.846 94.5988 113.897 94.496L121.162 94.0738Z" fill="#6F6F6F"/>
</g>
<defs>
<clipPath id="clip0_671_13">
<rect width="75" height="75" fill="white" transform="translate(55 55)"/>
</clipPath>
</defs>
</svg>
