<svg width="52" height="52" viewBox="0 0 52 52" fill="none" xmlns="http://www.w3.org/2000/svg">
<circle cx="26" cy="26" r="26" fill="#F9F8EB"/>
<path d="M36.9736 21.3187C36.8741 21.0191 36.6753 20.9192 36.4764 20.8193C36.2776 20.7195 35.9793 20.8193 35.7804 20.9192C35.4821 21.119 35.1839 21.4186 34.7861 21.6183C34.5873 21.8181 34.3884 21.9179 34.1896 22.1177C32.4993 20.6196 32.3999 20.5197 30.4113 19.7207V19.4211C30.5107 19.0216 30.6102 18.6221 30.6102 18.2227C30.6102 18.2227 30.6102 18.2227 30.7096 18.2227L30.9085 18.3225C31.4056 18.4224 32.0022 18.6221 32.4993 18.722C32.7976 18.8219 33.0959 18.722 33.2947 18.6221C33.4936 18.4224 33.593 18.2227 33.4936 17.923C33.3941 17.6234 33.1953 17.4237 32.897 17.3238L32.0022 17.1241C30.5107 16.7246 29.0193 16.3251 27.5279 16.0255C27.1302 15.9256 26.7325 16.1253 26.6331 16.5248C26.5336 16.9243 26.7325 17.3238 27.2296 17.4237C27.4285 17.5235 27.7268 17.5235 27.9256 17.6234C28.025 17.6234 28.2239 17.7233 28.3233 17.7233L28.6216 17.8232C28.8205 17.923 29.0193 17.923 29.2182 18.0229V18.2227C29.1188 18.5223 29.0193 18.9218 28.9199 19.4211C26.8319 19.2214 24.9428 19.7207 23.2525 20.9192C21.5622 22.1177 20.4685 23.7157 19.9714 25.7131C19.0765 29.2087 20.6674 32.9039 23.7497 34.8015C25.0422 35.6005 26.5336 36 28.025 36C30.0136 36 32.0022 35.3009 33.593 33.9027C34.8856 32.7042 35.7804 31.2061 36.1781 29.5083C36.5758 27.4109 36.2776 25.3136 35.0844 23.416C35.1839 23.3162 35.1839 23.3162 35.2833 23.3162C35.7804 22.9167 36.1781 22.6171 36.6753 22.2176C36.8741 21.9179 37.073 21.6183 36.9736 21.3187ZM34.7861 27.7106C34.7861 29.5083 34.0901 31.306 32.7976 32.6043C31.505 33.9027 29.8147 34.6018 28.025 34.6018C24.2468 34.6018 21.264 31.5057 21.264 27.8104C21.264 24.0153 24.3462 21.0191 28.025 20.9192C31.8033 20.8193 34.7861 23.9154 34.7861 27.7106Z" fill="#C1B332"/>
<path d="M18.48 20.4199C18.8777 20.4199 19.3748 20.4199 19.7725 20.4199C20.1702 20.4199 20.6674 20.4199 21.0651 20.4199C21.5622 20.4199 21.9599 20.1202 21.9599 19.6209C21.9599 19.4211 21.8605 19.2214 21.7611 19.1215C21.5622 19.0216 21.3634 18.9218 21.1645 18.9218H18.48C18.0823 18.9218 17.6846 19.2214 17.6846 19.6209C17.6846 20.1202 18.0823 20.4199 18.48 20.4199Z" fill="#C1B332"/>
<path d="M20.568 22.2176C20.568 21.8181 20.2697 21.5185 19.7725 21.5185H17.1874C16.9886 21.5185 16.7897 21.6183 16.5908 21.7182C16.392 21.8181 16.392 22.0178 16.392 22.2176C16.392 22.6171 16.6903 22.9167 17.1874 22.9167C17.2868 22.9167 17.4857 22.9167 17.5851 22.9167C17.8834 22.9167 18.1817 22.9167 18.48 22.9167H18.7783C19.0765 22.9167 19.4743 22.9167 19.7725 22.9167C20.2697 22.9167 20.568 22.6171 20.568 22.2176Z" fill="#C1B332"/>
<path d="M18.3805 24.215C17.4857 24.215 16.5908 24.215 15.7954 24.215C15.2983 24.215 15 24.5146 15 24.9141C15 25.1139 15.0994 25.3136 15.1989 25.4135C15.2983 25.5134 15.5966 25.6132 15.7954 25.6132H17.088C17.4857 25.6132 17.9828 25.6132 18.3805 25.6132C18.8777 25.6132 19.176 25.3136 19.176 24.9141C19.176 24.5146 18.8777 24.215 18.3805 24.215Z" fill="#C1B332"/>
<path d="M30.2125 24.1151C29.9142 24.3149 29.6159 24.5146 29.3176 24.7144C28.8205 25.014 28.4228 25.4135 27.9256 25.7131C27.6273 25.9129 27.3291 26.2125 27.1302 26.612C26.9313 27.0115 27.0308 27.4109 27.2296 27.8104C27.4285 28.2099 27.8262 28.4097 28.3233 28.4097C28.3233 28.4097 28.4228 28.4097 28.5222 28.4097C29.0193 28.3098 29.417 27.9103 29.6159 27.5108C30.0136 27.0115 30.4113 26.4122 30.7096 25.9129L31.2067 25.2137C31.505 24.8143 31.4056 24.4148 31.2067 24.215C30.9085 23.8155 30.6102 23.8155 30.2125 24.1151Z" fill="#C1B332"/>
</svg>
