<svg width="185" height="185" viewBox="0 0 185 185" fill="none" xmlns="http://www.w3.org/2000/svg">
<rect width="185" height="185" rx="92.5" fill="white"/>
<path fill-rule="evenodd" clip-rule="evenodd" d="M57.1559 90.6906C77.2885 81.941 90.7134 76.1727 97.4306 73.3857C116.609 65.4284 120.595 64.0461 123.192 64.0005C123.763 63.9904 125.041 64.1317 125.868 64.8014C126.567 65.3669 126.759 66.1308 126.851 66.667C126.943 67.2032 127.058 68.4246 126.967 69.3789C125.927 80.2719 121.43 106.706 119.142 118.907C118.174 124.069 116.268 125.8 114.423 125.969C110.412 126.337 107.367 123.325 103.483 120.786C97.4043 116.811 93.9704 114.337 88.0705 110.459C81.252 105.977 85.6721 103.513 89.5579 99.4872C90.5749 98.4336 108.245 82.4011 108.587 80.9467C108.63 80.7648 108.67 80.0868 108.266 79.7288C107.862 79.3707 107.266 79.4932 106.836 79.5905C106.226 79.7286 96.5163 86.1306 77.7057 98.7966C74.9496 100.685 72.4531 101.604 70.2164 101.556C67.7505 101.503 63.0073 100.165 59.4812 99.0221C55.1562 97.6197 51.7189 96.8783 52.0182 94.4966C52.1741 93.2561 53.8866 91.9874 57.1559 90.6906Z" fill="#878787"/>
</svg>
