<svg width="52" height="52" viewBox="0 0 52 52" fill="none" xmlns="http://www.w3.org/2000/svg">
<circle cx="26" cy="26" r="26" fill="#FCF1FD"/>
<path d="M28.4389 23.4286C27.4434 23.033 26.3484 22.9341 24.8552 23.1319C22.267 23.4286 20.4751 25.5055 20.4751 28.1758C20.4751 29.4615 20.4751 30.7473 20.4751 32.033C20.4751 32.7253 20.4751 33.3187 20.4751 34.011C20.4751 34.6044 20.7738 34.8022 21.2715 34.8022H30.7285C31.2262 34.8022 31.5249 34.5055 31.5249 34.011C31.5249 33.4176 31.5249 32.8242 31.5249 32.2308C31.5249 30.8462 31.5249 29.4615 31.5249 28.0769C31.6244 26 30.3303 24.2198 28.4389 23.4286ZM30.1312 31.8352C30.1312 32.3297 30.1312 32.8242 30.1312 33.3187V33.4176C27.4434 33.4176 24.7557 33.4176 21.9683 33.4176V28.1758C21.9683 26.2967 23.2624 24.8132 25.0543 24.6154C25.4525 24.6154 25.8507 24.5165 26.2489 24.5165C26.7466 24.5165 27.3439 24.6154 27.8416 24.8132C29.2353 25.3077 30.1312 26.5934 30.1312 27.978C30.1312 29.2637 30.1312 30.5494 30.1312 31.8352Z" fill="#E070E2"/>
<path d="M19.8778 23.8242C19.4796 23.8242 19.0814 23.8242 18.6833 23.8242C16.5928 23.9231 15 25.5055 15 27.5824V30.7473C15 31.1429 15 31.5385 15 31.9341C15 32.7253 15 33.4176 15 34.2088C15 34.7033 15.2986 35 15.6968 35C16.1946 35 16.5928 35 17.0905 35C17.5882 35 17.9864 35 18.4842 35C18.7828 35 19.0814 34.8022 19.181 34.5055C19.2805 34.3077 19.2805 34.011 19.0814 33.8132C18.9819 33.6154 18.6833 33.5165 18.4842 33.5165C18.2851 33.5165 18.086 33.5165 17.7873 33.5165C17.3891 33.5165 16.8914 33.5165 16.4932 33.5165C16.4932 33.4176 16.4932 33.4176 16.4932 33.3187C16.4932 32.7253 16.4932 32.033 16.4932 31.4396C16.4932 30.1538 16.4932 28.8681 16.4932 27.5824C16.4932 26.3956 17.2896 25.5055 18.3846 25.4066C18.6833 25.4066 19.0814 25.4066 19.3801 25.4066C19.5792 25.4066 19.6787 25.4066 19.8778 25.4066C20.276 25.4066 20.5747 25.1099 20.5747 24.6154C20.5747 24.1209 20.276 23.8242 19.8778 23.8242Z" fill="#E070E2"/>
<path d="M37 27.6813C37 26.2967 36.4027 25.2088 35.2081 24.4176C34.4118 23.9231 33.4163 23.7253 32.1222 23.7253C31.724 23.7253 31.4253 24.1209 31.4253 24.4176C31.4253 24.8132 31.724 25.1099 32.1222 25.1099C32.2217 25.1099 32.4208 25.1099 32.5204 25.1099C32.6199 25.1099 32.819 25.1099 32.9186 25.1099C33.6154 25.1099 34.2127 25.4066 34.7104 25.8022C35.2081 26.1978 35.5068 26.7912 35.5068 27.4835C35.5068 28.4725 35.5068 29.5604 35.5068 30.5494C35.5068 30.9451 35.5068 31.3407 35.5068 31.7363V33.2198H35.4072C35.2081 33.2198 35.1086 33.2198 34.9095 33.2198C34.4118 33.2198 34.0136 33.2198 33.5158 33.2198C33.3167 33.2198 33.1176 33.3187 33.0181 33.4176C32.819 33.6154 32.7195 33.9121 32.819 34.2088C32.9186 34.5055 33.2172 34.7033 33.5158 34.7033C33.8145 34.7033 34.1131 34.7033 34.4118 34.7033C35.0091 34.7033 35.6063 34.7033 36.1041 34.7033C36.7014 34.7033 37 34.4066 37 33.8132C37 33.2198 37 32.5275 37 31.9341C37 30.6484 37 29.1648 37 27.6813Z" fill="#E070E2"/>
<path d="M25.9502 22.5385C26.7466 22.5385 27.4434 22.2418 27.9412 21.7473C28.4389 21.2527 28.7376 20.5604 28.7376 19.7692C28.7376 18.2857 27.4434 17 25.9502 17C25.2534 17 24.5566 17.2967 23.9593 17.7912C23.4615 18.2857 23.1629 18.978 23.1629 19.7692C23.1629 21.3516 24.457 22.5385 25.9502 22.5385ZM25.9502 18.4835C26.3484 18.4835 26.6471 18.5824 26.8462 18.8791C27.1448 19.1758 27.2443 19.4725 27.2443 19.7692C27.2443 20.1648 27.1448 20.4615 26.8462 20.6593C26.6471 20.8571 26.2489 21.0549 25.9502 21.0549C25.2534 21.0549 24.6561 20.4615 24.6561 19.7692C24.6561 19.0769 25.2534 18.4835 25.9502 18.4835Z" fill="#E070E2"/>
<path d="M19.8778 23.1319C20.9729 23.1319 21.8688 22.2418 21.8688 21.1538C21.8688 20.0659 20.9729 19.1758 19.8778 19.1758C19.3801 19.1758 18.8824 19.3736 18.4842 19.7692C18.086 20.1648 17.8869 20.6593 17.8869 21.1538C17.8869 21.6484 18.086 22.1429 18.4842 22.5385C18.8824 22.9341 19.2805 23.1319 19.8778 23.1319ZM19.0814 21.1538C19.0814 20.956 19.181 20.7582 19.2805 20.5604C19.3801 20.4615 19.5792 20.3626 19.7783 20.3626C19.9774 20.3626 20.1765 20.4615 20.3756 20.5604C20.5747 20.7582 20.5747 20.956 20.5747 21.1538C20.5747 21.3516 20.4751 21.5495 20.3756 21.7473C20.276 21.8462 20.0769 21.9451 19.8778 21.9451C19.3801 21.9451 19.0814 21.5494 19.0814 21.1538Z" fill="#E070E2"/>
<path d="M32.1222 23.1319C32.6199 23.1319 33.1176 22.9341 33.5158 22.5385C33.914 22.1429 34.1131 21.6484 34.1131 21.1538C34.1131 20.6593 33.914 20.1648 33.5158 19.7692C33.1176 19.3736 32.6199 19.1758 32.1222 19.1758C31.6244 19.1758 31.1267 19.3736 30.7285 19.7692C30.3303 20.1648 30.1312 20.6593 30.1312 21.1538C30.2308 22.2418 31.0271 23.1319 32.1222 23.1319ZM32.1222 20.3626C32.3213 20.3626 32.5204 20.4615 32.6199 20.5604C32.819 20.7582 32.9186 20.956 32.9186 21.1538C32.9186 21.5494 32.6199 21.9451 32.1222 21.9451C31.9231 21.9451 31.724 21.8462 31.6244 21.7473C31.5249 21.6484 31.4253 21.4505 31.4253 21.1538C31.4253 20.7582 31.724 20.3626 32.1222 20.3626Z" fill="#E070E2"/>
</svg>
