<svg width="52" height="52" viewBox="0 0 52 52" fill="none" xmlns="http://www.w3.org/2000/svg">
<circle cx="26" cy="26" r="26" fill="#EFF8FA"/>
<path d="M34.0369 31.1439C33.5336 30.623 33.0712 30.1589 32.6268 29.6805C32.1644 29.1833 32.3321 28.3924 32.9488 28.184C33.3024 28.0656 33.6153 28.1603 33.8782 28.4397C34.7261 29.3301 35.5785 30.2157 36.4264 31.1013C36.5216 31.2008 36.6214 31.3002 36.7166 31.3997C37.0884 31.7928 37.0974 32.3374 36.7256 32.7258C35.7826 33.7156 34.8349 34.7006 33.8828 35.681C33.4883 36.0883 32.9669 36.1072 32.6132 35.7283C32.255 35.3495 32.2732 34.8143 32.6676 34.4023C33.0485 33.9997 33.4384 33.5972 33.8193 33.1946C33.8737 33.1378 33.9281 33.0715 34.0188 32.9673C33.8873 32.9673 33.8102 32.9673 33.7286 32.9673C29.6933 32.9673 25.6579 32.9673 21.6226 32.9626C21.4367 32.9626 21.3551 33.0146 21.278 33.2041C20.7611 34.4923 19.4598 35.2027 18.154 34.9232C16.8482 34.6438 15.9187 33.4598 15.9187 32.0675C15.9142 30.6893 16.8301 29.4958 18.1223 29.2022C19.4326 28.9038 20.7702 29.6284 21.2825 30.9308C21.3596 31.1203 21.4503 31.1676 21.6317 31.1676C22.6201 31.1534 23.6131 31.1392 24.6015 31.1487C27.0408 31.1676 29.5074 29.3869 30.2238 26.5785C31.1397 22.9886 28.8001 19.342 25.2725 18.8731C22.543 18.5132 19.9223 20.1708 18.9747 22.8655C18.9475 22.9366 18.9339 23.0123 18.8931 23.1544C19.1153 23.0076 19.2875 22.8939 19.4598 22.7803C19.7092 22.6145 19.9541 22.444 20.2034 22.283C20.6296 22.013 21.142 22.122 21.405 22.5293C21.677 22.9508 21.5727 23.5001 21.142 23.7938C20.1672 24.4615 19.1923 25.1198 18.213 25.7686C17.8004 26.0433 17.288 25.9202 17.0205 25.4892C16.3948 24.4757 15.7736 23.4575 15.157 22.4393C14.9484 22.0983 14.9439 21.7526 15.1661 21.4163C15.3746 21.099 15.6784 20.9853 16.0366 21.0516C16.2996 21.099 16.4855 21.26 16.626 21.4921C16.8255 21.8236 17.0296 22.1456 17.2517 22.5056C18.222 19.7919 19.9767 17.9922 22.6292 17.2724C24.801 16.6804 26.8595 17.0592 28.7366 18.3522C30.0968 19.2851 31.0671 20.5638 31.6475 22.1504C32.2278 23.7369 32.3094 25.3614 31.9014 27.0047C31.4933 28.6481 30.6454 30.0073 29.3804 31.1487C30.9447 31.1439 32.4591 31.1439 34.0369 31.1439ZM18.7208 33.1757C19.3148 33.1709 19.7818 32.6784 19.7818 32.0627C19.7818 31.447 19.3057 30.945 18.7208 30.945C18.1268 30.9403 17.6462 31.447 17.6507 32.0769C17.6507 32.6879 18.1268 33.1757 18.7208 33.1757Z" fill="#5CB8CC"/>
</svg>
