<svg width="480" height="460" viewBox="0 0 480 460" fill="none" xmlns="http://www.w3.org/2000/svg">
<path d="M73.2187 327.678L76.6775 324.227C76.6773 323.652 76.6771 323.076 76.6769 322.501L78.1181 321.063C78.1179 320.488 78.1177 319.913 78.1175 319.337L98.438 299.065C98.2937 298.633 98.4377 298.202 98.4375 297.627L121.208 274.91C121.208 274.334 121.063 273.903 121.063 273.328C121.64 273.328 122.216 273.04 123.081 273.041C123.081 272.465 123.369 271.89 123.513 270.883C123.802 270.883 124.378 270.884 124.955 270.884L132.881 262.976C132.881 262.401 132.881 261.825 132.881 261.25L135.187 258.95C135.763 258.95 136.34 258.95 136.917 258.95C138.07 258.375 137.637 257.368 137.637 256.505L147.869 246.297C148.301 246.441 148.734 246.297 149.31 246.298C149.31 246.01 149.31 245.722 149.31 244.859L157.236 236.952C157.669 237.096 157.957 237.383 158.246 237.383C157.958 237.959 156.66 238.102 157.237 239.253C158.679 238.678 158.679 238.678 158.246 237.383L161.704 233.933C162.281 233.933 162.858 233.933 163.434 233.933C163.867 233.502 164.155 233.214 164.443 232.639C165.164 233.071 165.597 233.79 165.741 232.496C165.452 232.496 164.876 232.495 164.443 232.639C163.722 231.92 164.299 231.345 165.019 230.626C165.884 230.914 167.038 230.914 167.903 231.202L169.776 229.333C170.353 229.333 170.929 229.333 171.506 229.333L176.982 223.87C176.982 223.295 176.982 222.719 176.982 221.856C178.423 221.569 179.865 220.994 181.883 220.42C181.739 219.701 181.45 218.55 181.306 218.406C182.026 216.537 183.179 216.825 184.044 216.825C184.188 216.681 184.332 216.537 184.477 216.393C184.909 215.099 185.341 213.805 185.772 211.648L194.708 202.733C194.708 202.158 194.563 201.727 194.563 201.151C195.14 201.152 195.572 201.008 196.149 201.008L199.175 197.989C199.175 197.701 199.175 197.126 199.319 196.407L200.904 194.825C201.481 194.825 202.057 194.826 202.634 194.826C202.634 194.538 202.49 194.107 202.634 193.387C205.228 190.224 208.398 187.636 211.136 184.617C211.713 184.617 212.001 184.617 212.434 184.761C213.01 183.898 212.866 182.316 214.595 181.454C215.028 181.598 216.181 181.886 216.614 182.03C218.488 181.311 218.343 180.304 218.199 179.585C218.775 178.435 219.64 178.723 220.649 178.867L222.955 176.567C223.532 176.567 224.108 176.567 224.973 176.567C225.117 175.848 225.405 174.985 225.549 174.266C225.838 174.266 226.414 174.266 226.847 174.41L232.467 168.803C233.477 168.947 234.63 169.235 235.639 169.379C235.639 168.516 235.639 167.941 235.639 167.366L237.224 165.784C238.521 165.641 238.81 166.792 239.819 167.511C239.675 168.518 239.387 169.668 239.244 170.963C240.829 170.532 241.983 170.244 243.28 169.813L246.018 167.081C246.595 167.082 247.171 167.082 247.748 167.082L250.63 164.206C251.784 163.919 252.504 163.776 254.378 163.345C254.09 163.345 254.955 163.345 255.82 163.345C255.964 164.352 255.965 165.503 256.109 166.509C256.398 166.509 256.542 166.653 256.686 166.51C258.271 164.928 259.857 163.346 261.298 161.909C261.874 161.909 262.451 161.909 263.316 161.909C263.748 161.478 264.18 160.471 264.757 160.471C266.343 160.616 267.496 159.178 269.082 159.61L271.388 157.309C272.541 157.31 272.685 157.741 272.83 159.036C272.541 159.036 271.965 159.036 271.532 158.892C271.532 159.467 271.388 159.898 271.389 160.474C270.812 160.473 270.379 160.617 269.803 160.617L267.497 162.917C267.209 163.493 267.93 164.5 267.209 164.931C266.777 164.787 266.488 164.499 266.2 164.499C265.623 164.786 265.912 165.362 266.345 165.793L265.624 166.512C265.191 166.368 264.903 166.081 264.615 166.081C264.038 166.368 264.327 166.943 264.759 167.087C264.471 167.663 263.75 168.381 265.048 168.526C264.904 168.094 265.048 167.663 264.759 167.087C264.903 166.944 265.192 166.656 265.48 166.368C265.912 166.8 266.345 167.232 266.778 167.663C266.922 167.807 267.21 167.807 267.354 167.663C267.498 167.52 267.642 167.088 267.642 166.801C267.21 166.369 266.777 165.937 266.344 165.506L267.065 164.787C267.786 165.794 268.939 164.931 269.804 165.507C269.948 164.788 269.804 164.356 269.804 163.493C270.525 163.925 271.101 164.213 271.822 164.645C273.408 163.638 274.561 161.913 276.146 160.619C276.723 160.619 277.299 160.619 277.876 160.619C278.02 159.9 278.308 159.325 278.596 158.462C279.461 158.175 280.614 157.888 281.479 157.6C281.479 159.039 281.624 160.333 281.769 161.627L280.183 163.209C280.183 163.497 280.184 164.072 280.184 164.647C279.751 165.079 279.319 165.798 278.599 166.516C278.743 166.948 279.175 167.38 279.464 167.955C280.617 167.668 281.482 167.38 283.068 166.949L285.23 164.793C286.095 165.081 287.248 165.369 287.825 165.656L290.707 162.781C291.284 162.781 291.86 162.781 292.437 162.781L294.166 161.056C294.743 161.344 295.176 161.775 296.041 162.351C295.176 163.214 294.6 163.789 294.167 164.508C294.6 166.09 293.447 166.953 292.727 167.671C292.727 167.959 292.727 168.534 292.871 168.391C294.169 168.535 294.313 168.679 295.466 169.542C296.331 168.967 297.196 168.392 297.917 167.961C298.061 168.105 298.349 168.105 298.349 168.105C298.494 168.824 298.35 169.543 299.071 170.262C299.648 170.838 300.369 171.269 300.225 172.276C299.648 172.276 299.071 172.276 298.639 172.42C298.639 172.995 298.639 173.57 298.64 174.433C297.919 174.577 297.054 174.864 296.333 175.008C296.333 175.295 296.333 175.871 296.334 176.446L291.578 181.191C291.578 181.766 291.722 182.197 291.578 182.916L285.814 188.668C287.255 189.243 288.265 189.675 289.418 189.963C289.995 189.676 290.283 189.388 290.86 189.101C291.292 189.82 291.292 189.82 288.842 192.552C288.843 193.127 288.843 193.702 288.699 194.421C286.969 196.147 285.096 198.016 283.366 199.741C283.222 199.885 283.367 200.029 283.367 200.604C285.241 200.173 285.961 198.591 286.97 197.585C289.42 196.867 291.727 196.292 294.466 195.574C294.61 194.855 294.609 194.279 294.609 193.416L296.05 191.979C296.627 191.979 297.204 191.979 297.78 191.979L301.815 187.953C302.392 188.241 302.681 188.529 303.402 188.961C303.402 189.824 303.258 190.543 303.258 191.693L300.376 194.569C300.376 195.144 300.376 195.719 300.377 196.295L296.341 200.321C297.351 201.328 297.495 200.321 298.215 200.177C298.648 200.034 299.369 200.178 299.945 200.178C300.666 199.459 301.531 198.596 302.251 197.877C302.539 197.877 303.116 197.878 303.837 198.022C304.269 197.59 304.846 197.015 305.711 196.44C306.576 196.441 307.585 196.585 308.738 196.585L310.9 194.428C312.918 194.429 314.359 192.991 316.233 193.711C316.522 193.999 316.666 194.43 316.955 194.718C317.099 196.012 315.658 196.012 315.514 196.731C314.937 196.731 314.36 196.731 313.784 196.73L312.198 198.312C312.487 198.6 312.631 199.031 312.631 199.031C313.784 198.744 314.361 200.182 315.226 199.895C316.38 199.608 316.812 200.902 317.677 200.903C318.254 200.615 318.542 200.328 319.119 200.04C319.263 200.184 319.407 200.04 319.551 200.184C319.407 201.191 318.975 202.197 318.543 203.492L317.246 204.786C316.669 204.785 316.093 204.785 315.516 204.785C315.516 205.36 315.517 205.936 315.517 206.223C314.94 206.223 314.363 206.223 313.931 206.367C313.787 207.373 314.796 207.805 315.373 208.381C314.797 209.531 313.932 208.38 313.211 208.811L311.626 210.393C311.626 210.968 311.626 211.544 311.482 212.263C310.185 213.557 308.888 214.851 307.591 216.145C307.447 216.288 307.591 216.432 307.591 216.72C310.186 215.283 313.5 211.976 315.229 208.524C315.95 207.518 316.814 206.655 317.967 205.505C318.544 205.793 318.977 206.224 319.842 206.8L316.815 209.819C317.392 210.395 317.825 211.114 318.402 211.69L322.581 207.52C323.446 207.52 324.023 207.52 324.743 207.377C324.887 206.658 325.031 205.939 325.175 205.22C326.472 204.501 327.77 206.083 329.212 206.084C329.212 205.796 329.068 205.365 329.067 204.502C329.932 203.351 331.229 202.345 332.238 201.339C332.815 201.339 333.391 201.339 334.256 201.339C334.4 200.62 334.688 200.045 334.976 198.894L338.003 195.875C339.156 195.876 340.021 195.876 341.03 196.02L352.704 184.374C353.28 184.374 353.857 184.374 354.434 184.374C354.433 183.799 354.433 183.224 354.433 182.649L356.018 181.067C356.451 181.211 356.883 181.067 357.172 181.067C358.757 180.636 359.045 179.198 359.333 177.76C359.621 177.76 360.198 177.76 360.63 177.904L371.439 167.121C372.304 167.121 373.025 166.978 373.89 166.69C374.034 165.971 374.178 165.252 374.033 164.533C374.322 164.533 374.61 164.533 375.042 164.389C375.331 164.39 375.475 164.533 375.619 164.39C377.637 162.377 379.798 160.22 381.816 158.207C382.393 158.207 382.969 158.208 383.546 158.208C383.546 157.632 383.546 157.057 383.545 156.194C384.266 156.051 384.987 155.907 385.996 155.764L390.031 151.738C392.049 151.163 393.635 150.732 395.221 150.301C395.22 149.438 395.22 148.863 395.22 148C395.941 148.432 396.518 149.007 396.806 149.295C396.662 149.726 396.662 150.014 396.662 150.014C394.644 152.027 392.483 154.184 390.465 156.196C389.888 156.196 389.6 156.196 388.879 156.052L384.123 160.797C383.547 160.797 382.97 160.796 382.393 160.796L373.746 169.423C373.17 169.423 372.737 169.279 372.017 169.422L358.758 182.65C358.181 182.65 357.749 182.506 357.316 182.649C357.316 183.225 357.317 183.8 357.317 184.375L355.731 185.957C355.155 185.957 354.578 185.957 354.002 185.956C351.119 188.832 348.237 191.707 345.355 194.583C345.21 194.727 345.355 194.871 345.355 195.158C346.508 194.871 347.661 194.871 348.814 194.296C349.823 193.865 350.255 192.571 351.841 193.003L364.379 180.494C364.956 180.495 365.389 180.639 365.821 180.495L374.324 172.012C374.901 172.012 375.477 172.012 376.054 172.012C376.054 171.437 376.054 170.862 376.053 170.287L379.224 167.123C379.801 167.124 380.377 167.124 380.954 167.124L388.016 160.079C388.448 160.223 388.881 160.079 389.457 160.079L394.934 154.616C395.51 154.616 396.087 154.616 396.519 154.76L399.402 151.885C400.987 151.454 402.429 151.166 403.87 150.879C403.87 150.592 403.87 150.016 403.87 149.729C405.023 149.441 405.888 149.154 407.041 148.867C407.186 151.312 404.159 151.455 404.016 153.612C404.88 153.612 405.457 153.612 406.61 153.613L408.772 151.456C409.349 151.456 409.925 151.456 410.502 151.457C412.376 149.3 415.403 149.732 417.565 148.439C417.998 148.87 418.142 149.014 418.43 149.302C418.142 150.74 418.142 150.74 416.268 150.883L414.539 152.608C414.539 152.896 414.683 153.04 414.683 153.328C415.981 152.897 416.702 154.191 417.855 154.192L419.441 152.61C420.017 152.61 420.594 152.61 421.17 152.611L422.468 151.317C423.765 150.885 424.774 150.742 425.783 150.311C426.071 150.599 426.36 150.886 426.648 151.174C426.36 152.612 426.505 152.756 424.486 152.755L422.325 154.912C422.181 155.631 422.469 155.919 423.046 155.631C424.487 154.481 426.361 155.201 427.947 155.058C427.947 155.633 428.091 156.064 428.092 156.64C429.533 157.216 429.533 155.49 429.965 155.346C431.407 155.346 432.128 155.203 432.993 155.203C433.137 157.073 431.119 157.36 430.399 158.942C431.12 159.086 431.696 159.374 432.273 159.661C432.273 159.949 432.418 160.093 432.273 160.237C428.67 163.831 424.923 167.569 421.321 171.164C421.032 171.164 420.6 171.02 420.311 171.02C420.023 171.02 419.735 171.019 419.591 171.163C417.285 173.464 414.835 175.908 412.529 178.208C411.952 178.208 411.664 178.208 411.376 178.208C411.231 178.352 411.087 178.208 410.943 178.352C407.196 182.09 403.449 185.828 399.558 189.71C399.414 189.854 399.27 189.998 398.981 189.998C398.693 189.998 398.116 189.997 397.684 189.853L393.649 193.879C393.505 194.886 394.658 195.174 394.947 195.749C393.217 197.475 391.632 199.056 389.903 200.781C389.758 200.925 389.903 201.357 390.191 201.645C391.777 201.501 392.065 199.488 393.65 199.344C393.939 199.345 394.515 199.345 394.804 199.345L400.568 193.594C401.001 193.738 401.145 193.882 401.722 194.169L407.342 188.562C407.919 188.562 408.496 188.562 409.072 188.563L412.531 185.112C412.531 185.4 411.379 188.276 411.379 188.276C412.532 189.427 412.964 186.694 414.118 187.845C414.982 187.27 415.847 186.695 416.856 185.976C417.001 187.271 417.001 188.421 417.146 189.716C417.866 189.284 418.443 188.997 419.164 188.853C419.596 188.71 420.029 188.854 420.317 188.854C421.038 188.423 421.47 187.416 422.479 187.272C423.488 188.279 422.335 188.567 422.047 189.142C422.047 190.293 423.201 190.581 423.634 191.3C424.499 191.588 425.652 191.013 426.229 192.451C426.662 193.746 424.932 194.033 424.788 195.04C424.788 195.327 424.788 195.903 424.788 196.478L406.918 214.306C406.918 214.882 406.918 215.457 406.918 215.744L385.877 236.736C385.878 237.311 385.878 237.887 385.878 238.462L383.572 240.762C382.995 240.762 382.419 240.762 381.842 240.762C381.842 241.049 381.842 241.625 381.843 241.912C381.843 242.2 381.843 242.2 381.699 242.344C375.357 248.67 368.872 255.14 362.531 261.466C362.387 261.61 362.243 261.754 362.243 261.754C362.243 262.329 362.243 262.904 362.099 263.624C361.378 263.767 360.658 263.911 359.937 264.054C359.937 264.342 359.937 264.917 359.937 265.493L337.023 288.353C337.023 288.929 337.023 289.504 337.023 290.079C336.591 291.086 335.438 290.798 334.573 290.797C334.573 291.085 334.573 291.66 334.573 292.236L323.62 303.163C323.621 303.738 323.621 304.313 323.765 304.745C323.333 304.889 322.9 304.745 322.179 304.888C322.035 305.32 322.18 305.751 322.036 306.47L309.642 318.835C309.642 319.41 309.642 319.986 309.642 320.561C309.066 320.561 308.489 320.561 307.912 320.561C308.057 320.992 307.913 321.423 307.913 321.999L296.239 333.645C296.24 334.22 296.24 334.795 296.24 335.371L283.702 347.879C283.702 348.455 283.702 349.03 283.702 349.605L270.444 362.833C270.444 363.408 270.444 363.983 270.444 364.271L249.403 385.263C249.403 385.838 249.403 386.413 249.404 386.988C248.827 386.988 248.25 386.988 247.674 386.988L243.782 390.87C243.927 391.301 243.783 391.733 243.783 392.308L227.93 408.124C227.065 408.123 226.488 408.123 225.912 408.123C225.191 407.691 224.902 407.404 224.326 407.116L222.596 408.841C221.731 408.841 221.011 408.984 220.434 408.697C219.713 408.553 219.136 407.977 218.559 407.689C218.56 408.265 218.56 408.84 218.56 409.128C217.407 409.415 216.398 409.846 215.389 409.989C215.244 408.983 215.244 407.832 215.099 406.825C213.513 406.681 211.928 406.824 210.342 406.68C210.198 406.536 210.053 406.392 209.909 406.248C208.323 404.378 210.196 402.797 210.052 400.927L216.249 394.744C216.249 394.169 216.248 393.594 216.248 393.019L222.445 386.836C222.445 386.261 222.445 385.686 222.445 385.11C223.021 385.11 223.598 385.111 224.463 385.111C224.751 384.536 224.895 383.817 225.183 382.378L228.786 378.784C228.786 378.209 228.785 377.633 228.641 377.202C229.218 377.202 229.65 377.058 230.227 377.059C230.227 376.483 230.371 376.052 230.37 375.477L234.262 371.595C234.261 371.019 234.261 370.444 234.261 369.869C236.855 367.281 239.449 364.693 242.043 362.105C242.188 361.961 242.043 361.817 242.043 361.529C240.602 361.817 240.602 361.817 238.872 363.542C238.296 363.542 237.863 363.685 237.287 363.685C237.287 364.261 237.287 364.548 237.431 365.267L228.784 373.894C228.784 374.469 228.785 375.045 228.929 375.476L223.452 380.94C223.453 381.515 223.453 382.09 223.453 382.666L214.95 391.148C214.806 391.868 214.806 392.73 214.807 393.018C213.798 394.025 212.788 393.305 211.779 393.449C211.779 393.161 211.635 392.729 211.779 392.586C214.517 389.854 217.255 387.122 220.138 384.247C220.282 383.815 220.282 383.24 220.281 382.665C221.434 381.227 222.875 379.789 224.028 378.351C224.028 378.351 224.028 378.063 223.884 377.92C223.596 377.919 223.451 377.776 223.307 377.919C218.551 382.664 213.94 387.265 209.184 392.01C206.877 391.146 205.004 393.015 202.697 392.439C202.697 391.864 202.552 391.432 202.552 390.857C201.399 390.569 201.111 391.719 199.958 392.294C199.525 392.15 198.66 391.862 197.795 391.575C198.083 390.424 198.659 388.986 199.091 387.404C199.091 387.404 198.947 387.26 198.659 387.26C198.37 387.26 198.37 387.26 198.226 387.404C198.082 387.548 197.938 387.691 197.794 387.835C182.085 403.507 166.52 419.035 150.812 434.707C150.668 434.851 150.524 434.994 150.235 434.994C148.073 434.274 146.487 435.856 144.036 435.424C143.748 435.136 143.171 434.561 142.018 433.697C141.441 433.697 140.288 433.984 139.135 434.272C138.99 432.977 138.99 432.402 138.845 431.395L141.295 428.951C141.295 428.376 141.295 427.8 141.295 427.513L150.807 418.023C151.383 418.023 151.671 418.023 152.248 418.024C152.248 417.448 152.248 416.873 152.248 416.298L153.833 414.716C154.41 414.716 154.986 414.717 155.563 414.717C155.563 414.429 155.563 413.854 155.562 413.566C155.851 413.279 155.851 412.991 156.139 412.703C162.192 406.665 168.389 400.482 174.442 394.444C175.018 394.444 175.307 394.444 175.883 394.444C176.027 394.013 175.883 393.581 176.027 392.862L186.259 382.654C186.836 382.654 187.124 382.654 187.701 382.654C187.701 382.079 187.7 381.504 187.7 380.928L214.218 354.473C214.794 354.473 215.371 354.474 215.948 354.474C215.947 353.899 215.947 353.323 216.091 352.892C216.668 352.892 216.956 352.892 217.533 352.892C217.677 352.461 217.533 352.029 217.677 351.31C218.109 351.167 218.542 351.311 219.262 351.167C219.262 350.592 219.262 350.016 219.262 349.441C219.55 349.441 219.983 349.585 220.271 349.585C220.703 349.442 220.992 349.442 221.28 349.154C230.071 340.384 238.718 331.757 247.509 322.986C247.509 322.411 247.509 322.124 247.509 321.548C247.941 321.405 248.374 321.549 248.806 321.405C248.95 320.686 249.238 319.823 249.67 319.104C249.958 318.529 250.823 318.241 250.391 317.234C250.102 317.234 249.958 317.09 249.814 317.234C228.196 338.801 206.435 360.511 184.817 382.078C184.241 382.078 183.664 382.078 183.087 382.078L180.205 384.953C179.628 384.953 179.052 384.953 178.475 384.953L172.278 391.135C171.846 390.991 171.413 391.135 171.125 391.135C170.837 391.135 170.837 391.135 170.692 391.278C159.019 402.924 147.49 414.427 135.816 426.073C135.672 426.216 135.528 426.36 135.24 426.36C134.951 426.36 134.375 426.36 133.798 426.36L130.627 429.523C130.051 429.523 129.474 429.522 129.042 429.378L123.565 434.842C123.565 435.13 123.565 435.705 123.422 436.424L121.836 438.006C121.26 438.005 120.683 438.005 120.106 438.005L118.521 439.587C117.656 439.586 116.647 439.442 115.494 439.442L113.476 441.455C111.89 441.886 110.449 442.173 108.719 442.748L106.701 444.76C106.125 444.76 105.548 444.76 104.827 444.904C104.395 445.335 103.386 445.766 103.386 446.341C103.531 447.924 102.234 448.93 102.522 450.368L94.4519 458.42C92.1455 458.994 90.4158 459.569 88.5418 460L87.5323 458.993C86.9558 459.28 86.3792 459.568 85.5143 459.855C85.2259 459.568 84.6492 459.28 84.0723 458.704C84.7927 457.122 86.234 456.26 87.2427 454.966C87.2425 454.39 87.2424 453.815 87.2422 453.24L93.4392 447.057C94.0158 447.058 94.5925 447.058 95.1691 447.058L96.6103 445.62C97.1869 445.62 97.7636 445.621 98.4844 445.477C98.6284 445.046 98.9165 444.47 99.0606 444.039C98.3397 443.895 97.7631 443.895 97.4747 443.895C97.3303 443.175 97.1859 442.456 97.0416 442.025C96.609 441.593 96.4648 441.449 96.3207 441.593C94.7349 441.449 93.2932 441.448 91.7074 441.304C90.5538 440.441 89.8327 439.434 88.6791 438.57C89.3996 437.564 89.9761 436.989 90.4084 436.27C89.687 434.687 89.11 433.249 88.5328 431.523L91.7033 428.36C92.28 428.36 93.0007 428.216 93.4332 428.073C94.7304 427.354 93.4324 425.484 94.8738 424.909C94.5851 423.758 95.0173 422.752 96.0261 421.745C94.8728 421.745 94.1519 421.601 93.287 421.601L91.5576 423.326C90.8367 423.182 89.8274 422.75 88.9624 422.462C89.9712 421.456 90.98 420.449 92.1329 419.299C91.9879 416.566 91.8429 413.834 91.6981 411.964C92.1301 410.382 92.4182 409.519 92.7062 408.656C92.9945 408.656 93.5712 408.657 94.1478 408.657L97.3184 405.494C97.3183 405.206 97.3181 404.631 97.318 404.343C97.7501 403.049 99.0474 402.618 99.4796 401.611C100.056 401.611 100.489 401.755 101.065 401.755C101.209 401.324 101.065 400.893 101.209 400.173C101.642 400.03 102.074 400.174 102.651 400.174C102.651 399.599 102.795 399.167 102.794 398.592L120.809 380.62C120.809 380.044 120.809 379.469 120.808 378.894C121.241 377.887 122.394 378.463 123.115 378.032C123.115 377.456 123.114 376.881 123.258 376.162C123.979 376.018 124.7 375.875 125.709 375.731L131.041 370.411C131.041 370.124 131.041 369.548 131.041 368.973C131.762 368.83 132.482 368.974 132.915 368.542C133.347 368.111 133.347 367.248 133.491 366.529C133.779 366.529 134.212 366.673 134.788 366.673C136.085 365.955 136.95 364.517 138.103 363.654C138.103 363.079 137.959 362.647 138.103 362.216C138.679 361.641 139.111 360.922 139.688 360.347C139.255 359.052 138.678 357.901 138.101 356.75C137.957 356.607 137.812 356.463 137.668 356.319C136.082 356.175 134.641 356.174 132.911 356.174C133.055 354.879 133.775 353.585 133.486 352.147C133.342 350.852 132.764 349.414 134.206 348.839C133.485 347.544 132.908 346.681 131.899 347.688C131.034 346.824 130.169 347.399 129.016 347.111L127.43 348.693C127.43 348.981 127.431 349.556 127.431 350.419L123.684 354.157C122.242 354.444 120.801 354.731 119.503 355.163C119.503 355.45 119.648 355.882 119.504 356.601C119.071 356.744 118.639 356.6 117.918 356.744L108.983 365.658C107.83 365.37 106.965 365.945 106.099 365.082C105.667 364.65 104.802 364.65 104.081 364.506C104.081 363.643 103.936 362.636 103.936 361.486C102.782 360.335 102.351 363.067 101.197 361.916C100.332 362.491 99.0347 362.347 98.314 362.778C97.3051 363.497 96.2958 363.066 95.1425 363.065L92.5468 360.475C92.4021 358.893 92.69 357.455 91.5362 356.017C91.6801 355.01 90.959 354.291 90.6704 353.428C90.3818 352.565 90.5257 351.558 90.3812 350.551C90.2368 349.832 90.6691 349.113 89.948 348.394C90.2359 346.955 90.2359 346.955 88.7941 346.38C88.2178 347.53 89.6595 347.818 89.948 348.394L87.9304 350.406C87.4979 350.262 86.9211 349.975 86.6327 349.687C85.9115 348.392 86.9201 346.81 85.7665 345.66C84.4686 344.365 85.7656 342.783 84.6118 341.344C83.8907 340.337 84.0343 338.755 83.7456 337.605C83.4572 337.317 83.0247 337.173 82.8805 337.029C82.5922 337.029 82.448 336.885 82.3038 337.029C81.295 338.036 80.2862 339.042 79.1333 340.192C79.1335 340.767 79.1336 341.343 79.1337 341.63C78.9899 342.637 78.2688 341.63 78.4128 341.199L62.2717 357.302C60.6861 357.733 59.8213 358.308 58.668 358.307C57.2264 358.307 57.0826 359.601 55.9294 359.889C54.9202 359.745 54.4874 358.738 53.4781 358.018C53.1898 358.306 52.7574 358.449 51.7484 358.881C51.0275 358.737 49.73 358.592 48 358.304C48.144 357.873 48.4322 357.297 48.5761 356.578C48.4314 354.996 49.873 354.709 51.3145 354.422C51.3144 354.134 51.3142 353.559 51.1699 353.127L53.4758 350.827C53.7641 350.827 54.3408 350.827 55.0615 350.684L58.9527 346.802C58.9525 346.226 59.0965 345.795 58.9522 345.363C59.673 345.22 60.538 345.22 60.9703 344.789C61.4027 344.357 61.4024 343.495 61.4022 342.919C61.6905 342.919 62.2672 342.919 62.6997 343.063L72.2114 333.574C72.2113 333.286 72.067 332.855 72.2109 332.136C72.4992 331.848 73.0756 331.273 73.508 330.842C73.9403 330.411 73.9402 329.835 73.2192 329.404C73.9398 328.685 73.9396 328.109 73.2187 327.678ZM334.272 251.965C333.407 251.39 332.83 250.814 332.686 252.108C332.975 252.108 333.551 252.109 333.984 251.965C335.281 252.397 335.281 252.397 335.858 250.959C334.704 250.096 334.56 251.39 334.272 251.965ZM213.446 194.11C214.311 194.686 214.888 195.261 215.032 193.967C214.743 193.967 214.167 193.966 213.447 196.124C212.87 195.26 214.311 194.11 212.725 193.391C210.563 195.547 208.402 197.704 206.24 199.861C206.096 200.004 206.24 200.148 206.24 200.436C206.528 200.724 206.961 201.155 207.394 201.299C207.682 201.299 207.97 201.299 208.114 201.156C209.7 199.862 211.573 197.993 213.446 194.11ZM97.322 417C98.043 417.431 98.9078 416.856 99.3405 417.576C99.7728 416.857 100.638 417.432 101.214 417.145C101.214 416.569 101.214 415.994 101.214 415.419L105.105 411.537C105.105 410.961 105.105 410.674 105.105 410.099L108.275 406.935C108.852 406.936 109.284 406.792 109.861 406.792C109.861 406.217 109.716 405.785 109.86 405.354C111.157 404.06 112.599 402.622 114.04 401.184C114.328 400.897 114.616 400.897 114.905 400.609C115.193 400.609 115.77 400.61 116.058 400.61C116.058 400.034 116.058 399.459 116.057 398.884L134.072 380.912C134.072 380.336 134.072 379.761 134.071 379.186C134.648 379.186 135.225 379.186 135.657 379.042L143.439 371.278C143.439 370.703 143.439 370.128 143.439 369.84C144.304 369.553 144.881 369.553 145.601 369.409C145.601 368.546 145.745 368.115 145.745 367.54L149.78 363.514C150.357 363.514 150.645 363.514 151.078 363.658C151.942 362.795 153.095 362.22 153.527 360.926C153.383 360.495 153.527 360.063 153.527 359.776C154.104 359.201 154.536 358.769 155.112 358.194C155.689 357.619 156.698 357.188 156.698 356.037C155.544 356.037 154.535 356.756 153.238 356.611L148.05 361.787C147.041 361.931 146.32 362.075 145.887 362.218C145.743 363.225 145.599 363.656 145.456 364.375C144.879 364.375 144.591 364.375 144.302 364.375L142.573 366.1C142.573 366.676 142.717 367.107 142.573 367.539L131.765 378.322C131.621 379.041 131.621 379.904 131.477 380.623C130.612 380.623 129.891 380.766 129.315 380.766C129.315 381.341 129.315 381.917 129.171 382.348C128.595 383.211 127.874 383.067 127.009 383.067C126.72 383.067 126.72 383.067 126.72 383.067L120.523 389.249C120.524 389.824 120.524 390.112 120.668 390.543C120.38 390.543 120.091 390.543 119.803 390.831C119.371 390.975 118.794 391.262 118.362 391.406C118.362 391.981 118.362 392.556 118.362 393.132C117.641 393.275 116.344 392.843 115.912 393.85C115.912 394.425 115.912 395 115.912 395.576L114.327 397.157C113.75 397.157 113.174 397.157 112.741 397.301C112.741 397.876 112.741 398.164 112.742 398.739C112.165 398.739 111.733 398.882 111.3 398.738L109.138 400.895C108.706 402.189 108.562 402.908 108.274 403.484C107.409 403.483 106.832 403.483 106.256 403.483L103.95 405.783C103.95 406.359 103.95 406.934 103.95 407.509L98.4741 412.973C98.4742 413.548 98.4744 414.124 98.4746 414.699C97.8982 415.562 96.8891 415.705 99.1962 417.144C98.7639 417.863 98.1875 418.438 99.3409 418.726C99.6291 418.439 99.4848 418.007 97.322 417ZM336.868 253.979L339.606 251.248C340.615 250.241 341.624 249.235 342.777 248.085C344.362 246.503 344.362 246.503 344.361 245.352C340.326 248.515 332.976 255.848 329.806 259.874C329.806 260.162 329.95 260.593 329.95 260.881C328.077 263.325 325.194 265.05 323.609 267.782C323.609 267.782 323.753 267.926 323.898 268.07C327.933 264.907 333.842 259.012 337.012 254.986C337.012 254.699 336.868 254.267 336.868 253.979ZM87.3504 339.763C88.2155 340.339 88.5035 339.188 89.0801 339.189C91.2426 339.333 92.1073 338.47 92.1067 336.457C93.8362 335.019 93.4027 331.999 95.709 330.849C95.8531 330.705 95.8529 330.13 95.8528 329.842L94.9876 328.979C93.8343 329.266 92.6811 329.554 91.3838 329.985L89.5103 331.854C89.2224 333.292 88.9346 334.73 88.5026 336.312L87.0614 337.75C87.2057 338.181 87.206 339.044 87.3504 339.763ZM386.589 208.978C385.58 208.834 384.715 208.546 383.994 208.402C377.077 215.591 370.303 222.349 363.674 229.25C363.674 229.25 363.674 229.538 363.818 229.682C365.26 229.682 365.836 228.244 366.701 227.382C367.854 226.519 368.719 225.369 369.871 224.218L375.348 218.755C376.357 217.748 377.366 216.742 378.518 215.592C379.383 214.729 379.959 213.579 381.257 213.148C381.689 213.292 382.122 213.148 382.41 213.148C382.41 212.573 382.41 211.997 382.41 211.422L383.995 209.841C384.571 209.841 385.148 209.841 385.725 209.841C386.157 209.985 386.445 209.41 386.589 208.978ZM258.03 315.079C260.481 313.498 262.354 311.341 264.228 309.472C264.804 309.473 265.093 309.473 265.669 309.473C267.255 307.891 268.984 306.166 270.569 304.584C270.713 304.441 270.569 304.297 270.569 304.009C269.416 304.296 268.406 303.289 267.253 303.001C266.821 303.433 266.388 303.864 265.812 304.439C265.38 304.87 265.091 305.158 264.947 305.589C264.947 306.165 264.948 306.452 264.948 307.028C263.795 308.178 262.498 309.472 261.201 310.766C259.904 312.06 258.318 313.066 258.03 315.079ZM297.812 292.368C302.856 288.199 309.342 281.729 309.485 280.722C309.485 280.722 309.341 280.578 309.197 280.434C308.909 280.434 308.764 280.29 308.62 280.434C305.017 284.028 301.415 287.623 297.668 291.361C297.668 291.361 297.812 291.793 297.812 292.368ZM249.767 168.521C248.902 169.384 247.893 170.39 247.029 171.253C246.74 171.54 246.452 171.54 246.02 171.684C245.731 171.684 245.155 171.684 244.866 171.683C244.867 172.546 245.011 173.266 244.867 173.985C245.876 174.416 246.164 173.554 246.597 173.122C247.317 172.691 248.038 172.547 248.903 172.26C248.903 171.972 248.903 171.397 248.903 171.109C249.479 171.11 249.912 170.966 250.488 170.966C253.803 167.659 253.803 167.659 253.37 166.94C252.506 167.515 251.641 168.09 251.064 168.665C250.488 168.665 250.055 168.521 249.767 168.521ZM186.929 220.853C186.497 222.147 186.353 223.154 185.921 224.448C186.93 224.592 187.795 224.592 188.227 224.736C189.092 223.874 189.524 223.442 189.38 223.586C189.524 221.429 189.668 220.134 189.811 217.977L186.929 220.853ZM202.637 203.743C203.502 204.318 203.935 204.75 204.8 205.325C205.088 204.175 206.674 204.032 206.241 202.449C205.952 202.162 205.375 201.874 204.943 201.442L202.637 203.743ZM194.712 215.965C196.009 216.109 196.297 214.959 196.73 214.528C197.018 213.377 197.306 212.227 197.449 211.22C196.152 211.076 195.864 212.226 195.432 212.658C195.288 213.664 195 214.815 194.712 215.965ZM274.131 172.412C275.285 171.837 276.582 172.844 277.735 171.119C277.591 170.687 277.446 169.68 277.158 168.817C276.005 169.392 274.996 170.399 274.131 172.412ZM329.645 208.241C328.78 207.666 328.347 207.234 327.626 206.802C327.194 207.521 326.762 207.953 326.474 208.528C327.195 208.96 327.627 209.391 328.204 209.679L329.645 208.241ZM201.485 207.194C202.638 207.194 203.07 206.763 202.926 205.469C202.637 205.181 202.061 204.893 201.34 204.461C200.907 205.18 200.619 205.756 200.187 206.187L201.341 207.338L201.485 207.194ZM291.471 300.42C293.778 298.983 293.633 298.839 293.633 297.688C292.48 297.975 291.759 298.694 291.471 300.42ZM387.166 208.116C388.463 207.972 389.184 207.829 388.607 206.39C387.742 206.39 387.31 206.821 387.166 208.116ZM133.196 344.955C133.34 345.099 133.628 345.387 133.772 345.531C134.061 345.243 134.637 344.956 134.925 344.668C135.07 344.525 135.069 344.237 134.925 344.093C134.781 343.949 134.204 343.661 134.06 343.805C133.772 344.093 133.34 344.524 133.196 344.955ZM174.822 228.615C175.11 228.615 175.398 228.903 175.687 228.903C175.687 228.616 175.831 228.472 175.686 228.328C175.542 228.184 175.11 228.04 174.821 228.04C174.677 228.184 174.677 228.472 174.822 228.615ZM233.622 173.406C233.334 173.406 233.19 173.262 233.046 173.406C232.901 173.549 232.902 173.837 232.757 174.268C233.046 174.269 233.19 174.412 233.334 174.269C233.478 174.125 233.478 173.837 233.622 173.406ZM238.237 178.585C238.237 178.873 238.093 179.016 237.949 179.448C238.237 179.448 238.382 179.592 238.526 179.448C238.67 179.304 238.67 179.016 238.814 178.585C238.525 178.585 238.381 178.729 238.237 178.585ZM243.281 174.703C243.281 174.416 243.425 174.272 243.57 173.84C243.281 173.84 243.137 173.696 242.993 173.84C242.849 173.984 242.849 174.272 242.705 174.703C242.849 174.847 242.993 174.703 243.281 174.703ZM141.104 280.956C141.393 280.957 141.681 281.244 141.969 281.244C141.825 281.101 141.969 280.669 141.969 280.669C141.825 280.525 141.392 280.381 141.104 280.381C140.96 280.525 141.104 280.669 141.104 280.956ZM110.696 313.307C110.408 313.307 110.264 313.163 110.12 313.307C109.975 313.451 109.976 313.738 109.832 314.17C110.12 314.17 110.264 314.314 110.408 314.17C110.408 313.882 110.552 313.451 110.696 313.307ZM125.54 298.21C125.828 298.21 126.117 298.498 126.405 298.498C126.405 298.211 126.549 298.067 126.405 297.923C126.261 297.779 125.828 297.635 125.54 297.635C125.396 297.779 125.54 297.923 125.54 298.21ZM322.583 212.41C322.294 212.41 322.294 212.41 322.006 212.41C322.006 212.697 322.294 212.985 322.295 213.273C322.295 213.273 322.583 213.273 322.871 213.273C322.727 213.129 322.727 212.841 322.583 212.41ZM325.177 212.411C325.177 212.123 325.177 212.123 325.177 211.835C324.889 211.835 324.601 211.835 324.312 212.123C324.312 212.123 324.312 212.411 324.313 212.698C324.745 212.554 325.033 212.555 325.177 212.411ZM342.761 199.76C342.473 199.76 342.185 199.472 341.896 199.472C341.896 199.76 341.752 199.903 341.896 200.047C342.041 200.191 342.473 200.335 342.761 200.335C342.617 200.191 342.761 200.048 342.761 199.76ZM344.491 198.035C344.779 198.035 344.779 198.035 345.067 198.035C345.067 197.747 344.779 197.459 344.779 197.172C344.779 197.172 344.49 197.172 344.202 197.172C344.346 197.315 344.491 197.747 344.491 198.035ZM256.301 316.805C256.013 316.805 255.724 316.517 255.436 316.517C255.436 316.805 255.292 316.948 255.436 317.092C255.58 317.236 256.013 317.38 256.301 317.38C256.301 317.092 256.301 316.805 256.301 316.805ZM346.955 241.614C346.667 241.614 346.378 241.326 346.09 241.326C346.09 241.614 345.946 241.757 346.09 241.901C346.235 242.045 346.667 242.189 346.955 242.189C347.1 242.045 347.099 241.758 346.955 241.614ZM296.082 292.943C296.082 293.23 295.938 293.374 296.082 293.518C296.227 293.662 296.659 293.806 296.947 293.806C296.947 293.518 297.092 293.374 296.947 293.231C296.803 293.087 296.515 293.087 296.082 292.943ZM317.988 271.664C318.276 271.664 318.565 271.952 318.853 271.952C318.853 271.664 318.997 271.52 318.853 271.376C318.709 271.232 318.276 271.089 317.988 271.088C318.132 271.232 318.132 271.52 317.988 271.664ZM373.185 217.172C373.473 217.172 373.473 217.172 373.762 217.172C373.762 216.885 373.473 216.597 373.473 216.309C373.473 216.309 373.185 216.309 372.896 216.309C372.896 216.597 373.041 217.028 373.185 217.172ZM289.166 302.721C288.877 302.72 288.589 302.433 288.3 302.433C288.301 302.72 288.156 302.864 288.301 303.008C288.445 303.152 288.877 303.296 289.166 303.296C289.166 303.008 289.31 302.864 289.166 302.721ZM389.471 203.514C389.471 203.802 389.471 203.802 389.471 204.089C389.759 204.089 390.048 204.09 390.336 203.802C390.336 203.802 390.336 203.514 390.336 203.227C390.048 203.227 389.759 203.514 389.471 203.514Z" fill="#FEE3B3"/>
<path d="M381.002 386.576C380.554 384.348 381.032 381.744 378.495 380.371C379.077 378.966 378.254 378.006 377.43 377.046L377.533 377.011C377.773 376.703 378.013 376.395 378.287 376.121C378.184 375.949 378.081 375.778 377.978 375.607C377.498 375.195 377.052 374.818 376.606 374.372C377.086 374.783 377.532 375.161 377.978 375.607C378.081 375.778 378.184 375.949 378.287 376.121C379.555 376.91 380.379 378.419 382.161 378.351C382.538 378.66 382.847 379.106 383.293 379.346C384.047 379.689 385.076 380.513 385.623 379.279C386.171 378.046 384.663 378.319 384.217 377.804C383.977 377.564 383.566 377.496 383.189 377.324C382.708 376.981 382.194 376.603 381.68 376.295C380.719 374.854 379.245 374.134 377.805 373.31C377.119 372.487 376.467 371.698 375.336 371.526C375.335 370.361 374.375 370.154 373.552 369.811C373.312 369.571 373.141 369.331 372.901 369.091C372.489 367.925 371.7 367.137 370.5 366.69C370.397 366.519 370.26 366.45 370.088 366.416C369.642 365.97 369.265 365.524 368.819 365.078C366.933 363.466 366.177 360.929 364.12 359.488C364.085 358.563 363.331 358.082 362.884 357.362C362.472 355.854 361.066 355.065 360.174 353.967C359.248 352.561 358.322 351.224 357.361 349.99C356.847 349.338 356.127 348.823 355.51 349.92C354.484 351.838 356.369 352.354 357.192 353.383C357.227 353.554 357.295 353.691 357.467 353.726C357.948 355.714 359.423 357.051 360.623 358.526C362.578 360.892 364.225 363.498 366.626 365.488C366.729 365.659 366.866 365.796 367.072 365.865C367.072 366.688 367.895 366.688 368.307 367.1C368.959 368.711 370.159 369.843 371.428 370.975C371.565 370.838 371.702 370.701 371.805 370.598C371.222 369.947 370.639 369.364 370.056 368.712C370.673 369.329 371.256 369.981 371.805 370.598C371.668 370.735 371.531 370.872 371.428 370.975C373.521 374.301 375.614 377.627 377.742 380.987C378.291 382.633 378.806 384.313 379.39 385.992C379.083 387.055 379.152 388.426 377.438 388.15C374.181 386.811 371.986 383.931 368.934 382.318C367.769 382.591 367.94 381.46 367.528 380.98C365.848 379.437 364.544 377.516 362.418 376.555C362.315 376.384 362.178 376.247 361.972 376.246C361.286 375.492 360.566 374.772 359.88 374.017C356.93 370.656 353.843 367.432 350.38 364.585C350.38 364.38 350.311 364.242 350.105 364.242C349.247 362.768 348.287 361.328 346.504 360.778C344.242 360.845 344.826 362.045 345.512 363.279C346.267 365.062 347.639 366.297 349.353 367.189C351.412 370.481 354.361 373.019 357.105 375.763C360.227 379.912 363.28 384.062 366.402 388.211C366.471 388.828 366.883 389.445 366.472 390.062C365.376 390.335 365.82 388.725 364.929 388.793C364.311 387.901 363.523 387.318 362.494 386.974C361.534 385.945 360.573 384.917 359.613 383.888C358.378 382.516 357.143 381.144 355.943 379.738C355.806 379.601 355.634 379.429 355.497 379.292C354.296 377.955 353.027 376.617 351.827 375.279C351.655 374.423 351.003 374.045 350.215 373.736C348.877 371.302 346.75 369.518 344.761 367.666C343.217 365.78 341.571 363.996 339.616 362.453C339.307 361.664 338.93 360.807 338.005 361.732C337.012 362.656 337.013 363.753 338.11 364.714C338.659 365.262 338.968 366.119 339.893 366.291C340.031 366.634 340.099 367.046 340.305 367.32C344.251 372.704 349.292 376.991 353.819 381.861C353.991 382.855 355.088 382.856 355.603 383.508C356.187 385.599 358.381 386.629 359.068 388.686C358.76 388.994 358.897 389.748 358.143 389.542C356.943 388.547 355.708 387.586 354.474 386.557C353.959 384.946 352.724 384.054 351.284 383.368C350.633 382.922 350.529 381.928 349.638 381.721C348.437 380.315 347.408 378.807 345.728 377.88C345.591 377.743 345.488 377.571 345.351 377.434C345.11 376.509 344.63 375.823 343.567 375.719C343.464 375.548 343.327 375.411 343.156 375.308C342.366 373.079 340.24 371.912 338.834 370.164C338.559 368.998 336.914 369.271 336.639 368.106C335.953 367.351 335.267 366.597 334.581 365.842C334.34 364.711 333.757 364.813 333.141 365.498C331.497 367.279 332.697 368.48 334.001 369.715C335.373 371.155 336.779 372.561 338.117 373.967C339.729 375.854 341.307 377.705 342.919 379.592C343.364 379.763 343.81 379.935 344.29 380.141C343.844 379.969 343.399 379.798 342.919 379.592C346.521 384.907 350.603 389.948 353.144 395.982C353.282 396.667 353.419 397.353 353.557 398.038C351.741 399.442 350.952 397.488 349.752 396.905C347.831 394.984 346.184 392.789 343.818 391.382C343.27 390.902 342.755 390.388 342.206 389.907C341.932 389.633 341.589 389.359 341.315 389.084C340.594 387.541 339.599 386.204 337.953 385.517C335.758 383.391 334.009 380.888 331.403 379.172C331.368 379.001 331.265 378.829 331.094 378.726C330.784 377.321 329.927 376.464 328.487 376.257C328.213 376.531 327.905 376.771 327.597 377.079C325.987 378.346 327.05 379.135 328.079 379.958C328.216 379.821 328.353 379.753 328.49 379.616C328.353 379.478 328.25 379.307 328.078 379.136C328.215 379.273 328.318 379.444 328.49 379.616C328.353 379.753 328.25 379.855 328.079 379.958C328.628 381.329 330.102 381.913 330.96 383.045C333.259 387.193 336.894 390.349 339.468 394.292C340.943 396.864 342.385 399.401 343.86 401.973C344.375 403.447 344.89 404.853 345.405 406.327L345.303 406.498C343.726 406.771 343.554 404.68 342.148 404.645C342.182 403.651 341.702 402.965 340.844 402.519C340.399 402.073 339.987 401.662 339.575 401.182C335.7 397.306 331.824 393.43 327.983 389.589C327.4 389.006 326.851 388.457 326.268 387.874C324.827 386.365 323.387 384.856 321.912 383.381C321.397 382.867 320.883 381.804 319.992 382.626C319.239 383.379 318.52 384.441 319.206 385.538C319.686 386.361 320.544 387.013 321.195 387.733C322.636 389.996 324.42 391.917 326.272 393.838C327.267 395.929 328.914 397.438 330.56 399.016C330.733 401.038 332.207 402.307 333.442 403.679C333.682 403.851 333.957 403.988 334.162 404.125C333.922 403.954 333.648 403.816 333.442 403.679C334.472 405.531 335.536 407.416 336.531 409.302C337.046 411.325 337.63 413.347 338.146 415.37C337.803 415.507 337.426 415.678 337.049 415.78C335.884 416.122 336.089 415.026 335.678 414.545C333.586 412.522 331.836 410.156 329.23 408.714C328.99 408.474 328.716 408.268 328.441 407.994C328.235 406.966 327.549 406.485 326.624 406.176C326.418 405.97 326.212 405.696 326.006 405.49C325.869 404.805 325.32 404.462 324.737 404.221C323.845 402.37 322.404 401.066 320.587 400.14C320.347 399.557 320.381 398.769 319.421 398.905C317.637 396.916 316.299 394.413 313.693 393.246C313.247 392.046 312.115 391.531 311.155 390.914C309.133 391.221 309.34 392.386 309.992 393.792C310.198 394.409 310.473 394.957 311.193 395.129C311.673 395.815 311.879 396.706 312.839 396.981C312.908 397.118 313.011 397.221 313.148 397.29C315.31 401.096 318.054 404.456 321.004 407.68C321.691 409.737 323.268 411.178 324.469 412.858C325.705 415.532 326.941 418.206 328.176 420.881C328.211 421.189 328.211 421.463 328.245 421.772C328.006 422.834 329.001 423.555 329.036 424.549C329.002 425.542 328.969 426.536 328.901 427.496C325.851 427.734 324.443 425.025 322.318 423.653C322.18 423.515 322.009 423.344 321.837 423.241C319.539 420.943 317.652 418.166 314.67 416.621C314.429 415.764 314.12 415.044 313.058 415.009C312.131 412.781 310.108 411.511 308.393 410.002C308.084 409.83 307.844 409.659 307.536 409.487C305.443 406.504 303.042 403.897 299.922 401.942C299.339 401.496 298.619 401.05 298.379 402.112C298.106 403.208 297.044 404.544 298.862 405.403C299.856 406.26 300.816 407.22 301.914 407.907C300.782 407.186 299.856 406.26 298.862 405.403C300.474 408.111 302.978 410.067 305.036 412.399C305.757 414.49 307.54 415.725 309.049 417.166C310.456 419.943 312.377 422.343 314.675 424.435C315.568 426.767 317.249 428.584 318.655 430.608C318.553 431.464 319.204 431.773 319.719 432.219C319.822 433.145 319.926 434.07 320.68 434.756C320.886 435.03 321.126 435.339 321.332 435.613C321.367 435.922 321.367 436.196 321.401 436.505C321.127 436.779 320.853 437.053 320.545 437.292C319.07 436.229 318.452 434.035 316.19 433.965C316.155 433.793 316.053 433.622 315.95 433.519C316.223 432.971 315.915 432.525 315.572 432.182C312.656 429.267 309.878 426.214 306.449 423.881C304.939 421.618 303.635 419.218 300.824 418.256C300.687 418.188 300.55 418.051 300.481 417.913C299.349 416.576 298.868 414.725 297.188 413.867C296.673 412.735 296.124 411.638 294.719 411.466C294.582 411.329 294.444 411.26 294.273 411.157C293.69 410.574 293.141 409.957 292.592 409.408C290.159 410.058 291.36 411.258 292.115 412.424C294.414 416.367 298.151 419.009 301.204 422.335C303.776 424.908 306.383 427.514 308.99 430.052C310.98 432.933 313.997 434.786 316.261 437.392C317.358 438.49 318.422 439.69 319.656 440.65C321.782 442.366 323.975 441.407 324.453 438.666C324.59 437.912 324.623 437.124 323.972 436.541C323.835 436.403 323.697 436.266 323.526 436.095C322.84 435.477 323.148 434.621 323.01 433.867C323.044 432.736 322.323 431.878 321.774 430.987C321.191 430.13 320.608 429.272 320.025 428.415C319.818 427.798 318.859 427.523 319.201 426.632C319.646 426.53 320.092 426.359 320.537 426.256C321.909 427.422 323.315 428.554 324.687 429.721C326.024 431.058 327.567 431.916 329.417 430.958C331.473 429.863 331.78 427.909 331.299 425.784C331.161 424.481 331.845 423.111 330.919 421.911C330.712 420.54 330.677 419.134 329.545 418.071C329.853 416.872 329.098 416.049 328.583 415.123C328 414.129 327.006 413.271 327.724 411.935C327.964 412.106 328.17 412.244 328.444 412.381C329.61 412.93 329.817 414.575 331.291 414.748C332.457 415.777 333.589 416.909 334.789 417.904C337.224 419.859 338.971 419.415 340.306 416.776C340.751 415.988 340.648 415.269 340.03 414.583C340.749 413.178 339.652 412.012 339.411 410.744C339.376 409.613 339.032 408.584 338.209 407.692C337.9 406.835 337.625 405.944 337.316 405.087C337.419 404.71 337.487 404.367 337.624 404.025C339.544 405.74 341.465 407.455 343.488 409.136C344.38 409.89 345.511 410.2 346.573 409.549C347.738 408.796 348.011 407.699 347.359 406.431C347.049 404.34 346.602 402.318 345.367 400.534C344.956 400.123 344.544 399.643 344.132 399.231C343.617 398.1 343.137 396.934 342.622 395.803C345.364 395.599 346.086 398.856 348.485 399.2C348.897 399.612 349.342 400.057 349.72 400.503C353.217 402.836 354.382 402.563 355.374 399.171C354.825 398.279 356.264 396.978 354.824 396.223C354.789 395.914 354.823 395.606 354.789 395.297C355.337 394.681 354.651 394.406 354.411 394.029C354.547 392.521 352.866 391.389 353.551 389.744C355.78 391.562 357.358 394.237 360.409 394.89C362.158 395.611 363.014 394.549 363.664 393.144C363.63 393.042 363.595 392.939 363.527 392.802C363.561 392.904 363.595 393.007 363.664 393.144C363.869 392.733 364.075 392.322 364.314 391.945C365.103 392.391 365.857 393.146 366.611 393.215C367.914 393.284 369.765 393.354 368.563 390.989C368.357 390.303 368.871 389.447 368.082 388.863C367.808 388.863 367.534 388.863 367.294 388.828C367.568 388.829 367.842 388.829 368.082 388.863C367.808 388.315 368.218 387.492 367.464 387.149C367.429 386.841 367.395 386.532 367.395 386.19C367.772 386.087 368.149 385.984 368.56 385.848C369.04 385.985 369.383 386.397 369.76 386.568C372.674 387.838 374.767 391.027 378.468 390.55C381.038 390.038 381.174 388.393 381.002 386.576ZM349.524 366.264C348.153 365.989 347.364 364.926 346.438 364.068C347.364 364.926 348.187 365.955 349.524 366.264ZM357.618 373.604C357.755 373.741 357.892 373.879 358.029 374.016C357.858 373.844 357.755 373.741 357.618 373.604ZM358.477 376.244C358.271 375.901 357.791 375.558 357.653 375.215C357.791 375.558 358.339 375.901 358.477 376.244ZM362.317 378.372C362.317 378.509 362.283 378.611 362.317 378.714C362.283 378.611 362.283 378.474 362.317 378.372ZM366.434 383.995C366.331 383.892 366.228 383.79 366.125 383.687C366.159 383.789 366.331 383.892 366.434 383.995ZM331.027 381.331C331.335 381.091 331.438 380.783 331.438 380.509C331.37 380.783 331.301 381.057 331.027 381.331ZM338.78 390.728C337.716 389.664 336.722 388.601 335.658 387.538C336.687 388.567 337.716 389.664 338.78 390.728ZM334.399 399.498C334.022 399.327 333.713 399.361 333.577 399.909C333.679 399.327 334.022 399.258 334.399 399.498ZM334.879 399.842C335.668 400.493 336.388 401.214 337.108 401.865C336.354 401.179 335.633 400.459 334.879 399.842ZM337.244 400.426C337.552 399.912 338.273 400.701 338.856 401.078C338.273 400.701 337.587 399.946 337.244 400.426ZM321.106 407.509L321.244 407.509C321.244 407.509 321.141 407.543 321.106 407.509ZM321.997 406.619C322.066 406.687 322.134 406.824 322.203 406.893C322.1 406.79 322.066 406.687 321.997 406.619ZM324.98 407.957C324.671 407.649 324.362 407.34 324.054 407.1C324.397 407.374 324.705 407.683 324.98 407.957ZM325.391 408.369C325.7 408.266 325.974 408.198 326.214 408.232C325.94 408.232 325.7 408.266 325.391 408.369ZM325.46 409.26C325.152 409.842 324.879 410.391 324.571 410.973C324.879 410.391 325.187 409.808 325.46 409.26ZM308.258 413.566C308.567 413.532 308.841 413.601 309.081 413.635C308.875 413.567 308.567 413.532 308.258 413.566C308.533 413.841 308.704 414.149 308.704 414.492C308.704 414.081 308.533 413.841 308.258 413.566ZM311.767 431.528C312.556 432.18 313.344 432.763 314.27 433.278C313.379 432.797 312.556 432.18 311.767 431.528ZM316.843 436.741C316.946 436.776 317.083 436.844 317.22 436.913C317.083 436.844 316.98 436.81 316.843 436.741ZM321.609 438.835C321.506 438.938 321.369 439.075 321.3 439.212C321.369 439.075 321.472 438.972 321.609 438.835ZM312.99 416.586C313.402 416.929 313.744 416.997 314.121 416.895C313.71 417.032 313.333 416.929 312.99 416.586C312.853 416.723 312.682 416.825 312.579 416.997C312.682 416.825 312.819 416.688 312.99 416.586ZM309.46 416.617C309.975 418.229 311.449 418.881 312.615 419.91C311.449 418.881 309.975 418.16 309.46 416.617ZM315.12 423.853C315.635 424.505 316.115 425.191 316.698 425.842C316.149 425.225 315.601 424.539 315.12 423.853ZM319.853 428.586C319.065 428.14 318.379 427.591 317.761 426.974C318.413 427.557 319.099 428.106 319.853 428.586ZM328.011 429.003C327.736 428.797 327.531 428.523 327.256 428.249C327.496 428.489 327.736 428.797 328.011 429.003ZM330.99 426.024C330.751 426.606 330.477 427.154 330.203 427.771C330.477 427.154 330.717 426.572 330.99 426.024ZM329.3 410.565C329.471 410.394 329.574 410.223 329.642 410.017C329.574 410.154 329.471 410.394 329.3 410.565ZM337.907 416.638C337.427 417.049 336.879 417.665 336.297 417.63C336.879 417.597 337.427 417.049 337.907 416.638ZM339.513 410.572L339.376 410.572C339.376 410.572 339.445 410.572 339.513 410.572ZM344.79 407.971C344.893 408.074 344.995 408.109 345.064 408.177C344.995 408.109 344.858 408.04 344.79 407.971ZM343.858 399.368C343.893 399.608 343.893 399.882 343.962 400.156C343.927 399.916 343.858 399.642 343.858 399.368C343.001 398.579 342.726 397.414 342.28 396.419C342.76 397.448 343.001 398.579 343.858 399.368ZM340.907 394.636C340.667 394.396 340.359 394.225 340.05 394.19C340.359 394.225 340.633 394.43 340.907 394.636ZM341.318 394.225C341.524 394.225 341.661 394.294 341.798 394.363C341.695 394.26 341.524 394.225 341.318 394.225ZM353.764 399.821C353.763 399.272 353.797 398.69 353.797 398.141C353.831 398.724 353.832 399.272 353.764 399.821ZM352.487 387.378C352.692 387.584 352.932 387.756 353.207 387.962C352.932 387.756 352.727 387.55 352.487 387.378ZM362.942 390.779C362.6 391.533 362.601 392.492 362.259 393.246C362.601 392.492 362.566 391.498 362.942 390.779Z" fill="#00B884"/>
<path d="M70.814 335.596H22.8633C22.8633 333.598 24.4572 332 26.4496 332H67.2276C69.2201 332 70.814 333.598 70.814 335.596Z" fill="#FF9123"/>
<path d="M70.814 335.596H22.8633C22.8633 333.598 24.4572 332 26.4496 332H67.2276C69.2201 332 70.814 333.598 70.814 335.596Z" fill="#583B18"/>
<path d="M70.814 335.597H22.8633V373.293C22.8633 374.359 23.7931 375.291 24.8557 375.291H68.8216C69.8842 375.291 70.814 374.359 70.814 373.293V335.597Z" fill="white" stroke="#583B18" stroke-width="2.27336" stroke-miterlimit="10" stroke-linecap="round" stroke-linejoin="round"/>
<path d="M50.2291 341.191H27.6484V344.121H50.2291V341.191Z" fill="#583B18"/>
<path d="M28.1797 347.319H64.5744" stroke="#583B18" stroke-width="2.27336" stroke-miterlimit="10" stroke-linecap="round" stroke-linejoin="round"/>
<path d="M36.2812 353.445H63.1124" stroke="#583B18" stroke-width="2.27336" stroke-miterlimit="10" stroke-linecap="round" stroke-linejoin="round"/>
<path d="M36.2812 359.839H63.1124" stroke="#583B18" stroke-width="2.27336" stroke-miterlimit="10" stroke-linecap="round" stroke-linejoin="round"/>
<path d="M36.2812 365.967H63.1124" stroke="#583B18" stroke-width="2.27336" stroke-miterlimit="10" stroke-linecap="round" stroke-linejoin="round"/>
<path d="M31.4963 355.444C32.3766 355.444 33.0902 354.728 33.0902 353.845C33.0902 352.963 32.3766 352.247 31.4963 352.247C30.616 352.247 29.9023 352.963 29.9023 353.845C29.9023 354.728 30.616 355.444 31.4963 355.444Z" fill="#FF9123"/>
<path d="M31.4963 355.444C32.3766 355.444 33.0902 354.728 33.0902 353.845C33.0902 352.963 32.3766 352.247 31.4963 352.247C30.616 352.247 29.9023 352.963 29.9023 353.845C29.9023 354.728 30.616 355.444 31.4963 355.444Z" fill="url(#paint0_linear_3053_15532)" fill-opacity="0.5"/>
<path d="M31.4963 361.704C32.3766 361.704 33.0902 360.989 33.0902 360.106C33.0902 359.223 32.3766 358.507 31.4963 358.507C30.616 358.507 29.9023 359.223 29.9023 360.106C29.9023 360.989 30.616 361.704 31.4963 361.704Z" fill="#FF9123"/>
<path d="M31.4963 361.704C32.3766 361.704 33.0902 360.989 33.0902 360.106C33.0902 359.223 32.3766 358.507 31.4963 358.507C30.616 358.507 29.9023 359.223 29.9023 360.106C29.9023 360.989 30.616 361.704 31.4963 361.704Z" fill="url(#paint1_linear_3053_15532)" fill-opacity="0.5"/>
<path d="M31.4963 367.698C32.3766 367.698 33.0902 366.983 33.0902 366.1C33.0902 365.217 32.3766 364.501 31.4963 364.501C30.616 364.501 29.9023 365.217 29.9023 366.1C29.9023 366.983 30.616 367.698 31.4963 367.698Z" fill="#FF9123"/>
<path d="M31.4963 367.698C32.3766 367.698 33.0902 366.983 33.0902 366.1C33.0902 365.217 32.3766 364.501 31.4963 364.501C30.616 364.501 29.9023 365.217 29.9023 366.1C29.9023 366.983 30.616 367.698 31.4963 367.698Z" fill="url(#paint2_linear_3053_15532)" fill-opacity="0.5"/>
<path d="M43.459 275.098L27.1212 275.631C26.5899 275.631 26.0586 275.231 26.0586 274.699L25.793 265.508C25.793 264.975 26.1915 264.442 26.7228 264.442L42.9277 263.909C43.459 263.909 43.9903 264.309 43.9903 264.842L44.256 274.033C44.3888 274.699 43.9903 275.098 43.459 275.098Z" fill="white" stroke="#583B18" stroke-width="2.27336" stroke-miterlimit="10" stroke-linecap="round" stroke-linejoin="round"/>
<path d="M28.3125 266.307L35.2195 270.969L42.3922 265.907" stroke="#583B18" stroke-width="2.27336" stroke-miterlimit="10" stroke-linecap="round" stroke-linejoin="round"/>
<path d="M27.918 273.766L32.5669 269.237" stroke="#583B18" stroke-width="2.27336" stroke-miterlimit="10" stroke-linecap="round" stroke-linejoin="round"/>
<path d="M38.5469 268.838L42.9302 273.766" stroke="#583B18" stroke-width="2.27336" stroke-miterlimit="10" stroke-linecap="round" stroke-linejoin="round"/>
<path d="M427.856 262.175C428.663 262.175 429.317 261.519 429.317 260.71C429.317 259.901 428.663 259.245 427.856 259.245C427.049 259.245 426.395 259.901 426.395 260.71C426.395 261.519 427.049 262.175 427.856 262.175Z" fill="#583B18"/>
<path d="M345.898 310.127L356.525 302.935L355.595 316.122L351.876 311.06L345.898 310.127Z" stroke="#583B18" stroke-width="2.27336" stroke-miterlimit="10" stroke-linecap="round" stroke-linejoin="round"/>
<path d="M30.5707 217.686C32.1845 217.686 33.4929 216.374 33.4929 214.755C33.4929 213.137 32.1845 211.825 30.5707 211.825C28.9568 211.825 27.6484 213.137 27.6484 214.755C27.6484 216.374 28.9568 217.686 30.5707 217.686Z" fill="#583B18"/>
<path d="M129.262 214.888C130.876 214.888 132.184 213.576 132.184 211.957C132.184 210.339 130.876 209.027 129.262 209.027C127.648 209.027 126.34 210.339 126.34 211.957C126.34 213.576 127.648 214.888 129.262 214.888Z" fill="#583B18"/>
<path d="M108.008 309.729C109.622 309.729 110.93 308.417 110.93 306.798C110.93 305.18 109.622 303.868 108.008 303.868C106.394 303.868 105.086 305.18 105.086 306.798C105.086 308.417 106.394 309.729 108.008 309.729Z" fill="#583B18"/>
<path d="M436.094 190.246C437.708 190.246 439.016 188.934 439.016 187.315C439.016 185.697 437.708 184.385 436.094 184.385C434.48 184.385 433.172 185.697 433.172 187.315C433.172 188.934 434.48 190.246 436.094 190.246Z" fill="#583B18"/>
<path d="M444.196 325.446C445.809 325.446 447.118 324.134 447.118 322.515C447.118 320.897 445.809 319.585 444.196 319.585C442.582 319.585 441.273 320.897 441.273 322.515C441.273 324.134 442.582 325.446 444.196 325.446Z" fill="#583B18"/>
<path d="M26.7188 189.713L35.4853 241.395" stroke="#897D6A" stroke-width="2.27336" stroke-miterlimit="10" stroke-linecap="round" stroke-linejoin="round"/>
<path d="M57.1376 189.713C57.1376 189.713 12.7732 217.019 39.7372 218.485C59.13 219.55 99.111 205.164 124.747 209.294C150.382 213.423 55.1452 307.863 104.291 307.863C153.437 307.863 217.195 218.351 228.219 246.191C228.219 246.191 194.747 368.071 233.798 348.09C272.849 328.11 387.214 164.005 435.696 186.516C477.403 205.964 401.426 383.123 473.02 299.472" stroke="#583B18" stroke-width="2.27336" stroke-miterlimit="10" stroke-linecap="round" stroke-linejoin="round"/>
<path d="M208.932 298.985L250.109 276.874C251.437 276.208 253.031 276.874 253.43 278.339L260.071 308.442L285.839 319.365C287.433 320.031 287.699 322.296 286.238 323.228L247.851 350.268C247.187 350.668 246.39 350.801 245.593 350.534L215.972 337.347L208.003 301.516C207.604 300.45 208.136 299.518 208.932 298.985Z" fill="#F9F8F6" stroke="#583B18" stroke-width="2.27336" stroke-miterlimit="10" stroke-linecap="round" stroke-linejoin="round"/>
<path d="M220.488 334.017L258.078 310.44" stroke="#583B18" stroke-width="2.27336" stroke-miterlimit="10" stroke-linecap="round" stroke-linejoin="round"/>
<path d="M227.664 337.88L263.66 314.17" stroke="#583B18" stroke-width="2.27336" stroke-miterlimit="10" stroke-linecap="round" stroke-linejoin="round"/>
<path d="M234.703 341.343L271.231 316.301" stroke="#583B18" stroke-width="2.27336" stroke-miterlimit="10" stroke-linecap="round" stroke-linejoin="round"/>
<path d="M211.988 301.915L218.231 329.222L256.087 306.711L250.243 281.802L211.988 301.915Z" fill="#FF9123"/>
<path d="M211.988 301.915L218.231 329.222L256.087 306.711L250.243 281.802L211.988 301.915Z" fill="url(#paint3_linear_3053_15532)" fill-opacity="0.5"/>
<path d="M258.473 338.679C257.145 337.747 250.77 334.15 250.77 334.15L264.716 324.693L272.155 328.955L258.473 338.679Z" fill="#583B18"/>
<path d="M140.992 293.594H73.5159C72.0548 293.594 70.7266 292.395 70.7266 290.797V278.142C70.7266 276.677 71.922 275.345 73.5159 275.345H140.992C142.453 275.345 143.782 276.544 143.782 278.142V290.797C143.782 292.395 142.586 293.594 140.992 293.594Z" fill="#FF9123"/>
<path d="M140.992 293.594H73.5159C72.0548 293.594 70.7266 292.395 70.7266 290.797V278.142C70.7266 276.677 71.922 275.345 73.5159 275.345H140.992C142.453 275.345 143.782 276.544 143.782 278.142V290.797C143.782 292.395 142.586 293.594 140.992 293.594Z" fill="url(#paint4_linear_3053_15532)" fill-opacity="0.5"/>
<path d="M106.988 286.534H138.07" stroke="#897D6A" stroke-width="2.27336" stroke-miterlimit="10" stroke-linecap="round" stroke-linejoin="round"/>
<path d="M106.988 282.938H138.07" stroke="#897D6A" stroke-width="2.27336" stroke-miterlimit="10" stroke-linecap="round" stroke-linejoin="round"/>
<path d="M101.139 287.067H79.7542C78.4259 287.067 77.3633 286.002 77.3633 284.67C77.3633 283.338 78.4259 282.272 79.7542 282.272H101.139C102.468 282.272 103.53 283.338 103.53 284.67C103.53 286.002 102.468 287.067 101.139 287.067Z" fill="#F9F8F6"/>
<path d="M367.292 305.866H342.055C341.125 305.866 340.461 305.2 340.461 304.268V289.882C340.461 288.95 341.125 288.284 342.055 288.284H367.292C368.222 288.284 368.886 288.95 368.886 289.882V304.268C368.886 305.067 368.222 305.866 367.292 305.866Z" fill="#FAF5E8"/>
<path d="M344.312 291.347L354.806 299.073L366.229 291.347" stroke="#583B18" stroke-width="2.27336" stroke-miterlimit="10" stroke-linecap="round" stroke-linejoin="round"/>
<path d="M343.383 302.936L350.688 296.276" stroke="#583B18" stroke-width="2.27336" stroke-miterlimit="10" stroke-linecap="round" stroke-linejoin="round"/>
<path d="M360.125 295.743L366.634 303.735" stroke="#583B18" stroke-width="2.27336" stroke-miterlimit="10" stroke-linecap="round" stroke-linejoin="round"/>
<path d="M361.047 336.102H369.814" stroke="#583B18" stroke-width="2.27336" stroke-miterlimit="10" stroke-linecap="round" stroke-linejoin="round"/>
<path d="M392.341 275.542H326.724C324.333 275.542 322.474 273.677 322.474 271.28V249.568L312.512 243.174L322.474 237.846V216.134C322.474 213.736 324.333 211.872 326.724 211.872H392.208C394.599 211.872 396.459 213.736 396.459 216.134V271.28C396.459 273.677 394.599 275.542 392.341 275.542Z" fill="white" stroke="#583B18" stroke-width="2.27336" stroke-miterlimit="10" stroke-linecap="round" stroke-linejoin="round"/>
<path d="M384.904 265.685H334.563C333.234 265.685 332.172 264.619 332.172 263.287V223.593C332.172 222.261 333.234 221.195 334.563 221.195H384.904C386.233 221.195 387.295 222.261 387.295 223.593V263.287C387.162 264.619 386.233 265.685 384.904 265.685Z" fill="#FAF5E8"/>
<path d="M369.366 239.844C369.366 239.844 371.889 238.512 372.554 241.176C373.35 244.506 368.569 246.504 367.506 245.705C366.443 244.905 369.366 239.844 369.366 239.844Z" fill="white"/>
<path d="M388.759 218.133L383.048 224.127L362.592 243.574C362.592 243.574 359.67 251.833 360.201 253.032C360.733 254.231 370.03 253.298 370.03 253.298C370.03 253.298 377.602 246.505 393.939 230.387C398.987 225.326 388.626 237.314 391.814 233.851C396.994 228.123 397.924 226.924 397.924 226.924L388.759 218.133Z" fill="#FF9123"/>
<path d="M388.759 218.133L383.048 224.127L362.592 243.574C362.592 243.574 359.67 251.833 360.201 253.032C360.733 254.231 370.03 253.298 370.03 253.298C370.03 253.298 377.602 246.505 393.939 230.387C398.987 225.326 388.626 237.314 391.814 233.851C396.994 228.123 397.924 226.924 397.924 226.924L388.759 218.133Z" fill="url(#paint5_linear_3053_15532)" fill-opacity="0.5"/>
<path d="M362.596 243.574C362.596 243.574 359.674 251.832 360.205 253.031C360.737 254.23 370.034 253.298 370.034 253.298L367.776 252.365C367.378 252.232 367.112 251.965 366.979 251.566L366.05 248.902L363.792 247.437C363.526 247.17 363.26 246.904 363.127 246.504L362.596 243.574Z" fill="white"/>
<path d="M388.759 218.133L383.047 224.127C383.047 224.127 384.508 226.924 387.165 229.855C389.423 232.252 391.814 233.851 391.814 233.851C396.994 228.123 397.924 226.924 397.924 226.924C397.924 226.924 396.064 225.459 393.009 222.529C390.087 219.465 388.759 218.133 388.759 218.133Z" fill="#FAF5E8"/>
<path d="M398.188 215.735C396.329 214.003 395.001 213.071 394.071 213.47C393.141 213.87 388.625 218.266 388.625 218.266C388.625 218.266 395.798 226.79 397.79 226.924C399.915 227.057 402.04 223.46 402.173 222.262C402.439 220.663 402.173 219.464 398.188 215.735Z" fill="#FF9123"/>
<path d="M398.188 215.735C396.329 214.003 395.001 213.071 394.071 213.47C393.141 213.87 388.625 218.266 388.625 218.266C388.625 218.266 395.798 226.79 397.79 226.924C399.915 227.057 402.04 223.46 402.173 222.262C402.439 220.663 402.173 219.464 398.188 215.735Z" fill="#FEE3B3"/>
<path d="M370.03 253.298C370.03 253.298 365.115 253.964 362.193 253.697C361.263 253.564 360.466 253.431 360.201 253.031C359.935 252.631 359.935 251.832 360.068 250.9C360.599 247.969 362.591 243.574 362.591 243.574" stroke="#583B18" stroke-width="2.27336" stroke-miterlimit="10" stroke-linecap="round" stroke-linejoin="round"/>
<path d="M360.068 250.9C359.935 251.832 359.935 252.631 360.201 253.031C360.466 253.431 361.263 253.564 362.193 253.697C362.193 253.697 362.326 252.898 361.529 251.966C360.732 251.033 360.068 250.9 360.068 250.9Z" fill="#583B18"/>
<path d="M363.789 247.303C363.789 247.303 374.282 238.512 379.994 232.118" stroke="#583B18" stroke-width="2.27336" stroke-miterlimit="10" stroke-linecap="round" stroke-linejoin="round"/>
<path d="M371.359 247.703L388.228 233.584" stroke="#583B18" stroke-width="2.27336" stroke-miterlimit="10" stroke-linecap="round" stroke-linejoin="round"/>
<path d="M366.973 251.432L366.043 248.768L363.52 247.303" stroke="#583B18" stroke-width="2.27336" stroke-miterlimit="10" stroke-linecap="round" stroke-linejoin="round"/>
<path d="M390.22 232.252C390.22 232.252 386.899 230.387 383.047 223.993" stroke="#583B18" stroke-width="2.27336" stroke-miterlimit="10" stroke-linecap="round" stroke-linejoin="round"/>
<path d="M390.219 225.858C390.219 225.858 386.899 222.261 385.57 220.13" stroke="#583B18" stroke-width="2.27336" stroke-miterlimit="10" stroke-linecap="round" stroke-linejoin="round"/>
<path d="M396.731 226.524C396.731 226.524 393.543 224.526 389.957 219.464" stroke="#583B18" stroke-width="2.27336" stroke-miterlimit="10" stroke-linecap="round" stroke-linejoin="round"/>
<path d="M6 226.609L16.6262 219.417L15.6964 232.47L11.9772 227.409L6 226.609Z" fill="#583B18"/>
<path d="M149.948 228.559C151.906 228.559 153.493 226.965 153.493 224.999C153.493 223.034 151.906 221.44 149.948 221.44C147.99 221.44 146.402 223.034 146.402 224.999C146.402 226.965 147.99 228.559 149.948 228.559Z" stroke="#897D6A" stroke-width="2.27336" stroke-miterlimit="10" stroke-linecap="round" stroke-linejoin="round"/>
<path d="M155.964 129.976H118.841C116.756 129.976 114.879 131.651 114.879 133.954H159.718C159.718 131.86 158.049 129.976 155.964 129.976Z" fill="#FF9123"/>
<path d="M155.964 129.976H118.841C116.756 129.976 114.879 131.651 114.879 133.954H159.718C159.718 131.86 158.049 129.976 155.964 129.976Z" fill="#583B18"/>
<path d="M157.215 176.039H117.382C115.922 176.039 114.879 174.992 114.879 173.526V133.954H159.718V173.526C159.718 174.783 158.675 176.039 157.215 176.039Z" fill="white" stroke="#583B18" stroke-width="2.27336" stroke-miterlimit="10" stroke-linecap="round" stroke-linejoin="round"/>
<path d="M153.671 155.521H121.554C120.719 155.521 120.094 154.893 120.094 154.055V141.283C120.094 140.446 120.719 139.817 121.554 139.817H153.671C154.505 139.817 155.131 140.446 155.131 141.283V154.055C155.131 154.893 154.505 155.521 153.671 155.521Z" fill="#FF9123"/>
<path d="M153.671 155.521H121.554C120.719 155.521 120.094 154.893 120.094 154.055V141.283C120.094 140.446 120.719 139.817 121.554 139.817H153.671C154.505 139.817 155.131 140.446 155.131 141.283V154.055C155.131 154.893 154.505 155.521 153.671 155.521Z" fill="url(#paint6_linear_3053_15532)" fill-opacity="0.5"/>
<path d="M154.294 168.502H120.926" stroke="#583B18" stroke-width="2.27336" stroke-miterlimit="10" stroke-linecap="round" stroke-linejoin="round"/>
<path d="M154.294 161.173H120.926" stroke="#583B18" stroke-width="2.27336" stroke-miterlimit="10" stroke-linecap="round" stroke-linejoin="round"/>
<path d="M240.552 182.784H187.049C185.824 182.784 184.871 181.828 184.871 180.597V170.62C184.871 169.39 185.824 168.433 187.049 168.433H240.552C241.777 168.433 242.73 169.39 242.73 170.62V180.597C242.73 181.828 241.777 182.784 240.552 182.784Z" fill="#FF9123"/>
<path d="M240.552 182.784H187.049C185.824 182.784 184.871 181.828 184.871 180.597V170.62C184.871 169.39 185.824 168.433 187.049 168.433H240.552C241.777 168.433 242.73 169.39 242.73 170.62V180.597C242.73 181.828 241.777 182.784 240.552 182.784Z" fill="url(#paint7_linear_3053_15532)" fill-opacity="0.5"/>
<path d="M213.598 177.18H238.239" stroke="#583B18" stroke-width="2.27336" stroke-miterlimit="10" stroke-linecap="round" stroke-linejoin="round"/>
<path d="M213.598 174.31H238.239" stroke="#583B18" stroke-width="2.27336" stroke-miterlimit="10" stroke-linecap="round" stroke-linejoin="round"/>
<path d="M208.967 177.59H192.086C190.997 177.59 190.18 176.77 190.18 175.677C190.18 174.583 190.997 173.763 192.086 173.763H208.967C210.056 173.763 210.873 174.583 210.873 175.677C210.873 176.77 210.056 177.59 208.967 177.59Z" fill="#F9F8F6"/>
<path d="M220.507 133.416C220.507 133.416 222.958 130.272 224.183 129.042C228.131 125.215 232.76 124.395 234.938 120.021C236.98 115.511 233.985 104.987 223.366 106.217C214.381 107.174 213.972 116.604 214.108 120.705C214.245 124.805 212.066 128.085 212.066 128.085C212.066 128.085 213.836 127.402 216.967 129.726C219.962 132.186 220.507 133.416 220.507 133.416Z" fill="#FF9123"/>
<path d="M220.507 133.416C220.507 133.416 222.958 130.272 224.183 129.042C228.131 125.215 232.76 124.395 234.938 120.021C236.98 115.511 233.985 104.987 223.366 106.217C214.381 107.174 213.972 116.604 214.108 120.705C214.245 124.805 212.066 128.085 212.066 128.085C212.066 128.085 213.836 127.402 216.967 129.726C219.962 132.186 220.507 133.416 220.507 133.416Z" fill="url(#paint8_linear_3053_15532)" fill-opacity="0.5"/>
<path d="M220.505 133.416C220.505 133.416 217.646 138.2 212.881 135.33C208.116 132.459 211.928 128.086 211.928 128.086C211.928 128.086 213.834 127.676 216.829 129.726C219.96 131.913 220.505 133.416 220.505 133.416Z" stroke="#897D6A" stroke-width="2.27336" stroke-miterlimit="10" stroke-linecap="round" stroke-linejoin="round"/>
<path d="M214.516 128.496L218.327 119.338" stroke="#897D6A" stroke-width="2.27336" stroke-miterlimit="10" stroke-linecap="round" stroke-linejoin="round"/>
<path d="M218.602 130.546L225.681 123.028" stroke="#897D6A" stroke-width="2.27336" stroke-miterlimit="10" stroke-linecap="round" stroke-linejoin="round"/>
<path d="M218.195 120.159C218.195 120.159 219.965 121.525 222.688 119.749C222.688 119.749 222.143 124.122 224.594 124.122" stroke="#897D6A" stroke-width="2.27336" stroke-miterlimit="10" stroke-linecap="round" stroke-linejoin="round"/>
<path d="M210.84 131.092C210.84 131.092 216.013 130.409 218.464 135.603" stroke="#897D6A" stroke-width="2.27336" stroke-miterlimit="10" stroke-linecap="round" stroke-linejoin="round"/>
<path d="M229.492 110.454C229.492 110.454 233.713 113.324 232.76 118.244" stroke="white" stroke-width="2.27336" stroke-miterlimit="10" stroke-linecap="round" stroke-linejoin="round"/>
<path d="M242.478 211.825C243.757 211.825 244.793 210.785 244.793 209.501C244.793 208.218 243.757 207.178 242.478 207.178C241.2 207.178 240.164 208.218 240.164 209.501C240.164 210.785 241.2 211.825 242.478 211.825Z" stroke="#897D6A" stroke-width="2.27336" stroke-miterlimit="10" stroke-linecap="round" stroke-linejoin="round"/>
<path d="M273.295 239.851C266.896 239.851 261.723 234.657 261.723 228.233C261.723 221.809 266.896 216.615 273.295 216.615C279.693 216.615 284.866 221.809 284.866 228.233C284.866 234.657 279.693 239.851 273.295 239.851Z" fill="#FF9123"/>
<path d="M273.295 239.851C266.896 239.851 261.723 234.657 261.723 228.233C261.723 221.809 266.896 216.615 273.295 216.615C279.693 216.615 284.866 221.809 284.866 228.233C284.866 234.657 279.693 239.851 273.295 239.851Z" fill="url(#paint9_linear_3053_15532)" fill-opacity="0.5"/>
<path d="M267.297 230.283C268.386 231.377 269.611 232.607 270.7 233.7C271.245 234.247 272.198 234.247 272.742 233.7C275.329 231.103 277.915 228.506 280.502 225.91C281.863 224.543 279.821 222.493 278.46 223.859C275.873 226.456 273.287 229.053 270.7 231.65C271.381 231.65 272.061 231.65 272.742 231.65C271.653 230.557 270.428 229.327 269.339 228.233C267.977 226.866 265.935 229.053 267.297 230.283Z" fill="#F9F8F6"/>
<path d="M290.435 133.894C289.267 133.567 288.494 132.629 288.673 131.736L290.873 120.705C290.939 120.399 291.124 120.137 291.41 119.953C291.83 119.685 292.411 119.605 292.991 119.747L323.661 127.051C324.271 127.192 324.797 127.563 325.064 128.023C325.25 128.339 325.288 128.675 325.201 128.985L321.843 140.015C321.531 141.054 320.175 141.577 318.764 141.212L290.51 133.915C290.482 133.907 290.453 133.899 290.435 133.894ZM323.649 127.454C323.621 127.446 323.593 127.438 323.565 127.43L292.895 120.126C292.419 120.013 291.945 120.072 291.623 120.277C291.425 120.404 291.307 120.573 291.261 120.773L289.06 131.804C288.927 132.497 289.608 133.256 290.592 133.512L318.847 140.809C320.051 141.116 321.189 140.715 321.443 139.883L324.801 128.853C324.884 128.592 324.787 128.361 324.708 128.207C324.518 127.87 324.12 127.586 323.649 127.454Z" fill="#583B18"/>
<path d="M297.64 124.582C297.536 124.553 297.475 124.445 297.495 124.339C297.524 124.235 297.635 124.165 297.739 124.194L320.864 130.184C320.968 130.213 321.038 130.324 321.009 130.427C320.98 130.531 320.869 130.601 320.766 130.572L297.64 124.582C297.649 124.585 297.649 124.585 297.64 124.582Z" fill="#583B18"/>
<path d="M295.113 124.644C294.435 124.454 293.99 123.903 294.098 123.375C294.14 123.153 294.273 122.968 294.483 122.834C294.78 122.643 295.18 122.593 295.591 122.688C296.305 122.858 296.785 123.429 296.672 123.975C296.63 124.197 296.497 124.383 296.286 124.517C295.989 124.707 295.589 124.757 295.179 124.663C295.151 124.655 295.132 124.649 295.113 124.644ZM295.551 123.083C295.532 123.077 295.523 123.075 295.504 123.069C295.209 122.997 294.914 123.036 294.706 123.16C294.631 123.21 294.524 123.302 294.494 123.446C294.433 123.773 294.785 124.146 295.271 124.262C295.566 124.335 295.861 124.296 296.068 124.171C296.143 124.121 296.25 124.03 296.281 123.886C296.337 123.577 296.012 123.212 295.551 123.083Z" fill="#583B18"/>
<path d="M297.113 127.884C297.009 127.855 296.948 127.747 296.968 127.641C296.997 127.537 297.108 127.467 297.211 127.496L320.337 133.486C320.441 133.515 320.511 133.626 320.482 133.729C320.453 133.833 320.342 133.903 320.238 133.874L297.113 127.884Z" fill="#583B18"/>
<path d="M294.578 127.944C293.9 127.754 293.455 127.203 293.563 126.675C293.604 126.453 293.738 126.267 293.948 126.134C294.245 125.943 294.645 125.893 295.055 125.988C295.77 126.158 296.249 126.729 296.137 127.275C296.095 127.497 295.962 127.683 295.751 127.816C295.454 128.007 295.054 128.057 294.644 127.962C294.625 127.957 294.606 127.952 294.578 127.944ZM295.016 126.382C294.997 126.377 294.978 126.372 294.969 126.369C294.674 126.297 294.379 126.336 294.171 126.46C294.096 126.51 293.989 126.602 293.959 126.746C293.898 127.073 294.25 127.446 294.736 127.562C295.03 127.635 295.326 127.596 295.533 127.471C295.608 127.421 295.715 127.329 295.745 127.186C295.811 126.879 295.487 126.515 295.016 126.382Z" fill="#583B18"/>
<path d="M296.591 131.188C296.488 131.159 296.427 131.051 296.446 130.944C296.475 130.841 296.586 130.771 296.69 130.8L310.139 134.278C310.242 134.307 310.313 134.418 310.284 134.521C310.255 134.625 310.143 134.695 310.04 134.666L296.591 131.188Z" fill="#583B18"/>
<path d="M294.058 131.249C293.38 131.058 292.945 130.51 293.043 129.98C293.085 129.758 293.218 129.572 293.428 129.438C293.726 129.248 294.126 129.198 294.536 129.292C295.25 129.462 295.73 130.033 295.617 130.58C295.575 130.802 295.442 130.987 295.232 131.121C294.935 131.312 294.535 131.362 294.124 131.267C294.105 131.262 294.077 131.254 294.058 131.249ZM294.494 129.697C294.475 129.691 294.465 129.689 294.447 129.683C294.152 129.611 293.857 129.65 293.649 129.774C293.574 129.824 293.467 129.916 293.437 130.06C293.376 130.387 293.728 130.76 294.214 130.876C294.508 130.949 294.804 130.91 295.011 130.785C295.086 130.735 295.193 130.644 295.223 130.5C295.292 130.184 294.955 129.826 294.494 129.697Z" fill="#583B18"/>
<path d="M356.784 136.716C355.805 136.887 354.903 136.468 354.72 135.744L352.447 126.816C352.387 126.567 352.431 126.307 352.577 126.07C352.793 125.724 353.194 125.459 353.673 125.359L378.917 119.918C379.418 119.806 379.938 119.894 380.298 120.14C380.547 120.308 380.693 120.542 380.738 120.802L382.155 130.14C382.292 131.017 381.475 131.883 380.304 132.111L356.847 136.705C356.823 136.71 356.8 136.714 356.784 136.716ZM379.051 120.219C379.027 120.223 379.004 120.227 378.98 120.231L353.736 125.673C353.344 125.758 353.015 125.97 352.85 126.234C352.748 126.398 352.72 126.565 352.757 126.729L355.03 135.658C355.176 136.217 355.948 136.537 356.766 136.378L380.222 131.784C381.22 131.586 381.92 130.887 381.813 130.183L380.396 120.845C380.366 120.623 380.212 120.488 380.099 120.402C379.84 120.22 379.446 120.15 379.051 120.219Z" fill="#583B18"/>
<path d="M358.813 127.29C358.726 127.305 358.643 127.247 358.62 127.161C358.605 127.074 358.662 126.983 358.749 126.968L377.953 123.221C378.04 123.206 378.132 123.263 378.147 123.35C378.162 123.436 378.105 123.528 378.018 123.543L358.813 127.29C358.821 127.289 358.821 127.289 358.813 127.29Z" fill="#583B18"/>
<path d="M356.968 128.229C356.4 128.328 355.877 128.078 355.77 127.65C355.722 127.471 355.755 127.287 355.863 127.114C356.015 126.868 356.293 126.69 356.63 126.615C357.218 126.488 357.774 126.74 357.884 127.184C357.931 127.362 357.898 127.547 357.79 127.72C357.638 127.966 357.36 128.144 357.024 128.219C357 128.223 356.984 128.226 356.968 128.229ZM356.74 126.92C356.724 126.923 356.716 126.924 356.701 126.927C356.457 126.978 356.253 127.111 356.144 127.276C356.106 127.34 356.059 127.445 356.088 127.562C356.158 127.826 356.55 127.977 356.95 127.891C357.193 127.84 357.398 127.707 357.507 127.542C357.545 127.478 357.592 127.373 357.563 127.256C357.495 127.008 357.127 126.853 356.74 126.92Z" fill="#583B18"/>
<path d="M359.598 129.914C359.511 129.93 359.428 129.871 359.405 129.786C359.39 129.699 359.447 129.608 359.534 129.593L378.739 125.846C378.825 125.83 378.917 125.888 378.932 125.974C378.947 126.061 378.89 126.152 378.803 126.167L359.598 129.914Z" fill="#583B18"/>
<path d="M357.746 130.854C357.177 130.953 356.654 130.704 356.547 130.276C356.5 130.097 356.532 129.913 356.64 129.739C356.793 129.493 357.071 129.315 357.407 129.24C357.995 129.113 358.551 129.366 358.661 129.809C358.709 129.988 358.676 130.172 358.568 130.345C358.415 130.591 358.138 130.77 357.801 130.845C357.785 130.847 357.769 130.85 357.746 130.854ZM357.518 129.546C357.502 129.549 357.486 129.551 357.478 129.553C357.235 129.603 357.03 129.736 356.921 129.902C356.883 129.965 356.837 130.071 356.865 130.188C356.935 130.451 357.328 130.602 357.727 130.516C357.971 130.466 358.175 130.333 358.285 130.167C358.322 130.104 358.369 129.998 358.34 129.882C358.281 129.632 357.912 129.477 357.518 129.546Z" fill="#583B18"/>
<path d="M360.379 132.539C360.292 132.555 360.209 132.496 360.186 132.411C360.171 132.324 360.228 132.233 360.315 132.218L371.482 130.035C371.568 130.02 371.66 130.077 371.675 130.164C371.69 130.25 371.633 130.341 371.546 130.357L360.379 132.539Z" fill="#583B18"/>
<path d="M358.527 133.48C357.959 133.579 357.443 133.328 357.328 132.901C357.281 132.723 357.314 132.539 357.422 132.365C357.574 132.119 357.852 131.941 358.189 131.866C358.776 131.739 359.333 131.991 359.443 132.435C359.49 132.614 359.457 132.798 359.349 132.971C359.197 133.217 358.919 133.396 358.582 133.471C358.566 133.473 358.543 133.478 358.527 133.48ZM358.3 132.18C358.284 132.182 358.276 132.184 358.261 132.187C358.017 132.237 357.813 132.37 357.704 132.536C357.666 132.599 357.619 132.705 357.648 132.821C357.718 133.085 358.11 133.236 358.51 133.15C358.753 133.1 358.958 132.967 359.067 132.801C359.105 132.738 359.152 132.632 359.123 132.515C359.062 132.258 358.687 132.112 358.3 132.18Z" fill="#583B18"/>
<path d="M362.875 75.3481C362.385 74.6422 362.385 73.7811 362.886 73.3739L369.066 68.3384C369.24 68.2006 369.459 68.1408 369.698 68.169C370.049 68.2125 370.403 68.4308 370.655 68.7701L384.121 86.6003C384.391 86.9528 384.511 87.3927 384.449 87.7648C384.408 88.0212 384.278 88.2216 384.09 88.3519L377.278 92.8649C376.639 93.292 375.662 92.9661 375.056 92.1297L362.907 75.3937C362.895 75.3766 362.883 75.3595 362.875 75.3481ZM383.933 86.8153C383.921 86.7982 383.909 86.7811 383.897 86.764L370.432 68.9338C370.223 68.6571 369.937 68.476 369.669 68.4425C369.503 68.4225 369.362 68.4617 369.247 68.5503L363.067 73.5858C362.681 73.9044 362.711 74.6265 363.134 75.2107L375.283 91.9468C375.802 92.6579 376.605 92.9524 377.119 92.6122L383.931 88.0992C384.095 87.9943 384.145 87.8243 384.171 87.7046C384.22 87.4346 384.131 87.0999 383.933 86.8153Z" fill="#583B18"/>
<path d="M371.013 73.5087C370.969 73.4461 370.985 73.3593 371.043 73.3102C371.106 73.2667 371.198 73.2785 371.242 73.3411L381.178 87.0488C381.221 87.1115 381.209 87.2039 381.147 87.2474C381.084 87.2908 380.992 87.2791 380.948 87.2165L371.013 73.5087C371.017 73.5144 371.017 73.5144 371.013 73.5087Z" fill="#583B18"/>
<path d="M369.605 72.4028C369.32 71.993 369.326 71.4912 369.623 71.2512C369.746 71.149 369.902 71.1076 370.078 71.1293C370.326 71.1593 370.567 71.3124 370.749 71.5493C371.062 71.9644 371.067 72.4929 370.759 72.7408C370.636 72.843 370.479 72.8844 370.304 72.8627C370.055 72.8327 369.814 72.6796 369.633 72.4427C369.621 72.4256 369.613 72.4142 369.605 72.4028ZM370.549 71.7472C370.541 71.7358 370.537 71.7301 370.529 71.7187C370.401 71.5462 370.222 71.4342 370.052 71.4085C369.989 71.402 369.889 71.4039 369.808 71.4688C369.626 71.6202 369.651 71.983 369.864 72.2654C369.992 72.4379 370.171 72.5499 370.341 72.5756C370.404 72.5821 370.504 72.5802 370.585 72.5153C370.755 72.3718 370.743 72.0261 370.549 71.7472Z" fill="#583B18"/>
<path d="M369.239 75.0786C369.196 75.0159 369.211 74.9292 369.27 74.88C369.332 74.8366 369.425 74.8483 369.468 74.9109L379.404 88.6187C379.448 88.6813 379.436 88.7738 379.373 88.8172C379.311 88.8607 379.218 88.8489 379.175 88.7863L369.239 75.0786Z" fill="#583B18"/>
<path d="M367.828 73.9673C367.543 73.5574 367.549 73.0557 367.845 72.8157C367.968 72.7134 368.125 72.6721 368.3 72.6938C368.549 72.7238 368.79 72.8769 368.971 73.1138C369.285 73.5289 369.29 74.0573 368.981 74.3053C368.859 74.4075 368.702 74.4489 368.527 74.4271C368.278 74.3972 368.037 74.244 367.855 74.0072C367.848 73.9958 367.84 73.9844 367.828 73.9673ZM368.772 73.3116C368.764 73.3002 368.756 73.2888 368.752 73.2831C368.624 73.1106 368.445 72.9986 368.275 72.973C368.212 72.9665 368.112 72.9683 368.03 73.0333C367.849 73.1846 367.873 73.5475 368.086 73.8299C368.215 74.0024 368.394 74.1144 368.563 74.1401C368.627 74.1466 368.727 74.1447 368.808 74.0798C368.982 73.942 368.969 73.5962 368.772 73.3116Z" fill="#583B18"/>
<path d="M367.462 76.648C367.419 76.5854 367.434 76.4986 367.493 76.4494C367.556 76.406 367.648 76.4177 367.692 76.4804L373.472 84.4493C373.515 84.5119 373.504 84.6044 373.441 84.6478C373.379 84.6913 373.286 84.6795 373.243 84.6169L367.462 76.648Z" fill="#583B18"/>
<path d="M366.05 75.5381C365.766 75.1283 365.775 74.6322 366.068 74.3865C366.191 74.2842 366.348 74.2429 366.523 74.2646C366.771 74.2946 367.013 74.4477 367.194 74.6846C367.508 75.0997 367.512 75.6282 367.204 75.8761C367.081 75.9783 366.924 76.0197 366.749 75.998C366.501 75.968 366.26 75.8149 366.078 75.578C366.07 75.5666 366.058 75.5495 366.05 75.5381ZM366.989 74.8864C366.981 74.875 366.977 74.8693 366.969 74.8579C366.841 74.6854 366.662 74.5734 366.492 74.5477C366.428 74.5412 366.329 74.5431 366.247 74.608C366.066 74.7594 366.09 75.1222 366.303 75.4046C366.432 75.5772 366.611 75.6892 366.78 75.7148C366.844 75.7214 366.944 75.7195 367.025 75.6546C367.205 75.5128 367.182 75.1653 366.989 74.8864Z" fill="#583B18"/>
<path d="M311.874 104.981C310.706 104.653 309.999 103.481 310.266 102.277L313.651 87.0239C313.876 86.0017 314.889 85.3624 315.903 85.5859L346.703 92.4197C347.22 92.5342 347.659 92.8502 347.926 93.3107C348.196 93.7617 348.263 94.3183 348.111 94.8236L343.532 110.209C343.117 111.614 341.68 112.428 340.266 112.072L311.949 105.002C311.912 104.991 311.893 104.986 311.874 104.981ZM346.689 92.8318C346.661 92.8239 346.633 92.8159 346.605 92.808L315.804 85.9742C315 85.7993 314.207 86.3075 314.032 87.1108L310.648 102.364C310.425 103.377 311.023 104.357 312.029 104.608L340.346 111.679C341.553 111.977 342.776 111.275 343.13 110.086L347.709 94.7006C347.832 94.2988 347.78 93.8682 347.567 93.5042C347.375 93.1763 347.066 92.9375 346.689 92.8318Z" fill="#583B18"/>
<path d="M320.225 91.558C320.121 91.5289 320.06 91.4205 320.089 91.3171C320.118 91.2136 320.23 91.1433 320.333 91.1724L343.508 96.9832C343.612 97.0122 343.682 97.1233 343.653 97.2267C343.624 97.3302 343.513 97.4005 343.409 97.3714L320.225 91.558C320.234 91.5606 320.225 91.558 320.225 91.558Z" fill="#583B18"/>
<path d="M317.614 91.8907C317.303 91.8035 317.033 91.6061 316.859 91.3238C316.668 91.0267 316.604 90.6741 316.683 90.3208C316.759 89.9769 316.964 89.6794 317.261 89.4888C317.559 89.2982 317.912 89.2349 318.256 89.3112C318.6 89.3875 318.898 89.5928 319.086 89.8992C319.277 90.1963 319.341 90.549 319.262 90.9023C319.102 91.6183 318.396 92.0697 317.68 91.9092C317.661 91.9039 317.642 91.8986 317.614 91.8907ZM318.23 89.73C318.211 89.7247 318.202 89.7221 318.183 89.7168C317.945 89.6602 317.699 89.7029 317.489 89.8367C317.279 89.9705 317.14 90.1751 317.084 90.4129C317.027 90.6507 317.07 90.8961 317.204 91.1061C317.338 91.3162 317.54 91.4643 317.781 91.5115C318.279 91.6206 318.771 91.3124 318.88 90.8154C318.937 90.5776 318.894 90.3322 318.76 90.1222C318.63 89.9335 318.446 89.7908 318.23 89.73Z" fill="#583B18"/>
<path d="M319.37 96.1152C319.266 96.0861 319.205 95.9777 319.234 95.8742C319.263 95.7708 319.374 95.7005 319.478 95.7295L342.653 101.54C342.756 101.569 342.827 101.68 342.798 101.784C342.769 101.887 342.658 101.958 342.554 101.929L319.37 96.1152Z" fill="#583B18"/>
<path d="M316.751 96.4566C316.44 96.3694 316.17 96.172 315.996 95.8897C315.805 95.5926 315.741 95.24 315.82 94.8867C315.896 94.5428 316.101 94.2453 316.398 94.0547C316.696 93.8642 317.049 93.8009 317.393 93.8771C318.107 94.047 318.55 94.7495 318.392 95.4561C318.232 96.1721 317.527 96.6235 316.81 96.463C316.798 96.4698 316.769 96.4619 316.751 96.4566ZM317.357 94.2933C317.339 94.288 317.329 94.2854 317.31 94.2801C317.072 94.2235 316.827 94.2662 316.617 94.4C316.406 94.5338 316.268 94.7384 316.211 94.9762C316.155 95.2139 316.197 95.4593 316.332 95.6694C316.466 95.8795 316.668 96.0275 316.909 96.0748C317.406 96.1839 317.899 95.8757 318.008 95.3787C318.111 94.9005 317.828 94.4254 317.357 94.2933Z" fill="#583B18"/>
<path d="M318.475 100.665C318.371 100.636 318.31 100.527 318.339 100.424C318.368 100.32 318.479 100.25 318.583 100.279L332.06 103.654C332.173 103.685 332.234 103.794 332.205 103.897C332.176 104.001 332.065 104.071 331.961 104.042L318.475 100.665C318.484 100.667 318.484 100.667 318.475 100.665Z" fill="#583B18"/>
<path d="M315.874 101.01C315.205 100.822 314.788 100.137 314.94 99.4491C315.101 98.7331 315.806 98.2817 316.523 98.4422C316.867 98.5185 317.165 98.7238 317.354 99.0303C317.545 99.3273 317.608 99.68 317.529 100.033C317.453 100.377 317.248 100.675 316.951 100.865C316.653 101.056 316.3 101.119 315.956 101.043C315.921 101.023 315.893 101.015 315.874 101.01ZM316.481 98.8463C316.462 98.8411 316.453 98.8384 316.434 98.8331C315.936 98.724 315.443 99.0322 315.334 99.5292C315.225 100.026 315.532 100.528 316.032 100.628C316.27 100.684 316.516 100.642 316.726 100.508C316.936 100.374 317.075 100.17 317.131 99.9317C317.188 99.694 317.145 99.4486 317.011 99.2385C316.883 99.0404 316.697 98.9071 316.481 98.8463Z" fill="#583B18"/>
<defs>
<linearGradient id="paint0_linear_3053_15532" x1="30.804" y1="352.473" x2="32.0335" y2="355.441" gradientUnits="userSpaceOnUse">
<stop stop-color="#FFCA00"/>
<stop offset="0.791667" stop-color="#FF9000"/>
</linearGradient>
<linearGradient id="paint1_linear_3053_15532" x1="30.804" y1="358.733" x2="32.0335" y2="361.702" gradientUnits="userSpaceOnUse">
<stop stop-color="#FFCA00"/>
<stop offset="0.791667" stop-color="#FF9000"/>
</linearGradient>
<linearGradient id="paint2_linear_3053_15532" x1="30.804" y1="364.728" x2="32.0335" y2="367.696" gradientUnits="userSpaceOnUse">
<stop stop-color="#FFCA00"/>
<stop offset="0.791667" stop-color="#FF9000"/>
</linearGradient>
<linearGradient id="paint3_linear_3053_15532" x1="224.461" y1="285.155" x2="243.597" y2="328.24" gradientUnits="userSpaceOnUse">
<stop stop-color="#FFCA00"/>
<stop offset="0.791667" stop-color="#FF9000"/>
</linearGradient>
<linearGradient id="paint4_linear_3053_15532" x1="91.3886" y1="276.636" x2="93.4152" y2="296.278" gradientUnits="userSpaceOnUse">
<stop stop-color="#FFCA00"/>
<stop offset="0.791667" stop-color="#FF9000"/>
</linearGradient>
<linearGradient id="paint5_linear_3053_15532" x1="370.824" y1="220.644" x2="383.855" y2="254.215" gradientUnits="userSpaceOnUse">
<stop stop-color="#FFCA00"/>
<stop offset="0.791667" stop-color="#FF9000"/>
</linearGradient>
<linearGradient id="paint6_linear_3053_15532" x1="130.003" y1="140.928" x2="133.061" y2="157.444" gradientUnits="userSpaceOnUse">
<stop stop-color="#FFCA00"/>
<stop offset="0.791667" stop-color="#FF9000"/>
</linearGradient>
<linearGradient id="paint7_linear_3053_15532" x1="201.235" y1="169.448" x2="202.818" y2="184.897" gradientUnits="userSpaceOnUse">
<stop stop-color="#FFCA00"/>
<stop offset="0.791667" stop-color="#FF9000"/>
</linearGradient>
<linearGradient id="paint8_linear_3053_15532" x1="218.705" y1="108.048" x2="230.296" y2="132.176" gradientUnits="userSpaceOnUse">
<stop stop-color="#FFCA00"/>
<stop offset="0.791667" stop-color="#FF9000"/>
</linearGradient>
<linearGradient id="paint9_linear_3053_15532" x1="268.268" y1="218.258" x2="277.212" y2="239.826" gradientUnits="userSpaceOnUse">
<stop stop-color="#FFCA00"/>
<stop offset="0.791667" stop-color="#FF9000"/>
</linearGradient>
</defs>
</svg>
