<svg width="480" height="460" viewBox="0 0 480 460" fill="none" xmlns="http://www.w3.org/2000/svg">
<path d="M322.816 18.3973L325.666 20.8635C326.11 20.8313 326.553 20.799 326.996 20.7668L328.184 21.7944C328.627 21.7621 329.07 21.7299 329.513 21.6976L346.258 36.1867C346.582 36.0517 346.923 36.1383 347.366 36.1061L366.129 52.342C366.572 52.3098 366.897 52.1748 367.34 52.1426C367.372 52.5858 367.625 53.013 367.673 53.6779C368.116 53.6457 368.575 53.8351 369.359 53.8895C369.375 54.1111 369.407 54.5544 369.438 54.9977L375.97 60.6494C376.413 60.6172 376.856 60.5849 377.3 60.5527L379.2 62.1968C379.231 62.6401 379.263 63.0834 379.295 63.5267C379.802 64.381 380.554 63.9921 381.218 63.9438L389.65 71.2397C389.563 71.5802 389.698 71.9046 389.729 72.3478C389.951 72.3317 390.173 72.3156 390.838 72.2672L397.369 77.919C397.282 78.2595 397.076 78.4973 397.092 78.7189C396.633 78.5295 396.451 77.5402 395.596 78.048C396.119 79.1239 396.119 79.1239 397.092 78.7189L399.942 81.1851C399.974 81.6284 400.006 82.0717 400.038 82.515C400.394 82.8232 400.631 83.0288 401.091 83.2182C400.798 83.7964 400.268 84.1692 401.273 84.2075C401.257 83.9858 401.225 83.5426 401.091 83.2182C401.605 82.6238 402.08 83.0348 402.674 83.5486C402.5 84.2296 402.563 85.1162 402.389 85.7972L403.933 87.1331C403.965 87.5764 403.997 88.0196 404.029 88.4629L408.541 92.3678C408.984 92.3355 409.428 92.3033 410.093 92.2549C410.394 93.347 410.916 94.423 411.471 95.9422C412.017 95.7911 412.887 95.505 412.99 95.3861C414.471 95.8354 414.313 96.7381 414.36 97.403C414.479 97.5057 414.598 97.6085 414.716 97.7112C415.738 97.9712 416.759 98.2311 418.445 98.4426L425.807 104.814C426.251 104.781 426.575 104.646 427.018 104.614C427.05 105.058 427.185 105.382 427.217 105.825L429.711 107.983C429.932 107.967 430.375 107.935 430.937 108.005L432.244 109.136C432.275 109.579 432.307 110.022 432.339 110.465C432.561 110.449 432.885 110.314 433.447 110.385C436.028 112.202 438.197 114.495 440.675 116.432C440.707 116.875 440.723 117.096 440.636 117.437C441.333 117.832 442.544 117.632 443.304 118.914C443.217 119.254 443.059 120.157 442.972 120.498C443.629 121.898 444.397 121.731 444.943 121.58C445.861 121.958 445.687 122.639 445.632 123.423L447.532 125.067C447.564 125.511 447.596 125.954 447.643 126.619C448.205 126.689 448.886 126.863 449.448 126.933C449.464 127.155 449.496 127.598 449.409 127.939L454.04 131.946C453.985 132.73 453.827 133.633 453.772 134.416C454.437 134.368 454.88 134.336 455.323 134.304L456.629 135.434C456.812 136.423 455.941 136.709 455.443 137.525C454.659 137.471 453.757 137.314 452.751 137.276C453.171 138.47 453.456 139.341 453.86 140.314L456.117 142.266C456.148 142.71 456.18 143.153 456.212 143.596L458.587 145.651C458.872 146.522 459.023 147.068 459.458 148.484C459.443 148.263 459.49 148.928 459.538 149.593C458.77 149.76 457.884 149.824 457.116 149.992C457.132 150.213 457.029 150.332 457.148 150.435C458.454 151.565 459.76 152.696 460.948 153.723C460.98 154.166 461.011 154.61 461.059 155.275C461.415 155.583 462.215 155.859 462.247 156.302C462.223 157.529 463.395 158.335 463.15 159.578L465.05 161.223C465.113 162.109 464.789 162.244 463.8 162.427C463.784 162.206 463.752 161.763 463.839 161.422C463.396 161.454 463.055 161.368 462.612 161.4C462.58 160.957 462.446 160.632 462.414 160.189L460.514 158.545C460.055 158.355 459.319 158.966 458.946 158.436C459.033 158.095 459.239 157.858 459.223 157.636C458.97 157.209 458.543 157.463 458.234 157.819L457.64 157.306C457.727 156.965 457.933 156.727 457.917 156.506C457.664 156.079 457.236 156.332 457.149 156.673C456.69 156.484 456.096 155.97 456.057 156.975C456.382 156.84 456.722 156.927 457.149 156.673C457.268 156.776 457.506 156.981 457.743 157.187C457.434 157.543 457.126 157.9 456.817 158.257C456.714 158.376 456.73 158.597 456.849 158.7C456.968 158.803 457.308 158.889 457.53 158.873C457.838 158.517 458.147 158.16 458.456 157.803L459.049 158.317C458.313 158.928 459.042 159.766 458.646 160.463C459.208 160.533 459.533 160.398 460.198 160.35C459.905 160.928 459.715 161.388 459.422 161.966C460.285 163.129 461.679 163.919 462.763 165.065C462.795 165.508 462.827 165.952 462.859 166.395C463.421 166.465 463.88 166.655 464.561 166.828C464.83 167.477 465.115 168.347 465.384 168.996C464.276 169.077 463.287 169.26 462.297 169.443L460.991 168.313C460.77 168.329 460.326 168.361 459.883 168.394C459.527 168.085 458.949 167.793 458.355 167.279C458.031 167.414 457.722 167.771 457.295 168.025C457.58 168.895 457.849 169.544 458.269 170.739L460.05 172.28C459.876 172.961 459.718 173.864 459.528 174.323L461.904 176.379C461.935 176.822 461.967 177.265 461.999 177.708L463.424 178.942C463.234 179.401 462.925 179.758 462.53 180.455C461.817 179.838 461.342 179.427 460.764 179.135C459.569 179.556 458.841 178.718 458.247 178.204C458.026 178.22 457.582 178.252 457.701 178.355C457.662 179.361 457.559 179.48 456.958 180.414C457.448 181.047 457.939 181.68 458.312 182.21C458.209 182.329 458.225 182.55 458.225 182.55C457.678 182.701 457.116 182.631 456.602 183.225C456.191 183.701 455.898 184.279 455.114 184.225C455.083 183.781 455.051 183.338 454.916 183.014C454.473 183.046 454.03 183.078 453.365 183.127C453.214 182.581 452.945 181.932 452.794 181.386C452.573 181.402 452.13 181.434 451.686 181.466L447.767 178.075C447.324 178.107 447 178.242 446.438 178.172L441.687 174.062C441.324 175.202 441.047 176.002 440.889 176.905C441.142 177.332 441.38 177.537 441.633 177.964C441.103 178.337 441.103 178.337 438.862 176.606C438.419 176.639 437.976 176.671 437.414 176.6C435.989 175.367 434.445 174.031 433.02 172.798C432.901 172.696 432.798 172.814 432.355 172.847C432.791 174.263 434.049 174.729 434.881 175.448C435.57 177.291 436.14 179.032 436.845 181.098C437.407 181.168 437.85 181.136 438.515 181.088L439.703 182.115C439.735 182.558 439.766 183.002 439.798 183.445L443.123 186.322C442.933 186.782 442.728 187.019 442.435 187.598C441.77 187.646 441.208 187.575 440.322 187.64L437.947 185.585C437.503 185.617 437.06 185.649 436.617 185.682L433.292 182.804C432.572 183.636 433.355 183.691 433.506 184.237C433.64 184.561 433.569 185.123 433.601 185.567C434.195 186.08 434.907 186.697 435.501 187.211C435.517 187.432 435.549 187.876 435.478 188.438C435.834 188.746 436.309 189.157 436.8 189.79C436.848 190.455 436.792 191.239 436.856 192.125L438.637 193.667C438.749 195.218 439.936 196.246 439.485 197.727C439.28 197.964 438.955 198.099 438.749 198.337C437.76 198.52 437.68 197.412 437.118 197.342C437.087 196.898 437.055 196.455 437.023 196.012L435.717 194.882C435.511 195.119 435.187 195.254 435.187 195.254C435.472 196.125 434.395 196.649 434.665 197.297C434.95 198.168 433.976 198.573 434.024 199.238C434.278 199.665 434.515 199.87 434.768 200.298C434.666 200.416 434.784 200.519 434.681 200.638C433.898 200.584 433.098 200.308 432.077 200.048L431.008 199.123C430.977 198.68 430.945 198.236 430.913 197.793C430.47 197.825 430.027 197.858 429.805 197.874C429.773 197.43 429.741 196.987 429.607 196.663C428.823 196.608 428.546 197.408 428.135 197.884C427.217 197.505 428.055 196.776 427.683 196.246L426.377 195.115C425.934 195.148 425.491 195.18 424.929 195.109C423.86 194.184 422.791 193.26 421.722 192.335C421.603 192.232 421.501 192.351 421.279 192.367C422.53 194.281 425.261 196.645 428.016 197.781C428.832 198.279 429.544 198.895 430.494 199.717C430.304 200.177 429.996 200.533 429.6 201.23L427.106 199.073C426.695 199.548 426.165 199.921 425.753 200.396L429.197 203.376C429.245 204.041 429.276 204.485 429.427 205.031C429.989 205.101 430.551 205.172 431.113 205.242C431.738 206.199 430.591 207.285 430.67 208.393C430.892 208.377 431.217 208.242 431.881 208.194C432.816 208.794 433.663 209.735 434.494 210.455C434.526 210.898 434.558 211.341 434.605 212.006C435.167 212.077 435.626 212.266 436.529 212.423L439.023 214.581C439.086 215.468 439.134 216.133 439.079 216.916L448.698 225.24C448.73 225.683 448.761 226.126 448.793 226.57C449.236 226.537 449.68 226.505 450.123 226.473L451.429 227.603C451.342 227.944 451.477 228.268 451.493 228.49C451.912 229.685 453.036 229.826 454.16 229.967C454.176 230.188 454.208 230.632 454.121 230.972L463.028 238.679C463.075 239.344 463.226 239.89 463.495 240.539C464.057 240.609 464.619 240.68 465.165 240.529C465.181 240.75 465.197 240.972 465.332 241.297C465.348 241.518 465.245 241.637 465.364 241.74C467.026 243.178 468.807 244.72 470.47 246.158C470.502 246.602 470.534 247.045 470.565 247.488C471.009 247.456 471.452 247.424 472.117 247.375C472.267 247.921 472.418 248.468 472.584 249.235L475.909 252.112C476.464 253.632 476.884 254.827 477.303 256.021C477.968 255.973 478.411 255.941 479.076 255.892C478.784 256.471 478.372 256.946 478.166 257.184C477.826 257.097 477.604 257.113 477.604 257.113C475.942 255.675 474.161 254.133 472.498 252.695C472.466 252.251 472.45 252.03 472.521 251.468L468.602 248.077C468.571 247.633 468.539 247.19 468.507 246.747L461.382 240.581C461.35 240.138 461.437 239.797 461.287 239.251L450.361 229.798C450.329 229.354 450.416 229.014 450.282 228.689C449.838 228.722 449.395 228.754 448.952 228.786L447.646 227.656C447.614 227.212 447.582 226.769 447.55 226.326C445.175 224.271 442.8 222.216 440.425 220.16C440.306 220.058 440.203 220.177 439.982 220.193C440.267 221.063 440.331 221.95 440.837 222.804C441.225 223.555 442.247 223.815 442.001 225.059L452.333 233.999C452.365 234.442 452.278 234.782 452.413 235.107L459.419 241.17C459.451 241.613 459.483 242.056 459.514 242.499C459.958 242.467 460.401 242.435 460.844 242.403L463.457 244.663C463.489 245.107 463.52 245.55 463.552 245.993L469.371 251.028C469.284 251.369 469.419 251.693 469.45 252.137L473.963 256.041C473.995 256.485 474.027 256.928 473.94 257.269L476.315 259.324C476.735 260.519 477.036 261.611 477.337 262.703C477.558 262.687 478.002 262.654 478.223 262.638C478.508 263.509 478.778 264.158 479.063 265.028C477.187 265.276 476.909 262.957 475.239 262.967C475.287 263.632 475.319 264.075 475.382 264.961L477.164 266.503C477.195 266.946 477.227 267.389 477.259 267.833C479.024 269.152 478.859 271.504 479.975 273.094C479.667 273.45 479.564 273.569 479.358 273.807C478.234 273.666 478.234 273.666 478.02 272.233L476.595 271C476.373 271.016 476.27 271.135 476.049 271.151C476.453 272.124 475.495 272.751 475.559 273.638L476.865 274.768C476.897 275.211 476.929 275.654 476.96 276.098L478.029 277.023C478.433 277.996 478.599 278.763 478.987 279.515C478.782 279.753 478.576 279.991 478.37 280.228C477.246 280.087 477.143 280.206 477.032 278.655L475.251 277.113C474.689 277.043 474.483 277.281 474.737 277.708C475.702 278.751 475.252 280.232 475.45 281.443C475.007 281.475 474.682 281.611 474.239 281.643C473.875 282.783 475.205 282.686 475.339 283.011C475.419 284.119 475.569 284.665 475.617 285.33C474.185 285.546 473.852 284.01 472.593 283.545C472.522 284.107 472.332 284.566 472.142 285.026C471.921 285.042 471.818 285.161 471.699 285.058C468.73 282.489 465.643 279.817 462.674 277.248C462.658 277.027 462.745 276.686 462.729 276.465C462.713 276.243 462.697 276.021 462.578 275.918C460.678 274.274 458.659 272.527 456.759 270.883C456.728 270.44 456.712 270.218 456.696 269.997C456.577 269.894 456.68 269.775 456.561 269.672C453.474 267.001 450.386 264.329 447.18 261.554C447.061 261.452 446.942 261.349 446.926 261.127C446.91 260.906 446.878 260.462 446.965 260.122L443.64 257.245C442.857 257.19 442.699 258.093 442.271 258.347C440.846 257.114 439.54 255.983 438.115 254.75C437.996 254.647 437.672 254.782 437.466 255.02C437.664 256.231 439.231 256.34 439.43 257.551C439.445 257.772 439.477 258.216 439.493 258.437L444.243 262.548C444.156 262.888 444.053 263.007 443.864 263.467L448.495 267.474C448.527 267.917 448.559 268.361 448.59 268.804L451.44 271.27C451.219 271.286 448.939 270.561 448.939 270.561C448.116 271.512 450.245 271.691 449.422 272.642C449.913 273.275 450.404 273.908 451.014 274.643C450.025 274.826 449.138 274.891 448.149 275.074C448.521 275.604 448.774 276.031 448.925 276.577C449.059 276.902 448.972 277.242 448.988 277.464C449.36 277.994 450.16 278.27 450.326 279.038C449.606 279.87 449.321 278.999 448.862 278.81C447.976 278.874 447.817 279.777 447.287 280.15C447.113 280.831 447.62 281.685 446.544 282.209C445.57 282.614 445.253 281.3 444.47 281.246C444.248 281.262 443.805 281.294 443.362 281.327L428.636 268.584C428.193 268.617 427.75 268.649 427.528 268.665L410.19 253.662C409.746 253.694 409.303 253.727 408.86 253.759L406.96 252.115C406.928 251.671 406.896 251.228 406.865 250.785C406.643 250.801 406.2 250.833 405.978 250.849C405.756 250.865 405.756 250.865 405.638 250.763C400.413 246.241 395.069 241.617 389.843 237.096C389.725 236.993 389.606 236.89 389.606 236.89C389.163 236.923 388.719 236.955 388.157 236.884C388.007 236.338 387.856 235.792 387.706 235.246C387.484 235.262 387.041 235.294 386.598 235.327L367.716 218.988C367.272 219.02 366.829 219.052 366.386 219.085C365.586 218.809 365.744 217.906 365.697 217.241C365.475 217.257 365.032 217.289 364.589 217.322L355.563 209.512C355.12 209.544 354.677 209.576 354.352 209.711C354.218 209.387 354.305 209.047 354.154 208.501C353.814 208.414 353.489 208.549 352.927 208.478L342.714 199.641C342.271 199.673 341.828 199.706 341.385 199.738C341.353 199.295 341.321 198.851 341.289 198.408C340.965 198.543 340.624 198.456 340.181 198.489L330.562 190.165C330.119 190.197 329.676 190.23 329.232 190.262L318.901 181.322C318.457 181.354 318.014 181.386 317.571 181.418L306.646 171.965C306.202 171.997 305.759 172.029 305.537 172.045L288.199 157.042C287.756 157.075 287.313 157.107 286.87 157.139C286.838 156.696 286.806 156.253 286.774 155.809L283.568 153.035C283.243 153.17 282.903 153.083 282.46 153.115L269.397 141.812C269.349 141.147 269.317 140.704 269.285 140.26C269.578 139.682 269.784 139.444 269.974 138.985L268.549 137.752C268.501 137.087 268.351 136.541 268.54 136.082C268.611 135.519 269.023 135.044 269.213 134.584C268.77 134.617 268.326 134.649 268.105 134.665C267.819 133.795 267.431 133.043 267.265 132.275C268.033 132.108 268.919 132.044 269.687 131.876C269.71 130.649 269.512 129.438 269.536 128.211C269.639 128.092 269.741 127.974 269.844 127.855C271.197 126.531 272.52 127.883 273.952 127.667L279.059 132.086C279.502 132.054 279.945 132.021 280.388 131.989L285.495 136.408C285.938 136.376 286.381 136.343 286.825 136.311C286.856 136.754 286.888 137.198 286.936 137.863C287.395 138.052 287.957 138.123 289.081 138.264L292.05 140.833C292.493 140.8 292.936 140.768 293.261 140.633C293.293 141.076 293.427 141.401 293.459 141.844C293.902 141.812 294.243 141.898 294.686 141.866L297.892 144.641C298.335 144.608 298.779 144.576 299.222 144.544C301.359 146.394 303.497 148.243 305.635 150.093C305.753 150.196 305.856 150.077 306.078 150.061C305.777 148.969 305.777 148.969 304.352 147.736C304.32 147.292 304.185 146.968 304.154 146.525C303.71 146.557 303.489 146.573 302.943 146.724L295.817 140.559C295.374 140.591 294.931 140.623 294.606 140.758L290.094 136.853C289.65 136.885 289.207 136.918 288.764 136.95L281.757 130.887C281.195 130.817 280.531 130.865 280.309 130.881C279.478 130.162 279.976 129.346 279.81 128.578C280.031 128.562 280.356 128.427 280.475 128.53C282.731 130.482 284.987 132.434 287.362 134.49C287.703 134.576 288.146 134.544 288.589 134.512C289.761 135.318 290.948 136.345 292.12 137.151C292.12 137.151 292.342 137.135 292.445 137.016C292.429 136.795 292.532 136.676 292.413 136.573C288.494 133.182 284.694 129.894 280.775 126.503C281.313 124.681 279.769 123.345 280.085 121.54C280.528 121.508 280.853 121.373 281.296 121.34C281.454 120.438 280.552 120.281 280.045 119.426C280.132 119.086 280.306 118.405 280.48 117.724C281.382 117.881 282.522 118.244 283.765 118.487C283.765 118.487 283.868 118.368 283.852 118.147C283.836 117.925 283.836 117.925 283.717 117.822C283.598 117.72 283.48 117.617 283.361 117.514C270.416 106.313 257.591 95.2154 244.647 84.0147C244.528 83.9119 244.409 83.8092 244.393 83.5875C244.828 81.8849 243.522 80.7546 243.719 78.8465C243.925 78.6087 244.337 78.1332 244.938 77.1983C244.906 76.755 244.621 75.8846 244.336 75.0142C245.325 74.8308 245.768 74.7986 246.536 74.6313L248.555 76.3782C248.998 76.346 249.441 76.3137 249.663 76.2976L257.501 83.0797C257.533 83.523 257.548 83.7446 257.58 84.1879C258.023 84.1557 258.467 84.1234 258.91 84.0912L260.216 85.2216C260.248 85.6648 260.28 86.1081 260.312 86.5514C260.533 86.5353 260.976 86.503 261.198 86.4869C261.436 86.6924 261.657 86.6763 261.895 86.8818C266.882 91.1977 271.989 95.6163 276.977 99.9322C277.008 100.376 277.024 100.597 277.056 101.04C277.396 101.127 277.721 100.992 278.283 101.063L286.714 108.358C286.746 108.802 286.762 109.023 286.794 109.467C287.237 109.434 287.68 109.402 288.124 109.37L309.974 128.278C310.006 128.721 310.038 129.164 310.07 129.607C310.513 129.575 310.956 129.543 311.297 129.63C311.328 130.073 311.344 130.295 311.376 130.738C311.716 130.824 312.041 130.689 312.603 130.76C312.738 131.084 312.651 131.425 312.801 131.971C313.244 131.939 313.688 131.906 314.131 131.874C314.147 132.096 314.06 132.436 314.076 132.658C314.21 132.982 314.226 133.204 314.464 133.41C321.708 139.678 328.833 145.843 336.077 152.112C336.52 152.079 336.742 152.063 337.185 152.031C337.32 152.356 337.233 152.696 337.368 153.02C337.929 153.091 338.61 153.264 339.188 153.556C339.647 153.746 339.917 154.395 340.668 154.006C340.653 153.784 340.755 153.665 340.637 153.562C322.823 138.149 304.891 122.632 287.078 107.218C287.046 106.775 287.015 106.332 286.983 105.888L284.608 103.833C284.576 103.39 284.544 102.946 284.512 102.503L279.406 98.0846C279.493 97.744 279.358 97.4197 279.342 97.198C279.327 96.9764 279.327 96.9764 279.208 96.8736C269.589 88.5501 260.088 80.3294 250.469 72.0059C250.35 71.9031 250.232 71.8004 250.216 71.5787C250.2 71.3571 250.168 70.9138 250.136 70.4705L247.524 68.2098C247.492 67.7666 247.46 67.3233 247.547 66.9828L243.035 63.0779C242.813 63.094 242.37 63.1263 241.808 63.0558L240.501 61.9254C240.47 61.4821 240.438 61.0389 240.406 60.5956L239.1 59.4652C239.052 58.8003 239.107 58.0165 239.044 57.13L237.381 55.6913C236.961 54.4965 236.66 53.4044 236.122 52.1068L234.459 50.6682C234.427 50.2249 234.396 49.7817 234.245 49.2356C233.889 48.9273 233.501 48.1758 233.058 48.208C231.847 48.4075 230.999 47.4666 229.907 47.7688L223.257 42.0143C222.687 40.2734 222.148 38.9758 221.712 37.5594L222.432 36.7272C222.179 36.3 221.926 35.8729 221.656 35.2241C221.862 34.9863 222.052 34.5269 222.463 34.0514C223.722 34.5169 224.466 35.5767 225.519 36.2799C225.962 36.2476 226.406 36.2154 226.849 36.1832L231.955 40.6018C231.987 41.0451 232.019 41.4884 232.051 41.9316L233.238 42.9592C233.27 43.4025 233.302 43.8458 233.452 44.3918C233.793 44.4785 234.252 44.6679 234.592 44.7545C234.663 44.1923 234.631 43.7491 234.616 43.5274C235.162 43.3763 235.708 43.2252 236.032 43.0902C236.341 42.7336 236.444 42.6147 236.325 42.5119C236.348 41.2848 236.269 40.1766 236.292 38.9496C236.894 38.0147 237.63 37.4041 238.231 36.4692C239.046 36.9669 239.521 37.3779 240.099 37.6701C241.279 37.0273 242.355 36.5035 243.653 35.9635L246.265 38.2242C246.297 38.6674 246.448 39.2135 246.582 39.5379C247.208 40.495 248.577 39.3928 249.1 40.4688C249.97 40.1826 250.77 40.4587 251.601 41.178C251.537 40.2914 251.609 39.7293 251.561 39.0644L250.136 37.8312C250.207 37.2691 250.484 36.4692 250.658 35.7881C251.489 36.5075 252.32 37.2268 253.27 38.0488C255.368 37.7849 257.465 37.5209 258.898 37.3053C260.141 37.5491 260.821 37.7224 261.502 37.8957C261.518 38.1173 261.55 38.5606 261.582 39.0039L264.194 41.2646C264.416 41.2485 264.859 41.2162 265.081 41.2001C266.102 41.46 266.506 42.4332 267.305 42.7092C267.337 43.1525 267.25 43.493 267.282 43.9363C267.622 44.0229 267.947 43.888 268.509 43.9585C268.643 44.2829 268.556 44.6234 268.588 45.0667C269.031 45.0344 269.372 45.1211 269.815 45.0888L284.659 57.9337C285.103 57.9015 285.546 57.8692 285.989 57.837C286.789 58.113 286.409 59.0318 286.781 59.5617C287.224 59.5295 287.667 59.4973 288.229 59.5678C288.38 60.1138 288.531 60.6599 288.697 61.4275L293.091 65.2296C293.312 65.2135 293.756 65.1813 294.199 65.149C294.349 65.6951 294.278 66.2572 294.635 66.5655C294.991 66.8738 295.656 66.8254 296.218 66.8959C296.234 67.1176 296.147 67.4581 296.178 67.9014C296.804 68.8584 297.96 69.4427 298.688 70.2809C299.131 70.2487 299.456 70.1137 299.796 70.2003C300.271 70.6114 300.849 70.9035 301.324 71.3146C302.298 70.9096 303.152 70.4018 304.007 69.8941C304.11 69.7752 304.213 69.6563 304.316 69.5374C304.339 68.3103 304.26 67.2022 304.164 65.8723C305.17 65.9106 306.207 66.3922 307.299 66.0899C308.288 65.9066 309.365 65.3827 309.887 66.4586C310.845 65.832 311.478 65.3404 310.647 64.621C311.264 63.9078 310.773 63.2751 310.931 62.3724L309.625 61.2421C309.403 61.2582 308.96 61.2904 308.295 61.3388L305.207 58.6671C304.906 57.575 304.605 56.4829 304.201 55.5097C303.98 55.5258 303.655 55.6608 303.093 55.5903C302.959 55.2659 303.046 54.9254 302.895 54.3794L295.532 48.0083C295.69 47.1056 295.199 46.4729 295.817 45.7597C296.125 45.403 296.077 44.7381 296.149 44.176C296.813 44.1276 297.581 43.9604 298.468 43.8959C299.291 42.9448 297.161 42.7655 297.984 41.8145C297.493 41.1818 297.533 40.1764 297.161 39.6465C296.551 38.911 296.828 38.1111 296.764 37.2246L298.616 35.0847C299.827 34.8853 300.951 35.0263 301.995 34.0592C302.779 34.1135 303.293 33.5192 303.942 33.2492C304.591 32.9792 305.375 33.0336 306.143 32.8663C306.689 32.7152 307.267 33.0074 307.781 32.413C308.905 32.554 308.905 32.554 309.269 31.4136C308.35 31.0348 308.208 32.1591 307.781 32.413L306.118 30.9743C306.205 30.6338 306.395 30.1744 306.601 29.9367C307.558 29.31 308.833 29.9971 309.656 29.0461C310.582 27.9761 311.872 28.8849 312.917 27.9177C313.653 27.3072 314.88 27.3293 315.75 27.0432C315.956 26.8055 316.043 26.465 316.146 26.3461C316.13 26.1244 316.233 26.0056 316.114 25.9028C315.283 25.1835 314.451 24.4642 313.501 23.6421C313.058 23.6743 312.615 23.7066 312.393 23.7227C311.61 23.6683 312.346 23.0578 312.686 23.1444L299.385 11.6354C298.966 10.4406 298.475 9.80788 298.411 8.92133C298.332 7.81313 297.326 7.77486 297.041 6.90442C297.096 6.12063 297.848 5.73175 298.347 4.91571C298.109 4.71019 297.975 4.3858 297.587 3.63424C297.658 3.07209 297.697 2.06665 297.823 0.720703C298.164 0.807342 298.623 0.996741 299.185 1.06726C300.396 0.86778 300.697 1.95985 300.998 3.05193C301.22 3.03581 301.663 3.00356 301.987 2.86856L303.887 4.51271C303.903 4.73435 303.935 5.17763 304.086 5.72366L307.292 8.49816C307.735 8.46592 308.076 8.55256 308.4 8.41756C308.551 8.9636 308.598 9.62851 308.954 9.93679C309.311 10.2451 309.976 10.1967 310.419 10.1645C310.435 10.3861 310.466 10.8294 310.38 11.1699L318.217 17.952C318.439 17.9359 318.763 17.8009 319.325 17.8714C319.563 18.0769 320.038 18.488 320.394 18.7962C320.75 19.1045 321.194 19.0723 321.486 18.494C322.08 19.0078 322.523 18.9756 322.816 18.3973ZM395.6 214.843C395.995 214.146 396.407 213.671 395.402 213.632C395.418 213.854 395.449 214.297 395.584 214.622C395.323 215.643 395.323 215.643 396.463 216.006C397.064 215.071 396.059 215.033 395.6 214.843ZM433.489 118.737C433.093 119.434 432.682 119.909 433.687 119.948C433.671 119.726 433.639 119.283 431.937 118.849C432.571 118.358 433.536 119.402 434.003 118.142C432.222 116.601 430.441 115.059 428.659 113.518C428.54 113.415 428.438 113.534 428.216 113.55C428.01 113.788 427.702 114.145 427.615 114.485C427.631 114.707 427.646 114.928 427.765 115.031C428.85 116.178 430.394 117.514 433.489 118.737ZM255.329 41.9094C255.037 42.4877 255.527 43.1203 254.997 43.4931C255.575 43.7852 255.18 44.4824 255.433 44.9096C255.876 44.8773 256.319 44.8451 256.763 44.8128L259.969 47.5873C260.412 47.5551 260.634 47.539 261.077 47.5067L263.69 49.7674C263.722 50.2107 263.856 50.5351 263.888 50.9784C264.331 50.9461 264.656 50.8111 264.996 50.8978C266.065 51.8226 267.252 52.8502 268.44 53.8778C268.677 54.0833 268.693 54.305 268.931 54.5105C268.947 54.7321 268.979 55.1754 268.994 55.397C269.438 55.3648 269.881 55.3326 270.324 55.3003L285.168 68.1452C285.612 68.113 286.055 68.0807 286.498 68.0485C286.53 68.4918 286.562 68.935 286.696 69.2594L293.109 74.8084C293.552 74.7762 293.996 74.744 294.217 74.7278C294.487 75.3766 294.518 75.8199 294.669 76.3659C295.334 76.3176 295.674 76.4042 296.117 76.372L299.442 79.2492C299.474 79.6925 299.49 79.9142 299.403 80.2547C300.116 80.8712 300.622 81.7255 301.644 81.9855C301.968 81.8505 302.308 81.9371 302.53 81.921C303.005 82.332 303.361 82.6403 303.836 83.0513C304.311 83.4624 304.699 84.2139 305.586 84.1494C305.522 83.2629 304.913 82.5275 304.952 81.522L300.677 77.8227C300.51 77.055 300.36 76.509 300.225 76.1846C299.442 76.1302 299.101 76.0435 298.539 75.973C298.508 75.5297 298.492 75.3081 298.476 75.0865L297.051 73.8534C296.607 73.8856 296.283 74.0206 295.943 73.934L287.036 66.227C286.474 66.1565 285.809 66.2049 285.247 66.1343C285.199 65.4694 285.049 64.9234 285.017 64.4801C284.574 64.5124 284.131 64.5446 283.79 64.458C283.094 64.063 283.165 63.5009 283.117 62.836C283.101 62.6143 283.101 62.6143 283.101 62.6143L277.995 58.1957C277.551 58.2279 277.33 58.244 277.005 58.379C276.989 58.1574 276.974 57.9358 276.736 57.7302C276.601 57.4058 276.348 56.9787 276.213 56.6543C275.77 56.6865 275.327 56.7188 274.884 56.751C274.733 56.205 274.994 55.1834 274.195 54.9074C273.751 54.9396 273.308 54.9719 272.865 55.0041L271.559 53.8738C271.527 53.4305 271.495 52.9872 271.36 52.6628C270.917 52.695 270.695 52.7112 270.252 52.7434C270.22 52.3001 270.086 51.9757 270.173 51.6352L268.391 50.0938C267.37 49.8339 266.808 49.7634 266.349 49.574C266.302 48.9091 266.27 48.4658 266.238 48.0225L264.338 46.3784C263.895 46.4106 263.451 46.4429 263.008 46.4751L258.496 42.5702C258.052 42.6025 257.609 42.6347 257.166 42.667C256.469 42.2721 256.303 41.5044 255.322 43.3581C254.744 43.0659 254.269 42.6549 254.111 43.5576C254.348 43.7631 254.673 43.6281 255.329 41.9094ZM394.191 216.951L396.448 218.903C397.279 219.623 398.11 220.342 399.06 221.164C400.367 222.294 400.367 222.294 401.253 222.23C398.593 219.304 392.536 214.064 389.259 211.851C389.037 211.867 388.713 212.002 388.491 212.018C386.504 210.715 385.016 208.595 382.823 207.529C382.823 207.529 382.72 207.648 382.617 207.767C385.277 210.693 390.146 214.906 393.424 217.118C393.645 217.102 393.97 216.967 394.191 216.951ZM314.287 29.9346C313.891 30.6318 314.793 30.7889 314.825 31.2322C314.833 32.9025 315.546 33.5191 317.097 33.4063C318.301 34.6555 320.604 34.1538 321.618 35.8624C321.736 35.9652 322.18 35.9329 322.401 35.9168L323.018 35.2035C322.733 34.3331 322.448 33.4627 322.044 32.4895L320.5 31.1536C319.376 31.0126 318.252 30.8715 317.01 30.6277L315.822 29.6001C315.498 29.7351 314.833 29.7835 314.287 29.9346ZM431.616 252.661C431.671 251.877 431.845 251.196 431.916 250.634C425.994 245.717 420.413 240.888 414.729 236.177C414.729 236.177 414.507 236.193 414.404 236.312C414.483 237.42 415.623 237.783 416.336 238.399C417.064 239.238 417.998 239.838 418.948 240.66L423.461 244.565C424.292 245.284 425.124 246.003 426.074 246.826C426.786 247.442 427.705 247.821 428.108 248.794C428.021 249.135 428.156 249.459 428.172 249.681C428.615 249.648 429.059 249.616 429.502 249.584L430.808 250.714C430.84 251.158 430.872 251.601 430.903 252.044C430.816 252.385 431.276 252.574 431.616 252.661ZM342.752 159.758C344.106 161.554 345.871 162.873 347.415 164.209C347.447 164.652 347.462 164.874 347.494 165.317C348.801 166.448 350.226 167.681 351.532 168.811C351.651 168.914 351.754 168.795 351.975 168.779C351.69 167.908 352.41 167.076 352.568 166.174C352.212 165.865 351.856 165.557 351.381 165.146C351.024 164.838 350.787 164.632 350.446 164.546C350.003 164.578 349.782 164.594 349.338 164.626C348.388 163.804 347.319 162.879 346.251 161.954C345.182 161.03 344.319 159.867 342.752 159.758ZM362.452 189.071C365.944 192.716 371.288 197.34 372.071 197.394C372.071 197.394 372.174 197.275 372.277 197.157C372.261 196.935 372.364 196.816 372.245 196.713C369.276 194.144 366.308 191.575 363.22 188.904C363.22 188.904 362.895 189.039 362.452 189.071ZM455.215 145.228C454.502 144.612 453.671 143.893 452.959 143.276C452.721 143.07 452.705 142.849 452.571 142.524C452.555 142.303 452.523 141.859 452.507 141.638C451.842 141.686 451.296 141.837 450.734 141.767C450.457 142.567 451.138 142.74 451.494 143.048C451.866 143.578 452.017 144.124 452.286 144.773C452.508 144.757 452.951 144.725 453.173 144.709C453.205 145.152 453.339 145.476 453.371 145.919C456.102 148.283 456.102 148.283 456.633 147.91C456.142 147.278 455.651 146.645 455.176 146.234C455.144 145.791 455.231 145.45 455.215 145.228ZM411.416 99.845C410.395 99.5851 409.612 99.5307 408.59 99.2708C408.535 100.055 408.583 100.72 408.496 101.06C409.208 101.677 409.565 101.985 409.446 101.882C411.116 101.872 412.121 101.91 413.791 101.9L411.416 99.845ZM425.469 110.965C425.073 111.662 424.765 112.019 424.369 112.716C425.271 112.873 425.47 114.084 426.665 113.663C426.87 113.425 427.06 112.966 427.369 112.609L425.469 110.965ZM415.613 105.555C415.574 106.561 416.476 106.718 416.832 107.026C417.735 107.183 418.637 107.34 419.421 107.395C419.46 106.389 418.558 106.232 418.201 105.924C417.418 105.87 416.515 105.712 415.613 105.555ZM453.566 164.174C454.072 165.029 453.368 166.083 454.762 166.872C455.086 166.737 455.854 166.57 456.503 166.3C455.996 165.446 455.165 164.727 453.566 164.174ZM429.032 208.847C429.428 208.15 429.736 207.793 430.029 207.215C429.451 206.923 429.095 206.614 428.636 206.425C428.343 207.003 428.034 207.36 427.845 207.819L429.032 208.847ZM422.746 110.272C422.809 111.159 423.166 111.467 424.155 111.284C424.361 111.046 424.55 110.586 424.843 110.008C424.265 109.716 423.806 109.527 423.45 109.218L422.627 110.169L422.746 110.272ZM355.897 184.646C357.132 186.339 357.235 186.22 358.122 186.155C357.837 185.285 357.243 184.771 355.897 184.646ZM432.313 253.056C432.495 254.045 432.645 254.591 433.722 254.067C433.674 253.402 433.318 253.094 432.313 253.056ZM312.824 65.4653C312.721 65.5842 312.515 65.8219 312.412 65.9408C312.65 66.1463 312.903 66.5735 313.14 66.779C313.259 66.8818 313.481 66.8656 313.584 66.7467C313.687 66.6279 313.876 66.1685 313.758 66.0657C313.52 65.8602 313.164 65.5519 312.824 65.4653ZM404.765 90.9715C404.781 91.1931 404.575 91.4308 404.591 91.6525C404.813 91.6364 404.932 91.7391 405.035 91.6203C405.137 91.5014 405.224 91.1609 405.209 90.9392C405.09 90.8365 404.868 90.8526 404.765 90.9715ZM450.558 133.091C450.542 132.869 450.645 132.75 450.526 132.647C450.407 132.545 450.186 132.561 449.845 132.474C449.861 132.696 449.758 132.815 449.877 132.917C449.996 133.02 450.217 133.004 450.558 133.091ZM446.823 136.927C446.601 136.943 446.482 136.84 446.142 136.754C446.158 136.975 446.055 137.094 446.174 137.197C446.293 137.3 446.514 137.284 446.855 137.37C446.839 137.149 446.72 137.046 446.823 136.927ZM450.093 140.588C450.314 140.572 450.433 140.675 450.773 140.761C450.758 140.54 450.86 140.421 450.742 140.318C450.623 140.215 450.401 140.231 450.061 140.145C449.958 140.264 450.077 140.366 450.093 140.588ZM362.571 67.9736C362.587 68.1953 362.381 68.433 362.397 68.6547C362.5 68.5358 362.841 68.6224 362.841 68.6224C362.943 68.5035 363.03 68.163 363.015 67.9414C362.896 67.8386 362.793 67.9575 362.571 67.9736ZM335.963 46.4043C335.947 46.1826 336.05 46.0638 335.931 45.961C335.812 45.8582 335.591 45.8744 335.25 45.7877C335.266 46.0094 335.163 46.1282 335.282 46.231C335.504 46.2149 335.844 46.3015 335.963 46.4043ZM348.416 56.9723C348.432 57.194 348.226 57.4317 348.242 57.6534C348.464 57.6373 348.582 57.74 348.685 57.6211C348.788 57.5023 348.875 57.1617 348.859 56.9401C348.741 56.8373 348.638 56.9562 348.416 56.9723ZM425.429 203.65C425.413 203.429 425.413 203.429 425.398 203.207C425.176 203.223 424.97 203.461 424.749 203.477C424.749 203.477 424.765 203.699 424.78 203.92C424.883 203.801 425.105 203.785 425.429 203.65ZM425.572 205.645C425.794 205.629 425.794 205.629 426.016 205.613C426 205.391 425.984 205.17 425.746 204.964C425.746 204.964 425.525 204.98 425.303 204.996C425.438 205.321 425.454 205.542 425.572 205.645ZM436.293 218.456C436.277 218.234 436.483 217.996 436.467 217.775C436.245 217.791 436.126 217.688 436.024 217.807C435.921 217.926 435.834 218.266 435.85 218.488C435.952 218.369 436.071 218.472 436.293 218.456ZM437.718 219.689C437.734 219.911 437.734 219.911 437.75 220.132C437.971 220.116 438.177 219.878 438.399 219.862C438.399 219.862 438.383 219.641 438.367 219.419C438.264 219.538 437.94 219.673 437.718 219.689ZM341.327 158.525C341.311 158.303 341.516 158.066 341.5 157.844C341.279 157.86 341.16 157.757 341.057 157.876C340.954 157.995 340.867 158.336 340.883 158.557C341.105 158.541 341.327 158.525 341.327 158.525ZM404.277 224.015C404.261 223.793 404.467 223.556 404.451 223.334C404.23 223.35 404.111 223.247 404.008 223.366C403.905 223.485 403.818 223.826 403.834 224.047C403.953 224.15 404.174 224.134 404.277 224.015ZM361.914 187.773C361.692 187.789 361.573 187.687 361.47 187.806C361.368 187.924 361.281 188.265 361.296 188.487C361.518 188.47 361.637 188.573 361.74 188.454C361.843 188.335 361.827 188.114 361.914 187.773ZM379.521 203.425C379.537 203.647 379.331 203.884 379.347 204.106C379.569 204.09 379.688 204.193 379.79 204.074C379.893 203.955 379.98 203.614 379.964 203.393C379.861 203.512 379.64 203.528 379.521 203.425ZM424.561 242.814C424.577 243.036 424.577 243.036 424.593 243.257C424.814 243.241 425.02 243.003 425.242 242.987C425.242 242.987 425.226 242.766 425.21 242.544C424.988 242.56 424.664 242.695 424.561 242.814ZM353.997 183.002C353.981 182.78 354.187 182.543 354.171 182.321C353.95 182.337 353.831 182.234 353.728 182.353C353.625 182.472 353.538 182.813 353.554 183.034C353.776 183.018 353.894 183.121 353.997 183.002ZM435.986 254.571C435.764 254.587 435.764 254.587 435.542 254.603C435.558 254.825 435.574 255.046 435.812 255.252C435.812 255.252 436.033 255.236 436.255 255.22C436.239 254.998 436.001 254.792 435.986 254.571Z" fill="#FEE3B3"/>
<path d="M315.674 154.564C318.438 154.148 318.438 154.148 323.536 148.805C320.423 150.038 317.059 150.872 315.674 154.564Z" fill="#4F300C"/>
<path d="M314.152 79.7001C313.774 79.1488 312.372 79.0254 311.497 79.9373C310.824 80.6785 309.465 80.606 309.042 81.746C307.591 82.7955 305.918 83.6841 304.759 85.1832C304.572 85.1667 304.42 85.2946 304.405 85.4816C300.876 87.7609 297.269 89.8449 294.204 92.7771C293.726 93.4414 292.496 93.5214 292.633 94.7108C292.416 95.0683 291.391 94.3659 291.68 95.4274C287.361 97.5899 284.106 101.118 280.422 104.137C278.519 104.958 276.78 106.076 275.863 108.068C274.026 108.659 272.669 109.717 271.954 111.538C271.479 111.59 270.942 111.26 270.572 111.746C269.378 113.1 267.362 113.582 266.511 115.344C265.601 116.111 263.767 116.091 264.03 118.045C263.525 118.471 262.057 118.577 262.65 119.383C263.371 120.341 263.911 118.929 264.51 118.511C265.993 118.217 266.252 116.78 266.897 115.801C267.613 115.111 269.347 116.347 269.458 114.426C271.965 113.705 273.621 111.873 275.371 110.049C275.826 109.665 276.281 109.282 276.686 108.94C278.2 108.273 279.285 107.097 280.37 105.921C282.632 106.45 283.105 104.137 284.404 103.216C287.762 100.733 291.54 98.8525 294.34 95.7086C296.108 95.9584 295.39 94.3883 295.782 93.6224C296.522 93.7817 297.141 93.6949 297.533 92.9289C298.873 92.6701 299.997 92.157 300.307 90.6774C301.003 89.6556 302.899 90.058 303.038 88.375C304.073 88.3719 304.68 87.8603 304.772 86.7383C305.27 86.4054 305.718 86.1152 306.259 85.8332C307.731 86.2453 307.904 84.7066 308.799 84.1262C309.146 83.9212 309.449 83.6654 309.795 83.4604C311.263 83.3542 311.974 82.1454 312.978 81.3861C313.39 80.9515 314.908 80.8027 314.152 79.7001ZM293.482 94.6913C293.416 94.9209 293.401 95.1079 293.343 95.2441C293.401 95.1079 293.51 94.9292 293.482 94.6913Z" fill="#4F300C"/>
<path d="M333.705 182.004C331.405 183.072 328.883 183.981 327.955 186.677C330.263 185.515 332.434 184.293 333.705 182.004Z" fill="#4F300C"/>
<path d="M341.112 176.628C341.416 176.372 342.159 175.92 341.414 175.242C340.798 174.717 340.308 174.956 339.896 175.391C338.609 176.737 337.415 178.092 336.128 179.439C335.334 179.934 334.497 180.378 334.09 181.331C335.741 181.853 335.728 180.298 336.514 179.896C338.522 179.508 339.653 177.771 341.112 176.628Z" fill="#4F300C"/>
<path d="M311.257 70.8279C311.232 69.9782 311.979 68.9138 311.075 68.4575C309.999 67.7977 309.791 69.192 309.277 69.7119C308.62 70.2662 308.006 70.8714 307.298 71.4683C306.344 72.1849 305.341 72.9441 304.388 73.6607C304.263 74.0265 304.046 74.3841 303.922 74.7499C301.291 75.8368 299.725 78.2888 297.351 79.6808C295.591 79.3375 296.427 81.7656 295.052 81.88C292.5 83.1622 290.076 84.5969 289.039 87.4723L289.082 87.5231C286.718 87.0796 286.079 89.7074 284.249 90.2056C283.258 91.3897 280.879 91.1331 280.889 93.3001C282.341 93.3809 283.465 91.7375 285.093 92.5401C285.409 92.7092 285.992 92.478 285.844 91.9941C285.731 91.6545 285.236 91.3754 284.928 91.1129C285.955 90.0731 288.093 90.9677 288.628 89.0371C289.505 89.2555 289.882 88.6766 290.302 88.1485C290.725 87.0085 293.252 87.749 292.58 85.6179C293.523 85.6067 294.558 85.6037 294.802 84.3537C295.106 84.0979 295.409 83.8421 295.712 83.5862C296.88 83.124 297.4 81.3803 299.094 81.9533C299.125 81.5793 299.198 81.2561 299.229 80.8821C299.797 80.838 300.522 81.1843 300.649 80.2067C301.886 78.9029 303.824 78.2259 304.359 76.2953C304.511 76.1673 304.663 76.0394 304.815 75.9115C305.573 75.272 306.332 74.6324 307.09 73.9928C308.149 73.7093 308.65 72.7646 309.409 72.125C310.3 72.1564 311.305 72.5274 311.257 70.8279Z" fill="#4F300C"/>
<path d="M351.889 79.8201C352.422 79.6316 353.056 79.3578 352.83 78.6786C352.568 77.855 351.817 78.4011 351.385 78.5043C350.521 78.7108 351.331 79.1588 351.401 79.4476C351.098 79.7034 350.838 80.0101 350.585 80.2233C350.242 79.8164 350.066 79.0945 349.439 79.2748C348.906 79.4633 349.42 80.0737 349.339 80.4903C348.757 81.8517 346.676 80.821 346.258 82.4793C345.523 83.9686 343.608 84.3651 343.096 86.0152C341.734 86.5546 340.415 87.1448 339.053 87.6841C338.466 88.5271 337.929 89.3275 337.031 90.5199C338.335 90.1167 338.977 89.7494 339.369 88.9834C340.969 88.4179 342.432 87.7933 343.182 86.117C344.17 85.5447 345.373 85.2268 346.026 84.1541C348.482 83.4757 350.139 81.6438 351.889 79.8201Z" fill="#4F300C"/>
<path d="M392.519 94.557C393.336 93.7813 393.366 92.277 394.841 92.0773C395.238 91.8297 395.693 91.446 395.12 90.9717C394.855 90.76 394.169 89.9462 393.933 91.1026C392.307 92.5605 390.774 94.0267 389.149 95.4846C387.261 96.1189 386.332 97.6853 384.481 99.5942C387.054 98.6434 388.933 98.1026 389.449 95.8406C390.749 96.0493 391.753 95.29 392.519 94.557Z" fill="#4F300C"/>
<path d="M304.525 116.1C305.203 115.877 305.615 115.443 305.813 114.754C306.419 114.242 307.599 114.205 307.325 112.956C307.22 112.523 306.745 112.575 306.32 112.585C305.09 112.665 305.48 113.641 305.376 114.339C304.555 114.596 302.66 112.451 303.127 115.365C301.184 115.523 301.393 118.132 299.579 118.443C298.54 119.058 297.459 119.622 297.737 121.389C298.448 120.18 299.795 119.827 300.713 118.967C301.841 117.841 303.733 117.726 304.525 116.1Z" fill="#4F300C"/>
<path d="M321.829 191.93C321.91 191.513 321.451 191.379 320.983 191.337C318.877 191.199 319.549 193.33 318.674 194.242C318.623 194.285 318.522 194.37 318.515 194.463C317.424 193.991 315.841 195.499 315.586 197.455C316.862 196.814 318.267 196.325 318.815 194.819C320.134 194.229 321.504 193.596 321.829 191.93Z" fill="#4F300C"/>
<path d="M326.022 187.873C325.052 187.646 324.274 187.954 323.608 188.602C324.025 188.686 324.442 188.769 324.859 188.853C324.229 189.645 323.505 190.429 322.876 191.221C324.475 190.656 325.681 189.726 326.708 188.686C327.633 187.732 326.835 187.709 326.022 187.873Z" fill="#4F300C"/>
<path d="M347.249 170.67C345.674 172.085 344.013 173.399 342.259 174.704C344.469 174.146 346.088 172.781 347.249 170.67Z" fill="#4F300C"/>
<path d="M295.554 122.185C294.1 120.974 293.188 123.484 291.904 124.218C291.067 124.663 290.453 125.268 290.403 126.441C291.575 126.497 292.104 125.79 292.676 125.134C293.66 124.043 296.263 122.719 295.554 122.185Z" fill="#4F300C"/>
<path d="M409.856 168.271C411.012 168.514 411.389 167.935 411.38 166.898C411.524 166.864 411.676 166.736 411.691 166.549C412.209 166.547 412.684 166.495 412.559 165.73C412.862 165.474 413.166 165.219 413.469 164.963C413.881 164.528 414.336 164.145 414.698 163.753C415.624 162.798 415.65 161.906 414.286 161.315C415.045 160.675 414.674 160.03 414.245 159.522C413.516 158.657 413.467 159.83 413.027 160.027C412.148 160.42 411.225 160.763 410.346 161.156C409.151 161.381 408.256 161.961 408.098 163.313C407.935 164.146 406.63 163.419 406.596 164.405C405.989 164.917 404.166 164.191 404.912 165.999C401.716 166.518 399.597 168.827 397.364 170.797C395.263 172.307 393.213 173.775 391.112 175.285C390.279 175.117 389.445 174.95 389.388 176.216C388.575 176.38 388.786 177.246 388.323 177.724C383.909 178.748 381.553 182.213 379.026 185.475C376.399 185.95 375.88 188.824 373.853 190.011C372.579 192.913 372.614 193.057 374.771 193.153C375.162 194.129 375.894 194.382 376.879 194.422C378.028 194.758 378.428 193.899 378.957 193.192C379.101 193.157 379.202 193.072 379.261 192.936C380.534 192.907 382.392 193.777 381.809 191.135C382.135 190.599 382.419 190.012 382.745 189.476C383.193 189.185 383.597 188.844 384.045 188.554C384.893 188.535 385.442 188.159 385.519 187.224C385.671 187.096 385.822 186.968 386.017 186.891C387.78 186.623 389.201 185.947 390.087 184.33C392.225 185.225 391.261 182.644 392.276 182.31C392.732 181.926 393.187 181.542 393.642 181.158C394.137 181.437 394.682 181.674 395.188 181.247C395.643 180.864 395.257 180.406 395.007 180.007C395.766 179.368 396.516 178.821 397.275 178.182C397.998 177.398 400.609 178.852 399.652 176.178C400.138 175.42 400.913 175.724 401.633 175.552C402.734 175.319 401.975 174.829 401.53 174.507C402.021 174.268 402.418 174.02 402.908 173.781C402.693 173.526 402.479 173.272 402.222 172.967C402.436 173.221 402.651 173.475 402.908 173.781C403.803 173.2 405.169 173.179 405.156 171.624C404.984 171.421 404.805 171.311 404.634 171.107C404.376 170.802 404.119 170.497 403.768 170.183C404.025 170.489 404.283 170.794 404.591 171.056C404.762 171.26 404.941 171.37 405.113 171.573C406.211 171.952 406.405 170.745 407.09 170.429C408.893 170.823 409.125 169.148 409.856 168.271ZM380.89 190.866C380.991 190.781 381.049 190.645 381.15 190.56C381.092 190.696 380.991 190.781 380.89 190.866C380.387 190.681 380.142 190.8 379.983 191.022C380.142 190.8 380.43 190.732 380.89 190.866ZM388.988 183.951C388.961 183.713 388.925 183.568 388.898 183.331C388.883 183.518 388.961 183.713 388.988 183.951ZM378.792 191.765C378.118 191.376 377.51 190.757 376.607 191.431C375.735 191.731 375.213 191.214 374.784 190.705C375.264 191.171 375.743 191.637 376.607 191.431C377.467 190.706 378.075 191.325 378.792 191.765ZM403.456 169.402C403.686 169.47 403.865 169.58 403.791 169.903C403.814 169.622 403.635 169.512 403.456 169.402ZM411.427 163.465C410.69 162.693 409.889 163.282 409.075 163.446C409.881 163.376 410.733 162.744 411.427 163.465ZM410.584 165.133C410.736 165.005 410.887 164.877 410.989 164.792C410.837 164.919 410.685 165.047 410.584 165.133ZM407.372 168.711C407.586 168.966 407.707 169.212 407.727 169.543C407.707 169.212 407.536 169.008 407.372 168.711Z" fill="#4F300C"/>
<path d="M310.719 201.123C313.001 200.853 313.672 198.981 314.772 197.619C313.2 198.422 311.585 199.174 310.719 201.123Z" fill="#4F300C"/>
<path d="M262.245 119.724C259.964 119.994 259.285 121.959 257.736 122.482C256.977 123.122 255.852 123.635 256.341 125.137C257.228 124.65 258.057 124.3 258.243 123.186C259.756 122.519 261.142 121.699 262.245 119.724Z" fill="#4F300C"/>
<path d="M355.286 146.75C357.4 146.795 357.799 144.805 358.927 143.68C356.555 143.33 356.242 145.422 355.286 146.75Z" fill="#4F300C"/>
<path d="M335.329 138.165C336.914 137.787 338.089 137.231 338.979 136.132C339.391 135.698 339.336 135.222 338.892 134.9C338.713 134.79 338.374 134.902 338.094 134.877C338.264 136.823 335.798 136.464 335.329 138.165Z" fill="#4F300C"/>
<path d="M386.489 122.703C385.66 123.054 384.652 123.295 384.377 124.919C385.51 124.312 386.717 124.513 386.961 123.263C387.019 123.127 386.582 122.712 386.489 122.703Z" fill="#4F300C"/>
<path d="M351.2 90.4958C352.262 89.6004 353.172 88.8329 354.133 88.0228C353.137 88.6885 351.038 88.4567 351.2 90.4958Z" fill="#4F300C"/>
<path d="M242.934 123.91C244.58 122.784 244.848 122.383 245.22 121.286C244.302 122.147 243.271 122.668 242.934 123.91Z" fill="#4F300C"/>
<path d="M277.407 96.1486C277.372 96.0043 276.546 95.7432 276.134 96.1778C275.765 96.6633 275.294 97.234 275.622 97.8279C275.7 98.0232 276.514 97.8593 277.032 97.8578C277.179 97.2116 277.412 96.667 277.407 96.1486Z" fill="#4F300C"/>
<path d="M362.903 141.111C360.622 141.381 359.817 142.581 358.927 143.68C360.624 143.641 361.351 142.246 362.903 141.111Z" fill="#4F300C"/>
<path d="M388.217 60.4154C387.322 60.9959 386.536 61.3976 386.032 62.9542C387.624 62.4822 388.468 61.9444 388.217 60.4154Z" fill="#4F300C"/>
<path d="M420.941 141.605C423.396 139.797 425.894 138.039 427.604 135.552C427.433 135.349 427.168 135.137 426.996 134.934C424.872 136.724 422.748 138.515 420.625 140.306C419.558 140.683 418.85 141.28 418.707 142.445C419.841 142.968 420.378 142.168 420.941 141.605Z" fill="#4F300C"/>
<path d="M364.634 78.211C364.576 78.3471 365.013 78.7622 365.157 78.7278C366.208 78.5378 366.37 77.7045 366.715 76.3693C365.727 76.9416 364.855 77.2415 364.634 78.211Z" fill="#4F300C"/>
<path d="M286.593 127.565C286.236 128.475 286.462 129.155 286.942 129.621C286.985 129.672 287.922 129.142 287.945 128.861C288.108 128.028 287.173 127.946 286.593 127.565Z" fill="#4F300C"/>
<path d="M265.537 103.721C265.247 105.532 263.607 105.435 263.757 107.049C264.71 106.332 265.862 106.057 265.537 103.721Z" fill="#4F300C"/>
<path d="M309.659 110.901C311.252 111.56 311.847 110.623 312.555 110.026C312.348 109.678 312.091 109.373 311.884 109.025C311.176 109.622 310.468 110.219 309.659 110.901Z" fill="#4F300C"/>
<path d="M318.54 104.196C318.591 104.153 318.591 104.153 318.54 104.196C318.498 104.145 318.498 104.145 318.54 104.196Z" fill="#4F300C"/>
<path d="M316.358 106.123C314.636 105.312 315.453 107.409 314.588 107.615C313.701 108.102 312.814 108.589 311.884 109.025C312.091 109.373 312.348 109.678 312.555 110.026C313.905 109.062 315.59 108.598 316.468 107.074C317.32 106.443 318.165 105.905 318.931 105.172C319.647 104.482 319.101 104.245 318.498 104.145C317.954 105.039 317.503 105.941 316.358 106.123Z" fill="#4F300C"/>
<path d="M271.696 100.355C271.361 99.8544 270.944 99.7706 270.489 100.154C270.135 100.453 270.054 100.869 270.455 101.14C270.856 101.411 271.367 101.503 271.779 101.068C271.837 100.932 271.774 100.55 271.696 100.355Z" fill="#4F300C"/>
<path d="M357.648 84.1884C358.964 84.2101 359.629 83.5623 360.088 82.5667C359.629 83.5623 357.993 82.8532 357.648 84.1884Z" fill="#4F300C"/>
<path d="M378.029 130.011C378.947 129.15 379.511 128.587 380.226 127.897C378.637 127.757 378.031 128.269 378.029 130.011Z" fill="#4F300C"/>
<path d="M347.896 92.3239C347.912 92.1369 347.67 91.6447 347.576 91.6365C346.677 91.6986 346.156 92.312 345.842 93.2732C346.948 93.5589 347.668 93.3869 347.896 92.3239Z" fill="#4F300C"/>
<path d="M331.153 95.0409C329.287 94.2645 329.5 96.261 328.698 96.8497C326.241 96.3979 326.276 99.4146 324.454 99.8193C323.239 99.7124 323.139 100.928 322.524 101.533C320.812 101.759 319.134 102.129 318.591 104.153C320.584 103.952 322.25 103.157 323.545 101.717C325.728 100.92 327.147 99.1147 328.773 97.6568C329.726 96.9401 330.629 96.2662 331.582 95.5496C332.391 94.8674 333.2 94.1852 334.009 93.503C332.779 93.583 331.67 93.9092 331.153 95.0409Z" fill="#4F300C"/>
<path d="M362.031 116.783C361.528 116.598 361.096 116.701 360.82 117.195C360.711 117.373 360.782 117.662 360.759 117.943C361.405 118.094 361.751 117.889 362.063 117.539C362.273 117.275 362.44 116.96 362.031 116.783Z" fill="#4F300C"/>
<path d="M353.243 148.124C354.501 148.282 354.979 147.618 355.286 146.75C354.215 146.609 353.558 147.163 353.243 148.124Z" fill="#4F300C"/>
<path d="M285.233 130.365C284.458 130.061 283.847 130.055 283.505 130.778C282.583 131.12 280.971 131.261 281.475 132.577C281.822 133.502 282.95 132.377 283.686 132.018C284.858 132.074 284.447 130.767 285.233 130.365Z" fill="#4F300C"/>
<path d="M278.37 134.846C276.473 134.444 275.989 136.332 274.798 137.075C273.592 138.005 271.993 138.57 271.98 141.018C273.244 139.952 274.205 139.142 275.115 138.374C276.177 137.479 277.239 136.583 278.301 135.688C279.161 134.963 280.278 134.543 280.751 133.361C279.307 133.187 279.113 134.394 278.37 134.846Z" fill="#4F300C"/>
<path d="M374.787 107.594C374.444 107.187 374.105 107.298 373.752 107.597C373.499 107.81 373.145 108.108 373.437 108.558C373.788 108.871 374.169 108.811 374.473 108.555C374.963 108.315 375.087 107.95 374.787 107.594Z" fill="#4F300C"/>
<path d="M328.62 168.277C330.1 168.595 330.114 167.278 330.728 166.673C329.435 166.371 328.992 167.179 328.62 168.277Z" fill="#4F300C"/>
<path d="M383.854 65.3995C383.87 65.2125 383.526 64.8056 383.34 64.7891C382.261 64.7413 382.328 65.6419 381.975 67.0706C382.722 66.0061 383.762 66.5215 383.854 65.3995Z" fill="#4F300C"/>
<path d="M357.262 162.228C355.221 161.86 355.909 163.804 355.322 164.647C355.827 164.221 356.333 163.794 356.839 163.368C357.478 163.613 358.011 163.424 358.065 162.77C358.255 162.174 357.787 162.133 357.262 162.228Z" fill="#4F300C"/>
<path d="M327.969 144.11C327.717 144.323 327.312 144.664 327.706 145.029C327.834 145.181 328.216 145.121 328.403 145.137C328.807 144.796 329.025 144.438 328.674 144.125C328.545 143.972 328.121 143.982 327.969 144.11Z" fill="#4F300C"/>
<path d="M254.724 113.882C254.525 113.441 254.058 113.4 253.754 113.655C253.501 113.869 253.463 114.336 253.339 114.702C253.713 114.735 253.993 114.759 254.417 114.75C255.079 114.714 254.837 114.222 254.724 113.882Z" fill="#4F300C"/>
<path d="M332.506 165.087C331.369 165.175 331.507 166.365 330.822 166.681C331.943 166.78 332.371 166.158 332.506 165.087Z" fill="#4F300C"/>
<path d="M305.436 163.458C305.229 163.11 304.82 162.933 304.552 163.333C304.443 163.511 304.607 163.808 304.67 164.191C305.001 164.173 305.324 164.248 305.425 164.163C305.483 164.027 305.514 163.653 305.436 163.458Z" fill="#4F300C"/>
<path d="M368.948 111.647C368.647 111.291 368.208 111.488 368.04 111.803C367.932 111.982 367.909 112.262 367.893 112.449C368.38 112.822 368.719 112.71 368.937 112.353C369.088 112.225 369.076 111.8 368.948 111.647Z" fill="#4F300C"/>
<path d="M410.745 149.419L410.897 149.291C414.202 148.593 415.842 145.818 417.996 143.653C415.364 143.61 414.323 145.967 412.44 147.12C410.91 146.844 411.352 148.907 410.165 149.038C408.631 149.374 408.24 151.27 406.578 151.454C404.586 152.785 402.937 154.524 401.467 156.372C398.867 157.085 397.304 158.925 396.091 161.079C397.932 159.875 400.4 159.621 401.433 157.358C402.741 157.473 403.55 156.791 404.11 155.71C405.04 155.274 405.705 154.626 406.335 153.834C407.588 153.473 408.327 152.502 409.109 151.582C409.91 150.994 411.627 151.286 410.745 149.419Z" fill="#4F300C"/>
<path d="M353.643 51.0148C353.272 50.37 352.295 50.2369 351.794 51.1816C350.354 51.5257 349.206 52.3194 348.222 53.41C347.062 53.7788 345.816 54.0458 345.062 55.2038C344.876 55.1873 344.724 55.3152 344.623 55.4005C343.256 55.4215 342.533 56.2054 342.195 57.4471C342.001 57.5241 341.892 57.7029 341.97 57.8981C341.343 58.0784 340.76 58.3096 340.133 58.4898C338.569 59.1997 337.183 60.0196 336.305 61.5433C335.85 61.927 334.805 60.8933 334.655 62.1514C333.613 63.3782 331.542 63.3842 331.057 65.2722C329.52 66.22 327.519 66.5147 326.661 68.3698C325.372 68.586 324.376 69.2517 323.852 70.477C323.031 70.7343 322.088 70.7455 321.681 71.6985C321.529 71.8264 321.428 71.9117 321.319 72.0905C320.685 72.3642 320.179 72.7906 320.118 73.5386C318.518 74.1042 317.004 74.7714 316.383 76.6003C315.539 77.1381 314.437 77.3708 314.135 78.7569C315.63 78.8885 316.795 79.0381 317.478 77.5914C318.556 76.509 320.541 76.4013 320.975 74.5559C321.559 74.3248 322.143 74.0936 322.727 73.8625C323.03 73.6067 323.333 73.3508 323.594 73.0442C324.115 72.4308 325.237 72.5295 325.457 71.5601C326.15 71.1502 326.714 70.5876 326.876 69.7543C329.806 70.7656 330.355 67.5177 332.258 66.6964C332.713 66.3127 333.125 65.8781 333.58 65.4943C334.394 65.3305 334.533 64.7777 334.4 64.1068C336.36 64.8914 336.665 62.8934 337.669 62.1342C338.861 62.5217 339.097 61.3652 339.84 60.9127C340.727 60.4257 341.614 59.9387 342.501 59.4518C343.065 58.8893 343.622 58.4202 344.186 57.8577C344.641 57.474 345.189 57.0985 345.644 56.7147C345.998 56.4163 346.879 57.1531 346.734 56.0572C347.504 55.8425 348.326 55.5852 348.453 54.6076C350.259 54.3899 351.181 52.917 352.531 51.9528C352.842 51.6035 354.178 51.9565 353.643 51.0148Z" fill="#4F300C"/>
<path d="M256.163 112.408C256.557 112.772 256.825 112.372 257.128 112.116C257.186 111.98 257.252 111.75 257.318 111.521C256.937 111.581 256.606 111.599 256.267 111.711C256.123 111.745 256.077 112.306 256.163 112.408Z" fill="#4F300C"/>
<path d="M341.204 134.256C341.321 133.984 341.429 133.805 341.546 133.533C341.172 133.5 340.806 133.374 340.518 133.442C340.273 133.562 340.192 133.979 340.075 134.251C340.406 134.233 340.78 134.266 341.204 134.256Z" fill="#4F300C"/>
<path d="M380.245 103.601C381.117 103.301 381.58 102.823 382.132 101.836C380.886 102.103 380.123 102.224 380.245 103.601Z" fill="#4F300C"/>
<path d="M351.902 166.748C351.508 166.383 350.983 166.478 350.621 166.87C350.461 167.092 350.532 167.38 350.509 167.661C350.984 167.609 351.416 167.505 351.747 167.487C352.144 167.24 352.073 166.951 351.902 166.748Z" fill="#4F300C"/>
<path d="M262.628 107.044C262.188 107.24 261.9 107.309 261.791 107.488C261.682 107.667 261.652 108.041 261.73 108.236C261.894 108.533 262.268 108.566 262.384 108.294C262.458 107.97 262.488 107.596 262.628 107.044Z" fill="#4F300C"/>
<path d="M380.554 66.6158C379.935 66.7026 379.495 66.8993 379.305 67.4947C379.581 67.001 380.828 67.8642 380.554 66.6158Z" fill="#4F300C"/>
<path d="M340.284 98.4817C341.736 98.5625 342.194 97.5668 342.617 96.4269C342.726 96.2481 342.784 96.1119 342.843 95.9758C343.932 95.3183 345.15 94.8134 345.137 93.2582C345.152 93.0712 344.716 92.6561 344.572 92.6905C343.174 93.0855 342.529 94.0646 342.414 95.4672C341.787 95.6474 340.853 95.5652 341.091 96.6692C340.472 96.756 339.483 96.198 339.426 97.4644C339.317 97.6432 339.165 97.7711 339.056 97.9499C337.703 99.5259 335.344 99.6008 334.034 101.228C333.578 101.611 333.166 102.046 332.711 102.43C332.365 102.635 332.019 102.84 331.672 103.045C330.151 103.805 329.023 104.93 328.374 106.521C327.312 107.417 325.658 107.507 324.943 109.327C327.065 109.279 327.853 107.135 329.559 107.002C329.674 105.6 331.505 106.232 331.877 105.135C333.216 104.876 334.427 104.464 334.744 102.891C335.005 102.585 335.308 102.329 335.569 102.022C336.673 101.178 337.735 100.282 338.84 99.4377C339.323 99.2918 339.828 98.8654 340.284 98.4817Z" fill="#4F300C"/>
<path d="M373.403 133.041C373.223 132.931 372.842 132.992 372.597 133.111C372.402 133.188 372.235 133.503 371.874 133.895C372.543 133.766 372.967 133.756 373.306 133.645C373.602 133.482 373.812 133.218 373.403 133.041Z" fill="#4F300C"/>
<g opacity="0.9">
<path d="M291.664 354.44L368.997 266.988L291.664 338.89V354.44Z" fill="#B79658"/>
<path d="M318.997 366.135L368.997 266.988L252.73 300.081L318.997 366.135Z" fill="#FAF5E8"/>
<path d="M318.997 366.135L338.064 291.177L252.73 300.081L318.997 366.135Z" fill="#FAF5E8"/>
<path d="M291.663 338.89L276.863 324.137L368.997 266.988L291.663 338.89Z" fill="#E9C98F"/>
<path d="M291.663 338.89V354.44L276.863 324.137L291.663 338.89Z" fill="#E9C98F"/>
<path d="M210.598 273.5L287.798 186.048L210.465 257.95L210.598 273.5Z" fill="#B79658"/>
<path d="M237.931 285.195L287.798 186.048L171.531 219.141L237.931 285.195Z" fill="#FAF5E8"/>
<path d="M237.931 285.195L256.865 210.37L171.531 219.141L237.931 285.195Z" fill="#FAF5E8"/>
<path d="M210.464 257.95L195.664 243.197L287.797 186.048L210.464 257.95Z" fill="#E9C98F"/>
<path d="M210.464 257.95L210.597 273.5L195.664 243.197L210.464 257.95Z" fill="#E9C98F"/>
<path d="M129.93 417.702L207.13 330.118L129.797 402.02L129.93 417.702Z" fill="#B79658"/>
<path d="M157.263 429.265L207.13 330.118L90.8633 363.211L157.263 429.265Z" fill="#FAF5E8"/>
<path d="M157.263 429.265L176.197 354.439L90.8633 363.211L157.263 429.265Z" fill="#FAF5E8"/>
<path d="M129.796 402.02L114.996 387.267L207.129 330.118L129.796 402.02Z" fill="#E9C98F"/>
<path d="M129.796 402.02L129.929 417.702L114.996 387.267L129.796 402.02Z" fill="#E9C98F"/>
<path d="M49.0669 336.356L126.267 248.771L48.9336 320.673L49.0669 336.356Z" fill="#B79658"/>
<path d="M76.4 347.918L126.267 248.771L10 281.864L76.4 347.918Z" fill="#FAF5E8"/>
<path d="M76.4 347.918L95.3333 273.092L10 281.864L76.4 347.918Z" fill="#FAF5E8"/>
<path d="M48.9328 320.673L34.1328 305.92L126.266 248.771L48.9328 320.673Z" fill="#E9C98F"/>
<path d="M48.9328 320.673L49.0661 336.356L34.1328 305.92L48.9328 320.673Z" fill="#E9C98F"/>
<path d="M129.395 192.694L206.728 105.109L129.395 177.011V192.694Z" fill="#B79658"/>
<path d="M156.728 204.256L206.728 105.109L90.4609 138.202L156.728 204.256Z" fill="#FAF5E8"/>
<path d="M156.728 204.256L175.661 129.43L90.4609 138.202L156.728 204.256Z" fill="#FAF5E8"/>
<path d="M129.394 177.011L114.461 162.258L206.728 105.109L129.394 177.011Z" fill="#E9C98F"/>
<path d="M129.394 177.011V192.694L114.461 162.258L129.394 177.011Z" fill="#E9C98F"/>
</g>
<path d="M359.141 154.532L469.141 30L359.141 132.337V154.532Z" fill="#B94A00"/>
<path d="M398.072 171.146L469.139 30L303.672 77.1814L398.072 171.146Z" fill="#FF9123"/>
<path d="M398.072 171.146L469.139 30L303.672 77.1814L398.072 171.146Z" fill="url(#paint0_linear_3053_16383)" fill-opacity="0.5"/>
<path d="M398.072 171.145L425.005 64.5552L303.672 77.1812L398.072 171.145Z" fill="#FF9123"/>
<path d="M398.072 171.145L425.005 64.5552L303.672 77.1812L398.072 171.145Z" fill="url(#paint1_linear_3053_16383)" fill-opacity="0.5"/>
<path d="M359.137 132.337L337.938 111.338L469.137 30L359.137 132.337Z" fill="#E17200"/>
<path d="M359.137 132.337V154.532L337.938 111.338L359.137 132.337Z" fill="#E17200"/>
<g opacity="0.8">
<path fill-rule="evenodd" clip-rule="evenodd" d="M352.194 76.8307C351.849 76.3289 351.168 76.1989 350.673 76.5402C350.177 76.8816 350.054 77.565 350.398 78.0667C350.742 78.5685 351.423 78.6985 351.919 78.3572C352.415 78.0158 352.538 77.3324 352.194 76.8307ZM338.406 86.322C338.062 85.8202 337.381 85.6902 336.885 86.0316C336.389 86.3729 336.266 87.0563 336.61 87.5581C336.955 88.0598 337.636 88.1898 338.132 87.8485C338.627 87.5071 338.75 86.8237 338.406 86.322ZM348.575 88.2071C349.071 87.8658 349.752 87.9958 350.096 88.4975C350.44 88.9992 350.318 89.6827 349.822 90.024C349.326 90.3653 348.645 90.2353 348.301 89.7336C347.956 89.2319 348.079 88.5484 348.575 88.2071ZM340.523 74.5461C340.179 74.0444 339.498 73.9143 339.002 74.2557C338.506 74.597 338.383 75.2805 338.728 75.7822C339.072 76.2839 339.753 76.4139 340.249 76.0726C340.745 75.7313 340.868 75.0478 340.523 74.5461Z" fill="#472A02" fill-opacity="0.35"/>
<path fill-rule="evenodd" clip-rule="evenodd" d="M352.295 76.5372C351.951 76.0355 351.27 75.9055 350.774 76.2468C350.278 76.5881 350.155 77.2716 350.5 77.7733C350.844 78.275 351.525 78.405 352.021 78.0637C352.517 77.7224 352.64 77.0389 352.295 76.5372ZM338.508 86.0285C338.163 85.5268 337.482 85.3968 336.986 85.7381C336.491 86.0794 336.368 86.7629 336.712 87.2646C337.056 87.7663 337.737 87.8964 338.233 87.555C338.729 87.2137 338.852 86.5302 338.508 86.0285ZM348.677 87.9136C349.172 87.5723 349.853 87.7023 350.198 88.204C350.542 88.7058 350.419 89.3892 349.923 89.7306C349.427 90.0719 348.746 89.9419 348.402 89.4401C348.058 88.9384 348.181 88.255 348.677 87.9136ZM340.625 74.2526C340.281 73.7509 339.6 73.6209 339.104 73.9622C338.608 74.3036 338.485 74.987 338.829 75.4887C339.174 75.9905 339.855 76.1205 340.35 75.7791C340.846 75.4378 340.969 74.7544 340.625 74.2526Z" fill="white"/>
<path fill-rule="evenodd" clip-rule="evenodd" d="M353.806 84.0252C353.913 83.429 353.519 82.8538 352.925 82.7404C352.33 82.627 351.762 83.0183 351.655 83.6145C351.548 84.2106 351.942 84.7858 352.536 84.8992C353.13 85.0126 353.699 84.6213 353.806 84.0252ZM337.288 80.8714C337.395 80.2753 337 79.7001 336.406 79.5867C335.812 79.4732 335.244 79.8646 335.136 80.4607C335.029 81.0568 335.424 81.632 336.018 81.7455C336.612 81.8589 337.181 81.4676 337.288 80.8714ZM343.221 89.4206C343.815 89.534 344.209 90.1092 344.102 90.7053C343.995 91.3015 343.426 91.6928 342.832 91.5794C342.238 91.466 341.844 90.8907 341.951 90.2946C342.058 89.6985 342.626 89.3072 343.221 89.4206ZM347.082 74.1288C347.19 73.5327 346.795 72.9575 346.201 72.8441C345.607 72.7307 345.038 73.122 344.931 73.7181C344.824 74.3143 345.219 74.8895 345.813 75.0029C346.407 75.1163 346.975 74.725 347.082 74.1288Z" fill="#472A02" fill-opacity="0.35"/>
<path fill-rule="evenodd" clip-rule="evenodd" d="M353.869 83.7576C353.976 83.1615 353.581 82.5863 352.987 82.4728C352.393 82.3594 351.825 82.7507 351.717 83.3469C351.61 83.943 352.005 84.5182 352.599 84.6316C353.193 84.7451 353.761 84.3537 353.869 83.7576ZM337.35 80.6038C337.457 80.0077 337.063 79.4325 336.469 79.3191C335.875 79.2057 335.306 79.597 335.199 80.1931C335.092 80.7892 335.486 81.3645 336.081 81.4779C336.675 81.5913 337.243 81.2 337.35 80.6038ZM343.283 89.153C343.877 89.2664 344.272 89.8416 344.165 90.4378C344.057 91.0339 343.489 91.4252 342.895 91.3118C342.301 91.1984 341.906 90.6232 342.013 90.027C342.121 89.4309 342.689 89.0396 343.283 89.153ZM347.145 73.8613C347.252 73.2651 346.857 72.6899 346.263 72.5765C345.669 72.4631 345.101 72.8544 344.994 73.4505C344.887 74.0467 345.281 74.6219 345.875 74.7353C346.469 74.8487 347.038 74.4574 347.145 73.8613Z" fill="white"/>
<path d="M341.694 78.3399L340.811 83.6242C340.786 83.7626 340.871 83.8863 341.009 83.913L350.412 85.752C350.549 85.7787 350.671 85.6949 350.695 85.5565L351.049 83.4608C351.074 83.3224 350.989 83.1987 350.851 83.172L343.858 81.7994C343.901 81.5573 344.325 78.8669 344.325 78.8669C344.349 78.7286 344.264 78.6048 344.127 78.5782L341.957 78.1584C341.84 78.1178 341.718 78.2015 341.694 78.3399Z" fill="#472A02" fill-opacity="0.35"/>
<path d="M342.014 77.961L341.131 83.2453C341.106 83.3837 341.191 83.5074 341.329 83.5341L350.732 85.3731C350.87 85.3998 350.991 85.316 351.016 85.1776L351.369 83.0819C351.394 82.9435 351.309 82.8198 351.171 82.7931L344.179 81.4205C344.222 81.1784 344.645 78.488 344.645 78.488C344.67 78.3497 344.585 78.2259 344.447 78.1993L342.278 77.7795C342.16 77.7389 342.039 77.8226 342.014 77.961Z" fill="white"/>
</g>
<g opacity="0.8">
<path fill-rule="evenodd" clip-rule="evenodd" d="M400.574 125.902C400.124 125.492 399.432 125.521 399.027 125.966C398.622 126.412 398.659 127.106 399.109 127.515C399.559 127.925 400.251 127.896 400.656 127.45C401.061 127.005 401.024 126.311 400.574 125.902ZM389.321 138.293C388.871 137.883 388.178 137.912 387.774 138.358C387.369 138.804 387.405 139.497 387.855 139.907C388.305 140.316 388.998 140.287 389.403 139.842C389.807 139.396 389.771 138.703 389.321 138.293ZM399.651 137.804C400.056 137.358 400.749 137.329 401.199 137.739C401.649 138.149 401.685 138.842 401.28 139.288C400.876 139.733 400.183 139.763 399.733 139.353C399.283 138.943 399.247 138.25 399.651 137.804ZM388.691 126.345C388.241 125.935 387.548 125.964 387.143 126.41C386.739 126.855 386.775 127.549 387.225 127.959C387.675 128.368 388.368 128.339 388.772 127.894C389.177 127.448 389.14 126.755 388.691 126.345Z" fill="#472A02" fill-opacity="0.35"/>
<path fill-rule="evenodd" clip-rule="evenodd" d="M400.605 125.592C400.156 125.183 399.463 125.212 399.058 125.657C398.654 126.103 398.69 126.796 399.14 127.206C399.59 127.616 400.282 127.587 400.687 127.141C401.092 126.696 401.055 126.002 400.605 125.592ZM389.352 137.984C388.902 137.574 388.21 137.603 387.805 138.049C387.4 138.494 387.437 139.188 387.887 139.598C388.336 140.007 389.029 139.978 389.434 139.533C389.839 139.087 389.802 138.394 389.352 137.984ZM399.683 137.495C400.087 137.049 400.78 137.02 401.23 137.43C401.68 137.84 401.716 138.533 401.312 138.979C400.907 139.424 400.214 139.453 399.764 139.044C399.315 138.634 399.278 137.94 399.683 137.495ZM388.722 126.036C388.272 125.626 387.579 125.655 387.175 126.101C386.77 126.546 386.806 127.24 387.256 127.65C387.706 128.059 388.399 128.03 388.803 127.585C389.208 127.139 389.172 126.446 388.722 126.036Z" fill="white"/>
<path fill-rule="evenodd" clip-rule="evenodd" d="M403.784 132.537C403.752 131.932 403.237 131.462 402.632 131.488C402.028 131.513 401.564 132.024 401.596 132.629C401.628 133.234 402.144 133.704 402.748 133.678C403.352 133.653 403.816 133.142 403.784 132.537ZM386.982 133.242C386.95 132.637 386.435 132.168 385.83 132.193C385.226 132.218 384.762 132.729 384.794 133.334C384.826 133.939 385.342 134.409 385.946 134.383C386.55 134.358 387.014 133.847 386.982 133.242ZM394.712 140.209C395.316 140.184 395.832 140.653 395.864 141.258C395.896 141.863 395.432 142.374 394.828 142.399C394.223 142.425 393.708 141.955 393.676 141.35C393.644 140.745 394.108 140.234 394.712 140.209ZM394.977 124.439C394.945 123.835 394.429 123.365 393.825 123.39C393.22 123.416 392.757 123.926 392.788 124.531C392.82 125.136 393.336 125.606 393.94 125.581C394.545 125.555 395.008 125.044 394.977 124.439Z" fill="#472A02" fill-opacity="0.35"/>
<path fill-rule="evenodd" clip-rule="evenodd" d="M403.788 132.262C403.756 131.657 403.24 131.188 402.636 131.213C402.032 131.238 401.568 131.749 401.6 132.354C401.632 132.959 402.148 133.429 402.752 133.403C403.356 133.378 403.82 132.867 403.788 132.262ZM386.986 132.967C386.954 132.362 386.439 131.893 385.834 131.918C385.23 131.943 384.766 132.454 384.798 133.059C384.83 133.664 385.346 134.134 385.95 134.108C386.554 134.083 387.018 133.572 386.986 132.967ZM394.716 139.934C395.32 139.909 395.836 140.379 395.868 140.983C395.9 141.588 395.436 142.099 394.831 142.125C394.227 142.15 393.712 141.68 393.68 141.075C393.648 140.47 394.112 139.96 394.716 139.934ZM394.98 124.165C394.949 123.56 394.433 123.09 393.829 123.115C393.224 123.141 392.76 123.652 392.792 124.256C392.824 124.861 393.34 125.331 393.944 125.306C394.548 125.28 395.012 124.769 394.98 124.165Z" fill="white"/>
<path d="M390.701 129.771L391.049 135.117C391.057 135.257 391.168 135.358 391.308 135.353L400.882 134.994C401.022 134.988 401.122 134.879 401.114 134.739L400.979 132.618C400.972 132.477 400.861 132.376 400.72 132.382L393.599 132.644C393.586 132.398 393.383 129.682 393.383 129.682C393.375 129.542 393.264 129.441 393.124 129.447L390.916 129.534C390.793 129.521 390.693 129.63 390.701 129.771Z" fill="#472A02" fill-opacity="0.35"/>
<path d="M390.924 129.329L391.272 134.676C391.28 134.816 391.391 134.917 391.531 134.911L401.105 134.553C401.245 134.547 401.344 134.438 401.337 134.297L401.202 132.176C401.194 132.036 401.083 131.935 400.943 131.94L393.822 132.202C393.808 131.957 393.606 129.241 393.606 129.241C393.598 129.101 393.487 129 393.347 129.005L391.139 129.092C391.015 129.08 390.916 129.189 390.924 129.329Z" fill="white"/>
</g>
<defs>
<linearGradient id="paint0_linear_3053_16383" x1="350.471" y1="39.98" x2="398.595" y2="176.567" gradientUnits="userSpaceOnUse">
<stop stop-color="#FFCA00"/>
<stop offset="0.791667" stop-color="#FF9000"/>
</linearGradient>
<linearGradient id="paint1_linear_3053_16383" x1="337.988" y1="72.0919" x2="375.167" y2="174.554" gradientUnits="userSpaceOnUse">
<stop stop-color="#FFCA00"/>
<stop offset="0.791667" stop-color="#FF9000"/>
</linearGradient>
</defs>
</svg>
