<svg width="16" height="16" viewBox="0 0 16 16" fill="none" xmlns="http://www.w3.org/2000/svg">
<path d="M9.29673 7.99971L15.7445 1.55193C15.8719 1.40314 15.9385 1.21175 15.931 1.016C15.9234 0.820254 15.8422 0.634568 15.7037 0.49605C15.5652 0.357532 15.3795 0.276384 15.1838 0.268823C14.988 0.261263 14.7966 0.327845 14.6478 0.455266L8.20007 6.90304L1.75229 0.447488C1.60583 0.30103 1.40719 0.21875 1.20007 0.21875C0.992942 0.21875 0.794302 0.30103 0.647844 0.447488C0.501385 0.593946 0.419106 0.792587 0.419106 0.99971C0.419106 1.20683 0.501385 1.40547 0.647844 1.55193L7.1034 7.99971L0.647844 14.4475C0.566425 14.5172 0.500298 14.603 0.453613 14.6995C0.406928 14.796 0.380694 14.9011 0.376556 15.0082C0.372419 15.1153 0.390467 15.2222 0.42957 15.322C0.468672 15.4218 0.527984 15.5124 0.603782 15.5882C0.679581 15.664 0.770228 15.7233 0.870037 15.7624C0.969845 15.8015 1.07666 15.8196 1.18377 15.8154C1.29089 15.8113 1.39599 15.7851 1.49249 15.7384C1.58898 15.6917 1.67478 15.6256 1.74451 15.5442L8.20007 9.09638L14.6478 15.5442C14.7966 15.6716 14.988 15.7382 15.1838 15.7306C15.3795 15.723 15.5652 15.6419 15.7037 15.5034C15.8422 15.3649 15.9234 15.1792 15.931 14.9834C15.9385 14.7877 15.8719 14.5963 15.7445 14.4475L9.29673 7.99971Z" fill="#EB5757"/>
</svg>
