<svg width="101" height="28" viewBox="0 0 101 28" fill="none" xmlns="http://www.w3.org/2000/svg">
<path d="M99.3748 6.61426H96.1777C95.8172 6.61426 95.5527 6.90391 95.5527 7.24184V12.0936H90.9373V7.26598C90.9373 6.90391 90.6489 6.6384 90.2883 6.6384H87.0912C86.7306 6.6384 86.4662 6.92805 86.4662 7.26598V20.566C86.4662 20.928 86.7546 21.1936 87.0912 21.1936H90.2883C90.6489 21.1936 90.9373 20.9039 90.9373 20.566V15.3039H95.5527V20.5418C95.5527 20.9039 95.8412 21.1694 96.1777 21.1694H99.3748C99.7354 21.1694 100.024 20.8798 100.024 20.5418V7.26598C100.024 6.90391 99.7354 6.61426 99.3748 6.61426Z" fill="#FF8D36"/>
<path d="M83.4375 6.61426H80.2884C79.9519 6.61426 79.6634 6.90391 79.6634 7.24184V9.05219L74.7596 14.0246V7.26598C74.7596 6.90391 74.4711 6.6384 74.1346 6.6384H70.9855C70.649 6.6384 70.3605 6.92805 70.3605 7.26598V20.566C70.3605 20.928 70.649 21.1936 70.9855 21.1936H74.1346C74.4711 21.1936 74.7596 20.9039 74.7596 20.566V18.5867L79.6634 13.6143V20.5418C79.6634 20.9039 79.9519 21.1694 80.2884 21.1694H83.4375C83.774 21.1694 84.0625 20.8798 84.0625 20.5418V7.26598C84.0865 6.90391 83.798 6.61426 83.4375 6.61426Z" fill="#FF8D36"/>
<path d="M62.38 6.49371C61.0338 6.49371 59.6156 7.07302 58.7742 7.79716V7.72474V5.38336H58.7502V0.700607C58.7502 0.000606915 58.3415 -0.047669 57.7886 0.0247448L55.2886 0.362676C54.88 0.410952 54.6396 0.579917 54.6396 1.13509V7.70061V7.77302C53.7982 7.04888 52.404 6.46957 51.0338 6.46957C46.8752 6.46957 44.7838 10.0661 44.7838 13.8799C44.7838 17.8385 46.9232 21.8696 51.2982 21.8696C52.4521 21.8696 53.5338 21.5316 54.303 20.9523V22.8834V26.9868C54.303 27.6627 54.6396 27.9041 55.2165 27.9041H55.4569H57.9329H58.1732C58.7742 27.9041 59.0867 27.6627 59.0867 26.9868V22.8834V20.9523C59.88 21.5316 60.9617 21.8696 62.0915 21.8696C66.4665 21.8696 68.6059 17.8385 68.6059 13.8799C68.63 10.0661 66.5386 6.49371 62.38 6.49371ZM49.4232 14.1696C49.4232 12.3592 49.9761 10.1385 52.1877 10.1385C53.0531 10.1385 54.1588 10.7178 54.6396 11.2247V16.7282C54.6156 16.9696 54.5675 17.211 54.4954 17.4523C53.9425 17.911 53.0771 18.2972 52.2838 18.2972C50.0963 18.273 49.4232 15.9558 49.4232 14.1696ZM61.13 18.273C60.3367 18.273 59.4713 17.8868 58.9184 17.4282C58.8463 17.211 58.7982 16.9696 58.7742 16.7041V11.2006C59.255 10.6937 60.3607 10.1144 61.2261 10.1144C63.4377 10.1144 63.9906 12.3351 63.9906 14.1454C63.9906 15.9558 63.2934 18.273 61.13 18.273Z" fill="#FF8D36"/>
<path d="M38.5097 20.5419C38.5097 20.9039 38.7981 21.1695 39.1347 21.1695H42.3078C42.6683 21.1695 42.9328 20.8798 42.9328 20.5419V7.26601C42.9328 6.90395 42.6443 6.63843 42.3078 6.63843H31.6828C31.3462 6.63843 31.0578 6.92808 31.0578 7.26601V12.1902C31.0578 15.2798 30.3366 17.2591 28.3895 17.8867C27.8126 18.0557 27.6443 18.2005 27.8126 18.8281L28.3414 20.7833C28.4616 21.266 28.7981 21.3867 29.351 21.2901C33.1251 20.6143 35.2885 17.3315 35.2885 12.166V9.67981H38.5097V20.5419Z" fill="#FF8D36"/>
<path d="M27.7885 14.2179C27.8125 9.65579 26.1058 6.17993 21.3943 6.17993C16.8029 6.17993 13.6779 9.22131 13.6779 13.8558C13.6779 18.6351 16.6827 21.5799 21.4183 21.5799C23.1491 21.5799 25.2404 21.2903 26.8029 20.5661C27.2837 20.3489 27.452 20.1075 27.3318 19.6006L26.8029 17.573C26.6827 17.1386 26.3221 17.0903 25.9616 17.2351C24.7837 17.742 23.5096 18.0075 22.2116 18.0075C20.3846 18.0075 18.726 16.9696 18.3654 15.0868H26.7068C27.452 15.0868 27.7885 14.942 27.7885 14.2179ZM18.4375 12.2386C18.6539 10.8386 19.6395 9.63166 21.1058 9.63166C22.6443 9.63166 23.3895 10.9592 23.3895 12.2386H18.4375Z" fill="#FF8D36"/>
<path d="M17.3317 3.54885L17.5721 1.18333C17.6202 0.676438 17.3077 0.435059 16.8269 0.435059H0.817308C0.264423 0.435059 0 0.676438 0 1.18333V3.37989C0 3.98333 0.240385 4.27299 0.841346 4.27299H6.29808V20.4454C6.29808 21.073 6.34615 21.1695 6.99519 21.1695H10.3606C10.9615 21.1695 11.0577 21.0488 11.0577 20.3971V4.29713H16.2981C16.899 4.29713 17.2837 4.12816 17.3317 3.54885Z" fill="#FF8D36"/>
</svg>
